<?xml version="1.0" encoding="UTF-8"?>
<!DOCTYPE svg PUBLIC "-//W3C//DTD SVG 1.1//EN" "http://www.w3.org/Graphics/SVG/1.1/DTD/svg11.dtd">
<!-- Creator: CorelDRAW X7 -->
<svg xmlns="http://www.w3.org/2000/svg" xml:space="preserve" width="1.90327in" height="1.6869in" version="1.1" style="shape-rendering:geometricPrecision; text-rendering:geometricPrecision; image-rendering:optimizeQuality; fill-rule:evenodd; clip-rule:evenodd"
viewBox="0 0 924 819"
 xmlns:xlink="http://www.w3.org/1999/xlink">
 <defs>
  <style type="text/css">
   <![CDATA[
    .fil42 {fill:none}
    .fil16 {fill:#068D7B;fill-rule:nonzero}
    .fil38 {fill:#0FA79D;fill-rule:nonzero}
    .fil23 {fill:#131515;fill-rule:nonzero}
    .fil12 {fill:#252525;fill-rule:nonzero}
    .fil3 {fill:#26AAE2;fill-rule:nonzero}
    .fil31 {fill:#3A415D;fill-rule:nonzero}
    .fil30 {fill:#3AACA8;fill-rule:nonzero}
    .fil19 {fill:#3E0626;fill-rule:nonzero}
    .fil17 {fill:#424141;fill-rule:nonzero}
    .fil10 {fill:#446998;fill-rule:nonzero}
    .fil22 {fill:#54032B;fill-rule:nonzero}
    .fil32 {fill:#585858;fill-rule:nonzero}
    .fil39 {fill:#5AA59B;fill-rule:nonzero}
    .fil13 {fill:#5EB59D;fill-rule:nonzero}
    .fil28 {fill:#60CECB;fill-rule:nonzero}
    .fil36 {fill:#65A7DF;fill-rule:nonzero}
    .fil25 {fill:#6D0631;fill-rule:nonzero}
    .fil6 {fill:#A14D39;fill-rule:nonzero}
    .fil26 {fill:#B098A7;fill-rule:nonzero}
    .fil9 {fill:#B3304E;fill-rule:nonzero}
    .fil37 {fill:#BD4660;fill-rule:nonzero}
    .fil27 {fill:#C4AEBA;fill-rule:nonzero}
    .fil18 {fill:#D04955;fill-rule:nonzero}
    .fil29 {fill:#D0D3D5;fill-rule:nonzero}
    .fil35 {fill:#D25A30;fill-rule:nonzero}
    .fil14 {fill:#D94460;fill-rule:nonzero}
    .fil41 {fill:#DF922E;fill-rule:nonzero}
    .fil8 {fill:#EE645C;fill-rule:nonzero}
    .fil34 {fill:#F25A28;fill-rule:nonzero}
    .fil40 {fill:#F79221;fill-rule:nonzero}
    .fil33 {fill:#F9B813;fill-rule:nonzero}
    .fil20 {fill:#FD5A67;fill-rule:nonzero}
    .fil11 {fill:#FDE5D9;fill-rule:nonzero}
    .fil15 {fill:#FF7554;fill-rule:nonzero}
    .fil5 {fill:#FF7D6E;fill-rule:nonzero}
    .fil7 {fill:#FFA27F;fill-rule:nonzero}
    .fil21 {fill:#FFC190;fill-rule:nonzero}
    .fil24 {fill:#FFF1E9;fill-rule:nonzero}
    .fil4 {fill:white;fill-rule:nonzero}
    .fil0 {fill:url(#id1)}
    .fil1 {fill:url(#id2)}
    .fil2 {fill:url(#id3)}
   ]]>
  </style>
   <clipPath id="id0">
    <path d="M108 0l708 0c60,0 108,48 108,108l0 603c0,59 -48,108 -108,108l-708 0c-60,0 -108,-49 -108,-108l0 -603c0,-60 48,-108 108,-108z"/>
   </clipPath>
  <linearGradient id="id1" gradientUnits="userSpaceOnUse" x1="211.734" y1="709.45" x2="712.29" y2="109.528">
   <stop offset="0" style="stop-opacity:1; stop-color:#E6E6E6"/>
   <stop offset="1" style="stop-opacity:1; stop-color:#F7F7F7"/>
  </linearGradient>
  <linearGradient id="id2" gradientUnits="userSpaceOnUse" x1="273.664" y1="1098.19" x2="719.951" y2="363.23">
   <stop offset="0" style="stop-opacity:1; stop-color:#B0B0B0"/>
   <stop offset="1" style="stop-opacity:1; stop-color:#EDEDED"/>
  </linearGradient>
  <linearGradient id="id3" gradientUnits="userSpaceOnUse" x1="379.469" y1="1091.61" x2="941.527" y2="261.997">
   <stop offset="0" style="stop-opacity:1; stop-color:#6200D1"/>
   <stop offset="1" style="stop-opacity:1; stop-color:#FF2EBD"/>
  </linearGradient>
 </defs>
 <g id="Layer_x0020_1">
  <metadata id="CorelCorpID_0Corel-Layer"/>
  <path class="fil0" d="M108 0l708 0c60,0 108,48 108,108l0 603c0,59 -48,108 -108,108l-708 0c-60,0 -108,-49 -108,-108l0 -603c0,-60 48,-108 108,-108z"/>
  <g style="clip-path:url(#id0)">
   <g id="_2565217222160">
    <circle class="fil1" cx="497" cy="731" r="540"/>
    <path class="fil2" d="M660 55c172,0 328,69 440,182 113,113 183,268 183,440 0,172 -70,327 -183,440 -112,112 -268,182 -440,182 -171,0 -327,-70 -439,-182 -113,-113 -183,-268 -183,-440 0,-172 70,-327 183,-440 112,-113 268,-182 439,-182zm437 186c-112,-112 -266,-181 -437,-181 -170,0 -324,69 -436,181 -111,111 -180,265 -180,436 0,170 69,324 180,436 112,112 266,181 436,181 171,0 325,-69 437,-181 111,-112 180,-266 180,-436 0,-171 -69,-325 -180,-436z"/>
    <g>
     <g>
      <path class="fil3" d="M665 437l3 -57c0,-3 -3,-5 -6,-4l-51 26c-3,1 -3,5 0,7l48 32c2,1 6,0 6,-4z"/>
      <path class="fil4" d="M657 424l2 -32c0,-2 -2,-3 -4,-2l-29 14c-1,1 -1,3 0,4l27 18c2,1 4,0 4,-2z"/>
     </g>
     <g>
      <g>
       <g>
        <g>
         <path class="fil5" d="M668 500l-9 1 -5 4c-3,3 -44,10 -45,7 -1,-1 -1,-1 -1,-2 0,-1 0,-1 0,-1 -1,-1 -1,-2 -1,-2 0,-1 0,-1 0,-1 0,0 -1,-1 -2,-3 -1,-1 -2,-1 -2,-2l0 0c0,-1 -1,-2 0,-3 0,-1 2,-2 5,-3 8,-4 21,-9 20,-9 -1,-1 -31,2 -31,2 0,0 -1,0 -1,-1 0,-1 -1,-2 -1,-3 0,-2 42,-13 42,-13 -6,-3 -11,-9 -14,-15 0,0 0,0 0,0l0 0c0,0 -1,-1 0,-1 0,0 0,0 0,0 0,0 0,0 0,0 0,-1 0,-1 0,-1 0,0 0,0 0,0 0,0 0,0 0,0 0,0 0,0 0,0 0,0 0,0 0,0 3,-1 5,-1 7,1 3,1 5,2 7,4 3,2 8,3 13,4 0,1 1,1 1,1 1,0 2,1 3,1 3,3 5,6 6,9 1,1 1,1 1,2 0,0 0,0 0,0 1,1 1,3 1,3 0,0 2,-1 3,-1l1 6 2 16z"/>
         <g>
          <g>
           <path class="fil6" d="M605 503c1,0 1,0 2,0 5,-2 8,-3 11,-5 3,-1 4,-2 5,-2 -1,0 -3,0 -5,1 -3,0 -7,1 -12,3 -1,0 -2,0 -3,1 0,1 1,1 2,2z"/>
          </g>
          <g>
           <path class="fil6" d="M608 510c7,-2 12,-5 13,-5 -1,0 -7,0 -14,2 0,1 1,2 1,3z"/>
          </g>
         </g>
         <path class="fil7" d="M666 484c0,0 0,0 0,0 -1,0 -2,0 -2,0 -1,0 -1,-1 -2,-1 -1,0 -2,-2 -3,-3 -2,-4 -5,-9 -8,-11 -5,-4 -11,-5 -16,-7 -3,-2 -7,-5 -11,-6 0,0 -1,0 -1,0 0,0 -1,-1 0,-1 0,0 0,0 0,0 0,0 0,0 0,0 0,-1 0,-1 0,-1 0,0 0,0 0,0 0,0 0,0 0,0 0,0 0,0 0,0 0,0 0,0 0,0 3,-1 5,-1 7,1 3,1 5,2 7,4 3,2 8,3 13,4 0,1 1,1 1,1 1,0 2,1 3,1 3,3 5,6 6,9 1,1 1,1 1,2 0,0 0,0 0,0 1,1 1,3 1,3 0,0 2,-1 3,-1l1 6z"/>
        </g>
        <g>
         <path class="fil8" d="M657 492c0,0 0,0 -1,0 0,0 -1,0 -2,0 -2,0 -5,-1 -7,-3 -3,-1 -5,-4 -5,-6 -1,-1 -1,-1 -1,-2 0,-1 0,-1 0,-1 0,0 0,0 0,1 1,0 1,1 2,1 1,2 3,3 5,5 2,2 5,3 6,3 1,1 2,1 2,1 1,1 1,1 1,1z"/>
        </g>
       </g>
      </g>
      <path class="fil9" d="M749 357l-19 99 -66 21 4 27c0,0 84,-6 90,-8 6,-3 11,-50 11,-50l-20 -89z"/>
     </g>
     <g>
      <g>
       <g>
        <g>
         <g>
          <g>
           <path class="fil5" d="M774 583l-72 -2c-10,22 -42,100 -42,100l-7 -3 -24 -9c0,0 29,-119 41,-131 15,-13 78,-12 78,-12l21 47 5 10z"/>
           <path class="fil5" d="M774 583l-72 -2c-10,22 -42,100 -42,100l-7 -3c8,-20 41,-101 44,-104 3,-2 54,-2 72,-1l5 10z"/>
          </g>
          <g>
           <g>
            <path class="fil10" d="M565 684c1,-1 3,-3 5,-3 7,-1 32,-2 39,-4 6,-3 13,-9 16,-12l39 16c-2,12 -8,34 -9,38l-90 -35z"/>
            <polygon class="fil11" points="562,694 651,729 655,719 565,684 "/>
            <g>
             <path class="fil11" d="M616 682c0,0 0,0 0,1 0,1 0,2 -2,2 0,0 -1,0 -1,-1 -2,-1 -4,-2 -5,-4 -1,-2 -3,-4 -3,-6 -1,-3 2,-4 4,-3 3,3 6,7 7,11z"/>
             <path class="fil11" d="M607 685c0,0 0,0 0,0 0,1 0,2 -1,3 -1,0 -2,-1 -2,-1 -2,-1 -3,-3 -5,-5 -1,-1 -3,-3 -3,-6 -1,-2 2,-3 4,-2 3,2 6,6 7,11z"/>
             <path class="fil11" d="M597 685c0,0 0,0 0,0 0,1 0,3 -1,3 -1,0 -1,-1 -2,-1 -2,-1 -3,-3 -4,-4 -2,-2 -3,-4 -4,-7 0,-2 2,-3 4,-2 4,2 7,7 7,11z"/>
            </g>
           </g>
          </g>
         </g>
        </g>
       </g>
      </g>
     </g>
     <g>
      <g>
       <path class="fil12" d="M772 503c0,0 -87,20 -98,25l37 52 124 -13 15 -57 -78 -7z"/>
      </g>
     </g>
     <g>
      <g>
       <g>
        <polygon class="fil13" points="85,612 42,402 62,402 110,615 "/>
        <path class="fil14" d="M27 367c8,-9 68,-9 126,-6l0 49 -134 0c0,0 -9,-25 8,-43z"/>
       </g>
      </g>
      <g>
       <g>
        <polygon class="fil13" points="274,628 313,849 293,849 245,638 "/>
        <polygon class="fil13" points="81,628 42,849 61,849 110,638 "/>
       </g>
       <polygon class="fil13" points="62,791 291,791 291,777 62,777 "/>
      </g>
      <path class="fil14" d="M307 605c0,0 -218,-17 -235,0 -16,18 -7,43 -7,43l248 0 -6 -43z"/>
     </g>
     <g>
      <g>
       <g>
        <polygon class="fil15" points="919,612 961,402 941,402 894,615 "/>
        <g>
         <path class="fil16" d="M976 367c-8,-9 -68,-9 -125,-6l0 49 133 0c0,0 9,-25 -8,-43z"/>
        </g>
       </g>
      </g>
      <g>
       <g>
        <polygon class="fil15" points="729,628 691,849 710,849 758,638 "/>
        <polygon class="fil15" points="923,628 961,849 942,849 894,638 "/>
       </g>
       <polygon class="fil15" points="941,791 713,791 713,777 941,777 "/>
      </g>
      <g>
       <path class="fil16" d="M697 605c0,0 217,-17 234,0 17,18 8,43 8,43l-248 0 6 -43z"/>
      </g>
     </g>
     <g>
      <g>
       <g>
        <g>
         <g>
          <g>
           <g>
            <path class="fil7" d="M792 605l-72 -1c-10,21 -41,99 -41,99l-8 -3 -24 -9c0,0 29,-119 41,-131 15,-13 79,-12 79,-12l21 47 4 10z"/>
            <path class="fil5" d="M792 605l-72 -1c-10,21 -41,99 -41,99l-8 -3c9,-20 41,-101 45,-104 3,-2 53,-2 72,-1l4 10z"/>
           </g>
           <g>
            <g>
             <path class="fil10" d="M584 706c1,-1 2,-3 4,-3 7,-1 32,-2 39,-4 6,-3 13,-9 16,-12l39 16c-1,12 -8,34 -9,38l-89 -35z"/>
             <polygon class="fil11" points="580,716 669,751 673,741 584,706 "/>
             <g>
              <path class="fil11" d="M634 704c0,0 0,0 0,1 0,1 0,2 -1,2 -1,0 -2,0 -2,0 -2,-2 -3,-3 -5,-5 -1,-2 -3,-4 -3,-6 -1,-3 2,-4 4,-3 3,3 6,7 7,11z"/>
              <path class="fil11" d="M625 707c0,0 0,0 0,0 0,1 0,2 -1,3 -1,0 -1,-1 -2,-1 -2,-1 -3,-3 -5,-5 -1,-1 -2,-3 -3,-6 0,-2 2,-3 4,-2 3,2 7,6 7,11z"/>
              <path class="fil11" d="M616 707c0,0 0,0 0,0 0,1 -1,3 -2,3 0,0 -1,-1 -2,-1 -1,-1 -3,-3 -4,-4 -2,-2 -3,-4 -3,-7 -1,-2 2,-3 3,-2 4,2 7,7 8,11z"/>
             </g>
            </g>
           </g>
          </g>
         </g>
        </g>
       </g>
      </g>
      <g>
       <path class="fil17" d="M881 537c0,0 -13,65 -29,73 0,0 0,0 -1,0 -18,7 -120,-4 -120,-4 0,0 -1,-5 -3,-13 -5,-17 -22,-41 -22,-45 19,-5 83,-5 83,-5l32 -21 60 15z"/>
       <path class="fil12" d="M881 537c0,0 -13,65 -29,73 0,0 0,0 -1,0 -18,7 -120,-4 -120,-4 0,0 -1,-5 -3,-13 18,5 46,8 64,8 19,0 39,-2 53,-14 14,-13 21,-33 16,-50l20 0z"/>
      </g>
     </g>
     <g>
      <g>
       <path class="fil14" d="M879 548c-9,-9 -128,-40 -128,-40l-16 6c0,0 4,-11 7,-13 4,-5 11,-7 11,-7l1 -13c-1,-8 -8,-79 -7,-111l0 0c0,-11 4,-21 10,-30 2,-4 4,-5 4,-6 0,0 0,0 0,0 0,0 0,0 0,0 2,-1 3,-3 5,-4 17,-15 40,-20 40,-20 2,0 6,0 10,2 6,1 11,3 13,4 0,0 0,0 0,0 21,8 35,50 46,95 1,6 3,13 4,20 4,27 7,54 8,81 0,13 -3,25 -8,36z"/>
       <g>
        <g>
         <path class="fil14" d="M848 372l-36 -29 -26 62 -92 9 5 49c0,0 110,8 122,-11 12,-18 42,-64 27,-80z"/>
         <path class="fil9" d="M821 354c-9,11 -15,24 -21,37 -2,4 -2,7 -6,9 -2,1 -8,0 -12,1 -8,1 -15,2 -23,4 -1,1 -1,3 0,2 13,-1 26,-3 39,-4 1,0 1,0 2,-1 6,-16 14,-31 24,-46 1,-2 -2,-4 -3,-2z"/>
         <path class="fil9" d="M856 383c-1,-2 -4,0 -3,2 5,14 -4,28 -12,39 -7,10 -16,17 -23,27 0,0 0,0 -1,0 -12,4 -26,4 -38,8 -1,0 -1,2 0,2 12,0 26,-3 38,-6 0,0 1,0 1,-1 0,0 0,0 0,0 1,0 1,0 1,0 12,-8 22,-23 30,-35 7,-11 12,-23 7,-36z"/>
        </g>
        <path class="fil7" d="M693 436c-1,6 -2,13 -4,19l9 0 -2 -23c-2,0 -5,0 -5,0 0,0 0,0 0,0 0,2 2,3 2,4z"/>
        <g>
         <g>
          <g>
           <g>
            <path class="fil7" d="M633 429c0,0 1,4 1,8 0,0 0,1 0,1 1,3 1,5 2,8 0,0 0,0 0,0 0,1 1,2 1,3 1,1 1,2 2,2l13 -4c0,0 3,2 6,5l0 0c5,3 10,6 12,6 1,0 21,-3 24,-4l0 -4 1 -12 -1 -1 -3 -4 0 -1 -8 -10c-2,-1 -3,-3 -6,-5l0 0c0,-1 -2,-2 -3,-3 -4,-3 -8,-7 -12,-8 0,0 0,0 0,0 -1,-1 -2,-1 -3,-1 0,-1 -1,-1 -2,-1 -10,-1 -25,-2 -26,3 -1,4 28,6 28,6l2 8 -12 0 -16 8z"/>
            <g>
             <g>
              <path class="fil18" d="M636 446c0,0 0,0 0,0 1,0 1,0 2,-1 2,0 5,-2 7,-3 3,-1 6,-2 8,-2 0,0 1,0 1,0 0,0 1,0 1,0 1,0 1,0 1,0 0,0 0,-1 -1,-1 0,0 -1,0 -1,0 -1,0 -1,0 -2,0 -2,-1 -5,0 -8,1 -3,1 -5,3 -7,4 0,1 -1,1 -1,2z"/>
             </g>
             <g>
              <path class="fil18" d="M634 437c0,0 0,1 0,1 1,0 1,0 1,0 2,-1 4,-2 7,-3 3,-1 5,-2 7,-2 1,0 1,0 2,0 0,0 0,0 1,-1 0,0 1,0 1,0 0,0 -1,0 -1,0 -1,0 -1,0 -1,0 -1,0 -1,0 -2,0 -2,-1 -5,-1 -8,1 -3,1 -5,2 -7,4z"/>
             </g>
            </g>
           </g>
          </g>
         </g>
        </g>
       </g>
       <path class="fil9" d="M825 342c-7,8 -13,16 -23,21 -5,3 -10,5 -15,7 -11,3 -24,-1 -24,-14 -1,-1 -2,-1 -2,0 -5,15 14,21 25,19 16,-4 36,-15 42,-31 1,-1 -1,-3 -3,-2z"/>
       <path class="fil9" d="M862 496c-14,-5 -32,-5 -47,-5 -11,0 -25,-1 -36,2 -6,0 -11,0 -16,0 -2,1 -2,3 0,3 3,1 6,1 9,1 0,0 0,0 0,0 1,0 1,0 2,0 11,1 21,2 32,4 12,3 23,8 35,10 1,0 2,-2 1,-2 -11,-8 -26,-10 -38,-12 -2,-1 -3,-1 -4,-1 6,-1 11,-1 17,-1 15,0 30,3 45,4 2,0 2,-2 0,-3z"/>
       <path class="fil7" d="M829 316c-6,16 -18,31 -33,39 -7,3 -15,5 -21,2 -6,-3 -9,-9 -10,-15 0,-4 0,-8 1,-12 17,-15 40,-20 40,-20 2,0 6,0 10,2 6,1 11,3 13,4z"/>
       <g>
        <path class="fil19" d="M727 225c0,0 -3,6 -2,13 1,6 12,29 12,29l-2 -44 -8 2z"/>
        <g>
         <g>
          <g>
           <g>
            <g>
             <g>
              <path class="fil7" d="M775 332c0,4 0,8 -1,13 6,-2 11,-4 16,-7 8,-5 15,-11 24,-15 0,-5 0,-11 -1,-17 -1,-9 -1,-17 -1,-17l-40 18c0,0 3,16 3,20 0,0 0,2 0,5z"/>
              <path class="fil5" d="M813 306c-11,8 -35,25 -38,26 0,0 0,0 0,0 0,-3 0,-5 0,-5 0,-4 -3,-20 -3,-20l40 -18c0,0 0,8 1,17z"/>
             </g>
            </g>
            <g>
             <g>
              <path class="fil7" d="M817 290c0,0 -1,3 -5,7l0 0c-1,1 -2,1 -3,2 -5,4 -49,22 -55,21 -7,0 -13,-24 -14,-26 -2,-15 -8,-63 -8,-63 17,-30 76,-22 83,-17 6,5 2,76 2,76z"/>
              <g>
               <path class="fil5" d="M754 276c5,2 8,2 14,2 0,2 -2,5 -4,7 -6,-3 -6,-5 -10,-9z"/>
               <path class="fil20" d="M751 271c1,-5 9,-2 13,0 -2,-5 -4,-11 -5,-17 0,-1 1,-2 1,-1 2,4 3,8 4,12 0,2 1,3 2,5 0,1 1,5 0,5 0,0 -1,0 -1,0 -3,-2 -5,-3 -8,-4 -1,0 -1,-1 -2,0 -1,0 -2,1 -1,2 0,2 1,3 1,4 1,1 2,2 3,3 2,1 4,3 6,5 0,-1 -1,-1 -2,-1 -1,0 -1,-1 -2,-1 -2,-1 -3,-2 -4,-3 -2,-2 -6,-5 -5,-9z"/>
              </g>
              <path class="fil21" d="M812 297c-1,1 -2,1 -3,2 -5,4 -49,22 -55,21 -7,0 -13,-24 -14,-26 4,10 9,24 14,24 7,-1 53,-18 58,-21z"/>
             </g>
             <g>
              <path class="fil22" d="M736 251c0,0 3,-13 9,-11 6,3 4,4 4,4l-13 7z"/>
              <path class="fil22" d="M799 240c0,0 -18,-14 -23,-7 -2,4 0,6 0,6l23 1z"/>
              <g>
               <path class="fil23" d="M792 258c0,4 -2,8 -5,8 -3,0 -5,-4 -5,-8 0,-5 2,-9 5,-9 3,0 5,4 5,9z"/>
               <g>
                <path class="fil24" d="M797 253c0,0 -2,3 -5,4 -3,1 -6,1 -6,1 0,0 2,-3 5,-5 3,-1 6,0 6,0z"/>
               </g>
              </g>
              <g>
               <path class="fil23" d="M743 261c0,3 2,6 4,6 2,0 4,-3 4,-6 0,-4 -2,-7 -4,-7 -2,0 -4,3 -4,7z"/>
               <g>
                <path class="fil24" d="M739 258c0,0 2,2 4,3 2,0 5,0 5,0 0,0 -2,-2 -4,-3 -2,-1 -5,0 -5,0z"/>
               </g>
              </g>
              <path class="fil5" d="M747 280c-1,2 -5,2 -9,1 -4,-2 -7,-5 -7,-6 1,-2 5,-3 9,-1 5,2 7,4 7,6z"/>
              <path class="fil5" d="M800 272c0,2 -4,6 -11,8 -6,1 -12,0 -12,-2 -1,-3 4,-7 10,-8 6,-2 12,-1 13,2z"/>
              <g>
               <path class="fil20" d="M754 291c0,0 1,0 1,1 1,0 2,1 3,2 3,1 7,2 12,2 4,0 8,-2 11,-3 1,-1 2,-2 3,-3 0,0 1,0 1,0 0,0 -1,0 -1,0 -1,1 -2,1 -4,2 -2,1 -6,2 -10,2 -5,0 -8,-1 -11,-1 -2,-1 -3,-1 -3,-1 -1,-1 -2,-1 -2,-1z"/>
              </g>
             </g>
            </g>
           </g>
          </g>
          <g>
           <path class="fil21" d="M811 292c9,-1 15,-6 19,-11 1,-1 1,-2 2,-3 2,-4 3,-20 -3,-24 -5,-3 -8,1 -10,4 0,0 0,0 0,0 -1,1 -1,1 -1,1l-7 33z"/>
           <path class="fil7" d="M811 292c9,-1 15,-6 19,-11 0,0 0,-1 1,-1 2,-5 3,-21 -4,-25 -3,-2 -6,0 -8,3 0,0 0,0 0,0 -1,1 -1,1 -1,1l-7 33z"/>
           <path class="fil5" d="M831 267c0,1 0,2 -1,4 -2,5 -7,9 -12,13 1,-3 2,-6 2,-9 0,-1 -1,-2 -1,-3 0,-4 10,-13 12,-5z"/>
           <g>
            <path class="fil6" d="M815 286c0,0 0,-1 1,-1 0,0 0,0 0,0 1,-1 2,-1 3,-2 1,-2 2,-3 2,-5 0,-1 0,-4 -1,-5 0,-1 0,-1 0,-1l0 0c0,0 0,0 0,0l0 0 0 0 0 0c0,0 0,0 0,0l0 -1 0 0c0,0 0,0 1,0 0,-1 1,-2 1,-3 1,0 1,-1 2,-2 0,0 1,-1 1,-1 1,-1 2,-1 2,-1 1,0 1,0 2,0 0,1 0,1 0,1 0,0 0,0 0,0 0,0 0,0 0,0 0,0 0,-1 0,-1 -1,0 -1,0 -2,0 -1,0 -1,0 -2,0 -1,1 -1,1 -2,2 -1,0 -2,1 -2,2 -1,0 -1,1 -2,2 0,0 0,0 0,1l-1 0 0 0 0 1c0,0 0,0 0,0l0 0c1,1 1,1 1,1 1,2 1,4 1,5 -1,2 -1,3 -2,4 0,1 -1,2 -2,3 0,0 0,0 0,0 -1,0 -1,1 -1,1z"/>
           </g>
          </g>
         </g>
        </g>
        <g>
         <path class="fil19" d="M826 231l0 22 -11 11 -4 -31c-8,-9 -18,-16 -30,-18 -11,-2 -23,1 -33,7 -7,3 -12,9 -20,11 -5,0 -9,-1 -14,-3 -1,0 -1,0 -2,-1 7,-1 14,-6 18,-12 -4,0 -8,0 -12,-1 12,-13 27,-24 42,-32 -4,0 -7,-3 -10,-7 11,2 21,0 32,-1 10,0 21,0 30,7 7,5 12,14 14,23 2,7 1,17 0,25z"/>
         <path class="fil22" d="M827 218c0,4 0,9 -1,13l0 3c-3,-3 -6,-6 -9,-9 -5,-6 -10,-13 -16,-18 -7,-5 -15,-8 -23,-5 2,1 5,3 7,4 -15,0 -31,2 -45,9 1,0 3,1 4,1 -1,0 -8,6 -9,6 -4,2 -8,4 -11,5 -3,1 -7,2 -10,3 -1,0 -1,0 -2,-1 7,-1 14,-6 18,-12 -4,0 -8,0 -12,-1 2,-2 5,-5 7,-7l0 0c11,-10 23,-18 35,-25 -4,0 -7,-3 -10,-7 11,2 21,0 32,-1 10,0 21,0 30,7 7,5 12,14 14,23 1,3 1,7 1,12z"/>
         <path class="fil25" d="M827 218c-1,-2 -2,-3 -4,-5 -5,-6 -9,-15 -16,-21 -8,-7 -19,-9 -30,-6 2,2 3,5 5,7 -7,0 -14,0 -21,-1 2,2 4,3 6,4 -14,4 -28,9 -42,13 11,-10 23,-18 35,-25 -4,0 -7,-3 -10,-7 11,2 21,0 32,-1 10,0 21,0 30,7 7,5 12,14 14,23 1,3 1,7 1,12z"/>
        </g>
       </g>
      </g>
     </g>
     <g>
      <path class="fil12" d="M277 171c-1,25 -2,50 -3,74 -1,14 -2,28 -4,42 -1,10 -3,21 -10,29 -9,12 -26,17 -41,19 -18,2 -36,2 -53,-2 -4,-1 -8,-3 -11,-4 -13,-5 -24,-13 -32,-24 -11,-15 -15,-34 -9,-50 7,-18 24,-31 28,-50 3,-13 -1,-27 0,-40 1,-43 50,-71 90,-64 16,3 33,12 40,27 3,7 5,14 5,21 1,7 1,15 0,22z"/>
      <path class="fil17" d="M262 147c-1,-9 -5,-18 -11,-24 0,7 -3,13 -9,17 -5,4 -13,5 -19,2 0,-8 -3,-15 -7,-22 -4,14 -14,26 -27,31 -11,4 -24,5 -30,15 -5,7 -4,16 -2,25 2,8 6,16 6,25 0,11 -6,21 -12,30 -7,9 -14,18 -16,29 -3,10 -1,23 8,29l13 24c0,0 -1,1 -1,1 -13,-5 -24,-13 -32,-24 -8,-11 -13,-26 -11,-39 0,-4 1,-8 2,-11 7,-18 24,-31 28,-50 3,-13 -1,-27 0,-40 1,-43 50,-71 90,-64 16,3 33,12 40,27 1,1 1,2 1,2 3,6 4,13 4,19 -5,-1 -10,-1 -15,-2z"/>
      <g>
       <g>
        <g>
         <polygon class="fil7" points="462,757 432,762 423,763 409,722 423,718 453,708 "/>
         <polygon class="fil5" points="432,762 423,763 409,722 423,718 "/>
        </g>
        <path class="fil26" d="M287 515c0,0 108,-15 128,4 17,17 55,208 55,208l-68 9 -27 -132 -125 -45 -25 -44 62 0z"/>
        <g>
         <g>
          <polygon class="fil7" points="373,817 339,815 329,814 325,765 342,764 376,762 "/>
          <polygon class="fil5" points="339,815 329,814 325,765 342,764 "/>
         </g>
         <path class="fil27" d="M385 779l-40 3 -36 2 2 -183c0,0 -150,5 -166,-20 -11,-17 -6,-83 -6,-83l9 2 100 19c0,0 116,20 135,41 19,22 2,219 2,219z"/>
         <path class="fil26" d="M326 783l-17 1 2 -183c0,0 -150,5 -166,-20 -11,-17 -6,-83 -6,-83l9 2c0,13 3,69 13,72 11,3 165,15 165,15l0 196z"/>
        </g>
       </g>
       <g>
        <path class="fil7" d="M259 385c0,0 21,29 40,49 11,13 21,22 25,22 11,-2 91,-18 91,-18l-1 -8 -1 -13 0 -2 -1 -4 0 0 -2 0c-1,0 -1,0 -1,0l-1 0 -82 1c-12,-18 -42,-58 -42,-58l-8 10 -17 21z"/>
        <path class="fil5" d="M299 434c11,13 21,22 25,22 11,-2 91,-18 91,-18l-1 -8 -2 -2c0,0 -80,15 -82,16 -1,0 -17,-5 -31,-10z"/>
        <path class="fil21" d="M276 364l52 61c4,1 83,-7 83,-7l2 -3 -1 -4 0 0 -2 0c-1,0 -1,0 -1,0l-1 0 -82 1c-12,-18 -42,-58 -42,-58l-8 10z"/>
        <g>
         <g>
          <path class="fil7" d="M490 395c-1,-3 -51,-1 -51,-1 5,-6 9,-13 11,-21 0,0 0,0 0,-1 0,0 0,-1 -1,-2 0,0 -1,0 -1,0 -3,0 -6,1 -8,3 -2,2 -3,5 -5,7 -3,4 -8,7 -13,10 -8,4 -10,21 -10,21 0,0 -1,0 -3,1l4 25 11 -2 6 3c5,2 53,-4 54,-7 0,-1 0,-2 0,-3 0,-2 0,-3 0,-4 0,-1 0,-1 0,-1 0,0 1,-2 1,-4 1,-1 1,-2 1,-3 1,-1 1,-2 0,-3 -1,-1 -4,-1 -8,-2 -9,-1 -25,-3 -24,-3 1,-2 35,-8 35,-8 0,0 1,-1 1,-2 0,-1 0,-2 0,-3z"/>
          <path class="fil5" d="M486 413c-1,-1 -4,-1 -8,-2 -1,2 -3,6 -4,8 -3,3 -6,5 -10,7 -7,3 -14,3 -21,3 -7,-1 -13,-2 -20,-2 -4,0 -8,0 -11,1l1 10 11 -3 6 3c5,2 53,-4 54,-7 0,-1 0,-2 0,-3 0,-2 0,-3 0,-4 0,-1 0,-1 0,-1 0,0 1,-2 1,-4 1,-1 1,-2 1,-3 1,-1 1,-2 0,-3z"/>
          <g>
           <g>
            <path class="fil18" d="M485 420c-1,0 -1,0 -2,0 -6,0 -11,-1 -14,-2 -4,0 -6,-1 -6,-1 0,0 2,0 6,-1 3,0 8,0 14,0 1,0 2,0 3,0 0,1 0,2 -1,4z"/>
           </g>
           <g>
            <path class="fil18" d="M484 428c-9,0 -16,-1 -16,-1 0,-1 7,-2 16,-3 0,1 0,2 0,4z"/>
           </g>
          </g>
          <path class="fil21" d="M410 418c0,0 0,0 1,0 0,-1 1,-1 2,-1 0,0 1,-1 2,-1 1,-1 1,-3 2,-5 1,-5 2,-11 5,-15 4,-6 11,-9 15,-13 4,-3 7,-8 11,-10 0,0 1,0 2,-1 0,0 0,-1 -1,-2 0,0 -1,0 -1,0 -3,0 -6,1 -8,3 -2,2 -3,5 -5,7 -3,4 -8,7 -13,10 -8,4 -10,21 -10,21 0,0 -1,0 -2,0 -1,0 -1,0 -1,0l-1 0 2 7z"/>
         </g>
         <g>
          <path class="fil18" d="M423 424c0,0 0,0 1,0 0,0 1,-1 2,-1 3,-1 6,-2 8,-5 2,-3 3,-6 3,-9 0,-1 0,-2 0,-2 0,-1 0,-1 0,-1 0,0 0,0 0,0 0,1 -1,2 -1,3 -1,2 -3,4 -5,7 -2,2 -4,4 -5,6 -1,0 -2,1 -2,1 -1,1 -1,1 -1,1z"/>
         </g>
        </g>
       </g>
       <path class="fil28" d="M253 277c0,0 21,17 25,25 4,7 34,77 34,77l-54 38 -9 -33 4 -107z"/>
       <g>
        <g>
         <g>
          <g>
           <g>
            <g>
             <g>
              <path class="fil11" d="M303 515c-81,22 -173,8 -173,8 0,-3 31,-148 25,-172 -3,-11 -16,-58 -15,-61 1,-4 20,-16 28,-20 2,-1 5,-3 7,-3 8,-3 14,-4 14,-4l34 0c0,0 2,0 7,1l0 0c5,2 13,5 23,13 3,2 5,4 8,6 25,22 9,93 7,103 -1,5 34,126 35,129z"/>
              <path class="fil29" d="M260 392c-9,0 -17,-5 -26,-3 -5,2 -8,4 -13,5 -8,3 -15,1 -23,-1 -1,-1 -2,0 -1,1 7,6 17,7 26,5 7,-2 12,-6 20,-5 6,1 11,3 17,1 2,0 2,-3 0,-3z"/>
              <path class="fil7" d="M253 277c-3,10 -12,29 -35,28 -22,-2 -41,-23 -50,-35 2,-1 5,-3 7,-3 1,0 1,-1 2,-1 7,-2 12,-3 12,-3l34 0c0,0 2,0 7,1l0 0c4,1 11,4 19,10 2,1 3,2 4,3z"/>
              <path class="fil28" d="M230 264c0,0 30,63 33,99 3,35 18,157 18,157l50 -9 -43 -107 -13 -107c0,0 -9,-20 -45,-33z"/>
              <path class="fil28" d="M177 266c0,0 36,90 33,141 -4,51 -21,155 -21,155l-85 -34c0,0 51,-156 36,-238 0,0 12,-19 37,-24z"/>
              <g>
               <g>
                <g>
                 <path class="fil7" d="M219 295l-30 -32c0,-5 1,-7 2,-19 0,-14 1,-27 1,-27l39 16c-5,10 -7,21 -8,31 -2,22 -4,31 -4,31z"/>
                 <path class="fil5" d="M231 233c-5,10 -7,21 -8,31 -1,1 -2,1 -4,1 -4,2 -18,-11 -28,-21 0,-14 1,-27 1,-27l39 16z"/>
                </g>
                <g>
                 <g>
                  <path class="fil7" d="M272 188c-1,3 -2,7 -3,11 0,0 1,19 -1,24 -2,4 -16,31 -29,29 -12,-2 -39,-19 -49,-29 -2,-2 -3,-4 -3,-5 -2,-8 -6,-42 -6,-45 -1,-8 -3,-66 67,-49 13,4 23,14 25,26 2,10 3,22 -1,38z"/>
                  <g>
                   <path class="fil20" d="M249 227c0,0 -14,-11 -30,-5 0,0 5,14 13,15 9,1 17,-10 17,-10z"/>
                   <path class="fil24" d="M249 227c0,0 -11,-5 -29,-5 0,0 2,11 13,12 10,2 16,-7 16,-7z"/>
                  </g>
                  <g>
                   <path class="fil23" d="M207 190c2,-5 8,-8 13,-8 5,1 10,5 11,11 -3,-3 -7,-5 -11,-5 -5,-1 -9,0 -13,2z"/>
                  </g>
                  <path class="fil21" d="M269 199c0,0 1,19 -1,24 -2,4 -16,31 -29,29 -12,-2 -39,-19 -49,-29 12,8 43,30 53,27 11,-4 25,-29 24,-32 0,-2 0,-19 0,-19 0,0 2,-5 5,-11 -1,3 -2,7 -3,11z"/>
                  <g>
                   <path class="fil23" d="M254 193c2,-4 6,-6 10,-5 4,0 7,3 8,7 -2,-2 -6,-3 -9,-3 -3,-1 -6,0 -9,1z"/>
                  </g>
                 </g>
                 <g>
                  <path class="fil21" d="M190 217c-9,-1 -15,-6 -19,-11 -1,-1 -1,-2 -2,-3 -2,-4 -3,-20 4,-24 5,-2 8,2 9,4 0,0 0,0 0,0 1,1 1,2 1,2l7 32z"/>
                  <path class="fil7" d="M190 217c-9,-1 -15,-6 -19,-11 0,0 0,-1 -1,-1 -2,-5 -2,-21 4,-24 4,-2 7,0 8,2 0,0 0,0 0,0 1,1 1,2 1,2l7 32z"/>
                  <path class="fil5" d="M171 192c-1,1 0,2 0,4 2,5 7,9 12,13 -1,-2 -2,-5 -2,-8 1,-1 1,-2 1,-3 0,-4 -9,-14 -11,-6z"/>
                  <g>
                   <path class="fil18" d="M186 211c0,0 -1,0 -1,0 0,-1 0,-1 -1,-1 0,0 -1,-1 -2,-2 -1,-1 -2,-3 -2,-5 0,-1 0,-3 1,-5 0,0 0,-1 0,-1l0 0c0,0 0,0 0,0l0 0 0 0 0 0c0,0 0,0 0,0l0 0 0 -1c0,0 0,0 0,0 -1,-1 -1,-2 -2,-2 0,-1 -1,-2 -1,-2 -1,-1 -2,-1 -2,-2 -1,0 -1,0 -2,-1 0,0 -1,0 -1,1 0,0 -1,0 -1,0 0,0 0,0 0,0 0,0 0,0 0,0 0,0 0,0 1,-1 0,0 1,0 1,0 1,0 2,0 2,1 1,0 2,1 2,1 1,1 2,1 2,2 1,1 2,1 2,2 0,0 0,1 1,1l0 0 0 1 0 0c0,0 0,0 0,0l0 1c0,0 -1,0 -1,0 0,2 -1,4 0,5 0,2 0,3 1,4 0,2 1,2 2,3 0,0 0,0 0,0 0,1 1,1 1,1z"/>
                  </g>
                 </g>
                </g>
               </g>
              </g>
              <g>
               <path class="fil17" d="M272 180c0,0 -3,-14 -10,-12 -6,2 -4,4 -4,4l14 8z"/>
               <path class="fil17" d="M208 168c0,0 22,-12 27,-4 2,5 -2,7 -2,7l-25 -3z"/>
               <g>
                <path class="fil5" d="M243 211c-2,-1 -3,-2 -5,-1 2,3 5,6 8,7 0,1 1,1 1,1 0,0 1,-1 1,-1 2,-1 4,-2 5,-4 0,-1 1,-1 1,-1 0,-2 -1,-1 -2,-1 -1,0 -2,0 -3,1 -2,0 -4,0 -6,-1z"/>
                <path class="fil20" d="M246 217c1,-1 2,-2 3,-3 1,-1 3,-2 4,-3 -5,-3 -5,-8 -5,-14 0,-3 1,-5 2,-7 1,-1 2,-3 3,-4 0,0 1,0 1,-1 1,0 1,-1 2,-1 0,1 0,1 -1,1 0,1 -1,2 -2,3 0,1 -1,2 -1,3 -1,2 -2,4 -2,7 0,2 0,4 1,6 1,3 3,5 5,7 0,0 -4,4 -4,4 -1,1 -2,1 -3,2 -1,1 -2,1 -3,1 0,0 -1,0 -1,0 0,0 0,0 1,-1 0,0 0,0 0,0 0,0 0,0 0,0z"/>
               </g>
               <path class="fil5" d="M261 213c0,2 5,3 10,1 4,-2 8,-5 7,-7 -1,-2 -5,-2 -10,-1 -5,2 -8,5 -7,7z"/>
               <path class="fil5" d="M202 203c-1,3 4,7 11,9 7,2 13,1 14,-2 1,-3 -4,-8 -11,-10 -7,-1 -14,-1 -14,3z"/>
              </g>
             </g>
            </g>
           </g>
          </g>
         </g>
        </g>
       </g>
       <path class="fil28" d="M140 290c0,0 -16,12 -22,28 -6,17 3,95 3,95l73 -1 -39 -115 -15 -7z"/>
       <path class="fil30" d="M180 402c-4,-33 -22,-68 -43,-93 0,-1 -1,0 -1,1 9,15 18,30 25,46 7,15 11,31 16,47 1,1 3,0 3,-1z"/>
       <path class="fil30" d="M257 299c0,0 -1,0 0,1 11,31 17,60 11,93 0,2 3,3 4,1 6,-31 2,-68 -15,-95z"/>
       <path class="fil7" d="M137 413c0,0 7,89 51,68 57,-20 112,-60 138,-81l0 0 -14 -21 -129 53 -4 -20 -33 0 -9 1z"/>
       <g>
        <g>
         <path class="fil7" d="M312 379l14 21 0 0 9 -5c0,0 0,-1 0,-1 0,0 0,0 0,0l8 1c5,-1 46,-26 45,-29 0,-1 0,-2 -1,-3 0,-1 -1,-2 -1,-3 -1,-1 -1,-1 -1,-1 0,0 0,-2 0,-4 0,-1 0,-2 0,-4 -1,-1 -1,-2 -2,-2 -1,0 -4,0 -8,1 -9,3 -24,8 -24,7 1,-2 30,-21 30,-21 0,0 0,-1 0,-2 0,-1 -1,-2 -2,-3 -1,-2 -46,19 -47,19 3,-7 4,-15 2,-23 0,0 0,0 0,0 -1,-1 -1,-2 -2,-2 0,0 0,0 -1,0 -2,1 -4,3 -5,6 -2,3 -2,6 -3,8 -1,6 -5,10 -8,14 -6,8 0,24 0,24 0,0 -1,0 -3,2z"/>
         <g>
          <g>
           <path class="fil18" d="M385 355c-1,1 -1,1 -2,1 -5,3 -10,4 -14,5 -3,1 -5,1 -5,1 0,0 2,-1 5,-3 3,-2 7,-4 12,-6 1,-1 3,-1 4,-2 0,2 0,3 0,4z"/>
          </g>
          <g>
           <path class="fil18" d="M387 363c-8,4 -15,6 -15,6 0,-1 6,-5 14,-9 0,1 1,2 1,3z"/>
          </g>
         </g>
        </g>
        <path class="fil21" d="M137 413c0,0 7,89 51,68 57,-20 112,-60 138,-81l9 -5c-2,1 -5,2 -9,5 -33,19 -137,80 -154,75 -15,-5 -23,-43 -26,-63l-9 1z"/>
       </g>
      </g>
      <g>
       <g>
        <path class="fil31" d="M444 854c0,-2 -1,-5 -4,-6 -8,-4 -39,-15 -47,-21 -7,-5 -13,-16 -15,-21l-57 3c-3,15 -5,43 -6,48l129 -3z"/>
       </g>
       <polygon class="fil11" points="445,867 316,870 315,857 444,854 "/>
       <g>
        <path class="fil11" d="M382 830c0,1 0,1 0,1 -1,1 -1,3 0,3 1,1 2,1 3,0 2,0 5,-1 7,-3 3,-1 6,-3 8,-6 1,-2 -1,-5 -4,-4 -6,1 -11,5 -14,9z"/>
        <path class="fil11" d="M392 837c0,0 0,0 -1,0 0,2 0,3 1,4 1,0 2,0 3,0 2,-1 5,-2 7,-3 3,-2 6,-4 7,-6 2,-3 0,-5 -3,-5 -6,2 -12,5 -14,10z"/>
        <path class="fil11" d="M404 841c0,0 0,1 0,1 -1,1 -1,3 0,3 1,0 2,0 3,0 2,0 5,-2 7,-3 3,-2 6,-3 8,-6 1,-3 -1,-5 -4,-4 -6,1 -12,5 -14,9z"/>
       </g>
      </g>
      <g>
       <g>
        <path class="fil31" d="M547 784c-1,-2 -3,-4 -6,-5 -8,-2 -41,-7 -50,-12 -7,-3 -15,-13 -18,-17l-56 14c0,15 3,43 4,48l126 -28z"/>
       </g>
       <polygon class="fil11" points="550,796 424,825 421,812 547,784 "/>
       <g>
        <path class="fil11" d="M481 773c0,0 0,0 0,1 0,1 0,2 1,3 1,0 2,0 3,-1 2,-1 4,-3 7,-4 2,-2 4,-5 5,-8 2,-3 -1,-4 -4,-3 -5,2 -10,7 -12,12z"/>
        <path class="fil11" d="M492 778c0,0 0,0 0,0 -1,1 -1,3 1,3 1,0 2,0 3,0 2,-1 4,-3 7,-5 2,-2 4,-4 5,-7 2,-3 -1,-5 -4,-4 -5,3 -10,7 -12,13z"/>
        <path class="fil11" d="M505 779c0,0 0,1 -1,1 0,1 0,3 2,3 1,0 1,0 2,0 3,-2 5,-3 7,-5 2,-2 5,-4 6,-7 1,-3 -2,-5 -5,-4 -5,2 -10,7 -11,12z"/>
       </g>
      </g>
      <path class="fil12" d="M173 179l13 10 0 -28 22 -5 6 -16 2 15 29 1 8 -14 0 16 25 6c0,0 2,-50 -37,-48 -40,1 -68,17 -68,17l-7 26 7 20z"/>
      <path class="fil17" d="M262 147c-1,-9 -5,-18 -11,-24 0,7 -3,13 -9,17 -5,4 -13,5 -19,2 0,-8 -3,-15 -7,-22 -4,14 -14,26 -27,31 -8,3 -16,4 -23,8l0 0 7 -26c0,0 28,-16 68,-17 25,-2 33,18 36,33 -5,-1 -10,-1 -15,-2z"/>
      <path class="fil32" d="M273 130c-1,2 -2,3 -3,4 -7,-12 -19,-21 -32,-26 -2,5 -4,10 -5,15 -4,-7 -12,-12 -20,-12 -7,15 -21,27 -38,30 1,-4 2,-8 4,-12 -14,7 -24,20 -28,35 -3,15 1,32 -4,47 -5,14 -15,24 -24,35 -5,6 -9,13 -11,20 0,-4 1,-8 2,-11 7,-18 24,-31 28,-50 3,-13 -1,-27 0,-40 1,-43 50,-71 90,-64 16,3 33,12 40,27 1,1 1,2 1,2z"/>
     </g>
     <g>
      <path class="fil33" d="M315 505c-4,-1 -9,2 -10,7l-49 341c-1,5 2,9 7,10l10 1c5,1 10,-2 10,-7l50 -341c1,-5 -2,-9 -7,-10l-11 -1z"/>
      <path class="fil33" d="M710 505c4,-1 9,2 10,7l49 341c1,5 -2,9 -7,10l-11 1c-4,1 -9,-2 -9,-7l-50 -341c-1,-5 2,-9 7,-10l11 -1z"/>
      <g>
       <path class="fil10" d="M736 510c0,4 -4,7 -8,7l-434 0c-4,0 -7,-3 -7,-7l0 -20c0,-4 3,-7 7,-7l434 0c4,0 8,3 8,7l0 20z"/>
      </g>
     </g>
     <g>
      <g>
       <path class="fil34" d="M463 419l-47 0c-5,0 -8,4 -8,8l0 47c0,5 3,8 8,8l47 0c4,0 8,-3 8,-8l0 -47c0,-4 -4,-8 -8,-8z"/>
       <path class="fil4" d="M458 426l-37 0c-4,0 -7,3 -7,6l0 37c0,4 3,7 7,7l37 0c3,0 6,-3 6,-7l0 -37c0,-3 -3,-6 -6,-6z"/>
       <polygon class="fil35" points="452,464 452,456 438,456 438,434 428,434 428,464 "/>
      </g>
      <g>
       <path class="fil3" d="M533 419l-47 0c-4,0 -8,4 -8,8l0 47c0,5 4,8 8,8l47 0c5,0 8,-3 8,-8l0 -47c0,-4 -3,-8 -8,-8z"/>
       <path class="fil4" d="M528 426l-37 0c-3,0 -6,3 -6,6l0 37c0,4 3,7 6,7l37 0c4,0 7,-3 7,-7l0 -37c0,-3 -3,-6 -7,-6z"/>
       <polygon class="fil36" points="515,464 515,442 524,442 524,434 497,434 497,442 505,442 505,464 "/>
      </g>
      <g>
       <path class="fil14" d="M604 419l-47 0c-5,0 -8,4 -8,8l0 47c0,5 3,8 8,8l47 0c4,0 8,-3 8,-8l0 -47c0,-4 -4,-8 -8,-8z"/>
       <path class="fil4" d="M599 426l-37 0c-4,0 -7,3 -7,6l0 37c0,4 3,7 7,7l37 0c3,0 6,-3 6,-7l0 -37c0,-3 -3,-6 -6,-6z"/>
       <polygon class="fil37" points="586,445 577,445 577,434 566,434 566,464 577,464 577,453 586,453 586,464 596,464 596,434 586,434 "/>
      </g>
      <g>
       <path class="fil14" d="M497 356l-46 0c-5,0 -9,4 -9,8l0 47c0,5 4,9 9,9l46 0c5,0 9,-4 9,-9l0 -47c0,-4 -4,-8 -9,-8z"/>
       <path class="fil4" d="M492 363l-36 0c-4,0 -7,3 -7,6l0 37c0,4 3,7 7,7l36 0c4,0 7,-3 7,-7l0 -37c0,-3 -3,-6 -7,-6z"/>
       <polygon class="fil37" points="470,390 483,390 483,382 470,382 470,379 485,379 485,371 460,371 460,401 485,401 485,394 470,394 "/>
      </g>
      <g>
       <path class="fil38" d="M572 356l-47 0c-4,0 -8,4 -8,8l0 47c0,5 4,9 8,9l47 0c4,0 8,-4 8,-9l0 -47c0,-4 -4,-8 -8,-8z"/>
       <path class="fil4" d="M567 363l-37 0c-3,0 -6,3 -6,6l0 37c0,4 3,7 6,7l37 0c4,0 6,-3 6,-7l0 -37c0,-3 -2,-6 -6,-6z"/>
       <path class="fil39" d="M568 401l-13 -30 -10 0 -13 30 10 0 2 -5 11 0 2 5 11 0zm-18 -20l2 8 -5 0 3 -8z"/>
      </g>
      <g>
       <path class="fil38" d="M312 427l0 47c0,5 4,8 9,8l46 0c5,0 9,-3 9,-8l0 -47c0,-4 -4,-8 -9,-8l-46 0c-5,0 -9,4 -9,8z"/>
       <path class="fil4" d="M319 432l0 37c0,4 3,7 7,7l36 0c4,0 7,-3 7,-7l0 -37c0,-3 -3,-6 -7,-6l-36 0c-4,0 -7,3 -7,6z"/>
       <path class="fil39" d="M344 438c-1,-3 -3,-4 -6,-4 -5,0 -8,4 -8,12l0 16 30 0 0 -17c0,-8 -3,-13 -8,-13 -4,0 -6,3 -8,6zm-7 9c0,-2 1,-3 2,-3 2,0 2,1 2,3l0 5 -4 0 0 -5zm16 5l-5 0 0 -6c0,-2 1,-3 3,-3 1,0 2,1 2,3l0 6z"/>
      </g>
      <g>
       <g>
        <path class="fil40" d="M533 293l-47 0c-4,0 -8,4 -8,8l0 47c0,5 4,8 8,8l47 0c5,0 8,-3 8,-8l0 -47c0,-4 -3,-8 -8,-8z"/>
       </g>
       <path class="fil4" d="M528 300l-37 0c-3,0 -6,3 -6,6l0 37c0,4 3,7 6,7l37 0c4,0 7,-3 7,-7l0 -37c0,-3 -3,-6 -7,-6z"/>
       <g>
        <polygon class="fil41" points="515,319 506,319 506,308 496,308 496,338 506,338 506,327 515,327 515,338 526,338 526,308 515,308 "/>
       </g>
       <polygon class="fil35" points="452,464 452,456 438,456 438,434 428,434 428,464 "/>
      </g>
     </g>
    </g>
   </g>
  </g>
  <path class="fil42" d="M108 0l708 0c60,0 108,48 108,108l0 603c0,59 -48,108 -108,108l-708 0c-60,0 -108,-49 -108,-108l0 -603c0,-60 48,-108 108,-108z"/>
 </g>
</svg>
