<?xml version="1.0" encoding="UTF-8"?>
<!DOCTYPE svg PUBLIC "-//W3C//DTD SVG 1.1//EN" "http://www.w3.org/Graphics/SVG/1.1/DTD/svg11.dtd">
<!-- Creator: CorelDRAW X7 -->
<svg xmlns="http://www.w3.org/2000/svg" xml:space="preserve" width="1.37168in" height="1.64365in" version="1.1" style="shape-rendering:geometricPrecision; text-rendering:geometricPrecision; image-rendering:optimizeQuality; fill-rule:evenodd; clip-rule:evenodd"
viewBox="0 0 618 741"
 xmlns:xlink="http://www.w3.org/1999/xlink">
 <defs>
  <style type="text/css">
   <![CDATA[
    .str0 {stroke:#FF3DD5;stroke-width:4.69189}
    .fil2 {fill:none}
    .fil16 {fill:#068D7B;fill-rule:nonzero}
    .fil38 {fill:#0FA79D;fill-rule:nonzero}
    .fil23 {fill:#131515;fill-rule:nonzero}
    .fil12 {fill:#252525;fill-rule:nonzero}
    .fil3 {fill:#26AAE2;fill-rule:nonzero}
    .fil31 {fill:#3A415D;fill-rule:nonzero}
    .fil30 {fill:#3AACA8;fill-rule:nonzero}
    .fil19 {fill:#3E0626;fill-rule:nonzero}
    .fil17 {fill:#424141;fill-rule:nonzero}
    .fil10 {fill:#446998;fill-rule:nonzero}
    .fil22 {fill:#54032B;fill-rule:nonzero}
    .fil32 {fill:#585858;fill-rule:nonzero}
    .fil39 {fill:#5AA59B;fill-rule:nonzero}
    .fil13 {fill:#5EB59D;fill-rule:nonzero}
    .fil28 {fill:#60CECB;fill-rule:nonzero}
    .fil36 {fill:#65A7DF;fill-rule:nonzero}
    .fil25 {fill:#6D0631;fill-rule:nonzero}
    .fil6 {fill:#A14D39;fill-rule:nonzero}
    .fil26 {fill:#B098A7;fill-rule:nonzero}
    .fil9 {fill:#B3304E;fill-rule:nonzero}
    .fil37 {fill:#BD4660;fill-rule:nonzero}
    .fil27 {fill:#C4AEBA;fill-rule:nonzero}
    .fil18 {fill:#D04955;fill-rule:nonzero}
    .fil29 {fill:#D0D3D5;fill-rule:nonzero}
    .fil35 {fill:#D25A30;fill-rule:nonzero}
    .fil14 {fill:#D94460;fill-rule:nonzero}
    .fil41 {fill:#DF922E;fill-rule:nonzero}
    .fil8 {fill:#EE645C;fill-rule:nonzero}
    .fil34 {fill:#F25A28;fill-rule:nonzero}
    .fil40 {fill:#F79221;fill-rule:nonzero}
    .fil33 {fill:#F9B813;fill-rule:nonzero}
    .fil20 {fill:#FD5A67;fill-rule:nonzero}
    .fil11 {fill:#FDE5D9;fill-rule:nonzero}
    .fil15 {fill:#FF7554;fill-rule:nonzero}
    .fil5 {fill:#FF7D6E;fill-rule:nonzero}
    .fil7 {fill:#FFA27F;fill-rule:nonzero}
    .fil21 {fill:#FFC190;fill-rule:nonzero}
    .fil24 {fill:#FFF1E9;fill-rule:nonzero}
    .fil4 {fill:white;fill-rule:nonzero}
    .fil1 {fill:url(#id1)}
    .fil0 {fill:url(#id2)}
    .fil42 {fill:url(#id3);fill-rule:nonzero}
   ]]>
  </style>
   <clipPath id="id0">
    <path d="M72 0l474 0c40,0 72,32 72,72l0 597c0,39 -32,72 -72,72l-474 0c-40,0 -72,-33 -72,-72l0 -597c0,-40 32,-72 72,-72z"/>
   </clipPath>
  <linearGradient id="id1" gradientUnits="userSpaceOnUse" x1="169.243" y1="922.191" x2="495.33" y2="440.872">
   <stop offset="0" style="stop-opacity:1; stop-color:#6200D1"/>
   <stop offset="1" style="stop-opacity:1; stop-color:#FF2EBD"/>
  </linearGradient>
  <linearGradient id="id2" gradientUnits="userSpaceOnUse" x1="152.902" y1="600.711" x2="465.125" y2="139.859">
   <stop offset="0" style="stop-opacity:1; stop-color:#5200B0"/>
   <stop offset="1" style="stop-opacity:1; stop-color:#EB00A1"/>
  </linearGradient>
  <linearGradient id="id3" gradientUnits="objectBoundingBox" x1="39.4259%" y1="115.842%" x2="60.5741%" y2="0%">
   <stop offset="0" style="stop-opacity:1; stop-color:#B940FF"/>
   <stop offset="1" style="stop-opacity:1; stop-color:#FF87EF"/>
  </linearGradient>
 </defs>
 <g id="Layer_x0020_1">
  <metadata id="CorelCorpID_0Corel-Layer"/>
  <path class="fil0" d="M72 0l474 0c40,0 72,32 72,72l0 597c0,39 -32,72 -72,72l-474 0c-40,0 -72,-33 -72,-72l0 -597c0,-40 32,-72 72,-72z"/>
  <g style="clip-path:url(#id0)">
   <g id="_2278740166880">
    <circle class="fil1" cx="332" cy="682" r="361"/>
    <circle class="fil2 str0" cx="442" cy="645" r="414"/>
    <g>
     <g>
      <path class="fil3" d="M445 485l2 -38c0,-2 -2,-4 -4,-3l-34 18c-2,1 -2,3 -1,4l33 21c1,2 4,0 4,-2z"/>
      <path class="fil4" d="M439 477l2 -22c0,-1 -2,-2 -3,-2l-19 10c-1,1 -1,2 0,3l18 12c1,0 2,0 2,-1z"/>
     </g>
     <g>
      <g>
       <g>
        <g>
         <path class="fil5" d="M447 527l-6 1 -3 3c-3,2 -30,6 -31,4 0,0 0,-1 0,-1 -1,-1 -1,-1 -1,-1 0,-1 0,-1 0,-1 0,-1 0,-1 0,-1 0,0 -1,-1 -2,-2 0,0 0,-1 -1,-1l0 0c0,-1 0,-2 0,-2 0,0 2,-1 4,-2 5,-3 14,-6 13,-6 -1,-1 -21,2 -21,2 0,0 0,-1 0,-2 -1,0 -1,-1 -1,-1 0,-2 28,-9 28,-9 -4,-2 -8,-6 -9,-10 0,0 0,0 -1,0l0 0c0,0 0,-1 0,-1 0,0 0,0 0,0 0,0 0,0 0,0 0,0 0,0 0,0 1,0 1,0 1,0 0,0 0,0 0,-1 0,0 0,0 0,0 0,0 0,0 0,0 1,0 3,0 5,1 1,1 2,2 4,3 2,1 5,2 8,3 1,0 1,0 1,0 1,0 2,1 2,1 2,2 4,4 5,6 0,0 0,1 0,1 0,0 0,0 0,0 1,1 1,2 1,2 0,0 1,0 2,0l0 3 2 11z"/>
         <g>
          <g>
           <path class="fil6" d="M404 529c1,0 2,0 2,0 3,-1 6,-2 7,-3 2,-1 3,-2 3,-2 0,0 -1,1 -3,1 -2,0 -5,1 -8,2 0,0 -1,0 -2,1 1,0 1,1 1,1z"/>
          </g>
          <g>
           <path class="fil6" d="M407 534c4,-2 8,-3 8,-4 0,0 -4,1 -9,2 0,0 0,1 1,2z"/>
          </g>
         </g>
         <path class="fil7" d="M445 516c0,0 0,0 0,0 0,0 -1,0 -1,0 -1,0 -1,0 -1,0 -1,0 -2,-1 -2,-2 -2,-3 -3,-6 -6,-8 -3,-2 -7,-3 -10,-4 -3,-2 -5,-4 -7,-4 -1,0 -1,0 -2,0 0,0 0,-1 0,-1 0,0 0,0 0,0 0,0 0,0 0,0 0,0 0,0 0,0 0,0 1,0 1,0 0,0 0,0 0,-1 0,0 0,0 0,0 0,0 0,0 0,0 1,0 3,0 5,1 1,1 2,2 4,3 2,1 5,2 8,3 1,0 1,0 1,0 1,0 2,1 2,1 2,2 4,4 5,6 0,0 0,1 0,1 0,0 0,0 0,0 1,1 1,2 1,2 0,0 1,0 2,0l0 3z"/>
        </g>
        <g>
         <path class="fil8" d="M440 522c0,0 -1,0 -1,0 0,0 -1,0 -2,0 -1,0 -3,-1 -5,-2 -1,-1 -2,-3 -3,-4 0,-1 0,-1 0,-1 0,-1 0,-1 0,-1 0,0 0,0 0,0 0,1 1,1 1,2 1,0 2,1 4,3 1,1 2,1 4,2 0,0 1,0 1,0 0,1 1,1 1,1z"/>
        </g>
       </g>
      </g>
      <path class="fil9" d="M501 432l-13 66 -44 14 3 18c0,0 56,-4 60,-6 4,-1 8,-33 8,-33l-14 -59z"/>
     </g>
     <g>
      <g>
       <g>
        <g>
         <g>
          <g>
           <path class="fil5" d="M518 582l-49 0c-6,14 -27,66 -27,66l-5 -2 -16 -6c0,0 19,-79 27,-87 10,-9 53,-8 53,-8l14 31 3 6z"/>
           <path class="fil5" d="M518 582l-49 0c-6,14 -27,66 -27,66l-5 -2c5,-13 27,-67 29,-69 2,-2 36,-2 49,-1l3 6z"/>
          </g>
          <g>
           <g>
            <path class="fil10" d="M378 651c1,-2 2,-3 3,-3 5,0 21,-1 26,-3 4,-1 9,-6 11,-8l26 11c-1,8 -5,23 -6,26l-60 -23z"/>
            <polygon class="fil11" points="376,657 435,680 438,674 378,651 "/>
            <g>
             <path class="fil11" d="M412 649c0,0 0,0 0,0 0,1 0,2 -1,2 -1,0 -1,0 -1,0 -1,-1 -2,-2 -3,-3 -1,-2 -2,-3 -3,-5 0,-1 2,-2 3,-1 2,1 4,4 5,7z"/>
             <path class="fil11" d="M406 651c0,0 0,0 0,0 0,1 0,2 -1,2 0,0 -1,-1 -1,-1 -1,-1 -2,-2 -3,-3 -1,-1 -2,-2 -2,-4 -1,-2 1,-2 2,-2 2,2 4,5 5,8z"/>
             <path class="fil11" d="M399 651c1,0 1,0 1,0 0,1 -1,2 -1,2 -1,0 -1,0 -2,-1 -1,0 -2,-2 -3,-3 -1,-1 -2,-2 -2,-4 0,-2 1,-2 3,-1 2,1 4,4 4,7z"/>
            </g>
           </g>
          </g>
         </g>
        </g>
       </g>
      </g>
     </g>
     <g>
      <g>
       <path class="fil12" d="M517 530c0,0 -59,12 -66,16l24 35 83 -9 10 -38 -51 -4z"/>
      </g>
     </g>
     <g>
      <g>
       <g>
        <polygon class="fil13" points="57,602 28,462 42,462 73,604 "/>
        <path class="fil14" d="M18 438c6,-6 46,-6 84,-4l0 33 -89 0c0,0 -6,-17 5,-29z"/>
       </g>
      </g>
      <g>
       <g>
        <polygon class="fil13" points="183,613 209,760 196,760 164,620 "/>
        <polygon class="fil13" points="54,613 28,760 41,760 73,620 "/>
       </g>
       <polygon class="fil13" points="42,722 194,722 194,712 42,712 "/>
      </g>
      <path class="fil14" d="M205 598c0,0 -145,-12 -157,0 -11,11 -5,28 -5,28l166 0 -4 -28z"/>
     </g>
     <g>
      <g>
       <g>
        <polygon class="fil15" points="614,602 643,462 629,462 598,604 "/>
        <g>
         <path class="fil16" d="M653 438c-6,-6 -46,-6 -84,-4l0 33 89 0c0,0 6,-17 -5,-29z"/>
        </g>
       </g>
      </g>
      <g>
       <g>
        <polygon class="fil15" points="488,613 462,760 475,760 507,620 "/>
        <polygon class="fil15" points="617,613 643,760 630,760 598,620 "/>
       </g>
       <polygon class="fil15" points="629,722 477,722 477,712 629,712 "/>
      </g>
      <g>
       <path class="fil16" d="M466 598c0,0 146,-12 157,0 11,11 5,28 5,28l-166 0 4 -28z"/>
      </g>
     </g>
     <g>
      <g>
       <g>
        <g>
         <g>
          <g>
           <g>
            <path class="fil7" d="M530 597l-48 -1c-7,15 -28,67 -28,67l-5 -2 -16 -6c0,0 19,-79 27,-87 10,-9 53,-8 53,-8l14 31 3 6z"/>
            <path class="fil5" d="M530 597l-48 -1c-7,15 -28,67 -28,67l-5 -2c6,-14 27,-68 30,-69 2,-2 35,-2 48,-1l3 6z"/>
           </g>
           <g>
            <g>
             <path class="fil10" d="M390 665c1,-1 2,-2 3,-2 5,0 22,-1 27,-3 4,-1 8,-6 10,-8l26 11c-1,8 -5,23 -6,26l-60 -24z"/>
             <polygon class="fil11" points="388,672 448,695 450,689 390,665 "/>
             <g>
              <path class="fil11" d="M424 664c0,0 0,0 0,0 0,1 0,2 -1,2 0,0 -1,0 -1,-1 -1,0 -2,-2 -3,-3 -1,-1 -2,-2 -2,-4 -1,-1 1,-2 2,-1 2,1 5,4 5,7z"/>
              <path class="fil11" d="M418 665c0,1 0,1 0,1 0,0 0,1 -1,1 0,0 -1,0 -1,0 -1,-1 -2,-2 -3,-3 -1,-1 -2,-3 -2,-4 -1,-2 1,-3 2,-2 3,2 5,5 5,7z"/>
              <path class="fil11" d="M412 666c0,0 0,0 0,0 0,1 0,1 -1,1 -1,1 -1,0 -1,0 -2,-1 -3,-2 -3,-3 -1,-1 -2,-2 -3,-4 0,-2 2,-3 3,-2 2,2 4,5 5,8z"/>
             </g>
            </g>
           </g>
          </g>
         </g>
        </g>
       </g>
      </g>
      <g>
       <path class="fil17" d="M589 552c0,0 -8,44 -19,49 0,0 0,0 -1,0 -12,5 -80,-3 -80,-3 0,0 -1,-3 -2,-9 -3,-11 -15,-27 -15,-29 13,-4 56,-4 56,-4l21 -14 40 10z"/>
       <path class="fil12" d="M589 552c0,0 -8,44 -19,49 0,0 0,0 -1,0 -12,5 -80,-3 -80,-3 0,0 -1,-3 -2,-9 12,4 31,6 43,6 13,0 26,-1 35,-10 9,-8 14,-21 11,-33l13 0z"/>
      </g>
     </g>
     <g>
      <g>
       <path class="fil14" d="M588 560c-6,-7 -86,-27 -86,-27l-10 3c0,0 3,-6 4,-8 3,-3 8,-5 8,-5l0 -8c-1,-6 -5,-53 -5,-75l0 0c1,-7 3,-14 7,-20 2,-2 3,-3 3,-4 0,0 0,0 0,0 0,0 0,0 0,0 1,-1 2,-2 3,-2 12,-10 27,-14 27,-14 1,0 4,0 7,1 4,1 7,2 9,3 0,0 0,0 0,0 13,6 23,34 30,64 1,4 2,8 3,13 3,18 5,36 5,54 0,9 -2,17 -5,25z"/>
       <g>
        <g>
         <path class="fil14" d="M567 442l-24 -20 -18 41 -61 7 4 32c0,0 73,6 81,-7 8,-12 28,-43 18,-53z"/>
         <path class="fil9" d="M549 429c-6,8 -10,17 -14,25 -1,3 -1,5 -4,6 -1,1 -6,1 -8,1 -5,0 -10,1 -15,3 -1,0 -1,1 0,1 8,-1 17,-2 26,-3 0,0 1,0 1,0 4,-11 10,-21 16,-31 1,-2 -1,-3 -2,-2z"/>
         <path class="fil9" d="M572 449c0,-1 -2,0 -2,1 4,10 -2,19 -7,26 -5,7 -11,12 -16,18 0,0 0,0 0,0 -9,3 -18,3 -26,6 -1,0 -1,1 0,1 8,0 18,-2 26,-4 0,0 0,0 0,0 0,0 0,0 0,0 0,-1 1,-1 1,-1 8,-5 15,-15 20,-23 4,-7 8,-15 4,-24z"/>
        </g>
        <path class="fil7" d="M463 484c0,5 -1,9 -2,13l6 0 -1 -15c-1,0 -4,0 -4,0 0,0 0,0 0,0 0,1 1,2 1,2z"/>
        <g>
         <g>
          <g>
           <g>
            <path class="fil7" d="M424 480c0,0 0,2 0,5 0,0 0,1 0,1 1,2 1,3 1,5 0,0 0,0 0,0 1,1 1,2 1,2 0,1 1,1 1,2l9 -3c0,0 2,1 4,3l0 0c3,2 7,4 8,4 1,0 14,-2 16,-3l0 -2 1 -8 -1 -1 -2 -2 0 -1 -5 -7c-1,-1 -3,-2 -4,-3l0 0c-1,-1 -1,-2 -2,-2 -3,-2 -6,-5 -8,-6 0,0 0,0 0,0 -1,0 -1,0 -2,-1 -1,0 -1,0 -2,0 -6,0 -17,-1 -17,2 -1,2 18,4 18,4l2 5 -8 0 -10 6z"/>
            <g>
             <g>
              <path class="fil18" d="M425 491c0,0 0,0 0,0 1,0 1,0 2,0 1,-1 3,-2 5,-2 1,-1 3,-2 4,-2 1,0 1,0 1,0 1,0 1,0 1,0 0,0 1,0 1,0 0,0 0,0 -1,0 0,0 0,-1 -1,-1 0,0 0,0 -1,0 -1,0 -3,0 -5,1 -2,1 -4,2 -5,3 0,0 0,1 -1,1z"/>
             </g>
             <g>
              <path class="fil18" d="M424 485c0,0 0,1 0,1 0,0 1,0 1,0 1,-1 3,-1 4,-2 2,-1 4,-1 5,-2 1,0 1,0 1,0 0,0 1,0 1,0 0,0 1,0 1,0 0,0 -1,0 -1,0 0,0 -1,0 -1,0 0,0 0,-1 -1,-1 -1,0 -3,0 -5,1 -2,1 -4,2 -5,3z"/>
             </g>
            </g>
           </g>
          </g>
         </g>
        </g>
       </g>
       <path class="fil9" d="M552 422c-5,5 -9,10 -16,14 -3,2 -6,3 -10,4 -7,2 -16,0 -16,-9 0,-1 -1,-1 -1,0 -3,10 9,14 17,12 10,-2 24,-10 28,-20 0,-1 -1,-2 -2,-1z"/>
       <path class="fil9" d="M577 525c-10,-4 -22,-4 -32,-4 -7,0 -16,0 -24,2 -4,0 -7,0 -10,0 -2,0 -2,2 0,2 1,0 3,0 5,0 0,0 0,0 0,0 1,0 1,0 2,0 7,1 14,2 21,3 8,2 16,5 24,6 0,1 1,-1 0,-1 -7,-5 -17,-7 -26,-8 0,0 -1,0 -2,-1 4,0 8,0 12,0 10,0 19,2 29,3 2,0 2,-2 1,-2z"/>
       <path class="fil7" d="M555 404c-4,11 -12,21 -23,26 -4,2 -9,4 -14,2 -3,-2 -6,-6 -6,-10 -1,-3 0,-6 0,-8 12,-10 27,-14 27,-14 1,0 4,0 7,1 4,1 7,2 9,3z"/>
       <g>
        <path class="fil19" d="M486 343c0,0 -2,4 -1,9 1,4 8,19 8,19l-2 -29 -5 1z"/>
        <g>
         <g>
          <g>
           <g>
            <g>
             <g>
              <path class="fil7" d="M518 415c0,2 0,5 0,8 4,-1 7,-2 10,-4 6,-4 11,-7 17,-10 -1,-3 -1,-8 -1,-12 -1,-6 -1,-11 -1,-11l-27 12c0,0 3,11 3,13 0,1 0,2 -1,4z"/>
              <path class="fil5" d="M544 397c-8,6 -24,17 -25,18 0,0 -1,0 -1,0 1,-2 1,-3 1,-4 0,-2 -3,-13 -3,-13l27 -12c0,0 0,5 1,11z"/>
             </g>
            </g>
            <g>
             <g>
              <path class="fil7" d="M547 387c0,0 -1,2 -4,4l0 0c-1,1 -1,1 -2,2 -3,2 -32,15 -37,14 -4,0 -9,-16 -9,-18 -1,-10 -5,-42 -5,-42 11,-19 50,-15 55,-11 4,3 2,51 2,51z"/>
              <g>
               <path class="fil5" d="M504 377c4,2 6,2 10,2 0,1 -2,3 -3,4 -4,-2 -4,-3 -7,-6z"/>
               <path class="fil20" d="M502 374c1,-3 6,-1 9,0 -1,-4 -3,-7 -3,-12 0,0 0,0 0,0 1,3 2,5 3,8 0,1 1,2 1,4 0,0 1,3 0,3 0,0 0,0 -1,0 -1,-1 -3,-2 -5,-3 0,0 -1,0 -1,0 -1,0 -1,1 -1,2 0,0 1,1 1,2 1,0 2,1 2,2 1,1 3,2 4,3 0,0 -1,0 -1,0 -1,-1 -1,-1 -2,-1 -1,-1 -2,-1 -3,-2 -1,-1 -3,-3 -3,-6z"/>
              </g>
              <path class="fil21" d="M543 391c-1,1 -1,1 -2,2 -3,2 -32,15 -37,14 -4,0 -9,-16 -9,-18 3,7 6,17 9,16 5,0 35,-12 39,-14z"/>
             </g>
             <g>
              <path class="fil22" d="M492 361c0,0 2,-9 6,-7 4,1 3,2 3,2l-9 5z"/>
              <path class="fil22" d="M534 353c0,0 -11,-9 -15,-4 -2,2 0,4 0,4l15 0z"/>
              <g>
               <path class="fil23" d="M530 365c0,3 -2,6 -4,6 -2,0 -3,-3 -3,-6 0,-3 1,-5 3,-5 2,0 4,2 4,5z"/>
               <g>
                <path class="fil24" d="M533 362c0,0 -1,2 -3,3 -2,1 -4,0 -4,0 0,0 1,-2 3,-3 2,-1 4,0 4,0z"/>
               </g>
              </g>
              <g>
               <path class="fil23" d="M497 367c0,3 1,4 2,4 2,0 3,-1 3,-4 0,-2 -1,-4 -3,-4 -1,0 -2,2 -2,4z"/>
               <g>
                <path class="fil24" d="M495 365c0,0 0,1 2,2 2,1 3,0 3,0 0,0 -1,-1 -2,-1 -2,-1 -3,-1 -3,-1z"/>
               </g>
              </g>
              <path class="fil5" d="M499 380c0,1 -3,2 -6,1 -2,-2 -4,-3 -4,-5 1,-1 3,-1 6,0 3,1 5,3 4,4z"/>
              <path class="fil5" d="M535 374c0,2 -3,5 -7,6 -4,1 -8,0 -9,-2 0,-1 3,-4 7,-5 5,-1 8,0 9,1z"/>
              <g>
               <path class="fil20" d="M505 387c0,0 0,1 0,1 1,0 1,1 2,1 2,1 5,2 8,2 3,0 6,-1 7,-3 1,0 2,-1 2,-1 1,0 1,-1 1,-1 0,0 0,1 -1,1 0,0 -1,0 -2,1 -2,1 -4,1 -7,1 -3,0 -6,0 -7,0 -1,-1 -2,-1 -3,-1 0,0 0,-1 0,-1z"/>
              </g>
             </g>
            </g>
           </g>
          </g>
          <g>
           <path class="fil21" d="M542 388c6,-1 11,-4 13,-7 1,-1 1,-1 1,-2 2,-3 3,-14 -2,-16 -3,-2 -5,0 -6,2 0,0 0,0 0,0 -1,1 -1,1 -1,1l-5 22z"/>
           <path class="fil7" d="M542 388c6,-1 11,-4 13,-7 0,0 0,-1 1,-1 1,-3 2,-14 -3,-16 -2,-2 -4,0 -5,1 0,0 0,0 0,0 -1,1 -1,1 -1,1l-5 22z"/>
           <path class="fil5" d="M556 371c0,1 0,2 -1,3 -1,3 -4,6 -8,9 1,-2 1,-4 1,-6 0,-1 0,-1 0,-2 0,-3 6,-9 8,-4z"/>
           <g>
            <path class="fil6" d="M545 384c0,0 0,0 1,0 0,0 0,-1 0,-1 1,0 1,0 2,-1 0,-1 1,-2 1,-3 0,-1 0,-3 0,-4 0,0 0,0 -1,0l0 0c0,-1 0,-1 0,-1l0 0 0 0 0 0c0,0 0,1 0,0l0 0 1 0c0,0 0,0 0,0 0,-1 1,-1 1,-2 0,0 1,-1 1,-1 0,0 1,-1 1,-1 0,0 1,0 1,-1 1,0 1,1 1,1 0,0 1,0 1,0 0,0 0,0 0,0 0,0 0,0 0,0 0,0 0,0 -1,0 0,-1 0,-1 -1,-1 0,0 -1,0 -1,1 -1,0 -1,0 -2,1 0,0 -1,0 -1,1 0,0 -1,1 -1,1 0,0 0,1 0,1l-1 0 0 0 0 1c0,0 0,0 0,0l0 0c0,0 1,0 1,0 0,2 0,3 0,4 0,1 0,2 -1,3 0,0 -1,1 -1,1 0,0 0,1 -1,1 0,0 0,0 0,0z"/>
           </g>
          </g>
         </g>
        </g>
        <g>
         <path class="fil19" d="M553 347l0 15 -8 7 -3 -21c-5,-6 -12,-10 -19,-11 -8,-2 -16,0 -23,4 -4,3 -8,6 -13,8 -3,0 -6,-1 -9,-2 -1,0 -1,-1 -2,-1 5,-1 9,-4 12,-8 -3,0 -5,0 -8,-1 8,-8 18,-16 29,-21 -3,0 -6,-2 -7,-5 7,1 14,0 21,0 7,-1 14,0 20,4 5,4 8,9 9,15 2,5 1,12 1,17z"/>
         <path class="fil22" d="M553 338c0,3 0,7 0,9l0 2c-3,-1 -5,-3 -7,-5 -3,-5 -6,-9 -10,-13 -5,-3 -11,-5 -16,-3 2,1 4,2 5,3 -10,-1 -21,1 -30,5 1,1 2,1 3,2 -1,0 -6,3 -7,4 -2,1 -4,2 -7,3 -2,0 -4,1 -6,2 -1,0 -1,-1 -2,-1 5,-1 9,-4 12,-8 -3,0 -5,0 -8,-1 2,-1 3,-3 5,-4l0 0c7,-7 15,-13 24,-17 -3,0 -6,-2 -7,-5 7,1 14,0 21,0 7,-1 14,0 20,4 5,4 8,9 9,15 1,3 1,5 1,8z"/>
         <path class="fil25" d="M553 338c-1,-1 -2,-1 -2,-2 -4,-5 -7,-11 -11,-15 -5,-4 -13,-6 -20,-4 1,2 2,3 3,5 -5,0 -9,0 -14,0 1,0 3,1 4,2 -9,3 -19,6 -28,9 7,-7 15,-13 24,-17 -3,0 -6,-2 -7,-5 7,1 14,0 21,0 7,-1 14,0 20,4 5,4 8,9 9,15 1,3 1,5 1,8z"/>
        </g>
       </g>
      </g>
     </g>
     <g>
      <path class="fil12" d="M186 307c-1,17 -2,33 -3,50 0,9 -1,19 -2,28 -1,7 -3,14 -7,19 -6,8 -17,11 -28,13 -11,1 -23,1 -35,-2 -2,0 -5,-1 -8,-2 -8,-4 -16,-9 -21,-16 -7,-10 -10,-23 -5,-34 4,-12 16,-20 18,-33 2,-9 -1,-18 0,-27 1,-29 34,-47 60,-43 11,2 22,9 27,19 2,4 3,9 4,13 0,5 0,10 0,15z"/>
      <path class="fil17" d="M175 291c0,-6 -3,-12 -7,-16 0,4 -2,9 -6,12 -4,2 -9,3 -13,1 0,-5 -2,-11 -4,-15 -3,9 -10,17 -19,21 -7,3 -15,3 -20,10 -3,4 -2,11 -1,16 2,6 4,12 4,17 0,8 -4,14 -8,20 -4,6 -9,12 -11,19 -2,8 0,16 6,20l8 16c0,0 0,1 -1,1 -8,-4 -16,-9 -21,-16 -5,-8 -8,-17 -7,-27 0,-2 1,-4 2,-7 4,-12 16,-20 18,-33 2,-9 -1,-18 0,-27 1,-29 34,-47 60,-43 11,2 22,9 27,19 0,0 0,1 1,1 1,4 2,8 3,12 -4,0 -7,0 -11,-1z"/>
      <g>
       <g>
        <g>
         <polygon class="fil7" points="309,699 289,702 283,703 274,676 283,673 303,666 "/>
         <polygon class="fil5" points="289,702 283,703 274,676 283,673 "/>
        </g>
        <path class="fil26" d="M192 537c0,0 72,-10 85,3 12,11 37,139 37,139l-45 6 -18 -88 -84 -30 -17 -30 42 0z"/>
        <g>
         <g>
          <polygon class="fil7" points="249,739 227,738 220,737 217,705 229,704 252,703 "/>
          <polygon class="fil5" points="227,738 220,737 217,705 229,704 "/>
         </g>
         <path class="fil27" d="M258 714l-27 2 -24 1 1 -122c0,0 -100,3 -111,-14 -8,-11 -4,-55 -4,-55l6 1 67 13c0,0 77,13 90,28 13,14 2,146 2,146z"/>
         <path class="fil26" d="M218 717l-11 0 1 -122c0,0 -100,3 -111,-14 -8,-11 -4,-55 -4,-55l6 1c0,9 2,47 9,48 7,2 110,10 110,10l0 132z"/>
        </g>
       </g>
       <g>
        <path class="fil7" d="M173 451c0,0 14,18 27,32 7,9 14,15 17,15 7,-1 60,-12 60,-12l0 -6 -1 -8 0 -2 0 -2 0 0 -2 0c0,0 0,0 0,0l-1 0 -55 1c-8,-13 -28,-40 -28,-40l-6 8 -11 14z"/>
        <path class="fil5" d="M200 483c7,9 14,15 17,15 7,-1 60,-12 60,-12l0 -6 -2 -1c0,0 -53,10 -54,10 -1,0 -12,-3 -21,-6z"/>
        <path class="fil21" d="M184 437l35 40c3,1 56,-5 56,-5l1 -2 0 -2 0 0 -2 0c0,0 0,0 0,0l-1 0 -55 1c-8,-13 -28,-40 -28,-40l-6 8z"/>
        <g>
         <g>
          <path class="fil7" d="M328 457c-1,-2 -35,-1 -35,-1 4,-4 7,-9 8,-14 0,0 0,0 0,0 0,-1 0,-1 -1,-1 0,-1 0,-1 0,-1 -2,0 -4,1 -5,3 -2,1 -3,3 -4,4 -2,3 -6,5 -9,6 -5,3 -6,15 -6,15 0,0 -1,0 -2,0l2 17 8 -1 4 2c3,1 35,-3 36,-5 0,-1 0,-1 0,-2 0,-1 0,-2 0,-3 0,0 0,0 0,0 0,0 0,-1 1,-3 0,0 0,-1 0,-2 0,-1 0,-2 0,-2 0,0 -2,-1 -5,-1 -7,-1 -17,-2 -17,-3 1,0 24,-4 24,-4 0,0 0,-1 1,-2 0,-1 0,-1 0,-2z"/>
          <path class="fil5" d="M325 469c0,0 -2,-1 -5,-1 -1,1 -2,3 -3,5 -2,2 -4,4 -7,5 -4,2 -9,2 -14,1 -4,0 -9,-1 -13,-1 -3,0 -5,1 -8,1l1 7 8 -2 4 2c3,1 35,-3 36,-5 0,-1 0,-1 0,-2 0,-1 0,-2 0,-3 0,0 0,0 0,0 0,0 0,-1 1,-3 0,0 0,-1 0,-2 0,-1 0,-2 0,-2z"/>
          <g>
           <g>
            <path class="fil18" d="M325 473c-1,0 -2,0 -2,0 -4,0 -7,0 -10,0 -2,-1 -3,-1 -3,-1 0,0 1,-1 4,-1 2,0 5,0 9,0 1,0 2,0 2,0 0,1 0,2 0,2z"/>
           </g>
           <g>
            <path class="fil18" d="M324 479c-6,0 -11,-1 -11,-1 0,0 5,-1 11,-2 0,1 0,2 0,3z"/>
           </g>
          </g>
          <path class="fil21" d="M274 472c0,0 1,0 1,0 0,0 1,0 1,0 1,-1 1,-1 1,-1 1,-1 1,-2 2,-3 1,-4 1,-7 3,-11 3,-3 7,-5 11,-8 2,-2 4,-5 7,-7 0,0 0,0 1,0 0,-1 0,-1 -1,-1 0,-1 0,-1 0,-1 -2,0 -4,1 -5,3 -2,1 -3,3 -4,4 -2,3 -6,5 -9,6 -5,3 -6,15 -6,15 0,0 -1,0 -2,0 0,0 0,0 0,0l-1 0 1 4z"/>
         </g>
         <g>
          <path class="fil18" d="M283 476c0,0 0,0 0,0 1,0 1,0 2,0 2,-1 4,-2 5,-4 2,-2 2,-4 3,-5 0,-1 0,-2 0,-2 -1,-1 -1,-1 -1,-1 0,0 0,0 0,1 0,0 0,1 -1,1 0,2 -1,3 -3,5 -1,1 -2,3 -3,4 -1,0 -1,1 -2,1 0,0 0,0 0,0z"/>
         </g>
        </g>
       </g>
       <path class="fil28" d="M169 378c0,0 14,11 17,17 3,5 23,51 23,51l-36 26 -6 -23 2 -71z"/>
       <g>
        <g>
         <g>
          <g>
           <g>
            <g>
             <g>
              <path class="fil11" d="M202 537c-53,15 -115,6 -115,6 0,-2 21,-99 17,-116 -2,-7 -11,-38 -10,-40 0,-3 13,-11 18,-14 2,-1 4,-1 5,-2 5,-1 10,-2 10,-2l22 0c0,0 2,0 5,1l0 0c3,0 8,3 15,8 2,1 4,3 5,4 17,15 7,63 5,69 -1,3 23,84 23,86z"/>
              <path class="fil29" d="M174 455c-6,0 -12,-4 -18,-2 -3,1 -5,3 -8,4 -6,1 -10,0 -15,-2 -1,0 -2,1 -1,1 5,5 11,5 17,4 5,-2 8,-4 13,-4 5,1 8,2 12,1 1,0 1,-2 0,-2z"/>
              <path class="fil7" d="M169 378c-2,7 -8,20 -23,19 -15,-1 -28,-16 -34,-24 2,-1 4,-1 5,-2 0,0 1,0 1,0 5,-2 9,-2 9,-2l22 0c0,0 2,0 5,1l0 0c3,0 7,2 13,6 1,1 1,1 2,2z"/>
              <path class="fil28" d="M154 370c0,0 20,42 22,65 2,24 12,106 12,106l33 -6 -28 -72 -9 -72c0,0 -6,-13 -30,-21z"/>
              <path class="fil28" d="M118 371c0,0 25,60 22,94 -2,34 -13,104 -13,104l-57 -23c0,0 34,-105 24,-159 0,0 8,-13 24,-16z"/>
              <g>
               <g>
                <g>
                 <path class="fil7" d="M146 390l-19 -21c0,-4 0,-5 0,-13 1,-9 1,-18 1,-18l26 11c-3,6 -4,13 -5,20 -1,15 -3,21 -3,21z"/>
                 <path class="fil5" d="M154 349c-3,6 -4,13 -5,20 -1,1 -1,1 -2,1 -3,1 -13,-7 -20,-14 1,-9 1,-18 1,-18l26 11z"/>
                </g>
                <g>
                 <g>
                  <path class="fil7" d="M182 318c-1,3 -1,5 -2,8 0,0 1,13 -1,16 -1,3 -10,21 -19,19 -8,-1 -27,-12 -33,-19 -1,-1 -2,-3 -2,-3 -1,-6 -4,-28 -4,-30 -1,-6 -2,-45 45,-33 8,2 15,9 17,17 1,7 1,15 -1,25z"/>
                  <g>
                   <path class="fil20" d="M167 345c0,0 -10,-8 -20,-4 0,0 3,9 8,10 6,1 12,-6 12,-6z"/>
                   <path class="fil24" d="M166 345c0,0 -7,-4 -19,-4 0,0 2,8 9,9 7,0 10,-5 10,-5z"/>
                  </g>
                  <g>
                   <path class="fil23" d="M139 320c1,-4 5,-6 8,-5 4,0 7,3 7,7 -2,-2 -4,-3 -7,-4 -3,0 -6,0 -8,2z"/>
                  </g>
                  <path class="fil21" d="M180 326c0,0 1,13 -1,16 -1,3 -10,21 -19,19 -8,-1 -27,-12 -33,-19 8,6 29,20 35,18 8,-3 17,-20 17,-21 0,-2 -1,-13 -1,-13 0,0 2,-4 4,-8 -1,3 -1,5 -2,8z"/>
                  <g>
                   <path class="fil23" d="M170 322c1,-2 4,-4 6,-4 3,1 5,3 6,6 -2,-2 -4,-3 -6,-3 -2,0 -4,0 -6,1z"/>
                  </g>
                 </g>
                 <g>
                  <path class="fil21" d="M127 338c-6,-1 -10,-4 -12,-7 -1,-1 -1,-2 -2,-2 -1,-3 -2,-14 3,-16 3,-2 5,1 6,2 0,0 0,0 0,0 0,1 1,2 1,2l4 21z"/>
                  <path class="fil7" d="M127 338c-6,-1 -10,-4 -12,-7 -1,-1 -1,-1 -1,-1 -2,-3 -2,-14 2,-16 3,-2 5,0 6,1 0,0 0,0 0,0 0,1 1,2 1,2l4 21z"/>
                  <path class="fil5" d="M114 321c0,1 0,2 0,3 2,3 5,6 8,9 -1,-2 -1,-4 -1,-6 0,-1 1,-1 1,-2 0,-3 -6,-9 -8,-4z"/>
                  <g>
                   <path class="fil18" d="M124 334c0,0 0,0 0,0 0,0 0,-1 -1,-1 0,0 -1,-1 -1,-1 -1,-1 -1,-2 -2,-3 0,-1 0,-3 1,-4 0,0 0,0 0,0l0 0c0,0 0,0 0,0l0 0 0 0 0 0c0,0 0,0 0,0l0 -1 0 0c0,0 0,0 0,0 -1,-1 -1,-1 -1,-2 -1,0 -1,-1 -1,-1 -1,0 -1,-1 -1,-1 -1,0 -1,0 -1,0 -1,-1 -1,0 -1,0 -1,0 -1,0 -1,0 0,0 0,0 0,0 0,0 0,0 0,0 0,0 0,0 1,0 0,-1 0,-1 1,-1 0,0 1,0 1,1 1,0 1,0 1,1 1,0 1,0 2,1 0,0 0,1 1,1 0,1 0,1 0,1l0 0 0 0 1 1c-1,0 -1,0 -1,0l0 0c0,0 0,0 0,0 -1,2 -1,3 -1,4 1,1 1,2 1,3 1,0 1,1 2,1 0,0 0,0 0,1 0,0 0,0 0,0z"/>
                  </g>
                 </g>
                </g>
               </g>
              </g>
              <g>
               <path class="fil17" d="M182 313c0,0 -2,-9 -6,-8 -5,2 -4,3 -4,3l10 5z"/>
               <path class="fil17" d="M139 305c0,0 15,-8 18,-2 1,3 -1,4 -1,4l-17 -2z"/>
               <g>
                <path class="fil5" d="M162 334c-1,-1 -2,-1 -3,-1 1,2 3,4 6,5 0,0 0,0 0,0 0,0 1,0 1,0 1,-1 2,-2 3,-3 0,0 1,0 1,-1 0,-1 -1,0 -1,0 -1,0 -2,0 -2,0 -2,0 -3,0 -5,0z"/>
                <path class="fil20" d="M165 338c0,-1 1,-1 2,-2 1,0 1,-1 2,-2 -3,-2 -3,-6 -3,-9 0,-2 1,-4 1,-5 1,-1 1,-2 2,-2 0,-1 1,-1 1,-1 0,-1 1,-1 1,-1 0,0 0,0 0,1 -1,0 -1,1 -2,2 0,0 0,1 -1,2 0,1 -1,3 -1,4 0,2 0,3 1,5 0,1 2,3 3,4 0,0 -2,2 -2,3 -1,0 -2,1 -2,1 -1,0 -2,1 -2,1 -1,0 -1,0 -1,0 0,-1 0,-1 0,-1 0,0 0,0 0,0 1,0 1,0 1,0z"/>
               </g>
               <path class="fil5" d="M174 335c1,2 4,2 7,1 3,-1 5,-3 5,-5 -1,-1 -4,-1 -7,0 -3,1 -5,3 -5,4z"/>
               <path class="fil5" d="M135 328c-1,2 3,5 7,6 5,2 9,1 10,-1 1,-2 -3,-5 -8,-6 -4,-1 -9,-1 -9,1z"/>
              </g>
             </g>
            </g>
           </g>
          </g>
         </g>
        </g>
       </g>
       <path class="fil28" d="M94 387c0,0 -11,8 -15,19 -4,11 2,63 2,63l49 -1 -26 -76 -10 -5z"/>
       <path class="fil30" d="M121 462c-3,-23 -15,-46 -29,-63 -1,0 -1,1 -1,1 6,10 12,20 17,31 4,10 7,21 11,31 0,1 2,1 2,0z"/>
       <path class="fil30" d="M172 393c0,0 0,0 0,0 7,21 11,40 7,63 0,1 3,2 3,0 4,-21 2,-45 -10,-63z"/>
       <path class="fil7" d="M91 469c0,0 5,60 35,45 38,-13 75,-40 92,-53l0 -1 -9 -14 -87 36 -2 -14 -22 1 -7 0z"/>
       <g>
        <g>
         <path class="fil7" d="M209 446l9 14 0 1 6 -4c0,0 0,0 0,0 0,0 0,-1 0,-1l5 1c4,0 31,-17 31,-19 0,-1 -1,-2 -1,-2 0,-1 -1,-2 -1,-2 0,-1 0,-1 0,-1 0,0 0,-1 0,-3 0,0 0,-1 -1,-2 0,-1 0,-2 -1,-2 0,0 -2,0 -5,1 -6,2 -16,5 -16,5 0,-1 20,-14 20,-14 0,0 0,-1 0,-2 0,-1 -1,-1 -1,-2 -1,-1 -31,13 -32,13 2,-5 3,-10 1,-16 0,0 0,0 0,0 0,0 0,-1 -1,-1 0,0 0,0 0,0 -2,1 -4,3 -4,4 -1,2 -1,4 -2,6 -1,3 -3,6 -5,9 -4,5 0,16 0,16 0,0 -1,0 -2,1z"/>
         <g>
          <g>
           <path class="fil18" d="M258 430c-1,1 -1,1 -2,1 -3,2 -7,3 -9,3 -2,1 -4,1 -4,1 0,0 2,-1 4,-2 2,-1 5,-3 8,-4 1,0 2,-1 2,-1 1,1 1,2 1,2z"/>
          </g>
          <g>
           <path class="fil18" d="M259 436c-5,2 -10,3 -10,3 0,0 4,-3 9,-5 0,0 1,1 1,2z"/>
          </g>
         </g>
        </g>
        <path class="fil21" d="M91 469c0,0 5,60 35,45 38,-13 75,-40 92,-53l6 -4c-1,0 -3,2 -6,3 -22,13 -92,54 -103,50 -10,-3 -15,-28 -17,-41l-7 0z"/>
       </g>
      </g>
      <g>
       <g>
        <path class="fil31" d="M297 764c0,-1 -1,-3 -3,-4 -5,-2 -26,-10 -31,-14 -5,-4 -9,-11 -10,-14l-38 2c-2,10 -4,28 -4,32l86 -2z"/>
       </g>
       <polygon class="fil11" points="297,773 211,775 211,766 297,764 "/>
       <g>
        <path class="fil11" d="M255 748c0,0 0,0 0,1 0,0 0,1 1,2 0,0 1,0 1,0 2,0 4,-1 6,-2 1,-1 3,-2 4,-4 1,-2 0,-4 -2,-3 -4,1 -8,3 -10,6z"/>
        <path class="fil11" d="M262 753c0,0 0,0 0,0 -1,1 -1,2 0,2 1,0 1,0 2,0 2,0 3,-1 5,-2 2,-1 4,-2 5,-4 1,-2 -1,-3 -3,-3 -3,1 -7,4 -9,7z"/>
        <path class="fil11" d="M270 755c0,1 0,1 0,1 -1,0 -1,2 0,2 1,0 1,0 2,0 2,0 4,-1 5,-2 2,-1 4,-2 5,-4 1,-2 -1,-4 -3,-3 -3,1 -7,3 -9,6z"/>
       </g>
      </g>
      <g>
       <g>
        <path class="fil31" d="M366 717c-1,-1 -2,-3 -4,-3 -6,-2 -27,-5 -34,-8 -5,-3 -10,-9 -12,-12l-37 10c0,10 2,28 3,32l84 -19z"/>
       </g>
       <polygon class="fil11" points="368,725 284,744 282,736 366,717 "/>
       <g>
        <path class="fil11" d="M322 710c0,0 0,0 0,0 -1,1 -1,2 0,2 1,0 2,0 2,0 2,-1 3,-2 5,-3 1,-2 3,-3 4,-5 0,-2 -2,-3 -3,-2 -4,1 -7,4 -8,8z"/>
        <path class="fil11" d="M329 713c0,0 0,0 0,0 0,1 0,2 1,2 0,0 1,0 1,0 2,-1 4,-2 5,-3 2,-2 3,-3 4,-5 1,-2 -1,-3 -3,-2 -3,1 -7,4 -8,8z"/>
        <path class="fil11" d="M338 714c-1,0 -1,0 -1,0 0,1 0,2 1,3 1,0 1,-1 2,-1 2,-1 3,-2 5,-3 1,-1 3,-3 3,-5 1,-2 -1,-3 -3,-2 -3,1 -6,5 -7,8z"/>
       </g>
      </g>
      <path class="fil12" d="M116 313l8 6 0 -18 15 -4 4 -11 2 10 19 1 5 -9 0 11 17 4c0,0 2,-34 -25,-33 -27,1 -45,12 -45,12l-5 17 5 14z"/>
      <path class="fil17" d="M175 291c0,-6 -3,-12 -7,-16 0,4 -2,9 -6,12 -4,2 -9,3 -13,1 0,-5 -2,-11 -4,-15 -3,9 -10,17 -19,21 -5,2 -10,3 -15,5l0 0 5 -17c0,0 18,-11 45,-12 17,-1 22,13 24,22 -3,0 -7,0 -10,-1z"/>
      <path class="fil32" d="M183 280c-1,1 -1,2 -2,3 -5,-8 -13,-15 -22,-18 -1,3 -2,7 -3,10 -3,-5 -8,-8 -14,-8 -4,10 -14,18 -25,20 1,-2 2,-5 2,-8 -9,5 -16,13 -18,23 -2,11 0,22 -3,32 -3,9 -10,16 -16,23 -3,4 -6,9 -7,13 0,-2 1,-4 2,-7 4,-12 16,-20 18,-33 2,-9 -1,-18 0,-27 1,-29 34,-47 60,-43 11,2 22,9 27,19 0,0 0,1 1,1z"/>
     </g>
     <g>
      <path class="fil33" d="M211 530c-3,0 -6,2 -7,5l-33 228c-1,3 2,6 5,7l7 1c3,0 6,-2 7,-5l33 -228c0,-3 -2,-6 -5,-7l-7 -1z"/>
      <path class="fil33" d="M475 530c3,0 6,2 6,5l34 228c0,3 -2,6 -5,7l-7 1c-4,0 -7,-2 -7,-5l-33 -228c-1,-3 1,-6 5,-7l7 -1z"/>
      <g>
       <path class="fil10" d="M492 534c0,2 -2,5 -5,5l-290 0c-3,0 -5,-3 -5,-5l0 -13c0,-3 2,-5 5,-5l290 0c3,0 5,2 5,5l0 13z"/>
      </g>
     </g>
     <g>
      <g>
       <path class="fil34" d="M309 473l-31 0c-3,0 -5,3 -5,6l0 31c0,3 2,5 5,5l31 0c3,0 6,-2 6,-5l0 -31c0,-3 -3,-6 -6,-6z"/>
       <path class="fil4" d="M306 478l-25 0c-2,0 -4,2 -4,4l0 25c0,2 2,4 4,4l25 0c2,0 4,-2 4,-4l0 -25c0,-2 -2,-4 -4,-4z"/>
       <polygon class="fil35" points="302,503 302,498 293,498 293,483 286,483 286,503 "/>
      </g>
      <g>
       <path class="fil3" d="M357 473l-32 0c-3,0 -5,3 -5,6l0 31c0,3 2,5 5,5l32 0c3,0 5,-2 5,-5l0 -31c0,-3 -2,-6 -5,-6z"/>
       <path class="fil4" d="M353 478l-24 0c-3,0 -5,2 -5,4l0 25c0,2 2,4 5,4l24 0c3,0 5,-2 5,-4l0 -25c0,-2 -2,-4 -5,-4z"/>
       <polygon class="fil36" points="345,503 345,488 351,488 351,483 332,483 332,488 338,488 338,503 "/>
      </g>
      <g>
       <path class="fil14" d="M404 473l-32 0c-3,0 -5,3 -5,6l0 31c0,3 2,5 5,5l32 0c3,0 5,-2 5,-5l0 -31c0,-3 -2,-6 -5,-6z"/>
       <path class="fil4" d="M400 478l-24 0c-3,0 -5,2 -5,4l0 25c0,2 2,4 5,4l24 0c3,0 5,-2 5,-4l0 -25c0,-2 -2,-4 -5,-4z"/>
       <polygon class="fil37" points="392,490 386,490 386,483 379,483 379,503 386,503 386,496 392,496 392,503 399,503 399,483 392,483 "/>
      </g>
      <g>
       <path class="fil14" d="M333 431l-32 0c-3,0 -5,3 -5,6l0 31c0,3 2,5 5,5l32 0c3,0 5,-2 5,-5l0 -31c0,-3 -2,-6 -5,-6z"/>
       <path class="fil4" d="M329 436l-24 0c-3,0 -5,2 -5,4l0 25c0,2 2,4 5,4l24 0c3,0 5,-2 5,-4l0 -25c0,-2 -2,-4 -5,-4z"/>
       <polygon class="fil37" points="315,453 323,453 323,449 315,449 315,446 324,446 324,441 308,441 308,461 325,461 325,456 315,456 "/>
      </g>
      <g>
       <path class="fil38" d="M383 431l-32 0c-3,0 -5,3 -5,6l0 31c0,3 2,5 5,5l32 0c3,0 5,-2 5,-5l0 -31c0,-3 -2,-6 -5,-6z"/>
       <path class="fil4" d="M379 436l-24 0c-3,0 -5,2 -5,4l0 25c0,2 2,4 5,4l24 0c3,0 5,-2 5,-4l0 -25c0,-2 -2,-4 -5,-4z"/>
       <path class="fil39" d="M380 461l-9 -20 -7 0 -8 20 6 0 2 -3 7 0 2 3 7 0zm-12 -13l2 5 -4 0 2 -5z"/>
      </g>
      <g>
       <path class="fil38" d="M209 479l0 31c0,3 2,5 5,5l32 0c3,0 5,-2 5,-5l0 -31c0,-3 -2,-6 -5,-6l-32 0c-3,0 -5,3 -5,6z"/>
       <path class="fil4" d="M213 482l0 25c0,2 2,4 5,4l24 0c3,0 5,-2 5,-4l0 -25c0,-2 -2,-4 -5,-4l-24 0c-3,0 -5,2 -5,4z"/>
       <path class="fil39" d="M230 486c-1,-2 -2,-3 -4,-3 -3,0 -5,3 -5,8l0 11 20 0 0 -11c0,-6 -2,-9 -6,-9 -2,0 -4,1 -5,4zm-5 6c0,-1 1,-2 2,-2 1,0 1,1 1,2l0 3 -3 0 0 -3zm11 3l-3 0 0 -4c0,-1 0,-2 1,-2 1,0 2,1 2,2l0 4z"/>
      </g>
      <g>
       <g>
        <path class="fil40" d="M357 389l-32 0c-3,0 -5,2 -5,5l0 32c0,3 2,5 5,5l32 0c3,0 5,-2 5,-5l0 -32c0,-3 -2,-5 -5,-5z"/>
       </g>
       <path class="fil4" d="M353 393l-24 0c-3,0 -5,2 -5,5l0 24c0,3 2,5 5,5l24 0c3,0 5,-2 5,-5l0 -24c0,-3 -2,-5 -5,-5z"/>
       <g>
        <polygon class="fil41" points="345,406 338,406 338,399 332,399 332,419 338,419 338,412 345,412 345,419 351,419 351,399 345,399 "/>
       </g>
       <polygon class="fil35" points="302,503 302,498 293,498 293,483 286,483 286,503 "/>
      </g>
     </g>
    </g>
   </g>
  </g>
  <path class="fil2" d="M72 0l474 0c40,0 72,32 72,72l0 597c0,39 -32,72 -72,72l-474 0c-40,0 -72,-33 -72,-72l0 -597c0,-40 32,-72 72,-72z"/>
  <path class="fil42" d="M269 115l-4 -10 -15 0 -4 10 -9 0 15 -39c0,-2 2,-3 5,-3 3,0 5,1 6,3l14 39 -8 0zm-17 -17l11 0 -6 -16 -5 16z"/>
  <path id="1" class="fil42" d="M293 115l0 -39c0,-1 0,-1 1,-2 1,-1 2,-1 3,-1l14 0c4,0 7,1 9,3 3,2 4,5 4,8 0,2 0,4 -2,5 -1,2 -2,3 -3,3l0 1c2,0 4,1 5,3 1,2 2,4 2,7 0,4 -1,7 -4,9 -2,2 -5,3 -9,3l-20 0zm8 -25l9 0c2,0 3,-1 4,-1 1,-1 2,-3 2,-4 0,-2 -1,-3 -2,-4 -1,-1 -3,-1 -5,-1l-8 0 0 10zm0 18l9 0c2,0 4,0 5,-1 2,-1 2,-3 2,-4 0,-2 0,-4 -2,-5 -1,-1 -3,-1 -5,-1l-9 0 0 11z"/>
  <path id="2" class="fil42" d="M370 115l-4 -10 -15 0 -4 10 -9 0 15 -39c0,-2 2,-3 5,-3 3,0 5,1 6,3l14 39 -8 0zm-17 -17l11 0 -6 -16 -5 16z"/>
  <polygon id="3" class="fil42" points="176,128 176,135 164,135 164,170 156,170 156,135 144,135 144,128 "/>
  <polygon id="4" class="fil42" points="193,170 193,128 202,128 202,145 219,145 219,128 228,128 228,170 219,170 219,153 202,153 202,170 "/>
  <path id="5" class="fil42" d="M276 135l-20 0 0 10 18 0 0 7 -18 0 0 11 19 0 0 7 -27 0 0 -39c0,-1 0,-1 1,-2 1,-1 1,-1 2,-1l25 0 0 7z"/>
  <path id="6" class="fil42" d="M316 170l-10 -16 -4 0 0 16 -8 0 0 -39c0,-1 0,-1 1,-2 1,-1 1,-1 2,-1l13 0c5,0 8,1 11,4 2,2 3,5 3,9 0,7 -3,11 -9,13l10 16 -9 0zm-14 -35l0 13 7 0c4,0 7,-3 7,-7 0,-2 -1,-3 -2,-4 -1,-1 -3,-2 -5,-2l-7 0z"/>
  <path id="7" class="fil42" d="M370 170l-4 -10 -15 0 -4 10 -8 0 14 -39c1,-2 3,-3 6,-3 3,0 5,1 5,3l15 39 -9 0zm-17 -17l11 0 -5 -16 -6 16z"/>
  <path id="8" class="fil42" d="M411 128c4,0 8,1 10,4 3,3 4,6 4,10 0,4 -1,8 -4,10 -2,3 -6,4 -11,4l-7 0 0 14 -9 0 0 -39c0,-1 1,-1 1,-2 1,-1 2,-1 3,-1l13 0zm-1 21c4,0 7,-3 7,-7 0,-2 -1,-4 -2,-5 -1,-1 -3,-2 -5,-2l-7 0 0 14 7 0z"/>
  <polygon id="9" class="fil42" points="474,128 460,155 460,170 451,170 451,155 437,128 446,128 455,147 465,128 "/>
 </g>
</svg>
