<?xml version="1.0" encoding="UTF-8"?>
<svg id="Layer_1" xmlns="http://www.w3.org/2000/svg" version="1.1" xmlns:xlink="http://www.w3.org/1999/xlink" viewBox="0 0 1080 1080">
  <!-- Generator: Adobe Illustrator 29.4.0, SVG Export Plug-In . SVG Version: 2.1.0 Build 152)  -->
  <defs>
    <style>
      .st0 {
        clip-rule: evenodd;
        fill: none;
      }

      .st1 {
        fill: url(#linear-gradient);
      }

      .st2 {
        clip-path: url(#clippath);
      }
    </style>
    <clipPath id="clippath">
      <path class="st0" d="M637.98,293.2c-9.42,0-15.54-13.18-20.61-19.92-2.97-3.96-5.32-7.06-8.17-10.91-12.38-16.82-20.51-4.32-35.6,6.99-2.28,1.7-9.46,7.65-11.69,8.63-7.81,3.48-113.53-18.51-184.81,91.73-1.91,2.95-2.45,4.47-4.19,7.73-1.75,3.27-2.83,4.43-4.41,7.52-2.33,4.54-4.68,10.6-6.79,15.86-2.46,6.16-4.08,11.01-5.81,18.02-3.34,13.45-6.44,24.94-6.44,41.26-16.53,0-13.69,12.28-20.27,40.53l-23.49-15.86c-14.43-10.92-21.06,2.58-31.65,13.18-19.22,19.23-25.4,17.51-9.73,40.13,4.02,5.79,7.45,10.58,11.22,16.2-49.22,11.47-40.54-1-40.54,58.42,0,12.05,23.43,12.71,40.54,16.69-3.46,5.16-6.78,10.6-10.55,15.68-10.24,13.79-14.47,17.22-1.67,29.92,35.45,35.21,23.47,36.44,65.87,8.05,11.47,49.21-1,40.53,58.42,40.53,12.01,0,12.95-24.48,16.69-40.53,6.88,4.6,25.8,20.27,33.38,20.27,8.06,0,16.54-13.79,22.65-17.89,0,35.96-2.49,47.95,20.26,63.2,0,32.55-7.03,68.75,13.77,86.38,5.29,4.48,14.22,10.19,23.19,10.19h47.7c16.61,0,32.48-15.29,36.09-30.68,2.45-10.47.87-50.95.87-65.89,31.42-21.04,15.55-39.6,21.22-80.12,3.15-22.44,16.15-32.03,32.2-42.92l14.53-11.69c-1.67-2.5-11.95-13.93-14.3-15.5-19.6,17.04-40.27,25.78-49.92,52.61-6.91,19.2.16,58.37-6.13,71.37-2.21,4.54-8.9,10.75-15.49,10.75h-83.46c-15.34,0-20.38-12.73-20.3-28.59.07-15.79,1.8-34.8-1.67-48.4-6.33-24.85-20.62-33.88-38.66-47.18-11.86-8.76-23.01-18.16-32.21-29.79-7.34-9.28-14.43-18.81-20.04-30.03-33.96-67.88-21.4-143.99,28.51-198.44,12.13-13.23,32.01-26.65,47.79-34.48,19.95-9.89,48.24-17.07,74.73-17.07,0,14.58,27.42,34.87,27.42,45.3,0,18.93-35.22,4.78-52.46,4.78-13.2,0-11.86,21.32-13.05,29.87-7.44,53.64-14.57,48.9,39.4,55.84,16.08,2.07,14.08,13.5,3.99,20.93-4.09,3.02-6.92,5.14-10.92,8.16-11.83,8.88-27.93,16.36-16.89,30.52l27.62,36.76c9.33,12.43,12.95,17.33,27.26,6.48,15.38-11.68,33.16-30.34,40.45-15.71,2.69,5.39-2.8,32.22-3.9,39.18-3.39,21.77,15.23,18.69,37.13,21.73,23.45,3.25,40.12,10.7,43.36-6.84,2.83-15.29,1.56-45.69,15.13-45.69,7.52,0,22.31,23.36,27.24,29.98,14.27,19.15,18.43,8.49,47.7-13.46,34.12-25.59,28.65-20.9,2.89-55.01-3.06-4.05-6.29-7.16-6.29-12.78,0-17.5,33.13-3.57,52.45-3.57,12.13,0,11.55-23.02,12.75-31.36,6.7-46.32,13.3-47.25-22.23-52.17-9.26-1.29-28.67-.51-28.67-13.05,0-8.09,13.72-15.06,19.76-19.59,4.06-3.05,6.88-5.2,10.91-8.17,16.93-12.51,6.34-18.66-12.1-43.27-23.79-31.73-18.68-35.9-47.01-14.65-8.72,6.54-15.14,14.13-25.2,14.13-14.31,0-2.39-36.46-2.39-52.45,0-7.31-5.09-8.69-11.7-9.77-6.12-.98-12.82-1.8-19.81-2.84-53.25-7.84-45.38-15.27-54.09,40.26-1.01,6.43-2.64,10.49-9.77,10.49M707.13,299.16c0,2.61,1.86,8.99,2.83,11.48,1.88,4.85,3.08,5.85,6.37,9.13,14.36,14.35,30.08,10.6,44.64-.16,3.82-2.81,15.3-12.33,18.88-13.3,2.32,1.7,4.15,4.77,5.95,7.16l17.9,23.84-22.38,16.96c-13.69,11.07-17.86,28-8.15,42.19,3.02,4.41,7.15,8.06,12.19,10.47,5.37,2.58,29.79,6.69,37.42,6.69,0,13.71-4.77,26.73-4.77,39.35-11.97,0-19.69-3.57-36.96-3.57-13.71,0-42.24,21.1-17.72,53.48,4.91,6.49,9.68,12.59,14.14,19.24-10.29,5.45-27.17,22.13-33.38,22.65-.89-3.32-11.86-17.21-14.79-20.98-15.54-20.01-52.88-23.01-57.84,22.27-.7,6.3-2.35,13.33-2.48,18.98-4.01-.09-11.29-1.54-14.67-2.03-30.71-4.44-25.56,2.28-21.58-25.88,1.73-12.2,1.38-20.41-4.24-28.17-8.05-11.11-16.06-13.07-28.66-13.07-14.63,0-29.59,20.05-39.34,22.66-7.18-10.72-15.48-20.29-22.65-31,2.01-2.74,11.07-8.9,14.65-11.58,4.92-3.69,11.28-7.75,14.68-12.74,8.61-12.66,7.61-28.02-2.17-38.6-9.79-10.59-23.62-11.05-40.59-13.09-8.71-1.05-6.84.81-4.38-16.92,1.02-7.35,2.91-16.72,3.52-23.91,3.08,1.48,28.87,4.77,34.57,4.77,15.95,0,31.21-16.28,29.37-32.93-1.78-16.14-16.85-27.41-23.41-39.8,5.14-3.45,10.48-7.86,15.67-11.75,5.66-4.25,10.74-8.23,16.53-12.1.95,3.59,5.2,8.13,7.66,11.42,9.52,12.7,15.88,24.34,35.26,24.34,11.1,0,21.52-7.67,26.26-17.85,4.47-9.62,4.42-25.38,7.13-36.99,13.19,0,26.16,4.77,39.34,4.77-.87,10.45-4.76,24.07-4.76,34.57ZM279.11,522.11l17.59-18.17c5.43,3.73,9.7,6.98,15.07,10.55,5.19,3.46,9.53,7.62,17.41,7.62,12.86,0,20.45-9.31,21.46-21.46.15.26.31.39.35.83l.66,1.73c.08.26.19.62.28.92,1.81,6.67,3.72,20.55,7.06,27.52-26.11.58-53.65,27.27-53.65,61.99,0,40.33,47.27,77.94,93.83,49.72,3.19-1.93,9.71-6.89,11.95-9.51,3.25-3.8,6.37-8.46,8.66-12.79,4.2,1.12,26.14,16.83,30.5,23.15,14.79,21.42-1.39,16.73-13.81,35.27-7.46-4.99-23.36-17.88-32.18-17.88-29.43,0-19.06,41.73-28.61,41.73-31.33,0-17.35,2.43-26.32-26.15-2.71-8.62-8.82-15.58-20.18-15.58-8.53,0-22.86,11.63-32.19,17.88l-18.18-17.6c6.25-9.07,18.18-23.99,18.18-32.48,0-28.78-41.73-19.18-41.73-28.61,0-29.12-4-17.98,26.28-26.19,8.01-2.17,15.45-9.55,15.45-19.12s-11.66-24.09-17.89-33.39ZM326.8,593.65c0-25.23,16.97-41.73,40.54-41.73,1.53,6.58,12.26,22.61,16.44,28.86,7.61,11.37,18.29,21.46,20.52,24.78-7.28,13.75-16.83,26.23-36.96,26.23-22.49,0-40.54-17.53-40.54-38.15ZM500.87,754.6h81.07v19.08h-81.07v-19.08ZM589.09,411.24c0,86.84,116.23,114.47,155.02,35.79,9.49-19.23,10.39-43.83,1.87-65.11-3.68-9.19-9.5-18.28-15.89-24.64-7.78-7.74-11.94-11.65-22.17-17.17-30.46-16.49-73.36-9.25-95.91,15.38-13.58,14.83-22.93,34.59-22.93,55.76ZM610.56,417.2c0-19.1,3.63-34.98,18.13-48.62,4.62-4.33,11.03-8.42,17.21-11.41,57.55-27.86,115.43,49.09,67.51,97.32-9.66,9.71-22.59,17.28-41.36,17.9-14.75.48-20.98-2.53-32.92-8.65-12.98-6.66-28.57-28.3-28.57-46.54ZM399.52,467.27c0,48.38,17.67,82.49,50.98,112.35,6.86,6.15,15.29,10.8,23.61,15.73,17.03,10.1,30.03,8.55,46.33,32.36,6.95,10.15,10.23,21.35,10.23,35.08h21.46c0-6.42-2.31-20.29-4.11-25.7-1.14-3.43-2.86-7.52-4.07-10.24-1.74-3.88-3.39-6.17-5.6-9.9-18-30.37-45.73-31.42-70.89-50.71l-25.69-26.77c-28.57-41.37-29.21-98.96,3.22-142.39,3.98-5.33,9.15-11.37,14.32-15.49,4.16-3.31,12.66-11.93,17.71-13.28l-10.73-17.88c-3.7.99-3.24,1.61-6.69,4.04-10.46,7.37-9.31,6.6-18.64,15.93-23.99,23.99-41.43,58.2-41.43,96.87ZM262.42,307.51l62.24,43.88c3.73,2.56,5.38,4.11,9.3,6.19.88-3.32,7.84-12.38,10.72-16.69-2.03-2.78-13.18-10.33-16.92-12.88l-54.61-38.39c-4.39,8.3-9.26,11.57-10.73,17.88ZM348.26,239.55l15.5,59.61c1.39,5.59,4.63,15.6,4.76,21.46,4.88,0,18.3-3.25,21.46-4.77-3.28-6.84-18.22-74.32-21.46-81.07-5.9.49-14.41,3.4-20.26,4.77ZM245.72,408.85c0,8.51,3.41,12.42,3.58,20.27,7.29,0,50.66-11.77,60.81-14.3,5.58-1.4,15.59-4.64,21.46-4.77-.49-5.9-3.4-14.41-4.77-20.27-5.68.13-15.53,3.29-20.5,4.53-9.35,2.33-54.83,14.42-60.57,14.55ZM717.86,680.68c2.68,4.01,45.65,38.87,52.83,44.94,2.36,1.99,5.83,4.89,7.97,6.32,4.09-6.09,10.76-12.3,11.93-16.69-1.33-1.8-4.7-4.33-6.88-6.22l-52.73-43.85c-4.04,2.71-4.07,3.71-6.99,7.32-3.21,3.98-3.49,3.19-6.12,8.18ZM733.35,633h71.54v-21.46h-71.54v21.46ZM672.55,764.14h21.46v-71.53h-21.46v71.53ZM530.67,710.49c0,2.75.83,3.57,3.57,3.57h17.89v-30.99h-21.46v27.42ZM500.87,798.71v-3.57h81.07c0,15.23-.68,29.8-26.23,29.8-31.51,0-54.84,5.28-54.84-26.23Z"/>
    </clipPath>
    <linearGradient id="linear-gradient" x1="179.92" y1="743.83" x2="560.32" y2="524.46" gradientUnits="userSpaceOnUse">
      <stop offset="0" stop-color="#572d90"/>
      <stop offset="1" stop-color="#d22f92"/>
    </linearGradient>
  </defs>
  <g class="st2">
    <rect class="st1" x="226.31" y="227.18" width="627.28" height="618.04"/>
  </g>
</svg>