<svg xmlns="http://www.w3.org/2000/svg" xmlns:xlink="http://www.w3.org/1999/xlink" width="1080" zoomAndPan="magnify" viewBox="0 0 810 809.999993" height="1080" preserveAspectRatio="xMidYMid meet" version="1.0"><defs><clipPath id="17188c33ae"><path d="M 449.453125 319 L 492 319 L 492 362 L 449.453125 362 Z M 449.453125 319 " clip-rule="nonzero"/></clipPath><clipPath id="b8f42da8f2"><path d="M 491.378906 343.585938 C 489.695312 355.046875 479.039062 362.957031 467.582031 361.273438 C 456.121094 359.585938 448.210938 348.933594 449.894531 337.476562 C 451.582031 326.015625 462.234375 318.105469 473.691406 319.789062 C 485.152344 321.472656 493.0625 332.128906 491.378906 343.585938 " clip-rule="nonzero"/></clipPath><clipPath id="a6455c0b43"><path d="M 375 245 L 425.394531 245 L 425.394531 295.523438 L 375 295.523438 Z M 375 245 " clip-rule="nonzero"/></clipPath><clipPath id="8336084115"><path d="M 400.105469 295.34375 C 386.3125 295.34375 375.09375 284.125 375.09375 270.320312 C 375.09375 256.519531 386.3125 245.300781 400.105469 245.300781 C 413.898438 245.300781 425.113281 256.527344 425.113281 270.320312 C 425.113281 284.113281 413.898438 295.34375 400.105469 295.34375 " clip-rule="nonzero"/></clipPath><clipPath id="4017c14e81"><path d="M 400 243.226562 L 462 243.226562 L 462 412 L 400 412 Z M 400 243.226562 " clip-rule="nonzero"/></clipPath><clipPath id="c44126988a"><path d="M 400.105469 304.394531 C 403.890625 304.625 418.984375 305.085938 431.863281 294.265625 C 441.355469 286.289062 444.871094 276.214844 446.140625 271.316406 C 450.167969 255.722656 443.984375 244.035156 445.992188 243.289062 C 448.441406 242.390625 462.285156 258.191406 461.753906 276.695312 C 461.15625 297.707031 444.675781 309.25 430.976562 326.613281 C 417.945312 343.125 403.914062 369.351562 400.105469 411.785156 " clip-rule="nonzero"/></clipPath><clipPath id="e82d7c098f"><path d="M 338 243.226562 L 400.292969 243.226562 L 400.292969 412 L 338 412 Z M 338 243.226562 " clip-rule="nonzero"/></clipPath><clipPath id="d8b161fe2a"><path d="M 400.105469 304.394531 C 396.316406 304.625 381.226562 305.085938 368.34375 294.265625 C 358.851562 286.289062 355.335938 276.214844 354.070312 271.316406 C 350.039062 255.722656 356.222656 244.035156 354.214844 243.289062 C 351.765625 242.390625 337.921875 258.191406 338.457031 276.695312 C 339.050781 297.707031 355.535156 309.25 369.234375 326.613281 C 382.261719 343.125 396.292969 369.351562 400.105469 411.785156 " clip-rule="nonzero"/></clipPath><clipPath id="a745eaf338"><path d="M 409 329 L 514 329 L 514 414 L 409 414 Z M 409 329 " clip-rule="nonzero"/></clipPath><clipPath id="d0ef240181"><path d="M 443.535156 330.105469 C 445.960938 331.4375 440.207031 340.113281 444.109375 351.078125 C 447.449219 360.433594 455.609375 365.28125 458.226562 366.683594 C 471.222656 373.609375 484.722656 368.523438 487.496094 367.476562 C 505.445312 360.71875 512.695312 342.863281 513.828125 343.566406 C 515.070312 344.339844 508.101562 367.363281 488.300781 386.042969 C 465.699219 407.371094 427.5 421.96875 414.492188 409.136719 C 402.554688 397.367188 415.824219 366.410156 418.136719 361.03125 C 426.214844 342.203125 440.257812 328.316406 443.535156 330.117188 " clip-rule="nonzero"/></clipPath><clipPath id="347c947c97"><path d="M 308.253906 319 L 351 319 L 351 362 L 308.253906 362 Z M 308.253906 319 " clip-rule="nonzero"/></clipPath><clipPath id="83e39f56d5"><path d="M 308.828125 343.585938 C 310.515625 355.046875 321.167969 362.957031 332.625 361.273438 C 344.085938 359.585938 351.996094 348.933594 350.3125 337.476562 C 348.628906 326.015625 337.972656 318.105469 326.515625 319.789062 C 315.054688 321.472656 307.144531 332.128906 308.828125 343.585938 " clip-rule="nonzero"/></clipPath><clipPath id="4d8cd3b678"><path d="M 286 329 L 390.878906 329 L 390.878906 414 L 286 414 Z M 286 329 " clip-rule="nonzero"/></clipPath><clipPath id="ab903f2b2f"><path d="M 356.683594 330.105469 C 354.257812 331.4375 360.011719 340.113281 356.109375 351.078125 C 352.769531 360.433594 344.609375 365.28125 341.992188 366.683594 C 328.984375 373.609375 315.496094 368.523438 312.722656 367.476562 C 294.773438 360.71875 287.523438 342.863281 286.390625 343.566406 C 285.148438 344.339844 292.117188 367.363281 311.917969 386.042969 C 334.519531 407.371094 372.71875 421.96875 385.726562 409.136719 C 397.664062 397.367188 384.394531 366.410156 382.082031 361.03125 C 374.003906 342.203125 359.960938 328.316406 356.683594 330.117188 " clip-rule="nonzero"/></clipPath><clipPath id="bd56e89ad3"><path d="M 118.941406 57.054688 L 382 57.054688 L 382 754 L 118.941406 754 Z M 118.941406 57.054688 " clip-rule="nonzero"/></clipPath><clipPath id="6b39e90b2a"><path d="M 381.769531 187.136719 C 381.769531 187.136719 349.871094 27.714844 223.164062 62.824219 C 90.636719 99.542969 115.289062 236.855469 133.582031 270.332031 C 193.828125 380.601562 402.5625 464.632812 358.203125 573.257812 C 358.203125 573.257812 342.378906 621.261719 306.863281 601.265625 C 283.628906 588.191406 272.808594 573.300781 268.109375 564.574219 C 267.21875 562.929688 264.730469 563.707031 264.949219 565.558594 C 266.121094 575.46875 271.3125 592.578125 291.476562 609.082031 C 293.425781 610.671875 295.582031 611.980469 297.820312 613.109375 C 303.605469 616.019531 316.449219 624.359375 316.1875 640.863281 C 315.871094 660.703125 319.042969 722.3125 260.597656 751.507812 C 259.152344 752.230469 260.050781 754.417969 261.578125 753.894531 C 279.316406 747.910156 309.363281 731.773438 331.078125 688.75 L 333.371094 683.464844 C 334.101562 681.625 335.714844 679.40625 338.558594 684.011719 C 344.242188 693.207031 348.773438 700.890625 332.980469 741.859375 C 332.980469 741.859375 332.917969 749.332031 338.351562 741.210938 C 343.78125 733.089844 366.648438 710.339844 348.367188 646.871094 C 348.367188 646.871094 345.089844 629.769531 361.238281 590.539062 C 385.902344 530.605469 396.753906 496.898438 245.316406 327.511719 C 93.878906 158.125 238.210938 110.21875 250.65625 107.277344 C 263.097656 104.335938 349.222656 82.675781 381.757812 187.144531 " clip-rule="nonzero"/></clipPath><clipPath id="9e5eb0a102"><path d="M 415 56.007812 L 691.058594 56.007812 L 691.058594 694 L 415 694 Z M 415 56.007812 " clip-rule="nonzero"/></clipPath><clipPath id="1d5d1476fd"><path d="M 416.835938 226.734375 C 416.835938 226.734375 392.914062 78.8125 532.371094 57.777344 C 658.136719 38.804688 717.035156 177.464844 680.230469 243.257812 C 660.953125 277.71875 629.964844 327.878906 550.109375 394.394531 C 470.25 460.910156 437.828125 491.519531 466.921875 552.140625 C 496.015625 612.765625 547.011719 524.136719 547.011719 524.136719 C 547.011719 524.136719 547.167969 541.238281 515.144531 576.074219 C 483.121094 610.914062 519.96875 627.574219 519.96875 627.574219 C 519.96875 627.574219 565.050781 645.425781 582.832031 643.050781 C 600.613281 640.675781 585.195312 662.546875 518.660156 643.78125 C 518.660156 643.78125 502.578125 636.101562 511.609375 651.453125 C 520.640625 666.804688 531.300781 682.136719 534.296875 685.203125 C 541.246094 692.308594 539.851562 696.148438 530.644531 690.195312 C 521.433594 684.238281 498.210938 671.722656 482.429688 635.140625 C 466.648438 598.554688 481.195312 597.339844 462.671875 564.710938 C 444.152344 532.082031 425.230469 483.082031 509.230469 389.171875 C 593.234375 295.257812 634.425781 220.183594 614.863281 164.195312 C 596.78125 112.4375 554.921875 80.464844 492.675781 102.671875 C 430.933594 124.703125 409.742188 207.910156 416.835938 226.734375 " clip-rule="nonzero"/></clipPath><clipPath id="125de5320e"><path d="M 303.023438 548 L 341.722656 548 L 341.722656 586.289062 L 303.023438 586.289062 Z M 303.023438 548 " clip-rule="nonzero"/></clipPath><clipPath id="ea740e00d5"><path d="M 341.5625 567.042969 C 341.5625 577.550781 333.042969 586.058594 322.546875 586.058594 C 312.050781 586.058594 303.535156 577.539062 303.535156 567.042969 C 303.535156 556.546875 312.050781 548.027344 322.546875 548.027344 C 333.042969 548.027344 341.5625 556.546875 341.5625 567.042969 " clip-rule="nonzero"/></clipPath><clipPath id="fa4f23015f"><path d="M 475.601562 518.304688 L 514 518.304688 L 514 557 L 475.601562 557 Z M 475.601562 518.304688 " clip-rule="nonzero"/></clipPath><clipPath id="d757119c7c"><path d="M 513.960938 537.59375 C 513.960938 548.101562 505.445312 556.609375 494.949219 556.609375 C 484.453125 556.609375 475.933594 548.089844 475.933594 537.59375 C 475.933594 527.097656 484.453125 518.582031 494.949219 518.582031 C 505.445312 518.582031 513.960938 527.097656 513.960938 537.59375 " clip-rule="nonzero"/></clipPath></defs><g clip-path="url(#17188c33ae)"><g clip-path="url(#b8f42da8f2)"><path fill="#e6d000" d="M 113.710938 50.777344 L 696.289062 50.777344 L 696.289062 758.867188 L 113.710938 758.867188 Z M 113.710938 50.777344 " fill-opacity="1" fill-rule="nonzero"/></g></g><g clip-path="url(#a6455c0b43)"><g clip-path="url(#8336084115)"><path fill="#ff6700" d="M 113.710938 50.777344 L 696.289062 50.777344 L 696.289062 758.867188 L 113.710938 758.867188 Z M 113.710938 50.777344 " fill-opacity="1" fill-rule="nonzero"/></g></g><g clip-path="url(#4017c14e81)"><g clip-path="url(#c44126988a)"><path fill="#ff6700" d="M 113.710938 50.777344 L 696.289062 50.777344 L 696.289062 758.867188 L 113.710938 758.867188 Z M 113.710938 50.777344 " fill-opacity="1" fill-rule="nonzero"/></g></g><g clip-path="url(#e82d7c098f)"><g clip-path="url(#d8b161fe2a)"><path fill="#ff6700" d="M 113.710938 50.777344 L 696.289062 50.777344 L 696.289062 758.867188 L 113.710938 758.867188 Z M 113.710938 50.777344 " fill-opacity="1" fill-rule="nonzero"/></g></g><g clip-path="url(#a745eaf338)"><g clip-path="url(#d0ef240181)"><path fill="#e6d000" d="M 113.710938 50.777344 L 696.289062 50.777344 L 696.289062 758.867188 L 113.710938 758.867188 Z M 113.710938 50.777344 " fill-opacity="1" fill-rule="nonzero"/></g></g><g clip-path="url(#347c947c97)"><g clip-path="url(#83e39f56d5)"><path fill="#00ca9d" d="M 113.710938 50.777344 L 696.289062 50.777344 L 696.289062 758.867188 L 113.710938 758.867188 Z M 113.710938 50.777344 " fill-opacity="1" fill-rule="nonzero"/></g></g><g clip-path="url(#4d8cd3b678)"><g clip-path="url(#ab903f2b2f)"><path fill="#00ca9d" d="M 113.710938 50.777344 L 696.289062 50.777344 L 696.289062 758.867188 L 113.710938 758.867188 Z M 113.710938 50.777344 " fill-opacity="1" fill-rule="nonzero"/></g></g><g clip-path="url(#bd56e89ad3)"><g clip-path="url(#6b39e90b2a)"><path fill="#54169c" d="M 113.710938 50.777344 L 696.289062 50.777344 L 696.289062 758.867188 L 113.710938 758.867188 Z M 113.710938 50.777344 " fill-opacity="1" fill-rule="nonzero"/></g></g><g clip-path="url(#9e5eb0a102)"><g clip-path="url(#1d5d1476fd)"><path fill="#da159b" d="M 113.710938 50.777344 L 696.289062 50.777344 L 696.289062 758.867188 L 113.710938 758.867188 Z M 113.710938 50.777344 " fill-opacity="1" fill-rule="nonzero"/></g></g><g clip-path="url(#125de5320e)"><g clip-path="url(#ea740e00d5)"><path fill="#54169c" d="M 113.710938 50.777344 L 696.289062 50.777344 L 696.289062 758.867188 L 113.710938 758.867188 Z M 113.710938 50.777344 " fill-opacity="1" fill-rule="nonzero"/></g></g><g clip-path="url(#fa4f23015f)"><g clip-path="url(#d757119c7c)"><path fill="#da159b" d="M 113.710938 50.777344 L 696.289062 50.777344 L 696.289062 758.867188 L 113.710938 758.867188 Z M 113.710938 50.777344 " fill-opacity="1" fill-rule="nonzero"/></g></g></svg>