<?xml version="1.0" encoding="UTF-8"?>
<svg id="Layer_1" xmlns="http://www.w3.org/2000/svg" version="1.1" viewBox="0 0 1080 1080">
  <!-- Generator: Adobe Illustrator 29.4.0, SVG Export Plug-In . SVG Version: 2.1.0 Build 152)  -->
  <defs>
    <style>
      .st0 {
        fill: #3b3829;
        fill-rule: evenodd;
      }
    </style>
  </defs>
  <path class="st0" d="M655.78,340.99c0,37.41-24.39,66.74-48.69,91.04-6.12,6.13-11.76,11.59-18.43,16.78l-19.81,15.41c-11.75,8.84-34.92,26.41-48.41,26.41-6.24,0-36.78-21.25-42.62-25.62-19.29-14.43-28.96-22.4-45.69-39.03-17.78-17.7-41.53-52.14-41.53-78.4,0-28.22,3.72-43.98,23.63-65.5,20.37-22.04,59.26-31.15,88.26-16.67,14.27,7.11,11.8,8.35,20.16,13.95,8.98-6.01,8.57-8.15,20.16-13.95,33.87-16.98,77.55-2.96,99.35,29.77,8.38,12.57,13.63,29.21,13.63,45.79M821.92,587.46c0,11.03-7.79,23.03-14.26,34.16l-30.11,59c-2.81,5.2-4.94,8.75-7.71,14.3l-38.15,74.09c-5.06,10.11-10.3,19.51-15.4,29.71-6.34,12.67-8.34,23.1-24.21,23.1-4.77,0-35.66-16.78-40.76-19.75-15.07-8.77-34.06-12.48-34.06-27.56,0-6.77,45.62-92.23,51.34-103.79l53.19-103.06c15.04-30.1,17.8-29.06,45.83-15.05,7.24,3.62,12.84,6.3,20.17,9.56,11.82,5.26,34.12,14.11,34.12,25.28ZM516.03,639.18h89.13c24.56,0,24.43-28.58,6.02-32.44-9.07-1.9-79.49-.58-98.5-.53-13.08.04-15.65-4.12-22.23-10.79l-34.95-32.16c4.61-19.79,29.38-39.62,50.61-39.62h149.65c10.08,0,29.74,17.88,39.61,23.12-1.06,4.48-20.24,40.47-24.21,48.41l-61.62,119.93c-1.94,3.89-10.68,23.12-14.31,23.12h-108.93c-29.76,0-55.35-17.14-72.94-38.19l-134.17-143.11c-5.13-5.54-8.39-8.03-13.12-14.39-26.73-35.83,18.75-88.01,59.61-58.51l73.98,70.17c5.2,5.22,9.66,8.54,14.85,13.75l44.03,41.8c5.1,4.71,9.14,9.72,14.3,14.3,10.21,9.09,24.22,15.14,43.18,15.14Z"/>
</svg>