<?xml version="1.0" encoding="UTF-8"?>
<svg id="Layer_1" xmlns="http://www.w3.org/2000/svg" version="1.1" viewBox="0 0 1080 1080">
  <!-- Generator: Adobe Illustrator 29.4.0, SVG Export Plug-In . SVG Version: 2.1.0 Build 152)  -->
  <defs>
    <style>
      .st0 {
        fill: #3b3829;
        fill-rule: evenodd;
      }
    </style>
  </defs>
  <path class="st0" d="M396.88,428.81c-23.55,5.48-10.22,52.74-.49,68.73,18.7,30.73,22.25,14.64,29.77,27.48,6.37,10.85,38.38,62.99,45.57,67.81l-12.51,38.13c-4.23,12.34-19.42,16.8-31.11,20.64-31.79,10.47-97.49,21.09-119.11,35.02-24.17,15.56-34.02,34.42-40.31,63.17l-8.32,43.41c0,16.41,13.32,28.62,29.72,28.62h499.81c15.78,0,29.72-12.12,29.72-27.52l-3.57-20.64c-10.87-53.55-16.91-82.66-77.42-99.83-24.64-7-100.22-20.24-115.27-36.66-3.23-3.52-18.47-27.19-19.53-31.13,7.25-10.82,15.77-16.24,31.89-42.98,8.67-14.39,32.87-51.95,37.32-63.96,5.41-14.57,8.54-39.05-9.76-40.57,0-6.03.98-6.46,1.13-12.08.14-4.34-.12-8.92-.07-13.29l1.14-26.38c0-27.64-6.26-52.62-24.46-73.51l-11.62-11.5c-32.98-29.01-95.16-40.91-142.64-18.84-4.7,2.19-5.98,2.69-10.3,5.11-25.04,14.09-42.99,33.26-50.34,61.95-4.44,17.32-2.84,41.13-2.84,62.12-1.48-1.08-7.71-7.85-7.71-9.91,0-49.79-4.26-78.17,41.58-115.85,38.76-31.85,102.98-38.01,147.06-16.64,35.48,17.2,57.54,41.59,65.79,81.74,5.29,25.8-7.55,61.76,12,61.76,4.35,0,8.8-5,8.8-9.91,0-38.86,3.36-55.87-14.31-91.38-22.24-44.73-75.33-73.76-124.4-73.76-34.67,0-46.96,2.24-77.54,14.93-32.68,13.56-64.5,47.67-74.39,81.92-4.23,14.65-7.21,65.6-3.29,73.78M445.33,526.79c10.08,6.76,18.85,17.14,35.59,26.07,15.26,8.14,59.28,22.23,74.09,12.06,6.14-4.21,7.81-16.24,2.87-22.98-4.11-5.63-14.66-6.5-24.53-6.39-12.85.15-15.75,3.41-20.87,11.06-7.18-.6-21.39-8.11-27.18-11.35-9.31-5.21-14.86-9.24-22.7-15.83-20.02-16.84-11.61-12.11-15.15-23.38-2.06-6.57-9.36-23.06-9.83-28.71l10.98,1.3-5.48-51.94c16.91-3.94,24.46-9.92,49.53-9.96,34.62-.05,66.7,13.53,99.55,19.4,15.88,2.84,37.56,5.27,53.48,1.57-3.27,14.04-6.6,28.79-9.9,42.93,7.96,1.86,17.36.35,25.33,2.2,5.59,11.66-6.41,30.27-12.05,39.7-12.69,21.18-29.21,49.38-43.61,68.68-31.35,42-82.49,43.91-113.61,12.46-12.73-12.87-26.29-32.76-35.85-48.93-2.09-3.54-3.43-5.3-5.51-8.8-1.92-3.24-4.25-5.77-5.15-9.16ZM533.39,660.01c-1.86,0-15.63-9.31-22.16-11.97-7.26-2.95-17.57-8.24-26.27-8.95-8.88,13.26-14.56,22.34-7.27,39.19,2.06,4.79,4.87,6.92,7.27,11.45,6.91-1.61,13.26-3.28,19.66-5.66l17.77-7.55c.38,16.83,7.65-2.27-1.57,30.36-1.91,6.78-3.47,12.06-5.41,18.8-1.98,6.83-3.47,12.13-5.36,18.87-1.42,5.05-4.79,14.39-5.26,20.05-7.55-8.69-31.28-70.09-33.46-76.64-2.32-6.99-4.48-14.88-5.91-21.62-2.69-12.69-3.95-10.85,1.21-21.36,3.02-6.13,13.42-35.03,13.94-41.12,11.5,7.7,14.45,16.68,42.25,23.8,16.97,4.36,32.7,2.78,48.44-2.46,14.38-4.78,12.49-6.03,22.7-11.43l20.92,33.02c2.6,3.53,4.15,3.31,3.82,8.19-.3,4.29-1.09,7.5-1.76,11.49-5.03,29.68-19.51,61.54-32.15,88.95l-3.32,6.59c-1.32,2.2-.55,1.11-1.82,2.58-.43-5.13-4.26-15.96-5.89-21.64-2.17-7.52-3.95-14.54-6.08-21.44l-9.2-31.49c-.71-4.32,1.37-4.56,1.37-11.31,10.77,5.71,21.83,10.1,35.22,13.22,8.52-12.71,15.41-9.06,15.41-30.82,0-10.06-8.9-18.89-13.21-25.33-19.61,9.42-26.44,8.27-50.56,22.18-2.59,1.5-9.23,2.05-13.29,2.05Z"/>
</svg>