<?xml version="1.0" encoding="UTF-8"?>
<svg id="Layer_1" xmlns="http://www.w3.org/2000/svg" version="1.1" viewBox="0 0 1080 1080">
  <!-- Generator: Adobe Illustrator 29.4.0, SVG Export Plug-In . SVG Version: 2.1.0 Build 152)  -->
  <defs>
    <style>
      .st0 {
        fill: #504153;
        fill-rule: evenodd;
      }
    </style>
  </defs>
  <path class="st0" d="M410.63,358.89c0,13.25-.53,17.07,1.6,30.27,1.36,8.35.65,6.48-4.25,11.77-12.02,12.99-15.42,60.99,7.08,74.65,6.4,3.87,6.35,1.19,9.41,8.22,11.91,27.36,16.06,30.42,33.02,51.66,5.92,7.42,20.25,18.65,27.9,23.85,47.82,32.47,87.78,19,128.34-14.95l11.95-12.76c14.08-17.44,20.36-26.14,29.83-47.78,4.64-10.59,9.33-3.64,17.9-16.22,10.38-15.27,11.31-51.63-.93-65.97-6.15-7.2-1.94-14.21-1.94-32.16,0-23.42-.05-39.81-13.15-59.76-7.81-11.9-18.16-19.57-33.45-24.17-15.13-4.57-12.51,1.79-21.99-6.24-29.13-24.7-84.1-27.28-120.94-12.33-14.05,5.7-23.26,10.9-34.3,19.8-20.19,16.3-36.09,44.09-36.09,72.12M422.4,434.17c0-6.98.98-14.55,5.53-19.18,4.15-4.22,8.7-7.96,12.29-12.4,5.3-6.52,15.44-22.99,16.28-33.11,7.7,3.69,39.14,7.06,51.74,7.06,38.49,0,67.72-8.82,99.96-25.89.33,14.72,13.14,33.37,21.98,43.88,5.98,7.12,8.81,9.96,16.99,15.94,7.1,5.19,10.42,9.42,10.42,22.51,0,30.55-13.76,19.1-21.98,35.64-1.79,3.6-2.39,6.1-4.27,9.86-12.22,24.44-22.93,39.42-45.3,57-30.47,23.95-60.72,22.68-91.43.51-11.37-8.21-20.41-17.88-28.88-28.73-8.66-11.05-14.69-23-20.64-37-6.28-14.81-18.44-10.62-21.09-22.43-.71-3.15-1.62-10.64-1.62-13.66ZM474.14,424.76c0,31.49,37.64,23.54,37.64,4.69,0-31.08-37.64-24.05-37.64-4.69ZM568.22,424.76c0,31.49,37.64,23.54,37.64,4.69,0-31.08-37.64-24.05-37.64-4.69ZM417.68,725.82c0,28.46,37.64,28.46,37.64,0,0-8.53-8.17-16.46-21.17-16.46-7.34,0-16.47,9.12-16.47,16.46ZM507.07,500.02c2.6,9.71,18.91,21.17,35.28,21.17,10.6,0,28.44-13.18,30.57-21.17-4.19-2.81-.81-2.63-6.31-1.76-3.49.56-4.65,1.32-8.64,2.1-32.79,6.41-44.61-6.5-50.9-.34ZM436.51,650.56c0,8.5,1.61,18.37,3.01,26.38,3.67,21.1,14.56,2.42,31.82,28.16,15.99,23.85,3.1,52.53-16.8,61.09-17.72,7.63-34.71,4.09-47.18-7.68-25.84-24.43-8-62.75,11.51-67.97-1.45-17.42-4.7-12.09-4.7-45.86,0-17.73,5.04-27.47,5.88-37.64-29.25,15.48-61.75,12-87.92,37.92-25.11,24.86-27.34,75.64-27.34,117.32,0,45.27,160.96,59.98,218.75,59.98,64.71,0,96.1-1.22,159.63-12.08,27.06-4.63,92.05-19.81,92.05-47.89,0-34.82-1.43-89.83-24.97-114.98-21.43-22.87-44.84-24.12-74.27-33.92-4.25-1.42-8.56-3.65-12.49-3.98,4.33,9,5.89,25.13,5.89,38.82,31.23,7.27,36.86,35.28,43.28,61.39,4.16,16.94,12.41,34.66-2.43,52.37-10.78,12.84-42.02,17.39-42.02.31s17.18-7.56,24.13-14.67c7.8-7.96,2.08-17.15-.87-28.58-2.67-10.42-6.86-30.6-12.15-38.41-9.21-13.61-29.08-13.42-38.38-.87-5.37,7.24-17.43,54.96-17.43,57.84,0,22.98,28.22,4.09,28.22,24.7,0,12.64-13.13,10.59-21.17,10.59-15.91,0-29.4-16.18-29.4-36.46,0-6.93,4.17-20.58,5.88-27.06,2.21-8.37,4.58-17.61,7.06-25.86,2.83-9.43,5.68-14.58,12.04-20.89,6.04-5.98,11.4-11.01,20.89-13.22,0-17.7-4.32-36.95-12.68-50.81-3.48-5.76-4.47-8.77-9.66-11.52l-48.88,59.31c-3.49,4.47-6.55,8.01-10.19,12.17-14.19,16.23-12.42,21.42-27.97,21.42-8.67,0-15.1-11.82-22.71-20.8-7.12-8.42-13.22-15.84-20.12-24.57l-29.71-36.14c-2.73-3.39-6.9-10.32-10.95-11.4-1.03,4.4-8,13.51-12.2,27.8-2.79,9.49-5.43,24.19-5.43,35.72Z"/>
</svg>