<?xml version="1.0" encoding="UTF-8"?>
<svg id="Layer_1" xmlns="http://www.w3.org/2000/svg" version="1.1" viewBox="0 0 1080 1080">
  <!-- Generator: Adobe Illustrator 29.4.0, SVG Export Plug-In . SVG Version: 2.1.0 Build 152)  -->
  <defs>
    <style>
      .st0 {
        fill: #3b3829;
        fill-rule: evenodd;
      }
    </style>
  </defs>
  <path class="st0" d="M318.88,392.63c0,6.78,5.5,12.28,12.29,12.28h41.66c6.79,0,12.29-5.5,12.29-12.28v-41.67c0-6.79-5.5-12.28-12.29-12.28h-41.66c-6.79,0-12.29,5.5-12.29,12.28v41.67ZM318.88,504.58c0,6.79,5.5,12.28,12.29,12.28h41.65c6.79,0,12.29-5.5,12.29-12.28v-41.65c0-6.78-5.5-12.28-12.29-12.28h-41.65c-6.79,0-12.29,5.5-12.29,12.28v41.65ZM318.88,616.55c0,6.79,5.5,12.28,12.29,12.28h41.65c6.79,0,12.29-5.5,12.29-12.28v-41.64c0-6.79-5.5-12.28-12.29-12.28h-41.65c-6.79,0-12.29,5.5-12.29,12.28v41.64ZM318.88,728.52c0,6.78,5.5,12.28,12.29,12.28h41.65c6.79,0,12.29-5.49,12.29-12.28v-41.64c0-6.78-5.5-12.28-12.29-12.28h-41.65c-6.79,0-12.29,5.49-12.29,12.28v41.64ZM430.84,392.63c0,6.78,5.5,12.28,12.29,12.28h41.65c6.79,0,12.28-5.5,12.28-12.28v-41.67c0-6.79-5.5-12.28-12.28-12.28h-41.65c-6.78,0-12.29,5.5-12.29,12.28v41.67ZM430.84,504.58c0,6.79,5.5,12.28,12.29,12.28h41.66c6.79,0,12.29-5.5,12.29-12.28v-41.65c0-6.78-5.5-12.28-12.29-12.28h-41.66c-6.78,0-12.29,5.5-12.29,12.28v41.65ZM430.84,625.64c0,1.76,1.43,3.19,3.19,3.19h50.75c6.79,0,12.28-5.5,12.28-12.28v-41.65c0-6.78-5.5-12.28-12.28-12.28h-41.65c-6.78,0-12.29,5.5-12.29,12.28v50.74ZM430.84,728.52c0,6.78,5.5,12.28,12.29,12.28h41.66c6.79,0,12.29-5.49,12.29-12.28v-41.64c0-6.78-5.5-12.28-12.29-12.28h-41.66c-6.78,0-12.29,5.49-12.29,12.28v41.64ZM298.03,258.17h219.89c22.86,0,41.41,18.55,41.41,41.39v193.25l246.36,98.73c14.43,5.79,21.45,22.19,15.66,36.62-4.41,11-14.98,17.67-26.15,17.67-3.48,0-7.03-.65-10.46-2.02l-225.41-90.35v31.81l198.67,73.4c9.67,3.55,16.09,12.8,16.09,23.1v115.42c0,13.6-11.03,24.64-24.64,24.64h-71.56v-100.9c0-13.59-11.03-24.64-24.64-24.64h-30.51c-13.61,0-24.63,11.04-24.63,24.64v100.9h-78.06v-.51h-222.03c-22.86,0-41.4-18.55-41.4-41.39v-480.36c0-22.85,18.54-41.39,41.4-41.39Z"/>
</svg>