<?xml version="1.0" encoding="UTF-8"?>
<svg id="Layer_1" xmlns="http://www.w3.org/2000/svg" version="1.1" xmlns:xlink="http://www.w3.org/1999/xlink" viewBox="0 0 1080 1080">
  <!-- Generator: Adobe Illustrator 29.4.0, SVG Export Plug-In . SVG Version: 2.1.0 Build 152)  -->
  <defs>
    <style>
      .st0 {
        clip-rule: evenodd;
        fill: none;
      }

      .st1 {
        fill: url(#linear-gradient);
      }

      .st2 {
        clip-path: url(#clippath);
      }
    </style>
    <clipPath id="clippath">
      <path class="st0" d="M826.47,747.86c-.25-13.68-1.61-27.35-4.06-40.77h24.01v-18.29c0-70.81-48.24-132.36-117.31-149.68l-4.76-1.13c-8.81-3.01-14.73-10.66-14.73-19.08s5.5-15.61,14.01-18.81l.14-.05.13-.06c28.58-12.89,47.04-41.33,47.04-72.45,0-33.71-21.33-63.47-53.35-74.76-5.36-15.68-13.23-30.33-23.38-43.61-.41-.68-.84-1.35-1.25-2.02,65.86,1.13,119.1,54.7,119.1,120.39,0,29.79-11.19,58.47-31.53,80.74l-4.06,4.45,5.36,2.76c65.21,33.55,105.72,99.96,105.71,173.31v38.67c0,11.24-9.22,20.39-20.56,20.39h-40.51ZM213.03,747.87c-11.34,0-20.56-9.15-20.56-20.39v-38.67c0-73.35,40.51-139.76,105.72-173.31l5.36-2.76-4.06-4.45c-20.33-22.27-31.53-50.95-31.53-80.74,0-65.69,53.24-119.26,119.1-120.39-.42.68-.83,1.35-1.25,2.02-10.15,13.27-18.01,27.92-23.38,43.61-32.01,11.29-53.35,41.05-53.35,74.75,0,31.12,18.46,59.56,47.04,72.45l.14.06.14.05c8.51,3.2,14.01,10.58,14.01,18.8s-5.92,16.07-14.74,19.08l-4.71,1.12c-69.13,17.35-117.36,78.89-117.36,149.69v18.29h24.01c-2.45,13.43-3.8,27.1-4.05,40.78h-40.52ZM540.14,297.94c-58.03,0-105.25,46.92-105.25,104.59s47.21,104.59,105.25,104.59,105.26-46.92,105.26-104.59-47.22-104.59-105.26-104.59ZM540.16,547.89c-113.55,0-205.92,91.77-205.92,204.58v29.6h411.8v-29.6c0-112.81-92.36-204.58-205.88-204.58ZM313.67,822.85c-11.33,0-20.56-9.15-20.56-20.39v-49.99c0-49.93,15.1-98,43.68-139.01,27.9-40.05,66.64-70.74,112.03-88.76l7.47-2.96-6.33-4.95c-35.72-27.87-56.19-69.52-56.19-114.27,0-80.16,65.66-145.37,146.37-145.37s146.37,65.21,146.37,145.37c0,44.74-20.48,86.4-56.19,114.27l-6.33,4.95,7.47,2.96c45.39,18.01,84.13,48.71,112.03,88.75,28.58,41.01,43.67,89.09,43.67,139.02v49.98c0,11.26-9.22,20.4-20.55,20.4h-452.93Z"/>
    </clipPath>
    <linearGradient id="linear-gradient" x1="178.08" y1="795.98" x2="562.11" y2="524.37" gradientUnits="userSpaceOnUse">
      <stop offset="0" stop-color="#572d90"/>
      <stop offset="1" stop-color="#d22f92"/>
    </linearGradient>
  </defs>
  <g class="st2">
    <rect class="st1" x="192.47" y="257.15" width="695.07" height="565.71"/>
  </g>
</svg>