<?xml version="1.0" encoding="UTF-8"?>
<!DOCTYPE svg PUBLIC "-//W3C//DTD SVG 1.1//EN" "http://www.w3.org/Graphics/SVG/1.1/DTD/svg11.dtd">
<!-- Creator: CorelDRAW X7 -->
<svg xmlns="http://www.w3.org/2000/svg" xml:space="preserve" width="1.37168in" height="1.64365in" version="1.1" style="shape-rendering:geometricPrecision; text-rendering:geometricPrecision; image-rendering:optimizeQuality; fill-rule:evenodd; clip-rule:evenodd"
viewBox="0 0 30335 36350"
 xmlns:xlink="http://www.w3.org/1999/xlink">
 <defs>
  <style type="text/css">
   <![CDATA[
    .str0 {stroke:#FF3DD5;stroke-width:230.297}
    .fil2 {fill:none}
    .fil26 {fill:#FEFEFE}
    .fil11 {fill:#FDCD57}
    .fil75 {fill:#F9C59F}
    .fil35 {fill:#F8B882}
    .fil22 {fill:#F7B483}
    .fil63 {fill:#F7B179}
    .fil25 {fill:#F49C67}
    .fil36 {fill:#F39A61}
    .fil74 {fill:#ED6F58}
    .fil59 {fill:#E73D3F}
    .fil91 {fill:#E72C6F}
    .fil10 {fill:#F5AE3C}
    .fil57 {fill:#F3AB6E}
    .fil79 {fill:#ED90AA}
    .fil32 {fill:#FADE4A}
    .fil78 {fill:#FADC44}
    .fil53 {fill:#E55A35}
    .fil66 {fill:#E44867}
    .fil68 {fill:#E33E50}
    .fil17 {fill:#F7F2D4}
    .fil81 {fill:#F1AE37}
    .fil20 {fill:#EFA773}
    .fil12 {fill:#EB8C1A}
    .fil52 {fill:#E34E3B}
    .fil60 {fill:#F4EEE3}
    .fil31 {fill:#E9873F}
    .fil49 {fill:#E8853B}
    .fil65 {fill:#DF3E2E}
    .fil82 {fill:#E36785}
    .fil30 {fill:#E5823C}
    .fil67 {fill:#DB2F47}
    .fil90 {fill:#DB1E58}
    .fil14 {fill:#EEEEEE}
    .fil83 {fill:#E0891F}
    .fil64 {fill:#D13C2B}
    .fil39 {fill:#DEEEE2}
    .fil46 {fill:#D48657}
    .fil61 {fill:#DCD3B9}
    .fil29 {fill:#D2824A}
    .fil43 {fill:#DBD6B0}
    .fil15 {fill:#D8D6D5}
    .fil45 {fill:#D6A278}
    .fil51 {fill:#D19364}
    .fil44 {fill:#D4B6A0}
    .fil80 {fill:#CEA8B2}
    .fil92 {fill:#B62847}
    .fil72 {fill:#A92827}
    .fil56 {fill:#C58B5C}
    .fil3 {fill:#A83C27}
    .fil5 {fill:#C1874F}
    .fil47 {fill:#B36728}
    .fil55 {fill:#A65328}
    .fil6 {fill:#993B26}
    .fil13 {fill:#C4C1BF}
    .fil4 {fill:#9B4626}
    .fil87 {fill:#C5D43B}
    .fil62 {fill:#BBAB7E}
    .fil42 {fill:#B8D9D9}
    .fil50 {fill:#925627}
    .fil76 {fill:#7E3825}
    .fil37 {fill:#975F3A}
    .fil88 {fill:#763427}
    .fil40 {fill:#B4BBC8}
    .fil33 {fill:#B39D87}
    .fil54 {fill:#884E26}
    .fil38 {fill:#AFD8C1}
    .fil16 {fill:#AEABAA}
    .fil71 {fill:#804E31}
    .fil85 {fill:#A5C1BC}
    .fil77 {fill:#482C25}
    .fil73 {fill:#674D3B}
    .fil41 {fill:#89C6B9}
    .fil34 {fill:#86C29B}
    .fil21 {fill:#675446}
    .fil24 {fill:#4B3C32}
    .fil84 {fill:#78B0A6}
    .fil89 {fill:#6A6766}
    .fil9 {fill:#56C3EB}
    .fil19 {fill:#423931}
    .fil23 {fill:#6995C9}
    .fil48 {fill:#5C5D50}
    .fil27 {fill:#59B0C6}
    .fil70 {fill:#6A954F}
    .fil28 {fill:#5A5654}
    .fil8 {fill:#31B7E0}
    .fil58 {fill:#393933}
    .fil86 {fill:#4E8F82}
    .fil94 {fill:#4A9C3C}
    .fil18 {fill:#252422}
    .fil93 {fill:#40833B}
    .fil7 {fill:#108CAB}
    .fil69 {fill:#326936}
    .fil1 {fill:url(#id1)}
    .fil0 {fill:url(#id2)}
    .fil95 {fill:url(#id3);fill-rule:nonzero}
   ]]>
  </style>
   <clipPath id="id0">
    <path d="M3537 0l23262 0c1945,0 3536,1592 3536,3537l0 29276c0,1946 -1591,3537 -3536,3537l-23262 0c-1945,0 -3537,-1591 -3537,-3537l0 -29276c0,-1945 1592,-3537 3537,-3537z"/>
   </clipPath>
  <linearGradient id="id1" gradientUnits="userSpaceOnUse" x1="8307.23" y1="45264.9" x2="24312.9" y2="21639.8">
   <stop offset="0" style="stop-opacity:1; stop-color:#6200D1"/>
   <stop offset="1" style="stop-opacity:1; stop-color:#FF2EBD"/>
  </linearGradient>
  <linearGradient id="id2" gradientUnits="userSpaceOnUse" x1="7505.07" y1="29485.3" x2="22830.2" y2="6864.85">
   <stop offset="0" style="stop-opacity:1; stop-color:#5200B0"/>
   <stop offset="1" style="stop-opacity:1; stop-color:#EB00A1"/>
  </linearGradient>
  <linearGradient id="id3" gradientUnits="objectBoundingBox" x1="39.4055%" y1="115.61%" x2="60.5945%" y2="0%">
   <stop offset="0" style="stop-opacity:1; stop-color:#B940FF"/>
   <stop offset="1" style="stop-opacity:1; stop-color:#FF87EF"/>
  </linearGradient>
 </defs>
 <g id="Layer_x0020_1">
  <metadata id="CorelCorpID_0Corel-Layer"/>
  <path class="fil0" d="M3537 0l23262 0c1945,0 3536,1592 3536,3537l0 29276c0,1946 -1591,3537 -3536,3537l-23262 0c-1945,0 -3537,-1591 -3537,-3537l0 -29276c0,-1945 1592,-3537 3537,-3537z"/>
  <g style="clip-path:url(#id0)">
   <g id="_2278612693056">
    <circle class="fil1" cx="16310" cy="33452" r="17714"/>
    <circle class="fil2 str0" cx="21684" cy="31683" r="20338"/>
    <g>
     <path class="fil3" d="M1621 24476c-498,-35 -974,-159 -1364,-336 390,177 866,301 1364,336l0 0z"/>
     <path class="fil4" d="M-1612 26198l3 -7c39,-86 80,-161 122,-223 192,-280 532,-435 811,-549 -279,115 -620,269 -811,549 -43,63 -85,142 -125,230zm1639 -1221l1 0 0 0c0,0 -1,0 -1,0z"/>
     <path class="fil5" d="M-2008 27827l13 -1c5,0 10,0 15,0 -9,0 -18,1 -28,1zm40 -2c12,0 24,-1 36,-2 -12,1 -24,2 -36,2zm74 -6c16,-3 33,-5 49,-8l14 -3c27,-4 53,-10 80,-18l34 -10 19 -7 1 1c0,1 -1,1 -2,1 0,0 -1,0 -1,0 0,0 -1,1 -2,1 0,0 -1,0 -1,0 0,0 -1,1 -2,1 0,0 0,0 -1,0 0,0 -1,1 -2,1 0,0 0,0 -1,0 -1,0 -1,1 -2,1 0,0 -1,0 -1,0 -1,0 -1,0 -2,1 0,0 -1,0 -1,0 -1,0 -1,1 -2,1 0,0 -1,0 -1,0 -1,0 -1,0 -2,1 0,0 -1,0 -1,0 -1,0 -1,0 -2,1 0,0 -1,0 -1,0 -1,0 -1,0 -2,0 0,1 -1,1 -2,1 0,0 0,0 -1,0 0,0 -1,1 -1,1 -1,0 -3,0 -4,1 0,0 -1,0 -1,0 -1,0 -1,0 -2,1 0,0 -1,0 -1,0 -1,0 -1,0 -2,0 0,1 -1,1 -1,1 -1,0 -2,0 -2,0 0,0 -1,1 -1,1 -1,0 -2,0 -3,0 0,0 0,0 0,0 -1,1 -2,1 -3,1 0,0 0,0 0,0 -48,13 -96,23 -144,29z"/>
     <path class="fil6" d="M1538 25210c-90,-19 -170,-43 -235,-74 -261,-121 -512,-204 -727,-238 137,-63 294,-86 459,-86 172,0 354,25 531,55 -12,115 -21,231 -28,343z"/>
     <path class="fil7" d="M29651 29902l-1 1 -2 0c-305,200 -359,604 -359,604l-243 293 -93 110c0,-240 33,-434 93,-584 116,-292 332,-424 605,-424z"/>
     <path class="fil8" d="M31855 29198l0 1712 -755 0c0,0 -99,-900 -849,-1052 -68,-14 -143,-22 -224,-22 -144,0 -268,24 -376,66l-1 1 -2 0c-335,127 -511,419 -602,655 -76,195 -93,352 -93,352l-755 0 0 -1712 3657 0z"/>
     <polygon class="fil9" points="32257,28746 31855,29198 28198,29198 28327,29053 28601,28746 "/>
     <polygon class="fil7" points="32257,28746 32257,30457 31855,30910 31855,29198 "/>
     <polygon class="fil10" points="30809,29132 29136,29132 29136,27520 30809,27520 "/>
     <polygon class="fil11" points="31085,27198 30808,27520 29136,27520 29193,27454 29302,27326 29412,27198 "/>
     <polygon class="fil12" points="31085,27198 31085,28809 30808,29132 30808,27520 "/>
     <path class="fil13" d="M33855 34343c139,461 -158,772 -262,1161 -105,-86 -211,-170 -318,-254 -116,384 -238,338 -451,677 -259,-306 -389,-164 -526,-22 -125,129 -256,257 -496,53 -81,527 -288,636 -601,292 -32,112 -65,224 -98,336 -75,-99 -150,-201 -226,-302 -201,485 -542,554 -932,311 -189,515 -271,557 -614,250 -551,111 -1198,1036 -1746,368 -43,100 -87,201 -129,302 -353,-344 -888,-133 -1123,216 -361,-421 -983,-243 -1296,100 -60,-79 -120,-160 -181,-238 -152,479 -273,351 -391,223 -121,-132 -239,-263 -384,263 -275,-471 -338,-314 -674,-388 -272,646 -852,369 -1353,492 -222,54 -568,-177 -741,-209 13,3 -185,258 -313,259 -57,1 -101,-80 -157,-161 -61,-89 -137,-178 -261,-159 -312,47 -324,146 -644,104 -217,-29 -98,370 -313,386 -125,9 -210,-82 -274,-173 -62,-87 -104,-175 -143,-173 -505,31 -1121,-50 -1455,433 -346,-428 -779,-584 -1142,35 -55,-151 -111,-303 -166,-452 -570,386 -1457,237 -2121,448 -152,-390 -543,-297 -929,-204 -188,46 -374,91 -532,81 -433,-28 -1165,-722 -1464,36 -51,-110 -102,-219 -153,-330 -56,92 -113,184 -170,276 -366,-464 -773,-456 -1138,-34 -71,-204 -237,-322 -304,-495 -357,248 -119,452 -488,37 -222,495 -444,424 -645,-81 -363,471 -1163,215 -1543,-67 -267,-198 -511,-87 -733,25 -305,152 -568,304 -793,-338 -301,550 -695,400 -970,-107 -67,119 -133,237 -199,356 -153,-521 -494,-442 -811,-99 -181,-460 -1247,-701 -1494,-551 -286,173 -1384,-358 -1467,-590 -401,305 -184,276 -466,-144 -81,125 -161,249 -242,374 -26,-140 -52,-280 -79,-420 -235,-85 -417,-59 -710,171 -280,-735 -1163,-172 -1204,-1104 -552,212 -613,-345 -1049,-704 135,-296 320,-832 561,-1111 349,-402 680,-233 774,-813 88,89 175,176 263,265 426,-664 1117,-98 1460,-963 77,108 154,216 231,323 33,-120 65,-241 97,-362 293,217 518,72 727,-73 244,-168 467,-337 755,62 30,-163 61,-325 92,-489 154,30 235,152 362,248 42,-99 83,-195 125,-292 68,104 136,208 205,312 281,-363 111,-501 479,-77 41,-109 82,-216 123,-325 68,108 134,213 201,320 284,-339 275,-305 636,-131 248,-430 281,-470 628,-220 44,-108 88,-216 132,-323 298,190 550,148 806,106 212,-35 426,-69 671,29 192,-392 1216,-491 1448,-131 161,-561 1389,-521 1773,-186 195,-383 415,-302 624,-221 151,59 296,117 421,2 81,-75 135,-12 189,51 74,85 149,170 297,-87 209,-365 305,-202 398,-39 52,91 104,183 174,181 579,-16 1725,-815 2110,-103 53,-114 106,-227 159,-340 489,198 1117,485 1471,63 56,78 110,156 165,233 185,-196 1314,-81 1623,100 225,-464 425,-330 642,-197 196,122 406,243 660,-80 445,280 1267,260 1790,-65 165,444 1671,519 1948,138 97,165 207,327 300,491 62,-145 124,-291 185,-436 47,151 93,304 139,455 121,-87 215,-250 344,-345 48,106 96,214 144,320 60,-101 121,-199 181,-299 170,328 1616,419 1788,187 242,293 1046,595 1196,373 142,-210 451,-60 730,90 190,102 367,205 469,193 66,-104 132,-207 199,-312 37,148 75,296 113,443 35,12 940,-120 920,-145 165,219 672,160 886,155 35,132 70,265 104,397 71,-110 144,-220 217,-329 34,127 68,253 103,380 284,-312 623,-90 973,132 287,182 582,365 859,250 319,-131 543,143 786,418 262,295 545,591 993,379 -8,132 -16,264 -24,396 485,-199 443,258 289,736z"/>
     <polygon class="fil14" points="33855,33842 33996,34039 33874,34178 33806,34348 33821,34656 33593,34639 33593,35001 33275,34748 33240,35081 33068,35106 32916,35178 32824,35425 32561,35155 32422,35258 32294,35400 32170,35571 32029,35687 31802,35456 31739,35893 31564,35869 31430,36030 31201,35748 31103,36085 30877,35783 30778,36128 30619,36172 30440,36105 30309,36301 30135,36247 29945,36092 29834,36419 29693,36566 29532,36585 29331,36343 29202,36582 29026,36495 28866,36521 28696,36469 28585,36866 28424,36891 28261,36901 28083,36783 27947,37011 27783,37019 27585,36711 27456,37013 27267,36787 27109,36831 26953,36898 26786,36852 26639,37017 26469,36940 26333,37229 26157,37087 25975,36882 25831,37081 25660,36993 25516,37209 25339,37048 25178,37059 25037,37330 24856,37090 24725,37493 24561,37472 24374,37126 24216,37184 24081,37576 23895,37219 23728,37163 23579,37346 23407,37190 23266,37546 23100,37484 22949,37678 22781,37583 22623,37665 22461,37679 22291,37543 22135,37662 21974,37701 21804,37544 21645,37633 21471,37365 21313,37472 21166,37814 21000,37731 20826,37436 20663,37400 20502,37424 20345,37569 20186,37659 20019,37526 19856,37504 19706,37895 19544,37907 19381,37937 19208,37555 19049,37679 18883,37565 18721,37577 18558,37512 18397,37569 18236,37668 18076,37761 17910,37656 17753,37988 17588,37805 17425,37849 17259,37554 17095,37538 16934,37666 16774,37884 16611,38023 16445,37571 16282,37762 16119,37711 15955,37752 15791,37586 15627,37665 15463,37818 15300,37634 15138,37841 14976,37863 14813,37926 14651,37895 14489,37807 14324,38019 14166,37606 14004,37574 13839,37888 13678,37754 13513,37928 13349,38004 13188,37990 13028,37757 12863,37896 12704,37749 12538,37895 12378,37799 12217,37705 12055,37724 11897,37542 11737,37493 11572,37583 11399,37933 11246,37602 11076,37878 10919,37709 10763,37521 10601,37513 10434,37630 10276,37518 10109,37625 9938,37845 9789,37515 9634,37350 9457,37686 9296,37643 9146,37386 8965,37773 8804,37711 8645,37644 8501,37307 8326,37537 8156,37664 8003,37495 7831,37639 7678,37469 7517,37446 7358,37371 7207,37164 7035,37296 6880,37181 6720,37143 6562,37069 6390,37175 6223,37237 6042,37460 5885,37372 5715,37443 5571,37200 5432,36926 5251,37124 5067,37355 4912,37257 4753,37201 4612,36958 4462,36819 4263,37174 4141,36759 3973,36800 3800,36892 3641,36852 3452,37074 3311,36866 3180,36582 3011,36623 2861,36513 2673,36716 2515,36661 2336,36773 2186,36669 2048,36469 1869,36578 1715,36504 1559,36448 1382,36522 1271,36179 1100,36220 949,36141 750,36342 599,36258 491,35934 274,36217 127,36115 25,35791 -217,36163 -296,35744 -498,35912 -609,35663 -772,35649 -1006,35915 -1106,35636 -1223,35439 -1426,35557 -1555,35410 -1708,35345 -1904,35406 -2057,35331 -2189,35199 -2210,34812 -2449,34938 -2524,34711 -2786,34818 -2910,34663 -2874,34334 -2972,34191 -3259,34107 -3041,33842 -3110,33629 -2923,33525 -2830,33391 -2747,33232 -2698,32997 -2617,32783 -2467,32688 -2345,32534 -2101,32684 -1970,32564 -1924,32183 -1661,32449 -1552,32243 -1399,32176 -1272,32011 -1039,32247 -927,32024 -746,32074 -606,31954 -481,31761 -301,31819 -201,31486 30,31808 127,31447 315,31554 496,31641 636,31497 801,31497 925,31256 1072,31143 1253,31252 1403,31157 1609,31435 1701,30946 1875,31015 2063,31194 2188,30902 2393,31214 2511,30868 2670,30829 2872,31137 2995,30813 3196,31132 3326,30839 3496,30907 3647,30802 3832,31001 3961,30684 4119,30629 4275,30556 4460,30781 4592,30458 4773,30645 4941,30697 5099,30651 5240,30396 5416,30553 5571,30462 5738,30507 5889,30359 6069,30593 6205,30260 6368,30269 6542,30427 6698,30338 6871,30503 7017,30261 7167,30076 7335,30164 7517,30463 7651,30017 7817,30066 7989,30231 8152,30241 8308,30119 8464,29991 8625,29964 8796,30130 8950,29948 9122,30150 9290,30277 9436,29904 9600,29924 9772,30160 9927,29994 10084,29863 10257,30129 10413,29984 10585,30247 10744,30155 10897,29887 11057,29812 11220,29788 11393,30163 11556,30202 11712,29932 11876,29992 12040,30055 12204,30112 12365,30049 12526,29995 12683,29723 12849,29878 13009,29705 13172,29737 13335,29714 13503,30060 13662,29720 13827,29878 13990,29926 14152,29879 14315,29840 14478,29812 14644,30113 14806,29959 14970,29996 15133,29784 15298,30016 15463,29806 15625,29859 15788,29827 15948,30135 16111,30145 16274,30116 16436,30018 16598,29971 16761,29953 16921,30116 17088,29771 17250,29766 17411,29835 17574,29840 17731,30175 17895,30050 18057,30051 18223,29840 18381,30069 18545,30009 18710,29852 18868,30080 19034,29901 19193,30037 19358,29955 19523,29856 19680,30048 19845,29941 20013,29774 20161,30211 20327,30103 20487,30162 20645,30272 20818,30001 20986,29875 21143,30006 21305,30029 21465,30079 21628,30073 21783,30227 21961,29912 22109,30214 22261,30403 22446,29968 22585,30422 22759,30201 22929,30078 23073,30398 23254,30098 23403,30333 23558,30467 23716,30551 23909,30100 24070,30139 24218,30363 24394,30202 24550,30290 24693,30569 24852,30619 25042,30285 25192,30464 25347,30567 25506,30611 25662,30703 25838,30564 25992,30661 26143,30798 26333,30518 26499,30502 26659,30537 26795,30828 26953,30867 27111,30924 27296,30734 27437,30941 27636,30630 27749,31072 27931,30911 28065,31166 28234,31119 28407,31050 28599,30833 28739,31021 28917,30927 29053,31131 29235,31006 29372,31201 29555,31082 29659,31479 29876,31150 29979,31530 30194,31233 30336,31372 30497,31400 30624,31615 30811,31499 30929,31748 31058,31928 31224,31921 31447,31660 31577,31830 31717,31950 31905,31874 32074,31880 32225,31956 32350,32130 32425,32462 32561,32568 32775,32437 32918,32531 33004,32767 33171,32790 33363,32769 33590,32710 33566,33105 33875,32968 33966,33174 33897,33494 33916,33679 "/>
     <path class="fil13" d="M13740 31454c37,-130 79,-258 120,-387l6 -20 22 1c55,2 110,2 165,7l13 0 11 15 180 225 -68 -5 149 -175 0 0 6 -6c50,-47 102,-91 153,-136l47 -40 40 57 177 260 -97 -15 156 -146 54 -51 44 67 172 261 -86 -24 159 -92 -28 29 156 -264 13 -23 19 -8 161 -70 9 -4 6 -1 163 -16 40 -5 18 41 160 385 -30 -27 162 49 -35 18 171 -255 8 -11 9 4c54,24 107,52 160,79 -56,-14 -113,-25 -168,-41l17 -7 -140 284 -10 22 -25 -5 -164 -27 -18 -3 -12 -24 -187 -366 57 37 -161 32 15 -5 -159 79 32 -30 -151 270 -10 19 -18 11 -158 94 -51 30 -36 -56 -171 -263 98 16 -158 143 -55 50 -41 -66 -168 -270 85 16c-53,42 -105,85 -160,125l6 -6 -160 157 -41 38 -29 -44 -163 -245 24 15c-55,-9 -108,-23 -162,-35l26 -19c-55,120 -110,240 -169,357z"/>
     <path class="fil13" d="M11004 35155c44,-71 89,-139 135,-206l8 -11 15 5 175 70 7 3 8 13 194 286 -92 17c37,-153 79,-303 121,-454l19 -69 60 16 166 45 14 3 13 14 173 162 -40 -18 163 11 -42 14 313 -244 14 -11 14 -1 162 -22 28 -3 18 19 164 177 -65 4 161 -170 30 -32 24 32c55,70 106,147 159,220l-3 -4c53,48 106,98 158,149 -61,-33 -120,-68 -179,-104l-1 -1 -3 -2c-61,-62 -125,-121 -185,-186l54 0 -146 193 -28 37 -38 -32 -178 -155 46 16 -161 32 28 -13c-99,90 -205,177 -309,258l-19 15 -23 -1 -164 -10 -22 -1 -18 -18 -171 -167 27 15 -165 -52 79 -53c-47,147 -96,295 -148,439l-41 113 -52 -95 -168 -312 15 16 -162 -108 23 -5c-54,56 -109,112 -165,166z"/>
     <path class="fil13" d="M7440 32338c58,8 115,16 173,27l-9 0 155 -64 -19 17 126 -266 25 -52 46 36 182 145 -61 -6 153 -98 18 -11 24 4 168 40 -58 17 149 -148 49 -51 47 59c62,77 121,155 180,235l-116 21c47,-111 92,-222 141,-329l22 -51 41 4 163 14 21 2 13 13 167 170 -52 -8 160 -77 26 -12 17 18c56,59 109,121 163,184l-35 6c54,-76 108,-151 166,-223 -40,89 -83,175 -127,261l-11 24 -23 -17c-62,-49 -124,-96 -184,-147l43 7 -152 99 -25 17 -27 -23 -180 -149 35 15 -164 -2 63 -46c-42,113 -88,224 -132,335l-45 113 -72 -91c-61,-76 -121,-154 -180,-234l97 10 -152 144 -27 25 -31 -8 -166 -51 43 -6 -159 86 -34 18 -26 -25 -171 -167 71 -15 -154 240 -10 17 -11 1 -161 26 -6 2 -4 -2c-54,-21 -108,-47 -163,-73z"/>
     <path class="fil13" d="M4855 35165c76,96 150,194 224,291l-42 8c34,-119 67,-238 104,-355l8 -23 22 -6 157 -49 26 -7 21 28 211 298 -102 16 118 -328 45 -124 69 108 204 316 -119 12 128 -294 29 -67 57 22 170 70 -56 6 152 -102 44 -31 37 41 182 203 -105 25 135 -313 14 -32 24 -7 160 -47 -4 1 158 -64 31 -11 19 25 178 234 -60 12 149 -311 13 -26 16 18c57,66 113,136 168,205 -65,-55 -129,-110 -192,-168l28 -7 -115 333 -20 57 -39 -44 -193 -214 50 13 -154 80 0 -1 -4 2 -155 65 38 -39 -124 319 -38 96 -67 -70 -186 -195 80 11 -150 105 -27 19 -30 -12 -171 -66 87 -44 -131 292 -53 120 -66 -107 -198 -322 114 -17 -130 320 -45 112 -57 -96 -192 -319 47 21 -160 31 30 -31c-42,115 -89,226 -134,338l-19 46 -23 -38c-63,-110 -125,-220 -186,-332z"/>
     <path class="fil13" d="M509 33296c20,-126 46,-249 70,-374l7 -35 31 14c63,28 126,56 188,88l188 77 -51 10 134 -153 14 -17 25 0 164 -5 -56 38 120 -246 8 -16 15 -11 146 -116 32 -24 36 20 183 107 -64 1 150 -92 49 -31 36 50c68,93 136,187 202,283l-115 38c33,-162 70,-324 108,-484l17 -70 48 23 171 80 9 5 4 3c61,63 120,130 178,196l-36 11c47,-93 95,-186 146,-276 -32,102 -68,204 -103,305l-10 31 -26 -20c-67,-53 -134,-105 -199,-161l13 7 -177 -57 65 -47c-24,165 -49,330 -77,494l-27 150 -87 -112c-71,-90 -141,-181 -210,-273l85 18 -149 97 -31 20 -33 -19 -181 -109 68 -5 -147 111 23 -28 -129 238 -21 39 -35 -1 -164 -7 39 -18 -146 136 -26 24 -25 -15 -185 -102c-60,-38 -119,-79 -177,-120l38 -21c-40,118 -79,235 -123,351z"/>
     <path class="fil13" d="M19489 35155c-56,-54 -111,-110 -165,-166l23 5 -162 108 15 -16 -169 312 -51 95 -40 -113c-53,-144 -101,-292 -149,-439l79 53 -165 52 27 -15 -171 167 -18 18 -22 1 -163 10 -24 1 -19 -15c-104,-81 -210,-168 -309,-258l28 13 -161 -32 46 -16 -178 155 -38 32 -28 -37 -146 -193 54 0c-60,65 -124,124 -186,186l-3 2 0 1c-58,36 -118,71 -179,104 52,-51 105,-101 159,-149l-4 4c53,-73 105,-150 159,-220l25 -32 29 32 162 170 -66 -4 164 -177 18 -19 28 3 162 22 14 1 14 11 313 244 -42 -14 163 -11 -41 18 173 -162 14 -14 14 -3 166 -45 60 -16 19 69c42,151 84,301 121,454l-91 -17 193 -286 8 -13 7 -3 174 -70 16 -5 8 11c46,67 91,135 135,206z"/>
     <path class="fil13" d="M23052 32338c-53,26 -108,52 -163,73l-2 2 -6 -2 -162 -26 -10 -1 -10 -17 -155 -240 70 15 -170 167 -26 25 -35 -18 -157 -86 42 6 -166 51 -31 8 -27 -25 -152 -144 97 -10c-59,80 -119,158 -181,234l-72 91 -44 -113c-45,-111 -90,-222 -132,-335l63 46 -163 2 34 -15 -180 149 -28 23 -25 -17 -151 -99 43 -7c-60,51 -122,98 -184,147l-23 17 -12 -24c-42,-86 -86,-172 -126,-261 58,72 112,147 166,223l-35 -6c54,-63 107,-125 163,-184l17 -18 26 12 160 77 -53 8 168 -170 14 -13 21 -2 162 -14 41 -4 22 51c49,107 95,219 141,329l-117 -21c60,-80 119,-158 180,-235l48 -59 49 51 150 148 -58 -17 167 -40 24 -4 18 11 153 98 -61 6 182 -145 46 -36 25 52 127 266 -20 -17 155 64 -8 0c57,-11 114,-19 171,-27z"/>
     <path class="fil13" d="M25637 35165c-59,112 -123,222 -185,332l-23 38 -19 -46c-45,-112 -91,-223 -134,-338l31 31 -161 -31 47 -21 -192 319 -57 96 -46 -112 -129 -320 114 17 -197 322 -66 107 -54 -120 -131 -292 87 44 -171 66 -29 12 -27 -19 -152 -105 81 -11 -186 195 -67 70 -38 -96 -124 -319 38 39 -155 -65 -4 -2 0 1 -155 -80 51 -13 -192 214 -41 44 -19 -57 -116 -333 29 7c-63,58 -128,113 -193,168 57,-69 112,-139 170,-205l16 -18 12 26 149 311 -60 -12 178 -234 19 -25 31 11 159 64 -4 -1 159 47 24 7 14 32 135 313 -104 -25 181 -203 37 -41 44 31 152 102 -56 -6 170 -70 57 -22 30 67 127 294 -119 -12 204 -316 69 -108 45 124 118 328 -102 -16 212 -298 20 -28 25 7 158 49 23 6 8 23c36,117 69,236 102,355l-41 -8c74,-97 147,-195 223,-291z"/>
     <path class="fil13" d="M29984 33296c-44,-116 -83,-233 -123,-351l38 22c-58,40 -117,81 -176,119l-186 102 -25 15 -26 -24 -145 -136 38 18 -165 7 -34 1 -21 -39 -129 -238 23 28 -147 -111 68 5 -181 109 -33 19 -31 -20 -149 -97 84 -18c-68,92 -138,183 -209,273l-87 112 -27 -150c-28,-164 -53,-329 -76,-494l64 47 -177 57 13 -7c-65,56 -132,108 -199,161l-26 20 -10 -31c-35,-101 -71,-203 -103,-305 51,90 99,183 146,276l-37 -11c59,-66 118,-133 179,-196l4 -3 8 -5 172 -80 48 -23 17 70c37,160 75,322 108,484l-114 -38c66,-96 133,-190 201,-283l36 -50 49 31 150 92 -64 -1 183 -107 36 -20 33 24 145 116 14 11 8 16 120 246 -55 -38 164 5 24 0 15 17 135 153 -51 -10 188 -77c61,-32 124,-60 187,-88l31 -14 8 35c23,124 49,248 69,374z"/>
     <path class="fil15" d="M7589 34377c-216,0 -456,-93 -718,-295 -432,-334 -1476,-449 -2061,-500 -67,-6 -132,-8 -196,-8 -292,0 -557,53 -822,106 -265,53 -530,106 -819,106 -41,0 -83,-2 -126,-4 -767,-42 -1141,-390 -1910,-509 -136,-21 -273,-28 -409,-30 29,-79 56,-158 83,-237 1,0 2,0 3,0 11,0 22,-1 34,-2 40,28 81,56 122,82l186 102 25 15 26 -24 126 -117 145 6 35 1 21 -39 29 -53c276,340 825,476 1481,476 346,0 721,-38 1101,-103l0 0c10,-59 16,-116 22,-174 222,-50 460,-108 722,-172 900,169 1452,699 2251,796l-2 4c104,75 212,181 344,278 437,-122 700,-661 824,-1028 82,-239 126,-407 -10,-407 -20,0 -45,4 -73,11 -200,159 -551,419 -696,422 -392,-109 -1425,-1356 -2399,-1414 -89,-6 -178,-11 -268,-16 7,-3 13,-6 20,-9 87,-222 508,-358 820,-431 242,23 487,56 736,100 458,739 1060,861 1569,871l-60 126 -138 57c-55,-11 -111,-19 -167,-26 55,26 109,52 163,73l4 2 6 -2 161 -26 11 -1 10 -17 119 -185c2,0 3,0 5,0l130 127 26 25 34 -18 136 -74 146 45 31 8 27 -25 90 -86c6,1 12,2 18,3 42,55 85,109 127,163l72 91 39 -98c38,86 40,213 -2,402 -224,983 -632,1632 -1204,1632zm-7250 -1133c54,-84 98,-171 134,-261 34,6 65,11 91,17 -16,81 -32,162 -46,243 -19,0 -38,0 -57,0 -41,0 -81,0 -122,1zm623 -191l-157 -64c-15,-8 -30,-15 -45,-22 147,-76 290,-257 340,-497 17,-78 71,-301 146,-602 6,-3 13,-6 20,-8 -65,199 -95,377 -95,535 0,171 35,319 101,445l-30 62 -127 4 -25 0 -14 17 -114 130z"/>
     <path class="fil16" d="M8756 32441l-72 -91c-42,-54 -85,-108 -127,-163 114,20 197,64 238,156l-39 98zm-1149 -28l-4 -2c-54,-21 -108,-47 -163,-73 56,7 112,15 167,26l138 -57 60 -126c26,1 53,1 79,1 10,0 20,0 30,0l-119 185 -10 17 -11 1 -161 26 -6 2zm468 -79l-26 -25 -130 -127c71,-1 140,-3 205,-5 77,-2 149,-4 216,-4 73,0 140,2 199,11l-90 86 -27 25 -31 -8 -146 -45 -136 74 -34 18z"/>
     <path class="fil16" d="M528 33243c-3,0 -7,0 -10,0 14,-81 30,-162 46,-243 0,0 1,0 1,0 15,4 30,6 46,6 -27,79 -54,158 -83,237zm453 -40l-25 -15 -185 -102c-42,-26 -83,-54 -123,-82 36,-5 74,-18 112,-37 15,7 30,14 45,22l157 64 114 -130 14 -17 25 0 127 -4 30 -62c26,49 56,95 91,137l-29 53 -21 39 -35 -1 -145 -6 -126 117 -26 24z"/>
     <path class="fil15" d="M29995 33950c-537,0 -1077,-20 -1611,-20 -305,0 -605,6 -902,6 -694,0 -1370,-32 -2035,-252 -999,-331 -1152,-950 -295,-1315 -14,52 -23,104 -28,154 -43,394 365,802 761,858 45,7 124,12 229,17 132,109 291,186 447,208 183,27 938,38 1721,38 893,0 1824,-15 1981,-38l0 0c97,-93 235,-124 378,-124 280,0 577,119 611,127 11,3 23,4 35,4 39,0 80,-14 123,-36 63,-35 125,-87 176,-139 -27,-132 -238,-381 -353,-463 -30,-21 -69,-46 -113,-74 286,119 572,231 674,231 9,0 17,-1 23,-3 -21,7 -44,14 -66,22 855,543 -589,760 -952,779 -267,15 -535,20 -804,20z"/>
     <path class="fil15" d="M21079 37272c-1017,0 -1909,-145 -2858,-458 -887,-294 -1107,-814 -548,-1183 44,144 152,286 290,393 242,188 588,309 907,320 10,1 19,1 29,1 94,0 222,-14 357,-33 24,71 49,136 75,193 1,1 1,2 1,2 5,2 9,4 14,6 1,1 2,2 3,2 1,0 1,1 2,1 0,0 0,0 0,0 2,1 4,2 6,3 786,362 1717,493 2523,493 1,0 1,0 1,0l0 0c0,0 0,0 0,0 918,0 1672,-169 1867,-359 1,-1 1,-2 2,-2 0,0 0,0 0,0 1,-1 1,-2 2,-2 0,-1 0,-1 0,-1 1,-1 2,-1 2,-2 105,-110 178,-324 217,-583 259,107 504,199 597,199 9,0 17,-1 23,-3 -22,7 -45,14 -66,23 855,542 -590,759 -953,778 -799,45 -1692,212 -2493,212zm-1938 -1421l-1087 -403c6,-2 13,-4 19,-7 185,-64 374,-118 564,-163 145,146 320,323 491,497 4,25 8,51 13,76z"/>
     <path class="fil15" d="M10917 37356c-765,0 -1618,-168 -2382,-212 -336,-19 -1643,-224 -979,-730 110,239 279,442 532,535l0 0c246,91 812,126 1338,126 301,0 590,-12 796,-31 565,-52 1071,-261 1593,-505 522,-243 1392,-540 1619,-713l0 0c105,-81 194,-202 254,-337 34,12 68,24 102,36 973,354 865,1024 -142,1372 -907,314 -1759,459 -2731,459z"/>
     <path class="fil17" d="M29601 32082c43,-34 88,-64 131,-83 159,60 242,223 328,282 88,57 426,275 562,414 138,139 264,364 270,451 -21,28 -51,64 -85,97 -27,-131 -237,-381 -353,-462 -116,-84 -384,-229 -477,-331 -95,-103 -308,-255 -376,-368z"/>
     <path class="fil18" d="M29601 32082c68,113 281,265 376,368 93,102 361,247 477,331 116,81 326,331 353,462 -51,52 -114,104 -176,140 -55,28 -109,43 -159,31 -51,-12 -701,-279 -988,-3 -319,-272 -196,-969 -196,-969 51,-101 180,-258 313,-360z"/>
     <path class="fil17" d="M30380 32277c44,-35 87,-65 131,-84 159,60 242,224 328,282 88,58 425,277 563,415 137,138 263,363 270,451 -22,28 -52,64 -86,97 -27,-132 -238,-381 -353,-463 -115,-84 -385,-229 -477,-330 -95,-103 -307,-255 -376,-368z"/>
     <path class="fil18" d="M30380 32277c69,113 281,265 376,368 92,101 362,247 477,330 115,82 326,331 353,463 -51,52 -113,104 -176,139 -55,28 -109,44 -158,32 -52,-12 -703,-279 -989,-3 -319,-273 -196,-969 -196,-969 51,-102 179,-258 313,-360z"/>
     <path class="fil19" d="M25124 32523c-43,394 365,802 761,858 392,57 3407,43 3702,0 93,-146 65,-536 34,-791 -16,-137 -34,-236 -34,-236 0,0 -252,13 -380,0 396,-339 241,-1071 132,-1275l-1342 92c0,0 -1479,140 -1986,338 -563,112 -845,620 -887,1014z"/>
     <path class="fil20" d="M27186 28260c-173,494 -506,1678 -653,2054 -147,376 -430,946 -635,1111 -205,165 -650,-22 -792,381 -143,404 27,750 236,493 209,-256 408,-154 601,-204 192,-48 318,-265 551,-425 234,-161 748,-659 989,-970 241,-310 720,-1671 803,-2095 83,-424 -927,-837 -1100,-345z"/>
     <path class="fil21" d="M25800 32748c-44,394 364,802 761,858 392,57 3407,43 3702,0 93,-146 65,-535 35,-790 -17,-138 -102,-384 -102,-384 0,0 -185,160 -313,147 396,-338 241,-1070 133,-1275l-1343 92c0,0 -1479,140 -1985,338 -564,113 -846,620 -888,1014z"/>
     <path class="fil22" d="M27602 28479c525,-7 1140,-631 1282,-772 -69,-18 -79,-197 -79,-365 2,-109 8,-213 8,-269l-1154 182c0,0 -30,269 -30,535 -51,12 -100,30 -145,56 -26,12 -52,27 -76,43 -51,184 -187,599 194,590z"/>
     <path class="fil23" d="M26688 31734c619,196 2760,182 3379,-480 -56,-196 -254,-1395 -464,-2366 -212,-971 -607,-1154 -719,-1181 -142,141 -757,765 -1282,774 -381,6 -245,-408 -194,-591 -66,0 -252,62 -313,126 -77,122 -153,486 -212,647 -169,466 -182,2436 -195,3071z"/>
     <path class="fil22" d="M29123 28382c-250,-147 -704,0 -944,464 -239,466 -732,1592 -929,1944 -197,352 -557,879 -782,1013 -226,135 -640,-112 -838,268 -197,381 -76,747 166,521 243,-225 426,-96 623,-118 197,-22 352,-219 606,-346 253,-127 831,-550 1112,-824 282,-275 944,-1556 1085,-1965 140,-408 140,-816 -99,-957z"/>
     <path class="fil24" d="M28044 33054c-541,0 -973,-53 -1091,-123 89,4 201,6 328,6 254,0 570,-6 898,-6 494,0 1338,-183 1704,-352 5,1 10,1 15,1 127,0 298,-148 298,-148 0,0 85,246 102,384 -269,29 -565,67 -866,122 -465,83 -961,116 -1388,116z"/>
     <path class="fil25" d="M27629 27790c0,-72 3,-144 6,-211 351,-10 815,-137 1172,-308 -1,23 -2,47 -2,71l0 0c-385,263 -767,448 -1176,448z"/>
     <path class="fil22" d="M26959 23623c-197,147 -502,464 -494,850 9,387 9,756 0,980 -8,223 -146,670 -111,1031 34,360 644,1014 1056,1083 413,69 1161,-138 1599,-405 438,-265 627,-730 695,-1141 69,-413 -16,-1659 -206,-1977 -189,-318 -747,-748 -1331,-748 -585,0 -955,138 -1208,327z"/>
     <path class="fil26" d="M28803 25815c0,233 -188,301 -387,301 -197,0 -378,-111 -387,-301 -15,-326 173,-421 387,-421 113,0 214,38 283,116 56,59 93,144 102,253 1,16 2,35 2,52z"/>
     <path class="fil7" d="M28801 25763c-16,136 -125,242 -256,242 -142,0 -258,-123 -258,-275 0,-152 116,-276 258,-276 58,0 112,20 154,56 56,59 93,144 102,253z"/>
     <path class="fil18" d="M28682 25730c0,76 -62,137 -137,137 -76,0 -138,-61 -138,-137 0,-76 62,-138 138,-138 75,0 137,62 137,138z"/>
     <path class="fil18" d="M28450 25446c97,0 186,24 257,72 -71,-83 -175,-125 -291,-125 -213,0 -387,95 -387,422l1 27c10,-307 194,-396 420,-396z"/>
     <path class="fil27" d="M28672 25677c-17,-41 -53,-72 -98,-82 12,-9 26,-15 41,-15 36,0 65,30 65,66 0,11 -3,22 -8,31z"/>
     <path class="fil28" d="M28615 25712c-35,0 -64,-30 -64,-66 0,-20 9,-38 23,-51 45,10 81,41 98,82 -11,21 -32,35 -57,35z"/>
     <path class="fil26" d="M27166 25697c0,232 -123,336 -356,295 -160,-28 -233,-125 -233,-295 0,-232 132,-419 294,-419 163,0 294,187 295,419z"/>
     <path class="fil18" d="M26882 25333c103,0 193,66 249,166 -50,-132 -147,-221 -260,-221 -162,0 -294,187 -294,419l1 15c5,-210 139,-379 304,-379z"/>
     <path class="fil7" d="M27166 25662c0,136 -93,247 -207,247 -114,0 -207,-111 -207,-247 0,-136 93,-247 207,-247 114,0 206,111 207,247z"/>
     <path class="fil18" d="M27104 25662c0,60 -47,109 -106,109 -59,0 -107,-49 -107,-109 0,-59 48,-108 107,-108 59,0 106,49 106,108z"/>
     <path class="fil27" d="M27103 25647c-6,-47 -42,-85 -88,-92 10,-7 22,-10 34,-10 37,0 65,30 65,65 0,14 -4,27 -11,37z"/>
     <path class="fil28" d="M27049 25676c-35,0 -64,-29 -64,-66 0,-23 12,-43 30,-55 46,7 82,45 88,92 -11,17 -31,29 -54,29z"/>
     <path class="fil29" d="M27225 24812l13 -37c19,-54 -9,-113 -67,-117 -51,-6 -179,-16 -255,7 -166,51 -206,181 -214,240 81,-25 280,18 412,3 57,-6 92,-43 111,-96z"/>
     <path class="fil29" d="M28061 24833c0,-61 23,-131 93,-146 93,-19 204,2 287,33 183,65 217,198 221,258 -90,-33 -316,-8 -463,-36 -63,-12 -138,-30 -138,-109z"/>
     <path class="fil30" d="M27312 26579c-69,-27 -119,-105 -106,-187 6,-40 26,-78 57,-106 36,-28 73,-37 111,-46 75,-12 150,-8 223,12 70,21 143,64 172,132 -47,-56 -116,-77 -182,-89 -67,-12 -137,-13 -203,-1 -32,5 -67,17 -87,31 -24,18 -41,46 -49,75 -16,60 7,134 64,179z"/>
     <path class="fil31" d="M27131 26798c73,111 228,220 366,220 137,0 266,19 485,-110 -129,-39 -601,-59 -851,-110z"/>
     <path class="fil32" d="M26616 24117c-148,281 -39,795 -146,1161 -282,-416 -343,-954 -239,-1251 104,-296 800,-1243 1896,-1213 1096,29 1633,398 1880,800 386,631 404,1321 152,1840 -251,518 -735,341 -765,667 0,-697 -37,-1219 -215,-1367 0,15 -74,400 -89,503 -74,-207 -326,-607 -563,-562 -236,44 -400,-75 -578,-119 149,59 172,222 338,267 -352,29 -827,29 -1078,-104 -252,-133 -519,-399 -593,-622z"/>
     <path class="fil22" d="M29657 25723c51,-83 219,-165 291,-53 72,112 103,487 -58,709 -189,262 -332,273 -392,200 -61,-73 159,-856 159,-856z"/>
     <path class="fil30" d="M29853 25929c-3,-54 -49,-97 -93,-86 -45,5 -90,40 -109,99 -17,50 -26,119 -2,172 25,52 64,79 98,104l-7 -17c-1,30 -22,67 -41,98 -20,30 -43,61 -70,85 30,-18 57,-41 82,-70 23,-30 50,-59 59,-112l1 -10 -8 -7c-34,-27 -67,-56 -83,-95 -16,-38 -14,-85 0,-133 13,-42 45,-75 82,-86 35,-11 78,4 91,58z"/>
     <path class="fil33" d="M8796 30130l-171 -166 -75 13c10,-85 79,-168 226,-250 15,97 47,201 102,306l-82 97z"/>
     <path class="fil15" d="M11694 32887c-485,0 -960,-102 -1235,-397 -346,-370 -222,-819 121,-1110 -358,-446 -2086,-940 -2030,-1403l75 -13 171 166 82 -97c174,333 586,677 1475,846l0 0c173,33 345,63 514,85 30,41 88,77 139,90 7,1 13,2 19,3 19,2 39,4 58,6 -19,15 -37,28 -54,42 -14,13 -29,25 -42,37 0,1 -1,2 -2,3 -11,10 -23,21 -34,32 -4,5 -8,9 -13,14 -8,8 -16,17 -24,26 -29,33 -56,69 -79,106 -14,22 -26,44 -36,67 -63,134 -80,290 -24,474 117,387 411,490 715,490 0,0 0,0 0,0 162,0 326,-29 469,-60 160,-35 467,-167 812,-327 12,-6 25,-11 38,-17l0 0c485,-224 1036,-493 1346,-612l29 43 29 44 41 -38 115 -113c60,-13 128,-25 203,-36l79 127 41 66 55 -50 103 -93 128 197 36 56 51 -30 158 -94 18 -11 10 -19 130 -233c99,-8 200,-15 302,-22l122 238 12 24 18 3 164 27 25 5 10 -22 129 -263c23,2 47,4 70,5 30,7 61,14 92,22 -11,-6 -22,-12 -33,-17 494,38 938,87 1143,155 288,97 895,396 1427,641 359,168 684,308 849,344 2,1 4,1 7,2 0,0 0,0 0,0 142,30 303,58 461,58 1,0 1,0 1,0l0 0c0,0 0,0 0,0 198,0 391,-43 534,-180 -8,130 -8,250 0,360 5,66 9,142 12,224 -68,6 -139,10 -213,10 -1245,0 -3297,-885 -4422,-978 -88,-7 -175,-11 -261,-11 -1047,0 -1867,525 -2810,881 -316,119 -827,227 -1326,227zm9148 -1553c-62,-104 -152,-194 -255,-271 19,-2 39,-4 58,-6 11,-1 22,-4 34,-8 47,-15 97,-48 124,-85 46,-6 92,-13 139,-20 -38,133 -71,264 -100,390zm-4849 -3l-122 -37 -70 -170c11,0 23,-1 34,-2 95,6 191,12 285,19l-127 190zm-938 -19l-81 -123c73,-7 149,-14 226,-21l-54 92 -91 52z"/>
     <path class="fil16" d="M15014 31541l-36 -56 -128 -197 -103 93 -55 50 -41 -66 -79 -127c118,-18 254,-34 402,-49l81 123 91 -52 54 -92c60,-5 120,-10 181,-14l-130 233 -10 19 -18 11 -158 94 -51 30zm1010 -112l-25 -5 -164 -27 -18 -3 -12 -24 -122 -238c39,-3 79,-5 118,-8l70 170 122 37 127 -190c14,1 29,2 43,3l-129 263 -10 22zm-1811 -4l-29 -44 -29 -43c28,-11 54,-21 78,-29l2 0c37,-12 82,-24 134,-35l-115 113 -41 38zm2112 -254c-31,-8 -62,-15 -92,-22 20,2 39,3 59,5 11,5 22,11 33,17z"/>
     <path class="fil34" d="M20492 27962c-861,-138 -3514,-173 -4626,-173 -1112,0 -3765,35 -4625,173 -861,138 -2047,855 -2047,1573 0,717 5310,1506 6672,1506 1363,0 6673,-789 6673,-1506 0,-718 -1187,-1435 -2047,-1573z"/>
     <path class="fil35" d="M20242 29741c4,113 -2,230 -20,346 -4,32 -9,65 -15,97 -2,10 -4,23 -6,37 -15,86 -37,170 -61,247 -4,13 -8,28 -15,43 -17,54 -34,103 -55,150 -39,91 -84,171 -131,235 -24,30 -48,58 -72,80 -23,23 -49,43 -75,55l-2 0 -15 9 -22 0c-183,5 -525,-2 -912,-10 -579,-11 -1257,-22 -1648,10 -662,54 -2474,108 -2958,269l-2 0c-289,99 -895,396 -1424,641 -360,168 -685,308 -850,344 -413,91 -1005,162 -1183,-430 -33,-105 -41,-202 -28,-290 2,-26 6,-50 13,-73 4,-20 10,-39 17,-58 17,-51 40,-98 73,-143 13,-20 25,-38 43,-58 15,-19 30,-38 49,-56 14,-15 28,-29 43,-42 13,-13 29,-26 43,-39 17,-15 37,-29 56,-43 33,-24 67,-48 104,-71 36,-21 73,-44 109,-65l17 -9c67,-37 134,-68 199,-98 23,-11 47,-20 68,-30 33,-15 78,-31 131,-45l2 -3c355,-112 1124,-269 1821,-392 495,-88 953,-161 1200,-187 280,-32 1067,-270 1934,-537l5 0c1125,-344 2390,-729 2867,-754l22 0c482,-12 667,401 678,870z"/>
     <path class="fil36" d="M11490 32354c0,0 0,0 0,0 161,0 326,-29 469,-60 160,-35 467,-167 812,-327 -345,160 -652,292 -812,327 -143,31 -307,60 -469,60zm882 -354c0,0 1,0 2,-1 131,-53 280,-120 435,-193 484,-224 1028,-490 1340,-611 30,-11 60,-21 86,-31 121,-40 325,-73 574,-102 289,18 655,37 1026,60 -11,1 -23,2 -34,2 -39,3 -79,5 -118,8 -102,7 -203,14 -302,22 -61,4 -121,9 -181,14 -77,7 -153,14 -226,21 -148,15 -284,31 -402,49 -75,11 -143,23 -203,36 -52,11 -97,23 -134,35l-2 0c-24,8 -50,18 -78,29 -310,119 -861,388 -1346,612l0 0c-166,29 -311,45 -437,50z"/>
     <path class="fil37" d="M12809 31950c-360,168 -685,308 -850,344 -413,91 -1005,162 -1184,-430 -180,-591 394,-894 807,-1075 32,-15 78,-31 131,-45 -383,281 -312,690 -258,833 54,145 216,574 1354,373z"/>
     <path class="fil38" d="M21317 30879c-200,38 -398,72 -592,94 235,-335 340,-830 323,-1228 -20,-400 -376,-981 -645,-1138 495,-121 966,-179 1320,-153 562,41 1063,303 1171,962 65,389 -71,1177 -1577,1463z"/>
     <path class="fil39" d="M19794 31020c216,-498 97,-1755 -219,-2133 -38,-46 -33,-91 22,-110 234,-84 474,-158 708,-218 58,-16 146,-2 192,36 270,224 579,763 597,1145 17,388 -76,863 -284,1213 -30,51 -106,97 -165,104 -278,32 -546,52 -794,57 -60,0 -80,-39 -57,-94z"/>
     <path class="fil40" d="M20587 31063l0 0c19,-2 39,-4 58,-6 11,-1 22,-4 34,-8 -12,4 -23,7 -34,8 -19,2 -39,4 -58,6z"/>
     <path class="fil41" d="M20804 30962c2,-3 4,-6 6,-9 41,-70 78,-144 111,-222 33,-5 62,-9 89,-13 -24,76 -47,151 -68,225 -46,7 -92,13 -138,19z"/>
     <path class="fil42" d="M20587 31063c-96,-71 -203,-133 -308,-186 119,-9 241,-21 366,-36 55,-6 241,-63 275,-110 0,0 1,0 1,0 -33,78 -70,152 -111,222 -2,3 -4,6 -6,9 0,0 -1,0 -2,0 -27,38 -76,72 -123,87 -12,4 -23,7 -34,8 -19,2 -39,4 -58,6z"/>
     <path class="fil36" d="M19875 30717c-675,-193 -2371,-493 -2941,-555 -186,-21 -592,-133 -1098,-284 258,-76 542,-163 834,-253l5 0c-580,402 1889,790 2986,790 88,0 166,-2 234,-7 2,32 2,66 2,99 -5,73 -12,144 -22,210z"/>
     <path class="fil43" d="M19884 30720c-3,-1 -6,-2 -10,-3 11,-66 18,-137 23,-210 -1,75 -6,149 -13,213z"/>
     <path class="fil35" d="M11895 31040c176,6 530,-2 933,-9 579,-12 1258,-23 1649,9 662,54 2474,108 2958,269 288,97 895,396 1427,641 359,168 684,308 849,344 413,91 1005,162 1184,-430 181,-591 -394,-894 -807,-1075 -32,-15 -77,-31 -131,-45l-2 -3c-609,-192 -2427,-514 -3021,-579 -646,-73 -3958,-1250 -4806,-1291 -1076,-54 -717,1954 -233,2169z"/>
     <path class="fil44" d="M20180 32354l0 0c0,0 0,0 0,0 0,0 0,0 0,0zm-1 0c-158,0 -319,-28 -461,-58 142,30 303,58 461,58zm-461 -58c-3,-1 -5,-1 -7,-2 -165,-36 -490,-176 -849,-344 -532,-245 -1139,-544 -1427,-641 -205,-68 -649,-117 -1143,-155l0 0c494,38 938,87 1143,155 288,97 895,396 1427,641 359,168 684,308 849,344 2,1 4,1 7,2z"/>
     <path class="fil36" d="M12068 31042l0 0c21,0 43,0 66,0 -23,0 -45,0 -66,0zm-1 0c-63,0 -117,-1 -161,-2 44,1 98,2 161,2zm186 -1c5,0 9,0 14,0 -4,0 -9,0 -14,0zm70 -1c15,0 30,-1 46,-1 -16,0 -31,1 -46,1zm-428 0l0 0c-5,-2 -10,-5 -14,-7 0,0 0,0 0,0 4,2 9,5 14,7l0 0zm2579 -1c-1,0 -2,0 -3,0 1,0 2,0 3,0zm-2090 0c136,-2 286,-5 444,-8 89,-2 181,-4 273,-5 -92,1 -184,3 -273,5 -158,3 -308,6 -444,8zm2083 0c-187,-15 -437,-20 -710,-20 273,0 523,5 710,20zm-743 -20c6,0 13,0 20,0l0 0c-7,0 -14,0 -20,0z"/>
     <path class="fil36" d="M20180 32354c0,0 -1,0 -1,0 -158,0 -319,-28 -461,-58 0,0 0,0 0,0 -3,-1 -5,-1 -7,-2 -165,-36 -490,-176 -849,-344 -532,-245 -1139,-544 -1427,-641 -205,-68 -649,-117 -1143,-155 -20,-2 -39,-3 -59,-5 -23,-1 -47,-3 -70,-5 -14,-1 -29,-2 -43,-3 -94,-7 -190,-13 -285,-19 -371,-23 -737,-42 -1026,-60 -128,-7 -241,-15 -332,-22l0 0c-1,0 -2,-1 -3,-1 -1,0 -2,0 -3,0 -1,0 -3,0 -4,0 -187,-15 -437,-20 -710,-20 -4,0 -8,0 -13,0l0 0c-7,0 -14,0 -20,0 -202,0 -415,3 -623,7 -92,1 -184,3 -273,5 -158,3 -308,6 -444,8 -5,0 -10,0 -15,0 -16,0 -31,1 -46,1 -19,0 -38,0 -56,1 -4,0 -9,0 -14,0 -42,0 -82,1 -119,1 -23,0 -45,0 -66,0 -1,0 -1,0 -1,0 -63,0 -117,-1 -161,-2 -4,0 -8,0 -11,0l0 0c-5,-2 -10,-5 -14,-7 -1,-2 -2,-4 -2,-6 -1,0 -1,-1 -1,-2 -1,-1 -1,-3 -2,-5l0 0c-16,-37 -30,-79 -42,-125l-1 1c-4,-15 -8,-31 -12,-47 24,21 49,37 74,48 44,1 100,2 165,2 191,0 461,-6 758,-11 298,-6 622,-12 920,-12 285,0 547,5 739,21 662,53 2474,107 2958,269 288,96 895,396 1427,641 359,168 684,308 849,344 143,31 307,60 468,60 204,0 403,-46 548,-193 -6,54 -10,105 -13,156 -143,137 -336,180 -534,180 0,0 0,0 0,0z"/>
     <path class="fil37" d="M18862 31950c359,168 684,308 849,344 413,91 1005,162 1184,-430 181,-591 -394,-894 -807,-1075 -32,-15 -77,-31 -131,-45 382,281 312,690 258,833 -54,145 -216,574 -1353,373z"/>
     <path class="fil38" d="M10353 30879c200,38 398,72 592,94 -235,-335 -341,-830 -323,-1228 20,-400 376,-981 645,-1138 -495,-121 -966,-179 -1321,-153 -561,41 -1063,303 -1170,962 -65,389 71,1177 1577,1463z"/>
     <path class="fil39" d="M11876 31020c-215,-498 -98,-1755 219,-2133 38,-46 34,-91 -22,-110 -233,-84 -473,-158 -708,-218 -58,-16 -146,-2 -192,36 -270,224 -578,763 -597,1145 -17,388 76,863 284,1213 31,51 106,97 165,104 279,32 546,52 795,57 59,0 80,-39 56,-94z"/>
     <path class="fil45" d="M11821 31113l0 0c1,0 1,1 1,1 0,-1 0,0 -1,0zm0 -1c0,0 0,1 -1,1 -120,-3 -244,-9 -372,-18l0 0c128,9 252,15 372,18 1,-1 1,0 1,-1z"/>
     <path class="fil40" d="M11083 31063c-19,-2 -39,-4 -58,-6 -6,-1 -12,-2 -19,-3 7,1 13,2 19,3 19,2 39,4 58,6l0 0z"/>
     <path class="fil46" d="M11879 31027c-1,0 -1,-1 -1,-2 0,1 0,2 1,2zm-3 -7c-16,-37 -31,-79 -43,-124l1 -1c12,46 26,88 42,125z"/>
     <path class="fil41" d="M10866 30962c-169,-22 -340,-50 -513,-83l0 0c-1446,-276 -1628,-1011 -1583,-1414 46,411 368,968 1583,1199 174,33 228,44 396,67 33,77 70,152 111,222 2,3 4,6 6,9z"/>
     <path class="fil42" d="M11821 31113l0 0c0,0 0,1 -1,1 -120,-3 -244,-9 -372,-18 -119,-8 -241,-19 -365,-33 0,0 0,0 0,0 -19,-2 -39,-4 -58,-6 -6,-1 -12,-2 -19,-3 -51,-13 -108,-50 -138,-92 -1,0 -2,0 -2,0 -2,-3 -4,-6 -6,-9 -41,-70 -78,-144 -111,-222 1,0 1,0 1,0 33,47 220,104 275,110 279,33 546,53 795,58l13 -3c12,45 26,87 43,124l0 0c1,2 1,4 2,5 0,1 0,2 1,2 19,51 -2,86 -57,87 0,-1 0,0 -1,-1z"/>
     <path class="fil47" d="M16165 14661c-298,-454 -1221,-569 -1894,-281 -672,289 -1351,1115 -1516,2012 -167,897 -172,1668 177,2160 -60,350 1045,2039 1296,2268 251,227 1936,-483 2122,-606 183,-122 458,-1267 595,-1686 136,-417 480,-1582 361,-2439 -120,-858 -528,-1347 -1141,-1428z"/>
     <path class="fil35" d="M17378 27292c-956,166 -2074,105 -3897,-203 261,-1982 -845,-3571 -909,-3932 -165,85 -1446,-617 -1105,-1376 340,-765 638,-1010 962,-1174 324,-161 1185,-208 1477,-389 239,-149 415,-706 484,-1264l0 -5c16,-96 26,-186 32,-282 5,-26 5,-48 5,-75 21,22 48,43 85,70 351,244 1323,631 1323,631 0,0 -11,54 -21,134l0 5c-32,250 -85,765 21,834 138,102 1498,149 1839,213 1397,249 -59,3326 -43,4123 16,797 -731,1559 -253,2690z"/>
     <path class="fil48" d="M20320 24666c-48,69 -96,133 -133,180 -191,-547 -1610,-3714 -1801,-4023 -192,-313 -1292,-453 -1499,-420 0,0 -298,1565 -1649,1454 -902,-75 -1654,-495 -1740,-1501 -370,82 -846,140 -1070,253 -324,162 -618,405 -959,1170 -341,763 -1667,2626 -1781,2897 -179,421 -228,1575 991,1525 -309,-406 -228,-1213 668,-1017 34,-209 1061,-1944 1225,-2025 33,178 -127,1148 497,1939 388,587 381,2168 251,3159l4590 0c-146,-558 -615,-2669 -378,-3061 494,-360 440,-1105 520,-1435 355,677 936,1715 1045,1962 293,654 818,1334 1180,1218l21 -12c213,-738 149,-1668 22,-2263z"/>
     <path class="fil49" d="M14762 21080c-168,-47 -335,-75 -505,-97 -170,-21 -341,-37 -513,-33 166,46 334,74 505,97 169,21 341,36 513,33z"/>
     <path class="fil49" d="M15423 20137c-40,111 -60,224 -76,337 -13,114 -22,229 -11,347 40,-113 60,-225 76,-339 13,-113 21,-228 11,-345z"/>
     <path class="fil49" d="M15520 21014c-52,34 -107,67 -166,70 -57,5 -110,-25 -145,-70 -73,-90 -110,-210 -140,-327 -60,-238 -90,-484 -112,-734 -16,125 -16,250 -8,377 7,125 27,250 56,373 34,120 73,247 168,345 44,48 118,82 185,68 67,-16 118,-56 162,-102z"/>
     <path class="fil50" d="M14390 18949l0 -6c-4,-40 -9,-79 -14,-116 9,12 18,24 27,36 -4,28 -9,57 -13,86z"/>
     <path class="fil51" d="M15365 19552c-414,0 -723,-276 -975,-598l0 -5c4,-29 9,-58 13,-86 228,299 528,559 924,561 2,0 5,0 7,0 180,0 341,-52 485,-137 11,4 16,6 16,6 0,0 -11,54 -21,134l0 5c-112,64 -239,106 -383,117 -22,2 -44,3 -66,3z"/>
     <path class="fil35" d="M16752 16160c-141,-626 -961,-811 -1397,-815 -436,-3 -1257,171 -1407,796 -156,653 -147,1708 85,2129 233,421 630,1150 1294,1154 664,5 1070,-701 1309,-1120 238,-417 263,-1487 116,-2144z"/>
     <path class="fil52" d="M14962 18650c86,10 286,-27 370,-24 86,0 285,36 369,29 45,-3 106,-14 166,-44 -94,147 -469,145 -536,144 -67,0 -439,-2 -533,-151 60,31 122,40 164,46z"/>
     <path class="fil53" d="M15331 18755c0,0 320,-13 399,-50 -26,103 -84,154 -159,179 -72,25 -170,31 -241,31 -69,-1 -168,-7 -240,-34 -73,-26 -131,-78 -155,-182 77,39 396,56 396,56z"/>
     <path class="fil49" d="M15110 17958c-19,11 -34,31 -42,52 -10,19 -14,43 -16,64 1,45 16,95 56,118 -16,-40 -24,-76 -22,-116 1,-19 3,-39 8,-59 2,-19 7,-39 16,-59z"/>
     <path class="fil49" d="M15511 18180l-5 -29 -26 -14 -17 -1 -18 7 -26 19c-28,32 -47,48 -84,44 -37,3 -57,-14 -83,-45 -13,-12 -35,-33 -59,-26l-28 14 -5 28c-6,-21 20,-26 35,-25 15,-1 25,12 36,25 10,15 22,34 41,47 18,12 45,16 64,16 20,1 43,-4 62,-16 20,-12 33,-32 43,-44 12,-15 19,-27 36,-27 15,1 40,5 34,27z"/>
     <path class="fil49" d="M15563 17961c10,22 14,40 17,60 4,19 7,39 5,58 2,40 -6,75 -24,116 43,-23 59,-74 59,-116 -1,-23 -5,-45 -14,-66 -8,-20 -23,-42 -43,-52z"/>
     <path class="fil54" d="M14993 16838c31,-27 -41,-107 -121,-148 -80,-43 -220,-117 -389,-132 -167,-13 -344,71 -439,216 155,-66 252,-111 336,-97 82,16 272,63 346,96 75,34 206,117 267,65z"/>
     <path class="fil49" d="M14293 17096c81,-67 183,-151 359,-134 86,7 149,49 193,105 10,12 19,24 26,38l-25 -23c-34,-28 -81,-49 -135,-60 -54,-6 -110,-4 -164,6 -1,-3 -73,14 -98,25 -20,11 -99,41 -120,47 -14,3 -24,6 -36,9l-17 3 17 -16z"/>
     <path class="fil26" d="M14248 17133c18,45 46,94 91,139l3 8 14 11 0 0 5 4c41,37 95,67 164,83l31 7c57,5 135,0 213,-15l0 0c61,-13 120,-31 167,-55l0 -2c-7,-73 -27,-148 -65,-208l-25 -23c-34,-28 -81,-49 -135,-60 -54,-6 -110,-4 -164,6 -1,-3 -73,14 -98,25 -20,11 -99,41 -120,47 -14,3 -24,6 -36,9l-17 3 -28 21z"/>
     <path class="fil54" d="M15698 16844c-33,-27 41,-107 122,-147 80,-43 223,-114 390,-125 168,-13 342,73 437,219 -154,-67 -251,-113 -334,-100 -84,14 -275,58 -349,91 -74,32 -206,115 -266,62z"/>
     <path class="fil49" d="M15823 17078l4 -5c49,-63 117,-109 207,-120 137,-13 227,33 297,86 16,13 31,25 45,37 -9,-3 -25,-8 -46,-14 -29,-11 -62,-24 -75,-28 -24,-11 -95,-26 -96,-24 -54,-10 -111,-10 -168,1 -68,13 -124,44 -164,83l-4 2c-15,13 -26,27 -35,42 10,-22 21,-41 35,-60z"/>
     <path class="fil26" d="M15735 17312l2 -1c77,38 186,61 279,67 50,3 94,1 126,-6 55,-14 99,-35 136,-62 18,-12 33,-25 47,-39l29 -30 26 -34 15 -21 1 -3c15,-22 26,-42 35,-61 -19,-14 -36,-30 -55,-46 -9,-3 -25,-8 -46,-14 -29,-11 -62,-24 -75,-28 -24,-11 -95,-26 -96,-24 -54,-10 -111,-10 -168,1 -68,13 -124,44 -164,83l-4 2c-15,13 -26,27 -35,42l-2 2c-27,53 -42,111 -51,172z"/>
     <path class="fil55" d="M15920 17204c-8,74 32,141 96,174 50,3 94,1 126,-6 55,-14 99,-35 136,-62 14,-22 22,-46 24,-73 13,-98 -65,-187 -169,-196 -105,-10 -202,62 -213,163z"/>
     <path class="fil18" d="M16221 17230c-7,58 -61,98 -120,92 -61,-4 -104,-55 -97,-111 6,-57 59,-98 119,-93 61,6 104,55 98,112z"/>
     <path class="fil56" d="M16220 17237c0,-2 0,-4 1,-7 4,-43 -19,-81 -56,-100 12,-9 27,-14 42,-14 2,0 4,0 5,0 35,5 62,35 58,68 -3,26 -23,47 -50,53z"/>
     <path class="fil28" d="M16203 17239c-2,0 -3,0 -5,0 -36,-3 -61,-33 -57,-67 1,-18 11,-32 24,-42 37,19 60,57 56,100 -1,3 -1,5 -1,7 -6,1 -11,2 -17,2z"/>
     <path class="fil55" d="M14460 17211c-7,73 33,141 96,174 57,5 135,0 213,-15l0 0c42,-30 68,-74 74,-125 13,-99 -65,-187 -171,-197 -105,-10 -201,63 -212,163z"/>
     <path class="fil18" d="M14760 17237c-6,58 -61,98 -119,92 -61,-4 -105,-55 -98,-111 6,-56 60,-97 120,-93 61,7 104,57 97,112z"/>
     <path class="fil56" d="M14759 17244c0,-2 1,-5 1,-7 5,-42 -18,-80 -55,-99 11,-9 25,-14 39,-14 3,0 5,0 7,0 37,3 63,33 59,67 -3,28 -24,47 -51,53z"/>
     <path class="fil28" d="M14743 17246c-2,0 -3,-1 -5,-1 -35,-3 -62,-33 -58,-66 2,-17 11,-32 25,-41 37,19 60,57 55,99 0,2 -1,5 -1,7 -5,1 -11,2 -16,2z"/>
     <path class="fil18" d="M15735 17312l1 1 1 -2c24,-54 52,-110 95,-156 43,-47 103,-85 175,-98 73,-13 153,-10 224,10 15,5 29,9 45,15 42,19 85,43 107,63 12,9 16,25 13,38l-1 3 -15 29 -26 32 -28 29c80,-26 239,-161 244,-219 -27,-1 -64,52 -194,19 -9,-3 -25,-8 -46,-14 -29,-11 -62,-24 -75,-28 -24,-11 -95,-26 -96,-24 -54,-10 -111,-10 -168,1 -68,13 -124,44 -164,83l-4 2c-15,13 -26,27 -35,42l-2 2c-39,53 -54,114 -51,172z"/>
     <path class="fil47" d="M16197 15183c161,266 -344,316 -684,432 -758,256 -1441,1554 -1566,2198 -124,642 259,1141 417,1495 156,353 -71,996 -194,1225 -223,410 146,702 -51,1212 -211,548 -643,567 -574,1617 -147,-420 -665,-916 -173,-1711 176,-284 -257,-306 -491,-708 -130,-220 0,-1057 436,-1205 -392,-154 -522,-726 -385,-1186 138,-461 -42,-1728 167,-2325 215,-611 774,-1438 1606,-1449 830,-11 1359,186 1492,405z"/>
     <path class="fil47" d="M16034 20813c-435,-364 7,-1107 164,-1273 154,-168 373,-589 444,-1047 63,-388 133,-906 -16,-1360 -147,-452 -43,-916 -117,-1126 -75,-209 -399,-456 -621,-500 232,-216 549,-297 860,-186 95,34 408,380 558,768 293,756 307,1689 280,1958 -27,267 -133,988 -513,1348 -381,356 -413,1053 -276,1374 139,318 274,934 -8,1234 -43,-345 -299,-807 -755,-1190z"/>
     <path class="fil18" d="M14142 17086c-2,57 143,186 219,210l-5 -5 -14 -11 -3 -8c-37,-42 -54,-81 -22,-106 23,-17 66,-43 110,-63 14,-6 30,-12 45,-18 70,-20 148,-26 220,-17 68,12 123,47 161,93 38,45 63,98 83,152 7,-57 -3,-115 -35,-170 -9,-13 -18,-27 -30,-38l-25 -23c-34,-28 -81,-49 -135,-60 -54,-6 -110,-4 -164,6 -1,-3 -73,14 -98,25 -20,11 -99,41 -120,47 -14,3 -24,6 -36,9l-17 3c-87,10 -112,-27 -134,-26z"/>
     <path class="fil35" d="M24002 20659c42,0 -202,702 -191,707 -70,159 -186,297 -362,394 -175,95 -398,180 -616,552 -53,96 -143,250 -255,430 0,0 -818,1966 -962,2376 -159,440 -946,1668 -1318,1811 213,-738 149,-1668 22,-2263 547,-739 1833,-2502 1849,-2529 138,-277 175,-490 170,-701 -6,-219 133,-416 154,-622 5,-43 234,-564 255,-580 638,-616 111,489 154,484 91,0 1121,-1021 1121,-1021 0,0 -356,946 -21,962z"/>
     <path class="fil57" d="M23813 21367c111,-172 252,-411 217,-509 -34,-96 -35,-138 -27,-199 6,-63 89,-122 98,-195 11,-73 -86,-109 -77,-180 10,-70 48,-120 55,-187 7,-69 -80,-119 -76,-170 2,-52 82,-175 19,-232 -61,-55 -483,-214 -549,-241 -176,-76 -291,46 -87,161 203,118 416,216 393,274 -21,57 -426,-87 -566,-125 -244,-67 -332,99 -72,204 306,124 597,182 583,265 -17,110 -420,46 -585,1 -274,-76 -378,86 -117,177 309,107 650,157 647,235 0,67 -275,54 -403,8 -187,-67 -246,64 -62,153 231,112 525,222 541,286 17,66 -231,625 -231,625l299 -351z"/>
     <path class="fil58" d="M14127 25118c-61,0 -119,-3 -173,-10 136,-26 267,-60 394,-105 128,-45 251,-100 371,-160 119,-62 237,-126 351,-199l172 -109c59,-36 111,-74 184,-111l55 -28 45 44c81,80 193,147 302,210 111,63 228,119 345,176 118,54 236,108 357,156 121,47 242,97 371,126 -20,0 -39,1 -59,1 -484,0 -996,-111 -1113,-167 -101,-52 -200,-110 -296,-187 -38,24 -238,145 -299,179 -106,58 -610,184 -1007,184z"/>
     <polygon class="fil59" points="15980,29477 15504,29477 15505,29219 15941,29225 19723,27664 19801,27846 "/>
     <path class="fil60" d="M15504 29071l0 -788c0,0 210,-577 726,-762 517,-185 1031,-70 1468,-160 498,-102 944,-135 1153,-270 160,-25 468,-74 468,-74l-62 401 -2079 718 -1526 935 -148 0z"/>
     <path class="fil61" d="M19559 27756l-3574 1500 -480 0 0 -185c0,0 330,-640 1143,-1106 460,-265 1083,-444 1601,-469 516,-24 849,-220 1069,-480 -12,116 10,236 45,345 5,15 10,31 16,46 16,44 34,85 54,123l5 15c7,12 10,21 16,31l6 12c52,100 98,168 99,168z"/>
     <path class="fil62" d="M19454 27576l-3323 1401 3302 -1447 5 15c7,12 10,21 16,31z"/>
     <path class="fil62" d="M19379 27407c-281,81 -561,168 -840,260 -162,54 -321,108 -483,166 -139,53 -281,104 -421,159 -260,103 -518,212 -770,336 -35,16 -72,34 -108,52 -250,127 -496,261 -717,433 219,-175 463,-315 711,-445 85,-43 172,-87 256,-128 155,-73 313,-142 470,-206 50,-23 101,-44 150,-64 536,-218 1081,-410 1634,-578 34,-10 67,-22 102,-31 5,15 10,31 16,46z"/>
     <polygon class="fil59" points="15029,29477 15504,29477 15504,29219 15068,29225 11285,27664 11208,27846 "/>
     <path class="fil60" d="M15504 29071l0 -788c0,0 -209,-577 -726,-762 -517,-185 -1030,-70 -1468,-160 -498,-102 -943,-135 -1152,-270 -160,-25 -468,-74 -468,-74l61 401 2080 718 1525 935 148 0z"/>
     <path class="fil61" d="M11451 27756l3573 1500 480 0 0 -185c0,0 -331,-640 -1144,-1106 -459,-265 -1083,-444 -1601,-469 -515,-24 -848,-220 -1069,-480 12,116 -9,236 -45,345 -4,15 -10,31 -16,46 -16,44 -33,85 -53,123l-6 15c-6,12 -10,21 -16,31l-5 12c-52,100 -98,168 -98,168z"/>
     <path class="fil62" d="M11555 27576l3323 1401 -3302 -1447 -6 15c-6,12 -10,21 -15,31z"/>
     <path class="fil62" d="M11629 27407c282,81 561,168 841,260 162,54 321,108 482,166 140,53 281,104 422,159 260,103 517,212 769,336 36,16 73,34 109,52 250,127 496,261 717,433 -219,-175 -463,-315 -711,-445 -85,-43 -171,-87 -256,-128 -156,-73 -313,-142 -471,-206 -49,-23 -100,-44 -149,-64 -536,-218 -1081,-410 -1634,-578 -34,-10 -67,-22 -103,-31 -4,15 -10,31 -16,46z"/>
     <path class="fil62" d="M15504 28283c21,131 22,263 24,394 -2,131 -4,263 -24,394 -21,-131 -22,-263 -24,-394 3,-131 4,-263 24,-394z"/>
     <path class="fil63" d="M11498 25604c95,426 187,899 468,1384 -313,57 -613,267 -795,421 -469,-658 -1109,-1458 -1156,-1716 -113,-625 534,-878 830,-849 248,23 546,285 653,760z"/>
     <path class="fil63" d="M11010 27185c-6,156 77,515 102,618 50,207 303,465 425,574 123,107 435,305 652,390 87,35 153,35 194,19 63,-26 69,-89 3,-132l-29 -19c-151,-100 -616,-412 -799,-636 79,77 521,379 788,526 25,13 49,25 70,36 250,125 382,3 278,-100 -50,-48 -214,-179 -379,-315 -180,-150 -360,-306 -391,-366 76,30 359,154 617,270 127,56 248,109 335,148 30,14 56,25 77,35 46,21 80,28 104,25 88,-11 60,-144 40,-172 -6,-9 -25,-25 -54,-47 -88,-66 -255,-176 -343,-235 -114,-76 -571,-387 -599,-407 28,15 485,258 597,310 117,53 234,205 319,80 86,-124 -255,-366 -341,-451 -86,-84 -679,-425 -836,-536 -46,-76 -815,-11 -830,385z"/>
     <path class="fil22" d="M4356 28508c113,724 197,1661 206,1979 -501,172 -866,-2072 -866,-2072l660 93z"/>
     <path class="fil20" d="M8116 31545c-184,166 -507,442 -645,452 -380,-91 -1344,-980 -2279,-993 -935,-14 -2082,-306 -2082,-306l-1302 51c-363,769 -128,1677 699,1736 825,61 1448,-138 2436,-441 870,127 1423,630 2194,690l-2 4c104,70 212,171 344,262 412,-143 636,-692 736,-1065 77,-278 109,-461 -99,-390z"/>
     <path class="fil64" d="M8793 31558c-15,411 -545,1049 -665,1334 -121,285 -231,323 -404,248 -93,-41 -173,-89 -245,-140 412,-143 636,-692 736,-1065 77,-278 109,-461 -99,-390 101,-94 195,-192 263,-281 194,-250 428,-116 414,294z"/>
     <path class="fil65" d="M8728 32706c-37,409 -623,1022 -763,1299 -141,279 -257,312 -434,229 -94,-45 -175,-97 -249,-152 437,-122 700,-661 824,-1028 94,-275 138,-456 -83,-396 111,-88 213,-180 290,-267 215,-240 451,-95 415,315z"/>
     <path class="fil22" d="M8023 32658c-200,159 -551,419 -696,422 -392,-109 -1425,-1356 -2399,-1414 -975,-58 -2079,-94 -2079,-94l-1360 -13c-419,751 -221,1668 637,1769 858,99 1517,-69 2563,-324 900,169 1452,699 2251,796l-2 4c104,75 212,181 344,278 437,-122 700,-661 824,-1028 94,-275 138,-456 -83,-396z"/>
     <path class="fil22" d="M3789 27877c-238,286 -1046,540 -1396,112 51,-194 175,-517 194,-746 7,-55 7,-101 -2,-143l966 0c0,0 -21,354 129,628 30,53 66,105 109,149z"/>
     <path class="fil66" d="M1100 28433c0,0 357,270 658,271 -214,1002 -130,2125 -471,3092 -561,1598 1001,1839 2658,1554 110,-693 -119,-1338 735,-1709 142,-364 1183,-496 1172,-503 -282,-183 -894,-143 -1395,-802 -344,-452 -261,-1184 -297,-1755 26,-11 72,10 117,31 45,20 90,40 114,30 83,-390 -345,-1008 -774,-1061 0,0 -128,376 -526,408 -396,32 -511,-200 -596,-331 -149,-35 -642,-75 -832,0 -190,76 -563,182 -563,775z"/>
     <path class="fil67" d="M2860 33453l-16 0c-656,0 -1205,-136 -1481,-476 -35,-42 -65,-88 -91,-137 -66,-126 -101,-274 -101,-445 0,-174 37,-373 116,-599 186,-528 296,-821 302,-821 5,0 -61,203 -215,642 -434,1231 393,1657 1553,1657 327,0 680,-34 1038,-93 -5,56 -11,112 -20,169l0 0c-374,64 -744,102 -1085,103z"/>
     <path class="fil22" d="M2071 28563c-73,336 -898,3557 -971,3907 -72,350 -345,574 -535,530 -189,-43 -638,-76 -1022,0 -200,41 244,-312 389,-370 84,-33 200,-28 296,-24 72,4 132,8 157,-5 58,-30 430,-1965 489,-2242 59,-278 219,-585 204,-861 -14,-279 -16,-1066 73,-1359 88,-291 993,88 920,424z"/>
     <path class="fil66" d="M2071 28560l0 4c-12,53 -17,154 -24,285 -11,201 -28,476 -89,773 -41,2 -93,0 -149,-2 -278,-12 -689,-64 -871,-140 -14,-288 126,-1052 212,-1339 89,-292 540,-397 659,-360 238,73 332,445 262,779z"/>
     <path class="fil25" d="M3553 27706c-296,-68 -667,-252 -966,-463 1,-6 1,-11 2,-17 325,133 703,224 993,228 9,42 21,85 35,128 -3,7 -22,59 -64,124z"/>
     <path class="fil68" d="M3680 27728c-40,-5 -83,-12 -127,-22 42,-65 61,-117 64,-124 17,49 37,99 63,146z"/>
     <path class="fil22" d="M4228 23615c191,144 485,454 475,828 -11,376 -13,735 -6,952 6,217 138,653 102,1002 -35,350 -632,981 -1032,1045 -402,64 -1126,-140 -1550,-401 -424,-262 -605,-713 -670,-1114 -64,-401 27,-1611 212,-1918 186,-308 731,-722 1298,-718 567,2 927,138 1171,324z"/>
     <path class="fil26" d="M2424 25732c-1,227 181,295 374,296 192,2 368,-106 377,-291 17,-316 -165,-409 -372,-411 -110,0 -208,36 -277,111 -54,58 -90,139 -99,245 -1,17 -2,33 -3,50z"/>
     <path class="fil69" d="M2676 25709l0 1c14,131 119,235 247,235 138,1 251,-118 252,-265 1,-148 -111,-268 -249,-269 -56,-1 -111,16 -150,53 -58,54 -90,139 -100,245z"/>
     <path class="fil18" d="M2791 25678c0,73 59,133 133,133 74,2 134,-58 134,-132 1,-74 -58,-134 -132,-134 -74,-1 -134,58 -135,133z"/>
     <path class="fil18" d="M2769 25376c-94,-1 -181,23 -250,69 69,-80 171,-119 284,-119 207,1 375,95 373,411l-1 26c-8,-297 -185,-386 -406,-387z"/>
     <path class="fil70" d="M2801 25627c-4,-9 -7,-20 -7,-31 1,-34 28,-63 62,-63 0,0 1,0 1,0 15,0 29,6 39,15 -43,9 -78,39 -95,79z"/>
     <path class="fil28" d="M2856 25661c-23,0 -44,-14 -55,-34 17,-40 52,-70 95,-79 15,11 23,29 23,49 0,35 -28,64 -63,64z"/>
     <path class="fil26" d="M4015 25628c-1,225 118,327 345,289 155,-27 226,-120 227,-285 1,-225 -126,-409 -284,-409 -157,-2 -286,180 -288,405z"/>
     <path class="fil69" d="M4185 25573c-1,132 88,240 200,241 110,1 202,-106 202,-239 1,-132 -89,-240 -199,-241 -112,-1 -202,106 -203,239z"/>
     <path class="fil18" d="M4244 25573c0,59 46,106 103,107 57,0 104,-47 105,-105 0,-59 -46,-106 -104,-107 -57,0 -103,46 -104,105z"/>
     <path class="fil70" d="M4245 25558c-6,-10 -10,-22 -10,-35 0,-35 29,-64 63,-64 13,0 24,4 34,11 -45,7 -80,42 -87,88z"/>
     <path class="fil28" d="M4298 25588c-22,0 -42,-12 -53,-30 7,-46 42,-81 87,-88 17,11 29,31 29,53 0,36 -28,65 -63,65z"/>
     <path class="fil18" d="M4293 25276c-100,0 -188,63 -243,160 50,-128 144,-215 253,-213 158,0 285,184 284,409l-1 14c-4,-204 -133,-369 -293,-370z"/>
     <path class="fil71" d="M3962 24768l-12 -37c-18,-52 10,-108 65,-113 51,-4 176,-13 249,9 161,51 199,177 206,235 -79,-26 -272,15 -400,0 -55,-6 -89,-42 -108,-94z"/>
     <path class="fil71" d="M3151 24783c0,-58 -22,-127 -90,-141 -89,-21 -198,0 -279,29 -178,64 -211,191 -216,250 87,-32 307,-6 450,-31 61,-13 134,-31 135,-107z"/>
     <path class="fil30" d="M3868 26483c66,-24 116,-101 104,-180 -5,-39 -25,-77 -55,-103 -35,-28 -71,-38 -107,-46 -73,-13 -146,-9 -217,11 -68,19 -139,60 -168,126 46,-54 113,-73 178,-85 65,-11 133,-12 197,0 31,6 64,17 84,31 24,18 40,46 47,74 16,58 -7,129 -63,172z"/>
     <path class="fil72" d="M4136 26620c-26,132 -307,390 -441,389 -225,-1 -523,-121 -643,-311 90,57 460,153 644,137 142,-14 312,-121 440,-215z"/>
     <path class="fil73" d="M4603 23638c-206,38 317,582 74,1116 -79,-262 -157,-513 -203,-559 11,148 -512,573 -1291,642 343,-146 366,-271 401,-373 -217,180 -754,371 -937,370 321,-238 231,-386 220,-478 -321,271 -631,703 -678,896 -57,-91 -124,-126 -147,-183 0,172 -447,994 -425,1154 -70,-296 -251,-633 -386,-827 -126,67 -365,31 -524,-107 -158,-137 -134,-443 -53,-574 -274,48 -375,-318 -203,-442 -261,-81 -339,-445 -281,-594 58,-147 299,-352 435,-351 -124,-205 49,-637 356,-464 -22,-183 186,-568 504,-419 -10,-228 185,-421 357,-466 171,-44 489,4 545,175 127,-192 458,-237 548,-77 103,-170 446,-316 617,-269 171,46 352,173 328,389 148,-33 410,71 329,219 228,-10 524,151 362,526 330,59 463,618 52,696z"/>
     <path class="fil66" d="M4572 23788c-257,-333 -1448,-435 -2043,-18 -595,416 -1104,1493 -1068,2027 -106,-98 -196,-207 -212,-379 -17,-171 -183,-1463 1258,-2169 982,-481 1958,116 2179,365 -19,102 -114,174 -114,174z"/>
     <path class="fil22" d="M1672 25249c-45,-111 -232,-247 -343,-127 -111,121 -228,570 -80,875 173,357 345,400 434,325 88,-76 -11,-1073 -11,-1073z"/>
     <path class="fil30" d="M1390 25457c15,-65 80,-107 132,-84 52,15 99,67 110,143 10,64 7,150 -35,209 -40,57 -93,82 -139,106l11 -19c-5,36 12,86 30,126 18,42 39,83 66,119 -32,-27 -61,-62 -85,-102 -22,-41 -48,-82 -47,-148l0 -14 12 -6c46,-26 93,-53 121,-97 27,-43 34,-102 27,-162 -6,-54 -37,-101 -80,-122 -40,-21 -96,-10 -123,51z"/>
     <path class="fil67" d="M2047 28849l0 0c7,-131 12,-232 24,-285l0 0c0,0 0,-1 0,-1 1,-4 2,-9 2,-14l14 -53 -40 353z"/>
     <path class="fil74" d="M1810 29620c0,0 -1,0 -1,0l0 0c0,0 1,0 1,0l0 0zm261 -1056l0 -4 2 -11c0,5 -1,10 -2,14 0,0 0,1 0,1z"/>
     <path class="fil67" d="M1921 29623c-33,0 -71,-1 -111,-3 0,0 -1,0 -1,0l262 -1056c-12,53 -17,154 -24,285l0 0 -89 773c-11,1 -24,1 -37,1z"/>
     <path class="fil75" d="M21647 29390c0,-276 -137,-2186 -103,-2501 34,-314 414,-2266 379,-2474 -34,-207 99,-622 326,-795 -153,-69 -136,-362 72,-466 207,-104 622,-17 639,138 -69,-225 -138,-414 0,-414 138,0 242,207 224,397 -16,190 -34,276 -173,397 -138,121 -155,449 -449,674 -17,260 -120,1987 -103,2367 17,380 276,1692 276,2125 -121,1140 -691,2020 -691,2020l-500 -310 103 -1158z"/>
     <path class="fil76" d="M17698 35316c-126,229 24,520 265,708 242,188 588,309 907,320 321,11 1131,-174 1131,-174l-2303 -854z"/>
     <path class="fil77" d="M18325 36130c-254,-92 -609,-397 -639,-595 -29,-198 42,-434 291,-481 248,-48 566,81 900,270 333,190 912,342 1034,379 123,36 204,394 90,467 -216,138 -1131,160 -1676,-40z"/>
     <path class="fil22" d="M18037 33310c258,-46 1243,607 1762,917 518,311 915,708 915,708l-864 1572c0,0 -1140,-1157 -1468,-1486 -328,-327 -726,-829 -812,-1018 -121,-268 87,-625 467,-693z"/>
     <path class="fil78" d="M22735 28838c208,466 942,1433 1271,1727 0,587 -355,3265 -321,3731 -293,483 -1105,605 -1502,536 -398,-69 -1210,-691 -1331,-795 -120,-104 -105,-1042 -138,-1503 -39,-552 121,-1382 449,-2263 127,-341 415,-639 484,-881 -34,208 52,881 328,726 277,-155 709,-950 760,-1278z"/>
     <path class="fil79" d="M20762 33735c229,406 1161,820 1714,803 553,-17 898,-104 1209,-242 415,483 415,1987 69,2350 -345,363 -2729,656 -4422,-139 -293,-639 -501,-2349 415,-2383 414,155 908,-86 1015,-389z"/>
     <path class="fil80" d="M21881 37012c0,0 0,0 -1,0 1,0 1,0 1,0l0 0zm0 0c918,0 1672,-169 1867,-359 -195,190 -949,359 -1867,359zm1869 -361c0,0 0,0 0,0zm0 0c1,-1 1,-2 2,-2 -1,0 -1,1 -2,2z"/>
     <path class="fil81" d="M23674 34301c0,0 0,0 0,0l11 -5c-4,2 -7,4 -11,5z"/>
     <path class="fil82" d="M21881 37012c0,0 0,0 -1,0 -806,0 -1737,-131 -2523,-493 -2,-1 -4,-2 -6,-3 0,0 0,0 0,0 -1,0 -1,-1 -2,-1 -1,0 -2,-1 -3,-2 -5,-2 -9,-4 -14,-6 0,0 0,-1 -1,-2 -16,-36 -33,-77 -49,-120 778,349 1692,476 2485,476 927,0 1688,-174 1872,-367 314,-329 343,-1599 35,-2193 4,-1 7,-3 11,-5l0 0c217,253 320,784 321,1285 0,168 -12,332 -35,482 -39,259 -112,473 -217,583 0,1 -1,1 -2,2 0,0 0,0 0,1 -1,0 -1,1 -2,2 0,0 0,0 0,0 -1,0 -1,1 -2,2 -195,190 -949,359 -1867,359 0,0 0,0 0,0z"/>
     <path class="fil83" d="M24006 27576c406,-19 1131,485 1355,933 276,553 52,1192 0,1589 -52,398 -415,1556 -190,1746 225,189 346,52 466,0 0,120 -103,587 -535,500 18,139 155,312 155,312 0,0 -535,16 -708,-346 -52,207 -361,328 -543,346 25,-260 -252,-726 -183,-812 -36,-296 22,-448 0,-536 -379,86 -846,-294 -932,-450 155,-34 328,-189 432,-293 103,-104 43,-565 -137,-879 -180,-313 -444,-835 -462,-1043 0,-534 203,-1015 1282,-1067z"/>
     <path class="fil75" d="M10579 30794c208,-174 1835,-1506 2019,-1690 331,-330 752,-2409 801,-2545 209,-274 557,-1231 523,-1371 -36,-139 -175,87 -279,226 52,-260 17,-696 17,-696 0,0 -69,-69 -139,0 -17,-139 -157,-200 -227,-31 -69,-55 -121,101 -173,153 -87,-18 -157,140 -262,383 -104,244 -52,888 -104,1097 -52,209 -731,1776 -836,1985 -104,208 -1132,1027 -1340,1097 -210,69 -643,121 -643,121 0,0 -287,416 -88,854 261,574 731,417 731,417z"/>
     <path class="fil84" d="M7377 35297c-36,441 58,1411 711,1652 388,143 1569,147 2134,95 565,-52 1071,-261 1593,-505 522,-243 1392,-540 1619,-713 226,-175 383,-540 313,-819 -70,-278 -377,-933 -1131,-783 -666,132 -1515,348 -1515,348l-1027 -296 -2490 470 -207 551z"/>
     <path class="fil85" d="M7385 35750c-16,-154 -18,-297 -11,-411 0,1 0,2 0,3 -6,114 -5,255 11,408z"/>
     <path class="fil86" d="M9426 37075c-526,0 -1092,-35 -1338,-126l0 0c-475,-176 -654,-737 -703,-1199 -16,-153 -17,-294 -11,-408 26,483 191,1143 714,1337 246,90 810,125 1335,125 303,0 592,-11 799,-30 524,-49 3022,-967 3213,-967 15,0 16,6 -1,19l0 0c-227,173 -1097,470 -1619,713 -522,244 -1028,453 -1593,505 -206,19 -495,31 -796,31z"/>
     <path class="fil22" d="M9935 28078c86,157 156,488 226,575 69,87 0,276 0,276 0,0 114,246 31,490 -83,243 -590,835 -1007,618 -416,-218 -903,-2168 -903,-2168l1653 209z"/>
     <path class="fil87" d="M7793 30707c-190,98 -574,957 -557,1376 17,417 191,1409 157,1740 -35,331 -157,1724 -157,1724 0,0 2152,150 2986,-261 316,-156 670,-384 879,-714 -104,-470 -522,-3238 -522,-3778 -105,105 -453,-70 -505,-348 -53,-279 -138,-358 -104,-693 -279,-160 -523,0 -523,0l-1654 954z"/>
     <path class="fil88" d="M7933 27090c-380,117 -993,327 -1184,1058 -118,452 0,1254 -53,1392 -52,140 -34,610 -69,731 261,-104 557,332 626,541 140,-192 418,122 645,0 226,-123 348,-105 626,-192 279,-87 297,-313 523,-487 226,-175 522,-306 661,-380 228,-230 209,-1500 227,-1675 17,-174 -122,-627 -488,-852 -365,-227 -1099,-264 -1514,-136z"/>
     <path class="fil89" d="M13924 35523c-113,-155 -414,-208 -717,-92 -212,81 -607,530 -737,531 -131,1 -570,63 -666,88 -97,25 -199,157 -197,369 1,213 147,343 325,400 402,30 887,-39 1178,-92 194,-35 561,-117 710,-345 147,-227 339,-533 104,-859z"/>
     <path class="fil49" d="M13521 24718c-10,122 -30,243 -53,363 -23,119 -50,238 -86,355 10,-122 30,-242 52,-362 24,-119 51,-239 87,-356z"/>
     <path class="fil49" d="M13294 24687c-9,128 -29,253 -52,378 -24,125 -50,249 -87,371 10,-127 30,-252 53,-377 24,-125 50,-249 86,-372z"/>
     <path class="fil49" d="M13121 24840c-22,102 -51,201 -79,299l-43 148c-13,50 -27,99 -35,149 -7,-51 1,-104 9,-155 9,-52 22,-102 36,-151 29,-99 65,-198 112,-290z"/>
     <polygon class="fil90" points="-591,31226 -2336,31226 -2336,29544 -591,29544 "/>
     <polygon class="fil91" points="-2048,29208 -303,29208 -591,29544 -2336,29544 "/>
     <polygon class="fil92" points="-303,29208 -303,30889 -362,30958 -591,31225 -591,29544 "/>
     <path class="fil93" d="M-2222 29432l1595 0 -1643 -1732 0 1684c0,27 22,48 48,48z"/>
     <path class="fil94" d="M-444 29248c7,-25 -2,-61 -21,-80l-1635 -1709c-18,-19 -44,-15 -55,9l-115 232 1643 1732 183 -184z"/>
     <path class="fil22" d="M381 31878c74,-102 321,-200 429,-59 109,139 162,604 -72,876 -273,320 -484,330 -575,239 -90,-92 218,-1056 218,-1056z"/>
    </g>
   </g>
  </g>
  <path class="fil2" d="M3537 0l23262 0c1945,0 3536,1592 3536,3537l0 29276c0,1946 -1591,3537 -3536,3537l-23262 0c-1945,0 -3537,-1591 -3537,-3537l0 -29276c0,-1945 1592,-3537 3537,-3537z"/>
  <path class="fil95" d="M10097 5687c-315,0 -564,-95 -746,-285 -182,-189 -273,-446 -273,-769 0,-333 97,-598 291,-794 193,-197 450,-295 769,-295 209,0 388,45 536,134 148,89 256,206 324,351l-334 177c-101,-203 -278,-305 -532,-305 -191,0 -344,65 -458,193 -115,129 -172,305 -172,527 0,221 53,394 160,519 106,124 253,187 438,187 167,0 304,-47 411,-141 108,-94 163,-212 167,-356l-525 0 0 -328 937 0 0 230c0,282 -92,512 -278,689 -186,177 -424,266 -715,266z"/>
  <path id="1" class="fil95" d="M13017 5655l-450 -778 -215 0 0 778 -403 0 0 -1905c0,-48 16,-88 49,-120 33,-32 74,-48 122,-48l624 0c225,0 398,59 519,177 121,118 181,276 181,473 0,323 -152,526 -456,607l505 816 -476 0zm-665 -1725l0 613 334 0c225,0 337,-105 337,-314 0,-93 -28,-166 -84,-219 -56,-53 -139,-80 -247,-80l-340 0z"/>
  <path id="2" class="fil95" d="M15234 5687c-307,0 -555,-97 -743,-290 -188,-194 -282,-451 -282,-770 0,-325 95,-587 283,-785 189,-199 438,-298 748,-298 308,0 556,99 743,296 188,198 282,458 282,781 0,322 -94,580 -283,774 -189,195 -438,292 -748,292zm6 -366c186,0 333,-61 440,-184 107,-123 161,-296 161,-519 0,-226 -54,-401 -161,-524 -107,-123 -254,-184 -440,-184 -188,0 -336,61 -444,184 -109,123 -163,298 -163,524 0,225 54,398 163,520 108,122 256,183 444,183z"/>
  <path id="3" class="fil95" d="M18520 5481c-143,137 -342,206 -595,206 -254,0 -452,-69 -594,-206 -142,-138 -214,-324 -214,-558l0 -1341 419 0 0 1350c0,263 129,395 389,395 263,0 395,-132 395,-395l0 -1350 415 0 0 1341c0,234 -72,420 -215,558z"/>
  <path id="4" class="fil95" d="M20470 3582c230,0 407,64 530,193 123,129 184,292 184,489 0,221 -64,390 -192,507 -127,117 -311,175 -551,175l-352 0 0 709 -418 0 0 -1905c0,-48 17,-88 50,-120 33,-32 73,-48 122,-48l627 0zm-44 1019c225,0 337,-113 337,-340 0,-104 -29,-186 -88,-244 -59,-58 -143,-87 -252,-87l-334 0 0 671 337 0z"/>
  <polygon id="5" class="fil95" points="8612,6281 8612,6629 8023,6629 8023,8354 7605,8354 7605,6629 7009,6629 7009,6281 "/>
  <polygon id="6" class="fil95" points="9435,8354 9435,6281 9854,6281 9854,7134 10725,7134 10725,6281 11143,6281 11143,8354 10725,8354 10725,7503 9854,7503 9854,8354 "/>
  <path id="7" class="fil95" d="M13496 6632l-955 0 0 491 859 0 0 351 -859 0 0 526 929 0 0 354 -1347 0 0 -1905c0,-50 17,-91 52,-122 35,-31 77,-46 125,-46l1196 0 0 351z"/>
  <path id="8" class="fil95" d="M15449 8354l-450 -778 -215 0 0 778 -403 0 0 -1905c0,-48 16,-88 49,-120 33,-32 74,-48 122,-48l624 0c225,0 398,59 518,177 122,118 182,276 182,473 0,323 -152,526 -456,607l505 816 -476 0zm-665 -1725l0 613 334 0c225,0 337,-105 337,-314 0,-93 -28,-166 -84,-219 -56,-53 -139,-80 -247,-80l-340 0z"/>
  <path id="9" class="fil95" d="M18116 8354l-174 -514 -758 0 -174 514 -433 0 703 -1919c41,-111 135,-166 282,-166 149,0 244,56 284,168l703 1917 -433 0zm-813 -865l520 0 -261 -770 -259 770z"/>
  <path id="10" class="fil95" d="M20110 6281c230,0 407,64 530,193 123,129 184,292 184,489 0,221 -64,390 -192,507 -127,117 -311,175 -551,175l-352 0 0 709 -418 0 0 -1905c0,-48 17,-88 50,-120 33,-32 73,-48 122,-48l627 0zm-44 1019c225,0 337,-113 337,-340 0,-104 -30,-186 -89,-244 -59,-58 -142,-87 -251,-87l-334 0 0 671 337 0z"/>
  <polygon id="11" class="fil95" points="23224,6281 22516,7599 22516,8354 22100,8354 22100,7599 21395,6281 21845,6281 22309,7207 22780,6281 "/>
 </g>
</svg>
