<?xml version="1.0" encoding="UTF-8"?>
<!DOCTYPE svg PUBLIC "-//W3C//DTD SVG 1.1//EN" "http://www.w3.org/Graphics/SVG/1.1/DTD/svg11.dtd">
<!-- Creator: CorelDRAW X7 -->
<svg xmlns="http://www.w3.org/2000/svg" xml:space="preserve" width="1.90327in" height="1.6869in" version="1.1" style="shape-rendering:geometricPrecision; text-rendering:geometricPrecision; image-rendering:optimizeQuality; fill-rule:evenodd; clip-rule:evenodd"
viewBox="0 0 16628 14738"
 xmlns:xlink="http://www.w3.org/1999/xlink">
 <defs>
  <style type="text/css">
   <![CDATA[
    .fil95 {fill:none}
    .fil26 {fill:#FEFEFE}
    .fil11 {fill:#FDCD57}
    .fil75 {fill:#F9C59F}
    .fil35 {fill:#F8B882}
    .fil22 {fill:#F7B483}
    .fil63 {fill:#F7B179}
    .fil25 {fill:#F49C67}
    .fil36 {fill:#F39A61}
    .fil74 {fill:#ED6F58}
    .fil59 {fill:#E73D3F}
    .fil91 {fill:#E72C6F}
    .fil10 {fill:#F5AE3C}
    .fil57 {fill:#F3AB6E}
    .fil79 {fill:#ED90AA}
    .fil32 {fill:#FADE4A}
    .fil78 {fill:#FADC44}
    .fil53 {fill:#E55A35}
    .fil66 {fill:#E44867}
    .fil68 {fill:#E33E50}
    .fil17 {fill:#F7F2D4}
    .fil81 {fill:#F1AE37}
    .fil20 {fill:#EFA773}
    .fil12 {fill:#EB8C1A}
    .fil52 {fill:#E34E3B}
    .fil60 {fill:#F4EEE3}
    .fil31 {fill:#E9873F}
    .fil49 {fill:#E8853B}
    .fil65 {fill:#DF3E2E}
    .fil82 {fill:#E36785}
    .fil30 {fill:#E5823C}
    .fil67 {fill:#DB2F47}
    .fil90 {fill:#DB1E58}
    .fil14 {fill:#EEEEEE}
    .fil83 {fill:#E0891F}
    .fil64 {fill:#D13C2B}
    .fil39 {fill:#DEEEE2}
    .fil46 {fill:#D48657}
    .fil61 {fill:#DCD3B9}
    .fil29 {fill:#D2824A}
    .fil43 {fill:#DBD6B0}
    .fil15 {fill:#D8D6D5}
    .fil45 {fill:#D6A278}
    .fil51 {fill:#D19364}
    .fil44 {fill:#D4B6A0}
    .fil80 {fill:#CEA8B2}
    .fil92 {fill:#B62847}
    .fil72 {fill:#A92827}
    .fil56 {fill:#C58B5C}
    .fil3 {fill:#A83C27}
    .fil5 {fill:#C1874F}
    .fil47 {fill:#B36728}
    .fil55 {fill:#A65328}
    .fil6 {fill:#993B26}
    .fil13 {fill:#C4C1BF}
    .fil4 {fill:#9B4626}
    .fil87 {fill:#C5D43B}
    .fil62 {fill:#BBAB7E}
    .fil42 {fill:#B8D9D9}
    .fil50 {fill:#925627}
    .fil76 {fill:#7E3825}
    .fil37 {fill:#975F3A}
    .fil88 {fill:#763427}
    .fil40 {fill:#B4BBC8}
    .fil33 {fill:#B39D87}
    .fil54 {fill:#884E26}
    .fil38 {fill:#AFD8C1}
    .fil16 {fill:#AEABAA}
    .fil71 {fill:#804E31}
    .fil85 {fill:#A5C1BC}
    .fil77 {fill:#482C25}
    .fil73 {fill:#674D3B}
    .fil41 {fill:#89C6B9}
    .fil34 {fill:#86C29B}
    .fil21 {fill:#675446}
    .fil24 {fill:#4B3C32}
    .fil84 {fill:#78B0A6}
    .fil89 {fill:#6A6766}
    .fil9 {fill:#56C3EB}
    .fil19 {fill:#423931}
    .fil23 {fill:#6995C9}
    .fil48 {fill:#5C5D50}
    .fil27 {fill:#59B0C6}
    .fil70 {fill:#6A954F}
    .fil28 {fill:#5A5654}
    .fil8 {fill:#31B7E0}
    .fil58 {fill:#393933}
    .fil86 {fill:#4E8F82}
    .fil94 {fill:#4A9C3C}
    .fil18 {fill:#252422}
    .fil93 {fill:#40833B}
    .fil7 {fill:#108CAB}
    .fil69 {fill:#326936}
    .fil0 {fill:url(#id1)}
    .fil2 {fill:url(#id2)}
    .fil1 {fill:url(#id3)}
   ]]>
  </style>
   <clipPath id="id0">
    <path d="M1939 0l12750 0c1067,0 1939,873 1939,1939l0 10860c0,1066 -872,1939 -1939,1939l-12750 0c-1067,0 -1939,-873 -1939,-1939l0 -10860c0,-1067 872,-1939 1939,-1939z"/>
   </clipPath>
  <linearGradient id="id1" gradientUnits="userSpaceOnUse" x1="3810.19" y1="12766.8" x2="12817.9" y2="1971">
   <stop offset="0" style="stop-opacity:1; stop-color:#E6E6E6"/>
   <stop offset="1" style="stop-opacity:1; stop-color:#F7F7F7"/>
  </linearGradient>
  <linearGradient id="id2" gradientUnits="userSpaceOnUse" x1="6828.68" y1="19644" x2="16943.1" y2="4714.74">
   <stop offset="0" style="stop-opacity:1; stop-color:#6200D1"/>
   <stop offset="1" style="stop-opacity:1; stop-color:#FF2EBD"/>
  </linearGradient>
  <linearGradient id="id3" gradientUnits="userSpaceOnUse" x1="4924.69" y1="19762.3" x2="12955.8" y2="6536.46">
   <stop offset="0" style="stop-opacity:1; stop-color:#B0B0B0"/>
   <stop offset="1" style="stop-opacity:1; stop-color:#EDEDED"/>
  </linearGradient>
 </defs>
 <g id="Layer_x0020_1">
  <metadata id="CorelCorpID_0Corel-Layer"/>
  <path class="fil0" d="M1939 0l12750 0c1067,0 1939,873 1939,1939l0 10860c0,1066 -872,1939 -1939,1939l-12750 0c-1067,0 -1939,-873 -1939,-1939l0 -10860c0,-1067 872,-1939 1939,-1939z"/>
  <g style="clip-path:url(#id0)">
   <g id="_2565089336656">
    <circle class="fil1" cx="8940" cy="13149" r="9710"/>
    <path class="fil2" d="M11886 986c3091,0 5889,1253 7915,3278 2026,2026 3279,4824 3279,7915 0,3091 -1253,5890 -3279,7916 -2026,2025 -4824,3278 -7915,3278 -3091,0 -5890,-1253 -7915,-3278 -2026,-2026 -3279,-4825 -3279,-7916 0,-3091 1253,-5889 3279,-7915 2025,-2025 4824,-3278 7915,-3278zm7851 3343c-2009,-2010 -4785,-3252 -7851,-3252 -3066,0 -5842,1242 -7851,3252 -2009,2009 -3252,4784 -3252,7850 0,3066 1243,5842 3252,7851 2009,2009 4785,3252 7851,3252 3066,0 5842,-1243 7851,-3252 2009,-2009 3252,-4785 3252,-7851 0,-3066 -1243,-5841 -3252,-7850z"/>
    <g>
     <path class="fil3" d="M888 8229c-273,-19 -533,-87 -747,-184 214,97 474,165 747,184l0 0z"/>
     <path class="fil4" d="M-883 9173l1 -4c21,-47 44,-88 67,-122 105,-154 292,-238 444,-301 -152,63 -339,148 -444,301 -24,34 -47,78 -68,126zm898 -669l0 -1 0 1c0,0 0,0 0,0z"/>
     <path class="fil5" d="M-1101 10066l7 0c3,0 6,-1 8,-1 -4,1 -9,1 -15,1zm22 -1c7,0 13,-1 20,-1 -7,0 -13,1 -20,1zm41 -4c9,-1 18,-2 27,-4l7 -1c15,-3 29,-6 44,-11l19 -5 10 -4 1 1c0,0 -1,0 -1,0 -1,0 -1,0 -1,0 0,1 -1,1 -1,1 0,0 0,0 0,0 -1,0 -1,0 -2,0 0,0 0,0 0,1 0,0 -1,0 -1,0 0,0 -1,0 -1,0 0,0 0,0 -1,0 0,1 0,1 0,1 -1,0 -1,0 -1,0 -1,0 -1,0 -1,0 0,0 -1,0 -1,0 0,1 -1,1 -1,1 0,0 0,0 -1,0 0,0 0,0 -1,0 0,0 0,0 0,0 -1,1 -1,1 -1,1 -1,0 -1,0 -1,0 0,0 -1,0 -1,0 0,0 -1,0 -1,0 0,0 0,1 -1,1 0,0 -1,0 -1,0 -1,0 -1,0 -1,0 0,1 -1,1 -1,1 0,0 0,0 -1,0 0,0 0,0 -1,0 0,0 0,0 0,0 -1,0 -1,1 -2,1 0,0 0,0 0,0 0,0 -1,0 -1,0 0,0 0,0 -1,0 0,0 -1,1 -1,1 0,0 0,0 0,0 -27,7 -53,12 -79,15z"/>
     <path class="fil6" d="M843 8632c-50,-11 -93,-24 -129,-41 -143,-67 -281,-112 -398,-131 75,-34 161,-47 251,-47 95,0 194,14 292,30 -7,63 -12,127 -16,189z"/>
     <path class="fil7" d="M16253 11203l-1 1 0 0c-168,110 -198,331 -198,331l-133 160 -50 61c0,-132 17,-238 50,-320 64,-161 182,-233 332,-233z"/>
     <path class="fil8" d="M17461 10818l0 938 -414 0c0,0 -54,-494 -465,-577 -38,-8 -79,-12 -123,-12 -79,0 -147,13 -206,36l-1 1 0 0c-184,70 -281,229 -331,359 -41,107 -50,193 -50,193l-414 0 0 -938 2004 0z"/>
     <polygon class="fil9" points="17681,10570 17461,10818 15457,10818 15527,10738 15677,10570 "/>
     <polygon class="fil7" points="17681,10570 17681,11508 17461,11756 17461,10818 "/>
     <polygon class="fil10" points="16888,10781 15971,10781 15971,9898 16888,9898 "/>
     <polygon class="fil11" points="17039,9721 16887,9898 15971,9898 16002,9862 16062,9791 16122,9721 "/>
     <polygon class="fil12" points="17039,9721 17039,10604 16887,10781 16887,9898 "/>
     <path class="fil13" d="M18557 13638c76,253 -86,423 -143,636 -58,-47 -116,-93 -174,-139 -64,210 -131,185 -248,371 -142,-168 -213,-90 -288,-12 -68,70 -140,141 -272,29 -45,288 -158,348 -329,160 -18,61 -36,123 -54,184 -41,-54 -82,-110 -124,-165 -110,266 -297,303 -511,170 -103,282 -148,305 -336,137 -303,61 -657,568 -958,202 -23,54 -47,110 -70,165 -193,-189 -487,-72 -616,118 -198,-230 -538,-133 -710,56 -33,-44 -66,-88 -99,-131 -84,263 -150,192 -215,122 -66,-72 -131,-144 -210,144 -151,-258 -185,-172 -370,-212 -149,354 -467,202 -741,270 -122,29 -312,-98 -407,-115 8,2 -101,141 -171,142 -31,0 -55,-44 -86,-89 -33,-48 -75,-97 -143,-87 -171,26 -178,81 -353,58 -119,-16 -54,202 -172,211 -68,5 -115,-45 -150,-95 -34,-48 -57,-96 -78,-94 -277,16 -614,-28 -798,237 -189,-235 -427,-320 -626,19 -30,-83 -61,-166 -91,-248 -312,212 -798,130 -1162,246 -84,-214 -298,-163 -510,-112 -102,25 -205,50 -291,44 -237,-15 -639,-395 -803,20 -27,-60 -55,-120 -83,-181 -31,50 -63,101 -94,151 -201,-254 -424,-249 -624,-18 -39,-112 -129,-177 -166,-271 -196,135 -65,247 -268,20 -121,271 -243,232 -354,-45 -198,259 -636,118 -845,-36 -147,-109 -280,-48 -402,13 -167,84 -311,167 -435,-185 -165,302 -380,220 -531,-58 -37,65 -73,129 -109,195 -84,-286 -271,-243 -445,-55 -99,-252 -684,-384 -819,-302 -157,95 -759,-196 -804,-323 -220,167 -101,151 -255,-79 -44,68 -88,137 -133,205 -14,-77 -28,-154 -43,-230 -129,-47 -229,-33 -389,93 -154,-402 -638,-94 -661,-604 -302,115 -336,-190 -575,-387 74,-162 176,-456 308,-609 191,-220 373,-127 424,-445 48,49 96,96 144,145 234,-364 613,-54 801,-528 42,59 84,119 127,177 17,-66 35,-132 53,-198 160,119 283,39 398,-40 134,-92 256,-185 414,34 17,-90 33,-179 50,-268 85,16 129,83 199,136 23,-55 46,-108 68,-161 38,58 75,114 112,172 155,-200 61,-275 263,-43 23,-59 45,-118 68,-178 37,59 73,117 110,175 156,-185 150,-167 348,-71 137,-236 154,-258 345,-121 24,-59 48,-118 72,-177 163,105 302,82 442,58 116,-19 234,-38 368,16 105,-215 666,-269 793,-71 89,-308 762,-286 972,-102 107,-211 228,-166 342,-122 83,33 162,65 231,1 45,-41 74,-6 104,28 40,47 81,94 162,-47 115,-200 167,-111 218,-22 29,50 57,101 96,100 317,-9 946,-447 1157,-57 29,-62 58,-124 87,-186 268,108 612,266 806,34 30,43 60,86 91,128 101,-108 720,-45 889,55 123,-255 233,-181 352,-108 107,66 222,133 362,-44 244,153 694,142 981,-36 90,243 916,284 1068,76 53,90 113,179 164,269 34,-79 68,-159 102,-239 25,83 51,166 76,249 66,-47 118,-137 188,-189 27,59 53,117 79,176 33,-55 67,-110 100,-164 93,180 885,230 980,102 132,161 573,327 655,205 78,-115 247,-33 400,49 105,56 202,112 257,106 36,-57 73,-114 109,-171 21,81 42,162 62,243 20,6 515,-66 505,-80 90,120 368,88 485,85 19,73 39,145 57,218 40,-61 80,-121 119,-180 19,69 38,138 57,208 155,-171 341,-50 533,72 158,100 319,200 471,137 175,-72 298,79 431,229 143,162 299,324 544,208 -4,72 -9,145 -13,217 266,-109 243,142 158,404z"/>
     <polygon class="fil14" points="18557,13363 18635,13471 18568,13547 18530,13640 18539,13809 18414,13800 18414,13998 18240,13859 18221,14042 18126,14056 18043,14095 17992,14231 17848,14082 17772,14139 17702,14217 17634,14310 17557,14374 17432,14247 17397,14487 17301,14474 17228,14562 17103,14408 17049,14592 16925,14427 16871,14616 16783,14640 16686,14603 16614,14711 16518,14681 16414,14596 16354,14776 16276,14856 16188,14867 16078,14734 16007,14865 15911,14817 15823,14831 15729,14803 15669,15021 15580,15034 15491,15040 15393,14975 15319,15100 15229,15104 15120,14936 15050,15101 14946,14977 14860,15001 14774,15038 14683,15013 14602,15103 14509,15061 14434,15219 14338,15142 14238,15029 14159,15138 14065,15090 13986,15208 13889,15120 13801,15126 13724,15275 13625,15143 13553,15364 13463,15352 13360,15163 13274,15195 13200,15410 13098,15214 13007,15183 12925,15284 12830,15198 12753,15393 12662,15359 12579,15466 12487,15413 12401,15459 12312,15466 12219,15391 12133,15457 12045,15478 11952,15392 11865,15441 11769,15294 11682,15353 11602,15540 11511,15495 11416,15333 11326,15313 11238,15326 11152,15406 11065,15455 10973,15382 10884,15370 10802,15585 10713,15591 10624,15607 10529,15398 10441,15466 10351,15404 10262,15410 10172,15374 10084,15406 9996,15460 9908,15511 9817,15453 9731,15636 9641,15535 9552,15559 9460,15398 9371,15389 9282,15459 9195,15579 9105,15655 9014,15407 8925,15512 8836,15484 8746,15506 8656,15415 8566,15459 8476,15542 8387,15441 8298,15555 8209,15567 8120,15602 8031,15585 7942,15536 7852,15653 7765,15426 7676,15409 7586,15581 7497,15507 7407,15603 7317,15644 7229,15636 7141,15509 7051,15585 6963,15504 6873,15585 6785,15532 6697,15480 6608,15491 6521,15391 6433,15364 6343,15413 6248,15605 6165,15424 6071,15575 5985,15483 5899,15379 5811,15375 5719,15439 5633,15378 5541,15437 5447,15557 5366,15376 5281,15286 5184,15470 5096,15447 5013,15306 4914,15518 4826,15484 4739,15447 4659,15262 4564,15388 4470,15458 4387,15365 4293,15444 4209,15351 4120,15338 4033,15297 3950,15184 3856,15256 3771,15193 3683,15172 3597,15132 3503,15190 3411,15224 3312,15346 3226,15298 3133,15337 3054,15204 2977,15053 2878,15162 2777,15289 2692,15235 2605,15204 2528,15071 2446,14995 2337,15190 2270,14962 2178,14984 2083,15035 1996,15013 1892,15135 1815,15021 1743,14865 1651,14887 1568,14827 1465,14938 1379,14908 1280,14970 1198,14912 1123,14803 1024,14862 940,14822 854,14792 758,14832 697,14644 603,14666 520,14623 411,14733 328,14688 269,14510 150,14665 70,14609 14,14431 -119,14635 -162,14406 -273,14498 -334,14361 -423,14354 -551,14499 -606,14346 -670,14238 -782,14303 -852,14222 -937,14187 -1044,14220 -1128,14179 -1200,14107 -1212,13895 -1342,13964 -1384,13840 -1527,13898 -1595,13813 -1576,13632 -1629,13554 -1787,13508 -1667,13363 -1705,13246 -1602,13189 -1551,13116 -1506,13028 -1479,12899 -1434,12782 -1352,12730 -1285,12646 -1152,12728 -1080,12662 -1055,12454 -911,12599 -851,12486 -767,12450 -697,12359 -569,12489 -508,12366 -409,12394 -332,12328 -264,12222 -165,12254 -110,12072 17,12248 70,12050 172,12109 272,12156 349,12077 439,12078 507,11945 587,11883 687,11943 769,11891 882,12044 932,11776 1028,11813 1131,11912 1199,11751 1311,11923 1377,11733 1464,11711 1574,11880 1642,11702 1752,11878 1823,11717 1916,11754 1999,11697 2100,11806 2171,11632 2258,11602 2343,11562 2445,11685 2517,11508 2616,11610 2708,11639 2795,11614 2872,11474 2969,11560 3054,11510 3145,11535 3228,11454 3327,11582 3401,11400 3491,11404 3586,11491 3671,11442 3766,11533 3847,11400 3928,11299 4021,11347 4120,11511 4194,11266 4285,11293 4379,11383 4469,11389 4554,11322 4639,11252 4728,11237 4821,11328 4906,11228 5000,11339 5092,11409 5172,11204 5262,11215 5356,11344 5441,11254 5528,11182 5622,11328 5708,11248 5802,11392 5889,11342 5973,11195 6061,11154 6150,11141 6245,11347 6335,11368 6420,11220 6510,11252 6600,11287 6690,11318 6778,11284 6866,11254 6952,11105 7043,11190 7131,11095 7220,11113 7310,11100 7402,11290 7489,11104 7579,11190 7669,11216 7757,11190 7847,11169 7936,11154 8027,11319 8116,11235 8206,11255 8295,11138 8386,11266 8476,11150 8565,11180 8654,11162 8742,11331 8831,11337 8920,11320 9009,11267 9098,11241 9187,11231 9275,11321 9366,11132 9456,11129 9544,11166 9633,11169 9719,11353 9809,11284 9898,11285 9989,11169 10075,11295 10165,11262 10256,11176 10342,11301 10433,11203 10520,11277 10611,11232 10702,11178 10787,11283 10878,11225 10970,11133 11051,11373 11142,11313 11230,11346 11317,11406 11411,11258 11503,11188 11589,11260 11678,11273 11766,11300 11855,11297 11940,11381 12038,11209 12119,11374 12202,11478 12304,11239 12380,11488 12475,11367 12568,11300 12647,11475 12747,11311 12828,11440 12913,11513 13000,11559 13106,11312 13194,11333 13275,11456 13371,11368 13457,11416 13535,11569 13623,11596 13727,11413 13809,11511 13894,11568 13981,11592 14066,11642 14163,11566 14248,11619 14330,11695 14434,11541 14525,11532 14613,11551 14687,11711 14774,11732 14861,11763 14962,11659 15039,11773 15148,11602 15210,11844 15310,11757 15384,11896 15476,11870 15571,11832 15677,11714 15753,11817 15850,11765 15925,11877 16025,11808 16100,11915 16200,11850 16257,12068 16376,11888 16433,12096 16551,11933 16629,12009 16717,12024 16786,12142 16889,12078 16954,12215 17024,12314 17115,12310 17238,12167 17309,12260 17386,12326 17489,12284 17581,12288 17664,12329 17733,12425 17773,12606 17848,12665 17966,12593 18044,12645 18091,12774 18182,12786 18288,12775 18412,12742 18399,12959 18568,12884 18619,12997 18581,13172 18591,13274 "/>
     <path class="fil13" d="M7531 12054c21,-71 44,-142 67,-212l3 -11 12 0c30,1 60,1 90,4l7 0 6 8 99 124 -37 -3 81 -96 0 0 4 -3c27,-26 56,-50 84,-75l25 -22 22 31 97 143 -53 -8 86 -80 29 -28 24 37 95 143 -48 -14 88 -50 -16 16 86 -145 7 -12 10 -4 88 -39 5 -2 4 -1 89 -9 22 -3 10 23 87 211 -16 -14 89 27 -19 9 93 -139 5 -7 5 2c29,14 58,29 88,44 -31,-8 -62,-14 -93,-22l9 -5 -76 156 -6 12 -13 -3 -90 -14 -10 -2 -7 -13 -102 -200 31 20 -88 17 8 -3 -87 44 17 -17 -82 148 -6 10 -9 7 -87 51 -28 16 -20 -30 -94 -144 54 8 -86 79 -31 27 -22 -36 -92 -148 47 9c-29,23 -58,46 -88,68l3 -3 -88 86 -22 21 -16 -24 -90 -134 14 8c-30,-5 -60,-13 -89,-19l14 -11c-30,66 -60,132 -93,196z"/>
     <path class="fil13" d="M6032 14082c24,-38 49,-75 74,-112l4 -6 9 3 95 38 4 2 4 7 107 156 -51 10c21,-84 43,-166 67,-249l10 -38 33 9 91 24 8 2 7 8 95 89 -22 -10 89 6 -23 7 172 -133 8 -6 7 -1 89 -12 15 -2 10 11 90 97 -36 2 88 -93 17 -18 13 18c30,38 58,80 87,120l-2 -2c30,26 59,54 87,82 -33,-18 -65,-38 -98,-57l0 0 -2 -2c-34,-34 -69,-66 -102,-102l30 0 -80 106 -15 20 -21 -17 -98 -85 26 9 -89 17 16 -7c-54,49 -113,97 -170,141l-10 9 -13 -1 -89 -5 -13 -1 -10 -10 -93 -91 14 8 -90 -28 44 -30c-26,81 -53,162 -82,241l-22 62 -28 -52 -93 -171 8 8 -88 -58 12 -3c-29,30 -59,61 -90,90z"/>
     <path class="fil13" d="M4078 12538c32,5 63,9 95,16l-5 0 85 -36 -11 10 70 -146 13 -29 25 20 100 80 -33 -4 84 -54 10 -6 13 3 92 22 -32 9 82 -81 27 -28 26 32c33,42 66,85 98,129l-64 11c26,-60 51,-121 78,-180l12 -28 22 2 90 8 11 1 7 7 92 93 -29 -4 88 -42 14 -7 10 10c30,33 59,67 89,101l-19 3c30,-41 59,-82 91,-122 -22,49 -46,96 -70,143l-6 13 -13 -9c-34,-27 -67,-53 -100,-81l23 4 -83 55 -14 9 -15 -13 -98 -81 19 8 -90 -1 35 -25c-23,61 -48,122 -73,183l-24 62 -40 -50c-33,-42 -66,-84 -99,-128l53 5 -83 79 -15 14 -16 -5 -91 -27 23 -4 -87 47 -19 10 -14 -13 -94 -92 39 -8 -84 132 -6 9 -6 0 -88 15 -4 1 -1 -1c-30,-12 -60,-26 -90,-41z"/>
     <path class="fil13" d="M2661 14088c42,53 83,106 123,160l-23 4c19,-65 37,-130 57,-194l4 -13 12 -4 87 -26 14 -4 11 15 116 164 -56 8 65 -179 24 -68 38 59 112 173 -65 7 70 -162 16 -36 31 12 93 38 -30 4 83 -57 24 -17 20 23 100 111 -58 14 75 -172 7 -17 14 -4 87 -26 -2 1 86 -35 17 -7 11 14 97 128 -32 7 81 -171 7 -14 9 10c31,36 62,75 92,113 -35,-30 -70,-61 -105,-92l16 -4 -64 183 -11 30 -21 -24 -106 -117 28 7 -85 44 0 -1 -2 2 -85 35 21 -21 -68 175 -21 52 -37 -38 -102 -107 44 6 -82 58 -15 10 -16 -6 -94 -37 47 -24 -71 160 -29 66 -36 -59 -109 -176 63 -9 -72 175 -24 61 -32 -52 -105 -175 26 12 -88 17 16 -17c-22,62 -48,123 -73,185l-10 25 -13 -21c-34,-60 -69,-120 -102,-182z"/>
     <path class="fil13" d="M279 13063c11,-68 25,-136 38,-204l4 -19 17 7c35,16 69,31 103,48l103 42 -28 6 74 -84 8 -9 13 0 90 -3 -30 21 65 -135 5 -9 8 -6 80 -63 17 -14 20 11 100 59 -35 1 82 -51 27 -16 20 27c38,51 74,102 111,155l-63 21c18,-89 38,-178 59,-266l9 -38 27 13 94 43 4 3 3 2c33,34 65,71 97,107l-20 6c26,-51 52,-102 80,-151 -17,56 -37,112 -56,167l-6 17 -14 -11c-37,-29 -74,-57 -109,-88l7 4 -97 -31 36 -26c-14,90 -27,181 -43,271l-14 82 -48 -61c-39,-50 -77,-100 -115,-150l47 10 -82 53 -17 11 -18 -11 -100 -60 38 -2 -81 61 13 -16 -71 131 -11 21 -19 -1 -90 -3 21 -10 -80 74 -14 14 -14 -8 -102 -57c-32,-20 -65,-43 -96,-65l20 -12c-22,65 -43,129 -67,192z"/>
     <path class="fil13" d="M10683 14082c-31,-29 -61,-60 -91,-90l13 3 -89 58 8 -8 -92 171 -28 52 -22 -62c-29,-79 -56,-160 -82,-241l43 30 -90 28 15 -8 -94 91 -9 10 -13 1 -89 5 -13 1 -11 -9c-57,-44 -115,-92 -169,-141l15 7 -88 -17 25 -9 -97 85 -21 17 -16 -20 -79 -106 29 0c-33,36 -68,68 -102,102l-1 2 -1 0c-32,19 -64,39 -98,57 29,-28 58,-56 87,-82l-2 2c29,-40 58,-82 88,-120l13 -18 16 18 89 93 -36 -2 90 -97 9 -11 16 2 89 12 7 1 8 6 171 133 -22 -7 89 -6 -22 10 94 -89 8 -8 7 -2 91 -24 33 -9 11 38c23,83 46,165 66,249l-50 -10 106 -156 5 -7 3 -2 96 -38 8 -3 5 6c25,37 50,74 74,112z"/>
     <path class="fil13" d="M12636 12538c-29,15 -59,29 -89,41l-2 1 -3 -1 -89 -15 -5 0 -6 -9 -85 -132 39 8 -94 92 -14 13 -19 -10 -86 -47 23 4 -91 27 -17 5 -15 -14 -83 -79 53 -5c-32,43 -65,86 -99,128l-39 50 -25 -62c-24,-61 -49,-122 -72,-183l34 25 -89 1 19 -8 -99 81 -15 13 -14 -9 -83 -55 24 -4c-33,28 -67,54 -101,81l-12 9 -7 -13c-23,-47 -47,-94 -69,-143 31,40 61,81 91,122l-20 -3c30,-34 59,-68 90,-101l9 -10 14 7 88 42 -29 4 92 -93 8 -7 11 -1 89 -8 23 -2 12 28c27,59 52,120 77,180l-64 -11c33,-44 65,-87 99,-129l26 -32 27 28 82 81 -32 -9 92 -22 13 -3 10 6 83 54 -33 4 100 -80 25 -20 14 29 69 146 -11 -10 86 36 -5 0c31,-7 63,-11 94,-16z"/>
     <path class="fil13" d="M14053 14088c-33,62 -67,122 -102,182l-12 21 -10 -25c-25,-62 -51,-123 -74,-185l17 17 -88 -17 25 -12 -105 175 -31 52 -25 -61 -71 -175 62 9 -108 176 -36 59 -29 -66 -72 -160 47 24 -93 37 -16 6 -15 -10 -83 -58 44 -6 -102 107 -36 38 -21 -52 -68 -175 21 21 -86 -35 -2 -1 0 0 -84 -44 27 -7 -105 117 -22 24 -11 -30 -63 -183 16 4c-35,31 -70,62 -106,92 31,-38 61,-77 93,-113l9 -10 6 14 82 171 -33 -7 98 -128 10 -14 17 7 87 35 -2 -1 87 26 14 4 7 17 74 172 -57 -14 99 -111 20 -23 25 17 83 57 -31 -4 93 -38 32 -12 16 36 70 162 -66 -7 112 -173 38 -59 25 68 64 179 -56 -8 117 -164 11 -15 14 4 86 26 13 4 4 13c20,64 38,129 56,194l-22 -4c40,-54 80,-107 122,-160z"/>
     <path class="fil13" d="M16436 13063c-24,-63 -46,-127 -68,-192l21 12c-32,22 -64,45 -97,65l-101 57 -14 8 -14 -14 -80 -74 21 10 -90 3 -19 1 -12 -21 -70 -131 12 16 -80 -61 37 2 -99 60 -18 11 -18 -11 -81 -53 46 -10c-37,50 -76,100 -114,150l-49 61 -14 -82c-16,-90 -29,-181 -42,-271l35 26 -97 31 7 -4c-35,31 -72,59 -108,88l-15 11 -6 -17c-19,-55 -38,-111 -56,-167 28,49 54,100 80,151l-20 -6c33,-36 64,-73 98,-107l2 -2 5 -3 94 -43 26 -13 9 38c21,88 41,177 60,266l-63 -21c36,-53 73,-104 111,-155l19 -27 27 16 82 51 -35 -1 100 -59 20 -11 18 14 80 63 8 6 4 9 66 135 -31 -21 91 3 13 0 8 9 74 84 -28 -6 103 -42c34,-17 68,-32 102,-48l17 -7 4 19c13,68 28,136 39,204z"/>
     <path class="fil15" d="M4160 13656c-119,0 -250,-51 -393,-161 -238,-183 -810,-247 -1130,-274 -37,-4 -73,-5 -108,-5 -160,0 -305,29 -451,58 -145,29 -290,58 -448,58 -23,0 -46,-1 -69,-2 -421,-23 -626,-214 -1047,-279 -75,-11 -150,-16 -224,-16 15,-44 30,-87 45,-130 1,0 1,0 2,0 6,0 12,-1 18,-2 22,16 45,31 67,45l102 57 14 8 14 -14 69 -64 80 3 19 1 11 -21 16 -29c151,186 452,261 812,261 189,0 395,-21 604,-57l0 0c5,-32 8,-63 11,-95 122,-27 253,-59 396,-94 493,92 796,383 1234,436l-1 2c57,41 116,99 189,153 239,-68 383,-363 451,-564 45,-131 69,-223 -5,-223 -11,0 -25,2 -40,6 -110,87 -302,229 -382,231 -214,-59 -781,-743 -1315,-775 -48,-3 -97,-6 -147,-8 4,-2 8,-4 11,-5 48,-122 279,-197 450,-237 132,13 266,31 403,55 251,405 581,472 860,478l-33 69 -75 31c-31,-6 -61,-10 -92,-15 30,15 60,29 90,41l1 1 4 -1 88 -15 6 0 6 -9 65 -102c1,0 2,0 3,0l71 70 14 13 19 -10 75 -40 80 24 16 5 15 -14 50 -47c3,1 6,1 10,2 23,30 46,60 69,89l40 50 21 -54c21,47 22,117 -1,221 -123,538 -347,894 -660,894zm-3974 -621c30,-46 54,-94 73,-143 19,3 36,6 50,9 -9,45 -18,89 -25,133 -11,0 -21,0 -31,0 -23,0 -45,1 -67,1zm341 -104l-86 -36c-8,-4 -16,-8 -24,-12 80,-42 159,-141 186,-272 9,-43 39,-165 80,-330 3,-2 7,-3 11,-5 -36,110 -52,207 -52,294 0,94 19,175 55,244l-16 34 -70 2 -13 0 -8 9 -63 72z"/>
     <path class="fil16" d="M4800 12595l-40 -50c-23,-29 -46,-59 -69,-89 62,11 107,35 130,85l-21 54zm-631 -15l-1 -1c-30,-12 -60,-26 -90,-41 31,5 61,9 92,15l75 -31 33 -69c15,0 29,0 43,0 6,0 11,0 17,0l-65 102 -6 9 -6 0 -88 15 -4 1zm257 -44l-14 -13 -71 -70c39,0 76,-1 112,-2 42,-2 82,-3 118,-3 41,0 77,1 110,6l-50 47 -15 14 -16 -5 -80 -24 -75 40 -19 10z"/>
     <path class="fil16" d="M290 13035c-2,0 -4,0 -6,-1 7,-44 16,-88 25,-133 0,1 1,1 1,1 8,2 16,3 25,3 -15,43 -30,86 -45,130zm248 -22l-14 -8 -102 -57c-22,-14 -45,-29 -67,-45 20,-2 41,-9 62,-20 8,4 16,8 24,12l86 36 63 -72 8 -9 13 0 70 -2 16 -34c14,26 31,52 50,75l-16 29 -11 21 -19 -1 -80 -3 -69 64 -14 14z"/>
     <path class="fil15" d="M16442 13422c-295,0 -591,-11 -884,-11 -167,0 -331,4 -494,4 -380,0 -751,-18 -1115,-139 -548,-181 -632,-521 -162,-721 -7,29 -13,58 -16,85 -23,216 200,440 418,470 24,4 68,7 125,9 73,60 160,103 245,115 101,14 514,20 943,20 490,0 1000,-8 1086,-20l0 0c53,-52 129,-69 208,-69 153,0 316,66 334,70 7,2 13,3 20,3 21,0 44,-8 67,-20 35,-19 69,-48 97,-76 -15,-73 -131,-209 -194,-254 -16,-12 -38,-26 -62,-41 157,66 314,127 370,127 5,0 9,-1 12,-2 -11,4 -24,8 -36,12 469,298 -323,417 -522,427 -146,8 -293,11 -440,11z"/>
     <path class="fil15" d="M11554 15243c-557,0 -1046,-79 -1566,-251 -486,-161 -607,-446 -301,-648 24,79 84,156 160,215 132,103 321,169 497,176 5,0 10,0 15,0 52,0 122,-8 196,-18 13,39 27,75 41,106 0,0 1,1 1,1 2,1 5,2 7,3 1,1 2,1 2,1 0,0 1,0 1,1 0,0 0,0 0,0 1,0 2,1 3,1 431,199 942,271 1384,271 0,0 0,0 0,0l0 0c0,0 0,0 0,0 503,0 917,-93 1023,-197 1,-1 1,-1 1,-1 0,0 0,0 0,0 1,-1 1,-1 1,-2 1,0 1,0 1,0 0,0 0,-1 1,-1 57,-60 97,-178 119,-320 142,59 276,109 327,109 5,0 9,0 12,-1 -11,4 -24,7 -36,12 469,297 -323,416 -522,427 -438,24 -928,116 -1367,116zm-1062 -779l-596 -221c4,-1 7,-2 11,-3 101,-36 204,-65 309,-90 79,80 175,177 269,272 2,14 4,28 7,42z"/>
     <path class="fil15" d="M5984 15289c-419,0 -887,-92 -1306,-116 -184,-11 -900,-123 -536,-400 60,131 153,242 291,293l0 0c135,50 446,69 734,69 165,0 323,-6 436,-17 310,-29 587,-143 873,-277 286,-133 764,-295 888,-391l0 0c57,-44 106,-110 139,-184 19,6 37,13 56,19 533,195 474,562 -78,753 -497,171 -964,251 -1497,251z"/>
     <path class="fil17" d="M16226 12399c23,-19 48,-36 71,-47 88,34 133,123 180,155 49,32 233,151 308,227 76,76 145,200 148,248 -11,15 -28,35 -46,53 -15,-72 -130,-209 -194,-254 -63,-46 -211,-125 -261,-181 -52,-57 -169,-140 -206,-201z"/>
     <path class="fil18" d="M16226 12399c37,61 154,144 206,201 50,56 198,135 261,181 64,45 179,182 194,254 -28,28 -63,57 -97,77 -30,14 -60,23 -87,16 -28,-6 -384,-153 -541,-1 -175,-150 -108,-531 -108,-531 28,-56 98,-142 172,-197z"/>
     <path class="fil17" d="M16653 12505c24,-19 48,-35 71,-46 87,33 133,123 180,154 48,32 233,152 309,228 75,76 144,199 148,247 -12,16 -29,36 -47,54 -15,-73 -131,-209 -194,-254 -63,-46 -211,-126 -261,-181 -52,-57 -169,-140 -206,-202z"/>
     <path class="fil18" d="M16653 12505c37,62 154,145 206,202 50,55 198,135 261,181 63,45 179,181 194,254 -28,28 -62,57 -97,76 -30,15 -60,24 -87,17 -28,-6 -385,-153 -542,-1 -174,-150 -107,-532 -107,-532 28,-55 98,-141 172,-197z"/>
     <path class="fil19" d="M13771 12640c-23,216 200,440 418,470 215,31 1867,24 2029,0 51,-80 36,-294 19,-433 -9,-76 -19,-130 -19,-130 0,0 -138,8 -208,0 217,-185 132,-587 72,-699l-736 51c0,0 -810,76 -1088,185 -309,61 -463,340 -487,556z"/>
     <path class="fil20" d="M14902 10303c-95,271 -278,920 -358,1126 -80,206 -236,519 -348,609 -113,91 -356,-12 -435,209 -78,221 16,411 130,270 115,-140 224,-84 329,-111 105,-27 175,-146 303,-234 128,-88 409,-361 542,-531 132,-170 394,-916 440,-1148 45,-233 -508,-460 -603,-190z"/>
     <path class="fil21" d="M14142 12763c-24,216 200,440 417,471 215,31 1868,23 2029,0 51,-81 36,-294 19,-433 -9,-76 -55,-211 -55,-211 0,0 -102,88 -172,81 218,-186 132,-587 73,-699l-736 50c0,0 -811,77 -1088,186 -309,61 -464,339 -487,555z"/>
     <path class="fil22" d="M15130 10423c288,-4 625,-346 703,-423 -38,-10 -44,-108 -44,-200 1,-60 5,-117 5,-148l-633 100c0,0 -16,148 -16,294 -28,6 -55,16 -80,30 -14,7 -28,15 -41,24 -29,101 -103,328 106,323z"/>
     <path class="fil23" d="M14629 12208c339,107 1513,99 1852,-264 -31,-107 -139,-764 -254,-1297 -116,-532 -333,-632 -394,-647 -78,77 -415,419 -703,424 -209,3 -135,-223 -106,-324 -37,0 -138,34 -172,69 -42,68 -84,267 -116,355 -93,256 -100,1335 -107,1684z"/>
     <path class="fil22" d="M15963 10370c-136,-81 -385,0 -517,255 -131,255 -401,872 -509,1065 -108,193 -305,482 -429,555 -124,74 -351,-61 -459,147 -108,209 -42,410 91,286 133,-123 233,-53 341,-65 109,-12 193,-120 332,-190 139,-69 456,-301 610,-451 155,-151 517,-853 595,-1077 77,-224 77,-448 -55,-525z"/>
     <path class="fil24" d="M15372 12931c-297,0 -533,-29 -598,-68 49,3 110,4 180,4 139,0 313,-4 492,-4 271,0 734,-100 934,-192 3,0 6,0 9,0 69,0 163,-81 163,-81 0,0 46,135 55,211 -147,15 -309,37 -474,66 -255,46 -527,64 -761,64z"/>
     <path class="fil25" d="M15145 10046c0,-40 1,-79 3,-116 192,-5 446,-75 642,-169 0,13 0,26 -1,39l0 0c-211,144 -420,246 -644,246z"/>
     <path class="fil22" d="M14777 7761c-107,81 -275,255 -270,467 5,212 4,414 0,537 -5,122 -80,367 -61,565 19,197 353,556 579,593 226,38 636,-75 876,-221 240,-146 344,-401 381,-626 38,-226 -9,-909 -113,-1084 -103,-174 -409,-410 -730,-410 -320,0 -523,76 -662,179z"/>
     <path class="fil26" d="M15788 8963c0,128 -103,165 -212,165 -108,0 -207,-61 -212,-165 -8,-179 95,-231 212,-231 62,0 117,21 155,64 31,32 51,79 56,138 1,9 1,19 1,29z"/>
     <path class="fil7" d="M15787 8934c-8,75 -68,133 -140,133 -78,0 -142,-68 -142,-151 0,-83 64,-151 142,-151 32,0 61,11 84,31 31,32 51,79 56,138z"/>
     <path class="fil18" d="M15722 8916c0,42 -34,76 -75,76 -42,0 -76,-34 -76,-76 0,-41 34,-75 76,-75 41,0 75,34 75,75z"/>
     <path class="fil18" d="M15595 8761c53,0 101,13 141,39 -39,-45 -96,-68 -160,-68 -117,0 -212,52 -212,231l1 15c5,-168 106,-217 230,-217z"/>
     <path class="fil27" d="M15716 8888c-9,-23 -29,-40 -53,-45 6,-6 14,-9 22,-9 20,0 36,17 36,36 0,6 -2,12 -5,18z"/>
     <path class="fil28" d="M15685 8906c-19,0 -35,-16 -35,-36 0,-11 5,-21 13,-27 24,5 44,22 53,45 -6,11 -17,18 -31,18z"/>
     <path class="fil26" d="M14891 8898c0,127 -68,185 -195,162 -88,-15 -128,-68 -128,-162 0,-127 72,-229 161,-229 90,0 162,102 162,229z"/>
     <path class="fil18" d="M14735 8699c57,0 106,36 137,91 -28,-73 -81,-121 -143,-121 -89,0 -161,102 -161,229l0 8c3,-114 77,-207 167,-207z"/>
     <path class="fil7" d="M14891 8879c0,75 -51,136 -114,136 -62,0 -113,-61 -113,-136 0,-75 51,-135 113,-135 63,0 114,60 114,135z"/>
     <path class="fil18" d="M14857 8879c0,33 -26,60 -58,60 -33,0 -59,-27 -59,-60 0,-32 26,-59 59,-59 32,0 58,27 58,59z"/>
     <path class="fil27" d="M14856 8871c-3,-26 -23,-46 -48,-51 6,-3 12,-5 19,-5 20,0 36,16 36,36 0,7 -3,14 -7,20z"/>
     <path class="fil28" d="M14827 8887c-20,0 -35,-16 -35,-36 0,-13 6,-24 16,-31 25,5 45,25 48,51 -6,9 -17,16 -29,16z"/>
     <path class="fil29" d="M14923 8413l7 -20c11,-30 -5,-62 -36,-64 -28,-3 -98,-9 -140,4 -91,27 -113,99 -118,131 45,-14 154,10 227,2 30,-4 50,-24 60,-53z"/>
     <path class="fil29" d="M15381 8425c0,-34 13,-72 52,-80 50,-11 112,1 157,18 100,36 119,108 121,141 -49,-18 -173,-4 -254,-19 -34,-7 -76,-17 -76,-60z"/>
     <path class="fil30" d="M14971 9382c-38,-15 -65,-58 -58,-103 3,-22 14,-43 31,-58 20,-15 40,-20 61,-25 41,-7 82,-5 122,7 39,11 79,35 94,72 -26,-31 -63,-42 -99,-49 -37,-6 -76,-7 -112,-1 -17,3 -36,10 -47,17 -14,10 -23,26 -27,42 -9,33 3,73 35,98z"/>
     <path class="fil31" d="M14872 9502c40,61 125,120 200,120 75,0 146,11 266,-60 -71,-21 -329,-32 -466,-60z"/>
     <path class="fil32" d="M14590 8032c-82,155 -22,436 -81,637 -154,-228 -188,-523 -131,-686 57,-162 439,-682 1040,-665 601,16 895,218 1030,439 212,345 222,724 84,1008 -138,284 -404,187 -420,366 0,-382 -20,-669 -118,-750 0,9 -40,220 -48,276 -41,-113 -179,-333 -309,-308 -130,24 -219,-41 -317,-65 82,32 94,122 185,146 -193,16 -453,16 -591,-57 -137,-73 -284,-219 -324,-341z"/>
     <path class="fil22" d="M16256 8912c28,-45 120,-90 160,-28 39,61 56,267 -32,388 -104,144 -182,150 -215,110 -33,-40 87,-470 87,-470z"/>
     <path class="fil30" d="M16364 9025c-2,-29 -27,-53 -51,-47 -25,3 -50,22 -60,54 -9,28 -14,66 -1,95 14,28 35,43 54,57l-4 -9c-1,16 -12,36 -23,53 -11,17 -23,34 -38,47 16,-10 31,-23 45,-38 13,-17 27,-33 32,-62l1 -5 -5 -4c-18,-15 -36,-31 -45,-52 -9,-21 -8,-47 0,-73 7,-23 24,-42 45,-47 19,-7 43,2 50,31z"/>
     <path class="fil33" d="M4821 11328l-93 -91 -42 7c6,-46 44,-92 124,-136 9,53 26,110 56,167l-45 53z"/>
     <path class="fil15" d="M6410 12840c-266,0 -526,-56 -677,-218 -190,-203 -122,-449 66,-608 -196,-245 -1143,-516 -1113,-770l42 -7 93 91 45 -53c96,183 322,371 809,464l0 0c95,18 189,34 282,46 16,23 48,43 76,49 4,1 7,2 10,2 11,2 22,3 32,4 -10,8 -20,15 -29,23 -8,7 -16,13 -23,20 -1,1 -1,1 -2,1 -6,6 -12,12 -18,18 -3,3 -5,5 -7,8 -5,4 -9,9 -13,14 -17,18 -31,38 -44,58 -7,12 -14,24 -20,37 -34,73 -43,159 -13,260 64,212 225,269 392,269 0,0 0,0 0,0 89,0 179,-16 257,-33 88,-19 256,-92 445,-180 7,-3 14,-6 21,-9l0 0c266,-123 568,-270 738,-336l16 24 16 24 22 -21 63 -62c33,-7 70,-13 111,-20l44 70 22 36 31 -27 56 -51 70 108 20 30 28 -16 87 -51 9 -7 6 -10 71 -128c54,-4 110,-8 166,-12l66 131 7 13 10 2 90 14 13 3 6 -12 71 -144c12,1 25,2 38,3 17,4 34,8 51,12 -7,-3 -13,-7 -19,-10 271,21 514,48 627,86 158,53 491,217 782,351 197,92 375,169 466,189 1,0 2,0 3,0 0,0 0,0 0,0 78,17 166,33 253,33 0,0 0,0 0,0l0 0c0,0 1,0 1,0 108,0 214,-24 292,-99 -4,71 -4,137 0,197 3,36 5,78 7,123 -37,3 -76,5 -117,5 -683,0 -1807,-485 -2424,-536 -48,-4 -96,-6 -143,-6 -574,0 -1023,288 -1540,483 -173,65 -453,125 -727,125zm5014 -852c-34,-57 -83,-106 -139,-148 10,-1 21,-2 31,-4 6,0 13,-2 19,-4 26,-8 53,-26 68,-47 25,-3 51,-7 76,-11 -21,73 -39,145 -55,214zm-2658 -2l-66 -20 -39 -93c6,0 13,-1 19,-1 52,3 104,7 156,10l-70 104zm-514 -10l-44 -67c40,-4 81,-8 124,-12l-30 51 -50 28z"/>
     <path class="fil16" d="M8230 12101l-20 -30 -70 -108 -56 51 -31 27 -22 -36 -44 -70c65,-9 140,-18 221,-26l44 67 50 -28 30 -51c32,-2 66,-5 99,-8l-71 128 -6 10 -9 7 -87 51 -28 16zm553 -61l-13 -3 -90 -14 -10 -2 -7 -13 -66 -131c21,-1 43,-2 64,-4l39 93 66 20 70 -104c8,1 16,2 24,2l-71 144 -6 12zm-992 -2l-16 -24 -16 -24c15,-6 30,-11 43,-15l1 0c20,-7 45,-14 73,-20l-63 62 -22 21zm1158 -139c-17,-4 -34,-8 -51,-12 11,1 22,2 32,2 6,3 12,7 19,10z"/>
     <path class="fil34" d="M11232 10140c-471,-76 -1926,-95 -2535,-95 -609,0 -2064,19 -2535,95 -472,75 -1122,469 -1122,862 0,393 2910,825 3657,825 747,0 3657,-432 3657,-825 0,-393 -650,-787 -1122,-862z"/>
     <path class="fil35" d="M11095 11115c3,62 -1,126 -10,190 -3,17 -5,35 -9,53 -1,5 -2,13 -3,20 -8,47 -20,93 -33,135 -2,8 -5,16 -8,24 -10,30 -19,57 -31,83 -21,49 -46,93 -72,128 -13,17 -26,32 -39,44 -13,13 -27,23 -41,30l-1 0 -8 5 -12 0c-101,3 -289,-1 -501,-5 -317,-7 -689,-13 -903,5 -363,30 -1356,59 -1621,148l-1 0c-158,54 -491,217 -781,351 -197,92 -375,169 -466,189 -226,49 -551,88 -648,-236 -18,-58 -23,-111 -16,-159 1,-14 4,-28 7,-40 3,-11 6,-22 10,-32 9,-28 22,-54 40,-78 7,-11 14,-21 23,-32 9,-10 17,-21 27,-31 8,-8 16,-16 24,-23 7,-7 16,-14 24,-21 9,-9 20,-16 30,-24 18,-13 37,-26 57,-39 20,-11 40,-24 60,-35l9 -5c37,-21 73,-38 109,-54 13,-6 26,-11 38,-17 18,-8 42,-16 72,-24l1 -2c194,-61 615,-147 998,-215 271,-48 522,-88 658,-102 153,-18 584,-148 1060,-295l2 0c617,-188 1310,-399 1572,-413l12 0c264,-7 365,220 371,477z"/>
     <path class="fil36" d="M6298 12548c0,0 0,0 0,0 89,0 179,-16 257,-33 88,-19 256,-92 445,-180 -189,88 -357,161 -445,180 -78,17 -168,33 -257,33zm483 -194c1,-1 1,-1 2,-1 72,-29 153,-66 238,-106 265,-123 564,-269 735,-335 16,-6 33,-12 47,-17 66,-22 178,-40 314,-56 159,10 360,20 563,33 -6,0 -13,1 -19,1 -21,2 -43,3 -64,4 -56,4 -112,8 -166,12 -33,3 -67,6 -99,8 -43,4 -84,8 -124,12 -81,8 -156,17 -221,26 -41,7 -78,13 -111,20 -28,6 -53,13 -73,20l-1 0c-13,4 -28,9 -43,15 -170,66 -472,213 -738,336l0 0c-91,16 -170,25 -240,28z"/>
     <path class="fil37" d="M7021 12326c-197,92 -375,169 -466,189 -226,49 -551,88 -649,-236 -99,-324 216,-490 442,-590 18,-8 43,-16 73,-24 -210,154 -172,378 -142,457 30,79 118,314 742,204z"/>
     <path class="fil38" d="M11685 11739c-110,21 -218,39 -325,52 129,-184 187,-456 177,-674 -10,-219 -206,-538 -353,-623 271,-67 529,-99 724,-84 307,22 582,166 641,527 36,213 -39,645 -864,802z"/>
     <path class="fil39" d="M10850 11816c118,-273 53,-962 -120,-1169 -21,-26 -18,-50 12,-61 128,-45 260,-86 388,-119 32,-8 80,-1 105,20 148,123 318,418 328,627 9,213 -42,473 -156,665 -17,29 -58,53 -91,57 -152,18 -299,29 -435,31 -33,1 -44,-21 -31,-51z"/>
     <path class="fil40" d="M11285 11840l0 0c10,-1 21,-2 31,-4 6,0 12,-2 19,-4 -6,2 -13,4 -19,4 -10,2 -21,3 -31,4z"/>
     <path class="fil41" d="M11404 11784c1,-1 2,-3 3,-5 23,-38 43,-79 61,-122 18,-2 34,-4 48,-6 -13,41 -25,82 -37,123 -25,4 -50,7 -75,10z"/>
     <path class="fil42" d="M11285 11840c-53,-40 -112,-73 -169,-102 65,-5 132,-12 200,-20 31,-3 133,-34 151,-61 0,0 0,0 1,0 -18,43 -38,84 -61,122 -1,2 -2,4 -3,5 -1,0 -1,0 -1,0 -15,21 -42,40 -68,48 -7,2 -13,4 -19,4 -10,2 -21,3 -31,4z"/>
     <path class="fil36" d="M10894 11650c-370,-106 -1299,-270 -1612,-304 -102,-12 -324,-73 -601,-156 141,-42 296,-89 457,-139l2 0c-318,221 1036,434 1637,434 48,0 91,-2 128,-4 1,17 2,36 1,54 -2,40 -6,79 -12,115z"/>
     <path class="fil43" d="M10899 11652c-1,-1 -3,-1 -5,-2 6,-36 10,-75 12,-115 0,41 -3,81 -7,117z"/>
     <path class="fil35" d="M6520 11827c97,3 291,-1 511,-5 318,-6 690,-12 905,5 363,30 1356,59 1621,148 158,53 491,217 782,351 197,92 375,169 466,189 226,49 550,88 648,-236 99,-324 -215,-490 -442,-590 -18,-8 -42,-16 -72,-24l-1 -2c-334,-105 -1330,-282 -1656,-317 -354,-40 -2170,-685 -2634,-708 -590,-29 -393,1071 -128,1189z"/>
     <path class="fil44" d="M11061 12548l0 0c0,0 1,0 1,0 0,0 -1,0 -1,0zm0 0c-87,0 -175,-16 -253,-33 78,17 166,33 253,33zm-253 -33c-1,0 -2,0 -3,0 -91,-20 -269,-97 -466,-189 -291,-134 -624,-298 -782,-351 -113,-38 -356,-65 -627,-86l0 0c271,21 514,48 627,86 158,53 491,217 782,351 197,92 375,169 466,189 1,0 2,0 3,0z"/>
     <path class="fil36" d="M6615 11828l0 0c11,0 23,0 36,0 -13,0 -25,0 -36,0zm-1 0c-34,0 -64,0 -88,-1 24,1 54,1 88,1zm103 -1c2,0 5,0 7,0 -2,0 -5,0 -7,0zm38 0c8,0 16,0 25,0 -9,0 -17,0 -25,0zm-235 0l0 0c-2,-1 -5,-3 -8,-4 0,0 0,0 0,0 3,1 6,3 8,4l0 0zm1414 0c-1,0 -1,0 -2,0 1,0 1,0 2,0zm-1146 -1c74,-1 157,-2 243,-4 49,-1 100,-2 150,-3 -50,1 -101,2 -150,3 -86,2 -169,3 -243,4zm1142 0c-103,-8 -240,-10 -389,-10 149,0 286,2 389,10zm-408 -10c4,0 8,0 12,0l0 0c-4,0 -8,0 -12,0z"/>
     <path class="fil36" d="M11061 12548c0,0 0,0 0,0 -87,0 -175,-16 -253,-33 0,0 0,0 0,0 -1,0 -2,0 -3,0 -91,-20 -269,-97 -466,-189 -291,-134 -624,-298 -782,-351 -113,-38 -356,-65 -627,-86 -10,0 -21,-1 -32,-2 -13,-1 -26,-2 -38,-3 -8,0 -16,-1 -24,-2 -52,-3 -104,-7 -156,-10 -203,-13 -404,-23 -563,-33 -70,-4 -132,-8 -181,-12l0 0c-1,0 -2,0 -2,0 -1,0 -1,0 -2,0 -1,0 -1,0 -2,-1 -103,-8 -240,-10 -389,-10 -3,0 -5,0 -7,0l0 0c-4,0 -8,0 -12,0 -110,0 -227,1 -341,3 -50,1 -101,2 -150,3 -86,2 -169,3 -243,4 -2,1 -5,1 -8,1 -9,0 -17,0 -25,0 -11,0 -21,0 -31,0 -2,0 -5,0 -7,0 -23,1 -45,1 -66,1 -13,0 -25,0 -36,0 0,0 -1,0 -1,0 -34,0 -64,0 -88,-1 -2,0 -4,0 -6,0l0 0c-2,-1 -5,-3 -8,-4 0,-1 0,-2 -1,-3 0,0 0,-1 0,-1 -1,-1 -1,-2 -1,-3l0 0c-9,-20 -17,-43 -23,-68l-1 0c-2,-8 -4,-17 -6,-25 13,11 26,20 40,26 25,0 55,1 91,1 104,0 252,-3 415,-6 163,-4 341,-7 504,-7 157,0 300,3 406,12 363,29 1356,59 1621,147 158,53 491,217 782,352 197,91 375,168 466,188 78,17 168,33 256,33 112,0 221,-25 300,-106 -3,29 -5,58 -7,86 -78,74 -184,99 -292,99 0,0 -1,0 -1,0z"/>
     <path class="fil37" d="M10339 12326c197,92 375,169 466,189 226,49 550,88 648,-236 99,-324 -215,-490 -442,-590 -18,-8 -42,-16 -72,-24 210,154 171,378 142,457 -30,79 -119,314 -742,204z"/>
     <path class="fil38" d="M5675 11739c110,21 218,39 324,52 -128,-184 -186,-456 -177,-674 11,-219 207,-538 354,-623 -271,-67 -530,-99 -724,-84 -308,22 -583,166 -641,527 -36,213 38,645 864,802z"/>
     <path class="fil39" d="M6510 11816c-118,-273 -54,-962 120,-1169 21,-26 18,-50 -12,-61 -128,-45 -260,-86 -388,-119 -32,-8 -80,-1 -105,20 -148,123 -318,418 -328,627 -9,213 42,473 156,665 17,29 58,53 90,57 153,18 299,29 436,31 32,1 44,-21 31,-51z"/>
     <path class="fil45" d="M6480 11867l0 0c0,0 0,0 0,0 0,0 0,0 0,0zm0 0c0,0 -1,0 -1,0 -66,-1 -134,-4 -204,-9l0 0c70,5 138,8 204,9 0,0 1,0 1,0z"/>
     <path class="fil40" d="M6075 11840c-10,-1 -21,-2 -32,-4 -3,0 -6,-1 -10,-2 4,1 7,2 10,2 11,2 22,3 32,4l0 0z"/>
     <path class="fil46" d="M6511 11820c0,0 0,-1 0,-1 0,0 0,1 0,1zm-1 -4c-9,-20 -17,-43 -24,-68l1 0c6,25 14,48 23,68z"/>
     <path class="fil41" d="M5956 11784c-92,-12 -186,-27 -281,-45l0 0c-793,-151 -892,-554 -868,-775 25,225 202,530 868,657 95,18 125,24 217,36 18,43 38,84 61,122 1,2 2,4 3,5z"/>
     <path class="fil42" d="M6480 11867l0 0c0,0 -1,0 -1,0 -66,-1 -134,-4 -204,-9 -65,-5 -132,-11 -200,-18 0,0 0,0 0,0 -10,-1 -21,-2 -32,-4 -3,0 -6,-1 -10,-2 -28,-6 -60,-26 -76,-50 0,0 -1,0 -1,0 -1,-1 -2,-3 -3,-5 -23,-38 -43,-79 -61,-122 0,0 0,0 0,0 19,27 121,58 151,61 153,18 299,29 436,32l7 -2c7,25 15,48 24,68l0 0c0,1 0,2 1,3 0,0 0,1 0,1 11,28 -1,47 -31,47 0,0 0,0 0,0z"/>
     <path class="fil47" d="M8861 2849c-163,-249 -670,-312 -1039,-154 -368,158 -740,611 -831,1103 -91,492 -94,914 98,1184 -33,192 573,1117 710,1243 137,124 1061,-265 1163,-332 101,-67 251,-694 326,-924 75,-229 263,-867 198,-1337 -66,-471 -289,-739 -625,-783z"/>
     <path class="fil35" d="M9526 9773c-525,90 -1137,57 -2137,-112 143,-1086 -463,-1957 -498,-2155 -90,46 -792,-338 -605,-754 186,-420 349,-554 527,-644 177,-88 650,-114 810,-213 131,-82 227,-387 264,-693l1 -3c8,-52 14,-102 17,-154 3,-15 3,-27 3,-41 12,12 26,24 47,38 192,134 725,346 725,346 0,0 -6,30 -12,73l0 3c-17,137 -46,419 12,457 76,56 821,82 1008,117 766,137 -32,1823 -24,2260 9,437 -401,855 -138,1475z"/>
     <path class="fil48" d="M11138 8333c-26,38 -52,73 -73,99 -105,-300 -882,-2036 -987,-2205 -105,-172 -708,-248 -822,-231 0,0 -163,858 -904,797 -494,-41 -906,-271 -953,-822 -203,45 -464,76 -587,138 -178,89 -338,223 -525,642 -187,418 -914,1439 -977,1587 -98,231 -125,864 544,836 -170,-222 -125,-665 366,-557 19,-114 582,-1065 671,-1110 18,98 -70,629 272,1063 213,322 210,1188 138,1732l2516 0c-80,-306 -337,-1463 -207,-1678 271,-198 241,-606 285,-787 194,371 513,940 573,1076 161,358 448,731 647,667l11 -7c117,-404 82,-914 12,-1240z"/>
     <path class="fil49" d="M8091 6367c-91,-25 -183,-40 -276,-53 -93,-11 -187,-20 -281,-18 91,26 183,41 276,53 93,12 187,20 281,18z"/>
     <path class="fil49" d="M8454 5851c-22,60 -33,122 -42,185 -7,62 -12,125 -6,189 22,-61 33,-123 42,-185 7,-62 11,-125 6,-189z"/>
     <path class="fil49" d="M8507 6332c-28,18 -59,36 -91,38 -31,2 -60,-14 -79,-38 -40,-50 -60,-116 -77,-180 -33,-130 -49,-265 -61,-402 -9,68 -9,137 -5,206 4,69 15,137 31,205 18,66 40,135 92,189 24,26 64,45 101,37 37,-9 65,-30 89,-55z"/>
     <path class="fil50" d="M7888 5199l0 -3c-3,-22 -5,-43 -8,-63 5,6 10,13 15,19 -2,16 -5,31 -7,47z"/>
     <path class="fil51" d="M8422 5530c-226,0 -396,-151 -535,-328l1 -3c2,-16 5,-31 7,-47 125,164 290,306 507,308 1,0 2,0 3,0 99,0 187,-29 266,-75 6,2 9,3 9,3 0,0 -6,30 -12,73l0 3c-61,35 -131,58 -209,64 -13,1 -25,2 -37,2z"/>
     <path class="fil35" d="M9183 3671c-78,-344 -527,-445 -766,-447 -239,-2 -689,94 -771,436 -86,358 -81,936 46,1167 128,231 345,631 710,633 363,2 586,-384 717,-614 131,-229 144,-815 64,-1175z"/>
     <path class="fil52" d="M8201 5035c48,6 157,-14 203,-12 47,-1 156,19 202,15 25,-1 59,-7 91,-24 -51,81 -257,79 -294,79 -36,0 -240,-1 -292,-83 33,17 67,22 90,25z"/>
     <path class="fil53" d="M8403 5093c0,0 176,-7 219,-28 -14,57 -46,85 -87,99 -39,14 -93,17 -132,17 -38,-1 -92,-4 -132,-19 -40,-14 -72,-43 -84,-99 42,21 216,30 216,30z"/>
     <path class="fil49" d="M8282 4656c-10,6 -18,17 -23,29 -5,10 -7,23 -8,35 0,24 8,52 31,64 -9,-22 -14,-41 -13,-63 1,-10 2,-22 4,-32 2,-11 5,-22 9,-33z"/>
     <path class="fil49" d="M8502 4778l-2 -16 -15 -8 -9 0 -10 3 -14 11c-15,17 -26,26 -46,24 -20,2 -32,-7 -46,-24 -7,-7 -19,-18 -32,-15l-16 8 -2 15c-3,-11 11,-14 19,-14 8,0 14,7 20,14 5,9 12,19 22,26 10,7 25,9 35,9 11,0 24,-2 34,-9 11,-7 18,-17 24,-24 6,-8 10,-15 19,-15 9,1 22,3 19,15z"/>
     <path class="fil49" d="M8531 4658c5,12 7,22 9,33 2,10 4,21 3,31 1,22 -4,42 -13,64 23,-13 32,-40 32,-64 -1,-12 -3,-24 -7,-36 -5,-11 -13,-23 -24,-28z"/>
     <path class="fil54" d="M8218 4043c18,-16 -22,-59 -66,-82 -44,-23 -121,-64 -213,-72 -92,-7 -189,39 -241,118 85,-36 138,-60 184,-53 45,9 149,35 190,53 41,18 113,64 146,36z"/>
     <path class="fil49" d="M7835 4184c44,-37 100,-83 196,-73 47,3 82,26 106,57 6,7 11,13 14,21l-13 -13c-19,-15 -44,-27 -74,-33 -30,-3 -60,-2 -90,4 -1,-2 -40,7 -54,13 -11,6 -54,22 -66,26 -7,2 -13,3 -19,5l-10 1 10 -8z"/>
     <path class="fil26" d="M7810 4204c10,25 25,52 50,76l2 5 7 5 0 1 3 2c22,20 52,37 90,46l17 3c31,3 74,0 117,-8l0 0c33,-7 65,-17 91,-30l0 -1c-4,-40 -14,-81 -36,-114l-13 -13c-19,-15 -44,-27 -74,-33 -30,-3 -60,-2 -90,4 -1,-2 -40,7 -54,13 -11,6 -54,22 -66,26 -7,2 -13,3 -19,5l-10 1 -15 12z"/>
     <path class="fil54" d="M8605 4046c-18,-15 22,-59 67,-81 43,-23 122,-63 213,-69 93,-7 188,41 240,121 -85,-37 -137,-62 -183,-56 -46,8 -151,33 -191,51 -41,17 -113,63 -146,34z"/>
     <path class="fil49" d="M8674 4174l1 -3c27,-34 64,-60 114,-66 75,-7 124,18 163,48 9,7 17,13 24,20 -4,-2 -13,-5 -25,-8 -15,-6 -34,-13 -41,-15 -13,-6 -52,-15 -53,-13 -29,-6 -60,-6 -92,0 -37,7 -68,24 -90,45l-1 2c-9,7 -15,14 -20,23 5,-12 11,-23 20,-33z"/>
     <path class="fil26" d="M8625 4302l1 0c42,21 102,33 153,36 27,2 52,1 69,-3 30,-8 55,-19 75,-34 9,-7 18,-13 26,-21l15 -17 15 -18 8 -12 0 -1c8,-12 15,-24 20,-34 -11,-8 -20,-17 -31,-25 -4,-2 -13,-5 -25,-8 -15,-6 -34,-13 -41,-15 -13,-6 -52,-15 -53,-13 -29,-6 -60,-6 -92,0 -37,7 -68,24 -90,45l-1 2c-9,7 -15,14 -20,23l-1 1c-15,29 -23,60 -28,94z"/>
     <path class="fil55" d="M8727 4243c-5,40 17,77 52,95 27,2 52,1 69,-3 30,-8 55,-19 75,-34 7,-12 12,-25 13,-40 7,-54 -36,-103 -93,-107 -57,-6 -110,34 -116,89z"/>
     <path class="fil18" d="M8891 4257c-3,32 -33,54 -65,51 -34,-3 -57,-30 -54,-61 4,-32 33,-54 66,-51 33,3 57,30 53,61z"/>
     <path class="fil56" d="M8891 4261c0,-1 0,-2 0,-4 3,-23 -10,-44 -30,-55 6,-5 14,-7 23,-7 1,0 2,0 2,0 20,3 35,19 32,37 -1,14 -13,26 -27,29z"/>
     <path class="fil28" d="M8882 4262c-1,0 -2,0 -3,0 -20,-2 -34,-18 -32,-37 1,-9 6,-17 14,-23 20,11 33,32 30,55 0,2 0,3 0,4 -3,1 -6,1 -9,1z"/>
     <path class="fil55" d="M7926 4247c-4,40 18,77 53,95 31,3 74,0 117,-8l0 0c22,-16 37,-41 40,-68 7,-55 -36,-103 -94,-109 -57,-5 -110,35 -116,90z"/>
     <path class="fil18" d="M8091 4261c-4,32 -34,54 -66,50 -33,-2 -57,-30 -54,-60 4,-31 33,-54 67,-51 33,3 57,31 53,61z"/>
     <path class="fil56" d="M8090 4265c0,-1 0,-3 1,-4 3,-23 -10,-44 -31,-54 6,-5 14,-8 22,-8 1,0 3,0 4,0 20,2 34,18 32,37 -1,15 -13,26 -28,29z"/>
     <path class="fil28" d="M8081 4266c-1,0 -2,0 -2,0 -19,-2 -34,-18 -32,-37 1,-9 6,-17 13,-22 21,10 34,31 31,54 -1,1 -1,3 -1,4 -3,0 -6,1 -9,1z"/>
     <path class="fil18" d="M8625 4302l0 1 1 -1c13,-30 29,-61 52,-86 24,-26 56,-46 96,-54 40,-7 84,-5 123,6 8,2 16,5 24,8 24,10 47,24 59,35 7,4 9,13 7,21l0 1 -8 16 -15 18 -15 15c44,-14 131,-88 134,-120 -15,0 -35,29 -107,11 -4,-2 -13,-5 -25,-8 -15,-6 -34,-13 -41,-15 -13,-6 -52,-15 -53,-13 -29,-6 -60,-6 -92,0 -37,7 -68,24 -90,45l-1 2c-9,7 -15,14 -20,23l-1 1c-22,29 -30,62 -28,94z"/>
     <path class="fil47" d="M8878 3135c89,146 -188,173 -375,237 -415,140 -789,852 -858,1204 -68,353 142,626 228,820 86,194 -38,546 -106,672 -122,224 80,384 -28,664 -115,300 -352,311 -314,886 -81,-230 -365,-502 -95,-937 96,-156 -141,-168 -269,-389 -72,-120 0,-579 239,-660 -215,-85 -287,-398 -211,-650 75,-253 -23,-947 91,-1275 118,-335 425,-788 880,-794 455,-6 745,102 818,222z"/>
     <path class="fil47" d="M8789 6221c-239,-199 4,-607 90,-698 84,-92 204,-322 243,-573 35,-213 73,-497 -8,-746 -81,-248 -24,-502 -65,-617 -41,-115 -218,-250 -340,-274 127,-119 301,-163 471,-102 52,18 224,208 306,421 161,414 169,926 154,1073 -15,146 -73,542 -281,739 -209,195 -227,577 -152,753 76,174 150,512 -4,677 -24,-190 -164,-443 -414,-653z"/>
     <path class="fil18" d="M7752 4178c-1,32 78,102 120,115l-3 -2 -7 -6 -2 -5c-21,-23 -30,-44 -12,-58 13,-9 36,-24 60,-34 8,-4 16,-7 25,-10 38,-11 81,-15 120,-10 37,7 68,26 88,51 22,25 35,54 46,84 4,-32 -2,-63 -19,-93 -5,-8 -10,-15 -16,-21l-14 -13c-19,-15 -44,-27 -74,-33 -30,-3 -60,-2 -90,4 -1,-2 -40,7 -54,13 -11,6 -54,22 -66,26 -7,2 -13,3 -19,5l-10 1c-48,6 -61,-15 -73,-14z"/>
     <path class="fil35" d="M13157 6137c23,0 -111,385 -105,387 -38,87 -102,163 -198,216 -97,52 -219,99 -338,303 -29,52 -79,137 -140,235 0,0 -449,1078 -527,1303 -87,241 -519,914 -723,993 117,-405 82,-915 12,-1241 300,-405 1005,-1372 1014,-1386 76,-152 96,-268 93,-385 -3,-119 73,-227 84,-341 3,-23 128,-308 140,-317 350,-338 61,268 85,265 49,0 614,-559 614,-559 0,0 -195,518 -11,527z"/>
     <path class="fil57" d="M13053 6525c61,-95 138,-226 119,-279 -19,-53 -19,-76 -15,-110 3,-34 49,-66 54,-106 6,-40 -48,-60 -42,-99 5,-38 26,-65 30,-103 4,-37 -44,-65 -42,-93 1,-28 45,-95 11,-127 -34,-30 -265,-117 -301,-132 -97,-42 -160,26 -48,89 111,64 228,118 215,150 -11,31 -233,-48 -310,-69 -134,-36 -182,54 -39,112 167,68 327,100 319,145 -9,60 -230,26 -321,1 -150,-42 -207,47 -64,97 170,58 357,86 355,129 0,37 -151,29 -221,4 -103,-37 -135,35 -34,84 127,61 288,121 297,157 9,36 -127,342 -127,342l164 -192z"/>
     <path class="fil58" d="M7743 8581c-33,0 -65,-2 -94,-6 74,-14 146,-32 216,-57 70,-25 137,-55 203,-88 65,-34 130,-69 192,-109l95 -59c32,-20 61,-41 101,-61l30 -16 25 24c44,44 105,81 165,115 61,35 125,65 189,97 65,29 129,59 196,85 66,26 133,53 203,69 -11,1 -21,1 -32,1 -265,0 -546,-61 -610,-91 -56,-29 -110,-61 -162,-103 -21,13 -131,80 -164,98 -59,32 -335,101 -553,101z"/>
     <polygon class="fil59" points="8759,10970 8499,10970 8499,10829 8738,10832 10811,9977 10854,10076 "/>
     <path class="fil60" d="M8499 10748l0 -432c0,0 114,-317 398,-418 283,-101 564,-38 804,-88 273,-56 517,-74 632,-148 88,-13 256,-40 256,-40l-33 220 -1140 393 -836 513 -81 0z"/>
     <path class="fil61" d="M10721 10027l-1959 822 -263 0 0 -101c0,0 181,-351 627,-607 252,-145 593,-243 877,-257 283,-13 465,-120 586,-263 -6,64 6,130 25,189 2,8 5,17 9,26 8,24 18,46 29,67l3 8c3,7 6,12 9,17l3 7c28,55 54,92 54,92z"/>
     <path class="fil62" d="M10664 9928l-1822 768 1810 -793 3 8c3,7 6,12 9,17z"/>
     <path class="fil62" d="M10623 9836c-154,44 -308,92 -461,142 -89,30 -176,59 -265,91 -76,29 -154,57 -230,87 -143,57 -284,117 -423,185 -19,8 -39,18 -59,28 -137,69 -272,143 -393,237 120,-95 254,-173 390,-243 46,-24 94,-48 140,-71 85,-40 172,-77 258,-113 27,-12 55,-24 82,-35 294,-120 593,-224 896,-317 18,-5 37,-11 56,-17 2,8 5,17 9,26z"/>
     <polygon class="fil59" points="8238,10970 8499,10970 8498,10829 8259,10832 6186,9977 6144,10076 "/>
     <path class="fil60" d="M8499 10748l0 -432c0,0 -115,-317 -398,-418 -284,-101 -565,-38 -805,-88 -273,-56 -517,-74 -632,-148 -88,-13 -256,-40 -256,-40l33 220 1140 393 836 513 82 0z"/>
     <path class="fil61" d="M6277 10027l1958 822 263 0 0 -101c0,0 -181,-351 -627,-607 -251,-145 -593,-243 -877,-257 -283,-13 -465,-120 -586,-263 6,64 -5,130 -25,189 -2,8 -5,17 -9,26 -8,24 -18,46 -29,67l-3 8c-3,7 -5,12 -9,17l-3 7c-28,55 -53,92 -53,92z"/>
     <path class="fil62" d="M6334 9928l1821 768 -1810 -793 -3 8c-3,7 -5,12 -8,17z"/>
     <path class="fil62" d="M6374 9836c155,44 308,92 461,142 89,30 176,59 265,91 77,29 154,57 231,87 142,57 283,117 422,185 19,8 39,18 59,28 137,69 272,143 393,237 -120,-95 -254,-173 -390,-243 -46,-24 -94,-48 -140,-71 -85,-40 -172,-77 -258,-113 -27,-12 -55,-24 -82,-35 -294,-120 -592,-224 -896,-317 -18,-5 -36,-11 -56,-17 -2,8 -5,17 -9,26z"/>
     <path class="fil62" d="M8499 10316c11,72 11,144 13,216 -2,72 -3,144 -14,216 -11,-72 -12,-144 -13,-216 2,-72 3,-144 14,-216z"/>
     <path class="fil63" d="M6302 8848c53,233 103,492 257,758 -172,31 -336,146 -436,231 -257,-361 -608,-799 -633,-941 -62,-342 293,-481 455,-465 136,12 299,156 357,417z"/>
     <path class="fil63" d="M6035 9714c-3,85 42,282 56,339 27,113 166,254 233,314 67,59 238,168 357,214 48,20 84,20 107,10 34,-14 38,-48 1,-72l-15 -10c-83,-55 -339,-226 -439,-349 44,42 286,208 432,288 14,8 27,14 39,20 137,69 209,2 152,-54 -27,-27 -117,-99 -207,-173 -99,-83 -198,-168 -215,-201 42,17 197,85 338,148 70,31 136,60 184,81 17,8 31,14 42,19 25,12 44,16 57,14 48,-6 33,-79 22,-94 -3,-5 -14,-14 -29,-26 -49,-36 -141,-96 -189,-129 -62,-41 -313,-212 -328,-223 15,9 266,141 327,170 65,29 129,112 175,44 47,-68 -139,-201 -187,-247 -47,-46 -372,-233 -458,-294 -25,-42 -447,-6 -455,211z"/>
     <path class="fil22" d="M2388 10439c62,397 108,911 113,1085 -275,94 -475,-1136 -475,-1136l362 51z"/>
     <path class="fil20" d="M4449 12104c-101,91 -278,242 -354,248 -208,-50 -736,-538 -1249,-545 -513,-7 -1141,-167 -1141,-167l-714 27c-199,422 -70,920 383,952 453,33 794,-76 1335,-242 477,70 781,346 1203,378l-1 3c57,38 116,94 189,144 225,-79 348,-380 403,-584 42,-153 60,-253 -54,-214z"/>
     <path class="fil64" d="M4820 12111c-8,225 -299,575 -365,731 -66,156 -126,177 -221,136 -51,-22 -95,-49 -134,-76 225,-79 348,-380 403,-584 42,-153 60,-253 -54,-214 55,-52 107,-106 144,-154 106,-137 234,-64 227,161z"/>
     <path class="fil65" d="M4784 12740c-20,224 -341,560 -418,712 -77,153 -141,171 -238,126 -52,-25 -96,-54 -136,-83 239,-68 383,-363 451,-564 52,-151 76,-250 -45,-217 60,-48 117,-99 158,-146 118,-132 248,-52 228,172z"/>
     <path class="fil22" d="M4398 12714c-110,87 -302,229 -382,231 -214,-59 -781,-743 -1315,-775 -534,-32 -1139,-51 -1139,-51l-746 -7c-229,411 -121,914 349,969 471,55 832,-38 1405,-177 493,92 796,383 1234,436l-1 2c57,41 116,99 189,153 239,-68 383,-363 451,-564 52,-151 76,-250 -45,-217z"/>
     <path class="fil22" d="M2077 10093c-130,157 -573,296 -765,62 28,-107 96,-284 106,-409 4,-30 4,-56 -1,-79l530 0c0,0 -12,195 70,344 17,30 36,58 60,82z"/>
     <path class="fil66" d="M603 10398c0,0 196,148 361,148 -118,550 -72,1165 -258,1695 -308,876 548,1008 1457,852 60,-380 -66,-733 402,-936 78,-200 649,-272 643,-276 -155,-100 -490,-79 -765,-440 -188,-247 -143,-649 -163,-962 14,-6 40,6 65,17 24,11 49,22 62,17 45,-214 -189,-553 -424,-582 0,0 -71,206 -288,224 -218,17 -281,-110 -328,-182 -81,-19 -351,-41 -455,0 -105,42 -309,100 -309,425z"/>
     <path class="fil67" d="M1568 13150l-9 0c-360,0 -661,-75 -812,-261 -19,-23 -36,-49 -50,-75 -36,-69 -55,-150 -55,-244 0,-96 20,-205 64,-329 101,-289 162,-450 165,-450 3,0 -34,112 -118,353 -238,674 216,907 851,907 180,0 373,-18 570,-50 -3,30 -7,61 -11,92l0 0c-206,35 -408,56 -595,57z"/>
     <path class="fil22" d="M1135 10469c-40,184 -492,1950 -532,2142 -40,192 -189,315 -293,291 -104,-24 -350,-42 -560,0 -110,22 133,-171 213,-203 46,-19 110,-16 162,-13 39,2 72,4 86,-3 32,-17 236,-1077 268,-1229 32,-153 120,-321 112,-472 -8,-153 -9,-585 40,-745 48,-160 544,48 504,232z"/>
     <path class="fil66" d="M1135 10467l0 3c-7,29 -9,84 -13,156 -6,110 -15,261 -49,424 -22,1 -51,0 -81,-1 -153,-7 -378,-36 -478,-77 -7,-158 69,-577 117,-734 48,-160 295,-218 361,-197 130,40 181,243 143,426z"/>
     <path class="fil25" d="M1948 9999c-163,-37 -366,-138 -530,-253 0,-3 1,-7 1,-10 178,73 385,123 545,125 4,23 11,47 19,70 -2,4 -12,33 -35,68z"/>
     <path class="fil68" d="M2017 10011c-22,-2 -45,-6 -69,-12 23,-35 33,-64 35,-68 9,28 20,55 34,80z"/>
     <path class="fil22" d="M2318 7757c104,79 265,249 260,454 -6,206 -7,403 -4,522 4,119 76,358 57,549 -20,192 -347,538 -566,573 -221,35 -618,-77 -850,-220 -232,-144 -332,-391 -367,-611 -35,-220 15,-883 116,-1051 102,-169 401,-396 712,-394 311,2 508,76 642,178z"/>
     <path class="fil26" d="M1329 8917c-1,125 99,162 205,163 105,1 201,-58 207,-160 9,-173 -91,-224 -205,-225 -60,0 -114,20 -151,61 -30,32 -50,76 -55,134 0,9 -1,18 -1,27z"/>
     <path class="fil69" d="M1467 8905l0 0c8,73 65,129 135,129 76,1 138,-64 138,-145 1,-81 -60,-147 -136,-147 -31,-1 -61,8 -82,28 -32,30 -50,77 -55,135z"/>
     <path class="fil18" d="M1530 8888c0,40 32,73 73,73 40,1 73,-32 73,-73 1,-40 -32,-73 -72,-73 -41,-1 -74,32 -74,73z"/>
     <path class="fil18" d="M1518 8722c-52,0 -99,13 -137,38 38,-44 93,-65 155,-65 114,0 206,52 205,225l-1 15c-4,-163 -101,-212 -222,-213z"/>
     <path class="fil70" d="M1536 8860c-3,-5 -5,-11 -5,-17 1,-19 16,-34 34,-34 1,0 1,0 1,0 8,0 16,2 22,7 -24,5 -43,22 -52,44z"/>
     <path class="fil28" d="M1566 8879c-13,0 -25,-8 -30,-19 9,-22 28,-39 52,-44 7,7 12,17 12,28 0,19 -16,35 -34,35z"/>
     <path class="fil26" d="M2201 8861c-1,123 64,178 189,158 85,-15 124,-66 124,-157 1,-123 -69,-223 -155,-224 -87,-1 -157,99 -158,223z"/>
     <path class="fil69" d="M2294 8830c-1,73 48,132 109,133 61,0 111,-59 111,-131 1,-73 -48,-132 -109,-132 -61,-1 -111,58 -111,130z"/>
     <path class="fil18" d="M2326 8830c0,32 25,58 57,59 31,0 57,-26 57,-58 0,-32 -25,-58 -56,-58 -32,0 -57,25 -58,57z"/>
     <path class="fil70" d="M2327 8822c-4,-5 -6,-12 -6,-19 0,-19 16,-35 35,-35 7,0 13,2 18,6 -24,4 -43,23 -47,48z"/>
     <path class="fil28" d="M2356 8838c-12,0 -23,-6 -29,-16 4,-25 23,-44 47,-48 10,6 16,17 16,29 0,20 -15,35 -34,35z"/>
     <path class="fil18" d="M2353 8668c-54,-1 -103,34 -133,87 27,-70 79,-118 139,-117 86,1 156,101 155,224l0 8c-2,-112 -73,-202 -161,-202z"/>
     <path class="fil71" d="M2172 8389l-7 -20c-10,-29 6,-59 36,-62 28,-2 96,-7 136,5 89,28 109,97 113,128 -43,-14 -149,9 -219,1 -30,-4 -49,-23 -59,-52z"/>
     <path class="fil71" d="M1727 8397c0,-31 -12,-69 -49,-77 -49,-11 -109,0 -153,16 -98,35 -116,104 -118,137 47,-17 168,-4 246,-17 34,-7 74,-17 74,-59z"/>
     <path class="fil30" d="M2120 9329c37,-13 64,-55 57,-99 -3,-21 -14,-42 -30,-56 -19,-16 -39,-21 -59,-25 -40,-7 -80,-5 -119,6 -37,10 -76,33 -92,69 26,-29 63,-40 98,-47 36,-6 73,-7 108,0 17,3 35,10 46,18 13,9 22,24 26,40 8,32 -4,70 -35,94z"/>
     <path class="fil72" d="M2267 9404c-14,73 -168,214 -242,214 -123,-1 -286,-67 -352,-171 49,31 252,84 353,75 78,-7 171,-66 241,-118z"/>
     <path class="fil73" d="M2523 7770c-113,21 174,319 41,612 -44,-144 -86,-282 -111,-307 5,81 -281,314 -708,352 188,-80 200,-149 219,-205 -119,99 -413,204 -513,203 176,-130 126,-211 120,-262 -175,149 -345,386 -371,491 -31,-50 -68,-69 -81,-100 0,94 -245,545 -233,633 -38,-163 -137,-347 -211,-454 -69,37 -200,17 -287,-58 -87,-76 -74,-243 -30,-315 -150,27 -205,-174 -111,-242 -143,-44 -186,-244 -154,-326 32,-81 164,-193 239,-192 -69,-113 27,-350 195,-255 -12,-100 102,-311 276,-229 -5,-125 101,-231 195,-256 94,-24 269,2 300,96 69,-105 250,-130 300,-42 56,-93 244,-173 338,-148 94,26 193,95 180,214 81,-18 224,39 180,120 125,-6 287,83 198,288 181,33 254,339 29,382z"/>
     <path class="fil66" d="M2506 7852c-141,-183 -793,-239 -1120,-10 -326,228 -605,818 -585,1111 -58,-53 -107,-113 -117,-207 -9,-94 -100,-802 690,-1190 539,-263 1073,64 1195,200 -11,56 -63,96 -63,96z"/>
     <path class="fil22" d="M916 8653c-24,-61 -127,-136 -187,-70 -61,66 -126,312 -44,480 95,195 189,219 237,178 49,-42 -6,-588 -6,-588z"/>
     <path class="fil30" d="M762 8767c8,-36 43,-59 72,-46 29,8 55,37 61,78 5,35 3,83 -19,115 -23,31 -51,44 -77,58l6 -11c-2,20 7,47 16,69 11,24 22,46 37,65 -18,-14 -33,-33 -47,-56 -12,-22 -26,-44 -26,-81l1 -7 6 -3c25,-14 51,-29 66,-53 15,-24 19,-56 15,-89 -3,-30 -20,-56 -44,-67 -22,-12 -53,-6 -67,28z"/>
     <path class="fil67" d="M1122 10626l0 0c4,-72 6,-127 13,-156l0 0c0,0 0,0 0,-1 1,-2 1,-5 1,-7l8 -30 -22 194z"/>
     <path class="fil74" d="M992 11049c0,0 0,0 0,0l0 0c0,0 0,0 0,0l0 0zm143 -579l0 -3 1 -5c0,2 0,5 -1,7 0,1 0,1 0,1z"/>
     <path class="fil67" d="M1053 11050c-18,0 -39,0 -61,-1 0,0 0,0 0,0l143 -579c-7,29 -9,84 -13,156l0 0 -49 424c-6,0 -13,0 -20,0z"/>
     <path class="fil75" d="M11866 10923c0,-151 -75,-1199 -57,-1371 19,-173 227,-1243 208,-1356 -19,-114 54,-341 179,-436 -84,-38 -75,-199 39,-256 114,-56 341,-9 350,76 -38,-123 -75,-227 0,-227 76,0 133,114 123,218 -9,104 -19,151 -94,218 -76,66 -86,246 -247,369 -9,142 -66,1089 -56,1297 9,208 151,928 151,1165 -66,625 -379,1108 -379,1108l-274 -171 57 -634z"/>
     <path class="fil76" d="M9701 14171c-69,126 13,285 146,388 132,103 321,169 497,176 175,5 620,-96 620,-96l-1263 -468z"/>
     <path class="fil77" d="M10045 14617c-140,-50 -334,-217 -350,-326 -16,-109 22,-238 159,-264 136,-26 310,45 493,149 183,103 500,187 567,207 68,20 112,216 50,256 -119,76 -620,88 -919,-22z"/>
     <path class="fil22" d="M9887 13072c141,-26 681,332 966,502 283,171 501,388 501,388l-473 862c0,0 -625,-634 -805,-815 -180,-179 -398,-454 -445,-558 -66,-147 47,-342 256,-379z"/>
     <path class="fil78" d="M12462 10620c114,255 517,786 697,947 0,322 -195,1789 -176,2045 -161,265 -606,332 -824,294 -218,-38 -663,-379 -729,-436 -66,-57 -58,-572 -76,-824 -21,-303 66,-757 247,-1240 69,-187 227,-351 265,-483 -19,113 28,483 180,398 151,-86 388,-521 416,-701z"/>
     <path class="fil79" d="M11381 13304c125,223 636,450 939,441 303,-10 493,-57 663,-133 227,265 227,1089 38,1288 -189,199 -1496,360 -2424,-76 -161,-350 -275,-1288 227,-1307 227,85 498,-47 557,-213z"/>
     <path class="fil80" d="M11994 15101c0,0 0,0 0,0 0,0 0,0 0,0l0 0zm0 0c503,0 917,-93 1023,-197 -106,104 -520,197 -1023,197zm1024 -198c0,0 0,0 0,0zm0 0c1,-1 1,-1 1,-2 0,1 0,1 -1,2z"/>
     <path class="fil81" d="M12977 13615c0,0 0,0 0,-1l6 -2c-2,1 -4,2 -6,3z"/>
     <path class="fil82" d="M11994 15101c0,0 0,0 0,0 -442,0 -953,-72 -1384,-271 -1,0 -2,-1 -3,-1 0,0 0,0 0,0 0,-1 -1,-1 -1,-1 0,0 -1,0 -2,-1 -2,-1 -5,-2 -7,-3 0,0 -1,-1 -1,-1 -9,-20 -18,-42 -27,-66 427,191 928,261 1362,261 508,0 926,-95 1027,-201 172,-181 187,-877 19,-1202 2,-1 4,-2 6,-3l0 0c119,138 175,429 176,704 0,92 -7,182 -19,264 -22,142 -62,260 -119,320 -1,0 -1,1 -1,1 0,0 0,0 -1,0 0,1 0,1 -1,2 0,0 0,0 0,0 0,0 0,0 -1,1 -106,104 -520,197 -1023,197 0,0 0,0 0,0z"/>
     <path class="fil83" d="M13159 9928c222,-10 620,266 743,512 151,303 28,653 0,871 -29,218 -228,853 -105,957 124,104 190,28 256,0 0,65 -57,321 -294,274 10,76 86,171 86,171 0,0 -294,9 -389,-190 -28,114 -198,180 -297,190 13,-143 -138,-398 -100,-445 -20,-163 12,-246 0,-294 -209,47 -464,-161 -512,-246 86,-19 180,-104 237,-161 57,-57 24,-310 -74,-482 -99,-172 -244,-458 -254,-572 0,-292 111,-556 703,-585z"/>
     <path class="fil75" d="M5799 11692c114,-95 1006,-826 1107,-926 181,-181 412,-1321 439,-1395 114,-150 305,-675 286,-752 -19,-76 -96,48 -153,124 29,-143 10,-381 10,-381 0,0 -38,-38 -77,0 -9,-77 -86,-110 -124,-17 -38,-31 -66,55 -95,84 -48,-10 -86,76 -143,210 -57,133 -29,486 -57,601 -29,114 -401,973 -459,1088 -57,114 -620,563 -734,601 -115,38 -353,67 -353,67 0,0 -157,227 -48,467 143,315 401,229 401,229z"/>
     <path class="fil84" d="M4044 14160c-20,242 31,774 389,906 213,78 860,81 1170,52 310,-29 587,-143 873,-277 286,-133 764,-295 888,-391 124,-96 210,-296 171,-448 -38,-153 -206,-512 -620,-430 -365,72 -830,191 -830,191l-563 -162 -1365 257 -113 302z"/>
     <path class="fil85" d="M4048 14409c-9,-85 -10,-163 -6,-226 0,1 0,1 0,2 -3,62 -3,140 6,224z"/>
     <path class="fil86" d="M5167 15135c-288,0 -599,-19 -734,-69l0 0c-260,-96 -358,-404 -385,-657 -9,-84 -9,-162 -6,-224 14,265 105,627 391,733 135,50 445,69 732,69 166,0 325,-7 438,-17 287,-27 1656,-530 1761,-530 9,0 9,3 0,10l0 0c-124,96 -602,258 -888,391 -286,134 -563,248 -873,277 -113,11 -271,17 -436,17z"/>
     <path class="fil22" d="M5446 10204c47,85 85,267 124,315 38,47 0,151 0,151 0,0 62,135 16,268 -45,134 -323,458 -551,339 -229,-119 -495,-1188 -495,-1188l906 115z"/>
     <path class="fil87" d="M4272 11645c-104,53 -315,524 -306,754 10,229 105,772 86,954 -19,181 -86,944 -86,944 0,0 1180,83 1637,-143 173,-85 367,-210 482,-391 -57,-258 -286,-1775 -286,-2071 -57,58 -248,-38 -277,-191 -29,-152 -75,-196 -57,-379 -153,-88 -287,0 -287,0l-906 523z"/>
     <path class="fil88" d="M4348 9662c-208,64 -544,179 -649,580 -65,247 0,687 -28,763 -29,77 -19,334 -38,400 143,-57 305,182 343,297 76,-105 229,67 353,0 124,-67 191,-57 344,-105 152,-48 162,-172 286,-267 124,-96 286,-168 363,-208 124,-126 114,-823 124,-918 9,-96 -67,-344 -268,-468 -200,-124 -602,-144 -830,-74z"/>
     <path class="fil89" d="M7632 14285c-62,-86 -227,-115 -392,-51 -117,44 -333,290 -405,291 -71,1 -312,35 -365,48 -53,14 -109,87 -108,203 1,116 81,187 178,219 221,16 487,-22 646,-51 106,-19 308,-64 389,-189 81,-124 186,-292 57,-470z"/>
     <path class="fil49" d="M7411 8362c-5,67 -16,133 -29,199 -12,65 -27,130 -47,194 6,-66 17,-132 29,-198 13,-66 27,-131 47,-195z"/>
     <path class="fil49" d="M7287 8345c-5,70 -16,138 -28,207 -14,68 -28,137 -48,203 5,-69 16,-138 29,-206 13,-69 27,-137 47,-204z"/>
     <path class="fil49" d="M7192 8429c-12,55 -28,110 -43,163l-23 82c-8,27 -15,54 -20,81 -4,-28 1,-57 5,-85 5,-28 12,-56 20,-83 16,-54 35,-108 61,-158z"/>
     <polygon class="fil90" points="-324,11929 -1281,11929 -1281,11007 -324,11007 "/>
     <polygon class="fil91" points="-1123,10823 -166,10823 -324,11007 -1281,11007 "/>
     <polygon class="fil92" points="-166,10823 -166,11744 -198,11782 -324,11929 -324,11007 "/>
     <path class="fil93" d="M-1218 10946l874 0 -900 -950 0 923c0,15 12,27 26,27z"/>
     <path class="fil94" d="M-243 10845c4,-14 -2,-34 -12,-44l-896 -937c-10,-10 -24,-8 -30,5l-63 127 900 950 101 -101z"/>
     <path class="fil22" d="M209 12286c41,-55 176,-109 235,-32 60,76 89,331 -39,480 -150,176 -266,181 -316,131 -49,-50 120,-579 120,-579z"/>
    </g>
   </g>
  </g>
  <path class="fil95" d="M1939 0l12750 0c1067,0 1939,873 1939,1939l0 10860c0,1066 -872,1939 -1939,1939l-12750 0c-1067,0 -1939,-873 -1939,-1939l0 -10860c0,-1067 872,-1939 1939,-1939z"/>
 </g>
</svg>
