<?xml version="1.0" encoding="UTF-8"?>
<!DOCTYPE svg PUBLIC "-//W3C//DTD SVG 1.1//EN" "http://www.w3.org/Graphics/SVG/1.1/DTD/svg11.dtd">
<!-- Creator: CorelDRAW X7 -->
<svg xmlns="http://www.w3.org/2000/svg" xml:space="preserve" width="1.37168in" height="1.64365in" version="1.1" style="shape-rendering:geometricPrecision; text-rendering:geometricPrecision; image-rendering:optimizeQuality; fill-rule:evenodd; clip-rule:evenodd"
viewBox="0 0 618 741"
 xmlns:xlink="http://www.w3.org/1999/xlink">
 <defs>
  <style type="text/css">
   <![CDATA[
    .str0 {stroke:#FF3DD5;stroke-width:4.69189}
    .fil2 {fill:none}
    .fil3 {fill:#FF3A3A}
    .fil22 {fill:black;fill-rule:nonzero}
    .fil27 {fill:#0C1A3D;fill-rule:nonzero}
    .fil56 {fill:#0FA79D;fill-rule:nonzero}
    .fil7 {fill:#13284F;fill-rule:nonzero}
    .fil52 {fill:#26AAE2;fill-rule:nonzero}
    .fil6 {fill:#273C5E;fill-rule:nonzero}
    .fil39 {fill:#313C3F;fill-rule:nonzero}
    .fil23 {fill:#334977;fill-rule:nonzero}
    .fil49 {fill:#446998;fill-rule:nonzero}
    .fil10 {fill:#453713;fill-rule:nonzero}
    .fil24 {fill:#47608A;fill-rule:nonzero}
    .fil45 {fill:#4F6B93;fill-rule:nonzero}
    .fil16 {fill:#536B30;fill-rule:nonzero}
    .fil42 {fill:#5495A2;fill-rule:nonzero}
    .fil20 {fill:#585858;fill-rule:nonzero}
    .fil11 {fill:#5A471C;fill-rule:nonzero}
    .fil57 {fill:#5AA59B;fill-rule:nonzero}
    .fil17 {fill:#5C7D3B;fill-rule:nonzero}
    .fil53 {fill:#65A7DF;fill-rule:nonzero}
    .fil18 {fill:#6A8D44;fill-rule:nonzero}
    .fil12 {fill:#6C5824;fill-rule:nonzero}
    .fil30 {fill:#771147;fill-rule:nonzero}
    .fil31 {fill:#7E2A61;fill-rule:nonzero}
    .fil40 {fill:#83C3D5;fill-rule:nonzero}
    .fil26 {fill:#864637;fill-rule:nonzero}
    .fil19 {fill:#888888;fill-rule:nonzero}
    .fil43 {fill:#8D83C7;fill-rule:nonzero}
    .fil28 {fill:#967373;fill-rule:nonzero}
    .fil32 {fill:#A23477;fill-rule:nonzero}
    .fil8 {fill:#A5AC98;fill-rule:nonzero}
    .fil25 {fill:#B37566;fill-rule:nonzero}
    .fil29 {fill:#B98D8D;fill-rule:nonzero}
    .fil55 {fill:#BD4660;fill-rule:nonzero}
    .fil41 {fill:#C07F0F;fill-rule:nonzero}
    .fil9 {fill:#C2CEB6;fill-rule:nonzero}
    .fil33 {fill:#C34B88;fill-rule:nonzero}
    .fil34 {fill:#C870A8;fill-rule:nonzero}
    .fil51 {fill:#D25A30;fill-rule:nonzero}
    .fil14 {fill:#D3D2D2;fill-rule:nonzero}
    .fil54 {fill:#D94460;fill-rule:nonzero}
    .fil37 {fill:#DB5371;fill-rule:nonzero}
    .fil59 {fill:#DF922E;fill-rule:nonzero}
    .fil5 {fill:#E76E54;fill-rule:nonzero}
    .fil35 {fill:#EA7FBE;fill-rule:nonzero}
    .fil50 {fill:#F25A28;fill-rule:nonzero}
    .fil15 {fill:#F3F3F3;fill-rule:nonzero}
    .fil58 {fill:#F79221;fill-rule:nonzero}
    .fil48 {fill:#F9B813;fill-rule:nonzero}
    .fil46 {fill:#FF3A3A;fill-rule:nonzero}
    .fil44 {fill:#FF7D97;fill-rule:nonzero}
    .fil47 {fill:#FFA2BB;fill-rule:nonzero}
    .fil4 {fill:#FFCCBB;fill-rule:nonzero}
    .fil36 {fill:#FFD300;fill-rule:nonzero}
    .fil38 {fill:#FFDCCE;fill-rule:nonzero}
    .fil13 {fill:white;fill-rule:nonzero}
    .fil1 {fill:url(#id1)}
    .fil0 {fill:url(#id2)}
    .fil60 {fill:url(#id3);fill-rule:nonzero}
    .fil21 {fill:url(#id4);fill-rule:nonzero}
   ]]>
  </style>
   <clipPath id="id0">
    <path d="M72 0l474 0c40,0 72,32 72,72l0 597c0,39 -32,72 -72,72l-474 0c-40,0 -72,-33 -72,-72l0 -597c0,-40 32,-72 72,-72z"/>
   </clipPath>
  <linearGradient id="id1" gradientUnits="userSpaceOnUse" x1="169.243" y1="922.191" x2="495.332" y2="440.872">
   <stop offset="0" style="stop-opacity:1; stop-color:#6200D1"/>
   <stop offset="1" style="stop-opacity:1; stop-color:#FF2EBD"/>
  </linearGradient>
  <linearGradient id="id2" gradientUnits="userSpaceOnUse" x1="152.902" y1="600.711" x2="465.125" y2="139.859">
   <stop offset="0" style="stop-opacity:1; stop-color:#5200B0"/>
   <stop offset="1" style="stop-opacity:1; stop-color:#EB00A1"/>
  </linearGradient>
  <linearGradient id="id3" gradientUnits="objectBoundingBox" x1="39.1282%" y1="112.678%" x2="60.8718%" y2="0%">
   <stop offset="0" style="stop-opacity:1; stop-color:#B940FF"/>
   <stop offset="1" style="stop-opacity:1; stop-color:#FF87EF"/>
  </linearGradient>
  <linearGradient id="id4" gradientUnits="userSpaceOnUse" x1="351.329" y1="415.407" x2="366.764" y2="433.36">
   <stop offset="0" style="stop-opacity:1; stop-color:#4A2517"/>
   <stop offset="0.709804" style="stop-opacity:1; stop-color:#A42F28"/>
   <stop offset="1" style="stop-opacity:1; stop-color:#FF3A3A"/>
  </linearGradient>
 </defs>
 <g id="Layer_x0020_1">
  <metadata id="CorelCorpID_0Corel-Layer"/>
  <path class="fil0" d="M72 0l474 0c40,0 72,32 72,72l0 597c0,39 -32,72 -72,72l-474 0c-40,0 -72,-33 -72,-72l0 -597c0,-40 32,-72 72,-72z"/>
  <g style="clip-path:url(#id0)">
   <g id="_2278673448640">
    <circle class="fil1" cx="332" cy="682" r="361"/>
    <circle class="fil2 str0" cx="442" cy="645" r="414"/>
    <path class="fil3" d="M292 470c1,0 5,4 5,4l85 51 -14 -96 -69 27 -7 14z"/>
    <g>
     <path class="fil4" d="M400 556c1,7 5,45 6,52 0,8 3,20 -1,27 -3,4 -6,8 -7,13 0,1 -1,6 0,7 2,2 4,-2 5,-3 0,-2 1,-6 3,-7 2,0 1,4 1,5 0,5 -1,7 -3,11 0,2 -2,6 -1,8 2,2 5,-2 6,-3 -1,4 3,1 4,0 0,0 0,0 0,0 0,4 4,1 4,-1 1,2 2,2 3,0 2,-1 2,-2 2,-4 1,-3 1,-5 1,-8 -1,-6 -3,-13 -6,-18 -2,-3 -1,-8 -1,-11 1,-4 1,-8 1,-13 0,-4 1,-54 1,-54l-18 -1z"/>
     <path class="fil5" d="M406 669c2,-1 3,-3 4,-4 1,-2 1,-4 2,-6 1,-2 1,-4 1,-6 0,-2 0,-4 0,-5 0,1 -1,3 -1,5 -1,2 -1,4 -2,6 0,1 -1,3 -1,5 -1,2 -2,4 -3,5z"/>
     <path class="fil5" d="M412 667c0,0 1,-1 2,-1 0,-1 0,-2 1,-3 0,-2 1,-3 1,-5 1,-3 1,-7 1,-11 -1,2 -1,4 -1,5l-2 6c0,1 0,3 -1,5 0,1 0,3 -1,4z"/>
     <path class="fil5" d="M416 667c1,-1 2,-3 3,-4 1,-2 1,-3 1,-5 0,-4 0,-7 -1,-10 0,2 0,3 0,5 0,1 0,3 -1,5 0,1 0,3 0,4 -1,2 -1,3 -2,5z"/>
     <path class="fil6" d="M422 560c-1,-7 -2,-15 -4,-22 -1,-8 -3,-16 -6,-22 -2,-3 -3,-6 -5,-9 -1,-2 -3,-6 -6,-7 -4,-1 -6,5 -7,7 0,4 0,8 -1,12 0,8 1,15 1,23 0,3 -1,7 -1,11 0,1 0,7 1,7l28 0z"/>
     <path class="fil7" d="M390 558c1,3 0,7 1,10 2,0 29,-1 34,-2 0,-2 0,-6 0,-9l-35 1z"/>
     <path class="fil8" d="M407 782c8,1 17,0 25,1 1,0 3,0 4,0 0,1 0,3 -1,4l-61 0c-2,-1 -2,-3 -2,-6 12,1 23,1 35,1z"/>
     <path class="fil9" d="M408 767c2,-2 4,-2 7,-3 0,0 0,0 0,0 4,1 9,1 13,4 3,2 6,5 7,8 1,2 1,5 1,7 -1,0 -3,0 -4,0 -8,-1 -17,0 -25,-1 -1,0 -3,0 -4,0 0,-5 1,-11 5,-15z"/>
     <path class="fil10" d="M388 764c-1,-3 -1,-7 -2,-10 0,-5 0,-9 1,-14 3,0 5,0 6,0 0,9 -1,18 6,20 5,2 10,3 16,4 -3,1 -5,1 -7,3 -1,1 -3,3 -3,5 -6,-1 -15,-3 -17,-8z"/>
     <path class="fil11" d="M373 764c0,-1 0,-2 0,-4 0,-6 1,-11 0,-20 2,0 8,0 14,0 -1,4 -1,8 -1,13 0,2 -1,5 -3,6 -2,2 -6,5 -10,5z"/>
     <path class="fil12" d="M373 764c4,0 8,-3 10,-5 2,-1 3,-4 3,-6 0,0 0,0 0,1 1,3 1,7 2,10 2,5 11,7 17,8 -2,3 -2,7 -2,10 -11,0 -21,0 -31,-1 0,-3 0,-7 1,-9 0,-2 0,-5 0,-8z"/>
     <path class="fil9" d="M382 764c0,0 0,0 0,0 3,0 4,4 4,7 0,1 -1,5 -4,6 -4,1 -6,-13 0,-13z"/>
     <path class="fil13" d="M408 764c-3,0 -6,2 -8,5 0,0 -1,0 0,0 1,-3 4,-6 8,-6 1,0 0,1 0,1z"/>
     <path class="fil13" d="M401 762c-2,1 -4,3 -6,5 0,1 0,1 0,0 1,-2 3,-4 6,-5 0,0 1,0 0,0z"/>
     <path class="fil13" d="M397 760c-3,0 -5,3 -8,4 0,1 -1,1 0,0 2,-2 5,-4 8,-4 0,0 0,0 0,0z"/>
     <path class="fil13" d="M394 757c-2,0 -4,1 -6,2 0,0 -1,0 -1,0 3,-1 5,-2 8,-2 0,0 0,0 -1,0z"/>
     <path class="fil13" d="M393 754c-2,0 -4,0 -6,0 0,0 -1,0 0,0 2,-1 4,-1 6,0 1,0 0,0 0,0z"/>
     <path class="fil13" d="M393 750c-2,0 -4,0 -6,0 0,0 0,0 1,0 1,0 3,0 5,0 0,0 1,0 0,0z"/>
     <path class="fil13" d="M393 745c-2,0 -4,0 -6,0 0,0 0,0 0,0 2,0 4,0 6,0 1,0 1,0 0,0z"/>
     <path class="fil14" d="M370 791c8,0 17,0 25,0 1,0 2,0 3,0 0,2 0,3 0,4l-62 0c-1,0 -2,-3 -2,-5 12,0 23,0 36,1z"/>
     <path class="fil15" d="M371 775c1,-1 4,-2 6,-3 0,0 0,0 0,0 5,1 10,1 13,4 3,2 6,6 8,9 0,2 0,4 0,6 -1,0 -2,0 -3,0 -8,0 -17,0 -25,0 -2,0 -3,0 -5,0 1,-6 1,-12 6,-16z"/>
     <path class="fil16" d="M350 772c-1,-3 -1,-7 -1,-10 -1,-5 0,-9 0,-13 3,0 6,0 7,0 0,9 -2,17 5,20 5,1 11,3 16,3 -2,1 -5,2 -6,3 -2,2 -3,3 -4,5 -6,-1 -15,-3 -17,-8z"/>
     <path class="fil17" d="M335 772c1,-1 1,-2 1,-4 0,-6 0,-10 -1,-20 3,1 9,1 14,1 0,4 0,8 0,12 -1,2 -2,5 -4,7 -1,1 -6,4 -10,4z"/>
     <path class="fil18" d="M335 772c4,0 9,-3 10,-4 2,-2 3,-5 4,-7 0,0 0,1 0,1 0,3 0,7 1,10 2,5 11,7 17,8 -1,3 -2,7 -2,11 -10,-1 -20,-1 -31,-1 0,-4 1,-8 1,-9 0,-3 0,-6 0,-9z"/>
     <path class="fil15" d="M344 772c0,0 0,0 0,0 4,0 4,5 4,7 0,2 -1,5 -3,6 -5,1 -7,-13 -1,-13z"/>
     <path class="fil13" d="M371 772c-4,0 -7,3 -8,6 0,0 -1,0 -1,0 2,-4 5,-6 9,-6 0,0 0,0 0,0z"/>
     <path class="fil13" d="M364 770c-3,1 -5,3 -6,6 0,0 -1,0 -1,0 1,-3 4,-5 7,-6 0,0 0,0 0,0z"/>
     <path class="fil13" d="M359 768c-3,1 -5,3 -7,5 0,0 -1,0 -1,0 3,-2 5,-4 8,-5 1,0 1,0 0,0z"/>
     <path class="fil13" d="M357 766c-3,0 -5,0 -7,1 0,1 -1,1 0,0 2,-1 5,-2 7,-2 1,0 0,1 0,1z"/>
     <path class="fil13" d="M355 762c-2,0 -4,0 -5,0 -1,0 -1,0 -1,0 2,0 4,0 6,0 1,0 0,0 0,0z"/>
     <path class="fil13" d="M356 759c-2,0 -4,0 -6,0 -1,0 0,-1 0,-1 2,0 4,0 5,0 1,0 1,0 1,1z"/>
     <path class="fil13" d="M356 753c-2,0 -4,0 -6,0 0,0 -1,0 0,0 2,0 4,0 6,0 0,0 0,0 0,0z"/>
     <path class="fil19" d="M368 590c2,20 4,101 4,115 -1,21 0,33 0,55l0 5c7,1 24,-2 30,-4 0,0 -1,-13 -1,-18 -1,-6 3,-59 5,-85 2,-16 4,-32 7,-48 0,-5 1,-10 -2,-15 -3,-8 -17,-8 -28,-11l-15 6z"/>
     <path class="fil19" d="M412 603c0,-3 -1,-5 -2,-8 -2,-4 -7,-5 -11,-7 -4,-1 -9,-2 -13,-2 -5,0 -9,2 -14,3l0 1c-6,-2 -16,1 -24,-1l-15 6c3,20 2,101 1,115 -1,21 -1,41 -1,62 7,1 29,0 34,-3 0,0 -2,-5 -2,-10 -1,-7 -2,-14 -2,-21 -1,-25 6,-49 9,-75 1,-13 3,-27 5,-41 0,0 1,0 1,0 4,-1 8,-2 11,-4 7,-2 16,-4 22,-7 2,-2 1,-6 1,-8z"/>
     <path class="fil20" d="M384 747c0,0 0,0 1,0 1,0 1,0 1,0 1,0 1,0 1,0 1,0 2,1 2,1 1,0 2,0 2,0 1,0 1,0 2,0 1,0 2,1 2,1 0,0 -1,0 -2,0 -1,0 -3,0 -4,0 -1,0 -2,0 -2,0 -1,0 -1,-1 -2,-1 -1,0 -1,-1 -1,-1z"/>
     <path class="fil20" d="M361 764c0,0 0,0 0,0 0,1 0,1 -1,1 0,0 0,0 0,1 -1,0 -1,0 -2,0 0,0 -1,0 -1,1 -1,0 -1,0 -2,0 0,0 -1,0 -1,0 -1,0 -2,0 -2,1 -1,0 -1,0 -2,0 0,0 -1,0 -1,0 -1,-1 -1,-1 -2,-1 0,0 -1,0 -1,0 0,0 0,0 -1,0 0,-1 0,-1 0,-1 0,0 0,0 0,0 1,0 1,0 1,0 1,0 1,0 1,0 1,0 1,0 2,0 0,0 1,0 1,0 1,0 1,0 2,0 0,0 1,0 1,0 1,0 1,0 2,0 0,0 1,0 1,-1 1,0 1,0 2,0 0,0 1,0 1,0 0,0 1,0 1,0 0,-1 0,-1 1,-1 0,0 0,0 0,0z"/>
     <path class="fil20" d="M349 763c0,0 1,0 2,0 0,0 1,0 1,0 0,0 0,0 1,0 0,0 1,0 2,0 0,0 1,0 2,0 0,1 1,1 2,1 1,0 1,0 1,0 0,0 0,0 -1,1 -2,0 -3,0 -5,0 0,0 -1,-1 -2,-1 0,0 -1,0 -1,0 -1,-1 -2,-1 -2,-1z"/>
     <path class="fil20" d="M376 750c0,0 1,0 1,0 1,0 2,1 3,1 0,0 1,0 1,0 1,0 1,0 2,0 1,0 2,0 4,0 2,0 5,0 7,1 2,0 3,0 3,0 0,0 -1,0 -3,0 -1,1 -2,1 -3,1 -2,0 -3,0 -4,0 -1,0 -2,0 -2,0 -1,-1 -2,-1 -2,-1 -1,0 -2,0 -2,0 -1,0 -1,0 -2,-1 -1,0 -1,0 -2,0 0,-1 -1,-1 -1,-1z"/>
     <path class="fil20" d="M377 622c0,0 1,0 2,-1 2,-1 4,-2 6,-2 2,-1 4,-2 6,-2 2,0 3,0 3,0 0,0 -1,0 -3,1 -1,1 -3,1 -5,2 -2,1 -4,1 -6,2 -2,0 -3,0 -3,0z"/>
     <path class="fil20" d="M378 594c0,0 0,0 0,1 0,1 0,2 1,3 0,3 0,6 0,10 -1,4 -1,7 -1,10 0,1 -1,2 -1,3 0,1 0,1 0,1 0,0 0,0 0,-1 0,-1 0,-2 0,-3 0,-3 -1,-7 0,-10 0,-4 0,-7 0,-10 1,-1 1,-2 1,-3 0,-1 0,-1 0,-1z"/>
     <path class="fil20" d="M384 594c0,0 0,2 1,4 0,1 0,2 0,3 0,2 0,3 0,5 0,0 0,1 0,2 0,0 0,1 -1,2 0,0 0,1 0,2 -1,0 -1,1 -1,1 0,1 -1,1 -1,1 0,1 -1,1 -1,1 0,1 -1,1 -1,1 0,0 0,0 1,-1 0,0 0,0 0,-1 1,0 1,-1 1,-1 0,-1 0,-1 0,-2 0,0 1,-1 1,-2 0,0 0,-1 0,-2 0,0 0,-1 0,-2 1,-2 1,-5 1,-7 0,-1 0,-2 0,-3 0,0 0,-1 0,-1z"/>
     <path class="fil20" d="M345 595c0,0 0,0 0,1 0,0 0,1 0,2 0,1 0,1 0,2 0,0 0,1 0,1 0,1 0,2 -1,2 0,1 0,1 0,2 0,1 -1,1 -1,2 0,0 -1,1 -1,1 -1,1 -1,2 -2,3 0,1 -1,2 -2,2 0,1 0,1 0,1 0,0 0,0 0,-1 0,-1 1,-1 1,-2 0,-1 1,-1 1,-2 0,0 0,-1 0,-1 1,-1 1,-2 2,-3 0,-2 1,-3 1,-4 0,0 1,-1 1,-1 0,-1 0,-1 0,-2 0,-1 0,-2 1,-2 0,-1 0,-1 0,-1z"/>
     <path class="fil20" d="M365 707c2,-8 3,-16 5,-24 1,-8 2,-16 4,-24 1,-8 2,-16 3,-24 0,-4 0,-8 1,-12 0,-4 0,-8 0,-13 -1,5 -1,9 -1,13 -1,4 -1,8 -1,12 -1,8 -3,16 -4,24l-4 24c-1,8 -2,16 -3,24z"/>
     <path class="fil21" d="M405 425c3,-5 3,-12 3,-18 0,-6 -1,-12 -4,-18 -8,-12 -22,-19 -36,-20 -16,-1 -35,5 -38,22 -5,0 -11,8 -14,12 -3,5 -5,11 -5,17 -1,10 -2,19 1,28 5,20 28,37 48,30 8,-2 17,-6 19,-14l26 -39z"/>
     <path class="fil4" d="M347 461c9,0 14,-9 14,-17 1,-7 -4,-16 -10,-20 10,0 12,-11 13,-19 4,5 11,5 14,-1 1,-3 1,-10 0,-14 3,4 11,7 13,2l0 -1c6,4 10,12 14,18 3,5 7,10 11,15 2,2 5,5 7,8 1,1 2,3 3,4 6,11 0,25 -8,33 -4,5 -15,10 -28,11l0 0 2 25c-3,1 -28,6 -26,0l5 -27c-8,-3 -17,-8 -24,-17z"/>
     <path class="fil5" d="M394 428c1,1 2,2 4,3 1,1 3,0 4,1 2,1 2,2 2,4 0,1 -1,2 -2,4 1,-1 3,-2 3,-4 1,-1 1,-2 0,-3 0,-1 -1,-2 -2,-2 -1,-1 -2,-1 -3,-1 0,0 -1,0 -2,0 -1,-1 -3,-2 -4,-2z"/>
     <path class="fil22" d="M394 404c-1,0 -1,-1 -2,-1 0,-1 -1,-1 -2,-1 -1,0 -1,0 -2,0 -1,1 -2,1 -2,2 1,0 2,-1 2,-1 1,0 1,0 2,1 1,0 1,0 2,0 0,0 1,0 2,0z"/>
     <path class="fil22" d="M371 415c-1,0 -2,1 -2,1 -1,1 -2,2 -2,3 0,1 0,2 0,3 0,1 0,2 1,2 0,-1 0,-2 0,-2 0,-1 0,-2 1,-3 0,-1 0,-1 1,-2 0,-1 1,-1 1,-2z"/>
     <path class="fil22" d="M379 439c2,2 4,3 5,2 1,-1 1,-3 -1,-5 -2,-2 -4,-3 -5,-2 -1,1 -1,3 1,5z"/>
     <path class="fil22" d="M398 423c2,2 4,3 6,2 1,-1 0,-4 -2,-6 -2,-2 -4,-2 -5,-1 -1,0 -1,3 1,5z"/>
     <path class="fil5" d="M417 444c-1,2 -1,4 -2,6 -1,0 -1,1 -2,2l0 0c-1,0 -1,0 -1,0 0,1 -1,1 -1,1 -2,1 -3,1 -5,2 -2,0 -4,0 -6,-1 2,1 4,2 6,2 2,0 4,-1 6,-2 0,0 1,0 1,0 0,0 0,-1 1,-1l0 0c1,-1 2,-2 2,-3 1,-2 1,-4 1,-6z"/>
     <path class="fil4" d="M362 455c-3,-3 -8,-4 -13,-2 -10,3 -5,16 2,20 5,2 14,1 16,-4l-5 -14z"/>
     <path class="fil5" d="M362 455c-1,-2 -4,-3 -6,-3 -2,-1 -5,0 -7,0 -3,1 -5,3 -6,5 -1,3 0,6 0,8 1,2 3,5 5,6 1,1 2,2 3,2 1,1 2,1 4,1 2,0 5,0 7,0 2,-1 4,-3 5,-5 -1,2 -3,3 -5,4 -3,0 -5,0 -7,0 -5,-1 -8,-4 -10,-9 -1,-2 -1,-4 0,-6 0,-2 2,-4 4,-4 2,-1 5,-2 7,-1 2,0 5,1 6,2z"/>
     <path class="fil23" d="M364 499c-7,3 -17,4 -22,8 -6,5 -6,15 -6,21 -1,9 -1,18 -2,28 0,10 -2,20 -2,30 0,9 -1,18 -1,27 19,-1 35,-3 50,-3 13,1 23,0 35,0 -2,-21 -1,-35 -2,-52 -1,-13 -2,-30 -5,-43 -2,-9 -4,-12 -15,-15 -1,4 -9,7 -15,8 -8,2 -10,-2 -12,-8l-3 -1z"/>
     <path class="fil7" d="M391 494c-1,7 -7,11 -12,14 2,2 9,8 13,8 0,0 5,-4 7,-7 1,-4 3,-6 2,-8 -1,-2 -4,-4 -7,-6l-3 -1z"/>
     <path class="fil7" d="M368 494c-7,0 -13,7 -13,8 1,3 11,15 13,15 2,0 10,-6 13,-10 -6,-1 -13,-3 -13,-9l0 -4z"/>
     <path class="fil4" d="M346 566c-1,7 -4,46 -5,52 0,7 -3,19 1,26 3,4 5,8 6,13 0,1 1,5 0,6 -2,2 -4,-2 -5,-3 0,-1 0,-6 -2,-6 -2,-1 -2,3 -2,5 0,4 2,5 3,10 0,2 2,6 1,7 -2,2 -4,-1 -5,-3 0,4 -3,1 -4,0 0,0 0,0 0,0 0,4 -3,1 -4,-1 0,2 -2,2 -3,1 -1,-2 -1,-3 -1,-5 -1,-3 -1,-4 -1,-7 1,-6 3,-12 6,-17 1,-3 1,-7 1,-10 -1,-4 -1,-9 -1,-13 0,-4 -3,-55 -3,-55l18 0z"/>
     <path class="fil5" d="M340 676c-1,-1 -1,-3 -2,-4 -1,-2 -1,-4 -1,-6 -1,-1 -1,-3 -2,-5 0,-2 0,-3 -1,-5 -1,3 0,7 1,11 0,2 1,3 2,5 1,2 2,3 3,4z"/>
     <path class="fil5" d="M335 675c-1,-2 -1,-3 -1,-5 -1,-1 -1,-3 -1,-5l-1 -5c0,-1 -1,-3 -1,-5 -1,4 0,7 0,11 1,1 1,3 1,5 1,0 1,1 1,2 1,1 2,1 2,2z"/>
     <path class="fil5" d="M331 674c0,-1 -1,-3 -1,-4 -1,-2 -1,-3 -1,-5 0,-1 0,-3 0,-4 0,-2 0,-3 -1,-5 0,3 -1,6 0,9 0,2 0,4 1,5 0,2 1,3 2,4z"/>
     <path class="fil24" d="M324 565c0,-7 2,-14 3,-21 1,-7 3,-15 6,-22 1,-2 2,-5 4,-8 1,-2 3,-6 6,-7 3,0 5,5 6,7 0,4 1,8 1,11 0,8 0,15 0,23 0,3 0,7 0,10 0,2 1,7 0,7l-26 0z"/>
     <path class="fil7" d="M354 563c-1,3 0,7 -1,10 -2,0 -27,-1 -32,-1 0,-3 -1,-7 0,-9l33 0z"/>
    </g>
    <g>
     <path class="fil25" d="M920 621c-1,8 -1,15 -2,23 -1,8 -4,21 0,29 3,5 6,9 7,15 1,1 1,6 0,7 -3,2 -5,-2 -5,-4 -1,-1 -1,-6 -3,-7 -3,0 -2,4 -2,6 0,5 2,7 3,12 0,2 3,6 1,8 -2,3 -5,-1 -6,-3 0,5 -4,1 -5,0 0,0 0,0 0,-1 0,5 -4,1 -5,-1 0,3 -1,3 -3,1 -1,-2 -1,-3 -1,-5 -1,-3 -1,-5 -1,-9 1,-6 3,-14 7,-19 2,-3 1,-8 1,-12 0,-5 -1,-9 -1,-14 0,-5 0,-26 0,-26l15 0z"/>
     <path class="fil26" d="M916 710c-2,-1 -3,-3 -4,-5 -1,-2 -2,-4 -2,-6 -1,-2 -1,-4 -1,-6 -1,-2 0,-4 0,-6 0,4 1,8 2,12 1,2 1,4 2,6 1,2 1,4 3,5z"/>
     <path class="fil26" d="M910 708c-1,0 -2,-1 -2,-2 -1,-1 -1,-1 -1,-2 -1,-2 -1,-4 -2,-6 0,-4 -1,-8 0,-12 0,2 0,4 1,6l1 6c0,2 0,3 1,5 0,2 0,4 2,5z"/>
     <path class="fil26" d="M905 708c-1,-1 -2,-3 -3,-5 -1,-2 -1,-3 -1,-5 0,-4 0,-8 1,-11 0,2 0,3 0,5 0,2 0,4 1,6 0,1 0,3 0,5 1,1 1,3 2,5z"/>
     <path class="fil6" d="M899 619c1,-6 2,-12 3,-18 2,-6 3,-13 6,-18 1,-3 2,-5 3,-7 1,-2 3,-5 6,-6 2,-1 4,4 5,6 0,3 0,6 0,10 0,6 0,12 0,18 0,3 1,6 1,9 0,2 0,6 -1,6l-23 0z"/>
     <path class="fil7" d="M926 617c-1,3 -1,6 -1,9 -2,0 -24,-1 -28,-2 0,-2 -1,-5 0,-7l29 0z"/>
     <path class="fil27" d="M912 817c7,-2 15,-5 16,-10 0,-6 0,-11 0,-17 -1,-4 -2,-7 -2,-11 -1,-9 -2,-16 -3,-25 -2,-8 -5,-20 -5,-29l20 -5c0,8 -2,17 -1,27 2,10 3,14 5,24 1,3 1,5 1,7 2,12 1,20 0,33 0,0 1,4 2,7 -3,0 -6,1 -8,1 -10,0 -23,2 -34,0 3,0 6,-1 9,-2z"/>
     <path class="fil28" d="M914 826c-7,0 -15,0 -22,0 -1,0 -2,0 -3,0 0,2 0,3 0,4l55 0c1,0 1,-3 1,-5 -10,0 -20,0 -31,1z"/>
     <path class="fil29" d="M913 811c-1,-1 -3,-2 -5,-2 -1,0 -1,0 -1,0 -4,1 -8,1 -11,3 -3,2 -6,5 -7,8 0,2 0,4 0,6 1,0 2,0 3,0 7,0 15,0 22,0 1,0 2,0 4,0 0,-5 -1,-11 -5,-15z"/>
     <path class="fil30" d="M931 809c1,-3 1,-7 1,-10 1,-4 0,-8 0,-12 -2,0 -5,0 -6,0 0,8 2,16 -4,18 -5,2 -10,3 -14,4 2,0 4,1 5,2 2,2 3,3 3,5 5,-1 13,-3 15,-7z"/>
     <path class="fil31" d="M944 809c0,-1 0,-2 0,-4 0,-5 0,-10 0,-18 -2,0 -7,0 -12,0 0,4 1,7 0,11 1,3 2,5 3,7 2,1 6,4 9,4z"/>
     <path class="fil32" d="M944 809c-3,0 -7,-3 -9,-4 -1,-2 -2,-4 -3,-7 0,1 0,1 0,1 0,3 0,7 -1,10 -2,4 -10,6 -15,7 1,3 2,6 2,10 9,-1 18,-1 27,-1 0,-3 0,-7 0,-8 -1,-3 -1,-5 -1,-8z"/>
     <path class="fil29" d="M936 809c0,0 0,0 0,0 -2,0 -3,4 -3,6 0,2 1,5 3,6 4,1 6,-12 0,-12z"/>
     <path class="fil13" d="M913 809c3,0 6,2 7,5 0,0 1,0 1,0 -2,-3 -5,-6 -8,-6 -1,0 0,1 0,1z"/>
     <path class="fil13" d="M919 807c3,1 4,3 6,5 0,0 0,0 0,0 -1,-2 -3,-4 -6,-5 0,0 0,0 0,0z"/>
     <path class="fil13" d="M923 805c3,1 5,3 7,4 0,0 1,0 0,0 -2,-2 -4,-4 -7,-4 0,0 0,0 0,0z"/>
     <path class="fil13" d="M925 803c2,0 4,0 6,1 0,0 1,0 0,0 -1,-1 -4,-2 -6,-1 0,0 0,0 0,0z"/>
     <path class="fil13" d="M927 800c1,-1 3,-1 5,0 0,0 0,0 0,-1 -2,0 -4,0 -5,0 -1,0 0,1 0,1z"/>
     <path class="fil13" d="M926 796c2,0 4,0 6,0 0,0 0,0 -1,0 -1,0 -3,0 -4,0 -1,0 -1,0 -1,0z"/>
     <path class="fil13" d="M926 791c2,0 4,0 5,0 1,0 1,0 1,0 -2,0 -4,0 -6,0 0,0 0,0 0,0z"/>
     <path class="fil7" d="M933 820c7,-3 14,-5 15,-10 1,-7 1,-11 0,-17 0,-5 -1,-8 -1,-12 -2,-8 -2,-15 -4,-24 -1,-9 -4,-20 -4,-29l20 -6c0,8 -2,18 -1,28 1,10 3,14 5,24 0,2 1,4 1,6 2,12 0,20 0,33 0,1 0,4 1,7 -2,1 -5,1 -7,1 -10,1 -23,3 -34,1 3,-1 6,-1 9,-2z"/>
     <path class="fil14" d="M936 829c-7,1 -15,0 -23,1 0,0 -2,0 -3,-1 0,2 1,3 1,5l54 -1c2,0 2,-2 2,-5 -11,1 -20,1 -31,1z"/>
     <path class="fil15" d="M935 815c-2,-1 -4,-2 -6,-3 0,0 0,0 0,0 -4,1 -8,1 -11,4 -3,2 -6,5 -7,8 -1,2 -1,4 -1,5 1,1 3,1 3,1 8,-1 16,0 23,-1 1,0 2,0 3,0 0,-5 0,-10 -4,-14z"/>
     <path class="fil33" d="M953 812c1,-3 1,-6 1,-9 0,-4 0,-8 0,-13 -3,0 -5,0 -6,0 0,9 1,16 -5,19 -4,2 -9,3 -14,3 2,1 4,2 6,3 1,1 2,3 3,4 5,0 13,-2 15,-7z"/>
     <path class="fil34" d="M966 812c0,-1 0,-2 0,-3 0,-6 0,-10 0,-19 -2,0 -7,1 -12,0 0,4 0,8 0,12 1,2 2,4 3,6 2,2 6,4 9,4z"/>
     <path class="fil35" d="M966 812c-3,0 -7,-2 -9,-4 -1,-2 -2,-4 -3,-6 0,0 0,0 0,1 0,3 0,6 -1,9 -2,5 -10,7 -15,7 1,3 1,7 1,10 10,0 19,0 28,-1 0,-3 -1,-7 -1,-8 0,-3 0,-5 0,-8z"/>
     <path class="fil15" d="M958 812c0,0 0,0 0,0 -3,0 -3,4 -3,6 0,2 1,5 3,6 4,1 6,-12 0,-12z"/>
     <path class="fil13" d="M935 812c3,0 6,2 7,5 0,0 1,0 1,0 -2,-3 -5,-5 -8,-5 -1,0 0,0 0,0z"/>
     <path class="fil13" d="M941 810c2,1 4,3 5,5 0,1 1,1 1,1 -1,-3 -3,-5 -6,-6 0,0 0,0 0,0z"/>
     <path class="fil13" d="M945 809c3,0 5,2 7,4 0,0 0,0 0,0 -2,-2 -4,-4 -7,-4 -1,-1 -1,0 0,0z"/>
     <path class="fil13" d="M947 806c2,0 4,1 6,2 0,0 1,0 0,0 -2,-1 -4,-2 -6,-2 -1,0 0,0 0,0z"/>
     <path class="fil13" d="M949 803c1,0 3,0 4,0 1,0 1,0 1,0 -2,-1 -4,0 -6,0 0,0 0,0 1,0z"/>
     <path class="fil13" d="M948 800c2,0 4,0 5,0 1,0 0,-1 0,-1 -1,0 -3,1 -5,0 0,0 0,1 0,1z"/>
     <path class="fil13" d="M948 795c2,0 3,0 5,0 1,0 1,-1 0,-1 -1,1 -3,1 -5,1 0,0 0,0 0,0z"/>
     <path class="fil19" d="M957 659c5,0 8,2 11,5 5,5 20,64 20,64 -5,2 -13,3 -18,5 -6,3 -8,5 -15,5 -10,0 -19,2 -29,-1 -5,-2 -8,0 -13,-1 -6,-1 -8,-4 -14,-4 -3,-1 -2,-1 -6,-2 -1,-1 13,-54 19,-65 1,-3 2,-4 3,-5 1,0 36,0 42,-1z"/>
     <path class="fil20" d="M970 726l0 -2c0,-1 0,-1 0,-2l-1 -4 0 -5 -1 -4 0 0c0,-4 -1,-9 -2,-13 -1,-4 -2,-9 -3,-13 -1,-4 -2,-8 -3,-13 -1,-2 -1,-4 -2,-6 0,-2 -1,-4 -2,-6 1,2 1,4 2,6 0,2 0,5 1,7 1,4 2,8 3,13 1,4 2,8 3,12 0,5 1,9 2,13l0 0 1 4 1 5 0 4c1,1 1,3 1,4z"/>
     <path class="fil20" d="M956 728c0,0 0,-1 0,-2 -1,-2 -1,-4 -1,-7 0,-2 0,-5 0,-8 -1,-4 -1,-7 -1,-11 -1,-3 -1,-7 -2,-10 0,-2 0,-3 0,-5 -1,-1 -1,-2 -1,-4 -1,-2 -1,-4 -1,-6 -1,-1 -1,-2 -1,-2 0,0 0,1 0,2 0,2 1,4 1,6 0,2 0,3 1,5 0,1 0,3 0,4 0,4 1,7 1,10 1,4 1,7 1,11 1,3 1,6 1,9 1,2 1,4 1,6 0,1 1,2 1,2z"/>
     <path class="fil20" d="M936 667c0,0 0,1 0,3 0,2 0,4 0,7 0,1 0,3 0,5 -1,2 -1,3 -1,5 0,4 0,8 0,12 -1,4 -1,8 -1,12 0,2 0,3 0,5 0,2 0,3 0,5 1,3 1,5 1,7 0,2 0,3 0,3 0,0 0,-1 0,-3 0,-2 0,-4 0,-7 0,-2 0,-3 0,-5 0,-2 1,-3 1,-5 0,-4 0,-8 0,-12 0,-4 1,-8 1,-12 0,-2 0,-3 0,-5 0,-2 0,-3 0,-5 0,-3 0,-5 0,-7 -1,-2 -1,-3 -1,-3z"/>
     <path class="fil20" d="M923 664c0,0 0,1 -1,2 0,1 0,3 -1,4 0,0 0,1 0,2 0,1 0,1 -1,2 0,2 0,4 -1,5 0,2 0,4 0,6 -1,2 -1,4 -1,7 0,2 0,4 0,6 0,5 -1,9 -1,13 0,4 0,8 0,11 0,3 0,6 0,8 0,2 0,3 0,3 0,0 0,-1 0,-3 0,-2 1,-4 1,-8 0,-3 1,-7 1,-11 0,-4 0,-8 0,-13 0,-2 0,-4 1,-6 0,-2 0,-5 0,-7 0,-2 0,-4 1,-5 0,-2 0,-4 0,-6 0,0 0,-1 1,-2 0,-1 0,-1 0,-2 0,-1 0,-3 1,-3 0,-2 0,-3 0,-3z"/>
     <path class="fil20" d="M915 671c0,0 0,1 0,2 -1,1 -1,3 -2,5 0,1 0,2 -1,3 0,1 0,2 -1,4 0,2 -1,5 -2,8 0,2 -1,5 -1,8 -1,3 -1,5 -1,7 0,2 0,4 -1,5 0,1 0,2 0,2 0,0 0,-1 1,-2 0,-1 0,-3 1,-5 0,-1 0,-2 1,-3 0,-1 0,-3 0,-4 1,-2 1,-5 2,-8 1,-3 1,-5 2,-8 0,-1 0,-3 0,-4 1,-1 1,-2 1,-3 1,-2 1,-4 1,-5 0,-1 0,-2 0,-2z"/>
     <path class="fil23" d="M917 570c1,-2 2,-2 4,-4 2,4 8,3 11,2 4,0 5,0 7,-2 2,-2 3,-2 6,-2 5,0 16,4 18,9 2,4 -3,4 -4,9 0,14 4,23 5,37 1,8 1,20 2,28 1,5 2,13 5,17 -3,3 -12,4 -16,5 -13,2 -13,2 -21,2 -7,1 -17,0 -24,-2 0,-10 1,-18 1,-27 0,-6 0,-12 0,-18 0,-8 0,-16 0,-23 -1,-12 -2,-22 6,-31z"/>
     <path class="fil25" d="M960 622c1,5 6,31 6,36 1,7 4,17 0,23 -2,4 -4,7 -4,11 -1,2 -1,5 0,6 2,2 3,-1 4,-3 0,-1 0,-5 2,-5 2,-1 1,3 2,4 0,4 -2,5 -3,9 0,1 -1,5 0,7 1,1 4,-2 4,-3 0,3 3,1 4,-1 0,0 0,0 0,0 0,4 3,1 3,-1 1,2 2,2 3,1 0,-2 1,-2 1,-4 0,-3 0,-4 0,-7 -1,-5 -3,-10 -6,-14 -1,-3 -1,-7 -1,-9 1,-4 1,-8 1,-11 0,-4 -1,-40 -1,-40l-15 1z"/>
     <path class="fil26" d="M969 709c1,-1 2,-2 2,-4 0,-1 1,-3 1,-4 0,-2 1,-3 1,-5 0,-2 1,-3 1,-5 1,3 0,7 0,10 -1,2 -1,3 -2,5 0,1 -1,3 -3,3z"/>
     <path class="fil26" d="M973 708c1,-1 2,-3 2,-4 0,-2 0,-3 0,-4l1 -5 1 -4c1,3 0,6 0,9 0,1 -1,3 -1,4 0,1 0,2 -1,2 0,1 -1,2 -2,2z"/>
     <path class="fil26" d="M977 707c1,-1 1,-2 1,-4 0,-1 0,-2 1,-4 0,-1 0,-2 0,-4 0,-1 0,-2 0,-4 1,3 1,6 1,8 0,2 0,3 -1,5 0,1 -1,2 -2,3z"/>
     <path class="fil24" d="M978 620c-1,-7 -2,-13 -4,-19 -1,-6 -3,-13 -5,-19 -2,-2 -3,-4 -4,-7 -2,-2 -3,-5 -6,-6 -3,0 -4,5 -5,7 0,3 0,6 0,10 0,6 0,12 0,19 0,3 0,6 0,9 0,2 0,6 1,7l23 -1z"/>
     <path class="fil7" d="M952 619c1,2 0,6 1,8 2,0 23,-2 28,-2 -1,-2 0,-6 -1,-8l-28 2z"/>
     <path class="fil25" d="M966 503c-4,-1 -6,-6 -6,-10 0,-4 2,-9 4,-12 -8,0 -16,-8 -22,-13 -4,-4 -6,-7 -8,-11 -1,-1 -1,-1 -1,-1 -4,2 -8,5 -12,8 -4,5 -7,10 -11,15 -3,5 -7,11 -11,15 -2,3 -5,5 -7,8 -1,1 -2,3 -3,5 -6,11 0,24 8,33 4,4 15,10 29,11l0 0 -2 24c2,1 6,-1 10,0 6,0 11,1 10,-3l-3 -22c6,-2 15,-7 21,-13 -2,-3 -5,-6 -6,-10 -2,-8 5,-17 10,-24z"/>
     <path class="fil22" d="M977 468c0,-5 7,-8 12,-9 8,-2 17,3 20,11 5,14 1,30 2,44 0,5 4,7 6,11 3,5 1,9 -1,14 -1,3 -1,2 2,5 2,3 2,6 2,9 0,2 0,4 -1,7 -2,2 -5,2 -7,4 9,12 -9,26 -21,22 -7,-3 -14,-9 -15,-17 -1,-8 1,-11 7,-17 -4,-1 -6,-7 -6,-11 0,-5 5,-8 9,-10 -6,-1 -3,-10 -2,-13 2,-6 3,-11 3,-16 0,-12 -14,-16 -11,-28l1 -6z"/>
     <path class="fil36" d="M987 491c6,-2 10,-10 8,-17 -3,-10 -17,-10 -19,-1l11 18z"/>
     <path class="fil22" d="M988 483c-2,-9 -6,-17 -14,-22 -11,-9 -28,-10 -41,-5 0,0 0,0 1,1 2,4 4,7 8,11 6,5 14,13 22,13 -2,3 -4,8 -4,12 0,4 2,9 6,10 -5,7 -12,16 -10,24 1,4 4,7 6,10 1,0 2,-1 2,-1 6,-6 12,-9 17,-15 8,-12 10,-24 7,-38z"/>
     <path class="fil26" d="M922 498c-2,1 -3,3 -5,3 -1,1 -3,1 -4,2 -2,0 -2,2 -2,3 0,2 1,3 3,4 -2,-1 -3,-2 -4,-4 -1,0 -1,-2 0,-3 0,-1 1,-1 2,-2 1,0 2,0 3,-1 0,0 1,0 2,0 1,0 3,-1 5,-2z"/>
     <path class="fil22" d="M922 475c0,-1 0,-2 1,-2 1,0 1,-1 2,-1 1,0 2,0 2,1 1,0 2,0 2,1 -1,0 -1,0 -2,0 -1,0 -1,0 -2,0 0,0 -1,0 -2,0 0,0 -1,0 -1,1z"/>
     <path class="fil22" d="M944 485c1,0 2,1 2,2 1,0 2,1 2,2 0,1 1,2 0,3 0,1 0,2 -1,3 0,-1 0,-2 0,-3 0,-1 0,-2 -1,-2 0,-1 0,-2 -1,-3 0,0 -1,-1 -1,-2z"/>
     <path class="fil22" d="M936 509c-2,3 -4,3 -5,2 -1,-1 -1,-3 1,-5 2,-2 4,-3 5,-2 1,1 1,3 -1,5z"/>
     <path class="fil22" d="M917 493c-2,2 -4,3 -5,2 -2,-1 -1,-3 1,-5 2,-2 4,-3 5,-2 1,1 1,3 -1,5z"/>
     <path class="fil26" d="M898 515c1,2 1,4 2,5 1,1 1,1 2,2l0 0c1,1 1,1 1,1 0,0 1,0 1,0 2,1 4,2 5,2 2,0 4,0 6,0 -2,1 -4,1 -6,1 -2,0 -4,0 -6,-1 0,0 0,-1 -1,-1 0,0 0,0 -1,0l0 -1c-1,-1 -2,-1 -2,-2 -1,-2 -1,-4 -1,-6z"/>
     <path class="fil25" d="M953 526c3,-4 8,-4 13,-3 10,4 5,17 -2,20 -5,2 -14,2 -16,-4l5 -13z"/>
     <path class="fil26" d="M953 526c1,-2 4,-3 6,-4 2,0 5,0 7,1 3,1 5,2 6,5 1,2 1,5 0,7 -1,3 -3,5 -5,7 -1,0 -2,1 -3,2 -1,0 -2,0 -3,1 -3,0 -5,0 -8,-1 -2,-1 -4,-3 -5,-5 1,2 3,4 5,4 3,1 5,1 7,0 5,0 9,-4 10,-8 1,-2 1,-5 1,-7 -1,-2 -3,-3 -5,-4 -2,-1 -5,-1 -7,-1 -2,0 -5,1 -6,3z"/>
     <path class="fil7" d="M925 564c0,5 5,8 9,10 -1,2 -7,7 -9,7 -1,0 -4,-3 -6,-6 -1,-3 -2,-4 -1,-6 0,-1 3,-3 5,-4l2 -1z"/>
     <path class="fil7" d="M943 564c5,0 10,5 10,6 -1,2 -9,12 -10,12 -2,0 -8,-5 -10,-8 4,0 10,-2 10,-7l0 -3z"/>
    </g>
    <path class="fil4" d="M184 410c-3,0 4,91 10,96 11,8 21,23 19,-5 -2,-20 -8,-79 -6,-98 0,0 -23,7 -23,7z"/>
    <path class="fil37" d="M194 390c-4,0 -5,1 -8,4 -5,5 -3,11 -4,18 0,1 0,14 0,15 14,0 21,-1 29,-5 0,-1 -1,-17 -7,-27 -2,-2 -7,-5 -10,-5z"/>
    <path class="fil4" d="M197 483c-8,0 -7,14 -7,20 1,9 4,26 6,36 2,9 5,19 8,28 0,0 0,0 0,0 0,2 5,10 4,12 -2,3 -4,3 -3,6 0,5 5,14 7,19 -1,1 -1,3 -2,5 -1,3 -2,3 -3,7 0,3 3,0 5,-2 2,-3 4,-7 7,-9 2,2 -12,16 -8,18 1,1 5,-5 7,-7 1,-2 4,-5 6,-7 -1,5 -12,15 -9,17 2,1 10,-10 13,-14 -2,6 -8,11 -8,15 2,2 9,-7 10,-10 2,-4 2,-6 2,-10 -1,-6 -7,-21 -12,-28 -1,-10 -1,-19 -2,-28 0,-6 -1,-12 -1,-17 -1,-10 -2,-19 -3,-29 -3,-28 -8,-23 -17,-22zm17 79l0 0c-1,0 -1,0 -1,0 0,0 0,0 1,0z"/>
    <path class="fil38" d="M194 461l-2 30c0,0 2,19 6,32 5,14 -28,27 -31,27 -4,0 -44,-13 -44,-13l-15 -23 4 -14 0 -8c0,0 -3,-16 0,-25 3,-10 82,-6 82,-6z"/>
    <path class="fil38" d="M160 878c-10,-6 -24,-13 -29,-17 -6,-6 13,-301 13,-301l-38 0 1 52c0,0 3,103 0,120 -3,17 0,104 1,135l0 3c16,6 35,10 52,8z"/>
    <path class="fil39" d="M160 878c-17,2 -36,-2 -52,-8l0 10c0,0 65,15 70,9 0,0 2,-4 -18,-11z"/>
    <path class="fil38" d="M214 871c-9,-5 -22,-11 -27,-15 -11,-7 21,-296 21,-296l-48 -6 1 52c0,0 3,103 0,120 -3,17 1,104 1,134l0 4c16,6 35,10 52,7z"/>
    <path class="fil39" d="M214 871c-17,3 -36,-1 -52,-7l0 10c0,0 57,15 70,7 0,0 3,-2 -18,-10z"/>
    <path class="fil40" d="M92 554c4,-37 13,-51 16,-54 0,-2 1,-5 3,-7 53,11 72,2 81,-2 2,3 4,6 5,8 0,0 16,35 17,58 1,24 -6,84 -12,145l-13 135c0,0 -14,4 -29,0l-3 -259 -5 4 -17 254c0,0 -14,6 -31,0 0,0 -3,-91 -2,-108 0,0 -14,-137 -10,-174z"/>
    <path class="fil41" d="M194 497c-7,3 -14,5 -21,7 -7,1 -14,2 -22,2 -14,0 -29,-2 -43,-6 14,1 29,3 43,3 7,0 15,0 22,-1 7,-1 14,-3 21,-5z"/>
    <path class="fil42" d="M162 505c1,9 2,18 2,27 0,5 -1,9 -3,14 -1,4 -4,8 -8,11 3,-4 5,-8 6,-12 1,-4 2,-9 2,-13 0,-5 0,-9 1,-14 0,-4 0,-9 0,-13z"/>
    <path class="fil42" d="M157 506c0,13 0,25 -1,38 -1,3 -1,6 -2,9 0,3 0,6 -1,9 0,7 0,13 -1,19 0,-6 -1,-12 -1,-19 0,-3 0,-6 1,-9 0,-3 1,-6 1,-10 1,-6 1,-12 2,-18 0,-7 1,-13 2,-19z"/>
    <path class="fil42" d="M168 571l-6 4c-2,2 -4,3 -6,5 -1,1 -3,3 -5,4 -3,1 -5,3 -7,3 2,-1 3,-3 5,-5 2,-1 4,-3 6,-4 2,-2 4,-3 6,-4 2,-1 5,-2 7,-3z"/>
    <path class="fil42" d="M118 503c0,3 -1,6 -2,8 -1,3 -2,6 -4,8 -2,2 -4,4 -6,6 -3,2 -5,3 -8,4 2,-2 4,-4 6,-6 2,-1 4,-3 6,-6 3,-4 6,-9 8,-14z"/>
    <path class="fil42" d="M207 524c-2,0 -3,0 -5,0 -1,-1 -3,-1 -4,-2 -3,-1 -5,-3 -7,-6 -2,-2 -3,-4 -4,-7 -1,-3 -2,-6 -2,-9 1,3 2,6 4,8 1,2 3,5 4,7 2,2 4,4 6,5 1,1 2,2 4,2 1,1 2,2 4,2z"/>
    <path class="fil7" d="M200 337c15,-2 33,-17 38,-31 9,-24 -5,-49 -26,-61 -21,-11 -47,-17 -71,-9 -24,8 -38,29 -47,52 -4,11 -5,23 -7,34 -3,15 -12,19 -25,26 -6,3 -13,6 -18,11 -5,4 -8,11 -10,17 -5,12 -6,23 -3,35 5,27 30,45 55,54 11,5 23,4 35,4 12,0 21,-1 31,-8 15,-11 23,-25 23,-44 0,-17 -2,-34 -2,-51l27 -29z"/>
    <path class="fil4" d="M212 325c3,-10 9,-20 12,-30 -6,-1 -13,-4 -18,-6 -6,-3 -12,-7 -18,-11 -3,-2 -6,-4 -9,-6 -2,-2 -3,-5 -5,-6 -4,12 -20,28 -34,25 -1,9 -7,24 -17,27 1,5 3,11 5,16 3,5 5,10 8,15 2,3 4,6 6,9 2,3 5,5 8,7 1,1 1,1 2,2 -1,4 -5,13 -5,15 -2,1 -4,2 -7,2l4 13c0,0 19,7 19,7 1,0 13,-6 13,-6l0 -9 -2 -2c0,0 -6,0 -6,-5l0 0 0 -9c1,0 2,0 2,0 0,0 0,0 0,0 11,0 28,-1 35,-11 3,-4 4,-9 4,-14 0,-1 0,-2 0,-4 0,-6 1,-12 3,-19z"/>
    <path class="fil4" d="M190 326c-2,2 -3,7 -2,10 1,3 4,5 -1,6 -2,1 -5,1 -7,0l10 -16z"/>
    <path class="fil5" d="M190 326c-1,2 -1,3 -1,5 -1,1 -1,3 0,4l0 0c0,2 1,3 1,4 1,0 1,1 1,1 0,1 -1,2 -1,2 -1,1 -2,1 -2,1 -2,0 -3,1 -5,0 -1,0 -2,0 -3,-1 1,0 2,0 4,0 1,0 2,0 3,-1 1,0 1,0 2,0 0,-1 0,-1 0,-1 0,0 0,0 0,0 -1,-1 -1,-3 -2,-4l0 0 0 0c0,-2 0,-4 0,-5 1,-1 1,-2 1,-3 1,0 1,-1 2,-2z"/>
    <path class="fil22" d="M166 298c0,-1 1,-2 3,-2 1,-1 2,-1 4,-1 1,0 3,0 4,1 1,0 2,1 2,3 -1,-1 -2,-2 -3,-2 -1,0 -2,-1 -3,-1 -2,0 -3,1 -4,1 -1,0 -2,1 -3,1z"/>
    <path class="fil22" d="M199 305c1,-1 2,-2 4,-2 1,0 2,0 4,0 1,1 2,2 3,3 0,1 1,2 0,4 -1,-3 -2,-4 -4,-5 -2,-1 -4,-1 -7,0z"/>
    <path class="fil22" d="M202 328c-1,3 -3,4 -4,4 -1,-1 -2,-3 -1,-6 2,-3 4,-5 5,-4 1,1 2,3 0,6z"/>
    <path class="fil22" d="M176 319c-1,2 -3,4 -5,4 -1,-1 -1,-4 0,-6 1,-3 3,-5 4,-4 2,0 2,3 1,6z"/>
    <path class="fil4" d="M130 320c1,-9 -13,-12 -19,-8 -7,5 -9,14 -3,21 4,5 12,7 18,4 2,-1 6,-4 6,-4l-2 -13z"/>
    <path class="fil5" d="M130 320c0,-2 0,-3 -1,-5 -1,-1 -2,-2 -4,-3 -2,-1 -5,-1 -8,-1 -2,0 -3,1 -5,1 -1,1 -2,2 -3,3 -2,2 -4,5 -4,8 0,3 1,6 3,8 1,3 4,5 7,6 2,1 5,1 8,1 2,-1 3,-1 5,-2 0,0 1,-1 2,-1 0,-1 1,-1 2,-2 -1,1 -3,2 -4,3 -1,1 -3,2 -4,2 -3,1 -7,1 -10,0 -3,-1 -6,-3 -8,-6 -2,-2 -3,-6 -3,-9 1,-4 2,-7 5,-9 1,-1 2,-2 4,-3 1,-1 3,-1 4,-1 4,0 7,0 10,2 1,1 3,2 3,3 1,1 1,3 1,5z"/>
    <path class="fil5" d="M159 346c1,4 5,6 8,8 2,0 4,1 6,1 2,1 4,1 6,1 -2,1 -4,1 -6,1 -2,0 -5,-1 -6,-2 -2,-1 -4,-2 -6,-3 -1,-2 -2,-4 -2,-6z"/>
    <path class="fil43" d="M158 400c0,0 0,0 0,0 0,0 0,0 0,0 0,0 0,0 0,0z"/>
    <path class="fil44" d="M113 393l2 -8 17 -1 9 0c0,0 0,16 16,16 0,0 1,0 1,0 0,0 0,0 0,0 0,0 0,0 0,0 17,0 14,-14 14,-14l11 2 11 2c0,0 0,28 5,45 5,17 -3,23 -5,25 0,0 8,37 7,48 0,0 -38,11 -95,-3 -1,-21 0,-77 -2,-83 -1,-9 9,-29 9,-29z"/>
    <path class="fil45" d="M235 478l4 -14c0,0 -1,-4 9,-5l51 -3 -2 18 -62 4z"/>
    <polygon class="fil46" points="244,473 236,473 239,464 246,464 "/>
    <path class="fil4" d="M106 412c-3,2 31,88 38,91 4,2 18,-1 15,-12 -5,-19 -30,-73 -34,-92 0,0 -19,13 -19,13z"/>
    <path class="fil47" d="M115 386c-4,1 -8,5 -9,9 -4,6 -3,13 -2,20 1,1 4,14 5,14 12,-3 18,-7 26,-13 -1,-10 -3,-22 -12,-29 -2,-2 -5,-2 -8,-1z"/>
    <path class="fil4" d="M142 500c2,8 15,6 21,5 9,-1 26,-5 35,-8 10,-3 19,-6 28,-10 0,0 0,0 0,0 2,-1 10,-5 12,-5 2,1 3,3 6,3 5,-1 13,-6 18,-9 2,1 3,1 5,2 3,1 4,2 8,2 2,0 -1,-3 -3,-4 -3,-2 -7,-4 -9,-7 2,-2 16,11 18,7 1,-1 -5,-5 -7,-6 -3,-2 -5,-4 -8,-6 5,0 16,11 17,8 1,-3 -9,-10 -14,-12 6,1 11,7 16,6 1,-1 -8,-8 -11,-9 -4,-1 -6,-2 -10,-1 -6,1 -21,8 -28,14 -9,1 -18,3 -27,4 -6,1 -12,2 -17,3 -10,1 -19,3 -28,5 -29,5 -23,9 -22,18zm79 -22l0 0c-1,0 -1,0 -1,0 0,0 0,0 1,0z"/>
    <g>
     <path class="fil48" d="M455 610c-3,-1 -6,1 -6,4l-33 220c0,3 2,6 5,6l7 1c3,1 6,-2 6,-5l33 -219c0,-3 -2,-6 -5,-6l-7 -1z"/>
     <path class="fil48" d="M709 610c3,-1 6,1 6,4l32 220c1,3 -2,6 -5,6l-6 1c-3,1 -6,-2 -7,-5l-32 -219c0,-3 2,-6 5,-6l7 -1z"/>
     <g>
      <path class="fil49" d="M725 613c0,3 -2,5 -5,5l-279 0c-2,0 -4,-2 -4,-5l0 -13c0,-2 2,-4 4,-4l279 0c3,0 5,2 5,4l0 13z"/>
     </g>
    </g>
    <g>
     <g>
      <path class="fil50" d="M550 555l-30 0c-3,0 -6,2 -6,5l0 30c0,3 3,5 6,5l30 0c3,0 5,-2 5,-5l0 -30c0,-3 -2,-5 -5,-5z"/>
      <path class="fil13" d="M547 559l-24 0c-3,0 -4,2 -4,4l0 24c0,2 1,4 4,4l24 0c2,0 4,-2 4,-4l0 -24c0,-2 -2,-4 -4,-4z"/>
      <polygon class="fil51" points="543,584 543,579 534,579 534,564 528,564 528,584 "/>
     </g>
     <g>
      <path class="fil52" d="M595 555l-30 0c-3,0 -5,2 -5,5l0 30c0,3 2,5 5,5l30 0c3,0 5,-2 5,-5l0 -30c0,-3 -2,-5 -5,-5z"/>
      <path class="fil13" d="M592 559l-24 0c-2,0 -4,2 -4,4l0 24c0,2 2,4 4,4l24 0c2,0 4,-2 4,-4l0 -24c0,-2 -2,-4 -4,-4z"/>
      <polygon class="fil53" points="584,584 584,569 589,569 589,564 572,564 572,569 577,569 577,584 "/>
     </g>
     <g>
      <path class="fil54" d="M640 555l-30 0c-3,0 -5,2 -5,5l0 30c0,3 2,5 5,5l30 0c3,0 6,-2 6,-5l0 -30c0,-3 -3,-5 -6,-5z"/>
      <path class="fil13" d="M637 559l-24 0c-2,0 -4,2 -4,4l0 24c0,2 2,4 4,4l24 0c3,0 4,-2 4,-4l0 -24c0,-2 -1,-4 -4,-4z"/>
      <polygon class="fil55" points="629,571 623,571 623,564 617,564 617,584 623,584 623,577 629,577 629,584 636,584 636,564 629,564 "/>
     </g>
     <g>
      <path class="fil54" d="M572 514l-30 0c-3,0 -5,3 -5,5l0 31c0,2 2,5 5,5l30 0c3,0 5,-3 5,-5l0 -31c0,-2 -2,-5 -5,-5z"/>
      <path class="fil13" d="M569 518l-24 0c-2,0 -4,2 -4,5l0 23c0,3 2,5 4,5l24 0c2,0 4,-2 4,-5l0 -23c0,-3 -2,-5 -4,-5z"/>
      <polygon class="fil55" points="555,536 563,536 563,531 555,531 555,529 564,529 564,524 548,524 548,543 564,543 564,538 555,538 "/>
     </g>
     <g>
      <path class="fil56" d="M620 514l-30 0c-3,0 -5,3 -5,5l0 31c0,2 2,5 5,5l30 0c3,0 5,-3 5,-5l0 -31c0,-2 -2,-5 -5,-5z"/>
      <path class="fil13" d="M617 518l-24 0c-2,0 -4,2 -4,5l0 23c0,3 2,5 4,5l24 0c2,0 4,-2 4,-5l0 -23c0,-3 -2,-5 -4,-5z"/>
      <path class="fil57" d="M617 543l-8 -19 -6 0 -9 19 7 0 1 -3 7 0 2 3 6 0zm-11 -13l2 5 -4 0 2 -5z"/>
     </g>
     <g>
      <path class="fil56" d="M453 560l0 30c0,3 2,5 5,5l30 0c3,0 6,-2 6,-5l0 -30c0,-3 -3,-5 -6,-5l-30 0c-3,0 -5,2 -5,5z"/>
      <path class="fil13" d="M457 563l0 24c0,2 2,4 5,4l23 0c3,0 4,-2 4,-4l0 -24c0,-2 -1,-4 -4,-4l-23 0c-3,0 -5,2 -5,4z"/>
      <path class="fil57" d="M474 567c-1,-2 -3,-3 -5,-3 -3,0 -5,3 -5,8l0 10 20 0 0 -11c0,-5 -2,-8 -6,-8 -2,0 -4,2 -4,4zm-5 6c0,-2 0,-2 1,-2 1,0 2,0 2,2l0 3 -3 0 0 -3zm10 3l-3 0 0 -4c0,-1 1,-2 2,-2 1,0 1,1 1,2l0 4z"/>
     </g>
     <g>
      <g>
       <path class="fil58" d="M595 473l-30 0c-3,0 -5,3 -5,6l0 30c0,3 2,5 5,5l30 0c3,0 5,-2 5,-5l0 -30c0,-3 -2,-6 -5,-6z"/>
      </g>
      <path class="fil13" d="M592 478l-24 0c-2,0 -4,2 -4,4l0 24c0,2 2,4 4,4l24 0c2,0 4,-2 4,-4l0 -24c0,-2 -2,-4 -4,-4z"/>
      <g>
       <polygon class="fil59" points="584,490 578,490 578,483 571,483 571,502 578,502 578,495 584,495 584,502 590,502 590,483 584,483 "/>
      </g>
      <polygon class="fil51" points="543,584 543,579 534,579 534,564 528,564 528,584 "/>
     </g>
    </g>
   </g>
  </g>
  <path class="fil2" d="M72 0l474 0c40,0 72,32 72,72l0 597c0,39 -32,72 -72,72l-474 0c-40,0 -72,-33 -72,-72l0 -597c0,-40 32,-72 72,-72z"/>
  <path class="fil60" d="M216 73l8 0 0 40c0,1 0,1 -1,2 -1,0 -2,1 -3,1 -2,0 -3,-1 -3,-1 -1,0 -2,-1 -2,-2l-19 -26 0 28 -8 0 0 -39c0,-1 1,-2 1,-2 1,-1 2,-1 4,-1 1,0 2,0 3,0 1,1 2,2 3,3l17 25 0 -28z"/>
  <path id="1" class="fil60" d="M272 80l-19 0 0 10 17 0 0 7 -17 0 0 11 19 0 0 7 -28 0 0 -39c0,-1 1,-1 1,-2 1,-1 2,-1 3,-1l24 0 0 7z"/>
  <path id="2" class="fil60" d="M318 112c-3,2 -7,4 -12,4 -5,0 -9,-2 -12,-4 -3,-3 -4,-7 -4,-12l0 -27 8 0 0 27c0,6 3,9 8,9 6,0 8,-3 8,-9l0 -27 9 0 0 27c0,5 -2,9 -5,12z"/>
  <path id="3" class="fil60" d="M364 115l-10 -16 -4 0 0 16 -8 0 0 -39c0,-1 0,-1 1,-2 1,-1 1,-1 2,-1l13 0c5,0 8,1 11,4 2,2 3,5 3,9 0,7 -3,11 -9,13l10 16 -9 0zm-14 -35l0 13 7 0c4,0 7,-3 7,-7 0,-2 -1,-3 -2,-4 -1,-1 -3,-2 -5,-2l-7 0z"/>
  <path id="4" class="fil60" d="M409 116c-6,0 -12,-2 -15,-6 -4,-4 -6,-9 -6,-16 0,-6 2,-12 6,-16 4,-4 9,-6 15,-6 6,0 11,2 15,6 4,4 6,10 6,16 0,7 -2,12 -6,16 -4,4 -9,6 -15,6zm0 -8c4,0 7,-1 9,-3 2,-3 3,-6 3,-11 0,-5 -1,-8 -3,-11 -2,-2 -5,-3 -9,-3 -4,0 -7,1 -9,3 -2,3 -3,6 -3,11 0,5 1,8 3,11 2,2 5,3 9,3z"/>
  <polygon id="5" class="fil60" points="69,170 69,128 77,128 77,170 "/>
  <path id="6" class="fil60" d="M125 128l8 0 0 40c0,1 0,1 -1,2 -1,0 -2,1 -3,1 -1,0 -2,-1 -3,-1 -1,0 -2,-1 -2,-2l-19 -26 0 28 -8 0 0 -39c0,-1 1,-2 2,-2 0,-1 1,-1 3,-1 1,0 3,0 3,0 1,1 2,2 3,3l17 25 0 -28z"/>
  <polygon id="7" class="fil60" points="182,128 182,135 170,135 170,170 162,170 162,135 150,135 150,128 "/>
  <path id="8" class="fil60" d="M227 135l-20 0 0 10 18 0 0 7 -18 0 0 11 19 0 0 7 -27 0 0 -39c0,-1 0,-1 1,-2 1,-1 2,-1 3,-1l24 0 0 7z"/>
  <path id="9" class="fil60" d="M263 171c-7,0 -12,-2 -15,-6 -4,-4 -6,-9 -6,-16 0,-6 2,-12 6,-16 4,-4 9,-6 16,-6 4,0 8,1 11,3 3,2 5,4 6,7l-7 4c-2,-4 -5,-7 -11,-7 -3,0 -7,2 -9,4 -2,3 -3,7 -3,11 0,5 1,8 3,11 2,2 5,4 9,4 3,0 6,-1 8,-3 2,-2 4,-5 4,-8l-11 0 0 -6 19 0 0 4c0,6 -2,11 -6,14 -3,4 -8,6 -14,6z"/>
  <path id="10" class="fil60" d="M322 170l-9 -16 -4 0 0 16 -9 0 0 -39c0,-1 1,-1 1,-2 1,-1 2,-1 3,-1l13 0c4,0 8,1 10,4 3,2 4,5 4,9 0,7 -3,11 -9,13l10 16 -10 0zm-13 -35l0 13 7 0c4,0 6,-3 6,-7 0,-2 0,-3 -1,-4 -1,-1 -3,-2 -5,-2l-7 0z"/>
  <path id="11" class="fil60" d="M377 170l-4 -10 -15 0 -4 10 -9 0 15 -39c0,-2 2,-3 5,-3 3,0 5,1 6,3l14 39 -8 0zm-17 -17l11 0 -6 -16 -5 16z"/>
  <polygon id="12" class="fil60" points="426,128 426,135 414,135 414,170 406,170 406,135 394,135 394,128 "/>
  <polygon id="13" class="fil60" points="443,170 443,128 451,128 451,170 "/>
  <path id="14" class="fil60" d="M496 128l9 0 -13 39c0,3 -2,4 -6,4 -3,0 -5,-1 -6,-4l-12 -39 9 0 9 34 10 -34z"/>
  <path id="15" class="fil60" d="M549 135l-20 0 0 10 18 0 0 7 -18 0 0 11 19 0 0 7 -27 0 0 -39c0,-1 0,-1 1,-2 1,-1 2,-1 3,-1l24 0 0 7z"/>
  <polygon id="16" class="fil60" points="176,183 176,190 164,190 164,225 156,225 156,190 144,190 144,183 "/>
  <polygon id="17" class="fil60" points="193,225 193,183 202,183 202,200 219,200 219,183 228,183 228,225 219,225 219,208 202,208 202,225 "/>
  <path id="18" class="fil60" d="M276 190l-20 0 0 10 18 0 0 7 -18 0 0 11 19 0 0 7 -27 0 0 -39c0,-1 0,-1 1,-2 1,-1 1,-1 2,-1l25 0 0 7z"/>
  <path id="19" class="fil60" d="M316 225l-10 -16 -4 0 0 16 -8 0 0 -39c0,-1 0,-1 1,-2 1,-1 1,-1 2,-1l13 0c5,0 8,1 11,4 2,2 3,5 3,9 0,7 -3,11 -9,13l10 16 -9 0zm-14 -35l0 13 7 0c4,0 7,-3 7,-7 0,-2 -1,-3 -2,-4 -1,-1 -3,-2 -5,-2l-7 0z"/>
  <path id="20" class="fil60" d="M370 225l-4 -10 -15 0 -4 10 -8 0 14 -39c1,-2 3,-3 6,-3 3,0 5,1 5,3l15 39 -9 0zm-17 -17l11 0 -5 -16 -6 16z"/>
  <path id="21" class="fil60" d="M411 183c4,0 8,1 10,4 3,2 4,6 4,10 0,4 -1,8 -4,10 -2,3 -6,4 -11,4l-7 0 0 14 -9 0 0 -39c0,-1 1,-1 1,-2 1,-1 2,-1 3,-1l13 0zm-1 21c4,0 7,-3 7,-7 0,-2 -1,-4 -2,-5 -1,-1 -3,-2 -5,-2l-7 0 0 14 7 0z"/>
  <polygon id="22" class="fil60" points="474,183 460,210 460,225 451,225 451,210 437,183 446,183 455,202 465,183 "/>
 </g>
</svg>
