<?xml version="1.0" encoding="UTF-8"?>
<!DOCTYPE svg PUBLIC "-//W3C//DTD SVG 1.1//EN" "http://www.w3.org/Graphics/SVG/1.1/DTD/svg11.dtd">
<!-- Creator: CorelDRAW X7 -->
<svg xmlns="http://www.w3.org/2000/svg" xml:space="preserve" width="1.90327in" height="1.6869in" version="1.1" style="shape-rendering:geometricPrecision; text-rendering:geometricPrecision; image-rendering:optimizeQuality; fill-rule:evenodd; clip-rule:evenodd"
viewBox="0 0 924 819"
 xmlns:xlink="http://www.w3.org/1999/xlink">
 <defs>
  <style type="text/css">
   <![CDATA[
    .fil60 {fill:none}
    .fil3 {fill:#FF3A3A}
    .fil22 {fill:black;fill-rule:nonzero}
    .fil27 {fill:#0C1A3D;fill-rule:nonzero}
    .fil56 {fill:#0FA79D;fill-rule:nonzero}
    .fil7 {fill:#13284F;fill-rule:nonzero}
    .fil52 {fill:#26AAE2;fill-rule:nonzero}
    .fil6 {fill:#273C5E;fill-rule:nonzero}
    .fil39 {fill:#313C3F;fill-rule:nonzero}
    .fil23 {fill:#334977;fill-rule:nonzero}
    .fil49 {fill:#446998;fill-rule:nonzero}
    .fil10 {fill:#453713;fill-rule:nonzero}
    .fil24 {fill:#47608A;fill-rule:nonzero}
    .fil45 {fill:#4F6B93;fill-rule:nonzero}
    .fil16 {fill:#536B30;fill-rule:nonzero}
    .fil42 {fill:#5495A2;fill-rule:nonzero}
    .fil20 {fill:#585858;fill-rule:nonzero}
    .fil11 {fill:#5A471C;fill-rule:nonzero}
    .fil57 {fill:#5AA59B;fill-rule:nonzero}
    .fil17 {fill:#5C7D3B;fill-rule:nonzero}
    .fil53 {fill:#65A7DF;fill-rule:nonzero}
    .fil18 {fill:#6A8D44;fill-rule:nonzero}
    .fil12 {fill:#6C5824;fill-rule:nonzero}
    .fil30 {fill:#771147;fill-rule:nonzero}
    .fil31 {fill:#7E2A61;fill-rule:nonzero}
    .fil40 {fill:#83C3D5;fill-rule:nonzero}
    .fil26 {fill:#864637;fill-rule:nonzero}
    .fil19 {fill:#888888;fill-rule:nonzero}
    .fil43 {fill:#8D83C7;fill-rule:nonzero}
    .fil28 {fill:#967373;fill-rule:nonzero}
    .fil32 {fill:#A23477;fill-rule:nonzero}
    .fil8 {fill:#A5AC98;fill-rule:nonzero}
    .fil25 {fill:#B37566;fill-rule:nonzero}
    .fil29 {fill:#B98D8D;fill-rule:nonzero}
    .fil55 {fill:#BD4660;fill-rule:nonzero}
    .fil41 {fill:#C07F0F;fill-rule:nonzero}
    .fil9 {fill:#C2CEB6;fill-rule:nonzero}
    .fil33 {fill:#C34B88;fill-rule:nonzero}
    .fil34 {fill:#C870A8;fill-rule:nonzero}
    .fil51 {fill:#D25A30;fill-rule:nonzero}
    .fil14 {fill:#D3D2D2;fill-rule:nonzero}
    .fil54 {fill:#D94460;fill-rule:nonzero}
    .fil37 {fill:#DB5371;fill-rule:nonzero}
    .fil59 {fill:#DF922E;fill-rule:nonzero}
    .fil5 {fill:#E76E54;fill-rule:nonzero}
    .fil35 {fill:#EA7FBE;fill-rule:nonzero}
    .fil50 {fill:#F25A28;fill-rule:nonzero}
    .fil15 {fill:#F3F3F3;fill-rule:nonzero}
    .fil58 {fill:#F79221;fill-rule:nonzero}
    .fil48 {fill:#F9B813;fill-rule:nonzero}
    .fil46 {fill:#FF3A3A;fill-rule:nonzero}
    .fil44 {fill:#FF7D97;fill-rule:nonzero}
    .fil47 {fill:#FFA2BB;fill-rule:nonzero}
    .fil4 {fill:#FFCCBB;fill-rule:nonzero}
    .fil36 {fill:#FFD300;fill-rule:nonzero}
    .fil38 {fill:#FFDCCE;fill-rule:nonzero}
    .fil13 {fill:white;fill-rule:nonzero}
    .fil0 {fill:url(#id1)}
    .fil1 {fill:url(#id2)}
    .fil2 {fill:url(#id3)}
    .fil21 {fill:url(#id4);fill-rule:nonzero}
   ]]>
  </style>
   <clipPath id="id0">
    <path d="M108 0l708 0c60,0 108,48 108,108l0 603c0,59 -48,108 -108,108l-708 0c-60,0 -108,-49 -108,-108l0 -603c0,-60 48,-108 108,-108z"/>
   </clipPath>
  <linearGradient id="id1" gradientUnits="userSpaceOnUse" x1="211.734" y1="709.45" x2="712.29" y2="109.528">
   <stop offset="0" style="stop-opacity:1; stop-color:#E6E6E6"/>
   <stop offset="1" style="stop-opacity:1; stop-color:#F7F7F7"/>
  </linearGradient>
  <linearGradient id="id2" gradientUnits="userSpaceOnUse" x1="273.664" y1="1098.19" x2="719.951" y2="363.228">
   <stop offset="0" style="stop-opacity:1; stop-color:#B0B0B0"/>
   <stop offset="1" style="stop-opacity:1; stop-color:#EDEDED"/>
  </linearGradient>
  <linearGradient id="id3" gradientUnits="userSpaceOnUse" x1="379.469" y1="1091.61" x2="941.527" y2="261.997">
   <stop offset="0" style="stop-opacity:1; stop-color:#6200D1"/>
   <stop offset="1" style="stop-opacity:1; stop-color:#FF2EBD"/>
  </linearGradient>
  <linearGradient id="id4" gradientUnits="userSpaceOnUse" x1="525.277" y1="332.822" x2="548.355" y2="359.663">
   <stop offset="0" style="stop-opacity:1; stop-color:#4A2517"/>
   <stop offset="0.709804" style="stop-opacity:1; stop-color:#A42F28"/>
   <stop offset="1" style="stop-opacity:1; stop-color:#FF3A3A"/>
  </linearGradient>
 </defs>
 <g id="Layer_x0020_1">
  <metadata id="CorelCorpID_0Corel-Layer"/>
  <path class="fil0" d="M108 0l708 0c60,0 108,48 108,108l0 603c0,59 -48,108 -108,108l-708 0c-60,0 -108,-49 -108,-108l0 -603c0,-60 48,-108 108,-108z"/>
  <g style="clip-path:url(#id0)">
   <g id="_2565073169888">
    <circle class="fil1" cx="497" cy="731" r="540"/>
    <path class="fil2" d="M660 55c172,0 328,69 440,182 113,113 183,268 183,440 0,172 -70,327 -183,440 -112,112 -268,182 -440,182 -171,0 -327,-70 -439,-182 -113,-113 -183,-268 -183,-440 0,-172 70,-327 183,-440 112,-113 268,-182 439,-182zm437 186c-112,-112 -266,-181 -437,-181 -170,0 -324,69 -436,181 -111,111 -180,265 -180,436 0,170 69,324 180,436 112,112 266,181 436,181 171,0 325,-69 437,-181 111,-112 180,-266 180,-436 0,-171 -69,-325 -180,-436z"/>
    <path class="fil3" d="M437 414c1,1 7,7 7,7l127 76 -21 -144 -103 41 -10 20z"/>
    <g>
     <path class="fil4" d="M598 543c1,10 8,68 9,78 0,11 4,30 -2,40 -4,6 -9,12 -10,20 -1,2 -2,8 0,10 3,3 7,-2 7,-5 1,-2 2,-9 4,-9 4,-1 3,5 3,7 0,8 -2,9 -4,16 -1,3 -4,9 -2,12 2,3 7,-2 8,-4 -1,6 5,1 7,-1 0,0 0,0 0,0 -1,7 5,1 6,-1 1,3 2,3 4,1 2,-3 2,-4 3,-7 1,-5 2,-7 1,-12 -1,-9 -4,-19 -9,-26 -2,-5 -1,-12 -1,-17 1,-6 1,-13 2,-19 0,-7 0,-81 0,-81l-26 -2z"/>
     <path class="fil5" d="M607 712c3,-1 5,-4 6,-7 1,-2 2,-5 3,-8 1,-3 1,-5 2,-8 0,-3 0,-6 -1,-9 0,3 -1,6 -1,8 -1,3 -2,6 -2,9 -1,2 -2,5 -3,8 -1,2 -2,5 -4,7z"/>
     <path class="fil5" d="M615 710c2,-1 3,-2 3,-3 1,-1 2,-3 2,-4 1,-2 1,-5 2,-8 1,-5 2,-10 1,-15 -1,2 -1,5 -2,7l-1 8c-1,3 -1,5 -2,8 0,2 -1,5 -3,7z"/>
     <path class="fil5" d="M622 709c2,-2 3,-4 4,-6 1,-3 2,-5 2,-8 1,-5 0,-10 -1,-15 0,3 -1,5 -1,8 0,2 0,5 0,7 -1,2 -1,5 -1,7 -1,2 -2,5 -3,7z"/>
     <path class="fil6" d="M630 549c0,-11 -3,-23 -5,-33 -2,-12 -5,-23 -10,-33 -2,-5 -4,-9 -6,-13 -3,-4 -5,-9 -10,-11 -5,-1 -8,7 -9,11 -2,6 -2,12 -2,17 0,12 1,23 0,35 0,5 0,11 0,16 0,2 -1,10 0,11l42 0z"/>
     <path class="fil7" d="M583 546c1,4 0,10 1,15 4,0 44,-2 52,-2 -1,-5 0,-10 -1,-14l-52 1z"/>
     <path class="fil8" d="M609 881c12,1 26,1 37,1 2,0 4,0 6,0 0,2 -1,5 -1,7l-92 -1c-2,-1 -3,-4 -3,-8 18,1 35,1 53,1z"/>
     <path class="fil9" d="M610 858c3,-2 6,-3 10,-4 0,0 0,0 0,0 7,1 14,1 20,5 4,4 9,9 11,14 1,3 1,6 1,9 -2,0 -4,0 -6,0 -11,0 -25,0 -37,-1 -2,0 -4,0 -6,0 0,-8 0,-17 7,-23z"/>
     <path class="fil10" d="M580 854c-2,-5 -2,-10 -2,-15 -1,-7 0,-14 0,-20 4,0 8,0 10,-1 0,14 -2,27 8,30 7,3 16,5 24,6 -4,1 -7,2 -10,4 -2,2 -4,5 -5,7 -9,0 -22,-4 -25,-11z"/>
     <path class="fil11" d="M558 854c0,-2 0,-4 0,-6 0,-9 0,-16 0,-30 3,1 12,1 20,1 0,6 -1,12 0,18 -1,4 -3,7 -5,10 -3,3 -10,7 -15,7z"/>
     <path class="fil12" d="M558 854c5,0 12,-4 15,-7 2,-3 4,-6 5,-10 0,0 0,1 0,2 0,5 0,10 2,15 3,7 16,11 25,11 -2,5 -2,11 -2,16 -16,0 -31,0 -47,-1 0,-5 1,-12 1,-14 0,-4 1,-8 1,-12z"/>
     <path class="fil9" d="M571 854c0,0 0,0 0,0 5,0 6,6 6,10 0,3 -2,8 -5,9 -7,2 -11,-19 -1,-19z"/>
     <path class="fil13" d="M610 854c-5,0 -9,4 -12,8 0,0 -1,0 -1,0 3,-5 8,-9 14,-9 0,0 0,1 -1,1z"/>
     <path class="fil13" d="M600 851c-4,1 -7,4 -9,8 0,0 -1,0 -1,0 2,-4 5,-7 10,-9 0,0 1,1 0,1z"/>
     <path class="fil13" d="M594 848c-5,1 -8,4 -12,7 0,0 -1,0 -1,0 4,-3 7,-7 13,-7 0,0 0,0 0,0z"/>
     <path class="fil13" d="M590 844c-4,0 -7,1 -10,3 0,0 -1,0 -1,0 4,-2 7,-3 11,-3 1,0 0,0 0,0z"/>
     <path class="fil13" d="M587 839c-3,0 -5,-1 -8,0 -1,0 -1,0 -1,0 4,-1 7,-1 10,-1 0,1 -1,1 -1,1z"/>
     <path class="fil13" d="M588 833c-3,1 -6,0 -9,0 -1,0 0,0 0,0 3,0 6,0 8,0 1,0 2,0 1,0z"/>
     <path class="fil13" d="M588 825c-3,0 -6,0 -9,0 0,0 -1,0 0,0 3,0 6,0 9,0 0,0 1,0 0,0z"/>
     <path class="fil14" d="M553 894c12,1 25,0 37,1 2,0 4,-1 6,-1 -1,3 -1,5 -1,7l-92 -1c-2,0 -3,-3 -3,-7 18,0 34,0 53,1z"/>
     <path class="fil15" d="M554 871c3,-2 6,-4 10,-4 0,0 0,0 0,0 7,1 14,1 19,5 5,3 10,8 12,13 1,3 1,6 1,9 -2,0 -4,1 -6,1 -12,-1 -25,0 -37,-1 -2,0 -4,0 -7,0 0,-9 1,-18 8,-23z"/>
     <path class="fil16" d="M524 866c-2,-5 -2,-10 -3,-15 0,-7 1,-13 1,-20 4,0 8,0 10,0 0,14 -2,26 8,30 7,3 16,4 24,6 -4,0 -7,2 -10,4 -2,2 -4,4 -5,7 -9,-1 -22,-5 -25,-12z"/>
     <path class="fil17" d="M502 867c0,-2 0,-4 0,-6 0,-10 0,-17 -1,-30 4,0 13,0 21,0 0,6 -1,12 -1,18 -1,4 -2,8 -5,10 -2,3 -9,8 -14,8z"/>
     <path class="fil18" d="M502 867c5,0 12,-5 14,-8 3,-2 4,-6 5,-10 0,1 0,1 0,2 1,5 1,10 3,15 3,7 16,11 25,12 -2,5 -3,10 -3,16 -16,-1 -30,-1 -46,-1 0,-6 1,-12 1,-14 0,-4 0,-8 1,-12z"/>
     <path class="fil15" d="M515 866c0,0 0,0 0,0 5,1 6,7 5,10 0,3 -1,8 -4,9 -8,2 -11,-19 -1,-19z"/>
     <path class="fil13" d="M554 866c-5,0 -10,4 -12,8 0,1 -1,1 -1,0 3,-5 8,-8 14,-8 0,0 -1,0 -1,0z"/>
     <path class="fil13" d="M544 863c-4,2 -7,5 -9,9 0,0 -1,0 -1,0 2,-4 5,-7 10,-9 0,0 1,0 0,0z"/>
     <path class="fil13" d="M537 861c-4,0 -8,3 -11,6 0,0 -1,0 -1,0 4,-3 7,-6 12,-7 1,0 1,1 0,1z"/>
     <path class="fil13" d="M533 857c-3,0 -6,1 -9,2 -1,0 -1,0 -1,0 3,-2 7,-3 11,-3 1,0 0,1 -1,1z"/>
     <path class="fil13" d="M531 851c-3,0 -6,0 -8,0 -1,1 -1,0 -1,0 3,-1 6,0 9,0 1,0 0,0 0,0z"/>
     <path class="fil13" d="M532 846c-3,0 -6,0 -9,0 -1,0 0,-1 0,-1 3,0 6,1 8,0 1,0 1,1 1,1z"/>
     <path class="fil13" d="M532 838c-3,0 -6,0 -9,0 0,0 -1,0 0,0 3,0 6,0 9,0 0,0 1,0 0,0z"/>
     <path class="fil19" d="M550 594c4,30 7,150 6,172 -1,32 0,50 0,82l0 8c10,0 36,-3 45,-7 0,0 -1,-18 -2,-26 -2,-10 5,-89 8,-127 3,-24 6,-48 10,-72 1,-8 1,-15 -2,-23 -5,-11 -26,-12 -43,-16l-22 9z"/>
     <path class="fil19" d="M616 614c-1,-4 -2,-9 -3,-13 -2,-5 -10,-8 -17,-10 -6,-1 -13,-3 -19,-3 -7,0 -14,3 -21,4l0 2c-9,-2 -24,1 -36,-1l-22 9c4,29 2,150 2,171 -2,32 -3,61 -3,94 11,0 44,-2 52,-6 0,0 -3,-7 -4,-15 -1,-10 -2,-20 -2,-30 -2,-38 9,-75 13,-112 2,-21 5,-42 8,-62 0,0 1,0 1,0 6,-2 11,-4 17,-6 10,-4 23,-6 33,-11 3,-2 1,-8 1,-11z"/>
     <path class="fil20" d="M573 829c0,0 2,0 3,0 1,0 1,0 2,0 0,0 0,0 1,0 1,0 2,0 3,1 1,0 2,0 3,0 1,0 2,0 3,0 1,1 2,1 2,1 0,0 -1,0 -2,1 -2,0 -4,0 -6,0 -2,-1 -3,-1 -4,-1 -1,0 -2,-1 -2,-1 -2,0 -3,-1 -3,-1z"/>
     <path class="fil20" d="M540 854c0,0 0,0 0,1 -1,0 -1,0 -1,0 0,1 -1,1 -2,1 0,1 -1,1 -1,1 -1,0 -2,1 -2,1 -1,0 -2,0 -3,1 -1,0 -1,0 -2,0 -1,0 -2,0 -3,0 -1,0 -2,0 -2,0 -1,0 -2,0 -3,0 0,0 -1,0 -2,0 0,0 -1,0 -1,-1 -1,0 -1,0 -2,0 0,0 -1,-1 -1,-1 0,0 1,0 2,1 0,0 0,0 1,0 0,0 1,0 1,0 1,0 2,0 2,0 1,0 2,0 3,-1 0,0 1,0 2,0 1,0 1,0 2,0 1,0 2,0 3,0 0,-1 1,-1 2,-1 0,0 1,0 2,0 0,0 1,-1 2,-1 0,0 1,0 1,0 1,0 1,-1 1,-1 1,0 1,0 1,0z"/>
     <path class="fil20" d="M522 852c0,0 1,0 3,0 0,0 1,0 1,1 0,0 1,0 1,0 1,0 2,0 3,0 1,0 2,0 3,0 1,0 2,1 3,1 2,0 3,0 3,0 0,0 -1,1 -3,1 -2,0 -4,0 -6,0 -1,0 -2,0 -3,-1 -1,0 -2,0 -3,0 -1,-1 -2,-2 -2,-2z"/>
     <path class="fil20" d="M563 833c0,0 0,0 1,1 1,0 2,0 4,0 0,0 1,0 2,0 1,1 2,0 2,1 2,0 4,0 6,0 4,0 8,0 11,1 3,0 5,0 5,0 0,0 -2,0 -5,1 -1,0 -3,0 -5,0 -2,0 -4,0 -6,0 -1,0 -2,0 -3,0 -1,0 -2,0 -3,-1 -1,0 -2,0 -3,0 0,0 -1,-1 -2,-1 -1,0 -2,-1 -3,-1 -1,0 -1,-1 -1,-1z"/>
     <path class="fil20" d="M564 642c0,0 1,-1 3,-2 2,-1 6,-2 9,-3 3,-1 6,-2 8,-3 3,0 5,0 5,0 0,0 -2,1 -4,2 -2,1 -5,2 -8,3 -3,1 -7,2 -9,2 -3,1 -4,1 -4,1z"/>
     <path class="fil20" d="M565 600c0,0 0,0 1,1 0,2 0,3 0,5 0,4 0,9 0,15 0,5 -1,10 -1,14 0,2 -1,4 -1,5 0,1 0,2 0,2 0,0 0,-1 -1,-2 0,-1 0,-3 0,-5 0,-4 0,-9 0,-14 0,-6 1,-11 1,-15 1,-2 1,-3 1,-5 0,-1 0,-1 0,-1z"/>
     <path class="fil20" d="M573 600c0,0 1,2 2,5 1,2 1,4 1,6 0,2 0,4 0,6 0,1 0,2 -1,3 0,1 0,2 0,3 -1,1 -1,2 -1,3 -1,1 -1,2 -2,2 0,1 0,2 -1,2 0,1 -1,1 -1,2 -1,1 -1,1 -1,1 0,0 0,-1 0,-1 1,-1 1,-1 1,-2 0,-1 1,-1 1,-2 0,-1 0,-2 1,-2 0,-1 0,-2 0,-3 0,-1 1,-2 1,-3 0,-1 0,-2 0,-3 0,-4 1,-8 1,-11 0,-2 0,-3 0,-4 -1,-1 -1,-2 -1,-2z"/>
     <path class="fil20" d="M515 601c0,0 0,1 1,2 0,1 0,2 0,3 0,1 0,2 0,2 0,1 0,2 0,3 -1,1 -1,2 -1,3 0,0 -1,1 -1,2 0,1 -1,2 -1,3 -1,1 -1,2 -2,2 -1,2 -2,3 -2,5 -1,1 -2,2 -3,2 -1,1 -1,1 -1,1 0,0 0,0 1,-1 0,-1 0,-2 1,-3 0,-1 1,-1 1,-2 0,-1 1,-2 1,-2 1,-2 2,-4 2,-5 1,-2 2,-4 2,-5 0,-1 1,-2 1,-3 0,-1 0,-1 0,-2 1,-1 1,-2 1,-3 0,-1 0,-2 0,-2z"/>
     <path class="fil20" d="M546 769c2,-12 4,-24 7,-36 2,-12 4,-24 6,-36 2,-12 3,-24 5,-36 0,-6 0,-12 1,-18 0,-6 0,-12 0,-19 -1,6 -1,13 -2,19 0,6 -1,12 -1,18 -2,12 -4,24 -6,36l-5 36c-2,12 -4,24 -5,36z"/>
     <path class="fil21" d="M605 348c5,-8 5,-19 5,-28 0,-9 -2,-18 -6,-26 -12,-19 -33,-30 -55,-31 -23,-1 -51,7 -56,33 -7,1 -16,12 -20,18 -5,7 -7,17 -8,26 -2,15 -2,28 1,42 7,29 43,55 73,45 10,-4 24,-9 28,-21l38 -58z"/>
     <path class="fil4" d="M519 401c13,0 20,-13 21,-25 1,-10 -6,-24 -15,-30 15,0 17,-17 19,-29 6,7 16,8 21,-1 2,-5 2,-15 1,-21 4,5 16,11 18,2l0 -1c9,6 15,18 21,27 5,8 11,15 17,22 4,4 7,8 10,12 2,2 4,4 5,7 9,16 0,36 -12,49 -6,7 -23,16 -43,17l0 0 5 36c-6,2 -43,10 -40,1l7 -40c-12,-5 -25,-13 -35,-26z"/>
     <path class="fil5" d="M588 351c2,2 4,4 7,5 2,1 5,1 7,2 1,1 3,3 2,5 0,2 -2,4 -4,6 3,-1 5,-3 6,-5 0,-2 0,-3 0,-5 -1,-1 -2,-2 -3,-3 -1,-1 -3,-1 -4,-1 -1,0 -3,0 -4,-1 -2,0 -4,-2 -7,-3z"/>
     <path class="fil22" d="M588 316c0,-1 -1,-2 -2,-2 -1,-1 -2,-1 -3,-1 -1,0 -2,0 -3,0 -1,1 -2,1 -3,2 1,0 2,0 3,0 1,0 2,0 3,0 1,0 2,0 3,0 1,1 1,1 2,1z"/>
     <path class="fil22" d="M555 332c-1,0 -3,1 -4,2 -1,1 -2,2 -2,4 -1,1 -1,3 -1,4 0,1 1,3 2,4 0,-1 0,-3 0,-4 0,-1 1,-2 1,-3 1,-2 1,-3 2,-4 0,-1 1,-2 2,-3z"/>
     <path class="fil22" d="M567 368c3,3 6,5 8,3 1,-1 0,-5 -3,-8 -2,-3 -6,-4 -7,-3 -2,2 -1,5 2,8z"/>
     <path class="fil22" d="M596 344c2,3 6,4 7,3 2,-1 1,-5 -2,-8 -3,-3 -6,-4 -8,-3 -1,1 0,5 3,8z"/>
     <path class="fil5" d="M623 376c-1,3 -1,6 -3,8 0,1 -1,2 -2,3l-1 1c0,0 -1,0 -1,0 0,0 -1,1 -2,1 -2,1 -5,2 -7,2 -3,1 -6,1 -9,0 3,1 6,2 9,2 3,0 6,0 8,-2 1,0 2,-1 2,-1 1,0 1,0 1,-1l1 0c1,-1 2,-3 3,-4 1,-3 1,-6 1,-9z"/>
     <path class="fil4" d="M542 392c-5,-5 -13,-5 -20,-3 -15,5 -8,24 3,29 7,3 21,3 24,-6l-7 -20z"/>
     <path class="fil5" d="M542 392c-2,-2 -6,-4 -10,-5 -3,0 -7,0 -11,1 -3,1 -7,4 -8,8 -1,3 -1,8 0,11 2,4 4,7 7,9 1,1 3,2 5,3 1,1 3,1 5,2 4,0 8,0 11,-1 4,-1 7,-4 8,-8 -2,4 -5,6 -8,7 -4,0 -7,0 -11,0 -6,-1 -12,-7 -14,-13 -2,-3 -2,-6 -1,-10 1,-3 4,-5 7,-6 3,-1 7,-2 10,-2 4,1 7,2 10,4z"/>
     <path class="fil23" d="M544 458c-10,4 -24,5 -32,12 -9,7 -9,22 -10,31 -1,14 -2,28 -2,41 -1,15 -3,30 -4,45 0,14 0,28 -2,41 29,-1 53,-4 76,-4 19,2 34,0 53,0 -4,-32 -3,-53 -4,-78 -1,-20 -3,-45 -7,-64 -3,-14 -7,-18 -24,-23 -1,7 -12,11 -21,13 -12,2 -16,-4 -18,-12l-5 -2z"/>
     <path class="fil7" d="M585 451c-1,9 -11,15 -18,20 2,3 14,12 18,13 2,0 8,-7 11,-12 3,-5 4,-8 3,-11 -1,-3 -6,-6 -10,-9l-4 -1z"/>
     <path class="fil7" d="M550 450c-10,1 -20,11 -19,12 1,4 16,23 19,23 3,0 16,-9 19,-15 -9,-1 -19,-5 -19,-14l0 -6z"/>
     <path class="fil4" d="M517 558c0,10 -6,69 -7,78 0,11 -4,29 1,38 4,6 8,12 9,19 1,2 2,9 0,10 -3,3 -6,-2 -6,-5 -1,-2 -2,-8 -4,-9 -4,-1 -3,5 -3,7 0,7 3,9 4,16 1,2 4,8 2,11 -3,3 -7,-2 -8,-4 1,6 -5,1 -6,-1 0,0 0,0 0,0 1,6 -4,1 -6,-1 0,3 -2,3 -4,0 -1,-2 -2,-3 -2,-6 -1,-5 -1,-7 -1,-12 1,-8 4,-18 9,-24 2,-4 1,-11 1,-16 -1,-6 -1,-12 -2,-19 0,-6 -3,-82 -3,-82l26 0z"/>
     <path class="fil5" d="M509 723c-2,-2 -3,-5 -4,-7 0,-3 -1,-5 -2,-8 -1,-3 -1,-5 -2,-8 0,-2 -1,-5 -1,-8 -1,6 -1,11 1,17 1,2 1,5 3,7 1,3 2,6 5,7z"/>
     <path class="fil5" d="M501 721c-1,-2 -2,-5 -2,-7 -1,-3 -1,-5 -1,-8l-2 -7c0,-2 -1,-5 -1,-7 -1,5 -1,10 0,15 1,2 1,5 2,7 0,2 1,3 2,4 0,1 1,2 2,3z"/>
     <path class="fil5" d="M495 720c-1,-3 -2,-5 -2,-7 0,-2 -1,-4 -1,-7 0,-2 0,-4 0,-6 0,-3 -1,-5 -1,-7 -1,4 -2,9 -1,14 0,2 0,4 1,7 1,2 3,4 4,6z"/>
     <path class="fil24" d="M484 557c1,-11 3,-22 5,-32 2,-11 4,-22 8,-32 2,-4 4,-8 6,-12 3,-4 5,-9 10,-11 4,-1 7,7 8,11 1,5 2,11 2,16 0,11 0,22 0,34 0,5 1,10 1,15 0,2 0,10 0,11l-40 0z"/>
     <path class="fil7" d="M529 553c-2,5 0,11 -1,15 -4,1 -41,-1 -48,-2 0,-4 -1,-9 0,-13l49 0z"/>
    </g>
    <g>
     <path class="fil25" d="M1375 640c-1,12 -2,23 -3,34 -1,12 -6,33 1,44 5,7 9,13 10,22 1,2 2,9 0,11 -4,3 -7,-3 -8,-5 -1,-3 -1,-10 -4,-11 -4,-1 -3,6 -3,8 -1,8 2,10 4,18 1,3 4,10 2,13 -3,3 -8,-3 -9,-5 1,7 -6,1 -7,-1 0,0 0,0 0,0 0,7 -6,1 -7,-2 -1,4 -3,4 -5,1 -2,-2 -2,-4 -3,-7 0,-5 -1,-8 0,-13 0,-10 4,-21 11,-29 2,-4 1,-13 1,-18 -1,-7 -1,-14 -2,-21 0,-7 -1,-39 -1,-39l23 0z"/>
     <path class="fil26" d="M1369 774c-3,-2 -5,-5 -6,-8 -1,-3 -2,-6 -3,-9 -1,-3 -1,-6 -2,-9 0,-3 0,-7 1,-10 1,7 2,13 3,19 1,3 2,6 3,9 1,2 2,5 4,8z"/>
     <path class="fil26" d="M1360 771c-1,-1 -2,-2 -3,-3 -1,-1 -1,-3 -2,-4 0,-3 -1,-6 -2,-9 -1,-5 -1,-11 0,-17 0,3 1,6 1,8l2 9c0,3 1,5 1,8 1,3 1,6 3,8z"/>
     <path class="fil26" d="M1353 770c-2,-2 -4,-4 -4,-7 -1,-3 -2,-5 -2,-8 -1,-6 0,-11 1,-16 1,2 1,5 1,8 0,2 0,5 0,8 1,2 1,5 1,7 1,3 2,5 3,8z"/>
     <path class="fil6" d="M1345 638c0,-9 2,-19 4,-28 2,-9 4,-18 8,-27 2,-3 3,-7 5,-10 2,-3 5,-8 9,-9 4,-1 6,6 7,9 1,5 1,9 1,14 0,10 0,19 0,28 0,5 0,9 1,14 -1,2 0,8 -1,9l-34 0z"/>
     <path class="fil7" d="M1384 635c-2,3 0,8 -1,12 -4,1 -36,-1 -42,-2 0,-3 -1,-8 0,-11l43 1z"/>
     <path class="fil27" d="M1363 933c11,-3 23,-7 24,-15 1,-9 1,-16 0,-25 -1,-6 -2,-11 -2,-16 -2,-14 -4,-24 -6,-37 -2,-14 -6,-31 -6,-44l29 -8c1,12 -2,26 0,41 1,15 4,21 7,36 0,4 1,7 1,11 3,17 1,28 0,48 0,0 1,6 2,10 -3,1 -8,2 -10,2 -16,1 -36,4 -52,0 5,0 9,-1 13,-3z"/>
     <path class="fil28" d="M1366 946c-10,1 -22,1 -33,1 -1,0 -3,0 -4,0 0,2 0,4 0,6l82 -1c2,0 2,-3 2,-7 -15,1 -30,1 -47,1z"/>
     <path class="fil29" d="M1365 925c-2,-2 -5,-3 -8,-4 0,0 -1,0 -1,0 -5,1 -12,1 -17,5 -3,3 -8,8 -10,12 0,3 -1,6 0,9 1,0 3,0 4,0 11,0 23,0 33,-1 2,0 4,0 6,0 0,-8 -1,-16 -7,-21z"/>
     <path class="fil30" d="M1392 921c2,-5 2,-10 2,-14 1,-6 0,-12 0,-19 -4,0 -7,0 -9,0 0,13 2,24 -7,28 -7,2 -14,4 -21,5 3,1 6,2 8,4 2,2 4,4 5,7 8,-1 19,-5 22,-11z"/>
     <path class="fil31" d="M1412 921c0,-2 0,-3 0,-5 0,-9 -1,-15 0,-28 -3,0 -11,0 -18,0 0,6 0,12 0,17 1,4 3,7 5,10 2,2 8,6 13,6z"/>
     <path class="fil32" d="M1412 921c-5,0 -11,-4 -13,-6 -2,-3 -4,-6 -5,-10 0,1 0,1 0,2 0,4 0,9 -2,14 -3,6 -14,10 -22,11 2,4 2,9 2,14 14,0 27,0 41,-1 0,-5 0,-11 -1,-12 0,-4 0,-8 0,-12z"/>
     <path class="fil29" d="M1400 921c0,0 0,0 0,0 -4,0 -5,6 -5,9 0,3 1,8 4,9 7,1 9,-18 1,-18z"/>
     <path class="fil13" d="M1365 921c5,0 9,3 11,7 0,1 1,1 1,0 -3,-4 -7,-8 -12,-8 -1,0 0,1 0,1z"/>
     <path class="fil13" d="M1374 918c4,2 7,4 8,8 0,0 1,0 1,0 -2,-4 -5,-7 -8,-8 -1,0 -1,0 -1,0z"/>
     <path class="fil13" d="M1380 916c4,0 7,3 10,6 0,0 1,0 1,0 -3,-3 -6,-6 -11,-7 -1,0 -1,1 0,1z"/>
     <path class="fil13" d="M1384 912c3,0 5,1 8,2 0,1 1,0 1,0 -3,-1 -6,-3 -10,-2 0,0 0,0 1,0z"/>
     <path class="fil13" d="M1386 907c2,0 5,0 7,0 0,0 1,0 0,0 -2,-1 -5,0 -8,0 0,0 0,0 1,0z"/>
     <path class="fil13" d="M1385 902c3,0 5,0 8,0 0,0 0,0 0,0 -3,0 -5,0 -8,0 0,0 0,0 0,0z"/>
     <path class="fil13" d="M1385 894c2,0 5,0 8,0 0,0 1,0 0,0 -3,0 -5,0 -8,0 0,0 -1,0 0,0z"/>
     <path class="fil7" d="M1394 937c11,-3 22,-7 24,-15 1,-9 1,-16 0,-25 -1,-6 -2,-12 -3,-17 -1,-13 -3,-24 -5,-37 -2,-13 -6,-30 -6,-43l29 -9c1,13 -2,27 -1,42 2,15 4,21 7,36 1,3 2,6 2,9 3,18 1,30 0,49 0,1 1,6 2,11 -3,1 -8,1 -11,2 -15,1 -35,3 -51,0 5,-1 9,-2 13,-3z"/>
     <path class="fil14" d="M1399 952c-11,0 -23,0 -33,0 -2,0 -3,0 -5,0 0,2 1,4 1,6l81 0c2,-1 3,-4 3,-8 -16,1 -31,1 -47,2z"/>
     <path class="fil15" d="M1398 930c-3,-2 -6,-3 -9,-4 0,0 0,0 0,0 -6,1 -12,1 -17,5 -4,3 -8,8 -10,12 -1,3 -1,6 -1,9 2,0 3,0 5,0 10,0 22,0 33,0 2,0 4,-1 6,-1 0,-7 -1,-15 -7,-21z"/>
     <path class="fil33" d="M1425 926c1,-4 1,-9 2,-14 0,-6 0,-12 -1,-18 -4,0 -7,0 -9,-1 0,13 2,25 -7,28 -6,3 -14,4 -21,5 3,1 6,2 9,4 2,2 3,4 4,7 8,-1 20,-4 23,-11z"/>
     <path class="fil34" d="M1444 926c0,-1 0,-3 0,-5 0,-9 0,-15 0,-28 -3,1 -11,1 -18,1 1,5 1,11 1,16 1,4 2,7 4,10 2,2 9,6 13,6z"/>
     <path class="fil35" d="M1444 926c-4,0 -11,-4 -13,-6 -2,-3 -3,-6 -4,-10 0,1 0,2 0,2 -1,5 -1,10 -2,14 -3,7 -15,10 -23,11 2,4 3,9 3,14 14,0 27,0 41,-1 0,-5 -1,-10 -1,-12 0,-4 -1,-8 -1,-12z"/>
     <path class="fil15" d="M1433 926c0,0 0,0 0,0 -5,0 -6,6 -5,9 0,3 1,8 4,9 6,2 9,-18 1,-18z"/>
     <path class="fil13" d="M1398 926c5,0 8,4 10,8 0,0 1,0 1,0 -2,-5 -6,-9 -12,-9 0,0 1,1 1,1z"/>
     <path class="fil13" d="M1407 923c3,2 6,4 8,8 0,0 1,0 1,0 -2,-4 -5,-6 -9,-8 0,0 -1,0 0,0z"/>
     <path class="fil13" d="M1412 921c5,0 8,3 11,6 0,0 1,0 1,0 -4,-3 -7,-6 -11,-6 -1,0 -1,0 -1,0z"/>
     <path class="fil13" d="M1416 917c3,0 6,1 9,3 0,0 1,0 0,-1 -3,-1 -6,-2 -9,-2 -1,0 0,0 0,0z"/>
     <path class="fil13" d="M1418 912c3,0 5,0 8,0 0,1 1,0 0,0 -3,-1 -5,0 -8,0 -1,0 0,0 0,0z"/>
     <path class="fil13" d="M1418 907c2,1 5,0 7,0 1,0 0,0 0,0 -2,0 -5,0 -7,0 0,0 -1,0 0,0z"/>
     <path class="fil13" d="M1417 900c3,0 6,0 8,0 1,0 1,0 0,0 -2,0 -5,0 -7,0 -1,0 -1,0 -1,0z"/>
     <path class="fil19" d="M1430 697c8,0 13,3 17,7 8,8 30,96 30,96 -7,3 -20,5 -27,8 -9,4 -12,7 -22,7 -16,0 -29,4 -44,-2 -8,-2 -12,1 -20,-1 -8,-2 -11,-6 -20,-6 -4,-1 -4,-1 -8,-4 -2,-1 18,-79 27,-96 3,-5 3,-7 4,-7 2,-1 55,-1 63,-2z"/>
     <path class="fil20" d="M1451 798l0 -4c-1,-1 -1,-2 -1,-3l-1 -6 0 -7 -1 -6 0 0c-1,-7 -2,-13 -3,-20 -2,-6 -3,-12 -5,-19 -1,-6 -3,-12 -5,-19 -1,-3 -2,-6 -2,-9 -1,-3 -2,-7 -3,-10 0,4 1,7 2,10 0,3 1,6 2,10 1,6 2,12 4,19 1,6 3,12 4,19 1,6 3,13 4,19l0 0 1 6 1 7 1 6c1,2 1,4 2,7z"/>
     <path class="fil20" d="M1429 800c0,0 0,-1 0,-3 0,-2 -1,-6 -1,-10 0,-4 0,-8 -1,-13 0,-5 0,-10 -1,-15 -1,-5 -1,-11 -2,-15 0,-3 -1,-5 -1,-7 0,-3 -1,-5 -1,-7 -1,-4 -2,-7 -2,-9 -1,-2 -1,-3 -1,-3 0,0 0,1 0,3 1,2 1,6 1,10 1,1 1,4 1,6 1,2 1,4 1,7 0,5 1,10 2,15 0,5 1,10 1,15 1,5 1,10 2,14 0,3 1,7 1,9 0,2 1,3 1,3z"/>
     <path class="fil20" d="M1400 709c0,0 0,2 0,4 0,3 -1,6 -1,11 0,2 0,5 0,7 0,3 -1,5 -1,8 0,6 0,12 -1,18 0,6 0,12 0,17 0,3 0,6 0,8 0,3 0,5 0,8 0,4 0,8 1,10 0,3 0,4 0,4 0,0 0,-1 0,-4 0,-2 0,-6 0,-10 0,-3 1,-5 1,-8 0,-2 0,-5 0,-8 0,-5 1,-11 1,-17 0,-6 0,-12 0,-18 0,-3 1,-5 1,-8 -1,-2 -1,-5 -1,-7 0,-5 0,-8 0,-11 0,-2 0,-4 0,-4z"/>
     <path class="fil20" d="M1380 704c0,0 0,1 -1,4 0,2 -1,3 -1,5 -1,1 -1,2 -1,3 -1,1 -1,3 -1,4 0,2 -1,5 -1,8 -1,2 -1,5 -2,8 0,3 0,7 0,10 -1,3 -1,6 -1,10 0,6 0,13 -1,19 0,6 0,12 0,17 0,4 0,9 0,11 0,3 0,5 0,5 0,0 0,-2 0,-5 1,-2 1,-7 2,-11 0,-5 0,-11 1,-17 0,-6 0,-13 0,-19 1,-4 1,-7 1,-10 0,-3 0,-6 1,-9 0,-3 0,-6 0,-9 1,-3 1,-6 1,-8 1,-1 1,-2 1,-4 0,-1 0,-2 0,-3 1,-2 1,-3 1,-5 1,-3 1,-4 1,-4z"/>
     <path class="fil20" d="M1369 715c0,0 -1,1 -1,2 -1,2 -2,5 -3,8 0,1 -1,3 -1,5 -1,1 -1,3 -2,5 -1,4 -1,8 -2,12 -1,5 -2,9 -3,13 0,4 -1,7 -1,10 0,4 -1,6 -1,8 0,2 0,3 0,3 0,0 0,-1 1,-3 0,-2 1,-4 1,-7 1,-2 1,-4 1,-5 1,-2 1,-4 2,-6 0,-4 1,-8 2,-12 1,-4 2,-8 2,-12 1,-2 1,-4 2,-6 0,-2 0,-3 1,-5 0,-3 1,-6 1,-7 0,-2 1,-3 1,-3z"/>
     <path class="fil23" d="M1370 564c2,-3 5,-3 8,-6 2,6 11,4 16,4 5,-1 7,-2 10,-4 3,-4 4,-3 9,-3 8,1 23,6 27,13 3,6 -5,7 -6,14 0,20 5,34 7,55 2,12 1,30 3,42 2,8 4,19 8,26 -5,5 -18,6 -24,7 -20,2 -20,2 -32,4 -11,0 -25,-1 -36,-4 1,-15 3,-27 2,-40 0,-9 0,-18 0,-27 0,-12 0,-23 0,-35 -2,-18 -3,-32 8,-46z"/>
     <path class="fil25" d="M1436 641c1,9 8,47 9,55 1,10 5,25 0,34 -3,5 -7,10 -7,17 -1,2 -1,7 0,8 3,3 5,-2 6,-4 1,-2 1,-7 3,-8 3,-1 2,4 3,6 0,6 -2,8 -4,14 0,2 -2,8 -1,10 3,2 6,-3 7,-4 0,5 4,1 5,-1 0,0 0,0 0,0 0,5 4,1 6,-2 0,4 2,3 3,1 1,-2 2,-3 2,-6 0,-4 1,-6 0,-10 -1,-7 -4,-16 -8,-21 -2,-4 -2,-10 -2,-14 1,-6 1,-11 1,-17 0,-5 -2,-59 -2,-59l-21 1z"/>
     <path class="fil26" d="M1449 772c1,-1 2,-4 3,-6 0,-2 1,-5 1,-7 1,-2 1,-4 2,-7 0,-2 1,-4 1,-7 1,5 1,10 0,15 -1,2 -1,4 -2,7 -1,2 -3,4 -5,5z"/>
     <path class="fil26" d="M1455 770c2,-2 2,-4 2,-6 1,-2 1,-4 1,-6l1 -7 1 -6c2,4 1,9 1,13 -1,2 -1,4 -2,7 0,1 0,2 -1,3 -1,1 -1,2 -3,2z"/>
     <path class="fil26" d="M1461 769c1,-2 1,-4 2,-6 0,-1 0,-4 0,-6 0,-2 0,-4 0,-6 0,-2 0,-4 1,-6 1,4 2,8 1,13 0,2 0,4 -1,6 0,2 -2,4 -3,5z"/>
     <path class="fil24" d="M1462 638c-1,-9 -3,-19 -5,-28 -2,-9 -5,-19 -9,-28 -2,-3 -3,-7 -6,-10 -1,-3 -4,-8 -8,-9 -4,-1 -6,6 -7,10 -1,4 -1,9 -1,14 0,10 1,19 1,29 0,5 0,10 0,14 0,2 0,9 1,10l34 -2z"/>
     <path class="fil7" d="M1423 637c1,3 0,8 1,12 3,1 36,-2 42,-3 0,-3 1,-8 -1,-12l-42 3z"/>
     <path class="fil25" d="M1444 464c-6,-1 -8,-10 -8,-15 0,-6 2,-13 6,-18 -13,-1 -25,-13 -34,-20 -5,-5 -9,-10 -12,-16 0,-1 0,-1 -1,-1 -6,2 -12,6 -17,12 -7,6 -12,14 -17,22 -5,8 -11,16 -17,23 -3,3 -7,7 -10,11 -2,2 -3,5 -5,7 -9,17 0,37 12,50 7,6 23,15 43,16l0 0 -2 36c2,1 8,0 14,0 9,0 18,2 16,-4l-5 -33c9,-3 22,-10 32,-19 -4,-4 -8,-9 -9,-15 -3,-13 7,-26 14,-36z"/>
     <path class="fil22" d="M1461 412c0,-8 10,-13 17,-14 13,-3 26,4 31,16 7,21 0,45 2,66 1,8 7,10 10,17 4,8 2,13 -1,20 -3,5 -2,4 2,9 3,3 4,7 4,12 -1,4 -1,7 -3,10 -3,5 -7,4 -10,7 14,18 -14,39 -31,33 -11,-4 -21,-14 -22,-25 -2,-13 1,-18 9,-26 -6,-2 -9,-11 -8,-16 0,-8 7,-12 13,-16 -9,-1 -5,-14 -3,-19 3,-8 4,-16 4,-24 0,-18 -20,-23 -16,-42l2 -8z"/>
     <path class="fil36" d="M1475 446c10,-4 16,-16 12,-26 -3,-14 -25,-15 -28,-1l16 27z"/>
     <path class="fil22" d="M1478 434c-3,-14 -10,-26 -21,-34 -18,-12 -42,-15 -62,-6 1,0 1,0 1,1 3,6 7,11 12,16 9,7 21,19 34,20 -4,5 -6,12 -6,18 0,5 2,14 8,15 -7,10 -17,23 -14,36 1,6 5,11 9,15 1,-1 2,-2 3,-3 8,-7 18,-12 24,-21 12,-18 16,-36 12,-57z"/>
     <path class="fil26" d="M1378 456c-2,2 -4,4 -6,5 -3,2 -6,1 -8,2 -1,1 -2,3 -2,5 1,3 2,5 4,7 -2,-2 -5,-3 -6,-6 0,-1 0,-3 0,-5 1,-1 2,-2 3,-3 2,-1 3,-1 4,-1 2,0 3,0 4,-1 2,0 4,-2 7,-3z"/>
     <path class="fil22" d="M1378 421c0,-1 1,-2 2,-2 1,-1 2,-1 3,-1 1,0 2,0 3,0 1,1 2,2 3,3 -1,-1 -2,-1 -3,-1 -1,0 -2,0 -3,0 -1,0 -2,0 -2,1 -1,0 -2,0 -3,0z"/>
     <path class="fil22" d="M1411 437c2,0 3,1 4,2 1,1 2,3 2,4 1,1 1,3 1,4 0,2 0,3 -2,4 1,-1 0,-2 0,-4 0,-1 0,-2 -1,-3 0,-1 -1,-2 -2,-4 0,-1 -1,-2 -2,-3z"/>
     <path class="fil22" d="M1399 473c-2,4 -6,5 -7,3 -2,-1 -1,-5 2,-8 2,-3 6,-4 8,-3 1,2 0,5 -3,8z"/>
     <path class="fil22" d="M1371 449c-3,3 -7,5 -8,3 -2,-1 -1,-5 2,-8 3,-3 6,-4 8,-3 1,2 0,5 -2,8z"/>
     <path class="fil26" d="M1343 481c1,3 1,6 3,8 1,1 1,2 2,3l1 1c1,0 1,0 1,0 1,1 1,1 2,1 2,1 5,2 8,3 2,0 5,0 8,-1 -2,2 -6,2 -9,2 -3,0 -6,0 -8,-2 -1,0 -2,0 -2,-1 -1,0 -1,0 -1,0l-1 -1c-1,-1 -2,-2 -3,-4 -1,-3 -1,-6 -1,-9z"/>
     <path class="fil25" d="M1424 498c5,-5 13,-6 20,-4 15,5 8,24 -3,30 -7,3 -21,2 -23,-6l6 -20z"/>
     <path class="fil26" d="M1424 498c3,-3 6,-5 10,-5 4,-1 7,-1 11,0 3,1 7,4 8,8 2,4 1,8 0,11 -2,4 -4,7 -7,9 -1,2 -3,3 -4,4 -2,0 -4,1 -6,1 -4,0 -7,0 -11,-1 -3,-1 -7,-4 -7,-7 1,3 4,5 7,6 4,1 7,1 11,0 7,-1 12,-6 15,-13 1,-3 1,-6 0,-9 -1,-3 -4,-6 -7,-7 -3,-1 -7,-2 -10,-1 -3,0 -7,1 -10,4z"/>
     <path class="fil7" d="M1383 556c1,7 8,11 14,15 -2,2 -11,9 -15,10 -1,0 -6,-5 -8,-9 -2,-4 -3,-7 -2,-9 1,-2 4,-5 8,-6l3 -1z"/>
     <path class="fil7" d="M1410 555c7,0 14,8 14,9 -1,3 -12,18 -15,18 -2,0 -11,-8 -14,-12 6,-1 14,-4 14,-11l1 -4z"/>
    </g>
    <path class="fil4" d="M275 324c-4,1 6,137 15,144 17,13 32,34 28,-8 -2,-28 -11,-117 -8,-146 0,0 -35,10 -35,10z"/>
    <path class="fil37" d="M290 294c-7,0 -7,2 -11,7 -8,8 -5,16 -6,26 -1,2 -2,22 0,22 20,2 30,-1 43,-6 -1,-2 -2,-26 -12,-40 -3,-4 -10,-9 -14,-9z"/>
    <path class="fil4" d="M295 434c-12,1 -11,21 -10,29 0,15 4,40 8,54 3,14 7,28 11,42 1,0 1,0 1,0 0,3 7,16 6,18 -2,4 -6,5 -5,10 1,7 8,20 11,28 -1,2 -1,4 -3,7 -2,4 -3,5 -4,11 0,3 5,-1 7,-4 2,-4 6,-10 10,-13 3,3 -18,24 -12,27 2,1 8,-7 10,-10 3,-4 7,-7 10,-11 -1,7 -18,23 -14,25 4,2 15,-14 19,-20 -2,9 -11,16 -11,22 2,2 14,-10 15,-15 2,-6 3,-8 3,-14 -1,-9 -10,-32 -18,-43 -1,-14 -2,-28 -3,-41 -1,-9 -1,-18 -2,-26 -1,-15 -3,-29 -4,-43 -4,-43 -12,-34 -25,-33zm24 119l0 0c0,-1 0,-1 0,-1 0,0 0,0 0,1z"/>
    <path class="fil38" d="M290 401l-3 45c0,0 3,28 10,48 6,20 -42,40 -47,40 -6,0 -66,-19 -66,-19l-23 -34 7 -22 0 -11c0,0 -5,-25 -1,-39 5,-14 123,-8 123,-8z"/>
    <path class="fil38" d="M239 1024c-14,-8 -36,-19 -43,-25 -10,-9 20,-449 20,-449l-58 0 2 77c0,0 4,154 0,179 -5,26 1,156 2,201l0 5c24,10 52,16 77,12z"/>
    <path class="fil39" d="M239 1024c-25,4 -53,-2 -77,-12l0 15c0,0 97,24 104,13 0,0 4,-5 -27,-16z"/>
    <path class="fil38" d="M320 1015c-14,-8 -33,-18 -41,-23 -16,-10 32,-442 32,-442l-72 -10 2 77c0,0 4,155 0,180 -5,26 1,156 2,201l0 5c24,10 52,15 77,12z"/>
    <path class="fil39" d="M320 1015c-25,3 -53,-2 -77,-12l0 15c0,0 85,22 104,12 0,0 4,-4 -27,-15z"/>
    <path class="fil40" d="M138 540c6,-55 19,-76 23,-81 1,-3 3,-8 5,-10 79,16 108,2 121,-3 3,5 6,8 7,12 0,0 25,52 26,87 1,35 -9,125 -18,216l-19 203c0,0 -22,5 -43,0l-6 -388 -7 6 -26 379c0,0 -21,10 -46,0 0,0 -4,-136 -3,-161 0,0 -21,-205 -14,-260z"/>
    <path class="fil41" d="M290 455c-10,5 -20,8 -31,10 -11,2 -22,3 -33,3 -22,0 -44,-3 -65,-9 22,2 44,5 65,5 11,0 22,-1 32,-2 11,-2 22,-4 32,-7z"/>
    <path class="fil42" d="M243 466c1,14 3,27 2,41 -1,7 -2,14 -4,20 -2,7 -6,13 -12,17 5,-5 7,-11 9,-18 2,-6 2,-13 3,-19 0,-7 0,-14 0,-20 1,-7 1,-14 2,-21z"/>
    <path class="fil42" d="M235 468c-1,19 0,38 -2,57 -1,4 -1,9 -2,14 -1,4 -1,9 -2,14 0,9 -1,18 -1,28 -1,-10 -2,-19 -2,-28 0,-5 0,-10 1,-15 1,-4 1,-9 2,-14 1,-9 1,-18 2,-28 1,-9 2,-19 4,-28z"/>
    <path class="fil42" d="M251 566l-9 6c-2,2 -5,4 -8,7 -3,2 -6,4 -9,6 -3,2 -6,4 -10,5 3,-3 5,-5 8,-8 3,-2 5,-4 8,-7 3,-2 6,-4 10,-6 3,-1 7,-3 10,-3z"/>
    <path class="fil42" d="M176 464c0,4 -1,8 -2,12 -2,4 -4,8 -7,12 -2,3 -5,6 -9,9 -3,2 -7,4 -11,5 3,-2 6,-5 9,-8 3,-3 6,-6 8,-9 5,-6 9,-13 12,-21z"/>
    <path class="fil42" d="M309 495c-2,1 -5,0 -7,0 -2,-1 -4,-2 -6,-3 -4,-2 -7,-5 -10,-8 -3,-4 -5,-7 -7,-11 -2,-4 -2,-9 -2,-13 1,4 3,8 5,11 2,4 4,7 7,10 3,3 6,6 9,9 2,1 3,2 5,3 2,1 4,2 6,2z"/>
    <path class="fil7" d="M299 216c23,-4 49,-25 57,-47 13,-35 -8,-73 -40,-91 -31,-17 -69,-26 -105,-14 -37,13 -57,43 -70,78 -7,16 -8,34 -11,51 -5,23 -18,29 -37,39 -9,5 -20,10 -27,16 -8,7 -12,17 -15,26 -7,17 -9,34 -5,52 8,41 46,68 82,82 17,6 34,5 52,5 19,0 32,-1 47,-12 22,-16 34,-38 34,-65 0,-26 -3,-52 -3,-77l41 -43z"/>
    <path class="fil4" d="M317 198c4,-16 13,-30 18,-46 -9,-1 -20,-5 -27,-9 -9,-4 -18,-9 -27,-15 -5,-3 -9,-6 -13,-10 -3,-2 -4,-7 -7,-8 -7,18 -31,42 -52,37 -2,13 -10,36 -25,40 2,8 5,16 8,24 3,7 7,15 11,22 3,5 6,9 9,13 4,5 8,8 13,12 0,0 1,1 2,2 -2,7 -7,20 -8,23 -2,1 -5,2 -10,3l7 20c0,0 28,10 28,10 1,0 19,-8 19,-8l0 -15 -2 -3c0,0 -10,0 -10,-8l0 0 0 -13c1,1 3,1 3,1 0,0 1,0 1,0 16,0 41,-3 51,-17 5,-6 6,-13 6,-21 1,-2 1,-4 1,-6 0,-9 1,-18 4,-28z"/>
    <path class="fil4" d="M284 200c-3,3 -4,9 -3,14 2,5 6,7 -1,9 -3,2 -8,2 -11,0l15 -23z"/>
    <path class="fil5" d="M284 200c-2,2 -2,4 -2,7 0,2 0,4 0,6l0 0c1,2 2,4 3,6 0,0 0,1 0,2 0,1 -1,1 -1,2 -1,1 -2,1 -3,1 -2,1 -5,1 -7,1 -2,0 -4,-1 -5,-2 1,1 3,1 5,1 2,-1 4,-1 6,-2 1,0 2,-1 2,-1 0,0 0,0 0,0 0,-1 0,-1 0,-1 0,-2 -2,-4 -2,-6l0 0 0 0c-1,-3 0,-5 0,-8 0,-1 1,-2 1,-3 1,-1 2,-2 3,-3z"/>
    <path class="fil22" d="M248 158c1,-2 2,-3 4,-4 2,-1 4,-2 6,-2 2,0 4,1 6,2 2,1 4,2 4,4 -1,-1 -3,-2 -5,-2 -1,-1 -3,-1 -5,-1 -2,0 -3,0 -5,1 -2,0 -4,1 -5,2z"/>
    <path class="fil22" d="M298 168c1,-2 3,-3 5,-3 2,-1 4,0 6,0 2,1 3,2 4,4 1,2 2,4 1,6 -1,-4 -3,-6 -6,-7 -3,-1 -6,-1 -10,0z"/>
    <path class="fil22" d="M303 202c-2,4 -5,7 -7,6 -2,-1 -2,-5 -1,-9 2,-4 5,-7 7,-6 2,1 2,5 1,9z"/>
    <path class="fil22" d="M263 188c-2,4 -5,7 -7,6 -2,-1 -2,-5 -1,-9 2,-4 5,-6 7,-5 2,0 3,4 1,8z"/>
    <path class="fil4" d="M195 190c1,-14 -20,-17 -28,-12 -12,7 -14,21 -6,31 6,8 19,11 28,7 2,-1 8,-6 8,-6l-2 -20z"/>
    <path class="fil5" d="M195 190c0,-3 -1,-5 -2,-7 -2,-2 -3,-3 -5,-4 -5,-2 -9,-3 -14,-2 -2,0 -4,1 -6,2 -2,1 -4,2 -5,4 -3,3 -5,7 -6,12 0,4 1,8 4,12 2,4 6,7 10,8 4,2 9,2 14,2 2,-1 4,-2 6,-3 1,-1 2,-1 3,-2 1,-1 2,-1 3,-2 -2,2 -4,3 -6,5 -1,1 -4,2 -6,3 -5,1 -10,1 -14,-1 -5,-1 -9,-4 -12,-8 -3,-4 -5,-10 -4,-15 0,-5 2,-9 6,-13 2,-2 4,-3 6,-4 2,-2 5,-2 7,-2 5,-1 10,0 14,3 2,1 4,3 5,5 2,2 2,4 2,7z"/>
    <path class="fil5" d="M237 229c3,6 8,9 13,11 3,2 6,2 8,3 3,1 6,1 9,2 -3,0 -6,1 -9,0 -3,0 -6,-1 -9,-2 -3,-1 -6,-3 -8,-5 -2,-3 -4,-6 -4,-9z"/>
    <path class="fil43" d="M236 310c0,0 0,0 0,0 0,0 0,0 0,0 0,0 0,0 0,0z"/>
    <path class="fil44" d="M169 299l3 -11 25 -2 14 -1c0,0 0,25 24,25 0,0 1,0 1,0 0,0 0,0 0,0 0,0 0,0 0,0 26,0 21,-21 21,-21l16 3 17 2c0,0 0,43 8,69 7,25 -6,33 -7,36 0,0 11,56 9,72 0,0 -57,17 -141,-5 -3,-31 -1,-114 -3,-123 -3,-14 13,-44 13,-44z"/>
    <path class="fil45" d="M351 426l6 -21c0,0 0,-5 13,-6l77 -5 -3 27 -93 5z"/>
    <polygon class="fil46" points="364,419 353,419 357,406 368,405 "/>
    <path class="fil4" d="M158 328c-4,3 47,132 57,136 6,3 27,-1 23,-18 -7,-28 -45,-110 -51,-138 0,0 -29,20 -29,20z"/>
    <path class="fil47" d="M172 288c-6,2 -12,8 -14,14 -5,9 -4,20 -2,30 1,2 5,22 6,21 20,-5 29,-10 40,-19 -2,-15 -5,-34 -18,-43 -4,-4 -8,-4 -12,-3z"/>
    <path class="fil4" d="M213 459c2,12 22,9 30,8 15,-1 40,-8 54,-12 13,-4 27,-9 40,-15 0,0 0,0 0,0 3,-1 15,-8 18,-7 4,1 5,5 10,3 7,-1 20,-9 27,-12 2,0 4,1 8,2 4,1 5,3 10,3 4,0 -1,-4 -4,-6 -4,-3 -10,-6 -13,-10 3,-3 25,16 27,10 1,-2 -7,-7 -10,-9 -5,-3 -8,-6 -12,-9 7,1 24,17 26,12 1,-4 -15,-14 -21,-18 9,2 16,11 23,10 2,-3 -12,-13 -17,-14 -6,-2 -8,-2 -14,-1 -9,1 -31,12 -42,21 -13,2 -27,4 -41,6 -8,1 -17,2 -25,4 -15,2 -28,5 -42,7 -43,7 -34,14 -32,27zm117 -33l0 0c-1,0 -1,0 -1,1 0,-1 0,-1 1,-1z"/>
    <g>
     <path class="fil48" d="M680 623c-4,0 -9,3 -9,7l-48 328c-1,5 2,9 7,10l10 1c5,1 9,-2 10,-7l48 -328c0,-4 -3,-9 -8,-9l-10 -2z"/>
     <path class="fil48" d="M1060 623c4,0 8,3 9,7l48 328c1,5 -2,9 -7,10l-10 1c-5,1 -9,-2 -10,-7l-48 -328c0,-4 3,-9 7,-9l11 -2z"/>
     <g>
      <path class="fil49" d="M1084 628c0,4 -3,7 -7,7l-417 0c-4,0 -7,-3 -7,-7l0 -19c0,-4 3,-7 7,-7l417 0c4,0 7,3 7,7l0 19z"/>
     </g>
    </g>
    <g>
     <g>
      <path class="fil50" d="M822 541l-45 0c-4,0 -8,4 -8,8l0 45c0,4 4,8 8,8l45 0c4,0 8,-4 8,-8l0 -45c0,-4 -4,-8 -8,-8z"/>
      <path class="fil13" d="M817 547l-35 0c-4,0 -7,3 -7,7l0 35c0,4 3,6 7,6l35 0c4,0 6,-2 6,-6l0 -35c0,-4 -2,-7 -6,-7z"/>
      <polygon class="fil51" points="812,584 812,577 799,577 799,555 789,555 789,584 "/>
     </g>
     <g>
      <path class="fil52" d="M890 541l-45 0c-5,0 -8,4 -8,8l0 45c0,4 3,8 8,8l45 0c4,0 8,-4 8,-8l0 -45c0,-4 -4,-8 -8,-8z"/>
      <path class="fil13" d="M885 547l-36 0c-3,0 -6,3 -6,7l0 35c0,4 3,6 6,6l36 0c3,0 6,-2 6,-6l0 -35c0,-4 -3,-7 -6,-7z"/>
      <polygon class="fil53" points="873,584 873,563 881,563 881,555 855,555 855,563 863,563 863,584 "/>
     </g>
     <g>
      <path class="fil54" d="M957 541l-45 0c-4,0 -7,4 -7,8l0 45c0,4 3,8 7,8l45 0c5,0 8,-4 8,-8l0 -45c0,-4 -3,-8 -8,-8z"/>
      <path class="fil13" d="M953 547l-36 0c-3,0 -6,3 -6,7l0 35c0,4 3,6 6,6l36 0c3,0 6,-2 6,-6l0 -35c0,-4 -3,-7 -6,-7z"/>
      <polygon class="fil55" points="941,566 932,566 932,555 922,555 922,584 932,584 932,574 941,574 941,584 950,584 950,555 941,555 "/>
     </g>
     <g>
      <path class="fil54" d="M855 481l-45 0c-4,0 -8,3 -8,7l0 45c0,5 4,8 8,8l45 0c5,0 8,-3 8,-8l0 -45c0,-4 -3,-7 -8,-7z"/>
      <path class="fil13" d="M851 487l-36 0c-3,0 -6,3 -6,6l0 36c0,3 3,6 6,6l36 0c3,0 6,-3 6,-6l0 -36c0,-3 -3,-6 -6,-6z"/>
      <polygon class="fil55" points="829,513 841,513 841,506 829,506 829,502 843,502 843,495 820,495 820,524 844,524 844,517 829,517 "/>
     </g>
     <g>
      <path class="fil56" d="M927 481l-45 0c-4,0 -8,3 -8,7l0 45c0,5 4,8 8,8l45 0c4,0 8,-3 8,-8l0 -45c0,-4 -4,-7 -8,-7z"/>
      <path class="fil13" d="M922 487l-35 0c-4,0 -6,3 -6,6l0 36c0,3 2,6 6,6l35 0c4,0 7,-3 7,-6l0 -36c0,-3 -3,-6 -7,-6z"/>
      <path class="fil57" d="M923 524l-13 -29 -9 0 -13 29 10 0 2 -5 11 0 2 5 10 0zm-17 -19l2 7 -5 0 3 -7z"/>
     </g>
     <g>
      <path class="fil56" d="M677 549l0 45c0,4 4,8 8,8l45 0c5,0 8,-4 8,-8l0 -45c0,-4 -3,-8 -8,-8l-45 0c-4,0 -8,4 -8,8z"/>
      <path class="fil13" d="M684 554l0 35c0,4 3,6 6,6l36 0c3,0 6,-2 6,-6l0 -35c0,-4 -3,-7 -6,-7l-36 0c-3,0 -6,3 -6,7z"/>
      <path class="fil57" d="M708 559c-1,-2 -3,-4 -6,-4 -5,0 -8,4 -8,12l0 15 29 0 0 -16c0,-8 -3,-12 -8,-12 -3,0 -6,2 -7,5zm-7 9c0,-2 1,-3 2,-3 2,0 2,1 2,3l0 5 -4 0 0 -5zm15 5l-4 0 0 -6c0,-2 1,-3 2,-3 2,0 2,1 2,3l0 6z"/>
     </g>
     <g>
      <g>
       <path class="fil58" d="M890 420l-45 0c-5,0 -8,3 -8,8l0 45c0,4 3,8 8,8l45 0c4,0 8,-4 8,-8l0 -45c0,-5 -4,-8 -8,-8z"/>
      </g>
      <path class="fil13" d="M885 426l-36 0c-3,0 -6,3 -6,6l0 36c0,3 3,6 6,6l36 0c3,0 6,-3 6,-6l0 -36c0,-3 -3,-6 -6,-6z"/>
      <g>
       <polygon class="fil59" points="873,444 864,444 864,434 854,434 854,463 864,463 864,452 873,452 873,463 882,463 882,434 873,434 "/>
      </g>
      <polygon class="fil51" points="812,584 812,577 799,577 799,555 789,555 789,584 "/>
     </g>
    </g>
   </g>
  </g>
  <path class="fil60" d="M108 0l708 0c60,0 108,48 108,108l0 603c0,59 -48,108 -108,108l-708 0c-60,0 -108,-49 -108,-108l0 -603c0,-60 48,-108 108,-108z"/>
 </g>
</svg>
