<?xml version="1.0" encoding="UTF-8"?>
<!DOCTYPE svg PUBLIC "-//W3C//DTD SVG 1.1//EN" "http://www.w3.org/Graphics/SVG/1.1/DTD/svg11.dtd">
<!-- Creator: CorelDRAW X7 -->
<svg xmlns="http://www.w3.org/2000/svg" xml:space="preserve" width="1.90328in" height="1.6869in" version="1.1" style="shape-rendering:geometricPrecision; text-rendering:geometricPrecision; image-rendering:optimizeQuality; fill-rule:evenodd; clip-rule:evenodd"
viewBox="0 0 444 393"
 xmlns:xlink="http://www.w3.org/1999/xlink">
 <defs>
  <style type="text/css">
   <![CDATA[
    .fil93 {fill:none}
    .fil59 {fill:#090705;fill-rule:nonzero}
    .fil58 {fill:#0E0C0A;fill-rule:nonzero}
    .fil32 {fill:#19191B;fill-rule:nonzero}
    .fil34 {fill:#1A191B;fill-rule:nonzero}
    .fil37 {fill:#1A1A1B;fill-rule:nonzero}
    .fil10 {fill:#312D2C;fill-rule:nonzero}
    .fil26 {fill:#346487;fill-rule:nonzero}
    .fil45 {fill:#346488;fill-rule:nonzero}
    .fil46 {fill:#356488;fill-rule:nonzero}
    .fil72 {fill:#482925;fill-rule:nonzero}
    .fil73 {fill:#492B26;fill-rule:nonzero}
    .fil81 {fill:#603D2F;fill-rule:nonzero}
    .fil5 {fill:#6084B1;fill-rule:nonzero}
    .fil27 {fill:#6AA6C5;fill-rule:nonzero}
    .fil53 {fill:#76421D;fill-rule:nonzero}
    .fil63 {fill:#794520;fill-rule:nonzero}
    .fil82 {fill:#7B7873;fill-rule:nonzero}
    .fil13 {fill:#7CB4D7;fill-rule:nonzero}
    .fil40 {fill:#7EB4D4;fill-rule:nonzero}
    .fil42 {fill:#8B7F76;fill-rule:nonzero}
    .fil18 {fill:#8BD291;fill-rule:nonzero}
    .fil4 {fill:#918374;fill-rule:nonzero}
    .fil60 {fill:#933C36;fill-rule:nonzero}
    .fil65 {fill:#933D36;fill-rule:nonzero}
    .fil20 {fill:#98DFA1;fill-rule:nonzero}
    .fil43 {fill:#99877C;fill-rule:nonzero}
    .fil83 {fill:#9A898A;fill-rule:nonzero}
    .fil70 {fill:#AA552F;fill-rule:nonzero}
    .fil44 {fill:#AA9282;fill-rule:nonzero}
    .fil28 {fill:#ABE4B1;fill-rule:nonzero}
    .fil75 {fill:#AF5A31;fill-rule:nonzero}
    .fil67 {fill:#B26854;fill-rule:nonzero}
    .fil74 {fill:#B53632;fill-rule:nonzero}
    .fil49 {fill:#B5C573;fill-rule:nonzero}
    .fil84 {fill:#B6C575;fill-rule:nonzero}
    .fil68 {fill:#B97766;fill-rule:nonzero}
    .fil90 {fill:#B9B397;fill-rule:nonzero}
    .fil19 {fill:#BA9CC8;fill-rule:nonzero}
    .fil36 {fill:#C3C1DF;fill-rule:nonzero}
    .fil3 {fill:#C59B6D;fill-rule:nonzero}
    .fil38 {fill:#C5A8D0;fill-rule:nonzero}
    .fil24 {fill:#C6A8D2;fill-rule:nonzero}
    .fil16 {fill:#CBCBCB;fill-rule:nonzero}
    .fil17 {fill:#CFB5D7;fill-rule:nonzero}
    .fil31 {fill:#D6E3F2;fill-rule:nonzero}
    .fil29 {fill:#D6E4F3;fill-rule:nonzero}
    .fil91 {fill:#DAD5D4;fill-rule:nonzero}
    .fil54 {fill:#DDEAFA;fill-rule:nonzero}
    .fil66 {fill:#DEA673;fill-rule:nonzero}
    .fil30 {fill:#DEDBEE;fill-rule:nonzero}
    .fil25 {fill:#DEE7A9;fill-rule:nonzero}
    .fil6 {fill:#DEEBFC;fill-rule:nonzero}
    .fil71 {fill:#E38959;fill-rule:nonzero}
    .fil69 {fill:#E77F51;fill-rule:nonzero}
    .fil35 {fill:#EA8052;fill-rule:nonzero}
    .fil92 {fill:#EAE6E6;fill-rule:nonzero}
    .fil78 {fill:#EB8555;fill-rule:nonzero}
    .fil77 {fill:#EB8756;fill-rule:nonzero}
    .fil88 {fill:#EBEBEB;fill-rule:nonzero}
    .fil79 {fill:#EE935F;fill-rule:nonzero}
    .fil12 {fill:#EEAE75;fill-rule:nonzero}
    .fil80 {fill:#EF9560;fill-rule:nonzero}
    .fil48 {fill:#EFF6FE;fill-rule:nonzero}
    .fil47 {fill:#EFF7FE;fill-rule:nonzero}
    .fil33 {fill:#F0F0F0;fill-rule:nonzero}
    .fil41 {fill:#F3B77A;fill-rule:nonzero}
    .fil87 {fill:whitesmoke;fill-rule:nonzero}
    .fil39 {fill:#F8BB7C;fill-rule:nonzero}
    .fil86 {fill:#F8F8F8;fill-rule:nonzero}
    .fil76 {fill:#F9F0F0;fill-rule:nonzero}
    .fil11 {fill:#FABD7C;fill-rule:nonzero}
    .fil8 {fill:#FABD7D;fill-rule:nonzero}
    .fil55 {fill:#FB827C;fill-rule:nonzero}
    .fil23 {fill:#FB828B;fill-rule:nonzero}
    .fil7 {fill:#FBAF5E;fill-rule:nonzero}
    .fil56 {fill:#FBFBFB;fill-rule:nonzero}
    .fil52 {fill:#FCAE78;fill-rule:nonzero}
    .fil61 {fill:#FCAF79;fill-rule:nonzero}
    .fil85 {fill:#FCF1BE;fill-rule:nonzero}
    .fil89 {fill:#FCF1BF;fill-rule:nonzero}
    .fil57 {fill:#FDAF79;fill-rule:nonzero}
    .fil51 {fill:#FDC48E;fill-rule:nonzero}
    .fil50 {fill:#FDFDFD;fill-rule:nonzero}
    .fil21 {fill:#FDFDFE;fill-rule:nonzero}
    .fil22 {fill:#FE6C71;fill-rule:nonzero}
    .fil64 {fill:#FEB995;fill-rule:nonzero}
    .fil62 {fill:#FEB996;fill-rule:nonzero}
    .fil9 {fill:#FEC691;fill-rule:nonzero}
    .fil14 {fill:#FEC9A5;fill-rule:nonzero}
    .fil15 {fill:#FEF3BF;fill-rule:nonzero}
    .fil0 {fill:url(#id1)}
    .fil1 {fill:url(#id2)}
    .fil2 {fill:url(#id3)}
   ]]>
  </style>
   <clipPath id="id0">
    <path d="M52 0l340 0c29,0 52,23 52,52l0 290c0,28 -23,51 -52,51l-340 0c-29,0 -52,-23 -52,-51l0 -290c0,-29 23,-52 52,-52z"/>
   </clipPath>
  <linearGradient id="id1" gradientUnits="userSpaceOnUse" x1="101.692" y1="340.734" x2="342.097" y2="52.604">
   <stop offset="0" style="stop-opacity:1; stop-color:#E6E6E6"/>
   <stop offset="1" style="stop-opacity:1; stop-color:#F7F7F7"/>
  </linearGradient>
  <linearGradient id="id2" gradientUnits="userSpaceOnUse" x1="131.436" y1="527.436" x2="345.779" y2="174.452">
   <stop offset="0" style="stop-opacity:1; stop-color:#B0B0B0"/>
   <stop offset="1" style="stop-opacity:1; stop-color:#EDEDED"/>
  </linearGradient>
  <linearGradient id="id3" gradientUnits="userSpaceOnUse" x1="182.252" y1="524.28" x2="452.197" y2="125.832">
   <stop offset="0" style="stop-opacity:1; stop-color:#6200D1"/>
   <stop offset="1" style="stop-opacity:1; stop-color:#FF2EBD"/>
  </linearGradient>
 </defs>
 <g id="Layer_x0020_1">
  <metadata id="CorelCorpID_0Corel-Layer"/>
  <path class="fil0" d="M52 0l340 0c29,0 52,23 52,52l0 290c0,28 -23,51 -52,51l-340 0c-29,0 -52,-23 -52,-51l0 -290c0,-29 23,-52 52,-52z"/>
  <g style="clip-path:url(#id0)">
   <g id="_2565123388800">
    <circle class="fil1" cx="239" cy="351" r="259"/>
    <path class="fil2" d="M317 26c83,0 157,34 211,88 55,54 88,129 88,211 0,83 -33,157 -88,211 -54,54 -128,88 -211,88 -82,0 -157,-34 -211,-88 -54,-54 -88,-128 -88,-211 0,-82 34,-157 88,-211 54,-54 129,-88 211,-88zm210 90c-54,-54 -128,-87 -210,-87 -82,0 -156,33 -209,87 -54,53 -87,127 -87,209 0,82 33,156 87,210 53,53 127,86 209,86 82,0 156,-33 210,-86 53,-54 87,-128 87,-210 0,-82 -34,-156 -87,-209z"/>
    <g>
     <path class="fil3" d="M303 4c1,0 2,1 2,2 6,6 19,20 25,24 3,2 0,5 -4,4 -2,0 -7,-6 -9,-7l1 -2 -4 -2c-4,-4 -9,-9 -13,-13 1,3 2,7 2,10l-1 1c3,3 -7,5 -5,0l-2 -1c0,-3 -1,-6 -2,-8l-2 10 -2 1c2,2 1,5 -1,7 2,2 0,9 -2,10 2,2 -1,5 -3,5 -3,0 -6,-3 -3,-5 -1,0 0,-8 0,-8l2 -1c-1,0 -1,0 -1,0 0,0 1,-6 2,-6 -1,-1 -1,-2 0,-2l3 -14 -17 18 -4 2c-1,2 -4,5 -6,6 -3,3 -8,2 -6,-2 8,-5 27,-28 35,-36 1,-1 1,-1 1,-2 1,0 2,-1 3,-1 2,0 9,8 11,10z"/>
     <path class="fil4" d="M306 6l-1 0c-1,-1 -2,-2 -2,-2 1,0 2,1 3,2z"/>
     <path class="fil5" d="M155 299l1 0 11 8c2,0 3,1 4,2 4,3 7,5 13,7 12,5 35,7 42,20 4,5 4,20 1,25 -1,1 -1,1 -3,0 -1,-6 -2,-12 -8,-16 8,13 8,32 -7,39 -11,5 -22,7 -33,7 -6,-2 -10,-9 -12,-14 -1,-3 -5,-15 -4,-17 0,-1 1,-1 1,-1 2,0 2,0 0,-1 -4,2 -12,2 -16,0l-2 1c-14,2 -38,4 -51,-5 -2,-1 -7,-4 -6,-7 -3,0 -7,-7 -5,-9 -2,-6 0,-14 0,-20l2 -1c6,1 12,1 18,-1 6,0 9,0 14,1 4,-4 7,-9 9,-14l2 0 1 -2c9,1 17,1 24,0 2,-3 3,-3 4,-2z"/>
     <path class="fil6" d="M122 171c8,3 13,11 16,19 2,0 3,0 3,1 2,1 2,8 0,9 1,0 1,0 1,1 4,10 5,22 6,32 1,0 2,1 2,1 0,1 -1,10 -2,10 0,0 0,1 -1,1l-2 -1c-3,-5 -5,-9 -7,-14l-16 8c5,11 11,21 19,29l1 2c0,1 0,1 0,2 0,0 0,1 0,1 -1,4 -3,8 -5,12 -2,4 -8,16 -10,18 -1,0 -1,0 -1,1 -2,2 -8,15 -11,16 -2,0 -4,-2 -7,-2 -9,-1 -15,5 -27,1 -4,-1 -14,-6 -13,-11 0,-1 5,-6 6,-8 8,-10 17,-30 18,-43 1,-13 -3,-26 -4,-39 0,-15 2,-39 18,-45 2,-3 11,-4 15,-3l1 2z"/>
     <path class="fil7" d="M286 169c4,-8 16,-11 25,-12 3,0 20,2 22,4 1,0 -2,1 0,-1 3,1 5,2 6,4 11,6 14,13 12,26 0,4 -2,7 -1,11 -2,2 -3,0 -3,-2 -1,-8 -7,-15 -14,-19 -3,6 -12,10 -18,9 0,1 -1,1 -2,0 -3,1 -6,1 -9,1 -4,7 -6,14 -6,23 0,8 0,12 9,15 4,5 -3,8 -6,4 -1,2 -2,1 -3,-1 -1,2 -4,3 -4,0 -6,3 -10,-1 -12,-6 -1,1 -4,1 -5,-1 -2,2 -3,-1 -4,-3 -1,0 -2,0 -2,-1 -7,3 -7,-9 -6,-14 0,-2 1,-3 2,-4 0,-1 0,-2 0,-3 1,-3 7,-13 10,-16l1 0c1,-5 4,-9 7,-13l1 -1z"/>
     <path class="fil8" d="M147 245l2 0c2,3 4,6 7,8l0 2c1,-1 2,0 2,1 1,0 2,1 2,2l2 0c12,6 23,13 34,19 3,1 4,2 5,3 2,0 4,0 6,1 1,-1 2,-1 3,-1 7,-1 17,-1 24,0 4,0 5,6 0,6l-9 0c-1,0 -3,0 -2,1 1,1 10,6 12,8 2,1 12,8 9,11 -1,1 -2,1 -2,1 -1,0 1,2 1,3 0,3 -3,2 -5,2 -3,1 -6,3 -9,3 -3,-1 -6,-4 -9,-6 -2,-1 -4,-1 -6,-2 -8,-4 -11,-12 -20,-15 -11,-5 -25,-6 -37,-12 -2,1 -4,-1 -4,-3l-2 1c-3,-2 -6,-5 -9,-7l0 -2c-10,-8 -17,-20 -21,-31l17 -10c3,6 6,11 9,17z"/>
     <path class="fil9" d="M350 201c1,0 2,0 3,1 3,3 1,9 -3,10 0,1 -1,2 -2,2 -4,11 -15,19 -27,17 -1,1 0,1 1,1 0,-1 4,-1 4,0 3,0 3,6 2,9 -3,15 -25,15 -29,1 -1,-3 -1,-9 2,-10 2,0 4,0 6,1 0,-1 0,-3 0,-4 0,0 -7,-2 -8,-4 -3,-6 -3,-17 -1,-22 0,-3 4,-13 6,-14 1,-1 7,-1 9,0 -2,2 2,1 2,0 7,-2 15,-3 17,-11 6,3 13,10 15,16 1,3 0,6 3,7z"/>
     <path class="fil10" d="M110 77c-1,1 4,-1 2,-1 8,-3 14,-2 22,-1 16,9 24,25 26,41 0,1 1,2 0,3 -1,0 -2,-1 -3,-1 -1,2 -2,1 -3,0 -2,-2 -5,-3 -8,-3l-1 -2 -1 1c-7,-5 -15,-11 -22,-18 -5,10 -10,19 -17,28 1,2 0,2 -2,2 0,1 -1,0 -1,-1 -2,1 -4,-1 -3,-3 -3,-3 -6,-8 -6,-13 0,-2 0,-6 0,-8 0,-1 -2,-1 -2,-1 -11,-12 0,-30 15,-27 1,1 3,2 4,4z"/>
     <path class="fil11" d="M144 115l0 0c3,-1 7,1 10,3 1,0 2,0 3,0 -2,5 -1,3 2,4 3,2 2,12 -2,13 -1,1 -4,1 -4,1 0,0 0,4 -1,6 -1,6 -8,14 -14,17 0,2 -4,3 -7,3 -5,0 -12,-3 -13,-8 -1,1 -2,0 -3,-2 -2,-2 -3,-4 -5,-6 -1,-2 -3,-9 -3,-10 -1,0 -4,0 -5,-1 -4,-2 -8,-10 -3,-13 1,1 2,2 3,3 0,1 1,2 1,2 1,3 1,3 1,0 -1,0 -2,0 -1,-1 1,-1 1,-1 2,-2l7 -9c0,0 0,0 1,0 0,1 0,1 0,0 0,0 0,-1 0,-1 0,-1 8,-16 9,-17 0,0 0,0 0,0 7,6 14,11 22,17l0 1z"/>
     <path class="fil8" d="M145 358l1 1c0,9 2,18 8,25l0 2c-10,-3 -21,-5 -31,-7 -14,-3 -21,-3 -35,-3 -10,0 -33,3 -40,-2 -5,-3 -4,-9 0,-12 3,-2 7,-2 11,-2 1,-1 6,-2 7,-1 2,1 0,2 0,3 -4,5 -4,5 1,2 5,-5 9,-10 13,-15 2,-2 4,-3 6,-2 13,17 40,12 59,11z"/>
     <path class="fil12" d="M187 256c1,-2 1,-1 1,0 1,1 2,1 3,2 9,4 18,8 27,10l6 0c11,1 22,5 32,9 2,0 5,5 3,6 -5,1 -11,3 -16,3 -6,1 -12,0 -18,0 4,-1 8,0 11,-2 1,-1 -1,-3 -2,-3 -9,0 -18,0 -27,0 -2,-1 -4,-1 -6,-1 -8,-2 -19,-10 -26,-14 -5,-3 -10,-5 -15,-8 -1,-1 -1,-2 -1,-3 -1,0 -1,-1 -1,-1 0,-1 3,-17 4,-19 0,-1 0,-1 0,-1 1,-2 4,-4 6,-3 1,6 4,13 8,17 3,4 6,6 11,8z"/>
     <path class="fil13" d="M442 323c17,18 -9,47 -29,32 -17,-19 7,-47 29,-32z"/>
     <path class="fil14" d="M369 242c0,0 8,5 10,6 6,4 20,17 28,17 3,0 17,-3 19,-2 4,3 -9,4 -9,7 0,1 13,7 15,9 2,3 0,3 -3,2 -2,-1 -5,-2 -7,-3 0,1 1,1 1,2 2,1 8,6 8,7 0,3 -8,-3 -9,-3 -1,-1 -1,0 -1,1 1,0 5,5 5,6 0,3 -6,-3 -6,-3 -1,-1 -1,0 -1,0 1,1 5,7 0,5 -1,0 -6,-7 -7,-9 -13,-12 -28,-15 -44,-21 -1,1 -4,0 -3,-2 -3,0 -5,0 -6,-2 -2,-1 -3,-1 -3,-2 -2,0 -5,-1 -4,-3l0 -1c7,-2 12,-6 15,-11l2 0z"/>
     <path class="fil14" d="M271 254c0,3 -1,4 -2,6 1,1 4,11 4,12 0,0 -1,1 -1,1 2,2 3,8 1,10 1,8 2,14 8,20 2,2 9,6 10,8 0,2 -2,1 -3,1 -2,0 -5,-4 -7,-3 -1,1 1,9 2,10 0,2 3,6 0,7 -2,-2 -3,-5 -4,-7 -1,0 0,1 0,2 0,2 1,6 0,7 -2,3 -3,-3 -3,-4 -1,-4 -2,-5 -1,-3l-1 1c0,2 0,4 0,6 -4,0 -2,-6 -3,-9l-1 7c-1,0 -2,0 -2,0 -1,0 0,-11 0,-13 0,-2 -1,-3 -1,-5 -1,-2 0,-5 0,-7 -1,-5 -6,-13 -8,-18 -1,-2 -2,-4 -3,-6 -3,-1 -5,-7 -5,-9l1 -2c-2,-1 -2,-5 -2,-7 1,-2 2,-7 4,-7 -1,-1 1,-4 2,-4 -1,-1 0,-2 1,-1l2 -1 12 7 0 1z"/>
     <path class="fil15" d="M252 39c3,-2 6,0 4,4 0,1 1,1 1,2 0,1 0,1 0,2 -7,42 -16,84 -26,126 2,0 3,0 3,2l0 1c-2,0 -4,0 -5,1 1,1 0,5 -2,5 1,6 -1,11 -4,16 0,6 -1,12 -5,17 2,2 1,5 -2,6l1 3c-1,3 -5,17 -7,18 0,1 0,1 -1,1 2,3 -1,10 -6,8 -1,1 -1,1 -1,-1 -3,-1 -1,-5 1,-6 3,-9 6,-19 9,-28 0,-5 1,-9 4,-12 -1,-4 0,-9 3,-12 -2,-1 -1,-2 1,-1 13,-50 23,-101 32,-152z"/>
     <path class="fil16" d="M318 25c1,2 7,8 8,8 3,1 5,0 4,-3 1,0 2,0 4,1 2,2 1,5 -2,6 0,2 -4,3 -5,1 -1,1 -2,2 -4,2 -7,3 -16,4 -23,4 0,1 -1,2 -3,2 -1,1 -1,2 -2,2 -1,0 -2,-1 -1,-1l-8 1c1,10 1,20 0,31l-1 0 -2 0 0 -30c0,0 -1,0 -1,0l0 20c0,1 -1,2 -2,2l-1 -1 -1 -22c-6,-2 -13,-4 -20,-6 0,1 -1,1 -2,1 1,-5 -1,-3 -4,-4 -2,0 -4,-4 -2,-6 1,0 2,0 3,0 4,7 7,-2 12,-4 4,-3 11,-4 16,-5l2 1c0,4 -1,3 -1,6l-1 2 -12 3 10 3 1 1c-1,4 4,6 6,0 2,-1 8,-3 10,-2 0,-1 1,-2 4,-2 0,-1 0,-2 1,-2 1,3 14,-1 15,-1 -4,-2 -9,-3 -13,-4l-1 -2c-1,1 -2,1 -3,1 0,3 -1,3 -2,3 -1,-1 -2,-1 -2,-2l-6 2 -1 -1c1,-3 1,-5 1,-7 1,-2 7,-4 8,-2 0,0 0,2 1,2 2,1 4,0 4,-2 0,-1 1,-1 1,-1 5,0 11,3 15,5z"/>
     <path class="fil17" d="M368 263l0 8 -85 15c0,-3 0,-6 0,-10l1 -1c12,-2 24,-4 36,-6 13,-3 27,-6 41,-8l4 0c1,0 2,1 3,2z"/>
     <path class="fil18" d="M341 341c1,0 1,-1 1,0l0 27 -25 7c0,1 -1,0 -1,0l-1 -1c0,-9 0,-18 1,-27l1 -1c0,0 0,-1 0,-1 5,-2 16,-4 20,-5l4 1z"/>
     <path class="fil19" d="M190 245c2,2 0,1 0,1 3,0 10,2 12,4 0,0 1,1 1,1 17,3 33,9 49,15 1,4 2,8 4,11 -11,-3 -22,-6 -32,-9 -8,-1 -16,-4 -23,-6 -3,-1 -6,-3 -9,-5 -1,0 -3,0 -4,-1 0,0 -1,0 -1,0 0,-3 -1,-10 1,-11 1,0 1,0 2,0z"/>
     <path class="fil15" d="M332 37l7 127c-2,-1 -5,-1 -6,-4l-1 -6c-2,-34 -4,-69 -5,-103 0,-2 0,-4 0,-6 0,-3 0,-5 0,-7 2,0 4,-1 5,-1z"/>
     <path class="fil20" d="M297 339c6,2 12,4 19,6l1 1 -1 29c-7,-1 -14,-5 -20,-6l-1 -29c0,-1 1,-1 2,-1z"/>
     <path class="fil21" d="M161 358c1,0 1,0 0,1 0,12 6,24 15,32 -7,0 -16,-1 -22,-5 -6,-6 -9,-19 -9,-28 5,0 11,0 16,0z"/>
     <path class="fil12" d="M86 347c-11,5 -12,17 -25,21 -1,0 -1,1 -1,-1 1,0 7,-7 6,-8 -3,1 -5,1 -7,1l2 -1c-12,0 -15,-12 -2,-16 7,-2 16,0 22,-5 1,2 3,7 5,9z"/>
     <path class="fil22" d="M380 375c-1,0 -1,0 -1,-1 -1,-9 -1,-20 0,-29 -1,-4 0,-8 1,-11l23 30c-7,3 -14,8 -21,10 -1,1 -1,1 -2,1z"/>
     <path class="fil23" d="M380 375c0,0 -1,1 -1,0l-20 -8 21 -33 0 41z"/>
     <path class="fil24" d="M352 257c1,-1 2,-1 2,0 2,0 3,1 5,2 2,0 4,1 6,2l-81 15c-2,1 0,8 -1,10 0,0 0,0 0,0 -1,0 -1,0 -2,-1l1 -8 -9 -2 -1 -2c-1,-4 -3,-10 -3,-13 2,-1 6,2 7,3l0 1c0,4 2,14 4,3l1 -1 2 0c20,5 46,5 61,-11l1 0 1 0c1,2 4,7 5,2l1 0z"/>
     <path class="fil25" d="M369 242c-3,6 -11,9 -17,12 0,2 0,2 -1,1 -1,2 -5,0 -5,-2l-1 -2c1,-6 0,-12 -3,-17l0 -2c0,-1 1,-2 3,-2l8 0c2,-1 3,-1 4,-1 1,1 5,6 6,7 3,3 3,1 6,6z"/>
     <path class="fil26" d="M209 384c11,-8 14,-21 9,-34 -2,-3 -4,-6 -5,-9 6,3 10,9 12,15l1 6c2,-8 3,-18 0,-26 9,10 10,21 3,32 -5,8 -12,12 -20,16z"/>
     <path class="fil27" d="M413 355c21,12 43,-12 29,-32 10,7 12,21 4,31 -8,11 -24,11 -33,1z"/>
     <path class="fil7" d="M350 212c1,3 1,6 3,8 1,2 4,5 5,6 0,2 -1,3 -1,3 -3,3 -8,1 -12,2 -1,0 -2,1 -3,1 0,1 -2,2 -4,1 -3,0 -7,0 -9,-2 -1,2 -2,2 -3,1 -1,0 -3,0 -4,0 -2,2 -3,-1 -1,-1 11,-1 18,-4 24,-13 0,-1 2,-5 2,-6 1,0 3,0 3,0z"/>
     <path class="fil28" d="M341 341l-24 5c-5,-1 -10,-3 -15,-4 -2,-1 -4,-1 -5,-3 4,-1 20,-4 24,-4 3,0 17,4 20,6z"/>
     <path class="fil29" d="M219 192c-1,4 -2,8 -3,12 -1,2 -2,3 -4,2 -5,-5 -12,-4 -18,-6 -3,-1 -10,-5 -6,-9l2 0c9,2 18,2 27,0l2 1z"/>
     <path class="fil30" d="M114 162c2,-2 6,0 8,2 2,-2 9,1 10,2l1 1c2,-1 5,0 5,2 2,1 3,1 4,3 1,2 1,3 0,4 -2,1 -4,3 -5,4l-2 0c-3,-4 -8,-7 -13,-9 -6,-1 -11,-1 -16,1l4 -10c1,-1 3,0 4,0z"/>
     <path class="fil31" d="M143 181c6,5 10,13 14,20 3,5 7,12 9,18 1,2 3,7 4,9 0,2 -1,2 -2,3 -2,1 -4,2 -6,3l0 -1c1,-19 -10,-35 -21,-49l0 -1c-2,-1 1,-3 2,-2z"/>
     <path class="fil6" d="M157 280c0,6 1,12 6,17 4,3 12,5 8,12 -1,0 -2,0 -3,0 -2,-2 -12,-9 -13,-10 0,0 -1,0 -1,0 -3,0 -3,-18 -3,-21l2 -1c1,1 3,2 4,3z"/>
     <path class="fil32" d="M134 75c20,4 29,21 26,41 -1,0 -1,-1 -1,-2 -5,-19 -9,-27 -26,-38 -1,-1 0,0 1,-1z"/>
     <path class="fil33" d="M220 191c-1,0 -1,1 -1,1 -10,2 -21,3 -31,-1 2,-1 4,-2 6,-2 8,-2 18,-2 26,2z"/>
     <path class="fil34" d="M106 73c-2,1 -4,0 -6,1 -8,1 -14,10 -12,17l3 9c-4,-3 -6,-4 -7,-9 -3,-12 10,-23 22,-18z"/>
     <path class="fil35" d="M118 154c6,6 12,9 20,5l0 4c0,3 -3,4 -5,4 -3,-1 -8,-2 -11,-3 -2,-1 -4,-4 -5,-7 -1,-1 -1,-4 1,-3z"/>
     <path class="fil19" d="M272 273c1,1 10,3 11,3 0,1 -1,9 0,10 -3,0 -7,-2 -10,-3 0,-3 -1,-7 -1,-10z"/>
     <path class="fil36" d="M142 172c0,1 0,2 0,2 2,2 12,-1 1,7 -1,1 -1,1 -2,2 0,2 0,2 -2,1 -1,1 -3,-2 -2,-4 -1,-5 6,-3 5,-8z"/>
     <path class="fil37" d="M112 76c1,0 2,0 1,1 -9,6 -16,12 -19,23 -1,0 0,-2 0,-2 2,-9 8,-18 16,-21 1,-1 2,-1 2,-1z"/>
     <path class="fil38" d="M203 244c0,2 -2,4 -1,6 -4,-1 -8,-2 -11,-3 -1,-1 -2,0 -1,-2 4,0 9,-1 13,-1z"/>
     <path class="fil39" d="M118 154c-2,0 -1,1 -1,2 2,3 4,5 5,8 -2,-1 -5,-1 -8,-2 1,-3 2,-7 1,-10 1,1 2,2 3,2z"/>
     <path class="fil40" d="M212 216l-2 -6c0,-1 2,-4 2,-4 1,-1 3,-2 4,-2 -1,4 -3,8 -4,12z"/>
     <path class="fil41" d="M138 163l0 6c-1,0 -4,-1 -5,-2l5 -4z"/>
     <path class="fil42" d="M276 324l-2 -2c0,-1 0,-2 0,-3 2,1 1,3 2,5z"/>
     <path class="fil43" d="M420 288l-1 0c0,-1 -2,-1 -1,-2 1,0 1,1 2,2z"/>
     <path class="fil44" d="M422 284l-1 1c0,-1 -1,-1 -1,-2 1,-1 1,0 2,1z"/>
     <path class="fil30" d="M153 277c0,6 -2,17 2,22 -2,0 -2,2 -3,3 -5,2 -20,0 -26,1 6,-11 12,-22 16,-34 3,3 7,6 11,8z"/>
     <path class="fil45" d="M190 324c0,1 0,2 -1,2 -5,3 -29,0 -36,-2 -2,0 -6,-1 -7,-2 -1,0 -2,0 -1,-1 0,-1 15,-2 18,-4 1,-1 0,-3 3,-2l24 9z"/>
     <path class="fil46" d="M161 358c0,0 1,-1 2,-1 6,0 12,0 17,0 -5,2 -14,7 -19,2l0 -1z"/>
     <path class="fil47" d="M124 282c2,2 -3,11 -4,12 -7,11 -19,13 -29,6 -6,-4 -1,-10 1,-15 1,-3 2,-6 3,-9 5,1 10,4 16,5 2,0 12,1 13,1z"/>
     <path class="fil30" d="M156 255c-4,-4 -5,-5 -9,-10l1 -12c0,-10 -1,-21 -3,-32 -1,-3 -2,-6 -1,-9 -1,-1 -1,-1 1,-1 2,0 10,14 11,16 8,16 6,31 2,47l-2 1z"/>
     <path class="fil48" d="M137 180c1,1 2,3 2,4 2,0 6,7 5,8 5,13 5,28 4,41l-7 -33 0 -9c0,0 -3,0 -3,0 -4,-8 -9,-15 -16,-20 6,1 11,5 15,9z"/>
     <path class="fil49" d="M298 231l1 2c-10,28 39,28 29,0l1 -2c4,0 9,2 13,1 4,6 6,14 4,21 1,1 1,2 -1,2 -1,3 -7,7 -9,8 -17,10 -37,8 -55,3l-1 -1 0 -14 2 -2c1,-4 7,-15 10,-17l2 -1c1,1 3,0 4,0z"/>
     <path class="fil13" d="M267 202c-1,4 -2,9 -1,14 1,3 2,4 5,4 0,1 0,2 -1,3l-7 11c-3,4 -5,8 -6,13 0,1 0,1 -1,1 0,0 -1,0 -2,0 0,0 -1,0 -1,-1 -7,-4 -14,-10 -20,-16 -5,-5 -11,-11 -15,-16 2,-6 4,-12 5,-17 4,-3 10,2 13,5 4,7 9,13 16,18l1 -1c2,1 3,2 5,2 -5,-7 -9,-14 -12,-22l1 -2c-2,-1 -1,-1 0,-1 0,-3 7,-6 10,-6 0,0 1,0 1,1 2,0 5,2 6,4 2,2 2,4 3,6z"/>
     <path class="fil15" d="M300 44l-14 125c-3,4 -5,10 -8,14 0,-3 0,-6 0,-9 2,-34 1,-69 2,-103 0,0 0,-1 0,-2 1,-8 0,-15 0,-22 2,1 3,1 5,0l0 32c2,20 1,41 -1,61 0,0 0,0 1,0l0 -4c2,-28 5,-56 9,-84l1 -4 1 -3c0,-1 3,-1 4,-1z"/>
     <path class="fil25" d="M271 220c1,0 2,0 3,0 0,0 0,4 3,4 2,10 1,21 -1,31 -1,2 -5,1 -5,-1 -1,0 -4,-2 -6,-3 -1,0 -7,-3 -8,-4 -2,-2 1,-7 2,-10 4,-6 8,-11 12,-17z"/>
     <path class="fil15" d="M282 225c2,8 2,16 0,24 -1,6 -1,12 -1,17 0,3 -1,9 -4,7 -2,-1 -2,-7 -1,-10 -2,-1 -2,-6 0,-8 1,-10 1,-21 1,-31 2,1 3,0 5,1z"/>
     <path class="fil50" d="M301 232c-6,13 9,24 20,17 6,-4 8,-11 5,-17 1,0 1,0 3,-1 3,8 3,15 -4,20 -14,12 -36,-2 -27,-20 1,1 2,1 3,1z"/>
     <path class="fil25" d="M294 231l-12 18c0,-8 0,-16 0,-24 4,1 3,4 5,5 1,1 5,1 7,1z"/>
     <path class="fil51" d="M289 210c0,0 1,1 1,2 -9,2 -9,-12 -1,-11 0,1 0,1 0,2 -3,1 -2,3 0,6 0,0 0,0 0,1z"/>
     <path class="fil52" d="M289 203c0,2 0,5 0,7 -2,0 -3,-2 -3,-4 0,0 -1,1 -1,-1 1,-2 3,-3 4,-2z"/>
     <path class="fil53" d="M315 189l4 2c-3,0 -6,-1 -8,1 0,1 0,3 -1,3 0,0 -1,0 -1,-1 0,-2 2,-4 4,-5 0,0 2,0 2,0z"/>
     <path class="fil54" d="M162 234c0,6 -2,14 -3,21 0,1 0,1 -1,1 -1,0 -1,0 -2,-1 1,-7 5,-14 5,-21 1,-17 -5,-28 -16,-41 0,0 -1,-2 -1,-1 -1,-2 -3,-6 -5,-8 1,0 1,0 2,-1 3,4 7,9 10,13 8,12 12,23 11,38z"/>
     <path class="fil55" d="M320 218c2,-1 8,0 8,3 -6,6 -12,4 -15,-3 1,-2 5,-1 7,0z"/>
     <path class="fil56" d="M332 214c0,1 0,1 -1,1 0,3 -7,4 -8,2l-8 0c-1,-1 -2,-2 -2,-3 0,0 0,0 0,-1 1,-1 3,0 4,0 5,0 10,1 15,1z"/>
     <path class="fil57" d="M321 231c0,1 -1,1 1,1 -2,1 0,4 -5,3 -3,0 -5,-2 -7,-4 4,-1 7,0 11,0z"/>
     <path class="fil58" d="M314 197c3,-1 4,9 0,9 -3,-1 -2,-8 0,-9z"/>
     <path class="fil59" d="M339 201c0,0 -1,0 -1,0 -1,3 2,1 2,1 1,5 -5,9 -5,2 0,-7 5,-4 4,-3z"/>
     <path class="fil60" d="M332 216c-1,2 -3,4 -4,5 -3,-1 -5,-3 -8,-3 0,-1 1,-2 3,-1 3,0 6,0 8,-2 1,0 1,0 1,1z"/>
     <path class="fil61" d="M353 206l-2 0c1,2 -1,4 -3,4 0,-2 0,-7 1,-7 2,-1 4,2 4,3z"/>
     <path class="fil62" d="M306 208c4,-1 8,2 4,2 -5,1 -9,-1 -4,-2z"/>
     <path class="fil63" d="M344 196c-3,0 -1,-3 -3,-4 -2,-1 -5,1 -5,0 -2,-2 6,-4 7,1 1,1 1,2 1,3z"/>
     <path class="fil64" d="M344 213c-2,2 -7,0 -7,-2 0,-2 7,0 7,2z"/>
     <path class="fil65" d="M323 217c-1,0 -3,0 -3,1 -2,-1 -5,0 -7,0 0,-1 0,-2 0,-3 0,-1 0,-1 0,-1 3,3 7,2 10,3z"/>
     <path class="fil66" d="M327 204c0,0 0,1 0,2 3,1 4,1 1,4 1,-3 -2,-3 -2,-5 -1,-1 0,-1 1,-1z"/>
     <path class="fil67" d="M313 213c1,1 0,1 0,1 0,0 0,1 0,1 0,-1 -1,-2 -1,-3 1,0 1,1 1,1z"/>
     <path class="fil68" d="M332 214c0,0 0,0 1,0 0,0 -1,2 -1,2l-1 -1c0,0 0,-1 1,-1z"/>
     <path class="fil69" d="M145 113c2,2 -1,3 -1,2l-22 -17c-3,6 -5,12 -9,17 -2,3 -5,7 -8,9 5,-10 13,-19 16,-30 8,6 15,16 24,19z"/>
     <path class="fil70" d="M154 118c-2,-1 -2,-1 -4,-2 -4,-1 -5,0 -8,1 0,-1 1,-2 2,-2 0,-1 1,0 1,-2 4,2 7,1 9,5z"/>
     <path class="fil71" d="M103 126c0,0 1,1 1,1 0,1 -1,1 -1,0 -1,0 -2,0 -2,0 -1,0 0,2 -2,1l3 -3c0,1 1,1 1,1z"/>
     <path class="fil72" d="M148 121c0,2 2,4 0,7 -4,6 -10,-9 0,-7z"/>
     <path class="fil73" d="M121 120c2,0 2,0 2,1 0,2 2,5 -1,7 -4,3 -7,-5 -3,-8 1,0 2,0 2,0z"/>
     <path class="fil74" d="M129 145c3,2 7,2 10,0 3,0 0,3 -1,3 -4,3 -10,1 -11,-3 -1,-2 1,0 2,0z"/>
     <path class="fil75" d="M113 115c0,0 4,-2 5,-2 2,-1 9,-1 9,3 -3,-1 -5,-3 -9,-2 -1,1 -8,4 -5,1z"/>
     <path class="fil76" d="M139 145c0,2 -3,2 -5,2 -2,0 -6,0 -5,-2 4,0 6,0 10,0z"/>
     <path class="fil77" d="M135 132c0,0 0,1 1,1 1,1 2,1 2,3 0,3 -3,3 -5,3 0,-1 2,-1 2,-2 0,-1 -2,-7 0,-5z"/>
     <path class="fil78" d="M103 127l1 0c1,1 3,6 0,6 -3,0 -1,-4 -1,-6z"/>
     <path class="fil79" d="M159 128l-4 -3c2,0 4,1 4,3z"/>
     <path class="fil80" d="M154 133c0,-1 0,-2 0,-3 1,-2 3,1 0,3z"/>
     <path class="fil81" d="M121 120c1,0 2,-1 3,-1 0,1 -1,2 -1,2l-2 -1z"/>
     <path class="fil82" d="M356 257c0,0 0,1 -2,0 0,0 -1,0 -2,0 -1,1 -3,-1 -1,-2 0,0 1,0 1,-1 1,2 2,2 4,3z"/>
     <path class="fil83" d="M359 259c-1,-1 -3,-1 -5,-2l2 0c1,0 2,1 3,2z"/>
     <path class="fil24" d="M238 241c0,0 1,0 2,0 4,2 10,6 13,9 1,0 1,1 1,2 -3,6 -3,7 -2,14 -16,-5 -33,-10 -49,-15 4,0 5,-5 6,-8l1 -1c8,-1 17,-2 25,-2l3 1z"/>
     <path class="fil27" d="M256 248c0,1 -1,3 -2,4 -5,-3 -11,-7 -16,-11 -1,-1 -2,-1 -2,-1 -4,-1 -17,-14 -19,-17 0,0 0,-1 -1,-2 1,-2 2,-4 2,-6 1,0 2,0 3,1 10,12 22,23 35,32z"/>
     <path class="fil84" d="M276 255c0,3 0,6 0,8 -3,0 -5,-2 -7,-3 0,-3 0,-4 2,-6 1,1 4,1 5,1z"/>
     <path class="fil29" d="M256 183c3,3 2,5 2,9 -1,0 -5,1 -6,2 -1,0 -4,2 -5,3 -3,-8 -14,-9 -20,-15 1,-2 1,-4 2,-5l2 -1c7,4 16,7 24,7l1 0z"/>
     <path class="fil33" d="M234 175c6,0 18,3 22,8 -3,2 -8,0 -11,0 -6,-2 -11,-4 -16,-6 1,-3 2,-2 5,-2z"/>
     <path class="fil85" d="M302 27c0,2 0,5 -1,7 0,1 -1,2 0,3 0,1 -4,1 -5,1 0,-2 1,-5 1,-7l0 -1c0,-4 2,-3 5,-3z"/>
     <path class="fil86" d="M294 41c-1,-2 1,-1 2,-2 7,-1 14,-3 21,-4 0,0 2,-1 2,0 0,2 -23,6 -25,6z"/>
     <path class="fil87" d="M276 41c-1,1 -1,1 -2,1 -3,0 -10,-3 -13,-4 -1,0 -1,1 -1,-1l16 4z"/>
     <path class="fil88" d="M318 27c0,1 -2,0 -2,0 -3,-1 -8,-2 -10,-4l12 4z"/>
     <path class="fil89" d="M351 255c0,0 0,1 1,2 -1,7 -6,3 -7,-2 0,0 1,-2 1,-2 1,1 4,1 5,2z"/>
     <path class="fil27" d="M247 198c3,9 8,17 13,25 -3,1 -6,-1 -8,-2 -3,-7 -12,-13 -7,-21 1,-1 1,-1 2,-2z"/>
     <path class="fil90" d="M285 140c0,1 0,4 -1,4l0 -4 1 0z"/>
     <path class="fil91" d="M145 125c-1,1 -2,-1 -1,-2 0,-1 2,1 1,2z"/>
     <path class="fil92" d="M121 124c-1,0 -3,0 -2,-1 1,-2 2,0 2,1z"/>
    </g>
   </g>
  </g>
  <path class="fil93" d="M52 0l340 0c29,0 52,23 52,52l0 290c0,28 -23,51 -52,51l-340 0c-29,0 -52,-23 -52,-51l0 -290c0,-29 23,-52 52,-52z"/>
 </g>
</svg>
