<?xml version="1.0" encoding="UTF-8"?>
<!DOCTYPE svg PUBLIC "-//W3C//DTD SVG 1.1//EN" "http://www.w3.org/Graphics/SVG/1.1/DTD/svg11.dtd">
<!-- Creator: CorelDRAW X7 -->
<svg xmlns="http://www.w3.org/2000/svg" xml:space="preserve" width="1.37168in" height="1.64365in" version="1.1" style="shape-rendering:geometricPrecision; text-rendering:geometricPrecision; image-rendering:optimizeQuality; fill-rule:evenodd; clip-rule:evenodd"
viewBox="0 0 308 369"
 xmlns:xlink="http://www.w3.org/1999/xlink">
 <defs>
  <style type="text/css">
   <![CDATA[
    .str0 {stroke:#FF3DD5;stroke-width:2.34094}
    .fil2 {fill:none}
    .fil59 {fill:#090705;fill-rule:nonzero}
    .fil58 {fill:#0E0C0A;fill-rule:nonzero}
    .fil32 {fill:#19191B;fill-rule:nonzero}
    .fil34 {fill:#1A191B;fill-rule:nonzero}
    .fil37 {fill:#1A1A1B;fill-rule:nonzero}
    .fil10 {fill:#312D2C;fill-rule:nonzero}
    .fil26 {fill:#346487;fill-rule:nonzero}
    .fil45 {fill:#346488;fill-rule:nonzero}
    .fil46 {fill:#356488;fill-rule:nonzero}
    .fil72 {fill:#482925;fill-rule:nonzero}
    .fil73 {fill:#492B26;fill-rule:nonzero}
    .fil81 {fill:#603D2F;fill-rule:nonzero}
    .fil5 {fill:#6084B1;fill-rule:nonzero}
    .fil27 {fill:#6AA6C5;fill-rule:nonzero}
    .fil53 {fill:#76421D;fill-rule:nonzero}
    .fil63 {fill:#794520;fill-rule:nonzero}
    .fil82 {fill:#7B7873;fill-rule:nonzero}
    .fil13 {fill:#7CB4D7;fill-rule:nonzero}
    .fil40 {fill:#7EB4D4;fill-rule:nonzero}
    .fil42 {fill:#8B7F76;fill-rule:nonzero}
    .fil18 {fill:#8BD291;fill-rule:nonzero}
    .fil4 {fill:#918374;fill-rule:nonzero}
    .fil60 {fill:#933C36;fill-rule:nonzero}
    .fil65 {fill:#933D36;fill-rule:nonzero}
    .fil20 {fill:#98DFA1;fill-rule:nonzero}
    .fil43 {fill:#99877C;fill-rule:nonzero}
    .fil83 {fill:#9A898A;fill-rule:nonzero}
    .fil70 {fill:#AA552F;fill-rule:nonzero}
    .fil44 {fill:#AA9282;fill-rule:nonzero}
    .fil28 {fill:#ABE4B1;fill-rule:nonzero}
    .fil75 {fill:#AF5A31;fill-rule:nonzero}
    .fil67 {fill:#B26854;fill-rule:nonzero}
    .fil74 {fill:#B53632;fill-rule:nonzero}
    .fil49 {fill:#B5C573;fill-rule:nonzero}
    .fil84 {fill:#B6C575;fill-rule:nonzero}
    .fil68 {fill:#B97766;fill-rule:nonzero}
    .fil90 {fill:#B9B397;fill-rule:nonzero}
    .fil19 {fill:#BA9CC8;fill-rule:nonzero}
    .fil36 {fill:#C3C1DF;fill-rule:nonzero}
    .fil3 {fill:#C59B6D;fill-rule:nonzero}
    .fil38 {fill:#C5A8D0;fill-rule:nonzero}
    .fil24 {fill:#C6A8D2;fill-rule:nonzero}
    .fil16 {fill:#CBCBCB;fill-rule:nonzero}
    .fil17 {fill:#CFB5D7;fill-rule:nonzero}
    .fil31 {fill:#D6E3F2;fill-rule:nonzero}
    .fil29 {fill:#D6E4F3;fill-rule:nonzero}
    .fil91 {fill:#DAD5D4;fill-rule:nonzero}
    .fil54 {fill:#DDEAFA;fill-rule:nonzero}
    .fil66 {fill:#DEA673;fill-rule:nonzero}
    .fil30 {fill:#DEDBEE;fill-rule:nonzero}
    .fil25 {fill:#DEE7A9;fill-rule:nonzero}
    .fil6 {fill:#DEEBFC;fill-rule:nonzero}
    .fil71 {fill:#E38959;fill-rule:nonzero}
    .fil69 {fill:#E77F51;fill-rule:nonzero}
    .fil35 {fill:#EA8052;fill-rule:nonzero}
    .fil92 {fill:#EAE6E6;fill-rule:nonzero}
    .fil78 {fill:#EB8555;fill-rule:nonzero}
    .fil77 {fill:#EB8756;fill-rule:nonzero}
    .fil88 {fill:#EBEBEB;fill-rule:nonzero}
    .fil79 {fill:#EE935F;fill-rule:nonzero}
    .fil12 {fill:#EEAE75;fill-rule:nonzero}
    .fil80 {fill:#EF9560;fill-rule:nonzero}
    .fil48 {fill:#EFF6FE;fill-rule:nonzero}
    .fil47 {fill:#EFF7FE;fill-rule:nonzero}
    .fil33 {fill:#F0F0F0;fill-rule:nonzero}
    .fil41 {fill:#F3B77A;fill-rule:nonzero}
    .fil87 {fill:whitesmoke;fill-rule:nonzero}
    .fil39 {fill:#F8BB7C;fill-rule:nonzero}
    .fil86 {fill:#F8F8F8;fill-rule:nonzero}
    .fil76 {fill:#F9F0F0;fill-rule:nonzero}
    .fil11 {fill:#FABD7C;fill-rule:nonzero}
    .fil8 {fill:#FABD7D;fill-rule:nonzero}
    .fil55 {fill:#FB827C;fill-rule:nonzero}
    .fil23 {fill:#FB828B;fill-rule:nonzero}
    .fil7 {fill:#FBAF5E;fill-rule:nonzero}
    .fil56 {fill:#FBFBFB;fill-rule:nonzero}
    .fil52 {fill:#FCAE78;fill-rule:nonzero}
    .fil61 {fill:#FCAF79;fill-rule:nonzero}
    .fil85 {fill:#FCF1BE;fill-rule:nonzero}
    .fil89 {fill:#FCF1BF;fill-rule:nonzero}
    .fil57 {fill:#FDAF79;fill-rule:nonzero}
    .fil51 {fill:#FDC48E;fill-rule:nonzero}
    .fil50 {fill:#FDFDFD;fill-rule:nonzero}
    .fil21 {fill:#FDFDFE;fill-rule:nonzero}
    .fil22 {fill:#FE6C71;fill-rule:nonzero}
    .fil64 {fill:#FEB995;fill-rule:nonzero}
    .fil62 {fill:#FEB996;fill-rule:nonzero}
    .fil9 {fill:#FEC691;fill-rule:nonzero}
    .fil14 {fill:#FEC9A5;fill-rule:nonzero}
    .fil15 {fill:#FEF3BF;fill-rule:nonzero}
    .fil0 {fill:url(#id1)}
    .fil1 {fill:url(#id2)}
    .fil93 {fill:url(#id3);fill-rule:nonzero}
   ]]>
  </style>
   <clipPath id="id0">
    <path d="M36 0l236 0c20,0 36,16 36,36l0 298c0,19 -16,35 -36,35l-236 0c-20,0 -36,-16 -36,-35l0 -298c0,-20 16,-36 36,-36z"/>
   </clipPath>
  <linearGradient id="id1" gradientUnits="userSpaceOnUse" x1="76.2882" y1="299.715" x2="232.067" y2="69.7804">
   <stop offset="0" style="stop-opacity:1; stop-color:#5200B0"/>
   <stop offset="1" style="stop-opacity:1; stop-color:#EB00A1"/>
  </linearGradient>
  <linearGradient id="id2" gradientUnits="userSpaceOnUse" x1="84.4412" y1="460.112" x2="247.138" y2="219.966">
   <stop offset="0" style="stop-opacity:1; stop-color:#6200D1"/>
   <stop offset="1" style="stop-opacity:1; stop-color:#FF2EBD"/>
  </linearGradient>
  <linearGradient id="id3" gradientUnits="objectBoundingBox" x1="40.9917%" y1="146.927%" x2="59.0086%" y2="0%">
   <stop offset="0" style="stop-opacity:1; stop-color:#B940FF"/>
   <stop offset="1" style="stop-opacity:1; stop-color:#FF87EF"/>
  </linearGradient>
 </defs>
 <g id="Layer_x0020_1">
  <metadata id="CorelCorpID_0Corel-Layer"/>
  <path class="fil0" d="M36 0l236 0c20,0 36,16 36,36l0 298c0,19 -16,35 -36,35l-236 0c-20,0 -36,-16 -36,-35l0 -298c0,-20 16,-36 36,-36z"/>
  <g style="clip-path:url(#id0)">
   <g id="_2278740690256">
    <circle class="fil1" cx="166" cy="340" r="180"/>
    <circle class="fil2 str0" cx="220" cy="322" r="207"/>
    <g>
     <path class="fil3" d="M210 99c1,0 2,1 2,1 4,4 13,14 17,17 3,2 0,4 -3,3 -1,0 -5,-4 -5,-5l0 -1 -3 -2c-3,-3 -6,-6 -9,-9 1,2 1,5 2,7l-1 1c2,2 -5,3 -4,0l-1 -1c0,-2 -1,-4 -1,-6l-2 7 -1 1c1,1 1,4 -1,5 1,2 0,6 -1,7 1,1 -1,4 -3,4 -1,0 -3,-3 -2,-4 0,0 1,-5 1,-5l1 -1c-1,0 -1,0 -1,0 0,0 1,-5 1,-5 0,0 0,0 1,-1l2 -9 -12 12 -3 1c0,2 -3,4 -4,5 -2,2 -5,1 -4,-2 5,-4 19,-19 24,-25 1,0 1,-1 1,-1 0,0 1,-1 2,-1 1,0 6,5 7,7z"/>
     <path class="fil4" d="M212 100l0 0c-1,0 -1,-1 -2,-1 1,0 2,1 2,1z"/>
     <path class="fil5" d="M108 304l1 0 7 5c1,1 2,1 3,2 3,2 5,4 9,5 8,3 24,5 29,14 3,3 3,13 1,17 -1,1 -1,1 -2,0 -1,-4 -2,-8 -6,-11 6,9 5,22 -5,27 -7,3 -15,5 -23,5 -4,-1 -6,-6 -8,-10 -1,-2 -4,-10 -3,-12 1,0 1,0 1,-1 1,1 1,0 0,0 -3,1 -8,1 -11,0l-1 1c-11,1 -27,2 -36,-4 -2,-1 -5,-3 -4,-5 -2,0 -5,-5 -4,-6 -1,-4 0,-10 0,-14l1 0c5,0 9,0 13,-1 4,-1 6,0 10,1 2,-3 5,-7 6,-10l1 -1 1 -1c6,1 12,1 17,0 1,-2 2,-2 3,-1z"/>
     <path class="fil6" d="M85 215c5,2 9,8 11,13 1,0 2,0 2,1 1,1 1,6 0,6 0,0 1,0 1,1 2,7 3,15 4,22 0,0 1,1 1,1 0,0 -1,6 -1,7 0,0 0,0 -1,0l-1 -1c-2,-3 -4,-6 -5,-9l-11 6c3,7 7,14 13,20l1 1c0,1 0,1 0,1 0,1 0,1 0,1 -1,3 -2,6 -4,9 -1,2 -5,11 -7,12 0,0 0,0 -1,0 -1,2 -5,11 -7,12 -2,0 -3,-1 -5,-2 -6,0 -11,4 -19,1 -2,0 -9,-4 -9,-7 0,-1 4,-5 5,-6 5,-7 11,-21 12,-30 1,-9 -2,-18 -3,-27 0,-10 1,-27 12,-31 2,-3 9,-3 11,-2l1 1z"/>
     <path class="fil7" d="M199 214c3,-6 11,-8 17,-8 2,-1 14,0 15,2 1,0 -1,1 1,0 1,0 3,1 3,2 8,4 10,9 9,18 0,3 -2,5 -1,8 -1,1 -2,0 -2,-2 -1,-5 -5,-10 -10,-13 -2,5 -8,7 -12,6 0,1 -1,2 -2,1 -2,0 -3,0 -5,0 -4,5 -5,10 -5,16 0,6 0,9 6,11 3,3 -2,5 -4,2 0,2 -1,1 -2,0 0,1 -3,1 -3,0 -4,2 -7,-1 -8,-5 -1,1 -3,1 -3,0 -2,1 -3,-1 -3,-2 -1,0 -2,0 -2,-1 -5,2 -5,-6 -4,-10 0,-1 1,-2 2,-2 -1,-1 -1,-2 -1,-2 1,-3 6,-10 7,-12l1 0c1,-3 3,-6 5,-9l1 0z"/>
     <path class="fil8" d="M102 266l1 0c2,3 3,5 5,6l1 1c0,0 1,0 1,1 0,0 1,1 1,1l2 0c8,5 16,9 23,14 2,0 3,1 4,2 1,0 3,0 4,0 1,0 1,0 2,0 5,-1 12,-1 17,0 2,0 3,4 -1,4l-6 0c0,0 -2,0 -1,1 0,0 7,4 8,5 2,1 9,6 6,8 0,0 -1,0 -1,0 0,1 1,2 1,3 0,2 -2,1 -4,1 -1,1 -4,2 -6,2 -2,0 -4,-3 -6,-4 -1,-1 -3,-1 -4,-2 -6,-2 -8,-8 -14,-10 -8,-4 -17,-4 -26,-8 -1,1 -3,-1 -3,-2l-1 0c-2,-1 -4,-3 -7,-5l1 -1c-7,-5 -12,-14 -15,-22l12 -6c2,4 4,8 6,11z"/>
     <path class="fil9" d="M243 236c1,0 1,0 2,1 3,2 1,6 -2,7 0,0 0,1 -1,1 -3,7 -11,13 -19,12 0,0 0,1 1,0 0,0 2,0 3,0 2,1 2,5 1,7 -2,10 -18,10 -20,0 -1,-2 -1,-6 1,-7 1,1 3,1 4,1 0,-1 0,-2 0,-2 0,-1 -5,-2 -5,-4 -2,-3 -2,-11 -1,-15 0,-2 3,-9 4,-9 1,-1 5,-1 6,0 -1,1 2,0 2,-1 4,-1 10,-2 12,-7 4,2 9,7 10,11 1,2 0,4 2,5z"/>
     <path class="fil10" d="M77 149c-1,2 2,0 1,0 6,-2 9,-1 15,0 11,5 17,17 18,28 0,0 1,1 0,2 0,0 -1,-1 -2,-1 0,2 -2,1 -2,0 -2,-1 -4,-2 -6,-2l0 -1 -1 0c-5,-3 -10,-7 -15,-12 -3,7 -7,13 -12,20 1,1 0,1 -1,1 -1,0 -1,0 -1,-1 -1,1 -3,-1 -2,-2 -2,-2 -4,-6 -4,-9 -1,-1 0,-4 0,-6 -1,0 -2,0 -2,-1 -7,-7 0,-20 10,-18 2,0 3,1 4,2z"/>
     <path class="fil11" d="M100 176l0 0c2,-1 5,1 7,2 1,0 2,0 2,0 -1,4 0,2 1,3 3,1 2,8 -1,9 -1,0 -2,0 -3,0 0,1 0,4 0,5 -1,4 -6,9 -10,11 0,2 -3,2 -5,3 -3,0 -8,-2 -9,-6 -1,1 -2,0 -2,-1 -1,-2 -3,-3 -4,-5 0,-1 -2,-6 -2,-6 0,-1 -2,-1 -3,-1 -3,-1 -6,-7 -2,-9 0,1 1,2 2,2 0,1 0,1 1,2 0,2 0,2 0,0 0,-1 -1,-1 0,-1 0,-1 1,-1 1,-1l5 -7c0,0 0,0 0,0 1,1 1,1 0,0 0,0 0,0 0,-1 0,0 6,-11 7,-11 0,0 0,0 0,0 5,4 10,7 15,11l0 1z"/>
     <path class="fil8" d="M101 345l0 1c1,6 2,12 6,17l0 1c-7,-1 -14,-3 -22,-5 -9,-1 -14,-2 -24,-1 -7,0 -23,1 -28,-2 -3,-2 -3,-6 0,-8 3,-2 5,-2 8,-2 1,0 4,-1 5,-1 1,1 0,2 0,3 -3,3 -3,3 1,1 3,-4 6,-7 9,-11 1,-1 2,-1 4,-1 9,12 27,9 41,8z"/>
     <path class="fil12" d="M130 274c1,-1 1,-1 1,0 1,1 1,1 2,1 6,3 12,6 19,7l3 0c8,1 16,4 23,7 1,0 3,3 2,4 -4,0 -7,2 -11,2 -5,0 -9,0 -13,0 3,-1 6,0 8,-2 1,0 -1,-1 -1,-2 -6,0 -13,1 -19,0 -1,0 -3,0 -4,0 -6,-1 -13,-7 -18,-10 -4,-2 -8,-3 -11,-6 0,0 -1,-1 -1,-2 0,0 0,0 0,0 -1,-1 2,-12 2,-14 0,0 1,0 1,0 0,-2 2,-3 4,-2 0,4 2,8 5,12 2,2 5,3 8,5z"/>
     <path class="fil13" d="M307 321c12,12 -6,33 -20,22 -12,-13 5,-33 20,-22z"/>
     <path class="fil14" d="M256 264c1,1 6,4 7,4 5,4 14,12 20,12 2,0 12,-2 13,-1 3,2 -7,2 -6,5 0,1 9,5 10,6 1,2 0,2 -2,2 -1,-1 -3,-2 -5,-3 0,1 1,1 1,2 1,1 5,4 5,5 0,2 -5,-2 -6,-3 0,0 -1,0 0,1 0,0 3,4 3,4 0,2 -4,-1 -4,-2 -1,0 -1,0 -1,0 0,1 3,5 0,4 0,0 -4,-5 -5,-6 -9,-9 -19,-11 -30,-15 -1,1 -3,0 -3,-1 -2,0 -3,-1 -4,-2 -1,0 -1,-1 -2,-1 -1,0 -3,-1 -2,-2l0 -1c4,-2 8,-4 10,-8l1 0z"/>
     <path class="fil14" d="M189 273c-1,1 -1,3 -2,4 1,0 3,8 3,8 0,0 -1,1 -1,1 1,1 2,5 1,7 1,5 1,9 5,13 1,2 6,5 7,7 0,1 -1,0 -2,0 -1,0 -3,-3 -5,-2 -1,1 1,6 1,7 1,1 3,4 1,5 -2,-2 -2,-4 -3,-5 -1,0 0,1 0,1 0,2 0,4 0,5 -2,2 -2,-2 -3,-3 0,-2 0,-3 0,-2l0 1c-1,1 -1,3 -1,4 -3,0 -1,-4 -1,-6l-2 5c0,0 -1,0 -1,0 0,-1 0,-8 0,-9 0,-1 -1,-3 -1,-4 0,-1 1,-3 0,-5 0,-3 -3,-9 -5,-12 0,-1 -2,-3 -2,-4 -2,-1 -4,-5 -4,-7l1 -1c-1,0 -1,-3 -1,-5 0,-1 1,-5 3,-5 -1,-1 0,-3 1,-2 -1,-1 0,-2 1,-1l1 -1 8 5 1 1z"/>
     <path class="fil15" d="M175 123c2,-1 5,0 3,3 0,0 0,1 0,1 0,1 0,1 0,2 -5,29 -11,58 -18,87 2,0 3,1 3,2l-1 0c-1,0 -2,1 -3,1 1,1 0,4 -1,4 0,4 -1,7 -3,11 0,4 -1,8 -3,11 1,2 0,4 -2,5l1 2c-1,2 -4,12 -5,12 0,1 0,1 -1,1 1,2 -1,7 -4,5 -1,1 -1,1 -1,0 -1,-1 0,-4 1,-4 2,-7 4,-13 6,-20 0,-3 1,-6 3,-8 -1,-3 0,-6 2,-8 -1,-1 -1,-1 1,-1 9,-35 16,-70 22,-106z"/>
     <path class="fil16" d="M221 114c1,1 5,5 6,5 2,1 3,0 2,-2 1,0 2,0 3,1 2,1 1,3 -1,4 0,1 -3,2 -4,1 0,0 -1,1 -2,1 -5,2 -11,3 -16,3 -1,1 -1,1 -3,1 0,1 0,1 -1,1 -1,0 -1,0 -1,0l-5 1c0,6 0,14 0,21l-1 0 -1 0 0 -21c0,0 -1,0 -1,0l0 14c0,1 -1,1 -2,1l0 0 -1 -15c-4,-2 -9,-3 -14,-5 0,1 0,1 -1,1 1,-3 -1,-2 -3,-3 -1,0 -2,-3 -1,-4 1,0 1,0 2,0 2,5 5,-1 8,-3 3,-2 8,-3 11,-3l1 0c1,4 0,3 0,5l-1 1 -8 2 7 2 0 1c0,2 3,4 5,0 1,-1 5,-2 7,-1 0,-1 1,-2 2,-1 0,-1 0,-2 1,-2 1,2 10,-1 10,-1 -3,-1 -6,-2 -9,-3l0 -1c-1,1 -1,1 -3,1 0,1 0,2 -1,2 0,-1 -1,-1 -1,-2l-4 1 -1 0c1,-2 1,-3 1,-5 1,-1 5,-3 5,-1 0,0 1,1 1,1 1,1 3,0 3,-1 0,-1 0,-1 0,-1 4,0 8,2 11,4z"/>
     <path class="fil17" d="M256 279l0 6 -59 10c0,-2 0,-5 0,-7l0 -1c9,-1 17,-3 25,-4 10,-2 19,-4 29,-6l2 1c1,0 2,1 3,1z"/>
     <path class="fil18" d="M237 333c0,0 1,0 1,0l0 19 -18 5c0,0 0,0 0,0l-1 -1c0,-6 0,-13 0,-19l1 0c0,-1 0,-1 0,-1 4,-1 11,-3 14,-3l3 0z"/>
     <path class="fil19" d="M132 267c1,1 0,0 0,0 2,0 7,1 8,3 1,0 1,0 1,0 12,3 23,7 34,11 0,2 2,6 3,8 -8,-2 -15,-4 -23,-7 -5,0 -10,-2 -15,-4 -2,-1 -5,-2 -7,-3 -1,0 -1,0 -2,-1 -1,0 -1,0 -1,0 0,-2 -1,-7 1,-7 0,0 1,0 1,0z"/>
     <path class="fil15" d="M231 122l4 88c-1,-1 -3,0 -3,-2l-1 -5c-2,-24 -3,-47 -4,-71 0,-2 0,-3 0,-5 0,-1 0,-3 0,-4 1,-1 3,-1 4,-1z"/>
     <path class="fil20" d="M206 332c5,1 9,2 13,4l1 1 0 20c-5,-1 -10,-4 -15,-5l0 -20c0,0 1,0 1,0z"/>
     <path class="fil21" d="M112 345c0,0 0,0 0,0 0,9 4,17 10,23 -5,0 -11,-1 -15,-4 -4,-4 -7,-13 -6,-19 3,0 7,0 11,0z"/>
     <path class="fil12" d="M60 337c-8,4 -9,12 -18,15 0,0 -1,1 0,-1 0,0 4,-5 4,-5 -2,0 -4,0 -5,0l1 -1c-8,1 -10,-8 -1,-10 5,-2 11,0 15,-4 1,1 3,5 4,6z"/>
     <path class="fil22" d="M264 357c0,0 -1,0 -1,-1 0,-6 0,-14 0,-20 0,-3 0,-5 1,-8l16 21c-5,2 -10,6 -15,7 0,1 -1,1 -1,1z"/>
     <path class="fil23" d="M264 357c0,0 0,0 -1,0l-13 -6 14 -23 0 29z"/>
     <path class="fil24" d="M245 275c0,-1 1,-1 1,0 1,0 2,0 3,1 2,0 3,1 4,2l-55 10c-2,1 -1,6 -1,7 0,0 0,0 -1,0 0,0 0,0 0,-1l0 -5 -7 -2 0 -1c0,-3 -2,-7 -2,-9 1,-1 4,1 4,2l1 0c0,3 1,11 2,3l1 -1 2 0c14,3 32,4 42,-8l1 0 1 0c0,2 2,5 3,2l1 0z"/>
     <path class="fil25" d="M256 264c-2,4 -7,7 -11,9 0,1 -1,1 -1,0 -1,1 -4,0 -4,-1l0 -1c1,-4 0,-9 -2,-12l0 -2c-1,0 0,-1 1,-1l6 0c1,-1 2,-1 3,-1 0,1 4,5 4,5 3,2 2,1 4,4z"/>
     <path class="fil26" d="M145 363c8,-6 10,-15 6,-24 -1,-2 -2,-4 -3,-6 4,2 7,6 8,11l1 3c2,-5 2,-12 0,-17 6,7 7,14 2,22 -3,5 -9,9 -14,11z"/>
     <path class="fil27" d="M287 343c15,8 30,-9 20,-22 7,5 9,15 3,21 -6,8 -17,8 -23,1z"/>
     <path class="fil7" d="M243 244c1,1 1,3 2,5 1,1 3,3 4,4 0,1 -1,2 -1,2 -2,2 -5,1 -8,2 -1,0 -2,0 -2,0 -1,1 -2,2 -3,1 -2,0 -5,0 -7,-1 0,1 -1,1 -1,0 -1,1 -3,0 -3,0 -2,2 -2,0 -1,0 8,-1 13,-3 17,-9 0,-1 1,-4 1,-4 1,-1 2,0 2,0z"/>
     <path class="fil28" d="M237 333l-17 4c-3,-1 -7,-2 -10,-3 -1,-1 -3,-1 -4,-2 3,-1 14,-3 17,-3 2,0 12,3 14,4z"/>
     <path class="fil29" d="M152 230c-1,2 -1,5 -2,8 -1,1 -2,2 -3,1 -3,-3 -8,-3 -12,-4 -2,-1 -7,-3 -4,-6l1 0c6,1 13,1 19,0l1 1z"/>
     <path class="fil30" d="M79 209c2,-1 5,0 6,1 1,-1 6,1 7,1l0 1c2,0 4,0 4,2 1,0 2,1 3,2 0,1 0,2 -1,2 -1,1 -2,2 -3,3l-1 0c-3,-2 -6,-4 -9,-6 -4,-1 -8,-1 -12,1l3 -7c1,-1 2,0 3,0z"/>
     <path class="fil31" d="M99 222c5,4 8,9 10,14 2,4 5,8 7,13 0,1 2,4 2,5 0,2 -1,2 -1,3 -1,0 -3,1 -4,2l-1 -1c1,-13 -6,-24 -14,-34l0 0c-1,-2 0,-3 1,-2z"/>
     <path class="fil6" d="M109 291c0,4 1,8 4,11 3,3 9,4 6,9 -1,0 -2,0 -2,0 -2,-1 -9,-6 -9,-7 0,0 -1,0 -1,0 -2,0 -2,-12 -2,-15l1 0c1,0 2,1 3,2z"/>
     <path class="fil32" d="M93 149c14,2 20,14 18,28 -1,0 0,-1 0,-2 -4,-13 -7,-18 -18,-26 -1,-1 -1,0 0,0z"/>
     <path class="fil33" d="M153 229c-1,0 -1,0 -1,1 -7,1 -15,2 -21,-1 1,-1 2,-1 4,-2 6,-1 12,-1 18,2z"/>
     <path class="fil34" d="M73 147c-1,1 -2,0 -4,1 -5,1 -9,7 -8,12l2 5c-2,-1 -4,-2 -5,-5 -2,-9 7,-16 15,-13z"/>
     <path class="fil35" d="M82 203c4,4 8,6 14,3l0 4c0,1 -2,3 -4,2 -2,0 -5,-1 -7,-2 -2,-1 -3,-3 -4,-5 0,-1 -1,-3 1,-2z"/>
     <path class="fil19" d="M189 286c1,0 7,2 7,2 1,0 0,6 0,7 -2,0 -4,-2 -6,-2 -1,-2 -1,-5 -1,-7z"/>
     <path class="fil36" d="M99 216c0,0 0,1 0,1 1,1 8,-1 0,5 0,1 0,1 -1,2 0,1 0,1 -1,0 -1,1 -3,-2 -2,-3 0,-3 4,-2 4,-5z"/>
     <path class="fil37" d="M78 149c1,0 1,0 0,1 -6,4 -10,8 -13,15 0,0 0,0 0,-1 2,-6 6,-12 12,-15 0,0 1,0 1,0z"/>
     <path class="fil38" d="M141 266c0,1 -1,3 -1,4 -2,-1 -5,-1 -7,-2 -1,-1 -2,0 -1,-1 3,-1 6,-1 9,-1z"/>
     <path class="fil39" d="M82 203c-2,0 -1,1 -1,1 2,2 3,4 4,6 -2,0 -4,-1 -6,-1 1,-2 2,-5 1,-7 0,0 1,1 2,1z"/>
     <path class="fil40" d="M147 246l-1 -4c0,0 1,-3 1,-3 1,0 3,-1 3,-1 -1,3 -2,5 -3,8z"/>
     <path class="fil41" d="M96 210l0 4c-1,-1 -3,-1 -4,-2l4 -2z"/>
     <path class="fil42" d="M191 321l0 -1c0,-1 0,-1 0,-2 1,0 0,2 0,3z"/>
     <path class="fil43" d="M292 296l-1 0c0,0 -1,0 -1,-1 1,0 1,1 2,1z"/>
     <path class="fil44" d="M293 293l0 1c-1,0 -1,-1 -1,-1 0,-1 1,0 1,0z"/>
     <path class="fil30" d="M106 289c0,4 -1,11 2,15 -1,0 -1,1 -2,2 -4,2 -15,0 -19,0 4,-7 9,-14 12,-23 1,2 5,5 7,6z"/>
     <path class="fil45" d="M132 322c0,0 0,0 -1,1 -3,2 -20,-1 -25,-2 -1,0 -4,0 -5,-1 0,0 -1,0 0,-1 0,0 10,-1 12,-3 1,0 0,-1 2,-1l17 7z"/>
     <path class="fil46" d="M112 345c0,0 1,0 1,0 4,-1 8,-1 12,-1 -3,2 -10,5 -13,1l0 0z"/>
     <path class="fil47" d="M86 292c1,1 -2,7 -3,9 -4,7 -13,9 -20,4 -4,-3 0,-7 1,-11 1,-2 2,-4 2,-6 4,1 7,3 11,3 1,1 9,1 9,1z"/>
     <path class="fil30" d="M109 273c-4,-2 -4,-3 -7,-7l1 -8c0,-7 -1,-15 -2,-22 -1,-2 -1,-4 -1,-6 0,-1 0,-1 0,-1 2,0 8,9 9,11 5,11 4,21 1,32l-1 1z"/>
     <path class="fil48" d="M95 221c1,1 1,2 2,3 1,0 4,5 3,6 3,9 3,19 3,28l-5 -23 0 -6c0,0 -2,0 -2,0 -3,-6 -6,-11 -11,-14 4,1 8,3 10,6z"/>
     <path class="fil49" d="M207 257l1 1c-7,19 27,20 20,0l0 -1c3,0 7,1 10,0 3,4 4,10 2,15 1,1 1,1 0,1 -1,2 -5,5 -7,6 -12,7 -25,6 -38,2l-1 -1 1 -10 1 -1c1,-2 5,-10 7,-12l1 0c1,0 2,0 3,0z"/>
     <path class="fil13" d="M186 237c-1,3 -2,6 -1,9 0,3 1,3 3,3 0,1 0,1 0,2l-5 8c-3,3 -4,6 -4,9 0,0 -1,0 -1,1 0,0 -1,0 -1,0 -1,-1 -1,-1 -1,-1 -5,-3 -10,-7 -14,-11 -3,-4 -8,-8 -10,-12 1,-4 2,-8 3,-11 3,-2 7,1 9,4 3,4 7,8 11,12l1 -1c1,1 2,1 3,1 -3,-4 -6,-9 -8,-15l0 -1c-1,-1 0,-1 1,-1 -1,-2 5,-4 7,-4 0,0 0,0 0,0 2,0 4,2 4,3 2,2 2,3 3,5z"/>
     <path class="fil15" d="M209 127l-10 87c-2,3 -4,6 -6,9 0,-2 0,-4 0,-6 1,-24 1,-48 1,-72 0,0 1,0 1,-1 0,-5 0,-10 0,-15 1,1 2,1 3,0l0 22c1,14 1,28 -1,42 0,1 1,1 1,0l0 -2c1,-20 3,-39 6,-59l1 -3 0 -2c1,0 3,0 4,0z"/>
     <path class="fil25" d="M188 249c1,0 2,0 2,0 0,0 1,3 3,3 1,7 0,15 -1,21 -1,2 -3,1 -3,0 -1,0 -4,-2 -5,-2 -1,-1 -5,-3 -5,-3 -2,-2 0,-5 1,-7 3,-4 6,-8 8,-12z"/>
     <path class="fil15" d="M196 252c1,6 1,12 0,17 -1,4 0,9 -1,12 0,2 0,6 -3,5 -1,-1 -1,-5 -1,-7 -1,-1 0,-4 1,-6 0,-7 0,-14 1,-21 1,0 1,0 3,0z"/>
     <path class="fil50" d="M209 257c-4,10 6,17 14,12 4,-2 6,-8 4,-12 0,0 1,0 1,0 3,5 2,10 -2,14 -10,8 -25,-2 -19,-14 1,0 2,0 2,0z"/>
     <path class="fil25" d="M204 257l-8 12c0,-5 0,-11 0,-17 3,1 2,3 3,4 1,1 4,1 5,1z"/>
     <path class="fil51" d="M201 242c0,0 1,1 0,2 -5,1 -6,-9 0,-8 0,0 0,1 0,1 -2,1 -2,2 0,4 0,0 0,1 0,1z"/>
     <path class="fil52" d="M201 237c0,2 0,4 0,5 -2,0 -2,-2 -2,-3 0,0 -1,1 -1,0 0,-1 2,-2 3,-2z"/>
     <path class="fil53" d="M219 227l3 2c-2,0 -4,-1 -6,1 0,0 0,1 0,2 -1,0 -1,0 -1,-1 0,-2 1,-3 2,-3 1,0 2,-1 2,-1z"/>
     <path class="fil54" d="M113 259c-1,4 -2,10 -3,14 1,1 1,1 0,1 -1,0 -1,0 -1,-1 0,-5 3,-9 3,-14 1,-12 -4,-20 -11,-28 0,-1 -1,-2 -1,-1 -1,-2 -2,-5 -3,-6 0,0 0,0 1,0 2,2 5,5 7,8 6,9 8,16 8,27z"/>
     <path class="fil55" d="M222 247c2,0 6,1 6,3 -4,4 -8,2 -10,-3 0,-1 3,0 4,0z"/>
     <path class="fil56" d="M230 245c1,0 1,1 0,1 0,2 -5,3 -5,1l-6 0c-1,-1 -1,-1 -1,-2 -1,0 -1,0 0,-1 0,0 1,0 2,0 4,0 7,1 10,1z"/>
     <path class="fil57" d="M223 257c0,0 0,1 1,0 -1,1 0,3 -4,3 -2,-1 -3,-2 -5,-4 3,0 6,1 8,1z"/>
     <path class="fil58" d="M218 233c2,0 3,6 0,6 -2,0 -1,-5 0,-6z"/>
     <path class="fil59" d="M236 236c0,0 -1,0 -1,0 -1,2 1,0 1,1 1,3 -3,6 -3,1 0,-5 3,-3 3,-2z"/>
     <path class="fil60" d="M230 247c0,1 -1,2 -2,3 -2,-1 -3,-2 -6,-3 0,0 1,0 3,0 1,0 3,0 5,-1 1,-1 1,0 0,1z"/>
     <path class="fil61" d="M245 239l-1 0c1,1 -1,3 -2,3 0,-1 0,-5 1,-5 1,0 3,2 2,2z"/>
     <path class="fil62" d="M213 240c2,0 5,2 2,2 -3,1 -6,-1 -2,-2z"/>
     <path class="fil63" d="M239 232c-2,0 -1,-2 -2,-2 -2,-1 -4,0 -4,0 -1,-2 4,-3 6,0 0,1 0,2 0,2z"/>
     <path class="fil64" d="M239 244c-1,1 -5,0 -5,-1 0,-1 5,0 5,1z"/>
     <path class="fil65" d="M225 247c-1,0 -3,0 -3,0 -1,0 -3,1 -4,0 0,0 0,-1 -1,-1 0,-1 0,-1 1,-1 2,2 4,1 7,2z"/>
     <path class="fil66" d="M227 238c0,0 0,1 0,1 2,1 3,1 1,3 0,-2 -2,-2 -2,-3 0,-1 1,-1 1,-1z"/>
     <path class="fil67" d="M218 244c0,1 0,1 0,1 0,0 -1,0 -1,1 0,-1 0,-1 0,-2 0,-1 1,0 1,0z"/>
     <path class="fil68" d="M230 245c1,0 1,0 1,0 0,0 0,1 -1,2l0 -1c0,0 0,-1 0,-1z"/>
     <path class="fil69" d="M101 175c1,1 -1,2 -1,1l-15 -12c-2,4 -4,8 -7,12 -1,2 -3,5 -5,7 4,-7 9,-14 11,-21 5,4 11,11 17,13z"/>
     <path class="fil70" d="M107 178c-1,0 -2,-1 -3,-1 -2,-1 -3,0 -5,0 -1,0 0,-1 1,-1 0,0 1,0 1,-1 2,1 5,1 6,3z"/>
     <path class="fil71" d="M72 184c0,0 0,0 0,1 0,0 0,0 0,0 -1,0 -2,-1 -2,-1 -1,0 0,2 -1,1l2 -2c0,1 1,1 1,1z"/>
     <path class="fil72" d="M103 180c0,2 1,3 0,5 -3,5 -7,-6 0,-5z"/>
     <path class="fil73" d="M84 180c1,-1 2,-1 2,0 0,2 1,4 -1,5 -3,2 -5,-4 -2,-5 0,-1 1,0 1,0z"/>
     <path class="fil74" d="M89 197c2,1 6,1 8,0 2,0 -1,2 -1,2 -3,2 -7,0 -8,-2 0,-1 1,0 1,0z"/>
     <path class="fil75" d="M78 176c1,0 3,-1 4,-1 2,-1 6,-1 6,2 -2,-1 -3,-2 -6,-1 0,0 -5,2 -4,0z"/>
     <path class="fil76" d="M97 197c-1,2 -3,2 -4,1 -1,0 -4,0 -4,-1 3,0 5,0 8,0z"/>
     <path class="fil77" d="M94 188c0,0 0,0 0,1 1,0 2,1 2,2 0,2 -2,2 -3,2 0,-1 1,-1 1,-2 0,0 -2,-4 0,-3z"/>
     <path class="fil78" d="M72 185l0 0c1,0 2,3 0,3 -2,0 0,-2 0,-3z"/>
     <path class="fil79" d="M110 185l-2 -2c1,0 2,1 2,2z"/>
     <path class="fil80" d="M107 188c0,0 0,-1 0,-1 0,-2 2,0 0,1z"/>
     <path class="fil81" d="M84 180c1,0 1,-1 2,-1 0,1 0,1 0,1l-2 0z"/>
     <path class="fil82" d="M247 275c0,0 0,0 -1,0 0,0 -1,0 -1,0 -1,1 -2,-1 -1,-2 0,0 0,0 1,0 0,1 1,1 2,2z"/>
     <path class="fil83" d="M249 276c-1,0 -2,-1 -3,-1l1 0c1,0 2,0 2,1z"/>
     <path class="fil24" d="M165 263c1,0 1,0 2,1 2,1 7,4 9,6 0,0 1,1 1,1 -2,4 -3,5 -2,10 -11,-3 -22,-7 -34,-11 3,1 4,-3 4,-5l1 -1c6,0 11,-1 17,-1l2 0z"/>
     <path class="fil27" d="M178 269c0,0 -1,1 -1,2 -4,-2 -8,-5 -12,-8 0,0 -1,0 -1,0 -3,-1 -12,-10 -13,-12 0,0 0,-1 -1,-1 1,-2 1,-3 2,-5 1,0 1,1 1,1 8,9 16,16 25,23z"/>
     <path class="fil84" d="M192 273c0,2 0,4 -1,6 -1,0 -3,-1 -4,-2 0,-2 0,-3 2,-4 0,0 2,0 3,0z"/>
     <path class="fil29" d="M178 224c2,2 1,3 1,5 0,0 -3,1 -4,2 -1,0 -2,1 -3,2 -3,-6 -10,-6 -14,-10 0,-1 0,-3 1,-4l1 0c6,2 11,4 17,4l1 1z"/>
     <path class="fil33" d="M163 218c4,0 12,2 15,6 -2,1 -6,0 -8,-1 -4,-1 -8,-2 -11,-4 1,-2 2,-1 4,-1z"/>
     <path class="fil85" d="M210 115c0,2 0,4 -1,5 0,1 0,1 0,2 0,0 -3,1 -3,1 0,-2 0,-4 0,-5l0 -1c0,-3 1,-2 4,-2z"/>
     <path class="fil86" d="M204 125c0,-1 1,-1 2,-1 4,-1 9,-3 14,-3 0,-1 2,-1 2,0 0,1 -16,4 -18,4z"/>
     <path class="fil87" d="M191 125c0,1 0,0 -1,0 -2,0 -6,-2 -8,-2 -1,-1 -2,0 -1,-1l10 3z"/>
     <path class="fil88" d="M221 115c0,0 -1,0 -2,0 -2,0 -5,-2 -6,-3l8 3z"/>
     <path class="fil89" d="M244 273c0,0 0,1 1,2 -1,4 -5,2 -5,-2 0,0 0,-1 0,-1 1,1 3,1 4,1z"/>
     <path class="fil27" d="M171 234c3,6 6,12 10,17 -2,1 -4,0 -6,-1 -2,-5 -8,-9 -5,-15 1,-1 1,-1 1,-1z"/>
     <path class="fil90" d="M198 193c0,1 0,3 0,3l-1 -3 1 0z"/>
     <path class="fil91" d="M101 183c-1,1 -2,-1 -1,-1 0,-1 1,1 1,1z"/>
     <path class="fil92" d="M84 182c0,0 -2,0 -1,-1 0,-1 1,1 1,1z"/>
    </g>
   </g>
  </g>
  <path class="fil2" d="M36 0l236 0c20,0 36,16 36,36l0 298c0,19 -16,35 -36,35l-236 0c-20,0 -36,-16 -36,-35l0 -298c0,-20 16,-36 36,-36z"/>
  <path class="fil93" d="M21 58c-3,0 -5,-1 -7,-3 -2,-2 -3,-5 -3,-8 0,-3 1,-6 3,-8 2,-2 4,-3 7,-3 3,0 6,1 8,3 2,2 3,5 3,8 0,3 -1,6 -3,8 -2,2 -5,3 -8,3zm0 -4c2,0 4,-1 5,-2 1,-1 1,-3 1,-5 0,-2 0,-4 -1,-5 -1,-2 -3,-2 -5,-2 -2,0 -3,0 -4,2 -1,1 -2,3 -2,5 0,2 1,4 2,5 1,1 2,2 4,2z"/>
  <path id="1" class="fil93" d="M49 58c-2,0 -5,-1 -7,-3 -2,-2 -3,-5 -3,-8 0,-3 1,-6 3,-8 2,-2 5,-3 8,-3 2,0 3,0 5,1 1,1 2,2 3,4l-3 2c-1,-2 -3,-3 -5,-3 -2,0 -3,0 -5,2 -1,1 -1,3 -1,5 0,2 0,4 1,5 2,1 3,2 5,2 2,0 4,-1 6,-3l2 3c-2,2 -5,4 -9,4z"/>
  <path id="2" class="fil93" d="M75 58c-3,0 -5,-1 -7,-3 -2,-2 -3,-5 -3,-8 0,-3 1,-6 3,-8 2,-2 5,-3 8,-3 2,0 3,0 5,1 1,1 2,2 3,4l-3 2c-1,-2 -3,-3 -5,-3 -2,0 -4,0 -5,2 -1,1 -1,3 -1,5 0,2 0,4 1,5 1,1 3,2 5,2 2,0 4,-1 6,-3l2 3c-2,2 -5,4 -9,4z"/>
  <path id="3" class="fil93" d="M107 56c-2,1 -4,2 -7,2 -2,0 -4,-1 -6,-2 -1,-2 -2,-4 -2,-6l0 -14 5 0 0 14c0,3 1,4 3,4 3,0 4,-1 4,-4l0 -14 5 0 0 14c0,2 -1,4 -2,6z"/>
  <path id="4" class="fil93" d="M126 36c3,0 4,1 6,2 1,2 2,3 2,5 0,3 -1,4 -2,5 -2,2 -4,2 -6,2l-4 0 0 7 -4 0 0 -19c0,0 0,-1 1,-1 0,0 0,-1 1,-1l6 0zm0 11c2,0 3,-1 3,-4 0,-1 0,-2 -1,-2 0,-1 -1,-1 -2,-1l-4 0 0 7 4 0z"/>
  <path id="5" class="fil93" d="M154 57l-2 -5 -7 0 -2 5 -5 0 8 -19c0,-1 1,-2 2,-2 2,0 3,1 3,2l7 19 -4 0zm-8 -8l5 0 -3 -8 -2 8z"/>
  <polygon id="6" class="fil93" points="179,36 179,40 173,40 173,57 169,57 169,40 163,40 163,36 "/>
  <polygon id="7" class="fil93" points="187,57 187,36 191,36 191,57 "/>
  <path id="8" class="fil93" d="M211 58c-3,0 -6,-1 -8,-3 -2,-2 -3,-5 -3,-8 0,-3 1,-6 3,-8 2,-2 5,-3 8,-3 3,0 5,1 7,3 2,2 3,5 3,8 0,3 -1,6 -3,8 -2,2 -4,3 -7,3zm0 -4c2,0 3,-1 4,-2 1,-1 2,-3 2,-5 0,-2 -1,-4 -2,-5 -1,-2 -2,-2 -4,-2 -2,0 -4,0 -5,2 -1,1 -1,3 -1,5 0,2 0,4 1,5 1,1 3,2 5,2z"/>
  <path id="9" class="fil93" d="M244 36l4 0 0 20c0,1 0,1 -1,1 0,1 -1,1 -1,1 -1,0 -1,0 -2,-1 0,0 0,0 -1,0l-9 -14 0 14 -4 0 0 -19c0,-1 0,-1 1,-1 0,-1 1,-1 1,-1 1,0 2,0 2,1 0,0 1,0 1,1l9 12 0 -14z"/>
  <path id="10" class="fil93" d="M271 57l-1 -5 -8 0 -2 5 -4 0 7 -19c0,-1 1,-2 3,-2 1,0 2,1 3,2l7 19 -5 0zm-8 -8l5 0 -2 -8 -3 8z"/>
  <path id="11" class="fil93" d="M285 57c0,0 -1,0 -1,0 0,0 0,-1 0,-1l0 -20 4 0 0 18 9 0 0 3 -12 0z"/>
  <polygon id="12" class="fil93" points="88,64 88,67 82,67 82,85 78,85 78,67 72,67 72,64 "/>
  <polygon id="13" class="fil93" points="96,85 96,64 101,64 101,73 109,73 109,64 114,64 114,85 109,85 109,76 101,76 101,85 "/>
  <path id="14" class="fil93" d="M138 67l-10 0 0 5 9 0 0 4 -9 0 0 5 9 0 0 4 -13 0 0 -19c0,-1 0,-1 0,-2 1,0 1,0 1,0l13 0 0 3z"/>
  <path id="15" class="fil93" d="M157 85l-4 -8 -2 0 0 8 -4 0 0 -19c0,-1 0,-1 0,-2 0,0 1,0 1,0l7 0c2,0 4,0 5,2 1,1 2,2 2,4 0,4 -2,6 -5,7l5 8 -5 0zm-6 -18l0 7 3 0c2,0 4,-1 4,-4 0,-1 -1,-1 -1,-2 -1,0 -2,-1 -3,-1l-3 0z"/>
  <path id="16" class="fil93" d="M185 85l-2 -5 -8 0 -2 5 -4 0 7 -20c0,-1 1,-1 3,-1 1,0 2,0 3,1l7 20 -4 0zm-9 -9l6 0 -3 -8 -3 8z"/>
  <path id="17" class="fil93" d="M205 64c2,0 4,0 5,2 1,1 2,3 2,5 0,2 -1,4 -2,5 -1,1 -3,2 -5,2l-4 0 0 7 -4 0 0 -19c0,-1 0,-1 0,-2 1,0 1,0 1,0l7 0zm-1 10c3,0 4,-1 4,-3 0,-1 0,-2 -1,-3 -1,0 -2,-1 -3,-1l-3 0 0 7 3 0z"/>
  <polygon id="18" class="fil93" points="236,64 229,77 229,85 225,85 225,77 218,64 222,64 227,73 232,64 "/>
 </g>
</svg>
