<?xml version="1.0" encoding="UTF-8"?>
<svg id="Layer_1" xmlns="http://www.w3.org/2000/svg" version="1.1" xmlns:xlink="http://www.w3.org/1999/xlink" viewBox="0 0 1080 1080">
  <!-- Generator: Adobe Illustrator 29.4.0, SVG Export Plug-In . SVG Version: 2.1.0 Build 152)  -->
  <defs>
    <style>
      .st0 {
        clip-rule: evenodd;
        fill: none;
      }

      .st1 {
        fill: url(#linear-gradient);
      }

      .st2 {
        clip-path: url(#clippath);
      }
    </style>
    <clipPath id="clippath">
      <path class="st0" d="M857.58,801.26h-179.73v-1.29l23.29-69.62c.99-2.96.99-6.17,0-9.13l-13.65-41.03c4.27-2.63,7.91-5.39,10.9-7.98,19.09,12.53,48.29,22.88,55.16,25.22.1.03,69.27,26.84,90.89,57.02,12.18,16.98,13.07,30.15,13.13,31.36v15.44ZM665.21,746.77c-8.84-15.16-23.85-32.74-49.37-48.86l3.1-9.11c8.48,2.33,16.96,3.51,25.34,3.51,5.57,0,11-.53,16.28-1.57l11.67,35.03-7.03,21ZM648.99,795.22l-2.01,6.04h-173.28l23.61-70.92c.98-2.96.98-6.15,0-9.12l-14.52-43.56c5.25-3.37,9.77-6.89,13.41-10.06,10.88,8.44,25.1,16.96,36.7,23.41,5.92,3.4,9.93,5.49,10.11,5.57.72.38,1.47.69,2.26.94,17.79,5.67,32.87,12.02,46.14,19.45,55.03,30.5,57.49,66.5,57.58,68.84v9.41ZM443.28,801.26h-15.15l-25.12-75.47,12.09-36.26c13.64,3.61,27.59,3.61,41.22,0l12.09,36.26-25.12,75.47ZM222.42,801.26v-15.31c.11-1.54,1.32-14.52,13.44-31.28,21.83-30.16,92.02-57.72,92.75-58.1,3.52-1.84,29.08-15.36,46.59-28.97,3.65,3.17,8.18,6.69,13.44,10.07l-14.52,43.56c-.99,2.96-.99,6.15,0,9.12l23.61,70.92h-175.3ZM481.26,631.37v10.76c-4.12,4.08-11.94,10.93-22.26,15.8-15.41,7.32-31.18,7.32-46.61,0-10.28-4.86-18.11-11.72-22.24-15.8v-10.77c14.29,4.65,29.54,7.01,45.56,7.01s31.29-2.36,45.55-6.99ZM319.83,501.79c-.97-7.32-1.46-14.63-1.46-21.71v-52.43c12.42-1.04,31.68-3.08,51.14-6.79,14.06-2.69,50.03-9.56,66.33-27.91,21.29,11.99,64.16,32.05,117.35,35.24v51.89c0,7.07-.49,14.37-1.44,21.6-3.4,24.45-12.35,46.55-25.87,63.89-.05.07-.11.15-.16.22-10.08,13.43-22.66,24.02-37.52,31.51-15.66,8.1-33.33,12.2-52.49,12.2s-36.84-4.11-52.6-12.24c-34.29-17.4-57.35-52.22-63.29-95.47ZM353.88,309.59c19.61-20.47,47.15-30.85,81.83-30.85,39.6,0,69.83,13.63,89.83,40.51,20.35,27.35,25.68,62.1,27.06,79.97-65.42-4.71-114.1-38.44-114.6-38.79-4.4-3.12-10.18-3.53-14.97-1.04-4.8,2.47-7.8,7.42-7.8,12.82,0,2.08-9.06,12.23-50.9,20.26-16.76,3.21-33.71,5.12-45.49,6.17,1.67-21.42,8.43-61.32,35.03-89.05ZM639.54,278.74c34.5,0,61.93,10.31,81.53,30.64,26.85,27.86,33.63,68.46,35.31,89.84-65.43-4.69-114.02-38.44-114.52-38.78-4.41-3.13-10.19-3.54-14.98-1.06-4.8,2.47-7.81,7.42-7.81,12.82,0,1.88-7.28,10.05-38.34,17.48-2.25-20.56-8.48-50.54-25.29-77.7,19.87-22.04,48.11-33.24,84.09-33.24ZM582,482.81c.01-.9.05-22.21.05-22.21,3.94,1.36,7.11,3.62,7.11,7.41,0,4.54-2.77,10.36-7.15,14.8ZM567.58,619.54v26.86c-6.42,4.97-16.76,10.25-24.72,14.31-.88.45-1.74.88-2.58,1.32-13.32-7.71-23.97-14.87-30.15-20.27v-23.61c10.1-6.06,19.3-13.39,27.51-21.9,8.99,9.24,19.01,17.04,29.95,23.29ZM592.28,677.56l-2.18,6.38c-5.25-2.45-10.73-4.78-16.47-7,3.05-1.79,6.01-3.66,8.77-5.62,2.81,1.95,6.12,4.1,9.88,6.25ZM682.66,632.11v15.27c-3.23,3.33-9.34,8.66-18.22,12.25-6.21,2.53-12.99,3.82-20.15,3.82-9.26,0-18.85-2.12-28.45-6.27-8.48-3.71-15.24-8.21-19.4-11.33v-13.73c13.54,4.15,27.97,6.25,43.1,6.25s29.58-2.11,43.12-6.25ZM756.89,480.09h0c0,7.07-.49,14.37-1.45,21.66-5.94,43.96-29.52,79-64.67,96.13-.06.03-.11.06-.17.09-15.19,7.66-32.37,11.54-51.04,11.54s-35.85-3.88-51.04-11.54c-.07-.04-.14-.08-.21-.11-12.2-5.89-23.1-14.14-32.55-24.52,10.69-16.45,18.39-35.53,22.62-56.2,23.29-5.54,39.66-28.4,39.66-49.12,0-19.38-13.71-33.03-35.97-37.07v-11.93c21.92-4.71,45.65-12.24,57.76-25.98,21.32,12.03,64.02,31.98,117.08,35.17v51.89ZM282.41,468.01c0-3.79,3.17-6.05,7.1-7.41,0,0,.04,21.31.05,22.21-4.37-4.45-7.14-10.27-7.14-14.8ZM785.74,460.6c3.94,1.36,7.11,3.62,7.11,7.41,0,4.54-2.78,10.36-7.15,14.8.01-.9.05-22.21.05-22.21ZM762.74,670.07c-16.18-5.54-40.55-15.82-51.22-23.75v-26.79c36.4-20.84,61.54-57.35,70.57-102.41,23.26-5.56,39.62-28.4,39.62-49.11,0-19.38-13.72-33.03-35.97-37.07v-16.47c.19-6.07,1.52-77.83-43.74-124.96-25.26-26.3-59.73-39.63-102.46-39.63s-76.89,13.09-102.04,38.97c-25.11-25.87-59.26-38.97-101.78-38.97s-77.41,13.37-102.67,39.73c-45.14,47.08-43.74,118.64-43.53,124.86v16.47c-22.25,4.04-35.96,17.69-35.96,37.07,0,20.71,16.36,43.57,39.64,49.12,8.88,43.98,33.15,79.95,68.1,101v23.62c-10.45,9.08-31.79,21.7-45,28.68-120.02,39.2-122.67,111.85-122.72,114.94,0,.08,0,.17,0,.25v30.07c0,7.97,6.46,14.43,14.43,14.43h664.02c7.96,0,14.43-6.46,14.43-14.43v-30.12c-.01-3.12-1.73-76.79-123.7-115.5ZM717.37,776.17h83.87v-28.86h-83.87v28.86ZM513.67,776.17h83.87v-28.86h-83.87v28.86Z"/>
    </clipPath>
    <linearGradient id="linear-gradient" x1="172.4" y1="792.7" x2="562.56" y2="524.49" gradientUnits="userSpaceOnUse">
      <stop offset="0" stop-color="#FFFFFF"/>
      <stop offset="1" stop-color="#FFFFFF"/>
    </linearGradient>
  </defs>
  <g class="st2">
    <rect class="st1" x="193.56" y="249.88" width="692.88" height="580.24"/>
  </g>
</svg>