<?xml version="1.0" encoding="UTF-8"?>
<!DOCTYPE svg PUBLIC "-//W3C//DTD SVG 1.1//EN" "http://www.w3.org/Graphics/SVG/1.1/DTD/svg11.dtd">
<!-- Creator: CorelDRAW X7 -->
<svg xmlns="http://www.w3.org/2000/svg" xml:space="preserve" width="1.90327in" height="1.6869in" version="1.1" style="shape-rendering:geometricPrecision; text-rendering:geometricPrecision; image-rendering:optimizeQuality; fill-rule:evenodd; clip-rule:evenodd"
viewBox="0 0 832 737"
 xmlns:xlink="http://www.w3.org/1999/xlink">
 <defs>
  <style type="text/css">
   <![CDATA[
    .fil117 {fill:none}
    .fil114 {fill:#046859;fill-rule:nonzero}
    .fil84 {fill:#04BEA4;fill-rule:nonzero}
    .fil110 {fill:#1AC3AA;fill-rule:nonzero}
    .fil31 {fill:#325A73;fill-rule:nonzero}
    .fil55 {fill:#327194;fill-rule:nonzero}
    .fil56 {fill:#337095;fill-rule:nonzero}
    .fil39 {fill:#352F2A;fill-rule:nonzero}
    .fil40 {fill:#352F2B;fill-rule:nonzero}
    .fil34 {fill:#355D76;fill-rule:nonzero}
    .fil29 {fill:#39384F;fill-rule:nonzero}
    .fil82 {fill:#4170A2;fill-rule:nonzero}
    .fil46 {fill:#435E72;fill-rule:nonzero}
    .fil116 {fill:#482C16;fill-rule:nonzero}
    .fil36 {fill:#535369;fill-rule:nonzero}
    .fil68 {fill:#59210A;fill-rule:nonzero}
    .fil85 {fill:#59220B;fill-rule:nonzero}
    .fil30 {fill:#5E5C79;fill-rule:nonzero}
    .fil13 {fill:#63617F;fill-rule:nonzero}
    .fil28 {fill:#636280;fill-rule:nonzero}
    .fil4 {fill:#69405A;fill-rule:nonzero}
    .fil61 {fill:#6A4159;fill-rule:nonzero}
    .fil54 {fill:#7295DF;fill-rule:nonzero}
    .fil17 {fill:#7299E5;fill-rule:nonzero}
    .fil53 {fill:#7396E2;fill-rule:nonzero}
    .fil23 {fill:#749AE5;fill-rule:nonzero}
    .fil14 {fill:#767676;fill-rule:nonzero}
    .fil32 {fill:#7699E6;fill-rule:nonzero}
    .fil26 {fill:#819FE4;fill-rule:nonzero}
    .fil45 {fill:#858E90;fill-rule:nonzero}
    .fil71 {fill:#883D07;fill-rule:nonzero}
    .fil91 {fill:#893D08;fill-rule:nonzero}
    .fil94 {fill:#893E08;fill-rule:nonzero}
    .fil107 {fill:#9E8C80;fill-rule:nonzero}
    .fil19 {fill:#9E9DA1;fill-rule:nonzero}
    .fil74 {fill:#A36243;fill-rule:nonzero}
    .fil27 {fill:#A4A0CB;fill-rule:nonzero}
    .fil59 {fill:#B58B2B;fill-rule:nonzero}
    .fil89 {fill:#C5835E;fill-rule:nonzero}
    .fil10 {fill:#CA4C05;fill-rule:nonzero}
    .fil83 {fill:#CABCB3;fill-rule:nonzero}
    .fil11 {fill:#CB4D07;fill-rule:nonzero}
    .fil18 {fill:#D7D2D8;fill-rule:nonzero}
    .fil42 {fill:#D8E2F0;fill-rule:nonzero}
    .fil24 {fill:#DB550A;fill-rule:nonzero}
    .fil3 {fill:#DC5307;fill-rule:nonzero}
    .fil97 {fill:#DD752D;fill-rule:nonzero}
    .fil50 {fill:#DDEDF2;fill-rule:nonzero}
    .fil106 {fill:#DE7229;fill-rule:nonzero}
    .fil98 {fill:#DE7630;fill-rule:nonzero}
    .fil105 {fill:#DF7227;fill-rule:nonzero}
    .fil95 {fill:#DF7C6B;fill-rule:nonzero}
    .fil92 {fill:#DF7D6C;fill-rule:nonzero}
    .fil49 {fill:#DFEFFF;fill-rule:nonzero}
    .fil99 {fill:#E07632;fill-rule:nonzero}
    .fil57 {fill:#E0F0FE;fill-rule:nonzero}
    .fil104 {fill:#E17B38;fill-rule:nonzero}
    .fil72 {fill:#E1E9D3;fill-rule:nonzero}
    .fil103 {fill:#E27631;fill-rule:nonzero}
    .fil102 {fill:#E27F40;fill-rule:nonzero}
    .fil86 {fill:#E2F0EA;fill-rule:nonzero}
    .fil101 {fill:#E37E3E;fill-rule:nonzero}
    .fil90 {fill:#E46501;fill-rule:nonzero}
    .fil100 {fill:#E47E3F;fill-rule:nonzero}
    .fil41 {fill:#EA7B6C;fill-rule:nonzero}
    .fil38 {fill:#EA7B6D;fill-rule:nonzero}
    .fil52 {fill:#EBF4F7;fill-rule:nonzero}
    .fil62 {fill:#EC9301;fill-rule:nonzero}
    .fil58 {fill:#ED9300;fill-rule:nonzero}
    .fil12 {fill:#EDCBB3;fill-rule:nonzero}
    .fil77 {fill:#EDE9DC;fill-rule:nonzero}
    .fil93 {fill:#EFF1EE;fill-rule:nonzero}
    .fil5 {fill:#F0F6F7;fill-rule:nonzero}
    .fil73 {fill:#F1EBB4;fill-rule:nonzero}
    .fil33 {fill:#F1F3F4;fill-rule:nonzero}
    .fil88 {fill:#F27965;fill-rule:nonzero}
    .fil81 {fill:#F2F9F6;fill-rule:nonzero}
    .fil96 {fill:#F3F6F4;fill-rule:nonzero}
    .fil35 {fill:#F3F7F9;fill-rule:nonzero}
    .fil80 {fill:#F5F9F8;fill-rule:nonzero}
    .fil108 {fill:#F5FCFB;fill-rule:nonzero}
    .fil25 {fill:#F6AB90;fill-rule:nonzero}
    .fil79 {fill:#F7FAFB;fill-rule:nonzero}
    .fil37 {fill:#F89177;fill-rule:nonzero}
    .fil44 {fill:#F8FBFB;fill-rule:nonzero}
    .fil16 {fill:#F9FAFA;fill-rule:nonzero}
    .fil43 {fill:#F9FAFB;fill-rule:nonzero}
    .fil76 {fill:#FA9336;fill-rule:nonzero}
    .fil21 {fill:#FA9A7E;fill-rule:nonzero}
    .fil15 {fill:#FAFAFB;fill-rule:nonzero}
    .fil78 {fill:#FAFBFC;fill-rule:nonzero}
    .fil109 {fill:#FAFDFD;fill-rule:nonzero}
    .fil115 {fill:#FCA384;fill-rule:nonzero}
    .fil64 {fill:#FCF8DB;fill-rule:nonzero}
    .fil47 {fill:#FCFCFD;fill-rule:nonzero}
    .fil22 {fill:#FDA485;fill-rule:nonzero}
    .fil67 {fill:#FDAB97;fill-rule:nonzero}
    .fil113 {fill:#FDFCF9;fill-rule:nonzero}
    .fil9 {fill:#FDFDFD;fill-rule:nonzero}
    .fil69 {fill:#FDFEFE;fill-rule:nonzero}
    .fil112 {fill:#FE8302;fill-rule:nonzero}
    .fil66 {fill:#FE8304;fill-rule:nonzero}
    .fil65 {fill:#FEAB95;fill-rule:nonzero}
    .fil70 {fill:#FEE97F;fill-rule:nonzero}
    .fil63 {fill:#FEF1B2;fill-rule:nonzero}
    .fil7 {fill:#FEFEFE;fill-rule:nonzero}
    .fil75 {fill:#FF8200;fill-rule:nonzero}
    .fil111 {fill:#FF8201;fill-rule:nonzero}
    .fil6 {fill:#FFAB94;fill-rule:nonzero}
    .fil20 {fill:#FFAD8B;fill-rule:nonzero}
    .fil48 {fill:#FFD200;fill-rule:nonzero}
    .fil51 {fill:#FFE97D;fill-rule:nonzero}
    .fil60 {fill:#FFF1B2;fill-rule:nonzero}
    .fil8 {fill:white;fill-rule:nonzero}
    .fil87 {fill:url(#id1)}
    .fil0 {fill:url(#id2)}
    .fil1 {fill:url(#id3)}
    .fil2 {fill:url(#id4)}
   ]]>
  </style>
   <clipPath id="id0">
    <path d="M97 0l638 0c53,0 97,44 97,97l0 543c0,53 -44,97 -97,97l-638 0c-53,0 -97,-44 -97,-97l0 -543c0,-53 44,-97 97,-97z"/>
   </clipPath>
  <linearGradient id="id1" gradientUnits="userSpaceOnUse" x1="281.408" y1="420.035" x2="275.69" y2="453.994">
   <stop offset="0" style="stop-opacity:1; stop-color:#EA594B"/>
   <stop offset="1" style="stop-opacity:1; stop-color:#FFAD8B"/>
  </linearGradient>
  <linearGradient id="id2" gradientUnits="userSpaceOnUse" x1="190.554" y1="638.489" x2="641.043" y2="98.5727">
   <stop offset="0" style="stop-opacity:1; stop-color:#E6E6E6"/>
   <stop offset="1" style="stop-opacity:1; stop-color:#F7F7F7"/>
  </linearGradient>
  <linearGradient id="id3" gradientUnits="userSpaceOnUse" x1="246.291" y1="988.341" x2="647.94" y2="326.897">
   <stop offset="0" style="stop-opacity:1; stop-color:#B0B0B0"/>
   <stop offset="1" style="stop-opacity:1; stop-color:#EDEDED"/>
  </linearGradient>
  <linearGradient id="id4" gradientUnits="userSpaceOnUse" x1="341.513" y1="982.427" x2="847.352" y2="235.791">
   <stop offset="0" style="stop-opacity:1; stop-color:#6200D1"/>
   <stop offset="1" style="stop-opacity:1; stop-color:#FF2EBD"/>
  </linearGradient>
 </defs>
 <g id="Layer_x0020_1">
  <metadata id="CorelCorpID_0Corel-Layer"/>
  <path class="fil0" d="M97 0l638 0c53,0 97,44 97,97l0 543c0,53 -44,97 -97,97l-638 0c-53,0 -97,-44 -97,-97l0 -543c0,-53 44,-97 97,-97z"/>
  <g style="clip-path:url(#id0)">
   <g id="_2564960680656">
    <circle class="fil1" cx="447" cy="658" r="486"/>
    <path class="fil2" d="M594 49c155,0 295,63 396,164 102,102 164,242 164,396 0,155 -62,295 -164,396 -101,101 -241,164 -396,164 -154,0 -294,-63 -395,-164 -102,-101 -164,-241 -164,-396 0,-154 62,-294 164,-396 101,-101 241,-164 395,-164zm393 167c-100,-100 -239,-162 -393,-162 -153,0 -292,62 -392,162 -101,101 -163,240 -163,393 0,153 62,292 163,393 100,100 239,162 392,162 154,0 293,-62 393,-162 101,-101 163,-240 163,-393 0,-153 -62,-292 -163,-393z"/>
    <g>
     <path class="fil3" d="M577 137c0,0 1,0 1,0 4,-2 12,-2 16,0 0,-1 1,-1 1,0 1,0 1,0 1,0l12 2c2,1 5,2 9,2 2,2 5,3 8,4 1,1 2,2 4,2 5,3 9,6 14,8l1 0 2 1c-1,3 5,6 8,7 0,0 0,0 0,0 1,0 2,0 2,0 2,0 10,2 10,4 1,-1 1,-1 1,-1 3,0 8,4 10,6 3,2 6,4 10,7 3,4 6,8 9,12 0,3 1,5 3,7 0,3 1,7 2,10 0,5 1,8 2,12 1,12 2,24 1,37 1,4 0,8 -2,10 -1,5 -2,12 -7,14l1 11c-1,7 -2,12 -4,19l-2 2c0,3 -2,5 -5,7 -3,6 -10,11 -16,14 -1,2 -3,3 -5,2 -2,1 -3,1 -3,-2 0,-3 3,-11 5,-13l2 -2c14,-5 22,-37 9,-46 -3,-2 -7,-2 -10,1 -9,1 -11,-20 -12,-26 -2,-11 -5,-12 -16,-11 -11,-1 -21,-9 -25,-20 -2,3 -3,6 -3,9l3 12c0,0 -1,2 -1,2 -3,2 -17,1 -21,1 -23,-1 -45,-12 -52,-35 -1,-2 -8,20 -9,22 -2,4 -7,-3 -10,-5 -2,-3 -4,-6 -5,-10 -6,19 -5,38 -4,58 0,1 0,3 -2,4 -2,0 -2,-1 -3,-3 -2,-2 -3,-5 -4,-8 -2,-1 -2,-2 -3,-4 -2,-4 -3,-8 -3,-13 -2,-7 -3,-15 0,-21 0,-4 1,-8 3,-11 0,-2 1,-4 3,-5 0,-3 1,-5 3,-5 1,-4 3,-9 4,-13l1 -1c3,-8 7,-15 12,-22 4,-6 8,-10 14,-15 1,-2 2,-3 3,-4 3,-1 7,-3 9,-6 2,0 4,-1 6,-3 3,0 6,-1 9,-3l11 -1c1,0 1,0 2,0z"/>
     <path class="fil4" d="M622 560l1 1c1,7 4,14 10,18 9,5 17,4 26,1 0,2 0,3 0,4 1,4 1,7 1,10 0,0 0,1 0,1 2,10 2,20 1,31 1,5 1,12 -4,16 -1,0 -1,0 -2,-1 -2,5 -10,7 -15,8 -6,1 -13,1 -19,0l-2 -1 -1 1c-4,0 -17,-4 -17,-7 -2,-11 -2,-23 -1,-34 0,-1 -1,-2 -1,-1 0,8 -2,18 -4,26 -1,5 -5,6 -9,7 -3,1 -9,1 -10,-1 -2,2 -9,2 -10,-1 0,1 0,2 0,2 -1,0 -11,0 -12,0l-1 -2 -1 2c-4,-1 -8,-2 -11,-4l-1 -2c-1,1 -3,-1 -3,-2 -2,-4 4,-34 6,-40 0,-1 0,-1 0,-1 0,0 0,-1 0,-1 3,-14 6,-28 9,-42l0 0c2,0 4,0 6,2 19,8 40,9 61,8 1,1 2,1 3,2z"/>
     <path class="fil5" d="M667 318c1,1 1,2 -1,3 -1,4 -2,9 -3,13 0,1 -1,2 1,2 -2,1 -2,2 -3,5l-1 1c0,0 0,1 0,1l-1 1c0,1 0,1 0,1l-2 4c0,1 -1,2 -1,3l-2 3c0,0 0,0 0,1 -1,2 -3,4 -5,6 0,0 1,0 0,1l-11 15c-1,1 -2,2 -2,4 -2,1 -4,3 -5,5l-2 0c-4,7 -10,12 -17,17l0 2c-12,13 -19,22 -19,41 1,24 6,50 21,70 7,7 14,14 20,22l-1 1c0,2 -3,4 -4,2 -1,0 -2,0 -2,-1 -4,-3 -11,-11 -14,-15 -23,-27 -28,-58 -27,-93 -1,-12 -7,-23 -14,-34l-11 -15 0 -2c0,-1 -1,-2 -1,-3 -1,0 0,-1 0,-1l-2 -1c0,-1 0,-1 0,-1 -2,-2 -4,-4 -4,-6 -1,-1 -1,-1 0,-1 -2,-1 -3,-2 -2,-3 2,-2 8,1 9,4 -1,0 -1,0 1,1 2,3 4,6 6,8l1 3c2,2 2,3 2,5 3,0 4,2 3,4l2 1c3,5 7,10 9,15l0 2 2 1 4 12 7 -11 3 -1c0,-1 0,-2 1,-2 1,-6 12,-15 17,-17 -1,-2 2,-4 3,-4l3 -3c-1,-2 2,-4 3,-4 0,0 0,-1 0,-1l1 -2c8,-7 23,-26 25,-36 0,-1 0,-1 0,-2 -1,-1 0,-1 2,-2 2,-4 3,-9 4,-14l1 0 1 -2c-2,-1 -1,-3 1,-3 1,-1 2,-1 4,0z"/>
     <path class="fil6" d="M437 321l1 -1c7,-3 10,1 13,8 11,-4 12,12 13,19l-1 2c0,1 0,2 0,4 3,9 -5,18 -12,21 -3,1 -8,3 -9,1 -3,-1 -5,-5 -5,-7 0,-1 -1,-1 -1,-3l-1 -1c1,-5 1,-9 0,-14 0,-1 1,-1 3,-1l0 -1 12 -8c0,-4 -2,-5 -5,-3 0,4 -3,6 -7,6 -1,2 -1,2 -3,2l-2 0c-3,-4 -7,-8 -12,-10l-1 -2c0,0 0,-3 1,-3 3,-1 6,-4 8,-7l2 0c1,0 2,-1 3,0 1,0 2,-1 3,-2z"/>
     <path class="fil7" d="M657 489c1,-6 1,-12 0,-19 0,-7 1,-6 4,-2 2,0 2,1 3,4 -2,15 -2,30 1,45l0 10c1,-1 3,-2 5,-2 1,0 1,-1 1,-1 2,-2 23,-2 26,3 5,-19 3,-40 1,-59l1 -1c0,-1 1,-1 1,0 0,0 0,1 0,1l1 1c0,2 1,3 1,5l-1 7c0,2 0,4 0,5 1,2 1,3 1,5 0,1 0,3 0,4l-1 3c0,3 1,6 1,9l0 1c0,2 0,3 0,5 1,0 1,2 0,2 1,3 0,6 -2,8 1,1 0,3 -1,3 0,1 0,2 0,2 1,1 1,2 0,3 0,3 -1,8 2,10l-2 1c-1,1 -4,0 -3,-2 0,-3 0,-4 -1,-6l-2 0c-7,-4 -16,-3 -24,0l-1 -1c-5,3 -7,4 -3,8 0,2 -2,2 -4,0 -1,2 -5,-1 -4,-3 0,-1 -1,-2 -1,-3 0,-1 0,-2 0,-3 0,-14 -1,-27 0,-40l1 -3z"/>
     <path class="fil8" d="M598 787c-1,2 -1,3 -4,3 -3,0 -18,0 -19,0 -1,-1 -2,-2 -1,-3 8,-1 16,-1 24,0z"/>
     <path class="fil9" d="M609 786c-3,1 -7,1 -11,1 -8,0 -16,0 -24,0 -4,-1 -9,0 -12,-1 16,0 32,0 47,0z"/>
     <path class="fil8" d="M699 531c0,3 0,6 1,9 2,1 5,-4 6,-4 1,0 3,0 4,0 0,0 1,0 1,0 0,0 1,1 1,1 0,0 -8,5 -10,6l-1 -1c-2,2 -2,2 -2,0 0,-4 -2,-8 0,-11z"/>
     <path class="fil8" d="M522 782c0,0 0,0 0,0 2,0 3,0 3,1 -1,3 -9,1 -10,0 -1,-1 0,-1 0,-2 2,0 4,0 7,1z"/>
     <path class="fil8" d="M540 785c-2,3 -9,4 -8,-1 2,-1 6,0 8,1z"/>
     <path class="fil9" d="M562 786c-4,0 -8,0 -12,0l-2 -1c-1,0 -2,0 -3,0 0,2 -3,2 -4,0 0,0 -1,0 -1,0 -2,0 -5,-2 -8,-1l0 -1 30 3z"/>
     <path class="fil8" d="M506 779c0,0 1,0 1,0 1,0 2,1 2,1 -2,3 -9,2 -8,-2 1,0 3,0 5,1z"/>
     <path class="fil9" d="M640 783c-1,0 -3,2 -3,2 -1,0 -7,-1 -9,-1 4,-1 8,-1 12,-1z"/>
     <path class="fil9" d="M628 784c-6,2 -12,2 -18,2l18 -2z"/>
     <path class="fil9" d="M682 775c-3,2 -8,2 -11,3 -2,1 -3,2 -5,3 -4,2 -12,3 -17,1 1,0 2,0 3,0l1 -1c5,0 10,-2 15,-4l2 0c3,-1 8,-1 12,-2z"/>
     <path class="fil8" d="M701 481c0,-2 -1,-5 1,-7 0,1 1,1 1,3 0,1 -1,3 -2,4z"/>
     <path class="fil8" d="M558 376c0,-1 -3,-2 -3,-2 -2,-2 -1,-3 -1,-4 2,2 3,4 4,6z"/>
     <path class="fil8" d="M545 785c0,3 -4,3 -4,0 2,0 3,0 4,0z"/>
     <path class="fil9" d="M531 783c-2,0 -4,0 -6,0 0,0 -2,-1 -3,-1 3,0 7,0 9,1z"/>
     <path class="fil9" d="M711 763c-1,1 -2,2 -4,3 -3,2 -7,3 -10,4l14 -7z"/>
     <path class="fil9" d="M513 780c-1,0 -3,0 -4,0 -1,0 -2,-1 -2,-1 2,0 4,0 6,1z"/>
     <path class="fil8" d="M702 491c-1,-1 -1,-3 -1,-5 3,2 1,4 1,5z"/>
     <path class="fil9" d="M506 779c-2,0 -4,0 -5,-1 -1,0 -3,0 -4,-1 -1,0 -2,0 -2,-1 4,1 8,1 11,3z"/>
     <path class="fil9" d="M696 770c-3,3 -9,3 -14,5 5,-3 10,-4 14,-5z"/>
     <path class="fil8" d="M649 362c2,-2 3,-5 5,-6 -1,0 0,1 -1,2 0,1 -2,3 -4,4z"/>
     <path class="fil9" d="M646 782c-1,2 -3,1 -5,1 1,-1 3,-1 5,-1z"/>
     <path class="fil8" d="M550 786c-3,0 -2,-1 -2,-1l2 1z"/>
     <path class="fil8" d="M701 498l1 -3c0,2 -1,3 -1,3z"/>
     <path class="fil8" d="M561 382c0,0 -1,0 -1,0 0,-1 0,-2 0,-3 1,0 1,2 1,3z"/>
     <path class="fil8" d="M657 349c1,-2 1,-3 2,-4 0,1 -1,3 -2,4z"/>
     <path class="fil8" d="M659 344l1 -1c0,1 -1,1 -1,1z"/>
     <path class="fil8" d="M654 355c0,-1 1,-2 2,-3 -1,1 -1,2 -2,3z"/>
     <path class="fil5" d="M560 382c2,1 0,2 -1,0l0 0c0,0 1,0 1,0z"/>
     <path class="fil8" d="M701 469l-1 -1c0,0 1,0 1,1z"/>
     <path class="fil6" d="M510 275c1,-10 0,-16 0,-25 -1,-9 1,-20 3,-29 1,-5 3,-10 4,-16l1 8c2,7 6,12 12,16 3,-9 4,-20 11,-26 1,12 11,23 22,29 15,9 32,9 49,7 1,-1 -3,-11 -3,-14 0,-1 4,-12 6,-10 2,11 13,19 24,20 5,1 9,-1 13,3 8,6 3,24 11,33 4,4 4,1 7,0 4,-1 8,0 11,4 9,11 3,35 -9,43 -2,1 -4,2 -6,3 1,-1 1,-2 1,-3 -2,-1 1,-8 2,-10 7,-2 4,-13 -2,-11 -2,1 -3,17 -3,19l-1 2c0,1 -1,3 -2,5l-1 -1c-3,7 -7,13 -12,18l0 2c-10,8 -20,17 -32,22l-2 0 -1 2c-8,3 -16,6 -25,8l-1 -2c-3,4 -25,0 -26,-1 0,-1 0,-1 0,-1 -2,-1 -6,-3 -9,-4 -20,-9 -42,-29 -46,-52 -3,-14 3,-25 4,-39z"/>
     <path class="fil10" d="M655 160c0,2 0,3 -1,3 -1,1 -1,2 -2,1 -1,0 -7,-5 -7,-5 -1,-1 -1,-3 -1,-4 1,-4 2,-14 7,-14 8,0 6,15 4,19z"/>
     <path class="fil11" d="M666 167c-4,-2 -8,-2 -12,-4 0,0 1,-1 2,-1 6,-4 14,-5 10,5z"/>
     <path class="fil12" d="M656 162c0,0 -1,1 -2,1 0,0 0,0 0,0 0,-1 1,-2 1,-3l1 2z"/>
     <path class="fil6" d="M576 639l1 2c1,14 1,29 1,43 0,1 0,2 0,3 0,1 -1,2 -1,3 0,6 0,16 1,21 -1,7 -12,7 -16,3 -5,-7 -12,-11 -19,-12l-2 -1c1,-1 1,-3 1,-5 0,-1 -1,-2 -1,-3 0,-9 0,-18 0,-27 -1,-10 -1,-21 -1,-32 1,1 11,4 13,4l13 0c3,0 6,1 10,1z"/>
     <path class="fil6" d="M662 700c0,2 0,5 0,8l-2 0c-7,-9 -25,-8 -31,2l-2 0c-1,-5 -1,-10 -1,-15 -1,-1 -1,-2 -1,-2 -2,-15 -3,-30 -6,-45 13,1 26,1 36,-7 1,18 5,35 6,53 1,2 1,4 1,6z"/>
     <path class="fil13" d="M541 701c18,-2 19,20 34,12 1,0 2,-1 3,-2 0,3 2,5 2,9l0 11c-14,11 -32,19 -49,19l-1 -4 -1 -1c-2,-9 -7,-19 -16,-21l-1 -2 -1 -1c3,-1 8,-2 11,-4 1,-1 2,-1 3,-1 7,6 17,11 2,1l0 -2c-1,-1 1,-3 2,-4 0,0 1,0 1,0l1 1c3,-1 7,4 10,6 3,1 -4,-5 -6,-6 -2,-1 -3,-2 -3,-3 1,-4 5,-8 9,-8z"/>
     <path class="fil13" d="M662 708c4,6 5,20 7,27 2,5 4,10 5,16 0,0 0,0 -1,0l-2 0c-11,-10 -29,-8 -39,2l-2 1c-1,0 -1,1 -2,0 -4,-2 -4,-27 -3,-33 0,-3 1,-9 2,-11 5,-11 28,-14 35,-2z"/>
     <path class="fil8" d="M512 722c10,1 17,15 18,24 1,2 1,3 1,4 -13,2 -26,1 -38,-3l0 -3c0,-3 -1,-5 0,-9 2,-8 10,-14 19,-13z"/>
     <path class="fil14" d="M493 744c11,8 25,5 37,5 0,-1 0,-2 0,-3 1,0 0,3 1,3 1,0 7,-1 8,-1 15,-2 29,-10 41,-18 0,0 0,-8 0,-10l1 14c0,7 -6,9 -12,12 -18,8 -42,13 -62,10 -7,-1 -14,-2 -15,-10 0,-1 1,-1 1,-2z"/>
     <path class="fil14" d="M630 754l1 1c2,20 37,27 41,5l2 -1c0,-2 1,-2 1,-1 1,7 0,14 -5,19 -9,4 -8,5 -18,5 -3,-1 -6,0 -8,-1 -21,-6 -22,-43 -19,-60 0,10 1,20 3,30 0,1 0,2 2,3z"/>
     <path class="fil15" d="M532 709c3,0 13,8 11,11 -4,1 -4,-2 -6,-4 -2,-2 -4,-3 -6,-4l-1 -1c0,0 -1,0 -1,0 -3,0 0,-3 3,-2z"/>
     <path class="fil16" d="M527 715c2,1 11,6 9,9 -2,3 -10,-7 -14,-7 1,0 1,-3 5,-2z"/>
     <path class="fil17" d="M468 361c0,4 18,30 22,35 3,3 6,10 11,11 5,0 23,-10 29,-12 9,-4 19,-8 29,-13 0,0 1,0 1,0l1 0c10,15 25,32 27,51 0,6 -1,12 0,18 1,24 6,48 20,67 7,9 15,16 21,24l0 2c-3,4 -5,10 -6,15l-1 1c-18,0 -36,0 -53,-5 -4,-1 -14,-4 -17,-7 -9,-10 0,-33 0,-46 0,0 0,0 0,0 1,-3 1,-8 1,-11 -1,-7 -3,-16 -3,-24 0,-7 3,-14 3,-21 0,-2 0,-5 0,-8 -9,3 -17,6 -26,9 -11,2 -28,7 -38,4 -10,-3 -24,-26 -29,-35 -7,-11 -13,-23 -18,-34 9,-1 17,-5 22,-13l4 -8z"/>
     <path class="fil13" d="M657 538c0,0 4,3 4,3l3 1c1,0 1,0 0,2 3,0 1,7 1,9 0,-1 0,-2 0,-2 3,0 20,0 22,0l1 2c2,0 3,7 2,8 -4,-1 -6,-1 -9,0 -4,-2 -6,-2 -8,1 -7,-3 -9,2 -9,8 1,2 1,4 1,5 -2,4 -7,4 -6,9 0,0 -1,-2 0,-3 -17,9 -37,-2 -37,-21 0,-6 3,-14 7,-18 0,0 3,-1 4,-2 0,-4 8,-5 11,-6 4,0 12,0 13,4z"/>
     <path class="fil18" d="M600 608l-1 -1c0,-1 0,-3 1,-4l0 0c0,2 0,3 0,5z"/>
     <path class="fil19" d="M675 758l-1 1c-2,-1 -2,-5 0,-5l-1 -3c0,0 0,0 0,0l1 0c1,2 1,4 1,7z"/>
     <path class="fil17" d="M636 382c3,0 14,7 17,9 4,3 6,7 10,10 1,1 1,3 2,4 1,1 -1,2 -2,2l1 60c-1,3 -3,2 -5,-2l-2 0c1,8 1,16 0,24 0,16 0,33 0,49 -8,-4 -17,-3 -24,2 -1,-1 -1,-2 -2,-3 -6,-8 -13,-14 -19,-21 -16,-22 -20,-49 -20,-75 -1,-14 11,-27 20,-37 7,-5 13,-10 17,-17 2,-2 3,-6 7,-5z"/>
     <path class="fil20" d="M574 391c-1,-1 4,-3 5,-3 12,-1 23,-1 34,0 2,0 6,1 6,3 -7,6 -13,12 -18,19 -4,3 -13,3 -16,-1 -3,-5 -8,-13 -11,-18z"/>
     <path class="fil21" d="M586 374c6,0 11,0 17,0 6,0 11,0 16,3 0,0 -3,0 -1,-2 2,2 6,2 8,4 2,0 2,0 2,1 -1,2 -2,3 -3,4 -2,3 -4,4 -6,2 -14,-4 -30,-3 -45,0l-2 -2c-3,-2 1,-5 4,-6 1,-2 7,-4 10,-4z"/>
     <path class="fil22" d="M572 384c3,0 5,0 7,0 12,-2 20,-3 31,-1 2,0 9,1 10,1 1,1 1,3 2,2 0,0 2,-2 3,-2 -1,3 -4,5 -6,7l-6 -2c-11,0 -23,-1 -34,0l-5 2c-1,-1 -2,-2 -3,-4 -1,-2 -1,-3 1,-3z"/>
     <path class="fil7" d="M667 318c-2,2 -3,1 -4,0 0,-1 -1,-2 -1,-3 1,-3 2,-18 3,-18 5,-4 13,3 9,9 -1,2 -4,3 -5,4 0,0 -2,7 -2,8z"/>
     <path class="fil23" d="M601 410l-11 15c-1,-5 -3,-11 -5,-16 5,2 10,2 16,1z"/>
     <path class="fil24" d="M648 340c-1,0 0,-2 1,-2 2,-3 4,-6 5,-9 2,-2 4,-8 6,-9 2,0 1,1 1,3 0,3 -3,12 -4,15 -1,0 -2,1 -3,1 -2,1 -5,1 -6,1z"/>
     <path class="fil25" d="M629 387c-2,8 -10,14 -17,17 6,-6 12,-11 17,-17z"/>
     <path class="fil26" d="M576 378c-4,2 -3,3 -4,6 0,1 -1,2 -1,3 -1,-2 -3,-3 -4,-6 -1,-1 0,0 1,-2 2,1 6,0 8,-1z"/>
     <path class="fil27" d="M628 379c1,1 1,1 0,1 -1,0 -1,-1 -2,-1 1,0 2,0 2,0z"/>
     <path class="fil28" d="M420 333c7,2 11,7 15,12 2,1 3,2 3,4 0,1 -1,1 -1,1 1,5 1,11 -1,15 -7,20 -37,21 -45,1 -7,-19 10,-38 29,-33z"/>
     <path class="fil29" d="M448 304c19,-9 40,2 37,25 -1,7 -5,9 -8,14 -5,3 -9,5 -14,6 -1,-5 -2,-21 -9,-21 -2,0 -4,2 -4,2 0,-1 -2,-5 -3,-6 -3,-5 -5,-4 -9,-1l-1 -2c0,-7 5,-14 11,-17z"/>
     <path class="fil30" d="M435 345c0,0 2,-4 2,-4 1,0 2,1 3,0 5,-1 3,-5 4,-6 0,0 4,0 5,-1 0,2 3,5 3,6 -1,2 -12,8 -14,9 -2,0 -3,-2 -3,-4z"/>
     <path class="fil31" d="M442 375c-6,0 -6,-2 -5,-7 1,1 4,4 5,7z"/>
     <path class="fil17" d="M681 430c5,9 16,27 18,37 2,10 3,36 2,47 -1,5 -3,10 -3,15 -3,-1 -4,-3 -7,-4 -5,-2 -15,-1 -21,0 -5,3 -5,-5 0,-4 1,-1 2,-2 4,-1 1,-25 1,-51 0,-77l0 -20c0,-1 -1,-4 1,-3 2,3 4,7 6,10z"/>
     <path class="fil32" d="M675 417c2,5 4,9 6,13 0,0 -1,-1 -1,-1l-5 -9 1 3c-3,31 2,64 -1,95 0,6 -1,3 -3,3 -1,0 -1,3 -4,1 0,3 -1,4 2,3 -2,1 -4,3 -7,5 2,-16 -3,-30 -2,-45 0,-7 4,-14 -3,-20 0,7 0,14 0,22 0,1 -1,2 -1,2 1,-7 -1,-18 0,-24 0,-1 1,-2 2,-1l3 5c0,0 0,-2 0,-2 1,-20 0,-40 0,-60l3 -2c4,3 7,7 10,12z"/>
     <path class="fil6" d="M695 534c1,2 1,4 1,6 0,1 2,1 3,2 1,0 1,0 2,0l0 2c-7,8 -8,18 -3,26l-1 2c-3,0 -6,4 -8,5 -2,0 -4,-1 -5,-1 -2,1 -4,3 -6,3 -4,0 -5,-4 -6,-4 -1,-1 -6,-1 -7,0 -3,-4 -3,-15 3,-15 2,0 3,1 4,1 1,0 1,-3 5,-3 2,0 3,2 4,2 1,0 5,-4 8,1l-1 -8 -23 0c-2,0 0,-7 -1,-9 -1,-1 -1,-2 1,-2 -1,-1 0,-2 1,-2 -1,-1 -2,-3 0,-5 0,0 0,-1 2,-2 7,-3 20,-5 27,1z"/>
     <path class="fil33" d="M668 533c-1,1 -2,2 -2,2 -1,2 -1,4 0,5 0,1 -1,3 -2,4 0,0 -2,-3 -3,-3 1,0 3,2 4,0 0,0 -1,0 -2,-1 -2,-4 1,-5 5,-7z"/>
     <path class="fil8" d="M700 523c1,-3 2,-5 2,-8 2,2 1,8 -2,8z"/>
     <path class="fil34" d="M696 540c-1,-2 -1,-4 -1,-6 3,2 3,3 1,6z"/>
     <path class="fil8" d="M702 513c-1,-1 -1,-4 0,-5 0,2 0,3 0,5z"/>
     <path class="fil8" d="M699 528c-1,-1 0,-1 0,-2l0 2z"/>
     <path class="fil33" d="M663 535c0,0 -1,-1 0,-2 0,0 1,1 0,2z"/>
     <path class="fil35" d="M663 401c6,7 7,8 12,16 -3,-4 -7,-8 -10,-12 -1,-1 -2,-2 -2,-4z"/>
     <path class="fil36" d="M697 572c-6,-9 -4,-22 4,-30 2,-2 10,-5 10,-6 0,0 1,0 1,0 14,-1 26,3 29,18 6,27 -30,42 -44,18z"/>
     <path class="fil3" d="M612 260c4,0 17,0 18,6 0,5 -7,1 -10,1 -6,0 -31,9 -34,0 -1,-6 7,-3 10,-3 5,-1 11,-3 16,-4z"/>
     <path class="fil3" d="M520 256c-3,-2 1,-5 4,-6 7,-1 22,6 28,10 2,2 3,5 0,6 -6,1 -19,-7 -25,-8 -1,-1 -7,-1 -7,-2z"/>
     <path class="fil37" d="M614 364c0,5 1,8 4,11 0,1 1,2 2,2 -1,2 -5,-1 -7,-1 -7,-1 -15,0 -22,0 -2,0 -4,-1 -5,0 -1,-1 0,-1 0,-2 0,-1 0,-1 1,-2 6,0 21,-5 27,-8z"/>
     <path class="fil38" d="M593 330c3,-1 4,2 2,5 -3,5 -15,8 -21,8 -2,0 -11,-2 -12,-4 -1,-5 6,-2 8,-2 6,1 14,0 19,-3 2,-1 3,-3 4,-4z"/>
     <path class="fil39" d="M533 277c4,0 8,0 12,2 2,1 8,5 7,8 -2,4 -7,-2 -10,-3 -4,-2 -9,-2 -12,0 -2,2 -3,5 -6,3 -3,-5 4,-9 9,-10z"/>
     <path class="fil40" d="M618 292c-6,-4 -7,-7 -16,-6 -3,1 -7,4 -9,1 -3,-4 6,-6 8,-6 7,-1 14,0 19,5 6,5 0,8 -2,6z"/>
     <path class="fil41" d="M570 292c2,3 -5,5 -5,9 -1,4 3,13 -2,12 -4,-2 -5,-11 -4,-14 1,-4 9,-10 11,-7z"/>
     <path class="fil42" d="M531 712c-1,0 -1,0 -1,-1 0,0 1,1 1,1z"/>
     <path class="fil8" d="M673 751l0 0 1 3c0,1 0,3 0,5 -2,21 -33,20 -42,3 -1,-2 -3,-6 -2,-8 1,-3 6,-6 9,-8 11,-4 26,-4 34,5z"/>
     <path class="fil43" d="M647 719c3,0 6,1 9,1 2,1 7,2 6,4 -1,3 -5,0 -7,0 -2,-1 -5,-1 -7,-1 -3,0 -12,4 -13,3 0,0 -1,-1 -1,-2 3,-3 9,-4 13,-5z"/>
     <path class="fil44" d="M646 729c2,0 13,0 12,3 -1,2 -8,0 -10,1 -1,0 -8,2 -7,-2 0,0 4,-2 5,-2z"/>
     <path class="fil42" d="M674 754l-1 -3c1,1 1,2 1,3z"/>
     <path class="fil45" d="M671 300c2,0 3,5 0,6 -2,0 -3,-5 0,-6z"/>
     <path class="fil46" d="M666 540c-1,0 -2,-2 -2,-2 -1,-2 1,-2 2,-3 1,1 0,4 0,5z"/>
     <path class="fil47" d="M704 555c-3,-3 0,-10 5,-8 6,3 0,13 -5,8z"/>
     <path class="fil48" d="M205 517c0,1 0,3 0,4 1,2 2,3 1,4l0 2c-11,2 -35,10 -33,24 0,2 1,4 1,6 2,-1 7,5 6,7l3 0c11,10 25,15 38,20l2 2 3 0c38,14 76,20 115,25 2,0 4,1 6,2 1,-1 1,-1 2,-1 2,-1 19,0 22,1 1,0 2,1 3,1 1,0 2,1 2,1 23,-1 45,-2 68,-4 2,0 4,1 6,1 3,-1 6,-2 10,-1l1 -1c17,-4 35,-8 49,-19 0,-1 1,-2 2,-1 -1,-2 0,-4 0,-6 0,-3 0,-5 0,-7 -2,-1 -4,-3 -6,-6 -19,-16 -44,-24 -67,-32l-1 -1c3,-2 4,-4 2,-6l1 -2c5,-1 12,1 15,5l1 0c1,-1 1,-1 1,1 2,-1 4,-1 5,1 0,0 0,0 0,0l2 1c8,0 16,5 23,8 11,6 22,12 30,22l-1 2c6,1 6,8 5,13 2,0 2,3 2,4 -2,5 -2,6 -6,10 -1,1 -2,3 -4,4 -2,2 -5,4 -8,5 -2,2 -4,3 -6,3 0,1 -1,1 -1,1 -4,2 -10,4 -15,5 0,0 0,0 0,0 -2,1 -5,2 -8,2 0,0 0,0 -1,0l-2 1c0,0 -1,0 -1,0 -5,1 -10,2 -15,2 0,1 0,0 -1,0 0,1 -1,2 -2,2l-15 1c0,0 0,0 0,0l-9 0c-1,0 -2,0 -3,0 -4,2 -9,2 -13,1 0,0 0,1 0,1 -8,0 -20,1 -28,0 -1,0 -1,0 -1,-1 -1,1 -3,1 -6,0 -2,1 -4,1 -6,-1 -2,0 -4,0 -6,0 -4,0 -9,0 -13,1l-2 -1c-20,-1 -41,-4 -61,-8l-1 -2c-1,1 -1,1 -2,0l-2 0c-21,-2 -43,-8 -62,-15l-2 -2c-1,0 -1,0 -2,0 0,0 -1,0 -1,0 -4,-1 -8,-3 -12,-5 -6,-2 -28,-12 -30,-17 0,0 0,-1 0,-1 -1,-1 -2,-1 -2,0 -1,0 -8,-6 -6,-7 0,0 -1,0 -2,0 -20,-27 13,-45 36,-50l2 1z"/>
     <path class="fil4" d="M352 624c0,0 0,1 0,1 -2,1 -9,8 -11,8 0,1 0,0 -1,0l0 2c-10,4 -20,7 -30,8 -1,-1 -2,-1 -3,-1 0,2 -6,3 -7,1 0,0 0,1 0,1 -7,1 -22,1 -28,0l-1 -1c0,2 -7,1 -7,-1 -1,0 -2,0 -3,1 -5,0 -29,-4 -31,-7 -1,-1 -1,-1 -1,-1 -2,1 -7,-2 -8,-4l-2 0c0,-4 0,-8 1,-13 0,0 0,-1 0,-2 -1,-2 0,-3 0,-3l3 -1c41,9 83,11 126,11l3 1z"/>
     <path class="fil6" d="M106 389l0 1c-6,4 -11,10 -12,17l-1 1c-1,0 -1,0 -1,0 -2,-1 -5,-4 -6,-5 -2,-1 -3,-3 -4,-4 -2,-1 -3,-2 -4,-4 -4,-2 -6,-7 -7,-11 -7,-13 -6,-18 4,-15 2,8 2,-3 0,-5l0 -2c-3,-3 -6,-10 -1,-12 0,0 0,0 0,0 3,0 6,0 8,-1 12,3 24,13 23,26 0,5 0,9 1,14z"/>
     <path class="fil6" d="M156 446c-4,-1 -5,-3 -5,-6 1,-6 1,-13 1,-19 -7,-2 -1,-6 3,-2l5 1c1,0 2,0 3,1 1,0 1,0 1,0 6,2 11,4 16,6 1,0 1,0 1,0 3,1 6,2 9,3 0,0 1,0 1,0 3,0 6,1 8,2 1,-2 6,-1 6,1l0 2c-6,5 -9,14 -7,22l-2 1c1,4 -5,1 -7,0 0,0 -1,0 -1,0 -6,-2 -12,-4 -18,-6 0,0 0,0 0,0l-7 -3c0,0 -1,0 -1,0 -3,0 -5,-1 -6,-3z"/>
     <path class="fil49" d="M365 694c0,0 0,1 0,1 1,2 2,4 3,6 0,0 0,1 0,1l1 3c0,0 0,0 0,0l2 3c0,0 0,1 0,1 1,2 2,4 2,7l-2 0c-11,-6 -18,3 -21,13 -2,5 -9,4 -7,-1 -1,-1 -4,-7 -5,-9 0,0 -1,0 -2,-1 -1,-1 -5,-13 -5,-16l0 -2 2 -1c10,2 21,-1 27,-9l2 -1c2,1 2,3 3,5z"/>
     <path class="fil50" d="M196 510c-40,9 -76,35 -29,68 2,2 3,4 2,5l-1 1c-6,-4 -12,-8 -16,-13 -18,-19 -17,-36 6,-50l3 -2c1,0 1,0 1,0l6 -3c0,0 0,0 0,0l5 -2c1,0 1,0 1,0l1 -1c1,0 1,0 1,0 3,-1 5,-1 8,-2 0,0 0,0 1,0 3,-1 7,-2 11,-2l0 1z"/>
     <path class="fil51" d="M181 589c3,0 6,1 8,3l3 -1c9,5 18,8 27,10l2 2c1,0 1,0 0,1 2,3 2,6 -1,9l0 1c-1,-2 -2,-2 -4,-3 0,0 0,0 -1,0 -2,0 -4,0 -6,-2 0,0 0,0 -1,0 -4,-1 -9,-3 -13,-4 -1,-2 -3,-3 -6,-2 -4,-4 -8,-7 -13,-10 -3,-2 -6,-6 -6,-8 0,-1 0,-1 0,-1 2,-1 10,3 11,5z"/>
     <path class="fil52" d="M152 515c-12,8 -26,19 -24,35 1,9 11,23 18,28 1,3 -3,0 -4,-2 -1,0 -1,0 -2,0l-8 -9c0,0 0,0 0,-1l-3 -3c0,0 0,-1 0,-1l-1 -1c0,0 0,-1 0,-1l-1 -1c0,0 0,0 0,0l-1 -3c-1,0 0,-1 0,-1l-1 -1c0,0 0,-1 0,-1l-1 -3c0,0 0,0 0,0 -1,-2 -1,-5 0,-7 0,0 0,-1 0,-1 1,-2 1,-4 2,-6 0,-1 0,-1 0,-1 3,-6 8,-11 14,-15 0,0 0,0 0,0l2 -1c0,0 0,0 0,0l5 -3c0,0 0,0 0,0l5 -2c0,0 0,0 0,0 3,-1 2,0 0,1z"/>
     <path class="fil9" d="M248 809c-4,0 -3,0 -6,1 -5,2 -9,-3 -15,-3 -1,0 -4,1 -5,-1 0,-1 2,0 2,-1 -1,-2 -4,0 -5,0 0,0 0,-1 -1,-2 -2,0 -4,0 -5,-1l35 7z"/>
     <path class="fil9" d="M345 810c-1,1 -3,1 -4,1 -10,1 -22,0 -31,1 -2,0 -1,2 -2,2 -15,-1 -31,-3 -45,-3 -2,0 -4,1 -6,0 -2,0 -3,-2 -7,0l-1 -2c11,0 21,2 32,2 21,1 43,0 64,-1z"/>
     <path class="fil9" d="M169 583c1,0 2,1 1,2 7,13 25,19 38,24 -1,0 -4,0 -5,0 -1,0 -2,-3 -4,-3 -2,0 -4,1 -5,0 2,-4 -5,-2 -6,-2 1,-3 -2,-4 -4,-5 -2,-1 0,0 -1,-1 -5,-4 -7,-1 -11,-7 -6,-10 -13,-11 -20,-20 5,5 10,10 17,12z"/>
     <path class="fil9" d="M371 709c3,2 1,4 3,6 0,1 3,3 3,4 2,3 2,6 6,7 -1,0 -2,-1 -3,-1 -1,0 -1,0 -1,0 -1,0 -8,-8 -6,-9 -1,-2 -2,-5 -2,-7z"/>
     <path class="fil9" d="M194 508c0,0 1,0 2,0 1,0 2,0 3,0 0,1 0,1 0,2 -1,0 -2,0 -3,0 -3,-1 -8,0 -11,1 1,-1 3,-1 5,-1 1,-1 1,-2 2,-2 1,0 1,0 2,0z"/>
     <path class="fil8" d="M548 762c0,1 0,2 0,2 -1,1 -1,1 0,1 0,1 0,2 0,2 -1,0 -1,0 -2,0 -1,-1 -1,-5 2,-5l0 0z"/>
     <path class="fil9" d="M215 611c-1,0 -2,2 -3,0 -1,2 -2,0 -3,-2 2,1 5,1 6,2z"/>
     <path class="fil9" d="M375 806c-2,2 -5,1 -7,1 2,-1 5,-1 7,-1z"/>
     <path class="fil9" d="M152 514c1,-1 2,-2 4,-2 -1,2 -3,3 -4,3l1 -1 -1 0z"/>
     <path class="fil9" d="M357 809c-3,1 -7,1 -11,1 3,-1 8,-1 11,-1z"/>
     <path class="fil9" d="M220 613c0,1 0,3 0,3 -1,-2 -1,-4 -4,-5 2,0 3,2 4,2z"/>
     <path class="fil9" d="M124 550c-1,-2 -1,-5 0,-7 0,2 0,5 0,7z"/>
     <path class="fil9" d="M146 578c0,1 2,0 2,2 -2,1 -5,-2 -6,-4 1,1 2,2 4,3l0 -1z"/>
     <path class="fil9" d="M184 511c-2,1 -5,2 -8,2 2,-2 5,-2 8,-2z"/>
     <path class="fil8" d="M194 460c0,1 1,0 1,0 0,1 0,3 0,3 -2,0 -2,-1 -1,-3z"/>
     <path class="fil8" d="M196 508c-2,0 -1,0 -2,0 0,-1 2,0 2,0z"/>
     <path class="fil9" d="M368 701c-2,-2 -2,-4 -3,-6 3,1 2,4 3,6z"/>
     <path class="fil9" d="M388 803c-1,0 -2,2 -2,2 -4,0 -7,0 -10,1 4,-2 8,-2 12,-3z"/>
     <path class="fil9" d="M367 807c-1,1 -3,1 -4,1 1,-1 3,-1 4,-1z"/>
     <path class="fil9" d="M399 800c-1,0 -2,2 -2,2 -2,1 -5,1 -8,1 3,-1 7,-2 10,-3z"/>
     <path class="fil8" d="M192 508c0,1 -1,1 -2,2 0,-2 1,-2 2,-2z"/>
     <path class="fil9" d="M457 525c0,0 1,0 1,0 1,0 3,1 5,0l-1 1 3 1c-2,2 -10,1 -10,-2 1,0 1,0 2,0z"/>
     <path class="fil9" d="M443 522l0 1c0,2 -4,2 -4,-1 1,0 1,0 1,0 1,0 3,0 3,0z"/>
     <path class="fil9" d="M362 808c0,0 -2,0 -3,1 0,-2 2,-1 3,-1z"/>
     <path class="fil9" d="M124 542c0,-2 0,-5 2,-6 0,2 -1,4 -2,6z"/>
     <path class="fil9" d="M125 553c0,-1 -1,-1 -1,-3l1 3z"/>
     <path class="fil9" d="M168 516c-2,2 -4,2 -6,3 1,-2 4,-2 6,-3z"/>
     <path class="fil9" d="M481 531c1,0 2,0 2,1 0,2 -5,1 -4,-1 1,0 1,0 2,0z"/>
     <path class="fil9" d="M173 514c-1,1 -3,1 -5,2 2,-2 4,-2 5,-2z"/>
     <path class="fil9" d="M404 799c-1,1 -3,1 -4,1 1,-1 2,-1 4,-1z"/>
     <path class="fil9" d="M126 535c2,-6 9,-12 14,-15 -6,5 -10,9 -14,15z"/>
     <path class="fil9" d="M161 519l-3 2c1,-1 2,-1 3,-2z"/>
     <path class="fil9" d="M126 555c0,0 -1,0 -1,-1l1 1z"/>
     <path class="fil9" d="M127 559c0,-1 -1,-2 -1,-3l1 3z"/>
     <path class="fil9" d="M142 519c1,-2 3,-2 5,-3 -1,2 -3,2 -5,3z"/>
     <path class="fil9" d="M152 514c-2,0 -3,1 -5,2l5 -2z"/>
     <path class="fil9" d="M132 566c-2,0 -2,-2 -3,-3 1,1 2,2 3,3z"/>
     <path class="fil9" d="M175 513l-1 1c0,0 0,-1 1,-1z"/>
     <path class="fil9" d="M369 705l-1 -3c0,0 1,1 1,3z"/>
     <path class="fil9" d="M371 708l-2 -3c0,1 1,2 2,3z"/>
     <path class="fil6" d="M226 272l1 -2c3,-1 6,-3 9,-6 1,-1 3,-1 3,0 2,16 12,25 27,30 3,1 18,5 21,5 2,0 -2,-17 -5,-18l0 -2 0 -1c2,-1 4,1 6,4 3,5 7,10 13,12 10,1 17,6 22,12 2,7 4,15 5,22 1,7 3,8 7,2 21,-3 20,23 14,37 -2,4 -6,10 -11,9 0,1 1,2 0,2 -3,0 -5,1 -8,1 -5,13 -20,31 -34,37 -1,0 -2,0 -3,0 -4,5 -12,9 -19,11l-2 -1 -2 1c-1,2 -2,2 -3,0 -1,1 -1,1 -1,0l-3 1c-5,3 -13,2 -19,1 -15,-4 -27,-12 -38,-22l-1 -1c0,0 0,0 0,0 0,-1 0,-1 0,-1 0,0 1,-1 0,-1 -4,-4 -7,-9 -10,-14 -2,-3 -2,-12 1,-11 2,1 2,6 0,6l0 -2c1,0 10,0 10,2 0,0 -1,0 -1,-1 -1,-7 -1,-16 0,-23l1 -1c-3,-2 0,-7 2,-2 2,1 5,2 7,4 1,0 2,-1 3,-1 13,-2 15,-11 11,-22l0 -1c-1,-9 -15,-16 -21,-6l-2 0c0,0 -1,0 -1,-1l0 -9c-4,-1 -5,-2 -2,-5 -1,-2 2,-4 3,-5 3,-3 7,-3 11,-3 26,2 -2,-9 -10,-3l-1 -1c-1,-10 -2,-20 0,-30 6,-1 13,-1 20,-3z"/>
     <path class="fil9" d="M140 576c-2,-3 -6,-6 -8,-9l8 9z"/>
     <path class="fil9" d="M358 674c1,0 1,0 0,1l0 -1z"/>
     <path class="fil9" d="M129 562c0,0 -1,0 -1,-1l1 1z"/>
     <path class="fil9" d="M128 560c0,0 -1,0 -1,-1l1 1z"/>
     <path class="fil9" d="M140 520c0,0 1,-1 2,-1l-2 1z"/>
     <path class="fil9" d="M113 429c0,0 0,0 0,1l0 -1z"/>
     <path class="fil9" d="M469 496c0,0 0,0 0,0l0 0z"/>
     <path class="fil53" d="M373 716c2,2 5,6 7,9 5,7 11,13 17,20l-2 1c-11,0 -24,7 -29,17 -2,11 -7,5 -12,-1 -5,-7 -10,-14 -11,-24l-1 0c-1,-2 -1,-6 -1,-9 0,-2 0,-2 2,-1 6,10 8,-7 11,-10 4,-6 14,-7 19,-2z"/>
     <path class="fil54" d="M262 725c1,3 3,8 3,11 1,10 0,19 -2,28l-2 1 -1 0c-3,-4 -7,-6 -12,-8l-1 1c-9,-2 -19,-2 -26,5l-2 0c2,-13 8,-26 10,-39 0,0 0,-1 0,-1 2,-8 13,-10 20,-9 6,1 14,5 13,11z"/>
     <path class="fil55" d="M219 763c8,-9 19,-9 29,-6 5,2 9,4 12,8l1 0c1,-4 2,-10 3,-14 0,-5 0,-10 1,-15 2,13 0,40 -10,49 -9,9 -31,9 -36,-4 -3,-7 -1,-12 0,-18z"/>
     <path class="fil56" d="M342 738c0,0 -1,-3 1,-2 1,8 6,18 12,25 1,1 6,7 7,7 1,1 2,-4 2,-5 5,-10 18,-18 29,-19 1,0 2,0 4,1 9,12 15,27 -4,34 -25,10 -51,-17 -51,-41z"/>
     <path class="fil57" d="M262 696c1,8 1,15 1,23l4 0c-1,1 -3,2 -5,1 2,2 0,5 0,5 -6,-12 -26,-14 -33,-2 1,-7 0,-16 0,-23 1,-1 1,-2 2,-2 1,0 1,0 1,0 0,1 0,1 0,0l2 0c9,3 18,2 26,-2l2 0z"/>
     <path class="fil9" d="M548 765l-1 0 1 -1c0,1 0,1 0,1z"/>
     <path class="fil4" d="M225 573c2,0 4,1 6,3 22,13 68,11 90,0 3,-2 5,-3 7,-3 1,0 2,0 2,1 2,3 7,11 8,15l0 2c3,7 6,14 9,22 -42,-4 -84,-12 -124,-27 -2,-4 -1,-10 2,-13z"/>
     <path class="fil58" d="M394 518c15,2 30,6 44,10l3 2c3,3 2,8 -3,8 -13,-4 -27,-6 -40,-9l-2 1c-23,-5 -47,-8 -72,-10l-4 -1c-2,-1 -3,-7 -1,-9 1,0 2,0 3,-1 1,0 2,0 3,0 23,1 47,4 69,9z"/>
     <path class="fil51" d="M512 590c-1,0 -2,0 -2,0 -2,2 -4,4 -6,5 -14,8 -31,13 -47,15 -2,1 -4,2 -7,2 -24,3 -48,3 -72,3 -1,0 -3,0 -4,-1 37,-1 104,-13 134,-33 1,-1 4,-2 4,-4 3,5 3,8 0,13z"/>
     <path class="fil59" d="M290 613c7,1 20,4 28,5 10,2 20,2 30,3 1,0 4,1 4,2 0,0 0,1 0,1 -35,0 -70,0 -104,-6 -9,-1 -18,-3 -28,-5 1,-3 1,-6 1,-9l3 -1c22,5 44,9 66,10z"/>
     <path class="fil60" d="M399 517l1 -1c7,3 14,4 21,2l2 1c0,0 4,2 7,2 0,0 0,0 0,0 3,0 5,0 8,1 1,0 1,0 1,0 1,1 3,1 4,1 0,0 0,0 1,0l10 2c0,0 1,0 1,0 3,1 7,2 10,2 0,0 0,0 0,0l2 1c0,0 1,0 1,0l5 1c0,0 1,0 1,0 2,0 3,0 4,2 1,0 1,0 1,0 1,0 3,1 4,1 0,0 0,0 1,0 2,0 3,1 4,1 0,0 0,0 1,0 5,2 9,3 14,6 0,0 0,0 0,0 8,5 18,9 23,17 1,2 1,4 1,5l-1 0c-6,-4 -6,-4 -2,1 3,2 4,3 3,6 -1,0 -3,-1 -5,-3 0,1 -1,2 -2,2l-2 -1c0,-9 -11,-14 -18,-17 -11,-5 -22,-8 -33,-11l0 -1 -2 -1c0,1 0,1 0,0 -2,0 -4,0 -7,0 0,-1 -1,0 -1,-1 0,-1 0,-1 -1,0 -5,-2 -10,-4 -15,-5 -15,-4 -30,-8 -46,-11 -1,0 -1,-1 -1,-1 -2,0 -2,-1 0,-1 1,-1 3,0 5,0z"/>
     <path class="fil60" d="M213 533c3,0 6,5 5,7 -3,1 -6,2 -9,3 -11,5 -22,11 -29,21 -3,-3 -4,-4 -6,-7 11,-11 25,-20 39,-24z"/>
     <path class="fil61" d="M286 613l2 0c1,0 1,0 2,0 0,0 -1,1 -1,1 -23,-1 -46,-5 -68,-10 0,-1 0,-1 0,-1 0,-2 1,-5 1,-7 21,8 42,12 64,17z"/>
     <path class="fil62" d="M227 522c-1,1 -4,2 -7,2 -4,1 -7,2 -10,1 -1,0 -3,0 -4,0 -2,-2 -3,-3 -2,-6 0,-1 1,-1 1,-2 0,0 0,-1 0,-1 4,-1 17,-5 21,-4 0,0 1,0 1,0 2,2 3,8 0,10z"/>
     <path class="fil63" d="M177 573l-2 -1c0,1 0,2 0,3 0,2 -7,2 -8,1 0,-4 0,-7 2,-10 2,2 6,5 8,7z"/>
     <path class="fil64" d="M465 536c-1,0 -2,0 -2,1 -2,-1 -3,-1 -5,-1 2,-2 5,-1 7,0z"/>
     <path class="fil59" d="M288 613c-1,0 -2,0 -2,0l2 0z"/>
     <path class="fil64" d="M456 535c1,-1 2,-1 2,0 0,0 -1,0 -1,0l-1 0z"/>
     <path class="fil64" d="M465 538c-1,-1 -1,-1 -2,-1l2 1z"/>
     <path class="fil6" d="M340 633c7,19 15,38 22,56 -7,10 -20,14 -31,11 -7,-19 -15,-37 -22,-56 -1,-2 0,-2 -2,-2 9,-1 25,-5 33,-9z"/>
     <path class="fil65" d="M264 642c-2,0 -1,1 -2,3 0,16 0,34 0,51 -9,6 -20,6 -30,2 0,1 0,1 0,0 -1,0 -1,0 -1,0 -1,-1 -1,-1 -2,-2 0,-3 1,-8 1,-12 -1,-2 -1,-3 -1,-5 -1,-15 0,-30 0,-44 10,4 24,6 35,7z"/>
     <path class="fil66" d="M106 389c2,-1 5,0 6,3 -10,2 -16,13 -15,23 -4,-2 -5,-4 -4,-7 0,-6 4,-13 8,-16 1,-1 5,-3 5,-3z"/>
     <path class="fil67" d="M117 427c-6,-2 -1,-13 2,-17 2,-3 8,-10 12,-5 0,0 -1,1 1,0 1,1 1,3 2,3l26 12c-2,0 -4,0 -5,0 -1,-1 -2,-3 -5,-2 0,3 2,1 3,2 1,3 -1,19 0,23 0,1 2,3 3,3 -13,-4 -26,-11 -38,-18 1,0 1,0 -1,-1z"/>
     <path class="fil68" d="M205 406l2 -1c15,15 35,26 56,23l3 -1c0,0 0,0 1,0 2,1 1,5 -1,5l-1 2c0,2 -8,3 -10,1 0,2 -4,2 -4,0 -1,1 -2,1 -2,1 -4,2 -32,0 -36,-2 -1,0 -1,-1 -2,-1 -2,1 -5,3 -6,0 -2,0 -4,-1 -6,-1 1,-9 5,-17 6,-26z"/>
     <path class="fil69" d="M211 433l0 2c-9,9 -9,23 -5,35l-1 2c-5,3 -10,-4 -8,-9 0,-1 0,-3 -1,-5 0,0 0,-1 0,-3 0,-8 2,-17 9,-22 1,0 4,0 6,0z"/>
     <path class="fil68" d="M197 463c0,1 0,2 0,3 2,5 4,4 8,6l3 -1c8,2 16,4 24,5 -1,12 -2,23 -3,35l-2 1c-6,2 -12,3 -19,4 -1,0 -2,1 -3,0 0,-3 -2,-5 -3,-7 0,-5 -2,-9 -3,-14 -2,-9 -3,-20 -3,-29 0,-2 -1,-3 1,-3z"/>
     <path class="fil70" d="M175 575c0,0 0,0 0,1l1 2c2,4 4,6 7,9 3,2 1,3 -1,0 -6,0 -12,-4 -15,-9 0,0 0,-2 0,-2 3,-2 6,-1 8,-1z"/>
     <path class="fil71" d="M295 211c38,7 69,39 74,77 4,28 -4,59 5,86 8,22 25,40 39,58 7,10 13,22 20,32l2 3c-4,1 -4,3 -5,6l-2 1c-3,-2 -5,-5 -7,-8 -16,-20 -34,-34 -54,-49 -14,-10 -24,-25 -29,-41 9,-3 14,-19 14,-27 -1,-8 -6,-21 -16,-17 -2,0 -4,5 -6,4 -5,-3 -5,-20 -7,-25 -5,-16 -19,-12 -30,-20 -4,-4 -4,-9 -11,-13 -1,-1 -1,-1 0,1 5,6 7,14 6,21 -23,-4 -47,-8 -50,-36 -4,4 -7,6 -12,8l-8 2c-6,0 -15,0 -20,5 -1,2 -2,3 -3,5 -4,13 -3,27 -2,41l-1 3c-13,-15 -18,-34 -10,-51 1,-2 4,-6 3,-7 -7,3 -16,0 -21,-6 -2,-1 -7,-8 -8,-9 0,-1 1,-1 1,-1 12,-3 17,-1 28,-8 2,-2 2,-4 0,-7 -1,-1 -4,-7 -3,-7 9,3 18,-1 27,-3 3,-1 6,0 8,-1 2,-1 6,-4 8,-6 21,-13 46,-17 70,-11z"/>
     <path class="fil72" d="M182 587c3,2 2,3 -1,2l-11 -4c-1,-1 -1,-1 -1,-2 -1,-1 -2,-3 -2,-5 5,4 9,7 15,9z"/>
     <path class="fil73" d="M189 592c-2,-1 -6,-1 -8,-3 2,0 2,0 1,-2 1,1 3,2 1,0 2,2 5,3 6,5z"/>
     <path class="fil67" d="M439 477c0,0 1,0 2,-1 4,-4 13,-15 18,-17 5,-2 5,2 7,3 0,1 5,-2 7,2 1,3 -1,4 -1,5 0,0 3,1 2,5 -1,2 -4,3 -5,5 5,-2 9,1 7,6 -1,1 -10,7 -12,9 -7,6 -14,15 -23,16 -6,1 -12,0 -18,1 -6,0 -7,-2 -8,-7 -1,-7 0,-22 10,-18 1,-4 2,-8 2,-12l1 0c1,-2 2,-6 3,-7 2,-2 4,0 2,-3 4,5 5,2 4,10 0,3 1,4 2,3z"/>
     <path class="fil74" d="M439 477c-1,1 0,3 -2,2 -1,-1 0,-4 0,-5l2 3z"/>
     <path class="fil67" d="M226 272c-4,2 -9,3 -14,3 -1,0 -4,-2 -5,0 -1,9 -1,19 0,28 0,1 1,1 -1,2 0,0 0,1 -1,1 -2,2 -11,11 -3,11l1 0c0,1 1,2 -1,2 1,2 4,0 4,2 1,2 0,8 0,11l2 1c-1,2 -1,4 -1,7l1 1c-1,5 -1,9 -2,13l1 1c1,0 1,1 0,1l1 1c0,0 0,0 0,0 0,0 0,1 0,1 -1,0 -2,-2 -2,-1 1,1 0,2 0,3l0 25 -10 0 0 -5 -2 4 1 6c-13,-24 -1,-34 -2,-57 0,-2 -1,-4 -1,-5 -2,-13 -2,-28 1,-41 5,-18 19,-12 33,-15z"/>
     <path class="fil9" d="M444 468c0,0 -1,1 -2,1 0,0 1,-1 2,-1z"/>
     <path class="fil75" d="M116 427c-3,-1 -13,-6 -15,-9 -3,-8 6,-22 15,-23 5,3 12,6 16,10 0,3 -2,0 -3,0 -8,-1 -17,17 -12,22 1,1 1,1 -1,0z"/>
     <path class="fil76" d="M117 427c1,0 4,1 1,1 -1,0 -1,0 -2,-1l1 0z"/>
     <path class="fil77" d="M185 246c3,-3 1,-3 0,-7l3 4c-1,2 -2,2 -3,3z"/>
     <path class="fil9" d="M430 521c2,0 4,-1 5,-1 0,0 1,2 3,2 -2,0 -5,-1 -7,-1l-1 0z"/>
     <path class="fil9" d="M455 523c0,0 -1,1 -1,1 -1,-1 0,-2 1,-1z"/>
     <path class="fil9" d="M473 529c-1,0 -4,0 -5,-1 2,0 4,0 5,1z"/>
     <path class="fil9" d="M467 528c-1,0 -1,-1 -2,-1l2 1z"/>
     <path class="fil9" d="M478 531c-1,-1 -3,-1 -4,-2 2,0 2,-3 4,2z"/>
     <path class="fil78" d="M382 729c2,4 -8,4 -10,4 -5,2 -6,4 -9,6 -5,3 -3,-3 1,-6 3,-2 16,-6 18,-4z"/>
     <path class="fil79" d="M369 744c-1,-1 -1,-2 0,-3 1,-2 13,-7 14,-4 1,3 -3,3 -5,3 -4,1 -6,4 -9,4z"/>
     <path class="fil80" d="M255 740c0,0 -10,-4 -13,-4 -3,0 -8,3 -10,3 -2,0 -3,-2 -1,-3 5,-3 15,-3 20,-1 1,0 6,3 4,5z"/>
     <path class="fil81" d="M249 743c0,1 0,2 0,3 -2,0 -5,-1 -7,-1 -3,0 -9,3 -8,-1 1,-3 14,-2 15,-1z"/>
     <path class="fil82" d="M261 765c0,1 -1,2 -1,1 0,0 -1,-1 -1,-1 -1,-1 -5,-5 -6,-6 -2,0 -4,0 -5,-2 6,2 9,4 13,8z"/>
     <path class="fil9" d="M232 698l0 0 0 1c0,0 0,0 0,-1z"/>
     <path class="fil68" d="M398 529l11 20c-15,6 -31,7 -45,-3 -1,1 -2,-1 -2,-2 -2,-1 -2,-1 -1,0 0,0 0,0 0,1l1 0c1,0 1,1 1,2 4,9 6,17 4,26 -1,4 -7,16 -11,17 -5,2 -13,1 -18,1 -3,-6 -7,-12 -10,-18l0 -2c2,-2 4,-4 5,-6 -6,-14 -11,-28 -14,-43 0,0 0,-1 0,-1 1,-1 1,-2 1,-2 23,1 45,4 68,8 3,0 7,2 10,2z"/>
     <path class="fil83" d="M364 546l-1 1c0,0 -1,-1 -1,-2l-1 0c0,0 0,-1 0,-1l1 0c1,0 1,2 2,2z"/>
     <path class="fil84" d="M251 435l1 2c-3,33 49,29 55,3l1 -1c1,0 1,-1 2,-1 4,0 28,17 33,20l2 3 -1 2c-13,3 -18,21 -14,32l-1 2c-3,1 -8,0 -10,-3 1,5 2,12 0,16 1,3 1,6 1,9 2,16 8,31 14,46 0,2 -4,6 -6,8 -18,16 -70,16 -92,7 -4,-1 -8,-4 -11,-7 0,-4 2,-23 0,-26l-1 -2c1,-8 2,-15 2,-22l1 -1c1,-3 0,-7 0,-10 1,-2 1,-5 1,-8 1,-9 2,-18 3,-27 -9,-1 -18,-3 -26,-5 -5,-13 -4,-29 6,-39 14,2 26,3 40,2z"/>
     <path class="fil85" d="M227 522c0,4 -1,10 0,15l-2 10c-1,-2 -5,-5 -7,-7 -1,-2 -4,-5 -5,-7 -1,-2 -2,-6 -3,-8 6,-1 11,-3 17,-3z"/>
     <path class="fil68" d="M392 506l1 -1c3,2 5,3 6,5 2,-2 4,-2 4,0l2 0c0,-2 4,-1 4,1 3,-1 9,-1 11,1l3 7c-12,4 -14,0 -24,-2 -2,0 -4,-1 -5,0 0,0 0,1 0,1 0,0 -1,1 -2,1 -24,-5 -48,-8 -73,-9 0,-5 -1,-11 0,-17 3,2 7,3 10,4 2,-2 5,0 6,1 1,-1 3,-2 5,-3 1,-2 2,-3 4,-4l3 0c14,6 29,10 44,13l1 2z"/>
     <path class="fil86" d="M399 517c-2,0 -4,1 -5,0 0,-1 0,-2 0,-2l5 2z"/>
     <path class="fil64" d="M467 537l-2 -1c2,0 2,1 2,1z"/>
     <path class="fil63" d="M176 578c0,-1 0,-1 -1,-2l1 2z"/>
     <path class="fil6" d="M150 442c-1,1 -3,-1 -3,-2 -2,0 -5,1 -5,-1 2,-2 9,1 9,1 0,1 -1,2 -1,2z"/>
     <path class="fil87" d="M293 416l1 2c-5,8 -2,17 8,17l1 2c2,3 -3,12 -8,12l0 1c-1,4 -8,6 -12,7 -10,2 -22,0 -27,-9 -2,-4 -4,-10 -1,-13 3,0 8,0 10,-1l1 -2c1,-1 1,-3 1,-5 1,0 2,0 3,0l2 -1c7,-2 15,-6 21,-10z"/>
     <path class="fil7" d="M255 435c-2,23 25,27 40,15l0 -1c4,-3 7,-7 8,-12 1,-2 5,-1 5,2 -4,30 -64,32 -57,-4 1,0 3,0 4,0z"/>
     <path class="fil88" d="M266 427l-3 1c0,0 2,0 3,-1z"/>
     <path class="fil88" d="M265 434c0,0 1,-2 1,-2l-1 2z"/>
     <path class="fil68" d="M338 376c2,0 2,1 2,2 12,30 25,36 49,54 15,12 29,26 39,42 0,2 0,12 -2,12 -1,0 -1,0 -1,0l-3 -1c-4,1 -9,0 -12,-2 -1,1 -2,1 -2,-1 -2,2 -4,2 -5,0 -2,0 -5,0 -8,0 -1,0 -1,0 -2,0 -1,0 -2,0 -2,0 -13,-4 -27,-9 -39,-15 -1,-1 -1,-1 -2,-2 0,0 -1,-1 -1,-2 -3,1 -4,0 -4,-2 -13,-7 -23,-16 -37,-22 -3,-2 -2,-2 -5,-2 -6,-2 -11,-2 -12,-9 -1,-5 0,-8 2,-12 16,-9 27,-19 35,-36 0,-1 0,-2 1,-2 0,-1 7,-1 9,-2z"/>
     <path class="fil89" d="M282 278l0 1c0,-1 -2,-2 -3,-3 2,0 3,2 3,2z"/>
     <path class="fil90" d="M425 486c-2,0 -3,-1 -5,0 -5,4 -5,21 -1,23 1,1 3,0 4,2 -1,0 -3,1 -3,1 -3,0 -8,-1 -11,-1 2,-4 2,-8 0,-13l2 -10c0,-2 -1,-4 -1,-5 5,1 10,1 15,3z"/>
     <path class="fil8" d="M229 336l0 1c1,0 1,0 0,1 8,12 1,28 -14,24 -1,-1 0,-1 2,-1l0 -2c4,0 8,-9 3,-9l-2 -1c1,-9 -5,-6 -8,-1l-2 1c0,2 0,3 0,5 1,0 1,0 0,0 2,3 3,6 0,3 0,0 0,0 0,0l-1 -1c0,0 0,-1 0,-1l-1 -1c-1,-5 -1,-9 1,-14 -2,-3 3,-7 6,-8 5,-3 14,-2 16,4z"/>
     <path class="fil91" d="M206 305c1,-1 8,-2 10,-2 3,0 14,1 13,6 -1,4 -9,1 -13,1 -6,1 -10,2 -13,7 -1,2 -4,2 -5,0 -1,-5 4,-11 8,-12z"/>
     <path class="fil92" d="M229 338c0,-1 1,-1 0,-1l0 -1c-6,-7 -18,-5 -22,4 -3,0 -1,-5 -1,-8 5,-11 19,-6 23,3 1,0 2,2 0,3z"/>
     <path class="fil6" d="M196 357c-1,0 0,-2 -1,-3 0,0 -2,0 -2,-1 0,-2 1,-6 1,-8 2,3 2,8 2,12z"/>
     <path class="fil93" d="M207 355c0,0 0,0 -1,-1l1 1z"/>
     <path class="fil6" d="M191 375c0,0 -1,-1 -1,-2 0,0 1,1 1,2z"/>
     <path class="fil93" d="M208 354c2,1 3,2 4,4 2,1 4,2 5,3 -1,0 -2,1 -2,1 -4,-1 -4,-2 -7,-4l0 -1 1 1c0,-1 -1,-2 -1,-4z"/>
     <path class="fil93" d="M208 357c-1,-1 -1,-1 -1,-1 0,0 1,0 1,1z"/>
     <path class="fil8" d="M298 336c6,11 1,25 -13,25l-2 -1 -1 0 0 -1c2,0 4,0 5,-1l0 -2c2,-2 4,-5 3,-8 -4,-1 -5,-3 -4,-7 -4,-1 -6,1 -8,4l-1 0c-2,3 -2,6 0,9 3,6 0,4 -3,0 0,0 1,-1 0,-1l0 -1c-1,-6 -2,-10 0,-15 -1,-2 1,-5 3,-6 6,-6 19,-5 21,5z"/>
     <path class="fil94" d="M275 302c6,0 13,1 18,3 3,2 11,7 10,11 -2,5 -5,0 -8,-1 -6,-3 -13,-6 -21,-6 -3,0 -9,2 -9,-2 -1,-3 7,-5 10,-5z"/>
     <path class="fil95" d="M234 394c1,-2 6,1 8,2 9,2 16,1 25,-2 2,0 9,-4 10,-5 1,-1 0,-4 3,-4 1,0 7,5 7,6 0,4 -5,1 -6,1 -2,0 -8,5 -11,6 -9,4 -22,5 -32,1 -2,0 -7,-2 -4,-5z"/>
     <path class="fil92" d="M298 336c-5,-10 -19,-9 -24,1 -1,1 -1,1 -1,-1 0,-4 0,-8 3,-11 4,-4 12,-3 17,0 2,2 6,7 5,11z"/>
     <path class="fil38" d="M249 352c2,3 -3,6 -4,9 -1,5 2,8 2,10 0,4 -5,0 -7,-2 -2,-5 -1,-11 3,-15 1,-1 5,-3 6,-2z"/>
     <path class="fil96" d="M287 358c-1,1 -4,2 -5,2 -3,0 -6,-4 -8,-6l4 3c-2,-5 -4,-7 -1,-12l1 1c-2,5 1,12 8,11l1 1z"/>
     <path class="fil97" d="M284 371c1,-1 5,3 1,4 -1,0 -2,-3 -1,-4z"/>
     <path class="fil98" d="M262 360c1,2 -3,4 -4,2 -1,-3 3,-2 4,-2z"/>
     <path class="fil99" d="M222 378c3,0 3,3 1,4 -1,0 -3,-3 -1,-4z"/>
     <path class="fil100" d="M235 376c0,0 -3,-1 -3,-2 1,-3 4,0 3,2z"/>
     <path class="fil101" d="M210 373c-2,-2 2,-5 3,-2 0,1 -3,2 -3,2z"/>
     <path class="fil102" d="M221 368c1,-1 2,2 0,3 -1,0 -2,-3 0,-3z"/>
     <path class="fil103" d="M294 366c1,1 1,3 0,3 -4,1 -1,-4 0,-3z"/>
     <path class="fil104" d="M276 364l-2 0 0 -3 1 0c1,1 1,2 1,3z"/>
     <path class="fil105" d="M267 373c1,1 -2,5 -2,2 -1,-2 1,-2 2,-2z"/>
     <path class="fil106" d="M231 364c1,1 -1,4 -2,1 -1,-2 1,-2 2,-1z"/>
     <path class="fil96" d="M285 361c-1,0 -2,0 -2,-1l2 1z"/>
     <path class="fil96" d="M274 353c0,0 0,0 0,-1l0 1z"/>
     <path class="fil88" d="M272 426c-1,1 -1,1 -2,1 0,-1 1,-1 2,-1z"/>
     <path class="fil107" d="M362 544l-1 0c0,0 -1,0 -1,-1l2 1z"/>
     <path class="fil107" d="M362 545c-1,0 -1,0 -1,0l1 0z"/>
     <path class="fil69" d="M345 461c1,1 2,2 4,2l-1 2c-8,3 -13,12 -14,20l-1 1c1,2 2,4 1,7 1,2 2,4 1,5 -2,0 -4,-1 -6,-1 -6,-12 2,-34 16,-36z"/>
     <path class="fil108" d="M277 481c2,2 4,4 7,5 1,0 3,0 4,0 2,-1 4,-2 5,-4 1,-1 2,-1 3,1 -1,8 -15,8 -20,2 -3,-3 -3,-8 1,-4z"/>
     <path class="fil109" d="M291 481c0,2 -3,4 -5,3 0,0 -1,0 -1,0 -3,-1 -7,-2 -6,-6 2,-4 12,-3 12,3z"/>
     <path class="fil110" d="M285 484c-3,0 -8,-2 -6,-6 -1,4 3,5 6,6z"/>
     <path class="fil110" d="M291 481c0,0 0,2 -1,2 0,1 -2,1 -2,2 3,1 3,-2 5,-3 -1,3 -3,3 -5,4l-2 -2c3,0 4,-1 5,-3z"/>
     <path class="fil110" d="M284 486c-3,-1 -6,-2 -7,-5 2,1 3,4 7,5z"/>
     <path class="fil6" d="M395 482l1 1c-3,6 -5,14 -3,21l-1 2c-4,-2 -21,-5 -27,-7 -7,-2 -15,-5 -21,-8l-2 1c-2,-2 -5,-3 -9,-4l0 -2c0,-9 6,-20 16,-23 15,8 30,14 46,19z"/>
     <path class="fil111" d="M410 483c6,3 1,10 1,15 -1,4 3,12 -2,13 -2,0 -4,0 -6,-1 -3,-7 -5,-13 -2,-21 2,-3 4,-7 7,-7 0,0 1,1 2,1z"/>
     <path class="fil112" d="M403 482l0 1c-6,7 -7,17 -3,25l-1 2c-6,-2 -4,-2 -7,-4 -2,-7 -2,-13 1,-19 0,-1 2,-5 2,-5 3,-3 6,-1 8,0z"/>
     <path class="fil113" d="M408 482c-8,8 -9,17 -4,27 2,2 0,1 -1,1 -1,0 -2,0 -4,0 -5,-9 -4,-22 4,-28 2,0 3,0 5,0z"/>
     <path class="fil114" d="M344 491c-1,5 -5,8 -9,7 -2,-4 -3,-7 -2,-12 4,1 7,4 11,5z"/>
     <path class="fil115" d="M295 450c0,0 0,-1 0,-1l0 1z"/>
     <path class="fil116" d="M208 349c2,-3 5,-8 8,-7 5,0 2,3 3,6 2,3 5,-1 4,5 -1,5 -2,6 -6,8 -5,0 -7,-3 -9,-7 0,0 0,0 0,0 0,-2 0,-3 0,-5z"/>
     <path class="fil93" d="M208 354c-1,-2 0,-4 0,-5 0,1 0,3 0,5z"/>
     <path class="fil6" d="M229 337l0 -1c0,0 0,1 0,1z"/>
     <path class="fil116" d="M277 345c1,-3 3,-6 7,-6 5,0 2,4 3,6 1,2 4,1 4,4 1,3 -1,7 -4,9 -9,3 -13,-6 -10,-13z"/>
    </g>
   </g>
  </g>
  <path class="fil117" d="M97 0l638 0c53,0 97,44 97,97l0 543c0,53 -44,97 -97,97l-638 0c-53,0 -97,-44 -97,-97l0 -543c0,-53 44,-97 97,-97z"/>
 </g>
</svg>
