<?xml version="1.0" encoding="UTF-8"?>
<!DOCTYPE svg PUBLIC "-//W3C//DTD SVG 1.1//EN" "http://www.w3.org/Graphics/SVG/1.1/DTD/svg11.dtd">
<!-- Creator: CorelDRAW X7 -->
<svg xmlns="http://www.w3.org/2000/svg" xml:space="preserve" width="1.37168in" height="1.64365in" version="1.1" style="shape-rendering:geometricPrecision; text-rendering:geometricPrecision; image-rendering:optimizeQuality; fill-rule:evenodd; clip-rule:evenodd"
viewBox="0 0 644 772"
 xmlns:xlink="http://www.w3.org/1999/xlink">
 <defs>
  <style type="text/css">
   <![CDATA[
    .str0 {stroke:#FF3DD5;stroke-width:4.89117}
    .fil2 {fill:none}
    .fil114 {fill:#046859;fill-rule:nonzero}
    .fil84 {fill:#04BEA4;fill-rule:nonzero}
    .fil110 {fill:#1AC3AA;fill-rule:nonzero}
    .fil31 {fill:#325A73;fill-rule:nonzero}
    .fil55 {fill:#327194;fill-rule:nonzero}
    .fil56 {fill:#337095;fill-rule:nonzero}
    .fil39 {fill:#352F2A;fill-rule:nonzero}
    .fil40 {fill:#352F2B;fill-rule:nonzero}
    .fil34 {fill:#355D76;fill-rule:nonzero}
    .fil29 {fill:#39384F;fill-rule:nonzero}
    .fil82 {fill:#4170A2;fill-rule:nonzero}
    .fil46 {fill:#435E72;fill-rule:nonzero}
    .fil116 {fill:#482C16;fill-rule:nonzero}
    .fil36 {fill:#535369;fill-rule:nonzero}
    .fil68 {fill:#59210A;fill-rule:nonzero}
    .fil85 {fill:#59220B;fill-rule:nonzero}
    .fil30 {fill:#5E5C79;fill-rule:nonzero}
    .fil13 {fill:#63617F;fill-rule:nonzero}
    .fil28 {fill:#636280;fill-rule:nonzero}
    .fil4 {fill:#69405A;fill-rule:nonzero}
    .fil61 {fill:#6A4159;fill-rule:nonzero}
    .fil54 {fill:#7295DF;fill-rule:nonzero}
    .fil17 {fill:#7299E5;fill-rule:nonzero}
    .fil53 {fill:#7396E2;fill-rule:nonzero}
    .fil23 {fill:#749AE5;fill-rule:nonzero}
    .fil14 {fill:#767676;fill-rule:nonzero}
    .fil32 {fill:#7699E6;fill-rule:nonzero}
    .fil26 {fill:#819FE4;fill-rule:nonzero}
    .fil45 {fill:#858E90;fill-rule:nonzero}
    .fil71 {fill:#883D07;fill-rule:nonzero}
    .fil91 {fill:#893D08;fill-rule:nonzero}
    .fil94 {fill:#893E08;fill-rule:nonzero}
    .fil107 {fill:#9E8C80;fill-rule:nonzero}
    .fil19 {fill:#9E9DA1;fill-rule:nonzero}
    .fil74 {fill:#A36243;fill-rule:nonzero}
    .fil27 {fill:#A4A0CB;fill-rule:nonzero}
    .fil59 {fill:#B58B2B;fill-rule:nonzero}
    .fil89 {fill:#C5835E;fill-rule:nonzero}
    .fil10 {fill:#CA4C05;fill-rule:nonzero}
    .fil83 {fill:#CABCB3;fill-rule:nonzero}
    .fil11 {fill:#CB4D07;fill-rule:nonzero}
    .fil18 {fill:#D7D2D8;fill-rule:nonzero}
    .fil42 {fill:#D8E2F0;fill-rule:nonzero}
    .fil24 {fill:#DB550A;fill-rule:nonzero}
    .fil3 {fill:#DC5307;fill-rule:nonzero}
    .fil97 {fill:#DD752D;fill-rule:nonzero}
    .fil50 {fill:#DDEDF2;fill-rule:nonzero}
    .fil106 {fill:#DE7229;fill-rule:nonzero}
    .fil98 {fill:#DE7630;fill-rule:nonzero}
    .fil105 {fill:#DF7227;fill-rule:nonzero}
    .fil95 {fill:#DF7C6B;fill-rule:nonzero}
    .fil92 {fill:#DF7D6C;fill-rule:nonzero}
    .fil49 {fill:#DFEFFF;fill-rule:nonzero}
    .fil99 {fill:#E07632;fill-rule:nonzero}
    .fil57 {fill:#E0F0FE;fill-rule:nonzero}
    .fil104 {fill:#E17B38;fill-rule:nonzero}
    .fil72 {fill:#E1E9D3;fill-rule:nonzero}
    .fil103 {fill:#E27631;fill-rule:nonzero}
    .fil102 {fill:#E27F40;fill-rule:nonzero}
    .fil86 {fill:#E2F0EA;fill-rule:nonzero}
    .fil101 {fill:#E37E3E;fill-rule:nonzero}
    .fil90 {fill:#E46501;fill-rule:nonzero}
    .fil100 {fill:#E47E3F;fill-rule:nonzero}
    .fil41 {fill:#EA7B6C;fill-rule:nonzero}
    .fil38 {fill:#EA7B6D;fill-rule:nonzero}
    .fil52 {fill:#EBF4F7;fill-rule:nonzero}
    .fil62 {fill:#EC9301;fill-rule:nonzero}
    .fil58 {fill:#ED9300;fill-rule:nonzero}
    .fil12 {fill:#EDCBB3;fill-rule:nonzero}
    .fil77 {fill:#EDE9DC;fill-rule:nonzero}
    .fil93 {fill:#EFF1EE;fill-rule:nonzero}
    .fil5 {fill:#F0F6F7;fill-rule:nonzero}
    .fil73 {fill:#F1EBB4;fill-rule:nonzero}
    .fil33 {fill:#F1F3F4;fill-rule:nonzero}
    .fil88 {fill:#F27965;fill-rule:nonzero}
    .fil81 {fill:#F2F9F6;fill-rule:nonzero}
    .fil96 {fill:#F3F6F4;fill-rule:nonzero}
    .fil35 {fill:#F3F7F9;fill-rule:nonzero}
    .fil80 {fill:#F5F9F8;fill-rule:nonzero}
    .fil108 {fill:#F5FCFB;fill-rule:nonzero}
    .fil25 {fill:#F6AB90;fill-rule:nonzero}
    .fil79 {fill:#F7FAFB;fill-rule:nonzero}
    .fil37 {fill:#F89177;fill-rule:nonzero}
    .fil44 {fill:#F8FBFB;fill-rule:nonzero}
    .fil16 {fill:#F9FAFA;fill-rule:nonzero}
    .fil43 {fill:#F9FAFB;fill-rule:nonzero}
    .fil76 {fill:#FA9336;fill-rule:nonzero}
    .fil21 {fill:#FA9A7E;fill-rule:nonzero}
    .fil15 {fill:#FAFAFB;fill-rule:nonzero}
    .fil78 {fill:#FAFBFC;fill-rule:nonzero}
    .fil109 {fill:#FAFDFD;fill-rule:nonzero}
    .fil115 {fill:#FCA384;fill-rule:nonzero}
    .fil64 {fill:#FCF8DB;fill-rule:nonzero}
    .fil47 {fill:#FCFCFD;fill-rule:nonzero}
    .fil22 {fill:#FDA485;fill-rule:nonzero}
    .fil67 {fill:#FDAB97;fill-rule:nonzero}
    .fil113 {fill:#FDFCF9;fill-rule:nonzero}
    .fil9 {fill:#FDFDFD;fill-rule:nonzero}
    .fil69 {fill:#FDFEFE;fill-rule:nonzero}
    .fil112 {fill:#FE8302;fill-rule:nonzero}
    .fil66 {fill:#FE8304;fill-rule:nonzero}
    .fil65 {fill:#FEAB95;fill-rule:nonzero}
    .fil70 {fill:#FEE97F;fill-rule:nonzero}
    .fil63 {fill:#FEF1B2;fill-rule:nonzero}
    .fil7 {fill:#FEFEFE;fill-rule:nonzero}
    .fil75 {fill:#FF8200;fill-rule:nonzero}
    .fil111 {fill:#FF8201;fill-rule:nonzero}
    .fil6 {fill:#FFAB94;fill-rule:nonzero}
    .fil20 {fill:#FFAD8B;fill-rule:nonzero}
    .fil48 {fill:#FFD200;fill-rule:nonzero}
    .fil51 {fill:#FFE97D;fill-rule:nonzero}
    .fil60 {fill:#FFF1B2;fill-rule:nonzero}
    .fil8 {fill:white;fill-rule:nonzero}
    .fil87 {fill:url(#id1)}
    .fil0 {fill:url(#id2)}
    .fil1 {fill:url(#id3)}
    .fil117 {fill:url(#id4);fill-rule:nonzero}
   ]]>
  </style>
   <clipPath id="id0">
    <path d="M75 0l494 0c41,0 75,34 75,75l0 622c0,41 -34,75 -75,75l-494 0c-41,0 -75,-34 -75,-75l0 -622c0,-41 34,-75 75,-75z"/>
   </clipPath>
  <linearGradient id="id1" gradientUnits="userSpaceOnUse" x1="218.019" y1="526.412" x2="213.59" y2="552.721">
   <stop offset="0" style="stop-opacity:1; stop-color:#EA594B"/>
   <stop offset="1" style="stop-opacity:1; stop-color:#FFAD8B"/>
  </linearGradient>
  <linearGradient id="id2" gradientUnits="userSpaceOnUse" x1="159.397" y1="626.225" x2="484.881" y2="145.799">
   <stop offset="0" style="stop-opacity:1; stop-color:#5200B0"/>
   <stop offset="1" style="stop-opacity:1; stop-color:#EB00A1"/>
  </linearGradient>
  <linearGradient id="id3" gradientUnits="userSpaceOnUse" x1="176.432" y1="961.36" x2="516.371" y2="459.598">
   <stop offset="0" style="stop-opacity:1; stop-color:#6200D1"/>
   <stop offset="1" style="stop-opacity:1; stop-color:#FF2EBD"/>
  </linearGradient>
  <linearGradient id="id4" gradientUnits="objectBoundingBox" x1="39.6626%" y1="118.749%" x2="60.3369%" y2="0%">
   <stop offset="0" style="stop-opacity:1; stop-color:#B940FF"/>
   <stop offset="1" style="stop-opacity:1; stop-color:#FF87EF"/>
  </linearGradient>
 </defs>
 <g id="Layer_x0020_1">
  <metadata id="CorelCorpID_0Corel-Layer"/>
  <path class="fil0" d="M75 0l494 0c41,0 75,34 75,75l0 622c0,41 -34,75 -75,75l-494 0c-41,0 -75,-34 -75,-75l0 -622c0,-41 34,-75 75,-75z"/>
  <g style="clip-path:url(#id0)">
   <g id="_2278740158432">
    <circle class="fil1" cx="346" cy="710" r="376"/>
    <circle class="fil2 str0" cx="461" cy="673" r="432"/>
    <g>
     <path class="fil3" d="M447 307c0,0 0,0 1,0 3,-2 9,-1 12,0 0,-1 1,-1 1,0 0,0 1,0 1,0l9 1c2,2 4,2 7,3 2,1 4,2 6,2 1,1 2,2 3,2 4,2 7,4 11,6l1 0 1 1c0,2 4,5 6,5 1,0 1,0 1,0 0,0 1,0 2,0 1,0 7,2 7,3 0,0 1,0 1,0 2,0 6,3 8,4 2,2 4,3 7,5 2,4 5,7 7,10 0,2 1,4 2,5 0,3 1,6 2,8 0,4 1,7 2,9 1,10 1,19 0,29 1,3 1,6 -1,8 -1,4 -2,9 -5,11l0 8c0,6 -1,10 -3,15l-1 1c0,3 -2,5 -4,6 -2,5 -8,8 -13,11 0,1 -2,2 -3,1 -2,1 -3,1 -3,-1 0,-2 2,-9 4,-10l1 -2c12,-4 18,-28 8,-35 -3,-2 -6,-2 -8,0 -7,1 -9,-15 -9,-20 -2,-8 -5,-9 -13,-9 -9,-1 -16,-6 -19,-15 -2,2 -2,5 -3,7l2 9c0,1 0,2 0,2 -2,1 -13,1 -16,1 -18,-1 -35,-9 -41,-27 -1,-2 -6,15 -6,16 -2,4 -6,-1 -8,-3 -2,-3 -3,-5 -4,-8 -5,15 -4,30 -3,45 0,1 0,2 -2,3 -1,0 -2,-1 -3,-2 -1,-2 -2,-4 -2,-6 -1,-1 -2,-2 -2,-4 -2,-3 -3,-6 -3,-10 -2,-5 -2,-11 0,-16 0,-3 1,-6 3,-8 0,-2 0,-3 2,-4 0,-3 0,-4 2,-4 1,-4 2,-7 3,-10l1 -1c2,-6 5,-12 9,-17 3,-5 7,-8 11,-12 1,-1 2,-2 2,-3 3,-1 5,-2 7,-4 2,0 4,-1 5,-2 2,-1 5,-2 7,-3l8 -1c1,0 2,0 2,0z"/>
     <path class="fil4" d="M482 635l1 1c0,5 3,10 8,13 6,5 13,3 19,1 0,2 0,3 1,4 0,2 0,5 0,7 0,1 0,1 0,1 2,8 2,16 1,24 1,4 1,9 -3,12 -1,1 -1,0 -2,0 -1,4 -7,5 -11,6 -5,1 -10,1 -15,0l-1 -1 -2 1c-2,0 -12,-4 -13,-6 -1,-8 -1,-18 0,-26 0,-1 -1,-1 -1,-1 0,7 -1,14 -3,21 -1,3 -4,4 -7,5 -2,0 -7,1 -8,-1 -1,2 -7,1 -7,0 0,0 -1,1 -1,1 -1,0 -8,0 -9,0l-1 -1 -1 1c-3,-1 -5,-2 -8,-3l-1 -2c0,1 -2,-1 -2,-1 -2,-4 3,-27 4,-32 0,0 1,0 1,0 -1,0 0,-1 0,-1 2,-11 4,-21 6,-32l1 -1c1,0 3,1 5,2 14,7 31,7 46,7 1,0 2,0 3,1z"/>
     <path class="fil5" d="M517 448c1,0 0,1 -1,2 -1,3 -2,6 -2,9 -1,2 -1,3 1,2 -2,1 -2,2 -3,4l-1 1c0,0 0,1 0,1l0 1c0,0 0,0 0,0l-2 3c0,1 -1,2 -1,3l-2 2c0,0 0,0 0,0 0,2 -1,4 -3,5 0,1 0,1 0,1l-9 11c-1,1 -1,2 -1,4 -2,1 -3,2 -4,4l-2 0c-3,5 -8,9 -13,13l0 2c-9,10 -15,17 -14,31 1,19 4,39 16,54 5,6 10,11 15,17l-1 2c1,1 -2,2 -3,1 0,0 -1,0 -2,-1 -3,-2 -7,-8 -10,-12 -18,-21 -22,-45 -21,-71 -1,-10 -6,-19 -11,-27l-8 -11 0 -2c-1,-1 -1,-2 -2,-3 0,0 1,0 0,0l-1 -1c0,0 0,-1 0,-1 -1,-1 -2,-3 -3,-5 0,0 0,0 0,0 -2,-1 -2,-2 -1,-2 1,-2 6,1 7,2 -1,1 -1,1 1,2 1,2 2,4 4,6l1 2c1,1 2,2 2,4 2,0 3,1 2,3l1 1c3,3 5,7 8,11l-1 2 2 1 3 9 6 -9 2 -1c0,0 0,-1 0,-1 2,-4 9,-11 13,-13 0,-2 2,-4 3,-3l2 -3c-1,-1 1,-3 3,-2 -1,-1 -1,-1 0,-2l0 -1c7,-5 18,-20 20,-28 0,0 0,-1 -1,-1 0,-1 1,-2 2,-2 1,-3 2,-7 3,-10l1 -1 1 -1c-2,-1 -1,-3 0,-3 1,0 3,0 4,1z"/>
     <path class="fil6" d="M339 449l1 0c5,-2 7,1 9,6 9,-3 10,9 10,15l-1 1c1,1 1,2 1,4 2,6 -4,13 -10,16 -2,0 -5,2 -7,0 -2,0 -3,-3 -3,-5 -1,0 -1,-1 -1,-2l-1 -1c1,-4 1,-7 0,-11 0,-1 1,-1 2,0l0 -2 10 -6c-1,-2 -2,-3 -4,-2 0,3 -3,5 -6,5 0,1 -1,2 -2,1l-1 0c-3,-3 -6,-6 -10,-8l0 -1c-1,0 0,-2 0,-2 3,-1 5,-3 6,-6l2 0c1,0 2,0 2,0 1,0 2,0 3,-2z"/>
     <path class="fil7" d="M509 580c1,-5 1,-10 0,-15 0,-5 1,-5 3,-1 1,0 2,1 2,2 -1,12 -1,24 1,36l0 7c1,-1 3,-1 4,-1 0,0 1,-1 1,-1 2,-2 17,-2 20,2 4,-14 2,-31 1,-46l1 -1c0,0 0,0 0,0 0,1 0,1 0,2l1 0c0,2 1,2 1,4l-1 6c0,1 0,2 0,4 1,1 1,2 1,3 0,2 0,3 0,4l-1 2c0,2 1,4 1,7l0 1c0,1 -1,2 0,3 1,1 1,2 0,2 0,2 0,5 -2,6 1,1 1,2 0,3 0,0 -1,1 0,1 1,1 1,2 0,2 -1,3 -1,7 1,8l-1 1c-1,1 -4,0 -3,-2 0,-2 0,-3 -1,-4l-1 0c-5,-3 -13,-2 -19,0l-1 -1c-3,2 -5,3 -1,6 -1,2 -2,2 -4,0 -1,1 -4,-1 -3,-2 0,-1 0,-2 -1,-3 0,-1 0,-1 0,-2 0,-10 0,-21 0,-31l1 -2z"/>
     <path class="fil8" d="M463 810c0,3 -1,3 -3,3 -2,0 -14,0 -15,0 0,-1 -1,-2 -1,-3 7,0 13,0 19,0z"/>
     <path class="fil9" d="M472 810c-2,1 -6,0 -9,0 -6,1 -12,1 -19,0 -2,0 -6,1 -8,0 12,0 24,0 36,0z"/>
     <path class="fil8" d="M542 612c0,3 0,5 0,8 2,0 4,-3 5,-4 1,0 2,0 3,0 0,0 1,0 1,0 0,0 0,1 0,1 0,0 -6,4 -7,5l-1 -1c-1,1 -2,1 -1,0 -1,-3 -2,-6 0,-9z"/>
     <path class="fil8" d="M404 807c0,0 0,0 1,0 1,0 2,0 2,1 -1,2 -7,1 -8,0 -1,-1 0,-2 0,-2 1,0 3,0 5,1z"/>
     <path class="fil8" d="M418 809c-1,3 -7,3 -6,-1 2,0 5,0 6,1z"/>
     <path class="fil9" d="M435 810c-3,0 -6,0 -9,0l-2 -1c0,0 -1,0 -1,0 -1,1 -3,2 -4,0 0,0 0,0 -1,0 -1,0 -4,-1 -6,-1l0 0 23 2z"/>
     <path class="fil8" d="M392 804c0,0 0,0 1,0 1,1 1,1 1,2 -1,2 -6,1 -6,-2 1,0 3,0 4,0z"/>
     <path class="fil9" d="M496 808c-1,0 -2,1 -2,1 -2,0 -6,0 -7,0 3,-1 6,-1 9,-1z"/>
     <path class="fil9" d="M486 809c-4,1 -9,1 -13,1l13 -1z"/>
     <path class="fil9" d="M528 801c-2,2 -6,2 -8,3 -2,0 -3,1 -4,2 -3,1 -9,2 -13,1 1,0 1,0 2,0l1 -1c4,0 8,-2 12,-3l1 0c2,-1 6,-1 9,-2z"/>
     <path class="fil8" d="M543 574c0,-2 -1,-4 1,-6 0,1 0,1 0,2 0,1 0,3 -1,4z"/>
     <path class="fil8" d="M432 492c0,-1 -2,-1 -2,-1 -2,-2 -1,-3 -1,-4 1,2 2,4 3,5z"/>
     <path class="fil8" d="M423 809c0,3 -4,3 -4,0 1,0 3,0 4,0z"/>
     <path class="fil9" d="M412 808c-2,0 -4,0 -5,0 -1,0 -2,-1 -2,-1 2,0 5,0 7,1z"/>
     <path class="fil9" d="M550 792c0,1 -1,2 -2,3 -2,1 -5,2 -8,2l10 -5z"/>
     <path class="fil9" d="M398 806c-1,-1 -3,0 -4,0 0,-1 -1,-1 -1,-2 1,1 3,1 5,2z"/>
     <path class="fil8" d="M544 581c-1,0 -1,-2 -1,-3 2,1 1,2 1,3z"/>
     <path class="fil9" d="M392 804c-1,0 -3,0 -4,0 -1,0 -2,-1 -3,-1 -1,0 -1,0 -2,-1 3,1 6,1 9,2z"/>
     <path class="fil9" d="M540 797c-3,3 -8,3 -11,4 3,-2 7,-2 11,-4z"/>
     <path class="fil8" d="M503 481c1,-1 2,-3 3,-5 0,1 0,1 0,2 0,1 -2,3 -3,3z"/>
     <path class="fil9" d="M500 807c0,1 -2,1 -3,1 0,-1 2,-1 3,-1z"/>
     <path class="fil8" d="M426 810c-2,0 -1,-1 -2,-1l2 1z"/>
     <path class="fil8" d="M543 587l1 -2c0,1 -1,2 -1,2z"/>
     <path class="fil8" d="M435 497c-1,0 -1,0 -1,0 0,-1 0,-2 -1,-3 2,1 1,2 2,3z"/>
     <path class="fil8" d="M509 471c1,-1 1,-2 2,-3 -1,1 -1,3 -2,3z"/>
     <path class="fil8" d="M511 468l0 -1c0,0 0,1 0,1z"/>
     <path class="fil8" d="M506 476c1,-1 1,-2 2,-2 0,1 0,2 -2,2z"/>
     <path class="fil5" d="M434 497c1,1 0,2 -1,0l0 0c0,0 1,0 1,0z"/>
     <path class="fil8" d="M543 564l-1 0c0,0 1,0 1,0z"/>
     <path class="fil6" d="M395 414c1,-8 0,-12 0,-19 0,-7 1,-16 2,-22 1,-5 2,-9 3,-13l1 6c2,5 5,9 9,12 3,-7 4,-15 9,-20 1,10 9,18 17,23 12,6 25,6 38,5 1,0 -2,-8 -2,-10 0,-2 3,-10 4,-8 2,8 11,14 19,15 4,1 7,-1 10,2 6,5 2,19 9,26 3,3 2,0 5,0 3,-1 6,0 8,3 7,8 3,27 -6,33 -2,1 -3,2 -5,3 0,-1 1,-2 1,-2 -2,-1 0,-7 1,-8 6,-2 3,-11 -1,-9 -2,1 -3,13 -3,15l-1 1c0,1 0,3 -1,4l-1 -1c-2,6 -5,10 -9,15l0 1c-8,6 -15,13 -25,17l-2 0 0 1c-6,3 -13,5 -20,7l0 -1c-2,2 -20,-1 -20,-2 0,0 0,0 0,-1 -2,0 -5,-2 -7,-2 -16,-7 -33,-23 -36,-41 -2,-11 3,-19 3,-30z"/>
     <path class="fil10" d="M507 325c1,1 0,2 -1,2 0,1 0,2 -1,1 -1,0 -5,-4 -6,-4 0,0 0,-2 0,-3 0,-3 1,-11 6,-11 6,0 4,12 2,15z"/>
     <path class="fil11" d="M516 330c-3,-1 -6,-1 -9,-3 0,0 0,-1 1,-1 5,-2 11,-4 8,4z"/>
     <path class="fil12" d="M508 326c0,0 0,1 -1,1 0,1 0,0 -1,0 0,0 1,-1 1,-2l1 1z"/>
     <path class="fil6" d="M446 696l1 2c1,11 1,22 1,33 0,1 0,2 0,2 0,1 -1,2 -1,2 0,5 0,13 1,17 -1,5 -9,5 -12,2 -5,-5 -10,-8 -16,-9l-1 -1c1,-1 1,-2 1,-4 0,-1 -1,-2 -1,-2 0,-7 0,-14 0,-21 0,-8 0,-16 -1,-25 1,1 9,4 10,4l11 0c2,0 5,0 7,0z"/>
     <path class="fil6" d="M513 743c0,2 0,4 0,6l-1 0c-6,-7 -20,-6 -25,2l-1 0c-1,-4 -1,-8 -1,-12 0,0 -1,-1 -1,-1 -1,-12 -2,-24 -4,-35 9,1 19,1 27,-5 2,13 4,27 5,40 1,2 1,4 1,5z"/>
     <path class="fil13" d="M419 744c14,-2 15,16 27,10 0,-1 1,-1 2,-2 0,2 1,4 1,7l1 8c-11,9 -25,15 -39,15l0 -3 -2 -1c-1,-7 -5,-15 -12,-16l-1 -2 0 -1c2,0 6,-1 9,-2 0,-1 1,-1 1,-1 6,4 14,8 2,0l0 -1c0,-1 1,-2 2,-3 0,0 0,0 1,0l0 1c3,-1 6,2 8,5 2,0 -3,-5 -4,-6 -2,0 -3,-1 -3,-2 1,-3 4,-6 7,-6z"/>
     <path class="fil13" d="M513 749c3,5 4,16 6,21 1,4 2,8 3,13 0,0 0,0 0,0l-2 0c-9,-8 -23,-6 -31,2l-1 0c0,0 -1,1 -1,0 -3,-2 -4,-21 -3,-26 0,-2 1,-6 2,-8 4,-9 21,-11 27,-2z"/>
     <path class="fil8" d="M396 760c8,1 14,12 15,19 0,1 0,2 0,3 -10,2 -20,1 -29,-3l0 -1c0,-3 -1,-5 0,-7 1,-7 8,-11 14,-11z"/>
     <path class="fil14" d="M382 778c8,5 19,3 29,4 0,-1 0,-2 0,-3 1,0 0,2 0,2 1,0 6,-1 7,-1 11,-1 22,-7 31,-13 0,-1 0,-7 0,-8l1 10c0,6 -5,8 -9,10 -14,6 -33,10 -48,8 -5,-1 -11,-2 -12,-8 0,-1 1,-1 1,-1z"/>
     <path class="fil14" d="M488 785l1 1c1,15 28,21 32,4l1 -1c0,-2 1,-2 1,-1 1,6 0,11 -4,15 -7,3 -6,4 -14,4 -2,-1 -4,0 -6,-1 -16,-5 -17,-33 -15,-47 0,8 1,16 3,24 0,0 0,2 1,2z"/>
     <path class="fil15" d="M412 750c2,0 10,7 8,9 -2,0 -3,-2 -4,-3 -2,-2 -3,-2 -5,-3l0 -1c-1,0 -1,0 -1,0 -3,0 0,-2 2,-2z"/>
     <path class="fil16" d="M408 755c2,0 8,5 7,7 -2,2 -8,-6 -10,-5 0,-1 0,-3 3,-2z"/>
     <path class="fil17" d="M362 481c1,3 15,23 17,26 3,3 5,8 9,9 4,0 18,-7 22,-9 8,-3 16,-6 23,-10 0,0 1,0 1,0l1 0c8,11 19,25 20,40 1,4 0,9 0,14 1,18 5,37 16,52 5,6 12,11 16,18l1 1c-3,4 -5,8 -5,12l-1 1c-14,0 -28,0 -41,-4 -3,-1 -11,-3 -13,-6 -7,-7 0,-25 -1,-35 0,0 1,0 0,0 1,-3 1,-6 1,-8 0,-6 -2,-13 -2,-19 0,-5 2,-11 3,-16 0,-2 -1,-4 0,-6 -7,2 -14,4 -21,6 -8,2 -22,5 -29,3 -8,-2 -18,-20 -23,-27 -5,-8 -10,-17 -14,-26 7,-1 14,-4 18,-10l2 -6z"/>
     <path class="fil13" d="M509 618c0,0 3,2 3,2l2 1c1,0 1,0 1,1 2,0 1,6 0,7 0,0 0,-1 0,-1 3,0 16,0 17,0l1 1c2,0 2,6 2,7 -3,-1 -5,-1 -8,0 -2,-2 -4,-2 -6,1 -5,-3 -7,1 -6,6 0,1 0,3 0,4 -2,3 -5,3 -4,7 0,-1 -1,-2 -1,-3 -13,7 -28,-1 -28,-16 0,-5 2,-11 5,-14 0,0 2,-1 3,-1 1,-4 6,-5 9,-5 3,0 9,0 10,3z"/>
     <path class="fil18" d="M465 672l-1 -1c0,-1 0,-2 1,-3l0 0c0,1 0,3 0,4z"/>
     <path class="fil19" d="M523 788l-1 1c-1,-1 -1,-4 0,-4l0 -2c-1,0 -1,0 0,0l0 0c1,2 1,3 1,5z"/>
     <path class="fil17" d="M493 497c2,0 11,5 13,7 3,2 5,5 7,8 1,1 2,2 2,3 1,1 0,2 -1,1l0 47c0,2 -2,2 -4,-1l-1 0c0,6 0,12 0,18 0,12 0,25 0,38 -6,-3 -13,-2 -19,2 0,-1 0,-2 -1,-3 -4,-6 -10,-11 -15,-17 -12,-16 -15,-37 -16,-57 0,-11 9,-21 16,-29 5,-4 10,-8 13,-13 2,-2 3,-5 6,-4z"/>
     <path class="fil20" d="M445 504c-1,-1 3,-2 3,-2 10,-1 18,-1 27,0 1,0 4,0 4,2 -4,4 -9,9 -13,14 -3,3 -10,3 -13,0 -2,-4 -6,-10 -8,-14z"/>
     <path class="fil21" d="M454 491c4,0 9,0 13,0 5,-1 9,0 13,2 0,0 -2,0 -1,-1 2,1 4,1 6,2 1,1 2,1 2,2 -1,1 -2,1 -3,2 -2,3 -3,4 -4,2 -12,-3 -24,-2 -35,0l-2 -1c-2,-2 1,-4 3,-5 1,-2 6,-4 8,-3z"/>
     <path class="fil22" d="M443 499c2,0 4,0 6,-1 9,-1 15,-2 24,0 1,0 6,0 7,1 1,0 1,1 2,1 0,0 2,-1 2,-2 -1,3 -3,4 -5,6l-4 -1c-9,-1 -18,-1 -26,0l-4 1c-1,-1 -2,-2 -2,-3 -1,-2 -1,-3 0,-2z"/>
     <path class="fil7" d="M517 448c-1,1 -2,0 -4,-1 1,0 0,-1 0,-2 0,-2 1,-14 2,-14 4,-3 10,2 7,7 -1,2 -3,2 -3,3 -1,0 -2,6 -2,7z"/>
     <path class="fil23" d="M466 518l-9 12c-1,-4 -2,-9 -4,-12 4,1 8,1 13,0z"/>
     <path class="fil24" d="M502 465c-1,-1 0,-2 1,-2 1,-2 3,-5 4,-7 1,-1 3,-6 4,-7 2,0 1,1 1,2 0,2 -2,10 -3,12 0,0 -2,1 -3,1 -1,0 -3,0 -4,1z"/>
     <path class="fil25" d="M487 501c-1,6 -8,11 -13,13 4,-5 9,-9 13,-13z"/>
     <path class="fil26" d="M446 494c-3,2 -2,2 -3,5 0,0 -1,1 0,2 -1,-1 -3,-3 -4,-5 0,-1 0,0 1,-1 1,0 5,-1 6,-1z"/>
     <path class="fil27" d="M487 494c1,1 0,1 0,2 -1,-1 -1,-1 -2,-2 1,0 1,1 2,0z"/>
     <path class="fil28" d="M326 459c5,1 8,6 11,9 1,1 2,2 2,4 0,0 -1,0 -1,0 1,4 1,8 0,12 -6,16 -29,16 -35,0 -6,-14 7,-29 23,-25z"/>
     <path class="fil29" d="M347 436c15,-7 31,2 29,20 -1,5 -4,7 -6,11 -4,2 -7,4 -12,4 0,-4 -1,-16 -6,-16 -2,0 -3,1 -3,1 -1,0 -2,-3 -2,-4 -3,-4 -5,-3 -8,-1l0 -2c0,-5 4,-10 8,-13z"/>
     <path class="fil30" d="M337 468c0,0 2,-3 2,-3 0,0 1,1 2,0 4,-1 2,-4 3,-4 0,0 3,0 4,-1 0,1 3,3 2,5 -1,1 -9,5 -11,7 -1,0 -2,-2 -2,-4z"/>
     <path class="fil31" d="M342 491c-4,1 -4,-1 -3,-5 1,1 3,3 3,5z"/>
     <path class="fil17" d="M528 534c4,7 12,21 14,28 1,8 1,29 1,37 0,4 -2,8 -2,12 -2,-1 -3,-2 -5,-3 -5,-2 -12,-1 -17,0 -4,2 -4,-4 0,-3 1,-1 2,-2 3,-1 1,-20 1,-40 0,-60l0 -15c0,-1 -1,-3 1,-3 2,3 3,6 5,8z"/>
     <path class="fil32" d="M523 524c1,4 3,7 5,10 0,0 -1,0 -1,-1l-4 -6 1 2c-2,24 1,50 -1,73 0,5 -1,2 -3,3 0,0 0,2 -3,0 0,3 0,3 2,3 -1,1 -3,2 -5,3 1,-11 -3,-22 -2,-34 0,-6 3,-11 -2,-16 0,6 0,11 0,17 0,1 -1,2 -1,2 1,-5 -1,-14 0,-19 0,0 1,-1 1,0l3 3c0,0 0,-1 0,-1 0,-16 0,-31 0,-47l2 -1c3,2 6,6 8,9z"/>
     <path class="fil6" d="M538 615c1,1 1,2 1,4 1,1 2,1 3,2 0,0 0,0 1,0l0 2c-5,5 -6,13 -3,20l0 2c-3,-1 -5,2 -6,3 -2,0 -3,-1 -4,0 -1,0 -3,1 -5,1 -3,0 -4,-3 -4,-3 -1,0 -5,0 -6,1 -2,-3 -2,-12 3,-12 1,0 2,1 3,1 0,0 0,-2 4,-2 1,0 2,1 2,1 1,0 5,-3 7,0l-1 -6 -18 0c-1,0 0,-5 0,-7 -1,0 -1,-1 0,-1 -1,-1 0,-2 1,-1 -1,-2 -1,-3 0,-4 0,-1 0,-1 1,-2 6,-2 16,-4 21,1z"/>
     <path class="fil33" d="M517 614c0,1 -1,1 -1,2 -1,1 -1,2 0,4 0,0 -1,2 -1,2 0,0 -2,-2 -3,-2 1,0 3,2 3,0 0,0 -1,0 -1,0 -2,-4 0,-5 3,-6z"/>
     <path class="fil8" d="M542 606c1,-2 2,-3 2,-6 1,2 1,6 -2,6z"/>
     <path class="fil34" d="M539 619c-1,-1 0,-3 -1,-4 2,1 3,2 1,4z"/>
     <path class="fil8" d="M544 598c-1,-1 -1,-3 0,-3 0,1 0,2 0,3z"/>
     <path class="fil8" d="M542 610c-1,-1 0,-1 0,-1l0 1z"/>
     <path class="fil33" d="M514 615c0,1 -1,0 -1,-1 1,0 1,0 1,1z"/>
     <path class="fil35" d="M513 512c6,5 6,6 10,12 -3,-3 -5,-6 -8,-9 -1,-1 -1,-2 -2,-3z"/>
     <path class="fil36" d="M540 645c-4,-8 -3,-18 3,-24 1,-1 8,-4 8,-5 0,0 0,0 1,0 10,0 20,3 22,14 5,21 -23,32 -34,15z"/>
     <path class="fil3" d="M474 403c4,-1 13,-1 14,4 0,4 -6,1 -7,1 -5,0 -25,6 -27,0 -1,-5 5,-3 7,-3 4,0 9,-2 13,-2z"/>
     <path class="fil3" d="M403 400c-2,-2 1,-5 3,-5 6,-1 17,4 21,7 2,2 3,4 1,5 -5,1 -15,-5 -19,-6 -2,-1 -6,-1 -6,-1z"/>
     <path class="fil37" d="M475 483c1,4 1,6 4,9 0,0 0,1 1,1 -1,1 -4,-1 -5,-1 -6,0 -11,0 -17,0 -2,0 -3,-1 -4,0 -1,-1 0,-1 0,-1 0,-1 0,-1 1,-1 4,-1 16,-5 20,-7z"/>
     <path class="fil38" d="M459 457c3,-1 3,1 2,3 -2,5 -12,7 -16,7 -2,0 -9,-2 -9,-3 -2,-4 4,-2 5,-2 5,1 11,0 16,-2 1,-1 2,-3 2,-3z"/>
     <path class="fil39" d="M413 416c3,-1 6,0 9,1 2,1 7,4 6,6 -2,4 -6,-1 -8,-2 -3,-1 -7,-2 -10,0 -1,1 -1,4 -4,3 -2,-5 3,-8 7,-8z"/>
     <path class="fil40" d="M479 427c-5,-3 -6,-5 -13,-4 -2,0 -5,3 -6,1 -3,-4 4,-5 6,-6 5,0 10,1 14,4 5,4 1,7 -1,5z"/>
     <path class="fil41" d="M442 427c1,2 -4,4 -5,7 0,3 3,10 -1,9 -3,-1 -3,-8 -3,-10 1,-3 7,-8 9,-6z"/>
     <path class="fil42" d="M411 753c0,0 0,-1 0,-1 0,0 0,0 0,1z"/>
     <path class="fil8" d="M522 783l0 0 0 2c0,1 0,3 0,4 -2,16 -26,15 -32,3 -1,-2 -3,-6 -2,-7 1,-2 5,-5 7,-6 9,-3 20,-3 27,4z"/>
     <path class="fil43" d="M501 758c3,0 5,0 7,1 2,0 6,1 5,3 -1,2 -4,0 -5,0 -2,-1 -4,-1 -6,-1 -2,0 -9,3 -10,3 0,-1 -1,-1 -1,-2 3,-2 7,-3 10,-4z"/>
     <path class="fil44" d="M500 766c2,0 10,-1 10,2 -1,2 -6,0 -8,1 -1,0 -6,1 -5,-1 0,-1 2,-2 3,-2z"/>
     <path class="fil42" d="M522 785l0 -2c0,0 0,1 0,2z"/>
     <path class="fil45" d="M520 434c2,-1 2,3 0,4 -2,0 -2,-4 0,-4z"/>
     <path class="fil46" d="M516 620c0,-1 -2,-2 -2,-2 0,-1 1,-2 2,-2 0,0 0,3 0,4z"/>
     <path class="fil47" d="M545 631c-2,-2 0,-8 4,-6 5,2 0,10 -4,6z"/>
     <path class="fil48" d="M159 602c0,0 0,2 0,3 1,1 1,2 1,3l-1 1c-8,2 -26,8 -25,19 0,1 1,3 1,4 1,0 5,4 5,6l2 0c8,8 19,12 29,15l2 2 2 0c29,11 59,15 89,19 2,0 4,1 5,2 1,-1 1,-1 1,-1 2,0 15,0 18,1 0,0 1,0 2,1 0,0 1,0 1,0 18,0 35,-1 53,-2 1,0 3,0 5,0 2,-1 5,-1 7,-1l1 -1c14,-2 27,-5 38,-14 0,-1 1,-1 2,-1 -1,-1 -1,-3 0,-5 0,-2 -1,-3 0,-5 -2,-1 -4,-2 -5,-4 -15,-13 -34,-19 -52,-25l-1 -1c3,-2 3,-3 2,-5l1 -1c3,-1 9,1 12,3l0 0c1,0 1,0 1,1 1,0 3,0 3,1 1,0 1,0 1,0l1 1c6,0 13,3 18,6 9,5 17,9 23,17l0 2c4,1 4,6 4,9 1,1 1,3 1,4 -1,4 -2,5 -5,8 0,1 -2,2 -2,2 -2,2 -4,4 -7,5 -1,1 -3,2 -5,2 0,0 0,1 0,1 -4,1 -8,3 -12,3 0,0 0,0 0,0 -2,1 -4,2 -6,2 0,0 -1,0 -1,0l-1 1c-1,0 -1,-1 -2,0 -3,1 -7,2 -11,2 0,0 0,0 0,0 -1,0 -2,1 -3,1l-11 0c0,0 0,0 0,0l-7 1c-1,0 -2,0 -2,0 -3,1 -7,1 -10,0 0,1 0,1 0,1 -7,0 -16,1 -22,0 0,0 -1,0 -1,-1 -1,1 -2,1 -4,1 -2,0 -4,0 -5,-1 -1,0 -3,0 -5,0 -3,0 -6,0 -10,1l-1 -1c-16,-1 -32,-4 -48,-7l0 -1c-1,1 -1,1 -2,0l-2 0c-16,-2 -32,-6 -48,-12l-1 -1c-1,0 -1,0 -1,0 -1,0 -1,0 -2,0 -3,-1 -6,-3 -9,-4 -4,-2 -21,-10 -23,-13 0,0 0,-1 0,-1 -1,-1 -1,-1 -2,0 0,0 -5,-5 -4,-6 0,1 -1,1 -1,0 -16,-21 9,-35 28,-38l1 1z"/>
     <path class="fil4" d="M272 684c1,1 1,1 1,1 -2,1 -8,6 -8,7 -1,0 -1,0 -1,0l-1 1c-7,3 -15,5 -23,6 -1,0 -2,-1 -2,0 0,1 -5,2 -6,0 0,1 0,1 0,1 -5,1 -16,1 -21,0l-1 -1c0,2 -5,1 -6,0 0,-1 -1,0 -2,0 -4,0 -22,-3 -24,-5 0,-1 -1,-1 -1,-1 -1,1 -5,-2 -6,-3l-1 0c-1,-4 0,-7 0,-10 0,0 0,-1 0,-2 0,-1 0,-2 1,-2l2 -1c32,7 64,9 97,9l2 0z"/>
     <path class="fil6" d="M82 502l0 1c-5,3 -8,8 -9,13l-1 1c-1,0 -1,0 -1,0 -1,0 -4,-3 -5,-4 -1,-1 -2,-2 -3,-3 -1,0 -2,-1 -2,-3 -3,-2 -5,-5 -6,-8 -6,-10 -4,-14 3,-12 2,6 2,-3 0,-4l0 -1c-2,-3 -5,-8 -1,-10 0,0 0,0 1,0 2,0 4,0 6,-1 9,3 18,11 18,20 -1,4 0,8 0,11z"/>
     <path class="fil6" d="M121 547c-3,-1 -4,-3 -4,-5 1,-5 1,-10 0,-15 -5,-2 0,-4 3,-1l4 1c1,-1 2,0 3,0 0,0 0,0 0,0 4,2 9,3 13,5 0,0 0,0 0,0 3,0 5,1 7,2 0,0 1,0 1,0 2,0 4,1 6,1 1,-1 5,0 5,2l0 1c-5,4 -7,11 -6,17l-1 1c0,3 -4,1 -6,0 0,0 0,0 0,0 -5,-1 -10,-3 -14,-5 0,0 0,0 0,0l-6 -2c0,0 0,0 0,0 -3,0 -4,-1 -5,-2z"/>
     <path class="fil49" d="M283 739c0,0 0,0 0,0 1,2 2,3 2,5 0,0 0,1 0,1l1 2c0,0 0,0 0,1l1 2c0,0 0,0 0,0 1,2 2,4 2,6l-1 0c-9,-5 -14,2 -17,10 -1,4 -7,3 -6,-1 0,-1 -2,-5 -3,-7 0,0 -1,0 -1,-1 -1,-1 -4,-10 -5,-12l1 -2 1 -1c8,2 16,-1 21,-7l2 0c1,1 1,2 2,4z"/>
     <path class="fil50" d="M152 596c-31,7 -59,27 -23,53 2,2 3,3 2,4l-1 0c-4,-3 -9,-6 -13,-9 -13,-15 -12,-29 5,-40l3 -1c0,0 0,0 1,0l4 -2c0,0 0,0 0,0l4 -2c0,0 1,0 1,0l1 0c0,-1 0,0 0,0 2,-1 4,-2 6,-2 1,0 1,0 1,0 3,-1 6,-2 9,-1l0 0z"/>
     <path class="fil51" d="M140 657c2,0 5,1 7,2l2 0c6,4 14,6 21,8l1 1c1,0 1,0 0,1 2,2 1,5 0,7l-1 0c-1,-1 -1,-1 -3,-1 0,0 0,0 0,0 -2,0 -4,-1 -5,-2 0,0 0,0 -1,0 -3,-1 -6,-2 -10,-3 -1,-2 -2,-2 -4,-2 -4,-3 -7,-5 -11,-7 -2,-2 -4,-5 -4,-7 0,0 0,0 0,-1 1,0 8,3 8,4z"/>
     <path class="fil52" d="M118 600c-10,6 -21,14 -19,27 1,7 9,18 14,22 1,2 -2,-1 -3,-2 -1,0 -1,0 -1,0l-7 -7c0,0 0,0 0,0l-2 -3c0,0 0,0 0,0l-1 -2c0,0 0,0 0,0l-1 -1c0,0 0,0 0,0l-1 -2c0,0 0,-1 0,-1l0 -1c0,0 0,0 0,0l-1 -3c0,0 0,0 0,0 0,-2 0,-4 0,-5 0,0 0,-1 0,-1 0,-2 1,-4 2,-5 0,0 0,0 0,-1 2,-4 6,-8 10,-11 0,0 1,0 1,0l1 -1c0,0 0,0 0,0l4 -2c0,0 0,0 0,0l3 -2c1,0 1,0 1,0 2,0 1,0 0,1z"/>
     <path class="fil9" d="M192 827c-3,0 -2,1 -4,2 -5,1 -8,-3 -12,-3 -1,0 -3,1 -4,0 0,-1 2,0 1,-1 0,-2 -2,0 -3,0 0,0 0,-1 -1,-2 -1,0 -3,0 -4,-1l27 5z"/>
     <path class="fil9" d="M267 829c-1,0 -2,1 -3,1 -7,0 -17,-1 -24,0 -1,0 0,1 -2,1 -11,0 -23,-2 -34,-2 -2,0 -3,1 -5,1 -2,-1 -2,-2 -5,0l-1 -3c8,1 17,2 25,3 16,0 33,-1 49,-1z"/>
     <path class="fil9" d="M131 653c1,0 1,0 1,1 5,10 19,15 29,19 -1,0 -3,0 -4,0 -1,0 -1,-2 -3,-2 -1,-1 -3,0 -4,0 2,-4 -4,-2 -4,-2 0,-2 -2,-3 -3,-4 -2,-1 -1,0 -1,-1 -4,-3 -5,-1 -9,-6 -4,-7 -10,-8 -16,-14 5,3 9,7 14,9z"/>
     <path class="fil9" d="M287 750c2,2 1,3 2,5 1,1 3,2 3,3 2,2 1,4 5,5 -1,0 -2,0 -3,0 0,0 0,0 -1,0 0,0 -5,-6 -4,-7 -1,-2 -1,-4 -2,-6z"/>
     <path class="fil9" d="M150 595c1,-1 1,-1 2,0 1,0 2,0 2,0 0,0 0,0 0,1 0,0 -1,0 -2,0 -3,-1 -6,0 -9,1 1,-1 3,-1 4,-1 1,-1 1,-1 2,-1 0,0 1,0 1,0z"/>
     <path class="fil8" d="M424 792c0,0 0,1 0,1 0,0 0,1 0,1 0,0 0,1 0,1 0,0 0,1 -1,0 -1,-1 -1,-4 1,-4l0 1z"/>
     <path class="fil9" d="M167 675c-1,0 -2,1 -3,-1 -1,2 -1,1 -2,-1 2,0 4,1 5,2z"/>
     <path class="fil9" d="M290 825c-1,2 -3,1 -5,1 1,0 4,-1 5,-1z"/>
     <path class="fil9" d="M118 599c1,0 2,-1 3,-1 -1,1 -2,2 -3,2l0 -1 0 0z"/>
     <path class="fil9" d="M277 827c-3,2 -6,1 -9,2 3,-1 6,-1 9,-2z"/>
     <path class="fil9" d="M171 676c0,1 -1,2 -1,2 0,-2 -1,-3 -3,-3 2,0 3,1 4,1z"/>
     <path class="fil9" d="M96 627c-1,-1 -1,-4 0,-5 0,1 0,3 0,5z"/>
     <path class="fil9" d="M113 649c0,0 2,0 2,1 -2,1 -4,-1 -5,-3 1,1 2,2 3,3l0 -1z"/>
     <path class="fil9" d="M142 597c-1,1 -4,1 -6,2 2,-2 4,-2 6,-2z"/>
     <path class="fil8" d="M150 558c0,0 1,0 1,0 0,0 0,1 0,2 -2,0 -2,-1 -1,-2z"/>
     <path class="fil8" d="M152 595c-1,0 -1,0 -2,0 0,-1 2,-1 2,0z"/>
     <path class="fil9" d="M285 744c-1,-1 -2,-3 -2,-5 2,1 1,4 2,5z"/>
     <path class="fil9" d="M301 823c-1,0 -2,2 -2,2 -3,0 -5,0 -8,0 3,-1 6,-1 10,-2z"/>
     <path class="fil9" d="M284 826c0,1 -2,1 -3,1 1,-1 2,-1 3,-1z"/>
     <path class="fil9" d="M309 821c0,0 -1,2 -2,2 -1,0 -4,0 -6,0 3,-1 6,-2 8,-2z"/>
     <path class="fil8" d="M149 595c0,1 -1,1 -2,1 0,-2 1,-1 2,-1z"/>
     <path class="fil9" d="M354 608c0,0 1,0 1,0 1,0 2,0 3,0l0 1 2 0c-1,2 -7,1 -8,-1 1,0 2,0 2,0z"/>
     <path class="fil9" d="M343 606l0 0c0,2 -3,2 -3,0 1,0 1,0 1,0 1,0 2,0 2,0z"/>
     <path class="fil9" d="M281 827c-1,0 -2,0 -3,0 0,0 2,0 3,0z"/>
     <path class="fil9" d="M96 621c0,-2 0,-4 2,-5 -1,1 -1,3 -2,5z"/>
     <path class="fil9" d="M97 630c0,-1 -1,-1 -1,-3l1 3z"/>
     <path class="fil9" d="M130 601c-1,1 -3,1 -4,2 0,-1 2,-2 4,-2z"/>
     <path class="fil9" d="M373 612c0,0 1,1 1,1 0,2 -4,1 -3,-1 1,0 1,0 2,0z"/>
     <path class="fil9" d="M134 599c-1,1 -2,1 -4,2 1,-1 3,-2 4,-2z"/>
     <path class="fil9" d="M313 820c-1,1 -2,1 -3,1 1,-1 2,-1 3,-1z"/>
     <path class="fil9" d="M98 615c1,-4 6,-9 10,-11 -4,3 -7,7 -10,11z"/>
     <path class="fil9" d="M125 603l-3 1c1,0 2,-1 3,-1z"/>
     <path class="fil9" d="M97 631c0,0 0,0 0,-1l0 1z"/>
     <path class="fil9" d="M98 634c0,-1 0,-1 -1,-2l1 2z"/>
     <path class="fil9" d="M110 603c1,-1 2,-2 4,-2 -1,1 -3,1 -4,2z"/>
     <path class="fil9" d="M117 599c-1,1 -2,1 -3,2l3 -2z"/>
     <path class="fil9" d="M102 640c-1,-1 -1,-2 -2,-3 1,1 2,2 2,3z"/>
     <path class="fil9" d="M136 599l-1 0c0,0 0,0 1,0z"/>
     <path class="fil9" d="M286 747l-1 -2c0,0 1,1 1,2z"/>
     <path class="fil9" d="M287 750l-1 -2c0,0 1,1 1,2z"/>
     <path class="fil6" d="M175 412l1 -2c2,-1 5,-3 7,-5 1,0 2,-1 2,1 2,12 10,19 21,23 3,1 14,4 16,3 2,0 -2,-12 -4,-13l1 -2 0 -1c1,0 3,1 4,3 3,4 5,8 10,10 8,1 13,4 17,9 2,6 3,11 4,17 1,6 3,6 6,2 16,-3 15,18 10,28 -1,3 -4,8 -8,7 0,1 0,2 0,2 -2,0 -4,0 -7,1 -3,10 -15,24 -25,28 -1,1 -2,1 -3,0 -3,4 -10,7 -15,9l-2 -1 -1 1c0,1 -1,1 -2,0 -1,1 -1,1 -1,0l-2 1c-4,2 -11,1 -15,0 -12,-2 -21,-9 -29,-16l-1 -1c0,0 0,-1 0,-1 0,0 0,0 0,0 0,0 1,-1 0,-1 -3,-3 -6,-7 -8,-11 -2,-2 -2,-9 1,-8 2,0 1,4 0,4l0 -1c0,0 8,-1 8,1 -1,0 -1,0 -1,0 -1,-6 -1,-13 0,-19l1 0c-3,-2 -1,-5 1,-2 2,1 4,2 5,4 1,-1 2,-1 3,-1 10,-2 12,-8 8,-17l1 -1c-2,-7 -13,-13 -17,-5l-1 0c-1,0 -1,0 -1,-1l0 -7c-3,0 -4,-1 -1,-3 -2,-2 1,-4 2,-5 2,-1 5,-2 8,-2 20,2 -1,-7 -8,-2l-1 -1c0,-8 -1,-16 0,-23 6,0 11,-1 16,-2z"/>
     <path class="fil9" d="M109 647c-2,-2 -5,-4 -7,-7l7 7z"/>
     <path class="fil9" d="M278 723c0,0 0,0 0,1l0 -1z"/>
     <path class="fil9" d="M100 637c0,-1 -1,-1 -1,-2l1 2z"/>
     <path class="fil9" d="M99 635c0,0 0,0 -1,-1l1 1z"/>
     <path class="fil9" d="M109 604c0,0 0,-1 1,-1l-1 1z"/>
     <path class="fil9" d="M87 533c1,0 1,1 0,1l0 -1z"/>
     <path class="fil9" d="M363 585c0,0 0,0 0,0l0 0z"/>
     <path class="fil53" d="M289 756c1,1 4,5 5,7 5,5 9,10 13,15l-1 1c-9,0 -18,5 -23,13 -1,8 -5,4 -8,0 -5,-6 -9,-12 -10,-19l0 0c-1,-2 -1,-5 -1,-7 0,-2 0,-2 1,-1 5,7 7,-5 9,-8 3,-4 11,-5 15,-1z"/>
     <path class="fil54" d="M203 763c1,2 2,6 3,8 0,8 -1,15 -2,22l-2 1 -1 0c-2,-3 -5,-5 -9,-6l-1 0c-7,-2 -14,-1 -20,4l-1 0c2,-10 6,-20 7,-30 1,0 1,-1 1,-1 1,-6 10,-8 15,-7 4,1 11,4 10,9z"/>
     <path class="fil55" d="M170 792c6,-7 14,-7 22,-4 4,1 7,3 9,6l1 0c1,-3 2,-8 2,-11 1,-4 1,-8 2,-12 1,11 -1,31 -8,39 -7,6 -25,6 -28,-4 -2,-5 -1,-9 0,-14z"/>
     <path class="fil56" d="M265 773c0,-1 -1,-2 0,-2 2,7 6,14 10,20 1,1 5,5 5,5 1,0 2,-3 2,-4 4,-8 14,-14 22,-14 2,-1 2,-1 3,0 8,10 12,21 -2,27 -20,8 -40,-14 -40,-32z"/>
     <path class="fil57" d="M203 740c0,6 1,12 1,18l3 0c-1,0 -2,1 -4,1 2,1 0,3 0,4 -4,-9 -20,-11 -25,-2 0,-6 -1,-12 0,-18 0,-1 0,-1 1,-1 0,-1 1,0 0,0 1,0 1,0 1,0l2 0c6,2 13,1 20,-2l1 0z"/>
     <path class="fil9" d="M424 794l0 -1 0 0c0,0 0,1 0,1z"/>
     <path class="fil4" d="M174 645c2,0 3,1 5,2 17,10 53,9 70,0 2,-1 4,-2 6,-2 0,0 1,0 1,1 1,2 5,9 6,11l0 2c2,5 5,11 7,17 -33,-3 -65,-9 -96,-21 -2,-3 -1,-8 1,-10z"/>
     <path class="fil58" d="M305 602c12,2 23,5 35,8l2 2c2,2 1,6 -3,6 -10,-3 -21,-5 -31,-7l-1 1c-18,-4 -37,-7 -56,-8l-3 -1c-2,-1 -2,-6 -1,-7 1,0 2,0 3,0 1,0 1,-1 2,-1 18,1 36,4 53,7z"/>
     <path class="fil51" d="M397 658c-1,0 -1,0 -2,0 -1,2 -3,3 -5,4 -10,6 -24,10 -36,12 -1,0 -3,1 -5,1 -19,2 -37,3 -56,2 -1,0 -2,1 -3,0 28,-1 80,-10 104,-26 1,-1 3,-2 3,-3 2,4 2,6 0,10z"/>
     <path class="fil59" d="M225 676c5,0 15,3 22,4 7,1 15,1 22,2 2,0 3,1 4,2 0,0 0,0 -1,0 -26,1 -53,0 -80,-4 -7,-1 -14,-3 -21,-4 0,-3 0,-5 0,-7l2 -1c17,4 35,7 52,8z"/>
     <path class="fil60" d="M309 602l1 -1c5,2 11,3 16,2l1 0c1,0 4,1 6,1 0,0 0,0 0,0 3,1 4,1 6,2 1,0 1,0 1,0 1,0 2,0 3,0 0,0 1,0 1,0l8 2c0,0 0,0 0,0 3,1 6,1 8,1 0,0 0,0 1,0l1 1c0,0 0,0 1,0l4 1c0,0 0,0 0,0 2,0 3,0 3,1 1,0 1,0 1,0 1,1 3,1 3,1 0,0 1,0 1,0 1,0 2,1 3,1 0,0 0,0 1,0 3,1 7,3 10,5 1,0 1,0 1,0 6,3 14,7 17,13 1,1 1,3 1,3l-1 1c-4,-4 -4,-3 -1,0 2,2 3,3 2,5 -1,0 -2,-1 -3,-2 -1,1 -2,1 -3,1l-1 0c0,-7 -8,-11 -14,-14 -8,-3 -16,-6 -25,-8l0 -1 -1 -1c-1,1 -1,1 -1,0 -2,0 -3,0 -5,0 0,0 -1,0 -1,-1 0,0 0,0 0,0 -4,-1 -8,-2 -12,-3 -12,-4 -24,-6 -36,-9 0,0 -1,-1 -1,-1 -1,0 -1,0 0,-1 1,0 2,0 4,1z"/>
     <path class="fil60" d="M165 614c2,0 5,3 4,5 -2,1 -5,2 -7,3 -8,4 -17,8 -22,16 -3,-2 -3,-3 -5,-6 8,-8 19,-15 30,-18z"/>
     <path class="fil61" d="M221 676l2 0c1,0 1,0 2,0 -1,0 -1,1 -1,1 -18,-1 -36,-4 -53,-8 0,-1 0,-1 0,-1 0,-2 1,-4 1,-5 16,6 33,9 49,13z"/>
     <path class="fil62" d="M176 605c-1,1 -3,2 -5,2 -3,1 -6,1 -8,1 -1,0 -2,0 -3,0 -2,-1 -3,-3 -2,-5 0,0 1,-1 1,-1 0,0 0,-1 0,-1 3,-1 13,-4 16,-4 0,1 1,1 1,1 2,1 2,6 0,7z"/>
     <path class="fil63" d="M137 645l-1 -1c0,1 0,2 0,2 -1,2 -5,2 -7,1 0,-3 1,-5 2,-8 1,2 4,5 6,6z"/>
     <path class="fil64" d="M360 616c-1,0 -1,0 -2,1 -1,0 -2,-1 -3,-1 1,-1 4,0 5,0z"/>
     <path class="fil59" d="M223 676c-1,0 -1,0 -2,0l2 0z"/>
     <path class="fil64" d="M354 615c0,0 1,0 1,0 -1,0 -1,0 -1,0l0 0z"/>
     <path class="fil64" d="M360 618c0,-1 -1,-1 -1,-1l1 1z"/>
     <path class="fil6" d="M264 692c5,14 11,29 17,43 -6,7 -16,11 -24,8 -6,-14 -12,-29 -18,-43 0,-2 0,-2 -1,-1 7,-1 19,-4 26,-7z"/>
     <path class="fil65" d="M204 699c-1,-1 -1,0 -1,1 0,13 0,27 0,40 -7,5 -15,5 -23,2 0,0 0,0 -1,0 0,0 0,0 0,0 0,-1 -1,-1 -1,-2 -1,-2 0,-6 0,-9 0,-1 -1,-3 -1,-4 0,-11 1,-23 0,-34 8,3 19,5 27,6z"/>
     <path class="fil66" d="M82 502c2,0 4,1 5,2 -8,2 -13,11 -12,18 -3,-1 -3,-2 -3,-5 0,-4 3,-10 6,-13 1,0 4,-2 4,-2z"/>
     <path class="fil67" d="M91 532c-5,-2 -1,-10 1,-13 2,-3 7,-8 9,-4 1,0 0,0 1,0 1,0 1,2 2,2l20 10c-1,-1 -3,-1 -4,-1 0,0 -2,-2 -4,-1 0,2 2,1 2,2 1,1 0,14 0,17 1,1 2,2 3,3 -10,-4 -20,-9 -30,-14 1,0 1,-1 0,-1z"/>
     <path class="fil68" d="M159 516l1 -1c12,12 27,20 44,18l2 -1c0,0 0,0 1,0 1,1 1,4 -1,4l-1 1c0,2 -6,3 -7,1 0,2 -3,2 -4,0 0,0 -1,1 -1,1 -3,1 -25,0 -28,-2 0,0 -1,0 -1,0 -2,0 -5,2 -5,0 -2,-1 -3,-1 -5,-2 1,-6 4,-13 5,-19z"/>
     <path class="fil69" d="M164 537l-1 1c-6,7 -7,18 -4,27l0 1c-4,3 -8,-2 -6,-6 0,-1 -1,-3 -1,-4 0,-1 0,-1 0,-2 0,-6 2,-14 7,-17 0,0 3,-1 5,0z"/>
     <path class="fil68" d="M153 560c0,1 0,1 0,2 1,4 3,3 6,4l2 0c6,1 12,3 19,4 -1,9 -2,18 -3,27l-1 1c-5,1 -10,2 -15,3 -1,0 -1,0 -2,0 0,-2 -2,-4 -2,-6 -1,-3 -2,-7 -3,-11 -1,-6 -2,-15 -2,-22 0,-1 -1,-2 1,-2z"/>
     <path class="fil70" d="M136 646c0,1 0,1 0,1l0 2c2,3 4,5 6,7 2,2 0,2 -1,0 -4,0 -9,-3 -12,-7 0,-1 0,-1 0,-2 2,-1 5,0 7,-1z"/>
     <path class="fil71" d="M229 364c29,6 53,30 57,60 3,22 -3,46 4,67 6,17 19,31 30,45 5,8 10,17 16,24l1 3c-3,0 -3,2 -4,4l-1 1c-3,-2 -5,-4 -6,-6 -12,-16 -26,-27 -42,-38 -10,-8 -18,-19 -22,-32 6,-2 10,-14 10,-20 0,-7 -4,-17 -12,-14 -1,0 -3,4 -4,3 -4,-2 -5,-15 -6,-19 -4,-12 -15,-9 -23,-16 -3,-3 -3,-6 -8,-10 -2,-1 -2,0 0,1 3,5 5,11 4,17 -17,-3 -36,-7 -39,-29 -3,3 -5,5 -9,7l-6 1c-5,0 -12,0 -15,4 -1,2 -2,3 -3,4 -3,10 -3,21 -2,32l-1 2c-9,-11 -13,-26 -7,-40 0,-1 3,-4 2,-5 -5,2 -12,0 -16,-4 -1,-1 -5,-6 -6,-7 0,-1 1,-1 1,-1 9,-2 13,-1 21,-7 2,-1 2,-2 0,-5 0,-1 -3,-5 -2,-6 7,3 14,0 21,-2 2,0 4,0 6,0 2,-1 4,-4 6,-5 16,-10 36,-13 55,-9z"/>
     <path class="fil72" d="M141 656c2,1 1,2 -1,1l-8 -3c-1,0 -1,-1 -1,-1 -1,-1 -1,-3 -2,-4 4,3 8,5 12,7z"/>
     <path class="fil73" d="M147 659c-2,0 -5,0 -7,-2 2,0 1,0 1,-1 1,1 2,1 1,0 1,1 3,2 5,3z"/>
     <path class="fil67" d="M340 571c0,0 1,0 2,-1 3,-3 10,-12 14,-13 4,-2 3,1 5,2 0,1 4,-2 5,1 1,3 0,3 0,4 0,0 2,1 1,4 0,2 -3,3 -4,4 4,-1 7,1 5,5 0,0 -7,5 -8,7 -6,4 -11,12 -19,12 -4,1 -8,0 -13,1 -5,0 -6,-2 -6,-6 -1,-5 0,-17 7,-14 1,-2 2,-5 2,-8l1 -1c0,-1 1,-4 2,-5 1,-1 3,0 2,-3 2,4 3,2 3,8 0,2 0,3 1,3z"/>
     <path class="fil74" d="M340 571c0,0 0,2 -2,1 0,-1 1,-3 1,-4l1 3z"/>
     <path class="fil67" d="M175 412c-3,1 -7,2 -11,2 -1,0 -3,-1 -4,0 0,7 0,14 0,22 0,0 1,0 -1,1 0,0 1,1 0,1 -1,2 -9,9 -3,8l2 1c-1,0 0,1 -1,1 0,1 3,0 3,1 0,2 0,7 0,9l1 1c-1,2 -1,3 -1,5l1 2c-1,3 -1,6 -1,9l0 1c1,0 1,1 0,1l1 0c0,0 0,1 0,1 0,0 0,0 0,0 0,0 -1,-1 -2,0 1,0 1,1 1,2l0 19 -8 0 0 -4 -2 4 1 4c-10,-19 0,-26 -2,-44 0,-1 -1,-3 -1,-4 -1,-10 -1,-22 2,-32 3,-13 14,-9 25,-11z"/>
     <path class="fil9" d="M344 564c0,0 -1,1 -1,0 -1,0 0,-1 1,0z"/>
     <path class="fil75" d="M90 532c-2,-1 -10,-4 -11,-7 -3,-6 4,-18 11,-18 3,3 9,5 12,8 0,2 -1,0 -2,0 -6,-1 -13,13 -9,17 0,0 0,0 -1,0z"/>
     <path class="fil76" d="M91 532c0,0 3,1 0,1 0,0 0,-1 -1,-1l1 0z"/>
     <path class="fil77" d="M143 391c3,-1 1,-2 0,-5l3 3c-1,1 -2,2 -3,2z"/>
     <path class="fil9" d="M333 604c2,1 3,0 4,0 0,0 1,2 2,2 -2,-1 -3,-1 -5,-1l-1 -1z"/>
     <path class="fil9" d="M352 606c1,0 0,1 -1,1 0,-1 1,-1 1,-1z"/>
     <path class="fil9" d="M367 611c-2,0 -3,0 -4,-1 1,0 3,0 4,1z"/>
     <path class="fil9" d="M362 610c-1,0 -1,-1 -1,-1l1 1z"/>
     <path class="fil9" d="M370 612c-1,0 -2,0 -3,-1 2,0 2,-2 3,1z"/>
     <path class="fil78" d="M296 766c1,2 -6,3 -8,3 -4,1 -4,3 -7,5 -4,2 -2,-3 1,-5 2,-1 13,-5 14,-3z"/>
     <path class="fil79" d="M286 777c-1,0 -1,-1 0,-2 1,-1 10,-5 11,-3 1,3 -3,2 -4,3 -3,0 -5,3 -7,2z"/>
     <path class="fil80" d="M198 774c0,1 -8,-3 -10,-3 -3,0 -7,3 -8,3 -2,0 -2,-2 -1,-3 3,-2 11,-2 15,-1 1,1 5,3 4,4z"/>
     <path class="fil81" d="M193 777c0,0 0,1 0,2 -2,0 -4,-1 -6,-1 -2,0 -6,2 -5,-1 0,-2 10,-1 11,0z"/>
     <path class="fil82" d="M202 794c0,0 -1,1 -1,1 0,-1 0,-1 0,-1 -1,-1 -4,-4 -5,-5 -1,0 -3,0 -4,-1 5,1 7,3 10,6z"/>
     <path class="fil9" d="M179 742l1 0 0 1c-1,-1 0,-1 -1,-1z"/>
     <path class="fil68" d="M308 611l9 15c-12,5 -24,6 -35,-2 -1,1 -2,-1 -2,-2 -1,0 -1,0 0,0 0,1 0,1 0,1l0 1c1,-1 1,0 1,1 4,7 5,13 3,20 -1,3 -5,12 -8,13 -4,1 -10,1 -14,1 -3,-5 -6,-9 -7,-14l-1 -2c2,-1 3,-2 4,-4 -5,-11 -9,-22 -11,-33 0,-1 0,-1 0,-2 1,0 1,-1 1,-1 18,1 35,3 52,6 3,0 6,2 8,2z"/>
     <path class="fil83" d="M282 624l-1 1c0,0 -1,-1 -1,-1l0 -1c-1,0 0,0 0,-1l0 0c1,1 1,2 2,2z"/>
     <path class="fil84" d="M194 538l1 2c-2,25 38,22 42,2l2 -1c0,0 1,0 1,0 3,0 22,12 26,15l1 2 -1 1c-10,3 -14,17 -10,26l-1 1c-2,1 -6,0 -8,-2 1,4 2,9 0,12 1,2 1,5 1,7 2,12 6,24 11,36 0,1 -3,5 -4,6 -15,12 -55,12 -72,6 -3,-2 -7,-4 -9,-6 0,-4 2,-18 1,-20l-1 -2c0,-6 1,-11 1,-17l1 -1c0,-2 0,-5 0,-7 0,-2 1,-4 1,-6 0,-7 2,-15 2,-22 -7,0 -14,-1 -20,-4 -4,-9 -4,-22 5,-29 10,1 20,1 30,1z"/>
     <path class="fil85" d="M176 605c0,4 -1,8 0,12l-1 8c-1,-1 -5,-4 -6,-6 -1,-1 -3,-4 -4,-5 -1,-2 -2,-4 -2,-6 4,-1 8,-3 13,-3z"/>
     <path class="fil68" d="M303 593l2 0c1,0 3,2 4,3 2,-1 3,-1 3,0l2 0c0,-1 3,-1 3,1 2,-1 7,-1 8,1l2 5c-9,3 -10,0 -18,-1 -1,-1 -3,-1 -4,-1 0,1 0,1 0,1 0,0 -1,1 -2,1 -18,-3 -37,-6 -56,-7 0,-4 0,-8 0,-13 3,1 5,2 8,3 1,-2 3,0 4,1 1,-1 3,-2 4,-2 1,-2 2,-3 3,-3l3 -1c11,5 22,8 34,11l0 1z"/>
     <path class="fil86" d="M309 602c-1,0 -3,0 -4,-1 0,0 0,-1 0,-1l4 2z"/>
     <path class="fil64" d="M362 617l-1 -1c1,1 1,1 1,1z"/>
     <path class="fil63" d="M136 649c0,-1 0,-1 0,-2l0 2z"/>
     <path class="fil6" d="M116 544c-1,0 -2,-2 -2,-2 -2,0 -4,1 -4,-1 1,-1 7,1 7,1 0,0 -1,2 -1,2z"/>
     <path class="fil87" d="M227 523l1 2c-4,6 -2,13 6,13l0 1c2,3 -2,10 -5,10l-1 1c0,3 -6,4 -9,5 -7,2 -17,0 -21,-7 -1,-3 -2,-8 0,-10 2,0 5,0 7,-1l1 -1c1,-1 1,-3 1,-4 1,0 1,0 2,0l1 -1c6,-2 12,-5 17,-8z"/>
     <path class="fil7" d="M198 538c-2,18 19,21 30,12l1 -1c3,-3 5,-6 5,-10 2,-1 5,0 5,2 -4,23 -50,25 -45,-3 1,0 3,0 4,0z"/>
     <path class="fil88" d="M206 532l-2 1c0,0 1,-1 2,-1z"/>
     <path class="fil88" d="M205 537c0,0 1,-1 1,-1l-1 1z"/>
     <path class="fil68" d="M262 492c1,0 1,1 2,2 9,23 19,28 37,42 12,9 23,20 31,32 -1,2 -1,10 -2,10 0,0 -1,-1 -1,-1l-2 0c-3,0 -7,0 -9,-2 -1,1 -2,1 -2,0 -2,1 -3,1 -4,-1 -2,1 -4,1 -6,0 0,0 -1,0 -2,0 0,0 -1,0 -1,0 -10,-3 -21,-7 -30,-12 -1,0 -1,0 -2,-1 0,0 0,-1 -1,-1 -2,0 -3,0 -3,-2 -10,-5 -18,-12 -28,-17 -2,-1 -2,-1 -5,-2 -4,-1 -8,-1 -9,-7 0,-3 0,-6 2,-9 12,-7 21,-15 27,-27 0,-1 0,-2 1,-2 0,-1 5,-1 7,-2z"/>
     <path class="fil89" d="M219 416l0 1c-1,-1 -2,-1 -3,-2 1,0 2,1 3,1z"/>
     <path class="fil90" d="M329 577c-1,0 -2,0 -4,1 -3,2 -4,16 0,18 1,0 2,0 3,1 -1,0 -3,1 -3,1 -2,0 -6,-1 -8,-1 1,-3 1,-7 0,-11l2 -7c-1,-1 -1,-3 -1,-4 3,1 8,1 11,2z"/>
     <path class="fil8" d="M177 461l1 1c0,0 0,0 0,1 5,9 0,21 -12,19 0,-1 1,-1 2,-2l0 -1c3,0 6,-7 2,-7l-1 -1c1,-7 -4,-4 -6,0l-2 0c0,2 0,3 0,4 1,0 1,0 0,1 1,2 2,4 0,2 0,0 0,-1 0,-1l-1 0c0,0 0,-1 0,-1l0 -1c-1,-4 -1,-7 0,-11 -1,-2 3,-5 5,-6 4,-2 11,-1 12,3z"/>
     <path class="fil91" d="M159 437c1,-1 7,-2 8,-2 3,0 11,2 10,5 0,3 -7,1 -9,1 -5,1 -8,2 -10,6 -2,1 -4,1 -5,-1 -1,-3 3,-8 6,-9z"/>
     <path class="fil92" d="M178 463c0,-1 0,-1 0,-1l-1 -1c-5,-5 -14,-4 -17,3 -2,1 0,-4 0,-6 4,-8 14,-5 18,2 0,1 1,2 0,3z"/>
     <path class="fil6" d="M152 477c-1,0 0,-1 -1,-1 0,-1 -1,-1 -1,-2 -1,-1 1,-4 0,-5 2,1 2,6 2,8z"/>
     <path class="fil93" d="M160 476c0,0 0,0 0,-1l0 1z"/>
     <path class="fil6" d="M148 491c0,1 -1,0 -1,-1 1,0 1,1 1,1z"/>
     <path class="fil93" d="M161 476c2,0 3,1 4,2 1,1 2,2 3,2 -1,1 -1,1 -2,2 -3,-1 -3,-2 -5,-4l0 0 1 0c0,-1 0,-1 -1,-2z"/>
     <path class="fil93" d="M161 477c0,0 -1,0 -1,0 1,0 1,0 1,0z"/>
     <path class="fil8" d="M231 461c5,9 1,20 -10,19l-2 0 0 0 0 -1c1,0 2,0 3,-1l0 -1c2,-1 3,-4 2,-6 -2,-1 -3,-3 -3,-6 -2,-1 -4,1 -6,3l-1 0c-1,2 -1,5 0,7 3,5 1,3 -1,0 0,0 0,0 0,0l-1 -2c-1,-4 -1,-7 1,-11 -2,-2 0,-3 2,-5 4,-4 15,-3 16,4z"/>
     <path class="fil94" d="M213 435c4,0 10,1 14,3 2,1 9,5 8,8 -2,3 -4,0 -6,-1 -5,-3 -11,-4 -17,-5 -2,0 -7,2 -7,-1 0,-3 6,-4 8,-4z"/>
     <path class="fil95" d="M181 506c1,-1 5,1 6,2 7,1 13,1 20,-2 1,0 7,-3 8,-4 0,-1 0,-3 2,-3 0,0 5,4 5,5 0,3 -4,1 -5,1 0,0 -5,3 -8,4 -7,3 -17,4 -24,1 -2,0 -6,-2 -4,-4z"/>
     <path class="fil92" d="M231 461c-4,-7 -15,-7 -18,1 -2,1 -1,1 -1,-1 -1,-3 -1,-6 2,-8 3,-3 9,-2 13,0 2,2 5,5 4,8z"/>
     <path class="fil38" d="M193 474c1,2 -3,4 -3,6 -1,5 2,7 1,8 0,4 -4,1 -5,-2 -1,-3 -1,-8 2,-11 1,0 4,-2 5,-1z"/>
     <path class="fil96" d="M222 478c-1,1 -2,2 -3,2 -3,0 -5,-3 -6,-5l2 3c-2,-4 -3,-6 -1,-10l1 1c-1,4 1,10 6,8l1 1z"/>
     <path class="fil97" d="M220 489c1,-2 4,2 1,2 -1,1 -2,-2 -1,-2z"/>
     <path class="fil98" d="M203 480c1,1 -2,3 -3,1 -1,-2 3,-1 3,-1z"/>
     <path class="fil99" d="M172 494c2,0 3,2 1,3 -1,0 -3,-2 -1,-3z"/>
     <path class="fil100" d="M182 492c0,0 -2,0 -2,-1 0,-2 3,0 2,1z"/>
     <path class="fil101" d="M163 490c-2,-1 1,-4 2,-2 0,2 -2,2 -2,2z"/>
     <path class="fil102" d="M171 486c1,0 2,2 1,2 -2,0 -2,-2 -1,-2z"/>
     <path class="fil103" d="M228 485c0,0 0,2 0,2 -3,1 -1,-3 0,-2z"/>
     <path class="fil104" d="M214 483l-2 0 0 -2 1 0c1,1 1,1 1,2z"/>
     <path class="fil105" d="M207 490c0,1 -1,4 -2,2 -1,-2 1,-2 2,-2z"/>
     <path class="fil106" d="M179 483c1,0 -1,3 -2,1 0,-2 1,-2 2,-1z"/>
     <path class="fil96" d="M221 480c-1,0 -2,1 -2,0l2 0z"/>
     <path class="fil96" d="M213 475c0,-1 -1,-1 -1,-2l1 2z"/>
     <path class="fil88" d="M210 531c0,1 0,1 -1,1 1,-1 1,-1 1,-1z"/>
     <path class="fil107" d="M280 622l0 0c-1,0 -1,0 -1,-1l1 1z"/>
     <path class="fil107" d="M280 624c0,-1 0,-1 0,-1l0 1z"/>
     <path class="fil69" d="M267 558c1,1 2,1 3,2l0 1c-7,3 -10,9 -11,16l-1 1c1,1 1,3 1,5 1,1 1,3 0,4 -1,0 -2,-1 -4,-1 -5,-9 1,-26 12,-28z"/>
     <path class="fil108" d="M215 573c1,2 2,4 5,4 1,0 2,0 3,0 2,0 3,-1 4,-2 1,-1 2,-1 2,0 -1,6 -12,6 -15,2 -3,-3 -2,-6 1,-4z"/>
     <path class="fil109" d="M226 573c-1,2 -3,4 -4,3 0,0 -1,0 -1,0 -3,-1 -6,-2 -5,-5 2,-3 10,-2 10,2z"/>
     <path class="fil110" d="M221 576c-3,0 -7,-2 -5,-5 0,4 3,4 5,5z"/>
     <path class="fil110" d="M226 573c0,1 -1,2 -1,3 -1,0 -2,0 -2,1 2,0 3,-2 4,-2 0,2 -2,2 -4,2l-1 -1c2,0 3,-1 4,-3z"/>
     <path class="fil110" d="M220 577c-3,0 -5,-1 -5,-4 1,2 2,4 5,4z"/>
     <path class="fil6" d="M306 574l1 1c-3,5 -4,11 -3,17l-1 1c-2,-1 -16,-4 -20,-5 -5,-2 -11,-4 -17,-6l-1 0c-2,-1 -4,-2 -7,-3l0 -1c0,-8 5,-16 12,-18 12,6 24,11 36,14z"/>
     <path class="fil111" d="M318 575c4,3 0,8 0,12 0,3 3,9 -1,10 -2,0 -3,0 -5,-1 -2,-5 -4,-10 -1,-16 1,-2 2,-5 5,-5 0,0 1,0 2,0z"/>
     <path class="fil112" d="M312 574l0 2c-5,5 -5,12 -2,18l-1 2c-4,-1 -3,-1 -6,-3 -1,-5 -1,-10 1,-15 0,0 2,-4 2,-4 2,-2 4,0 6,0z"/>
     <path class="fil113" d="M316 575c-6,6 -7,13 -3,20 1,2 0,1 -1,1 -1,0 -2,0 -3,0 -4,-7 -3,-17 3,-22 1,0 3,0 4,1z"/>
     <path class="fil114" d="M266 582c0,3 -3,5 -7,5 -1,-3 -1,-6 -1,-9 3,0 6,2 8,4z"/>
     <path class="fil115" d="M228 550c1,-1 1,-1 1,-1l-1 1z"/>
     <path class="fil116" d="M161 471c1,-2 4,-5 7,-5 3,0 1,2 2,5 1,2 4,-1 3,4 -1,4 -2,4 -5,5 -4,1 -5,-2 -7,-4 0,-1 0,-1 0,-1 0,-1 0,-2 0,-4z"/>
     <path class="fil93" d="M161 475c-1,-1 0,-3 0,-4 1,2 0,3 0,4z"/>
     <path class="fil6" d="M178 462l-1 -1c0,1 1,1 1,1z"/>
     <path class="fil116" d="M214 468c1,-2 3,-4 6,-4 4,-1 2,2 3,5 0,1 3,0 3,3 0,2 -2,5 -4,6 -7,2 -9,-4 -8,-10z"/>
    </g>
   </g>
  </g>
  <path class="fil2" d="M75 0l494 0c41,0 75,34 75,75l0 622c0,41 -34,75 -75,75l-494 0c-41,0 -75,-34 -75,-75l0 -622c0,-41 34,-75 75,-75z"/>
  <path class="fil117" d="M155 76c5,0 9,1 11,4 3,3 4,6 4,11 0,4 -1,8 -4,10 -3,3 -7,4 -12,4l-7 0 0 15 -9 0 0 -40c0,-1 0,-2 1,-3 1,-1 2,-1 3,-1l13 0zm-1 22c5,0 7,-3 7,-7 0,-3 -1,-4 -2,-6 -1,-1 -3,-2 -5,-2l-7 0 0 15 7 0z"/>
  <polygon id="1" class="fil117" points="188,120 188,76 197,76 197,94 215,94 215,76 224,76 224,120 215,120 215,102 197,102 197,120 "/>
  <polygon id="2" class="fil117" points="280,76 265,104 265,120 256,120 256,104 241,76 251,76 260,96 270,76 "/>
  <path id="3" class="fil117" d="M307 121c-3,0 -6,-1 -9,-2 -2,-1 -5,-3 -6,-5l4 -6c3,4 7,5 11,5 3,0 5,0 6,-1 2,-1 2,-3 2,-4 0,-1 0,-1 0,-2 0,0 0,-1 -1,-1 0,0 0,-1 -1,-1 0,0 0,-1 -1,-1 -1,0 -1,0 -2,0 0,-1 -1,-1 -2,-1 -1,0 -1,-1 -2,-1 -1,0 -3,-1 -4,-2 -2,0 -3,-1 -4,-2 -2,-1 -3,-2 -4,-4 0,-1 -1,-3 -1,-5 0,-4 2,-7 5,-9 3,-3 6,-4 11,-4 5,0 10,2 14,4l-4 7c-3,-3 -6,-4 -10,-4 -2,0 -4,1 -5,2 -1,1 -2,2 -2,4 0,0 0,1 0,1 0,1 1,1 1,2 1,0 1,0 2,1 0,0 1,0 2,1 0,0 1,0 1,0 1,1 2,1 3,1 2,1 4,2 5,2 1,1 3,2 4,3 1,1 2,2 3,3 1,2 1,3 1,5 0,4 -1,7 -5,10 -3,3 -7,4 -12,4z"/>
  <polygon id="4" class="fil117" points="342,120 342,76 351,76 351,120 "/>
  <path id="5" class="fil117" d="M391 121c-7,0 -12,-2 -16,-6 -4,-4 -6,-10 -6,-17 0,-7 2,-12 7,-16 4,-5 9,-7 15,-7 4,0 8,1 11,3 3,1 5,4 7,7l-7 4c-2,-4 -6,-6 -10,-6 -4,0 -8,1 -10,4 -2,3 -4,6 -4,11 0,5 2,8 4,11 2,3 5,4 9,4 5,0 9,-2 13,-6l5 5c-5,6 -11,9 -18,9z"/>
  <path id="6" class="fil117" d="M454 120l-4 -11 -16 0 -3 11 -10 0 15 -41c1,-2 3,-3 6,-3 3,0 5,1 6,3l15 41 -9 0zm-17 -18l11 0 -6 -17 -5 17z"/>
  <path id="7" class="fil117" d="M483 120c-1,0 -2,0 -3,-1 0,-1 -1,-1 -1,-2l0 -41 9 0 0 37 20 0 0 7 -25 0z"/>
  <polygon id="8" class="fil117" points="184,133 184,141 171,141 171,177 162,177 162,141 150,141 150,133 "/>
  <polygon id="9" class="fil117" points="201,177 201,133 210,133 210,152 229,152 229,133 238,133 238,177 229,177 229,159 210,159 210,177 "/>
  <path id="10" class="fil117" d="M288 141l-21 0 0 10 19 0 0 8 -19 0 0 11 20 0 0 7 -29 0 0 -40c0,-1 1,-2 1,-3 1,0 2,-1 3,-1l26 0 0 8z"/>
  <path id="11" class="fil117" d="M329 177l-10 -16 -4 0 0 16 -9 0 0 -40c0,-1 1,-2 1,-3 1,0 2,-1 3,-1l13 0c5,0 9,2 11,4 3,3 4,6 4,10 0,7 -3,11 -10,13l11 17 -10 0zm-14 -36l0 13 7 0c5,0 7,-2 7,-7 0,-2 0,-3 -2,-5 -1,-1 -3,-1 -5,-1l-7 0z"/>
  <path id="12" class="fil117" d="M386 177l-4 -10 -16 0 -4 10 -9 0 15 -40c1,-3 3,-4 6,-4 3,0 5,1 6,4l15 40 -9 0zm-18 -18l11 0 -5 -16 -6 16z"/>
  <path id="13" class="fil117" d="M428 133c5,0 9,2 11,4 3,3 4,7 4,11 0,5 -1,8 -4,11 -3,2 -7,3 -12,3l-7 0 0 15 -9 0 0 -40c0,-1 0,-2 1,-3 1,0 2,-1 3,-1l13 0zm-1 22c5,0 7,-2 7,-7 0,-2 0,-4 -2,-5 -1,-2 -3,-2 -5,-2l-7 0 0 14 7 0z"/>
  <polygon id="14" class="fil117" points="494,133 479,161 479,177 470,177 470,161 455,133 465,133 475,153 485,133 "/>
 </g>
</svg>
