<?xml version="1.0" encoding="UTF-8"?>
<svg id="Layer_1" xmlns="http://www.w3.org/2000/svg" version="1.1" viewBox="0 0 1080 1080">
  <!-- Generator: Adobe Illustrator 29.4.0, SVG Export Plug-In . SVG Version: 2.1.0 Build 152)  -->
  <defs>
    <style>
      .st0 {
        fill: #fff;
        fill-rule: evenodd;
      }
    </style>
  </defs>
  <path class="st0" d="M495.69,584.27h0M483.35,360.97c-30.19,15.52-30.78,15.04-49.81-.53h.01c-2.7-2.21-5.81-4.75-9.4-7.55-11.35-8.84-15.73-4.14-29.97,11.09h-.02c-4.13,4.4-8.98,9.6-14.55,15.16-5.87,5.86-10.84,10.66-14.99,14.68-10.38,10.02-15.62,15.08-16.66,18.68-.82,2.84,1.76,6.23,6.95,13.04,2.01,2.63,4.39,5.76,7.39,9.99h.01c2.48,3.5,4.42,5.98,5.93,7.91,2.79,3.56,4.28,5.47,4.76,8.08.58,3.09-.5,5.47-2.82,10.55-.67,1.48-1.46,3.2-2.28,5.11-.72,1.66-1.47,3.69-2.22,5.72h0c-1.26,3.43-2.56,6.91-4.29,10.07l-.85,1.56-1.76.3c-9.14,1.59-16.87,2.62-23.16,3.44-12.07,1.6-18.33,2.44-20.84,5.4h.01c-2.79,3.34-2.66,10.93-2.38,26.64.1,5.89.23,12.85.23,19.43s-.13,13.63-.24,19.55c-.29,15.5-.43,23.12,2.42,26.52,2.7,3.2,9.49,4.08,22.81,5.8,5.88.76,12.93,1.68,21.15,2.99l1.85.29.85,1.65c1.81,3.51,6.09,12.58,8.83,20.1,1.92,5.27,3.09,10.07,2.31,12.59-.38,1.25-2.89,4.9-6.01,9.14-4.93,6.7-11.58,15.31-13.27,17.43-8.87,11.14-4.09,15.64,11.48,30.26,4.32,4.06,9.36,8.79,14.81,14.24h0s6.68,6.67,6.68,6.67c4.85,4.84,9.53,9.5,14.63,14.66l2.57,2.62v.02c5.21,5.32,7.8,7.96,10.12,7.75,2.97-.26,7.73-3.75,17.18-10.65h.01l5.13-3.75h0c2.92-2.13,5.04-3.75,6.76-5.06,4.46-3.4,6.71-5.12,9.52-5.63h0c3.1-.57,5.3.46,9.7,2.55,1.58.75,3.51,1.66,5.69,2.61h.01c1.79.77,3.81,1.5,5.83,2.21,3.41,1.21,6.83,2.43,10.04,4.26l1.54.87.28,1.74c1.5,9.01,2.52,16.49,3.35,22.58,1.55,11.43,2.43,17.76,4.51,20.69,2.13,2.98,7.42,2.96,19.2,2.91h4.48v-.03c1.96,0,4.48.14,7.14.28,9.6.51,21.4,1.14,23.97-5.22,1.26-3.13,1.09-17.76.95-28.81h0c-.05-4.77-.1-8.91-.02-11.32l.12-3.55h3.55s71.4-.14,71.4-.14l.98.14c2.59.71,3.92,3.41,5.84,7.28,4.17,8.42,12.19,24.65,34.44,25.13,13.35.28,23.53-5.63,29.84-14.22,3.61-4.91,5.99-10.72,7-16.75,1.01-6.02.65-12.28-1.19-18.1-3.2-10.14-10.99-19.02-24.02-23.18-6.94-2.21-13.8-2.19-20.05-.48-6.82,1.86-12.97,5.72-17.8,10.86-2.02,2.15-3.15,3.82-4.33,5.57v.02c-.99,1.47-2.04,3.01-3.73,5.07l-1.1,1.33h-1.74s-75.64.26-75.64.26h-3.67s0-3.68,0-3.68l-.02-48.55v-3.69h3.68c5.79.02,12.03.28,18.5.54,24.98,1.01,53.81,2.19,65.79-9.84,3.42-3.45,4.94-7.55,6.82-12.63.91-2.45,1.89-5.12,3.15-7.98l.96-2.18,2.4-.02,43.55-.24h2.27s1.03,2.02,1.03,2.02c6.34,12.53,16.3,19.31,26.73,21.38,6.18,1.22,12.54.82,18.43-.99,5.89-1.8,11.34-5.03,15.67-9.43,7.18-7.3,11.35-17.95,9.6-30.97-.93-6.86-3.79-13.01-7.93-18.02-3.97-4.8-9.14-8.56-14.92-10.89h0c-5.77-2.33-12.17-3.26-18.61-2.39-6.69.9-13.49,3.75-19.77,8.95-6.55,5.43-8.26,10.67-9.49,14.44-1.45,4.44-2.46,7.54-7.25,8.67l-.83.09h-38.83s-3.68.01-3.68.01v-3.68s-.02-97.23-.02-97.23v-3.68h46.64s1.71,0,1.71,0l1.1,1.31c.99,1.18,1.11,1.35,1.77,2.26h0s.38.53.38.53h0c1.19,1.62,2.18,3.1,3.07,4.43,2.94,4.37,4.68,6.96,12.23,11.14,7.66,4.23,15.76,5.43,23.29,4.28,5.66-.86,11.03-3.06,15.66-6.29,4.65-3.24,8.58-7.51,11.35-12.54,3.71-6.7,5.39-14.79,4.05-23.55-1.18-7.75-4.47-14.2-9.02-19.15-4.19-4.56-9.47-7.9-15.19-9.85-5.74-1.96-11.94-2.55-17.95-1.63-6.58,1.01-12.95,3.85-18.22,8.7-5.75,5.27-7,8.23-8.43,11.61-1.16,2.75-2.44,5.76-5.58,10.06l-1.1,1.51h-1.87s-39.85.09-39.85.09h-3.32s-.34-3.31-.34-3.31c-4.07-40.33-29.23-39.4-70.45-37.89-9.11.34-18.94.7-28.89.7v-.02h-21.98c-16.48,0-32.98.02-49.46,0-36.66-.07-42.3,19.77-42.36,49.07,0,6.46.24,13.49.51,20.86.29,8.14.6,16.69.6,24.92h-.01v24.27c.01,16.17.02,32.35,0,48.53-.06,39.28,17.91,44.86,48.29,44.91,5.91,0,12.38-.18,19.26-.39,8.11-.24,16.79-.5,26.06-.46l3.69.02v3.66s-.08,97.15-.08,97.15v3.68h-3.68l-17.21-.02h-2.69s-.82-2.56-.82-2.56c-1.9-5.97-2.69-13.25-3.45-20.4-.73-6.86-1.46-13.6-3.07-18.26-1.73-5.03-11.25-7.94-19.69-10.53-3.32-1.01-6.52-2-9.13-3.06-3.07-1.24-5.74-2.69-8.26-4.06h0c-6.57-3.56-12.05-6.52-19.38-.97h0s-3.52,2.71-3.52,2.71c-7.33,5.61-16.79,12.86-23.63,16.85l-1.88,1.1-1.87-1.13c-2.74-1.66-13.48-11.77-23.49-21.79-9.25-9.26-18.07-18.63-19.66-21.45l-1-1.76.93-1.77c1.96-3.7,4.43-6.9,6.86-10.06.97-1.26,1.97-2.55,2.78-3.67l.02-.03,5.2-7.11h.01s4.74-6.37,4.74-6.37c5.6-7.43,2.42-13.38-1.33-20.34-1.21-2.25-2.47-4.6-3.63-7.25-1.27-2.9-2.37-6.51-3.5-10.24-2.4-7.92-5.05-16.61-9.39-18.42-4.11-1.7-11.48-2.51-18.96-3.32-7.39-.8-14.9-1.62-20.43-3.45l-2.52-.84v-2.65s-.11-59.07-.11-59.07v-2.75s2.61-.79,2.61-.79c5.81-1.75,12.95-2.53,20-3.29,6.95-.74,13.81-1.49,18.68-3.14,4.9-1.66,7.55-10.45,9.96-18.41h0c1.02-3.38,2.01-6.66,3.22-9.51.99-2.32,2.21-4.67,3.44-7.01,3.72-7.11,7.44-14.21,2.51-20.82l-.03-.04-19.84-27.53-1.37-1.91,1.14-2.04c1.64-2.92,10.54-12.4,19.83-21.71h0c9.9-9.9,20.47-19.81,23.37-21.52l2.07-1.21,1.94,1.4,26.74,19.28.09.06c7.37,5.62,13.11,2.53,19.91-1.15,2.37-1.28,4.86-2.63,7.69-3.84,2.8-1.2,6.28-2.25,9.89-3.36,7.99-2.43,16.86-5.14,18.73-9.52,1.7-3.98,2.52-11.34,3.34-18.85.82-7.43,1.67-15.01,3.52-20.54l.84-2.49,2.64-.02,16.54-.12,3-.02.62,2.95c1.83,8.79,1.37,23.63.93,37.55-.26,8.56-.52,16.77-.21,22.82.08,1.6.42,3.13.98,4.49h0c.7,1.68,1.74,3.09,3.04,4.03,1.23.87,2.74,1.36,4.47,1.27h.02c1.09-.05,2.32-.34,3.65-.9,5.18-2.14,5.1-9.15,5.03-16.29-.01-1.18-.02-2.39-.02-3.58l.03-3.66h3.65l74.25-.05.89.1c2.11.52,3.71,2.6,5.98,5.55,5.89,7.65,17.97,23.32,41.34,17.61,8.25-2.01,15.94-7.23,21.14-14.64,4.72-6.72,7.38-15.3,6.56-24.99-.78-9.18-4.51-16.57-9.89-21.97-5.04-5.05-11.54-8.41-18.47-9.94v.02c-6.98-1.53-14.36-1.23-21.09,1.06-7.42,2.53-14.1,7.48-18.59,15.05-1.12,1.88-1.99,4.05-2.84,6.17-.96,2.41-1.93,4.81-3.21,6.96l-1.07,1.8h-2.11s-72.89.12-72.89.12h-3.63s-.04-3.65-.04-3.65c-.09-7.68,0-14.16.07-19.61.17-12.76.25-19.61-1.87-22.53-2.21-3.02-8.91-2.99-23.38-2.94h-6.76v.03h-1.42v-.02c-14.32,0-20.28,0-22.47,3.06-1.82,2.55-2.51,7.84-3.67,16.88-.86,6.67-1.97,15.29-4.02,26.29l-.33,1.79-1.6.83ZM660.76,346.72c8.57-2.89,15.28-.19,19.51,4.92h-.01c1.77,2.13,3.07,4.66,3.87,7.34.79,2.64,1.1,5.48.91,8.26h0c-.53,7.42-4.65,14.48-13.02,16.97-8.66,2.56-16.22-.49-20.94-5.87-1.85-2.1-3.27-4.58-4.13-7.19-.88-2.65-1.2-5.48-.86-8.26.8-6.65,5.24-12.99,14.67-16.17ZM724.67,460.39c8.86-3.11,16.05-.23,20.63,5.12,1.86,2.17,3.27,4.78,4.15,7.55h.01c.87,2.74,1.23,5.67,1,8.51-.58,7.08-4.68,13.68-13.21,16.13-9.12,2.63-16.45-.21-21.05-5.34-1.91-2.12-3.33-4.65-4.19-7.32-.86-2.69-1.18-5.57-.87-8.37.73-6.8,4.95-13.27,13.53-16.29ZM722.77,582.83c8.13-4.05,15.58-2.07,20.76,2.65,2.21,2.01,4,4.55,5.21,7.33,1.21,2.75,1.86,5.78,1.84,8.79-.07,7.02-3.73,13.88-12.51,17.23-8.05,3.08-15.35,1.01-20.35-3.47-2.15-1.93-3.87-4.31-5.03-6.91-1.17-2.63-1.78-5.51-1.72-8.4.14-6.55,3.62-13.15,11.8-17.23ZM462.19,452.12c4.66-1.69,72.71-1.35,108.8-1.17,6.49.03,11.59.06,18.67.06,2.58,0,4.94-.1,7.33-.21,12.85-.55,26.87-1.15,30.91,10.38,1.66,4.74,1.3,72.28,1.11,108.67-.03,6.82-.06,11-.06,19.33,0,2.57.09,4.82.19,7.13.51,12.87,1.1,27.16-10.34,31.15-4.73,1.65-73.23,1.29-109.44,1.1-6.55-.03-10.57-.06-18.59-.06v-.02c-2.2,0-4.74.11-7.32.21-12.84.55-26.93,1.14-30.89-10.38-1.75-5.1-1.37-71.91-1.16-108.34.04-7.17.08-12.59.08-19.68,0-2.87-.12-5.46-.24-8.03h0c-.61-13.08-1.2-25.72,10.97-30.14ZM495.69,491.53l40.4.21,3.68.02v3.66s-.09,40.08-.09,40.08v3.54s-3.55.14-3.55.14c-1.36.05-2.85.08-4.28.11-7.57.13-13.84.24-15.81,5.71-.32.87-.51,1.73-.57,2.56-.15,1.91.36,3.6,1.33,4.96,1.02,1.43,2.57,2.55,4.38,3.2.88.32,1.88.53,2.95.62,11.93.98,27.08.64,41.32.33,7.15-.16,14.11-.32,19.34-.32h3.69v3.7s-.05,24.23-.05,24.23v3.7h-3.68c-3.69,0-8.11-.16-12.42-.3-16.71-.56-31.95-1.08-32.41,8.61-.33,6.89,4.91,8.57,11.85,8.9,3.02.14,6.3.06,9.64-.02,2.39-.05,4.82-.12,6.28-.12v.02c4.31,0,8.25.09,11.83.17h.01c2.6.06,5.06.12,8.16.12,11.98,0,17.85-1.63,17.85-13.44h-.02c0-6.82.11-14.2.21-20.57.26-17.82.39-26.46-2.44-29.75v-.02c-2.37-2.76-8.71-2.64-20.98-2.42-5.89.11-13.03.24-21.67.05l-3.59-.07v-3.59s-.19-40.35-.19-40.35l-.02-3.7h3.69s24.21.02,24.21.02h3.7l-.03,3.69-.02,3.31v.02c-.08,7.74-.15,15.1,5.54,16.77,1.23.37,2.37.53,3.41.53,1.91,0,3.45-.62,4.62-1.65,1.3-1.15,2.26-2.86,2.85-4.88.46-1.59.7-3.41.7-5.31s.06-4.97.11-7.8h0c.03-1.67.06-3.29.06-5.89,0-10.59-1.53-15.92-14.67-15.92v-.02h-74.17v.02l-11.26-.07c-17.24-.12-25.51-.17-28.53,3.03-2.76,2.93-2.62,10.17-2.37,24.05.1,5.02.21,10.88.18,17.7,0,1.37-.05,2.64-.08,3.93h0c-.15,5.65-.32,11.55,2.15,14.3,1.37,1.54,3.4,2.45,5.54,2.63,2.11.17,4.3-.38,6.08-1.74,5.1-3.9,4.36-17.75,3.76-28.98-.19-3.37-.36-6.54-.35-9.38v-4.69s.02-3.7.02-3.7l3.68.02ZM661.55,694.95c8.95-2.25,15.65,1.12,19.61,6.71v.02c1.59,2.25,2.71,4.84,3.32,7.53h0c.61,2.7.74,5.53.35,8.25-1.03,7.23-5.61,13.83-14.23,15.77-9.24,2.07-16.19-1.27-20.26-6.78-1.64-2.22-2.79-4.8-3.42-7.5-.62-2.68-.72-5.5-.27-8.22,1.17-7.04,5.94-13.53,14.89-15.78Z"/>
</svg>