<?xml version="1.0" encoding="UTF-8"?>
<svg id="Layer_1" xmlns="http://www.w3.org/2000/svg" version="1.1" viewBox="0 0 1080 1080">
  <!-- Generator: Adobe Illustrator 29.4.0, SVG Export Plug-In . SVG Version: 2.1.0 Build 152)  -->
  <defs>
    <style>
      .st0 {
        fill: #fff;
        fill-rule: evenodd;
      }
    </style>
  </defs>
  <path class="st0" d="M259.64,565.1c0,10.01,3.19,18.25,13.55,20.41,24.05,5.01,8.26-14.87,25.74,37.77,2.88,8.69,5.77,14.67,9.05,22.71,3.04,7.44,7.1,14.08,10.8,20.96l12.36,19.4c9.12,12.17,25.03,32.84,36.93,41.93,7.95,6.07,14.72,12.72,26.74,21.45,3.35,2.43,6.2,3.81,9.4,5.93,3.22,2.12,6.5,4.16,10.23,6.2,75.42,41.09,161.95,45.4,239.1,6.58,16.3-8.2,40.49-23.59,52.67-34.94l38.14-40.72c27.89-37.23,47.51-87.3,49.76-134.23.73-15.33.96-12.49,11.75-23.29,8.54-8.54,14.51-12.48,14.51-23.82,0-8.75-5.97-15.54-13.54-17.12-24.22-5.05-8.39,14.5-25.74-37.78-10.85-32.69-25.29-54.47-45.5-80.44l-15.14-16.61c-10.7-10.7-21.72-19.28-33.98-28.45-39.75-29.75-97.5-46.3-147.54-46.3-62.22,0-110.47,20.23-155.36,53.82l-19.06,15.98c-24.33,23.42-44.2,51.38-57.78,82.4-1.65,3.76-3.91,8.57-5.3,12.22-7.94,20.8-14.36,47.73-15.49,72.13-.7,15.28-1.03,12.55-11.76,23.28-4.36,4.36-14.51,13.1-14.51,20.53M398.73,393.17c-5.01-7.47-18.12-17.67-29.57-18.62,3.82-5.7,9.55-9.23,14.51-13.96,2.68-2.56,4.81-4.13,7.74-6.5l25.73-18.07c6.7-4.04,11.9-6.71,19.19-10.38,74.65-37.63,175.65-29.67,242.91,21.39,7.76,5.88,26.65,20.13,31.6,27.53-11.45.95-24.56,11.15-29.57,18.62-17.42-11.67-26.58-25.9-59.29-39.27-66.25-27.08-135.95-22.35-195.01,17.15-11.4,7.63-22.93,18.56-28.25,22.12ZM411.87,405.21c1.37-2.05,8.91-8.27,11.56-10.33,65.23-50.75,151.57-55.32,219.95-9.82,4.87,3.24,22.14,16.26,24.75,20.16l-85.25,85.6c-24.7,20.05-60.04,20.16-85.15.48l-85.86-86.07ZM345.07,415.07c0-9.32.52-17.23,11.11-21.75,7.29-3.11,15.03-2,20.7,1.98,9.52,6.69,74.28,76.23,83.18,82.19l-28.2,28.74c-4.93-3.38-57.75-57.2-66.8-66.25-5.06-5.06-19.99-17-19.99-24.92ZM648.42,505.97l-28.74-28.21c8.73-5.96,73.36-74.84,82.82-81.99,13.16-9.94,32.44-1.43,32.44,13.83s-6.12,16.52-19.44,29.84l-44.35,44.35c-5.64,5.65-17.13,18.43-22.72,22.18ZM725.08,455.59c0-3.45,9.71-11.35,12.32-13.96,2.34-2.35,4.42-4.15,6.57-6.57,2.68-3.02,3.35-5.78,6.3-7.94.03.14,13.84,30.6,19.25,49.74,2.66,9.4,3.98,21.8,7.81,26.14,11.65,13.2,15.65,3.18,26.6,8.44-1.23,4.6-18.8,20.44-23.27,24.91-6.71,6.72-17.13,19.15-24.92,23.27-7.12-3.77-28.32-26.68-36.96-35.32-3.49-3.49-9.95-8.09-11.23-12.87,6.25-3,12.07,1.08,20.52-3.57,21.19-11.67-3-45.02-3-52.28ZM339.59,509.25c-6.72-3.55-6.76-5.48-16.43-5.48-10.52,0-13.74,6.95-19.71,10.95,0-34.61,25.36-83.66,26.29-87.61l101.58,103.22c34.24,34.24,27.65,22.2,27.65,74.2v102.95c-35.74-18.91-64.85-43.65-83.61-80.66-4.21-8.31-14.72-30.4-14.95-40.91,14.08,0,28.47,1.34,28.47-20.81,0-11.92-33.95-36.65-33.95-40.52,0-9.09,1.65-16.79,3.18-24.2.76-3.64,2.21-7.43,1.67-10.29-1.5-7.94-14.16-12.28-17.38,2.25-1.13,5.09-2.8,11.77-2.8,16.91ZM691.13,511.44c0,18.62,33.95,38.41,33.95,43.8,0,19.89-6.91,40.16-13.76,57.43-3.66,9.25-15.54,25.81,2.81,25.81,4.63,0,8.47-8.84,10.17-12.82,6.06-14.21,16.11-39.78,16.11-55.08,6.72,3.55,6.76,5.48,16.43,5.48,10.52,0,13.74-6.95,19.72-10.95,0,11.84-5.8,33.57-9.22,45.54-11.09,38.83-35.55,74.6-63.31,102.06l-30.42,24.34c-32.51,23.15-83.69,40.53-125.94,40.53s-73.54-5.17-109.89-22.62c-66.93-32.14-111.51-88.94-129.51-160.7-2.7-10.73-1.1-13.43-8.33-20.15-9.65-8.97-15.32-1.61-23.86-5.71,1.23-4.6,18.8-20.44,23.27-24.91,6.71-6.72,17.13-19.15,24.92-23.27,7.79,4.12,18.2,16.56,24.91,23.27,4.47,4.47,22.04,20.31,23.27,24.91-3.86,1.85-29.57-1.89-29.57,18.62,0,11.83,14.89,43.96,21.56,55.1,14.5,24.23,31.87,44,54.31,60.69,7.69,5.71,14.67,10.23,23.43,14.9,60.74,32.38,122.78,33.61,184.33,6.19,19.57-8.71,46.35-28.12,61.08-44.05,2.32-2.5,12.17-14.08,12.79-16.77.93-4-5.17-18.53-17.27-4.13l-7.04,8.29c-15.13,17.18-35,29.66-55.03,40.26v-123.75c0-17.9-1.71-24.04,7.92-33.7,6.11-6.13,78.17-79.17,82.98-82.39,2,8.58,7.44,16.29,7.66,26.29h-13.14c-8.07,0-15.33,8.96-15.33,17.52ZM471.83,490.36c9.05,6.15,9.67,13.28,28.38,22.54,28,13.86,51.59,13.86,79.59,0,18.7-9.26,19.32-16.39,28.1-22.27l28.22,27.64c-10.31,15.64-31.6,23.13-31.54,46.79.02,9.14.04,18.28.04,27.42-9.96-2.32-3.66-3.29-19.71-3.29-6.66,0-7.99,1.1-14.24,1.1,0-11.07-3.21-19.46-9.58-26.56-17.17-19.15-25.25-18.02-41.64-.56-6.69,7.12-10.11,15.72-10.11,27.13l-19.71-1.1c-7.37,0-8.97,2.06-14.24,3.29,0-19.51,2.58-34.05-5.89-46.68-4.24-6.32-20.05-22.8-25.87-26.7l28.2-28.74ZM541.1,613.29h-2.19c-.81-3.04-4.91-7.93-7.51-10.01-2.2-1.76-5.63-2.3-5.63-11.9,0-11.95,7.1-19.31,14.24-24.09,9.81,6.57,16.5,16.72,13.35,29.78-1.74,7.21-9.98,7.69-12.26,16.22ZM525.76,624.24c-7.04,0-23.41,1.45-28.86-.71-3.19-1.27-9.81-8.86-11.42-11.84-5.67-10.51,22.4-5.88,33.92,3.58,2.16,1.77,5.6,6.14,6.36,8.97ZM554.24,624.24c2.28-8.56,17.25-17.52,26.29-17.52h12.05c9.1,0-5.8,14.65-8.05,16.05-5.19,3.24-22.47,1.47-30.29,1.47ZM475.38,627.53c5.48,3.67,11.1,14.24,27.38,14.24h74.47c16.28,0,21.9-10.57,27.38-14.24v44.9h-129.23v-44.9ZM486.34,426.02c0,19.1,1.66,35.39,13.4,47.93,32.03,34.23,93.93,19.45,93.93-42.46,0-16.89-1.66-29.64-10.67-39.7-17.02-18.98-30.22-16.15-53.94-16.15-27.1,0-42.71,24.21-42.71,50.38ZM540,475.3c-18.79,0-36.14-15.92-36.14-35.04,0-32.88-.81-48.19,40.52-48.19,34.58,0,31.76,27.37,31.76,46,0,21.76-17.21,37.23-36.14,37.23ZM475.38,688.86h129.23v26.28c-14.89,1.24-37.65,17.8-98.59,7.69-5.57-.92-9.64-2.17-15.09-3.52-4.33-1.07-11.27-3.8-15.55-4.16v-26.28Z"/>
</svg>