<?xml version="1.0" encoding="UTF-8"?>
<svg id="Layer_1" xmlns="http://www.w3.org/2000/svg" version="1.1" viewBox="0 0 1080 1080">
  <!-- Generator: Adobe Illustrator 29.4.0, SVG Export Plug-In . SVG Version: 2.1.0 Build 152)  -->
  <defs>
    <style>
      .st0 {
        fill: #fff;
        fill-rule: evenodd;
      }
    </style>
  </defs>
  <path class="st0" d="M439.79,731.31c4.36,31.06,33.61,25.17,62.03,25.13,28.96-.04,57.93,0,86.9.01,33.46.02,50.86,1.1,52.12-35.51,1.35-39.14,1.06-77.4-36.67-93.77-38.81-16.84-41.92,5.14-68.8,2.6-13.62-1.29-22.37-9.51-32.27-8.59-30.07,2.79-44.04,13.06-55.39,31.66-9.41,15.42-10.85,57.56-7.92,78.47M585.15,737.74c-2.69,2.77,2.5,1.21-5.06,2.42-9.73,1.55-82.58-.43-85.15-1.04l-.21-40.87c-3.6-7.7-13.18-9.39-15.29-.23-.1,7.48.23,36.56-.72,41.42-5.93,2.05-11.5,3.41-15.38-1.26-6.82-3.06-6.27-8.86-6.24-18.96.04-19.75-1.35-48.85,9.37-63.19,23.17-31.01,54.22-8.49,75.32-8.84,17.99-.29,29.8-9.65,42.88-7.56,36.46,5.83,38.05,36.45,38.3,60.38.23,21.52,3.22,36.04-10.17,37.93-4.39,2.87-5,2.5-11.9,1.26l-.09-39.49c-2.35-11.62-15.35-10.47-16.44,3.58-.76,9.7.65,24.13.78,34.44ZM490.42,562.71c4.2,24.62,25.44,52.02,54.83,48.99,23.64-2.43,45.65-32.24,45.89-59.4.61-68.67-113.88-66.82-100.72,10.42ZM529.61,522.12c49.45-15.12,55.89,53.24,20.78,70.03-33.46,16-66.59-56.02-20.78-70.03ZM632.78,451.48c2.18,27.39,22.41,54.98,49.86,55.21,27.19.23,46.71-26.78,49.63-54.08,7.69-72.01-105.43-75.82-99.48-1.13ZM672.44,416.2c21.6-5.19,39.62,4.84,41.94,24.79,2.35,20.15-9.92,41.37-23.63,46.51-35.57,13.34-61.22-60.98-18.31-71.31ZM386.28,399.08c-15.84,3.66-25.69,9.49-32.47,20.8-7.1,11.83-8.68,28.52-4.82,43.68,3.74,14.68,10.55,24.07,20.05,32.01,8.32,6.97,25.02,14.29,40.04,9.2,61.31-20.75,48.22-122.1-22.8-105.69ZM365.31,454.95c-3.81-23.3,8.13-37.78,28.81-39.95,23.47-2.46,37.55,11.68,36.41,34.7-2.39,48.01-57.36,53.37-65.22,5.25ZM529.88,324c-70.5,11.79-38.29,120.68,21.71,105.9,21.98-5.42,41.6-34.4,38.59-65.22-2.74-28.17-29.09-45.9-60.3-40.68ZM571.53,381.96c-10.99,47.77-64.7,37.54-63.72-12.22.85-43.62,75.72-39.94,63.72,12.22ZM443.31,500.81l-1.46,14.35-13.74.48c-15.24,4.55-20.07,11.69-40.94,7.07-19.2-4.25-15.42-12.35-40.82-5.91-24.94,6.32-45.29,28-47.37,56.55-2.57,35.23-7.49,72.72,30.71,73.63,18.89.45,90.67,1.7,103.32-2.02,10.33-26.67-33.11-11.85-76.83-16.33.03-8.08.16-16.21.18-24.28.01-8.7.18-15.93-9.21-15.91-14.22.05-9.11,28.12-9.04,40.13-13.7,1.49-21,.34-21.97-13.62-2.06-29.82-2.62-64.17,26.35-77.7,25.18-11.76,30.16,4.39,56.77,4.22,10.79-.07,19.36-2.81,28.05-6.39,19.62-8.07,9.14,5.36,28.28,3.43,11.53-16.47-7.33-45.94,17.54-68.79,26.98-24.8,36.48-3.82,66.92-3.49,30.39.32,40.11-20.62,66.81,3.61,24.19,21.95,6,56.61,17.61,67.61,12.9,5.61,11.06-7.95,26.23-4.15,11.05,2.77,27.94,13.09,53.92,4.55,13.13-4.32,8.62-7.67,24.88-2.88,18.09,5.32,28.46,12.69,32.88,31.56,2.78,11.83,2.74,47.61,0,58.76-5.13,2.47-12.69,3.47-20.34,3.28.1-17.98,6.38-46.74-16.5-38.38-3.1,10.12-1.98,26.26-1.84,38.2-17.85,2.92-47.89-.13-67.33.46-14.52.45-16,11.85-7.63,16.44,5.67,3.12,89.1,1.74,98.19,1.43,23-.78,34.18-8.51,35.24-31.77,1.78-39.28,1.94-77.64-38.23-94.52-40.74-17.11-42.75,13.78-80.53-1.15-16.23-6.42-6.91-4.66-25.54-3.93.21-32.24-5.47-49.6-25.39-63.33-34.7-23.93-50.81-5.62-65.54-3.97-32.47,3.65-34.41-19.17-71.58-2.12-18.03,8.26-33.76,27.93-32.07,54.9Z"/>
</svg>