<?xml version="1.0" encoding="UTF-8"?>
<svg id="Layer_1" xmlns="http://www.w3.org/2000/svg" version="1.1" viewBox="0 0 1080 1080">
  <!-- Generator: Adobe Illustrator 29.4.0, SVG Export Plug-In . SVG Version: 2.1.0 Build 152)  -->
  <defs>
    <style>
      .st0 {
        fill: #fff;
        fill-rule: evenodd;
      }
    </style>
  </defs>
  <path class="st0" d="M432.15,782.77h9.71c2.69-1.66,5.27-2.31,8.25-4.53l20.16-19.68c19.15-19.05,9.87-25.65,5.22-36.54,6.04-3.84,9.02-10.33,21.63-15.32,11.61-4.6,19.72-3.43,32.43-2.98,33.08,1.18,100.55-1.54,122.76-25.79,16.87-18.41,54.69-54.86,74.43-74.46,4.94-4.91,14.21-11.58,14.93-21.85,1.47-21.08-26.33-31.19-46.36-24.74-11.03,3.54-32.83,24.67-41.48,33.38l-19.95,17.95c-4.19-1.92-5.78-5.47-10.55-8.33-4.08-2.46-8.3-4.28-13.75-5.24-17.8-3.13-56.1,2.64-73.84-2.92-10.76-3.38-18.94-6.33-31.14-7.6-25.33-2.64-44.7,3.4-60.47,15.56-14.74,11.35-27.68,23.72-42.41,35.34-3.77,2.97-5.78,7.36-11.76,5.89-18.01-4.42-21.6,4.59-36.24,19.12-5.08,5.04-15.03,12.03-15.44,23.26-.44,12.24,9.23,18.7,14.53,24.02l67.34,67.33c5.8,5.85,5.48,4.04,12.01,8.15M465.35,711.79c-4.56-2.45-10.75-10.69-15.31-14.48-5.9-4.9-10.64-10.1-15.4-14.94-5.07-5.15-9.51-9.6-14.59-14.81-4.1-4.2-12.48-11.07-14.58-15.66l15.38-12.95c14.2-12.04,34.76-32.15,51.09-37.11,16.88-5.13,35.01-3.38,51.1,1.62,48.31,15.01,86.91-6.14,100.1,17.49,4.28,7.66,5.68,17.36-5.29,17.83-17.31.72-112.13-1.13-117.01.53-6.33,2.16-8.96,14.63,5.99,14.63h109.05c24.59-.06,25.51-15.33,24.53-31.57,4.66-2.79,49.46-45.36,53.52-47.93,7.56-4.81,18.57-5.98,27.16-1.18,11.89,6.63,1.18,13.51-3.48,18.23-12.9,13.05-74.44,76.86-86.18,83.54-11.95,6.79-40.37,10.5-56.29,12.01-48.58,4.61-82.55-8.95-109.79,24.77ZM552.45,520.08c-8.23,5.19-9.39,5.48-9.35,17.99.02,6.54-.72,21.2.71,26.56,4.6,17.3,21.84,14.62,40.76,14.62s36.29,3,41.84-13.58c1.93-5.75,1.03-19.7,1.05-26.65.03-9.87-1.36-16.44-9.78-18.59,1.5-21.38,19.45-14.05,41.75-44.05,44.65-60.08,2.42-146.53-72.97-147.4-77.62-.91-119.55,87.02-75.93,146.56,21.76,29.69,43.39,26.09,41.9,44.52ZM568.11,519.44c-1.25-12.75-6.31-20.44-13.51-26.28-3.12-2.54-8.71-5.25-12.3-7.62-19.83-13.12-33.53-36.45-34.17-62.19-1.1-43.72,34.21-79.32,77.4-79.17,43.36.14,78.58,35.96,76.89,80.16-.76,20.01-10.65,41.77-24.31,53.49-17.09,14.65-31.11,12.84-35.83,41.96l-34.16-.35ZM611.29,562.93c-7.02,2.45-31.38,1.08-40.95,1.17-14.2.12-12.25,1.13-12.05-29.12h53.96c.07,7.53.85,21.86-.96,27.95ZM463.02,417.3c-4.83,2.12-6.64,9.04-1.76,12.73,2.91,2.21,14.04,2.6,18.11.99,5.34-2.11,5.69-9.33,2.03-12.58-3.33-2.96-14.33-2.92-18.37-1.14ZM642.13,313.86c-3.11,1.17-7.84,9.03-9.25,12.74-3.66,9.66,10.81,19.45,18.73-2.34,2.73-7.53-3.12-12.79-9.48-10.4ZM685.83,357.55c-21.64,7.41-13.87,22.5-3.16,18.92,4.14-1.38,11.69-6.13,12.87-9.13,2.55-6.49-3.27-11.99-9.71-9.78ZM677.53,471.38c-15.54,4.65,4.38,22.33,13.37,19.47,5.88-1.87,7.16-9.35,1.77-13.41-2.96-2.23-10.92-7.32-15.14-6.06ZM488.88,471.48c-3.62,1.14-12.45,6.19-13.6,8.57-3.07,6.37,2.04,12.68,9.44,10.61,3.92-1.1,12.07-6.23,13.15-9.04,2.58-6.68-3.11-11.99-8.99-10.14ZM479.23,357.61c-14.26,5.96,5.8,22.02,14.87,18.99,5.92-1.98,5.63-10.12.23-13.8-3.65-2.48-10.4-7.16-15.11-5.2ZM702.17,416.54c-6.97,0-16.5-1.21-15.39,8.69,1.03,9.25,23.13,9,24.97.79,1.64-7.32-3.09-9.48-9.57-9.48ZM587.68,297.23h-4.9c-5.63,4.66-5.25,4.8-5.14,14.26.16,15.3,15.16,15.85,15.28,0,.07-8.76.85-9.71-5.24-14.26ZM522.71,313.96c-7.18,3.07-4.42,9.16-1.48,14.37,2.69,4.77,5.07,10.97,12.69,8.43,10.32-3.43-1.33-27.04-11.21-22.8ZM353.54,685.09c-.62-5.22,8.79-12.62,11.66-15.5,12.85-12.91,16-19.6,24.09-11.13,9.53,9.96,76.44,74.59,76.89,78.87.49,4.73-6.99,10.27-12.12,15.44-18.52,18.62-15.39,19.21-30.99,3.74-4.98-4.94-9.2-9.3-14.22-14.23-9.6-9.43-18.42-18.41-27.96-27.99-3.98-4-26.89-25.22-27.36-29.2Z"/>
</svg>