<?xml version="1.0" encoding="UTF-8"?>
<svg id="Layer_1" xmlns="http://www.w3.org/2000/svg" version="1.1" viewBox="0 0 1080 1080">
  <!-- Generator: Adobe Illustrator 29.4.0, SVG Export Plug-In . SVG Version: 2.1.0 Build 152)  -->
  <defs>
    <style>
      .st0 {
        fill: #fff;
        fill-rule: evenodd;
      }
    </style>
  </defs>
  <path class="st0" d="M420.17,768.75c5.22,37.14,40.19,30.1,74.17,30.05,34.63-.04,69.27,0,103.91.01,40.01.02,60.81,1.31,62.32-42.46,1.61-46.8,1.27-92.55-43.85-112.13-46.41-20.14-50.12,6.15-82.26,3.11-16.28-1.54-26.75-11.37-38.58-10.27-35.95,3.34-52.66,15.61-66.23,37.85-11.25,18.44-12.98,68.83-9.47,93.83M593.99,776.44c-3.22,3.32,2.99,1.45-6.05,2.89-11.64,1.85-98.75-.51-101.81-1.24l-.25-48.87c-4.3-9.21-15.76-11.22-18.29-.28-.12,8.94.28,43.72-.86,49.52-7.09,2.46-13.75,4.08-18.39-1.51-8.16-3.66-7.49-10.59-7.46-22.67.05-23.61-1.61-58.41,11.21-75.56,27.7-37.08,64.83-10.15,90.06-10.56,21.52-.34,35.63-11.54,51.28-9.04,43.6,6.97,45.5,43.58,45.79,72.2.27,25.74,3.85,43.1-12.16,45.35-5.25,3.43-5.98,2.99-14.23,1.51l-.11-47.21c-2.81-13.89-18.35-12.52-19.66,4.28-.91,11.6.78,28.85.93,41.18ZM480.71,567.16c5.02,29.44,30.42,62.2,65.57,58.57,28.27-2.9,54.58-38.54,54.87-71.03.73-82.11-136.17-79.9-120.44,12.46ZM527.58,518.62c59.12-18.07,66.83,63.66,24.85,83.73-40.01,19.13-79.63-66.99-24.85-83.73ZM650.94,434.15c2.61,32.75,26.8,65.74,59.61,66.02,32.51.28,55.85-32.02,59.34-64.66,9.2-86.1-126.06-90.66-118.95-1.36ZM698.37,391.97c25.83-6.21,47.38,5.79,50.15,29.65,2.81,24.09-11.87,49.46-28.26,55.62-42.53,15.95-73.2-72.91-21.89-85.26ZM356.19,371.5c-18.94,4.38-30.72,11.35-38.82,24.87-8.49,14.14-10.38,34.1-5.76,52.23,4.48,17.56,12.61,28.78,23.97,38.28,9.95,8.33,29.92,17.09,47.87,11.01,73.3-24.81,57.66-146-27.26-126.38ZM331.11,438.3c-4.55-27.86,9.72-45.18,34.45-47.77,28.07-2.95,44.9,13.97,43.53,41.49-2.86,57.41-68.59,63.82-77.98,6.28ZM527.9,281.72c-84.29,14.1-45.79,144.3,25.96,126.63,26.28-6.48,49.74-41.13,46.14-77.99-3.28-33.69-34.78-54.89-72.11-48.64ZM577.71,351.02c-13.14,57.12-77.36,44.89-76.19-14.61,1.02-52.16,90.54-47.75,76.19,14.61ZM424.38,493.13l-1.75,17.16-16.43.57c-18.22,5.44-24,13.98-48.95,8.46-22.96-5.08-18.44-14.77-48.81-7.07-29.82,7.55-54.16,33.49-56.64,67.62-3.07,42.13-8.95,86.95,36.72,88.04,22.58.54,108.42,2.03,123.54-2.42,12.36-31.89-39.59-14.17-91.87-19.52.03-9.67.19-19.39.21-29.03.02-10.4.22-19.05-11.02-19.03-17.01.05-10.9,33.63-10.81,47.98-16.38,1.78-25.11.4-26.27-16.29-2.46-35.65-3.14-76.74,31.51-92.91,30.11-14.07,36.06,5.26,67.88,5.05,12.91-.08,23.15-3.36,33.54-7.64,23.45-9.65,10.93,6.4,33.82,4.1,13.78-19.69-8.77-54.93,20.97-82.26,32.26-29.65,43.62-4.57,80.02-4.17,36.34.39,47.96-24.66,79.89,4.32,28.93,26.25,7.17,67.69,21.06,80.84,15.43,6.71,13.23-9.5,31.36-4.96,13.21,3.32,33.4,15.65,64.48,5.44,15.71-5.16,10.3-9.17,29.76-3.45,21.64,6.37,34.03,15.17,39.32,37.73,3.33,14.15,3.28,56.93,0,70.26-6.14,2.95-15.17,4.15-24.33,3.92.12-21.5,7.62-55.89-19.73-45.9-3.7,12.1-2.37,31.4-2.2,45.68-21.34,3.49-57.27-.16-80.51.55-17.36.54-19.13,14.16-9.12,19.66,6.78,3.73,106.54,2.08,117.41,1.71,27.5-.94,40.88-10.18,42.14-37.98,2.13-46.97,2.32-92.84-45.71-113.02-48.71-20.46-51.12,16.48-96.29-1.38-19.41-7.67-8.26-5.57-30.54-4.7.25-38.55-6.55-59.31-30.36-75.72-41.5-28.61-60.75-6.72-78.36-4.74-38.83,4.36-41.15-22.92-85.59-2.54-21.56,9.88-40.37,33.4-38.34,65.64Z"/>
</svg>