<?xml version="1.0" encoding="UTF-8"?>
<svg id="Layer_1" xmlns="http://www.w3.org/2000/svg" version="1.1" viewBox="0 0 1080 1080">
  <!-- Generator: Adobe Illustrator 29.4.0, SVG Export Plug-In . SVG Version: 2.1.0 Build 152)  -->
  <defs>
    <style>
      .st0 {
        fill: #fff;
        fill-rule: evenodd;
      }
    </style>
  </defs>
  <path class="st0" d="M204.77,570.02c0,11.96,3.81,21.83,16.2,24.4,28.76,5.99,9.88-17.78,30.78,45.17,3.44,10.39,6.89,17.54,10.82,27.15,3.63,8.9,8.49,16.84,12.91,25.07l14.78,23.2c10.91,14.55,29.93,39.27,44.15,50.14,9.5,7.26,17.6,15.21,31.97,25.65,4.01,2.91,7.42,4.56,11.25,7.09,3.84,2.54,7.77,4.98,12.24,7.41,90.19,49.13,193.65,54.29,285.89,7.87,19.49-9.81,48.42-28.21,62.98-41.78l45.6-48.69c33.35-44.52,56.81-104.39,59.49-160.5.87-18.33,1.14-14.94,14.05-27.85,10.21-10.21,17.35-14.92,17.35-28.48,0-10.46-7.13-18.58-16.19-20.47-28.96-6.04-10.03,17.34-30.78-45.17-12.97-39.09-30.24-65.13-54.41-96.19l-18.11-19.87c-12.79-12.79-25.97-23.05-40.63-34.02-47.53-35.57-116.58-55.36-176.42-55.36-74.4,0-132.09,24.19-185.77,64.35l-22.79,19.11c-29.09,28-52.85,61.44-69.08,98.53-1.97,4.49-4.68,10.25-6.34,14.61-9.49,24.88-17.17,57.07-18.52,86.24-.84,18.27-1.24,15.01-14.06,27.84-5.21,5.21-17.35,15.66-17.35,24.55M371.08,364.43c-5.99-8.93-21.67-21.12-35.36-22.26,4.56-6.81,11.42-11.04,17.35-16.69,3.2-3.06,5.75-4.94,9.25-7.77l30.77-21.61c8.01-4.83,14.23-8.03,22.95-12.42,89.26-45,210.03-35.48,290.46,25.57,9.28,7.03,31.87,24.08,37.79,32.92-13.69,1.14-29.37,13.33-35.36,22.26-20.83-13.95-31.78-30.97-70.89-46.96-79.22-32.39-162.56-26.73-233.18,20.51-13.63,9.12-27.42,22.19-33.78,26.45ZM386.79,378.83c1.64-2.45,10.65-9.89,13.83-12.36,78-60.68,181.23-66.15,263-11.74,5.83,3.88,26.47,19.44,29.59,24.1l-101.93,102.35c-29.53,23.98-71.79,24.1-101.82.57l-102.67-102.92ZM306.91,390.62c0-11.15.63-20.6,13.28-26.01,8.71-3.72,17.97-2.39,24.76,2.37,11.39,8,88.82,91.16,99.46,98.28l-33.72,34.37c-5.89-4.04-69.05-68.4-79.87-79.22-6.05-6.05-23.9-20.33-23.9-29.79ZM669.64,499.31l-34.37-33.73c10.44-7.13,87.72-89.49,99.02-98.04,15.74-11.89,38.79-1.71,38.79,16.54s-7.32,19.76-23.24,35.68l-53.03,53.03c-6.75,6.75-20.48,22.04-27.17,26.52ZM761.31,439.07c0-4.13,11.61-13.57,14.73-16.69,2.8-2.8,5.29-4.96,7.86-7.86,3.21-3.61,4.01-6.92,7.53-9.49.04.17,16.54,36.59,23.02,59.48,3.18,11.24,4.76,26.06,9.33,31.26,13.93,15.78,18.71,3.8,31.81,10.09-1.47,5.51-22.48,24.44-27.82,29.79-8.03,8.03-20.48,22.9-29.8,27.83-8.51-4.5-33.86-31.9-44.19-42.23-4.17-4.17-11.9-9.67-13.42-15.39,7.47-3.59,14.44,1.29,24.54-4.27,25.34-13.96-3.58-53.83-3.58-62.51ZM300.36,503.24c-8.03-4.25-8.09-6.55-19.64-6.55-12.57,0-16.43,8.32-23.57,13.1,0-41.38,30.32-100.03,31.43-104.76l121.46,123.42c40.94,40.94,33.06,26.55,33.06,88.72v123.09c-42.74-22.62-77.54-52.19-99.98-96.45-5.04-9.93-17.6-36.35-17.88-48.91,16.84,0,34.04,1.61,34.04-24.88,0-14.26-40.6-43.83-40.6-48.45,0-10.87,1.97-20.07,3.81-28.94.91-4.35,2.64-8.89,2-12.3-1.79-9.5-16.94-14.69-20.78,2.69-1.35,6.09-3.35,14.07-3.35,20.22ZM720.71,505.85c0,22.26,40.59,45.93,40.59,52.38,0,23.79-8.27,48.02-16.46,68.67-4.38,11.06-18.58,30.86,3.36,30.86,5.54,0,10.13-10.56,12.16-15.33,7.25-16.99,19.26-47.56,19.26-65.86,8.03,4.25,8.09,6.55,19.64,6.55,12.58,0,16.43-8.31,23.58-13.09,0,14.15-6.94,40.14-11.03,54.45-13.26,46.43-42.51,89.2-75.7,122.03l-36.37,29.11c-38.87,27.68-100.07,48.46-150.59,48.46s-87.94-6.18-131.4-27.05c-80.03-38.43-133.33-106.35-154.86-192.16-3.22-12.83-1.32-16.06-9.96-24.09-11.54-10.72-18.32-1.92-28.53-6.82,1.47-5.51,22.48-24.44,27.82-29.79,8.03-8.03,20.48-22.9,29.8-27.83,9.31,4.93,21.76,19.8,29.79,27.83,5.34,5.34,26.36,24.28,27.83,29.79-4.61,2.22-35.36-2.25-35.36,22.26,0,14.14,17.81,52.57,25.77,65.89,17.34,28.97,38.1,52.61,64.94,72.57,9.19,6.83,17.55,12.23,28.02,17.81,72.63,38.72,146.81,40.19,220.41,7.4,23.4-10.42,55.42-33.62,73.04-52.67,2.77-2.99,14.55-16.83,15.3-20.05,1.11-4.78-6.18-22.16-20.65-4.94l-8.42,9.91c-18.09,20.54-41.85,35.47-65.8,48.14v-147.98c0-21.4-2.04-28.75,9.47-40.29,7.31-7.33,93.47-94.66,99.22-98.52,2.39,10.26,8.9,19.47,9.16,31.43h-15.71c-9.65,0-18.33,10.71-18.33,20.95ZM458.49,480.65c10.82,7.36,11.57,15.88,33.93,26.95,33.48,16.58,61.69,16.58,95.16,0,22.36-11.08,23.11-19.6,33.61-26.63l33.74,33.05c-12.33,18.7-37.79,27.66-37.72,55.95.03,10.93.05,21.86.05,32.79-11.91-2.77-4.37-3.93-23.57-3.93-7.97,0-9.55,1.31-17.02,1.31,0-13.24-3.84-23.27-11.45-31.76-20.54-22.9-30.19-21.54-49.79-.67-7.99,8.52-12.09,18.8-12.09,32.43l-23.57-1.31c-8.82,0-10.72,2.47-17.03,3.93,0-23.33,3.08-40.72-7.04-55.81-5.08-7.56-23.97-27.26-30.93-31.92l33.72-34.37ZM541.31,627.64h-2.62c-.97-3.63-5.87-9.48-8.98-11.97-2.63-2.11-6.73-2.75-6.73-14.22,0-14.29,8.49-23.09,17.02-28.81,11.73,7.85,19.73,19.99,15.97,35.61-2.08,8.62-11.94,9.19-14.66,19.4ZM522.98,640.73c-8.42,0-27.99,1.73-34.51-.84-3.81-1.51-11.73-10.59-13.65-14.15-6.78-12.57,26.78-7.03,40.56,4.28,2.58,2.11,6.7,7.34,7.61,10.72ZM557.02,640.73c2.73-10.23,20.63-20.95,31.43-20.95h14.4c10.89,0-6.93,17.51-9.62,19.19-6.2,3.87-26.86,1.76-36.22,1.76ZM462.74,644.66c6.55,4.39,13.27,17.02,32.74,17.02h89.05c19.47,0,26.18-12.64,32.74-17.02v53.69h-154.53v-53.69ZM475.84,403.71c0,22.84,1.99,42.32,16.02,57.32,38.3,40.93,112.31,23.26,112.31-50.77,0-20.2-1.98-35.44-12.76-47.47-20.35-22.7-36.13-19.32-64.5-19.32-32.4,0-51.07,28.94-51.07,60.24ZM540,462.64c-22.46,0-43.21-19.04-43.21-41.9,0-39.31-.96-57.62,48.45-57.62,41.34,0,37.97,32.73,37.97,55,0,26.02-20.58,44.52-43.21,44.52ZM462.74,717.99h154.53v31.42c-17.8,1.48-45.02,21.29-117.88,9.19-6.65-1.11-11.52-2.6-18.05-4.21-5.18-1.28-13.47-4.55-18.6-4.98v-31.42Z"/>
</svg>