<?xml version="1.0" encoding="UTF-8"?>
<svg id="Layer_1" xmlns="http://www.w3.org/2000/svg" version="1.1" viewBox="0 0 1080 1080">
  <!-- Generator: Adobe Illustrator 29.4.0, SVG Export Plug-In . SVG Version: 2.1.0 Build 152)  -->
  <defs>
    <style>
      .st0 {
        fill: #fff;
        fill-rule: evenodd;
      }
    </style>
  </defs>
  <path class="st0" d="M411.04,830.28h11.61c3.22-1.98,6.3-2.77,9.87-5.42l24.1-23.54c22.9-22.78,11.8-30.67,6.24-43.69,7.23-4.59,10.78-12.35,25.86-18.32,13.89-5.5,23.58-4.11,38.78-3.57,39.56,1.41,120.24-1.85,146.79-30.84,20.17-22.02,65.4-65.59,89-89.03,5.91-5.87,16.99-13.85,17.85-26.13,1.76-25.21-31.48-37.29-55.43-29.59-13.19,4.24-39.26,29.49-49.6,39.92l-23.85,21.46c-5.01-2.3-6.91-6.54-12.61-9.96-4.88-2.94-9.93-5.12-16.45-6.26-21.28-3.75-67.08,3.16-88.3-3.5-12.86-4.04-22.64-7.56-37.23-9.09-30.29-3.16-53.44,4.07-72.31,18.6-17.63,13.58-33.1,28.37-50.71,42.25-4.5,3.56-6.91,8.8-14.06,7.04-21.54-5.28-25.83,5.49-43.34,22.87-6.07,6.03-17.97,14.38-18.46,27.81-.53,14.64,11.03,22.36,17.37,28.72l80.51,80.51c6.94,7,6.56,4.83,14.36,9.74M450.73,745.41c-5.46-2.93-12.86-12.78-18.31-17.31-7.06-5.86-12.73-12.07-18.42-17.86-6.06-6.16-11.38-11.48-17.45-17.71-4.9-5.02-14.92-13.23-17.43-18.73l18.4-15.49c16.98-14.4,41.56-38.44,61.09-44.37,20.19-6.13,41.86-4.04,61.1,1.94,57.77,17.95,103.92-7.34,119.69,20.91,5.12,9.16,6.79,20.76-6.32,21.32-20.69.86-134.08-1.35-139.91.63-7.57,2.58-10.71,17.49,7.17,17.49h130.4c29.4-.07,30.5-18.33,29.33-37.74,5.57-3.33,59.15-54.24,64-57.32,9.04-5.75,22.2-7.15,32.48-1.41,14.22,7.93,1.41,16.16-4.16,21.8-15.42,15.6-89,91.91-103.05,99.89-14.29,8.11-48.28,12.55-67.31,14.36-58.09,5.51-98.71-10.71-131.28,29.62ZM554.88,516.18c-9.84,6.2-11.23,6.55-11.18,21.52.03,7.82-.86,25.35.85,31.76,5.5,20.69,26.11,17.48,48.74,17.48s43.4,3.59,50.03-16.23c2.3-6.87,1.23-23.56,1.26-31.86.03-11.8-1.63-19.66-11.69-22.22,1.79-25.56,23.26-16.8,49.92-52.67,53.39-71.83,2.89-175.2-87.25-176.25-92.82-1.09-142.95,104.06-90.79,175.24,26.02,35.5,51.88,31.2,50.1,53.23ZM573.61,515.41c-1.5-15.25-7.55-24.44-16.15-31.43-3.73-3.04-10.42-6.28-14.71-9.12-23.72-15.68-40.09-43.59-40.86-74.36-1.31-52.27,40.91-94.84,92.55-94.67,51.85.17,93.96,43,91.94,95.85-.91,23.92-12.73,49.95-29.07,63.96-20.44,17.51-37.2,15.36-42.85,50.18l-40.84-.41ZM625.25,567.42c-8.39,2.93-37.52,1.3-48.96,1.4-16.98.15-14.65,1.36-14.41-34.82h64.52c.08,9,1.01,26.14-1.15,33.42ZM447.95,393.29c-5.78,2.53-7.94,10.81-2.11,15.23,3.48,2.64,16.79,3.11,21.65,1.18,6.39-2.52,6.8-11.15,2.42-15.04-3.98-3.54-17.13-3.5-21.97-1.36ZM662.11,269.6c-3.72,1.4-9.37,10.8-11.06,15.23-4.38,11.55,12.93,23.26,22.39-2.79,3.27-9-3.73-15.3-11.34-12.44ZM714.37,321.84c-25.88,8.87-16.58,26.9-3.78,22.62,4.95-1.66,13.98-7.33,15.39-10.92,3.05-7.76-3.91-14.34-11.61-11.7ZM704.45,457.95c-18.58,5.56,5.23,26.7,15.98,23.28,7.03-2.24,8.56-11.18,2.11-16.04-3.54-2.67-13.06-8.76-18.1-7.24ZM478.88,458.06c-4.33,1.37-14.88,7.4-16.26,10.25-3.67,7.62,2.44,15.17,11.28,12.69,4.68-1.31,14.43-7.45,15.72-10.81,3.09-7.99-3.72-14.33-10.75-12.13ZM467.34,321.91c-17.05,7.12,6.94,26.33,17.79,22.71,7.08-2.36,6.74-12.11.28-16.5-4.36-2.97-12.44-8.57-18.07-6.21ZM733.91,392.37c-8.33,0-19.73-1.44-18.41,10.39,1.24,11.07,27.66,10.76,29.85.94,1.96-8.76-3.7-11.34-11.44-11.34ZM597.01,249.72h-5.86c-6.73,5.57-6.27,5.74-6.15,17.05.19,18.3,18.12,18.95,18.27,0,.08-10.47,1.02-11.61-6.26-17.05ZM519.33,269.72c-8.58,3.67-5.28,10.95-1.77,17.18,3.22,5.7,6.06,13.11,15.17,10.08,12.34-4.11-1.59-32.34-13.41-27.26ZM317.04,713.49c-.74-6.24,10.51-15.09,13.94-18.54,15.37-15.43,19.14-23.43,28.81-13.31,11.39,11.91,91.41,89.19,91.94,94.31.59,5.66-8.35,12.28-14.49,18.46-22.15,22.26-18.4,22.97-37.05,4.47-5.96-5.9-11.01-11.11-17.01-17.01-11.48-11.28-22.02-22.02-33.43-33.47-4.76-4.78-32.15-30.16-32.71-34.91Z"/>
</svg>