<?xml version="1.0" encoding="UTF-8"?>
<svg id="Layer_1" xmlns="http://www.w3.org/2000/svg" version="1.1" viewBox="0 0 1080 1080">
  <!-- Generator: Adobe Illustrator 29.4.0, SVG Export Plug-In . SVG Version: 2.1.0 Build 152)  -->
  <defs>
    <style>
      .st0 {
        fill: #fff;
        fill-rule: evenodd;
      }
    </style>
  </defs>
  <path class="st0" d="M487.02,592.94h0M472.27,325.93c-36.1,18.56-36.8,17.99-59.56-.63h.01c-3.23-2.64-6.95-5.68-11.25-9.03-13.57-10.56-18.81-4.96-35.84,13.26h-.02c-4.93,5.27-10.74,11.48-17.4,18.13-7.02,7-12.96,12.75-17.93,17.55-12.41,11.98-18.68,18.03-19.92,22.34-.98,3.39,2.1,7.45,8.31,15.59,2.41,3.14,5.25,6.89,8.84,11.95h.01c2.97,4.18,5.29,7.16,7.09,9.45,3.33,4.25,5.12,6.54,5.7,9.66.69,3.69-.6,6.54-3.38,12.61-.8,1.77-1.74,3.83-2.73,6.1-.86,1.98-1.76,4.41-2.65,6.84h0c-1.51,4.11-3.06,8.26-5.13,12.04l-1.02,1.86-2.1.36c-10.93,1.9-20.18,3.13-27.7,4.12-14.43,1.92-21.92,2.91-24.92,6.46h.01c-3.34,3.99-3.18,13.06-2.84,31.85.12,7.04.27,15.37.27,23.24s-.15,16.3-.29,23.37c-.35,18.54-.52,27.65,2.9,31.71,3.23,3.83,11.34,4.88,27.27,6.94,7.03.9,15.47,2,25.29,3.58l2.21.35,1.02,1.97c2.16,4.19,7.29,15.04,10.55,24.03,2.3,6.3,3.69,12.04,2.77,15.06-.45,1.49-3.46,5.86-7.18,10.93-5.89,8.02-13.85,18.3-15.87,20.84-10.6,13.31-4.89,18.7,13.73,36.19,5.16,4.85,11.19,10.52,17.71,17.03h0s7.98,7.97,7.98,7.97c5.8,5.79,11.4,11.36,17.49,17.52l3.08,3.14v.02c6.23,6.36,9.33,9.52,12.1,9.27,3.55-.31,9.25-4.48,20.54-12.73h.02l6.14-4.48h0c3.49-2.55,6.02-4.48,8.09-6.06,5.33-4.06,8.03-6.12,11.39-6.73h0c3.71-.68,6.34.55,11.6,3.05,1.89.9,4.19,1.99,6.8,3.12h.01c2.14.92,4.56,1.79,6.97,2.64,4.08,1.45,8.17,2.9,12.01,5.1l1.84,1.04.34,2.08c1.79,10.77,3.01,19.71,4,27,1.86,13.66,2.9,21.23,5.4,24.73,2.55,3.57,8.87,3.54,22.96,3.48h5.36v-.03c2.34,0,5.36.16,8.54.33,11.48.61,25.59,1.36,28.67-6.24,1.51-3.74,1.3-21.24,1.14-34.45h0c-.06-5.71-.12-10.66-.02-13.54l.15-4.24h4.25s85.38-.17,85.38-.17l1.17.16c3.1.85,4.69,4.08,6.98,8.71,4.98,10.07,14.58,29.48,41.18,30.05,15.97.34,28.13-6.73,35.68-17,4.32-5.87,7.16-12.82,8.36-20.03,1.2-7.2.77-14.68-1.42-21.64-3.83-12.12-13.14-22.74-28.72-27.72-8.3-2.64-16.5-2.62-23.98-.57-8.15,2.22-15.5,6.84-21.29,12.99-2.42,2.57-3.77,4.57-5.18,6.66v.02c-1.19,1.75-2.44,3.6-4.46,6.07l-1.31,1.6h-2.09s-90.45.31-90.45.31h-4.39s0-4.4,0-4.4l-.02-58.05v-4.42h4.4c6.93.03,14.39.33,22.12.65,29.87,1.21,64.35,2.62,78.67-11.76,4.09-4.12,5.91-9.03,8.15-15.1,1.08-2.93,2.26-6.12,3.77-9.55l1.15-2.6,2.87-.02,52.07-.28h2.72s1.23,2.42,1.23,2.42c7.58,14.98,19.49,23.09,31.96,25.57,7.39,1.45,14.99.98,22.03-1.18,7.04-2.15,13.55-6.01,18.73-11.28,8.58-8.73,13.57-21.47,11.48-37.03-1.11-8.2-4.53-15.55-9.48-21.55-4.75-5.74-10.93-10.23-17.84-13.02h0c-6.9-2.78-14.55-3.89-22.26-2.85-7.99,1.08-16.13,4.49-23.64,10.7-7.84,6.49-9.88,12.75-11.35,17.27-1.73,5.3-2.94,9.01-8.67,10.37l-1,.1h-46.42s-4.4.01-4.4.01v-4.4s-.02-116.26-.02-116.26v-4.4h55.76s2.05,0,2.05,0l1.32,1.57c1.19,1.41,1.33,1.61,2.12,2.7h0s.45.64.45.64h0c1.42,1.94,2.61,3.71,3.67,5.29,3.52,5.23,5.6,8.32,14.63,13.31,9.16,5.06,18.84,6.5,27.85,5.11,6.76-1.03,13.18-3.66,18.73-7.52,5.55-3.87,10.25-8.98,13.57-14.99,4.44-8.02,6.44-17.68,4.84-28.16-1.41-9.26-5.35-16.97-10.79-22.9-5.01-5.45-11.33-9.44-18.16-11.78-6.86-2.35-14.28-3.05-21.47-1.95-7.87,1.2-15.48,4.61-21.78,10.4-6.87,6.31-8.37,9.84-10.08,13.88-1.39,3.29-2.92,6.89-6.67,12.03l-1.31,1.8h-2.24s-47.65.11-47.65.11h-3.98s-.4-3.96-.4-3.96c-4.87-48.22-34.95-47.12-84.24-45.3-10.89.4-22.65.84-34.54.84v-.02h-26.28c-19.71,0-39.43.02-59.14,0-43.84-.08-50.58,23.64-50.65,58.67,0,7.73.29,16.13.61,24.95.34,9.73.71,19.96.71,29.8h-.02v29.02c.01,19.34.02,38.69,0,58.02-.07,46.97,21.42,53.64,57.74,53.7,7.07,0,14.81-.22,23.03-.47,9.69-.28,20.08-.59,31.16-.55l4.41.02v4.38s-.09,116.16-.09,116.16v4.4h-4.4l-20.58-.02h-3.21s-.98-3.06-.98-3.06c-2.28-7.14-3.21-15.85-4.13-24.39-.87-8.2-1.75-16.26-3.67-21.84-2.07-6.01-13.45-9.5-23.55-12.59-3.98-1.21-7.8-2.39-10.92-3.65-3.67-1.49-6.86-3.22-9.88-4.86h0c-7.86-4.26-14.41-7.8-23.17-1.15h0s-4.21,3.24-4.21,3.24c-8.77,6.71-20.08,15.38-28.25,20.15l-2.25,1.31-2.24-1.35c-3.28-1.98-16.12-14.07-28.09-26.06-11.06-11.07-21.61-22.27-23.51-25.64l-1.19-2.11,1.12-2.12c2.34-4.43,5.29-8.25,8.21-12.03,1.16-1.5,2.35-3.05,3.32-4.39l.02-.03,6.22-8.5h.01s5.67-7.62,5.67-7.62c6.7-8.89,2.89-16-1.59-24.33-1.45-2.69-2.96-5.5-4.34-8.67-1.52-3.47-2.83-7.78-4.18-12.24-2.87-9.46-6.04-19.87-11.23-22.02-4.92-2.03-13.73-3.01-22.67-3.97-8.83-.95-17.82-1.94-24.43-4.13l-3.01-1v-3.17s-.13-70.63-.13-70.63v-3.29s3.12-.94,3.12-.94c6.95-2.1,15.49-3.03,23.92-3.93,8.3-.88,16.52-1.78,22.34-3.76,5.86-1.99,9.03-12.5,11.91-22.02h0c1.22-4.05,2.4-7.97,3.85-11.37,1.18-2.77,2.65-5.58,4.11-8.38,4.45-8.51,8.89-16.99,3.01-24.89l-.03-.05-23.73-32.92-1.64-2.29,1.37-2.44c1.96-3.49,12.6-14.83,23.71-25.96h0c11.83-11.84,24.47-23.69,27.94-25.74l2.47-1.45,2.33,1.68,31.97,23.05.1.07c8.82,6.72,15.68,3.02,23.81-1.38,2.83-1.53,5.81-3.15,9.19-4.59,3.35-1.43,7.5-2.7,11.82-4.01,9.55-2.9,20.16-6.14,22.4-11.38,2.03-4.76,3.01-13.57,4-22.53.98-8.88,1.99-17.95,4.21-24.56l1-2.98,3.15-.02,19.78-.14,3.59-.03.74,3.53c2.19,10.51,1.64,28.25,1.12,44.9-.31,10.23-.62,20.05-.26,27.29.09,1.91.5,3.74,1.17,5.37h0c.84,2.01,2.08,3.7,3.63,4.81,1.47,1.04,3.28,1.63,5.35,1.52h.02c1.31-.06,2.78-.41,4.36-1.07,6.19-2.56,6.1-10.94,6.02-19.48-.01-1.41-.03-2.86-.02-4.28l.03-4.38h4.36l88.79-.06,1.07.12c2.52.62,4.44,3.11,7.15,6.63,7.04,9.15,21.49,27.88,49.43,21.06,9.87-2.41,19.06-8.64,25.27-17.5,5.64-8.04,8.83-18.3,7.85-29.89-.93-10.98-5.39-19.81-11.83-26.27-6.03-6.04-13.8-10.06-22.09-11.89v.02c-8.34-1.83-17.17-1.47-25.22,1.26-8.88,3.02-16.86,8.95-22.23,18-1.33,2.25-2.38,4.84-3.4,7.38-1.15,2.88-2.3,5.75-3.84,8.32l-1.28,2.15h-2.52s-87.15.14-87.15.14h-4.35s-.05-4.37-.05-4.37c-.11-9.18,0-16.93.09-23.45.2-15.25.3-23.45-2.24-26.93-2.64-3.61-10.66-3.58-27.96-3.52h-8.09v.04h-1.7v-.02c-17.12,0-24.25,0-26.87,3.66-2.17,3.05-3,9.38-4.38,20.19-1.03,7.98-2.36,18.28-4.8,31.44l-.39,2.14-1.92.99ZM684.4,308.89c10.25-3.46,18.27-.23,23.33,5.88h-.01c2.12,2.55,3.67,5.57,4.62,8.78.94,3.16,1.32,6.56,1.08,9.88h0c-.63,8.87-5.55,17.32-15.56,20.29-10.35,3.06-19.39-.59-25.04-7.01-2.21-2.51-3.9-5.47-4.94-8.6-1.05-3.17-1.43-6.55-1.03-9.88.96-7.96,6.26-15.53,17.54-19.34ZM760.82,444.8c10.59-3.71,19.19-.28,24.66,6.12,2.22,2.6,3.91,5.72,4.96,9.03h.01c1.04,3.27,1.47,6.78,1.19,10.18-.7,8.47-5.6,16.36-15.79,19.29-10.9,3.14-19.67-.25-25.17-6.38-2.28-2.54-3.98-5.56-5.01-8.75-1.03-3.21-1.41-6.65-1.04-10.01.87-8.13,5.92-15.87,16.18-19.47ZM758.55,591.22c9.72-4.85,18.63-2.48,24.82,3.17,2.64,2.41,4.78,5.44,6.23,8.76,1.44,3.29,2.23,6.91,2.2,10.52-.08,8.4-4.46,16.6-14.96,20.6-9.63,3.68-18.35,1.21-24.34-4.15-2.57-2.3-4.63-5.16-6.02-8.26-1.4-3.14-2.13-6.59-2.06-10.04.16-7.83,4.33-15.73,14.11-20.6ZM446.96,434.92c5.57-2.02,86.95-1.62,130.09-1.39,7.76.03,13.86.07,22.32.07,3.09,0,5.91-.12,8.77-.25,15.36-.66,32.13-1.38,36.96,12.41,1.98,5.66,1.56,86.43,1.33,129.94-.04,8.15-.07,13.15-.07,23.12,0,3.07.11,5.76.22,8.52.62,15.39,1.31,32.48-12.36,37.24-5.66,1.97-87.57,1.54-130.86,1.32-7.84-.03-12.64-.07-22.23-.07v-.02c-2.64,0-5.67.13-8.75.26-15.35.65-32.2,1.37-36.94-12.41-2.09-6.1-1.64-85.98-1.39-129.55.05-8.58.09-15.06.09-23.54,0-3.43-.15-6.53-.29-9.6h0c-.73-15.64-1.43-30.76,13.12-36.04ZM487.02,482.04l48.31.26,4.4.02v4.38s-.11,47.93-.11,47.93v4.24s-4.24.16-4.24.16c-1.63.06-3.41.09-5.12.13-9.05.16-16.55.29-18.91,6.83-.38,1.04-.61,2.07-.69,3.06-.18,2.28.43,4.31,1.59,5.93,1.22,1.7,3.07,3.05,5.24,3.83,1.05.38,2.25.64,3.52.74,14.27,1.17,32.38.77,49.4.4,8.55-.2,16.87-.38,23.13-.38h4.41v4.42s-.06,28.98-.06,28.98v4.42h-4.4c-4.41,0-9.69-.19-14.85-.36-19.98-.67-38.21-1.29-38.75,10.29-.39,8.24,5.87,10.25,14.17,10.64,3.61.17,7.53.07,11.53-.02,2.86-.06,5.77-.14,7.51-.14v.02c5.16,0,9.86.11,14.15.2h.02c3.11.07,6.05.14,9.76.14,14.32,0,21.34-1.95,21.34-16.07h-.02c0-8.15.14-16.98.25-24.6.31-21.31.47-31.64-2.92-35.57v-.02c-2.83-3.3-10.41-3.16-25.09-2.89-7.04.13-15.58.28-25.91.06l-4.29-.09-.02-4.29-.21-48.25-.02-4.42h4.41s28.95.02,28.95.02h4.43l-.03,4.41-.02,3.96v.02c-.09,9.25-.18,18.05,6.63,20.06,1.47.44,2.83.64,4.08.64,2.28,0,4.13-.74,5.52-1.97,1.55-1.37,2.7-3.42,3.41-5.83.55-1.91.84-4.07.84-6.35s.07-5.95.14-9.33h0c.03-1.99.07-3.93.07-7.04,0-12.66-1.83-19.03-17.54-19.03v-.02h-88.68v.02l-13.46-.08c-20.62-.14-30.5-.2-34.11,3.62-3.3,3.5-3.14,12.16-2.83,28.76.11,6.01.25,13.01.22,21.16,0,1.64-.06,3.16-.09,4.71h0c-.18,6.76-.38,13.81,2.56,17.1,1.64,1.84,4.07,2.93,6.62,3.14,2.52.2,5.14-.45,7.27-2.08,6.1-4.67,5.21-21.22,4.49-34.65-.22-4.03-.43-7.82-.42-11.22v-5.61s.02-4.43.02-4.43l4.4.02ZM685.35,725.28c10.7-2.7,18.71,1.34,23.44,8.03v.02c1.91,2.69,3.24,5.79,3.98,9.01h0c.73,3.23.88,6.61.42,9.86-1.24,8.65-6.71,16.53-17.02,18.85-11.04,2.48-19.36-1.52-24.23-8.1-1.96-2.66-3.34-5.74-4.08-8.96-.74-3.21-.86-6.58-.32-9.83,1.4-8.42,7.1-16.17,17.81-18.87Z"/>
</svg>