<?xml version="1.0" encoding="UTF-8"?>
<!DOCTYPE svg PUBLIC "-//W3C//DTD SVG 1.1//EN" "http://www.w3.org/Graphics/SVG/1.1/DTD/svg11.dtd">
<!-- Creator: CorelDRAW X7 -->
<svg xmlns="http://www.w3.org/2000/svg" xml:space="preserve" width="1.37168in" height="1.64365in" version="1.1" style="shape-rendering:geometricPrecision; text-rendering:geometricPrecision; image-rendering:optimizeQuality; fill-rule:evenodd; clip-rule:evenodd"
viewBox="0 0 30335 36350"
 xmlns:xlink="http://www.w3.org/1999/xlink">
 <defs>
  <style type="text/css">
   <![CDATA[
    .str0 {stroke:#FF3DD5;stroke-width:230.297}
    .fil2 {fill:none}
    .fil32 {fill:#28180F}
    .fil22 {fill:#2E8986}
    .fil19 {fill:#33352F}
    .fil15 {fill:#387EB2}
    .fil13 {fill:#41AFAF}
    .fil9 {fill:#5A4A3E}
    .fil18 {fill:#65BA95}
    .fil30 {fill:#69110A}
    .fil5 {fill:#6AD1D5}
    .fil10 {fill:#788E1A}
    .fil17 {fill:#7A6C63}
    .fil11 {fill:#915B36}
    .fil4 {fill:#94E4C4}
    .fil31 {fill:#972415}
    .fil8 {fill:#99BD34}
    .fil27 {fill:#A9D6E7}
    .fil21 {fill:#AFD658}
    .fil29 {fill:#B94832}
    .fil7 {fill:#BC7646}
    .fil25 {fill:#CC2417}
    .fil3 {fill:#D9EDEB}
    .fil26 {fill:#DCAAE7}
    .fil14 {fill:#EB492E}
    .fil23 {fill:#EE8E4D}
    .fil12 {fill:#F77A26}
    .fil6 {fill:#F7BA6D}
    .fil20 {fill:#FBF2CB}
    .fil16 {fill:#FFA91D}
    .fil24 {fill:#FFE357}
    .fil28 {fill:white}
    .fil1 {fill:url(#id1)}
    .fil0 {fill:url(#id2)}
    .fil33 {fill:url(#id3);fill-rule:nonzero}
   ]]>
  </style>
   <clipPath id="id0">
    <path d="M3537 0l23262 0c1945,0 3536,1592 3536,3537l0 29276c0,1946 -1591,3537 -3536,3537l-23262 0c-1945,0 -3537,-1591 -3537,-3537l0 -29276c0,-1945 1592,-3537 3537,-3537z"/>
   </clipPath>
  <linearGradient id="id1" gradientUnits="userSpaceOnUse" x1="8307.14" y1="45264.9" x2="24312.9" y2="21639.8">
   <stop offset="0" style="stop-opacity:1; stop-color:#6200D1"/>
   <stop offset="1" style="stop-opacity:1; stop-color:#FF2EBD"/>
  </linearGradient>
  <linearGradient id="id2" gradientUnits="userSpaceOnUse" x1="7505.07" y1="29485.3" x2="22830.2" y2="6864.85">
   <stop offset="0" style="stop-opacity:1; stop-color:#5200B0"/>
   <stop offset="1" style="stop-opacity:1; stop-color:#EB00A1"/>
  </linearGradient>
  <linearGradient id="id3" gradientUnits="objectBoundingBox" x1="38.3309%" y1="106.126%" x2="61.6691%" y2="0%">
   <stop offset="0" style="stop-opacity:1; stop-color:#B940FF"/>
   <stop offset="1" style="stop-opacity:1; stop-color:#FF87EF"/>
  </linearGradient>
 </defs>
 <g id="Layer_x0020_1">
  <metadata id="CorelCorpID_0Corel-Layer"/>
  <path class="fil0" d="M3537 0l23262 0c1945,0 3536,1592 3536,3537l0 29276c0,1946 -1591,3537 -3536,3537l-23262 0c-1945,0 -3537,-1591 -3537,-3537l0 -29276c0,-1945 1592,-3537 3537,-3537z"/>
  <g style="clip-path:url(#id0)">
   <g id="_2278673451552">
    <circle class="fil1" cx="16310" cy="33452" r="17714"/>
    <circle class="fil2 str0" cx="21684" cy="31683" r="20338"/>
    <g>
     <path class="fil3" d="M39857 37718c26,-188 85,-295 256,-336l-9 301 -247 35zm-1850 0c8,-171 104,-308 240,-340l8 99 3 50 -15 157 -236 34zm966 -393c129,123 24,171 216,199 -44,-261 -205,-260 -277,-348 441,-13 368,257 548,263 44,-262 -408,-276 -449,-325 -100,-118 104,-295 505,-132 141,57 178,123 221,270 152,6 218,-40 357,25 -6,185 -146,-28 -282,448 -394,3 -672,65 -867,65 -166,-1 -485,-73 -593,-59 -15,-228 44,-386 303,-476 121,-42 228,-16 318,70zm-1851 7c92,89 60,175 179,186 78,-146 -145,-275 -253,-311 211,-156 441,219 549,237 29,-130 -121,-239 -237,-274 -71,-22 -81,-13 -134,-22 -100,-15 -36,43 -84,-36 -76,-128 121,-285 508,-135 176,69 188,171 228,275 148,7 221,-37 361,25 4,203 -121,-72 -286,450 -295,2 -476,41 -751,59 -279,18 -472,-51 -714,-64 -3,-169 -3,-246 99,-338 161,-145 369,-212 535,-52zm-15972 -626c70,354 137,707 194,1065 72,454 -114,670 -581,633 -384,-29 -491,-315 -594,-658 -91,-308 -157,-711 -209,-1037l-740 1 -873 -6c-100,491 -142,1339 -676,1384 -829,71 -470,-831 -416,-1357l-152 5c6,155 -149,841 -199,1015 -95,329 -213,616 -572,652 -934,92 -561,-792 -420,-1644l-552 0c-245,-20 -546,-5 -797,-5 -119,0 -281,-9 -395,4 -109,12 -274,12 -402,30 -44,66 -40,993 -11,1123 341,16 1553,7 1756,164 -19,27 -9,39 -110,65 -37,10 -90,16 -125,22 -555,80 -1587,96 -2133,96 -419,0 -833,-11 -1245,-27 -142,-6 -999,-24 -1089,-156 188,-145 1435,-162 1751,-162 44,-147 17,-885 17,-1094l-430 14c-373,-25 -653,12 -971,22 -164,4 -335,-7 -499,-2 -179,5 -176,26 -495,26 -61,36 -137,24 -216,24 9,270 3,551 -268,689 -173,88 -149,10 -188,102 42,166 68,258 5,412 -331,100 -893,29 -1253,-3 -211,182 -1187,143 -1530,105 -322,-35 -416,-93 -368,-441 33,-245 75,-473 115,-714l-1979 125c-64,33 -134,19 -228,18 -85,253 -246,438 -567,461 -353,25 -586,-83 -667,-338l-131 1 -83 7 -162 26c-107,347 -268,638 -633,694 -454,70 -794,-48 -875,-442l-90 -12c-112,17 -203,52 -296,86 -255,94 -274,237 -18,336 88,34 177,63 263,85 491,126 1373,220 1889,278 309,35 2376,222 2670,220 201,-2 483,33 674,48 377,32 977,28 1372,73 108,12 235,-1 345,3 286,8 710,52 1046,50l698 24c150,1 181,25 322,27 124,2 251,-3 375,-2 142,2 173,27 322,27 576,1 1204,50 1745,49 493,-1 914,27 1420,24l697 26c209,0 521,-19 718,3 424,48 958,20 1424,21 150,0 181,25 322,26l1819 -1c255,0 430,25 698,25l5753 0c267,0 450,-26 697,-25l1794 1c159,1 203,-25 347,-26 408,-5 1065,42 1431,-14 223,-34 770,-6 1062,-9 143,-2 187,-27 347,-27 505,2 932,-24 1420,-24l1744 -49c159,0 203,-25 347,-27 116,-1 234,1 350,2 160,0 204,-25 347,-27 116,-1 235,4 351,2 144,-2 188,-27 347,-26l4110 -224c853,-41 3449,-259 4149,-533 133,-52 151,-54 210,-165 -76,-143 -200,-169 -415,-233 -428,-127 -1745,-295 -2252,-338 -185,-15 -1400,-105 -1479,-140 -92,-41 -92,-101 -238,-110l-199 21c-118,-295 -485,-292 -797,-228 -88,80 -75,105 -75,256 -86,-2 -97,-17 -175,-24 -64,-5 -135,1 -199,0 -148,-1 -223,-26 -398,-26l-199 37c-109,-142 -76,-198 -309,-252 -176,-41 -370,-34 -513,25 -51,58 -53,50 -75,140 -153,0 -193,-22 -323,-25l-1021 -17 -178 0c0,200 -24,827 15,977 359,0 1549,7 1753,162 -38,56 -5,37 -108,64 -536,143 -4407,203 -4594,-64 192,-153 1421,-151 1754,-164 38,-144 16,-832 13,-1029 -109,8 -294,33 -368,-28l-528 -26c-181,-2 -369,7 -550,2 -184,-6 -205,-26 -522,-26 -183,0 -365,-2 -548,1l-61 24c20,413 -200,602 -613,549 -262,-33 -374,-239 -441,-456 -42,-133 -19,-143 -155,-139 138,558 105,969 -549,930 -474,-28 -638,-567 -692,-964 -130,18 -407,49 -498,-20l-851 2 -650 -5c-63,336 -210,639 -569,658 -473,26 -560,-245 -536,-680l-138 11c-45,42 -162,517 -224,639 -103,206 -202,340 -497,359 -829,52 -604,-610 -545,-1001 -261,-6 -1737,49 -1839,-33l-667 0c22,528 447,1453 -386,1411 -327,-16 -430,-244 -518,-519 -83,-258 -137,-562 -180,-842 -30,-21 36,-26 -88,-23z"/>
     <path class="fil4" d="M3480 19145c-58,39 -111,50 -183,84 -72,34 -111,56 -183,92l-1123 540c57,118 135,225 203,364 63,130 111,244 157,392 81,260 198,622 175,913 100,-2 1057,-240 1128,-274 0,557 -1,1113 0,1670 2,831 -688,1961 -1063,2699l-299 548c-52,93 -122,169 -132,291 109,58 211,124 323,169 166,46 327,129 516,171 56,11 107,21 162,34 21,4 59,12 78,18 74,22 7,-9 77,31l708 41 535 2 1349 -71 129 -1077c26,22 20,14 44,46 10,13 31,49 40,64l179 342c90,167 178,325 250,471 165,-34 448,-277 641,-347 47,-24 79,-52 149,-69 0,-145 -42,-232 -78,-345 -32,-103 -54,-220 -78,-346 -136,-704 -179,-1601 6,-2324 167,-654 230,-462 742,-977 377,-379 260,-780 56,-1240 106,2 535,303 672,349 87,-179 420,-414 566,-631 191,-284 252,-529 388,-839l-1601 -833c-179,-35 -302,-151 -470,-218 -133,-54 -386,-105 -544,-134l-247 1370c-72,-50 -177,-230 -233,-312 -58,-85 -142,-254 -232,-305 -37,141 -213,660 -267,725 -140,-81 -238,-216 -364,-328 -339,-302 -775,-769 -853,-1240 -244,47 -496,97 -712,191 -106,45 -179,101 -294,154 -113,53 -206,97 -317,139z"/>
     <path class="fil5" d="M15504 29927c-172,90 -4607,-29 -5271,16l-145 37c-359,131 -339,409 -326,828l23 33c11,16 21,30 31,48 33,55 24,38 42,81 96,61 123,128 277,171 121,34 282,23 418,23 297,-1 600,-6 896,1l37 8 6458 -6 423 -1 1224 0 1671 -2 3886 3 490 -4 1622 3 1856 -2 1082 4 466 5 6488 -10c108,-28 143,-44 215,-99 36,-28 49,-40 78,-71l84 -94c42,-206 84,-300 39,-545l-63 -149c-113,-226 -299,-241 -591,-276l-136 0 -118 4 -1351 0 -797 -9 -1096 13 -548 -1 -946 1 -673 1 -794 2c-46,28 -1349,0 -1597,-1 -276,0 -500,38 -797,38l-624 -6c-204,-11 -147,2 -169,-47l-1099 14 -1194 1 -525 0 -1046 -24 -218 42 -280 -25 -174 3 -2167 2 -221 0 -1342 -6 -1002 5 -324 -21c-108,37 -691,37 -797,-1l-1375 13z"/>
     <path class="fil6" d="M8035 29876l-50 190c-72,185 -140,501 -191,714 -46,192 -107,614 -177,751l-21 131c-80,500 -719,4022 -829,4168 -28,126 -68,263 -93,382 -16,75 -19,113 -38,187 -22,88 -54,102 -24,206 -53,238 -146,703 -105,935 230,132 1202,121 1427,12l7 -225c28,30 31,43 67,80l107 79c137,-16 404,44 569,55 108,7 217,12 326,8 117,-5 186,-8 233,-78 42,-238 -111,-591 -180,-798 -148,-447 -133,-447 25,-765l668 -1294 1278 -2561c56,-112 393,-779 415,-888 -296,-7 -599,-2 -896,-1 -136,0 -297,11 -418,-23 -154,-43 -181,-110 -277,-171 -287,690 -522,1343 -823,2027 -151,344 -237,642 -350,1062 -50,184 -256,1012 -324,1104l-11 46c-30,74 -91,342 -128,459 -120,374 -329,1056 -359,1410 -80,-58 -48,-8 -105,-172 -228,-653 -292,-448 -11,-1140 87,-216 425,-1091 515,-1205 20,-35 16,-24 20,-74 96,-309 245,-623 371,-925l743 -1830c119,-312 244,-611 366,-924 -13,-419 -33,-697 326,-828 84,-351 397,-909 205,-1287 -164,-322 -422,-727 -910,-708 -783,30 -1068,1218 -1348,1891z"/>
     <path class="fil7" d="M2782 17937c133,-52 275,-205 420,-248 224,-65 17,148 485,-87 206,-104 755,-396 1005,-348 27,245 -688,482 -866,638 244,261 55,203 91,362 20,89 83,70 48,197 -19,70 -85,116 -114,183 -64,149 -14,374 -446,372 -115,-1 -196,-38 -299,33 136,0 209,-23 317,57 4,3 10,8 14,11 32,26 18,12 43,38 111,-42 204,-86 317,-139 115,-53 188,-109 294,-154 216,-94 468,-144 712,-191l435 -269c44,-176 91,-633 99,-831l6 -88c-40,-68 -89,-116 -138,-186 -173,-249 -232,-392 -358,-582 -440,25 -627,-305 -728,-671 -156,-560 133,-781 627,-530 114,58 111,82 223,18 74,-43 138,-92 207,-144 545,-416 554,-906 462,-1511 102,51 297,226 572,373 199,107 424,202 646,273 539,174 985,200 1568,252 50,236 12,1018 -16,1281 -39,377 -125,752 -234,1086 -115,350 -295,617 -495,825 -322,335 -485,257 -1034,205 -123,12 -50,-26 -72,54l15 267 28 37c89,39 313,178 383,231 158,29 411,80 544,134 168,67 291,183 470,218 188,-42 313,-80 419,-193 167,-181 19,-323 -46,-420 793,0 444,-412 493,-523 -120,-117 -501,-380 -504,-526 -5,-214 553,183 609,211 -18,-79 -39,-90 -75,-158 106,-51 161,-13 225,-124 38,-66 62,-180 47,-297 -24,-195 -140,-334 -347,-352 57,-107 50,-89 50,-249 -73,-49 -73,-51 -174,-75 122,-526 -147,-254 -74,-594 88,-409 58,-970 94,-1055 31,-72 78,-112 98,-201 96,-442 -127,-1114 -472,-1458l-194 -130c59,139 221,202 211,397 -20,398 -1126,300 -1456,290 -368,-10 -733,-51 -1075,-98 -472,-64 -504,-118 -812,-333 296,-2 609,33 889,50 297,17 625,11 923,7 229,-4 695,-24 804,-158 185,-225 -190,-491 -320,-489 228,37 503,171 711,257 -32,-71 -6,-56 -149,-123 -909,-427 -1931,-586 -2903,-313l-409 139c63,-272 193,-179 298,-324 -125,3 -266,45 -339,134 -110,133 -108,202 -202,297 -73,73 -97,108 -162,186 -323,392 -476,912 -574,1420 -22,115 -66,472 -63,602 5,171 43,425 85,586 21,83 69,186 47,250 -35,101 -105,54 -62,238 -193,-45 -270,1 -224,199 -143,0 -230,41 -285,140 -86,152 -4,186 61,284 -81,54 -139,124 -151,250 -17,196 33,197 101,298 -291,24 -112,268 -75,324 -188,99 -249,184 -249,468z"/>
     <path class="fil8" d="M21358 33537l-2 99c-645,96 -1599,82 -2286,69 -797,-15 -867,-40 -1511,-244 -78,-25 -396,-48 -506,-66 -49,25 -344,45 -434,59 -173,27 -264,45 -388,111l9 1113c23,94 52,21 40,178 -7,91 -55,271 -76,376 -49,246 -99,496 -149,748 -48,241 -92,510 -147,749 -92,0 -183,1 -274,0 -85,-1 -208,-21 -274,30l552 0c-141,852 -514,1736 420,1644 359,-36 477,-323 572,-652 50,-174 205,-860 199,-1015l0 -32c68,-95 45,-81 65,-210l234 -1584 124 -25c161,24 912,78 1096,52 113,-16 272,-71 374,23 204,0 491,46 672,-25 249,50 843,-27 1146,-22l31 -3 294 -32c110,-7 195,-18 298,-28 179,-18 391,-47 548,-114 0,0 72,96 76,-173l-9 -824c-85,-97 -158,-33 -240,-222 -82,-187 58,-239 -52,-376 -19,9 -118,-33 -99,226 7,94 27,136 64,199 -414,-462 22,-505 -288,-571 -49,210 22,491 161,532l-240 10z"/>
     <path class="fil6" d="M38493 26962c132,-74 34,-145 179,-150 96,268 -272,458 -523,448 -308,-11 -563,-386 -374,-489 54,37 18,9 48,65 7,13 -4,4 23,55 116,218 580,108 647,71zm2569 -390c-48,53 -32,53 -44,115 -75,373 -370,335 -280,94 32,-87 163,-216 247,-242 162,-51 157,94 192,186 -32,-118 -20,-115 -115,-153zm-1559 -687c344,-99 281,518 45,635 -293,147 -333,-260 -205,-507 47,-90 66,-101 160,-128zm-1760 -210c344,780 -433,813 -302,126 31,-166 163,-162 302,-126zm-552 41c-77,344 52,492 -114,822 -177,354 -85,487 -25,748 -242,56 -330,289 -525,346 -182,54 -216,126 -318,355 -56,124 -529,735 -672,1097l-79 145 -25 50c-8,107 -53,183 -80,294 -28,117 -44,199 -44,360l1351 0c-24,-87 -68,-168 -109,-248 -46,-92 -63,-191 -146,-242l-75 13c0,-253 338,-950 439,-1009l333 -165c0,-56 -9,-164 -7,-204 5,-143 79,-86 -42,-219 -141,-154 63,-85 -175,-199 68,-102 167,-159 199,-299l292 305c76,73 273,218 381,243 -24,290 -381,24 -473,0 37,55 148,151 217,183 117,53 206,19 306,-34 -21,89 -45,166 -121,206 -124,65 -163,-12 -228,-56 66,249 353,193 548,-175 63,2 460,81 520,100 250,-2 654,59 875,-100 70,7 -22,12 53,-1 144,-26 375,-180 484,-223 33,-54 250,-243 317,-317l266 -349c51,40 107,95 200,119 74,33 205,-14 291,-58 93,-48 171,-117 229,-195 59,-79 104,-149 137,-262 52,-180 34,-179 15,-341 -67,-60 -110,-119 -197,-124 -141,-13 -131,-12 -251,42l-18 -39c-3,-6 -6,-15 -9,-21l-24 -63c-37,142 -126,270 -230,300 -64,-940 -257,-962 -281,-1168l92 363c-81,-92 -138,-195 -223,-283 -203,-209 -564,-590 -838,-677 92,111 351,368 360,575 -294,-31 -611,-35 -877,-138 -240,-94 -480,-270 -685,-337 145,429 974,576 1097,535 -592,91 -1034,-19 -1477,-328 -236,-165 -330,-407 -364,-710 -69,74 -89,207 -96,311 -11,170 61,418 158,553 40,56 34,33 71,104 23,47 18,54 53,108 -415,-292 -376,-615 -345,-967 -130,273 -75,700 53,874 40,55 113,140 160,163 -21,-3 -73,-15 -89,-13 -78,10 -19,-29 -72,31 49,-76 -30,-88 -85,-148 -54,-60 -48,-75 -126,-132l48 499z"/>
     <path class="fil7" d="M37191 25716l-48 -499c78,57 72,72 126,132 55,60 134,72 85,148 53,-60 -6,-21 72,-31 16,-2 68,10 89,13 -47,-23 -120,-108 -160,-163 -128,-174 -183,-601 -53,-874 -31,352 -70,675 345,967 -35,-54 -30,-61 -53,-108 -37,-71 -31,-48 -71,-104 -97,-135 -169,-383 -158,-553 7,-104 27,-237 96,-311 34,303 128,545 364,710 443,309 885,419 1477,328 -123,41 -952,-106 -1097,-535 205,67 445,243 685,337 266,103 583,107 877,138 -9,-207 -268,-464 -360,-575 274,87 635,468 838,677 85,88 142,191 223,283l-92 -363c24,206 217,228 281,1168 104,-30 193,-158 230,-300l24 63c3,6 6,15 9,21l18 39c120,-54 110,-55 251,-42l-94 -67c135,-272 0,-737 -29,-1017 115,196 115,531 192,668 56,-890 -378,-1091 -489,-1433 177,193 347,320 460,639 52,146 78,316 80,494 2,203 -44,374 -30,560 6,-5 13,-20 16,-15 34,62 223,-548 247,-743 69,-570 -57,-1109 -385,-1563 -142,-196 -282,-369 -493,-481 -103,-33 -267,-68 -357,-116l-306 -143c-688,-240 -1305,-147 -1750,-9 -52,16 -102,29 -167,54 -110,42 -241,118 -334,139 -177,-118 -158,-193 -432,-287 -6,-2 -12,-4 -18,-6 -132,-44 -259,-60 -401,-35 -376,66 -582,224 -749,497 -318,523 -44,1650 703,1476 30,63 37,132 60,214 34,119 158,470 235,565 35,44 -7,4 43,43z"/>
     <path class="fil9" d="M31573 23922l0 0zm-4582 598c35,-125 209,-208 385,-231 151,-19 649,87 789,132 80,26 105,68 210,113 149,63 317,121 499,122 -314,13 -420,-95 -678,-145 82,150 302,245 490,311 263,92 421,99 702,43 -61,83 -129,108 -261,123 -126,15 -250,6 -377,0 5,5 13,4 16,13 3,9 12,10 17,12l133 48c318,58 736,-40 977,-228 52,-40 85,-69 127,-123l109 -151c95,235 64,585 224,795 96,-166 41,-407 36,-577 14,176 60,272 57,516 -3,192 -22,381 -15,572 82,-145 138,-329 179,-514 68,-302 26,-358 -7,-630 325,473 -254,1176 17,1623 74,122 207,236 362,285l2 134 19 -100c172,41 300,48 346,-125 -347,0 -186,-363 -25,-573 155,-202 271,-325 391,-581 150,-322 205,-833 58,-1163 -85,-190 -129,-193 -200,-299 73,19 97,59 175,100 -15,-170 -306,-322 -424,-349 10,-121 61,-273 0,-399 -59,24 -85,50 -99,225l-50 0c-84,-314 -783,-698 -1079,-865 -169,-95 -274,-132 -474,-198 -961,-315 -1592,298 -1752,349 -183,58 -191,-87 -232,66 77,37 91,25 199,25l-64 35c-21,10 -49,21 -71,29 -68,27 -85,33 -139,60 -381,187 -844,539 -824,1023 5,115 36,112 38,168 1,55 -44,103 -37,380 5,158 47,223 76,348 4,-5 7,-20 8,-17 6,16 67,-310 167,-382z"/>
     <path class="fil6" d="M30271 27062c-97,-256 295,-486 417,-361 38,38 37,43 39,108l-3 73c0,-3 0,7 1,10 -9,-89 -20,-126 -49,-179 -173,60 -38,-62 -112,150 -17,48 -39,74 -77,107 -68,57 -97,95 -216,92zm-1996 -538c103,290 -343,425 -616,316 -361,-144 -416,-519 -220,-596 122,61 105,178 332,261 195,70 364,-33 504,19zm697 -178c-129,-203 -2,-452 124,-587 -41,-69 -83,-142 -72,-254 47,146 224,197 375,245 64,201 62,263 -59,448 -92,141 -174,191 -368,148zm-1770 -1166c-26,-88 -71,-61 -88,-216 214,251 339,61 415,238 62,145 4,445 -87,520 -153,126 -286,-90 -275,-278 5,-89 57,-189 35,-264zm-211 -660c-70,287 17,864 -210,1236 -190,314 -427,556 -156,1098 281,563 1093,1005 1935,1005 0,194 -9,217 -39,349 246,369 979,68 1202,-150 -11,-84 -68,-139 -103,-238 -35,-102 -31,-216 -64,-285 91,-61 123,-96 210,-164 87,-68 136,-133 213,-185 71,48 217,317 613,90 202,-116 339,-276 392,-513l-2 -134c-155,-49 -288,-163 -362,-285 -271,-447 308,-1150 -17,-1623 33,272 75,328 7,630 -41,185 -97,369 -179,514 -7,-191 12,-380 15,-572 3,-244 -43,-340 -57,-516 5,170 60,411 -36,577 -160,-210 -129,-560 -224,-795l-109 151c-42,54 -75,83 -127,123 -241,188 -659,286 -977,228l-133 -48c-5,-2 -14,-3 -17,-12 -3,-9 -11,-8 -16,-13 127,6 251,15 377,0 132,-15 200,-40 261,-123 -281,56 -439,49 -702,-43 -188,-66 -408,-161 -490,-311 258,50 364,158 678,145 -182,-1 -350,-59 -499,-122 -105,-45 -130,-87 -210,-113 -140,-45 -638,-151 -789,-132 -176,23 -350,106 -385,231z"/>
     <path class="fil6" d="M7621 17293c-184,182 -560,223 -756,30 -113,-53 -468,-323 -222,-484 66,37 4,-10 46,35 9,10 31,43 33,46 -1,-68 95,-13 167,8 239,66 542,70 761,-38l11 23c50,-63 33,-72 141,-56 85,171 -96,374 -181,436zm-3349 -1296c-77,-137 -89,-443 191,-338 352,131 420,842 107,697 -214,-99 -12,-432 -16,-457 -52,-96 -95,-164 -239,-157 -29,77 -39,142 -43,255zm1664 -388c-55,-23 -123,-60 -149,-71l183 -2c88,156 57,273 278,303 205,28 322,-58 395,-175 27,65 -68,290 -349,289 -248,-2 -305,-127 -358,-344zm1642 28c74,231 558,268 605,-147l166 5c-78,75 -80,29 -117,97 -23,42 -26,241 -225,301 -232,69 -443,-22 -429,-256zm-1 -647c-26,-274 695,-162 684,185 -142,1 -151,-84 -316,-128 -121,-33 -272,2 -368,-57zm-1009 -13c-66,83 -90,57 -224,63 -382,18 -605,331 -541,76 49,-193 678,-407 765,-139zm-1225 2496c298,228 419,409 914,580 106,36 313,71 388,109 549,52 712,130 1034,-205 200,-208 380,-475 495,-825 109,-334 195,-709 234,-1086 28,-263 66,-1045 16,-1281 -583,-52 -1029,-78 -1568,-252 -222,-71 -447,-166 -646,-273 -275,-147 -470,-322 -572,-373 92,605 83,1095 -462,1511 -69,52 -133,101 -207,144 -112,64 -109,40 -223,-18 -494,-251 -783,-30 -627,530 101,366 288,696 728,671 126,190 185,333 358,582 49,70 98,118 138,186z"/>
     <path class="fil6" d="M21028 26577c75,131 32,97 53,195l-42 -156c-172,53 -50,-50 -111,125 -67,192 -256,265 -292,158 -53,-154 206,-350 392,-322zm-2661 417c-302,64 -463,-1 -569,-237 -51,-108 -115,-317 2,-397 99,43 38,-27 65,100 20,90 -33,180 246,269 427,136 501,-94 536,-116 141,190 -133,316 -280,381zm1210 -1259c171,-72 274,90 246,253 -20,117 -127,292 -223,335 -363,162 -318,-464 -23,-588zm-1920 -268c6,-2 14,-1 18,-1 210,-9 153,-9 166,-120 -92,-37 -77,-38 -157,20 53,-245 337,-209 337,76 1,576 -391,480 -364,25zm-216 -772c43,253 -10,891 -146,1163 -111,219 -386,534 -117,1004 339,590 1030,897 1743,897 0,147 27,188 -93,224 -72,134 -164,298 -111,478 48,164 217,235 430,173 284,-82 599,-377 708,-601 -68,-143 -137,-225 -137,-423 481,-255 485,-398 673,-524 25,19 215,314 612,40 157,-108 328,-335 320,-563 -78,-151 -516,-95 -425,-814 48,-380 202,-743 -28,-1032 55,218 90,297 50,553 -18,116 -77,408 -157,503 -6,-229 46,-582 -40,-758l-58 317c-148,-200 -153,-601 -244,-759 -107,242 -255,363 -515,458 -371,135 -448,93 -797,29 315,-36 435,49 653,-155 -265,66 -399,82 -670,-4 -185,-58 -413,-145 -500,-281 241,42 386,139 669,113 -465,-13 -560,-162 -697,-194 -381,-88 -926,-223 -1123,156z"/>
     <path class="fil8" d="M29958 32514c-294,320 -652,259 -1101,326 -72,17 -632,131 -642,136 -88,45 -67,94 -213,157 -434,186 -401,-235 -353,-328 -969,38 -991,-374 -1357,657l-537 1484c-27,40 -12,20 -42,49 56,104 64,178 -85,177l-12 75 -6 28c-1,224 -24,263 -54,320 -2,4 -7,12 -11,17 -15,168 -15,186 -187,205 -158,17 -246,2 -394,-14 16,120 -108,739 -140,876l-1835 0c102,82 1578,27 1839,33 -59,391 -284,1053 545,1001 295,-19 394,-153 497,-359 62,-122 179,-597 224,-639 2,-116 34,-215 56,-328 78,-403 340,-1996 367,-2324l125 -2c215,20 1020,70 1195,27 178,69 456,25 656,25 67,-51 637,-11 789,-15 263,-6 549,-38 797,-27l75 -32c246,45 861,-82 1120,-129 153,-67 100,-212 100,-569 0,-108 0,-216 0,-324 0,-107 17,-239 -25,-324 -25,-69 7,-41 -94,-81 -206,-80 -881,-141 -1077,-145 -108,81 -103,16 -220,47z"/>
     <path class="fil8" d="M2010 31888l-687 4229c-58,379 -184,1123 -184,1459l-75 17 90 12c81,394 421,512 875,442 365,-56 526,-347 633,-694l162 -26 -141 0c272,-1169 449,-2473 593,-3667 26,-214 177,-1160 131,-1291 -8,-622 -600,-1048 -1080,-832 -238,108 -245,261 -317,351z"/>
     <path class="fil10" d="M2907 37320l131 -1c81,255 314,363 667,338 321,-23 482,-208 567,-461 94,1 164,15 228,-18l-198 0c212,-444 410,-2182 493,-2770l403 -2886 1047 -1c325,-6 176,-76 269,777l31 568c22,84 -23,28 43,76 0,-380 90,-615 255,-871 171,-265 309,-414 753,-409l21 -131c-23,-70 23,-42 -53,-55 -292,1 -634,21 -946,26 -882,15 -1931,-45 -2815,-41l-444 2905c-94,678 -245,1514 -323,2168 -30,245 -88,519 -30,768l-99 18z"/>
     <path class="fil11" d="M21146 24780c125,15 263,45 390,3 29,55 -12,77 26,139 55,-185 66,-132 218,-204 109,-52 166,-126 218,-222 11,242 5,553 -70,737 -50,-116 -13,-169 -93,-264l-129 268c-74,-92 -26,-146 -129,-223l-85 176c-47,-78 -26,-151 -80,-228 -24,29 -2,-4 -34,49l-79 143 -37 -165c-26,24 -12,5 -38,42 -20,28 -15,22 -28,56 -5,-123 -17,-209 -50,-307zm639 -833l0 0zm-3163 -994c37,-19 121,-41 164,-63 18,338 277,642 501,842 67,60 165,128 222,190 -74,75 -338,312 -479,319 27,-120 71,-103 107,-233l-363 11c24,-101 56,-57 106,-186l-418 -1c24,-84 140,-99 217,-150l71 -65c-167,-12 -325,-6 -456,-61 14,3 355,-46 440,-138l-286 1 3 -65c0,-7 -1,-11 -3,-17 -116,-5 -134,6 -220,-38 80,-168 201,-37 335,-286 19,-35 -39,-7 59,-60zm-1181 1742c197,-379 742,-244 1123,-156 137,32 232,181 697,194 -283,26 -428,-71 -669,-113 87,136 315,223 500,281 271,86 405,70 670,4 -218,204 -338,119 -653,155 349,64 426,106 797,-29 260,-95 408,-216 515,-458 91,158 96,559 244,759l58 -317c86,176 34,529 40,758 80,-95 139,-387 157,-503 40,-256 5,-335 -50,-553 230,289 76,652 28,1032 -91,719 347,663 425,814 118,2 115,32 208,20 85,-10 102,-49 180,-70l0 -74c-384,0 -261,-320 -125,-524 132,-197 243,-329 358,-564 78,-162 166,-530 127,-768 -25,-148 -39,-238 -94,-354 -86,-184 -122,-178 -192,-282 65,17 91,43 150,75 -47,-200 -257,-244 -424,-324 36,-155 36,-219 0,-374 -65,75 -73,162 -99,274 -71,-101 -136,-213 -268,-330 -280,-248 -859,-553 -1221,-647 -383,-99 -722,-103 -1080,27 -360,130 -404,248 -584,338 -151,75 -116,26 -259,14 11,133 30,100 174,100l-498 274c-264,187 -545,554 -464,915 28,128 42,-17 19,133 -24,162 -44,185 -11,355 42,214 29,239 132,266 0,-191 21,-225 89,-348z"/>
     <path class="fil12" d="M25202 32269c12,-165 232,-454 320,-548 102,-111 327,-275 547,-318 306,247 -19,487 -163,628 -156,152 -375,402 -704,238zm-478 -632c-192,280 -389,740 -514,1090 -72,202 -142,394 -205,592 -63,199 -133,419 -177,624 194,3 368,43 519,124 233,126 187,184 182,444 187,-16 359,19 512,84 247,104 166,132 281,308 211,-50 258,16 391,92 30,-29 15,-9 42,-49l537 -1484c366,-1031 388,-619 1357,-657 73,-294 110,-328 588,-368 196,-16 387,-265 467,-433 -185,-62 -862,-466 -1093,-605 -103,-61 -283,-151 -351,-233l-1622 -3c-14,197 -239,262 -397,373 -67,47 -171,135 -238,158 -126,41 -198,-31 -279,-57z"/>
     <path class="fil6" d="M8879 17967c78,60 153,123 229,175 -60,82 -133,62 -148,177 -24,190 73,59 -51,247 -60,92 -42,107 9,214 133,283 -89,434 454,568 222,55 340,81 583,114 133,18 110,54 182,142l484 537c53,56 96,114 148,176 57,68 108,128 158,191 76,99 263,300 273,424 -107,-25 -216,-85 -315,-133l-955 -455c-38,51 -196,603 -670,1037l-127 124c124,20 200,68 310,114 107,45 179,73 281,118 499,215 1337,561 1854,612 573,57 917,-62 1167,-419 454,-649 -1219,-2247 -1662,-2674l-434 -388c-227,-181 -675,-718 -843,-801 -157,-79 -177,47 -347,-77l-475 -338c-56,-28 -614,-425 -609,-211 3,146 384,409 504,526z"/>
     <path class="fil9" d="M3206 29540c156,13 453,125 650,166 152,31 590,108 725,72 666,0 1599,0 2261,34 170,9 602,29 747,-9l20 -78c88,-530 343,-875 373,-1063 -1016,-92 -2090,-214 -3108,-354 -1069,-147 -2269,-108 -1797,-1446 -7,-3 -40,-23 -44,-25 -4,-3 -14,-6 -17,-15 -3,-11 -11,-12 -17,-18 -189,-42 -350,-125 -516,-171 -66,315 -480,1070 -299,1775 74,291 206,492 393,678 107,106 158,171 290,258 102,68 269,135 339,196z"/>
     <path class="fil6" d="M1263 20334l-48 29 48 -29zm1519 -2397c-221,177 -531,411 -771,555 -740,442 -2528,1780 -2794,2511 -365,1002 1141,819 1655,734 211,-35 371,-69 563,-109 91,-19 160,-35 266,-59 117,-25 186,-56 309,-64 -59,-335 26,-454 -136,-785 -48,-97 -113,-202 -170,-278 -65,-85 -137,-142 -148,-282 -42,78 -12,69 -106,112 -64,29 -121,47 -187,62 49,-74 108,-110 180,-169 37,-30 61,-49 97,-77 66,-54 34,-54 122,-78l25 -25c52,-78 234,-209 320,-277 167,-133 689,-604 859,-635 60,-11 201,-33 240,-34 103,-71 184,-34 299,-33 432,2 382,-223 446,-372 29,-67 95,-113 114,-183 35,-127 -28,-108 -48,-197 -36,-159 153,-101 -91,-362 178,-156 893,-393 866,-638 -250,-48 -799,244 -1005,348 -468,235 -261,22 -485,87 -145,43 -287,196 -420,248z"/>
     <path class="fil8" d="M2085 31258c261,112 1111,171 1469,191 126,-1 105,36 249,12 884,-4 1933,56 2815,41 312,-5 654,-25 946,-26 76,13 30,-15 53,55 70,-137 131,-559 177,-751 51,-213 119,-529 191,-714 -193,-22 -532,15 -744,22 -1345,45 -2542,27 -3885,-53 -205,-12 -1031,-82 -1232,-170 -109,-47 -86,-29 -98,-68 -3,-10 -10,-10 -16,-15l0 1416c27,24 39,32 75,60z"/>
     <path class="fil13" d="M33995 36854c74,61 259,36 368,28 3,197 25,885 -13,1029 -333,13 -1562,11 -1754,164 187,267 4058,207 4594,64 103,-27 70,-8 108,-64 -204,-155 -1394,-162 -1753,-162 -39,-150 -15,-777 -15,-977l178 0c-38,-31 -9,-19 -77,-31 -25,-4 -71,-1 -98,-1l0 -4487c-172,-50 -936,-20 -1170,-20l0 4457 -368 0z"/>
     <path class="fil13" d="M12577 36819c0,209 27,947 -17,1094 -316,0 -1563,17 -1751,162 90,132 947,150 1089,156 412,16 826,27 1245,27 546,0 1578,-16 2133,-96 35,-6 88,-12 125,-22 101,-26 91,-38 110,-65 -203,-157 -1415,-148 -1756,-164 -29,-130 -33,-1057 11,-1123l0 -4370c-173,-53 -922,-21 -1156,-21 -72,394 58,4240 -33,4422z"/>
     <path class="fil14" d="M39194 29337c88,32 34,12 105,259 30,103 69,204 110,292 53,113 264,440 276,503 -157,29 -147,-42 -215,-164 -103,-184 -279,-525 -321,-732 -26,-126 -31,-106 45,-158zm-994 -331c-97,28 -122,217 -113,308 12,117 31,303 86,378 40,-362 363,-341 466,-204 26,35 37,67 54,99 5,9 22,42 25,47 17,29 19,32 28,42l297 -124 354 778c-21,22 -8,7 -33,39l-40 52 -17 160 89 92c34,42 62,93 79,141 124,358 -121,787 -578,801 -641,21 -1031,-286 -799,-932 -139,7 -253,-11 -343,-88 -97,-85 -111,-172 -187,-241 45,245 3,339 -39,545 -7,146 15,153 22,274 5,101 0,221 -1,324 0,146 14,490 50,581l98 59c514,335 1931,185 2568,74 4,-5 9,-20 12,-15 4,6 12,-9 17,-11 121,-37 -98,0 52,-8l192 -37c72,-11 103,-29 175,-45 0,-513 -150,-1502 -150,-2018 161,-86 318,-183 326,-424 11,-341 -192,-803 -504,-993 -102,-62 -163,-49 -306,-68 -102,-14 -249,-35 -336,-35 28,418 -240,622 -587,713 -371,97 -856,58 -957,-264z"/>
     <path class="fil9" d="M4559 26930c-88,52 -297,16 -332,34 -162,174 -150,242 -454,320 -223,58 -489,53 -686,101 -37,243 116,424 242,500 190,114 357,137 592,179 606,110 3577,483 4116,500 117,-134 194,-325 322,-458 65,-68 140,-139 196,-179 111,-78 203,-99 266,-151 -173,-77 -1935,-500 -2327,-618 -125,-38 -266,-62 -402,-101 -211,-60 -289,-50 -313,-145 213,-2 94,-15 129,-53l-1349 71z"/>
     <path class="fil14" d="M31822 28631l254 -393c22,-29 27,-34 45,-55 0,693 -78,467 -299,448zm-866 -99l-13 29c42,178 56,246 -55,406 -117,168 -149,109 -276,226 -137,126 -51,216 -105,391 -53,169 -205,190 -52,356l794 -2c54,-128 171,-312 200,-435 134,12 366,69 498,100 0,154 -25,186 -25,334l946 -1c0,-251 12,-455 25,-707l27 -621c13,-69 -2,-37 32,-76 -30,-145 -25,-797 4,-972 -81,-352 -178,-429 -521,-514 -124,-30 -311,-80 -441,-85 -111,-4 -123,18 -168,79l-870 1492z"/>
     <path class="fil15" d="M18946 31873c-81,25 -1081,891 -1588,617 -77,-41 -72,-25 -139,-58 -98,-48 -52,-63 -125,-105 -61,-35 -79,-5 -138,-62l-177 -216c-240,45 -314,481 -252,772 75,354 200,470 526,574 110,18 428,41 506,66 644,204 714,229 1511,244 687,13 1641,27 2286,-69l2 -99 8 -469c-514,49 -2426,283 -2844,262 -308,-15 -574,-198 -527,-521 132,-225 2101,-186 2484,-429 287,-182 81,-459 38,-680 -548,152 -957,174 -1571,173z"/>
     <path class="fil16" d="M32956 27560c-29,175 -34,827 -4,972 203,335 726,355 1138,349 203,-2 289,-88 397,74 -102,153 -229,234 -445,277 -222,45 -402,47 -676,47l50 658 1096 -13c70,-55 163,-67 258,-113 100,-48 166,-85 258,-141 83,-50 161,-107 226,-172l179 -219 25 -50c23,-269 186,-672 -372,-947 -405,-200 -970,-56 -1271,-49 -63,-95 -213,-269 123,-350 118,-29 466,-84 549,-124 -7,-91 -85,-471 -120,-527 -172,-274 -818,-31 -1036,44 -97,33 -135,62 -207,116 -169,125 -87,76 -168,168z"/>
     <path class="fil8" d="M29059 35209c-4,161 143,934 183,1136 25,124 65,258 65,384l-469 0c91,69 368,38 498,20 54,397 218,936 692,964 654,39 687,-372 549,-930l0 -29c0,-137 -254,-1411 -301,-1643l-108 -512c-1,-4 -6,-12 -7,-15 -1,-4 -4,-11 -7,-16l-62 -96c-221,-375 -1009,-453 -1033,737z"/>
     <path class="fil10" d="M30154 34039l498 2715 -75 0 0 29c136,-4 113,6 155,139 67,217 179,423 441,456 413,53 633,-136 613,-549l61 -24c-105,-102 -133,-539 -160,-688 -50,-276 -369,-2108 -413,-2207 -259,47 -874,174 -1120,129z"/>
     <path class="fil10" d="M26232 36704c-24,435 63,706 536,680 359,-19 506,-322 569,-658l650 5c-74,-50 -211,-27 -299,-27 -108,1 -216,0 -324,0 96,-413 152,-856 239,-1281 44,-216 232,-1184 234,-1335 -175,43 -980,-7 -1195,-27 26,34 -41,27 50,27l-114 661c-50,261 -350,1817 -346,1955z"/>
     <path class="fil8" d="M19818 35901l124 778 -549 -1c-53,-1 -129,-3 -173,32l740 -1c52,326 118,729 209,1037 103,343 210,629 594,658 467,37 653,-179 581,-633 -57,-358 -124,-711 -194,-1065l-3 -27 -233 -1271c-136,-129 -86,-212 -293,-305 -152,-68 -330,-46 -453,33 -290,185 -282,621 -350,765z"/>
     <path class="fil6" d="M36729 35556c86,-27 109,-70 226,-90 110,-20 236,-17 347,-9 244,17 361,72 572,112 0,-537 730,-1650 678,-2029 -373,-343 -679,-626 -1247,-653 -11,-220 -6,-284 96,-467 73,-132 151,-244 297,-283l-98 -59c-168,76 -377,430 -429,659 -15,67 -25,152 -46,227l-182 666c-127,506 -358,1340 -214,1926z"/>
     <path class="fil6" d="M38796 33565c-33,142 -85,311 -120,453 -40,159 -63,307 -91,482 -38,244 -76,864 12,1062 388,-231 733,-62 1145,8 0,-271 83,-417 164,-621 76,-191 159,-363 231,-540 123,-299 333,-817 326,-1218l-142 -75c-8,-117 2,-268 5,-423 3,-170 12,-346 21,-516 -150,8 69,-29 -52,8 -5,2 -13,17 -17,11 -3,-5 -8,10 -12,15l-11 880c-72,36 -131,18 -214,16 -423,-11 -938,234 -1245,458z"/>
     <path class="fil10" d="M20845 34910c0,1 57,15 69,25 0,261 298,1524 298,1744l-65 0 3 27c124,-3 58,2 88,23 43,280 97,584 180,842 88,275 191,503 518,519 833,42 408,-883 386,-1411l-259 -1423c-31,-182 -78,-321 -78,-520 -157,67 -369,96 -548,114 -103,10 -188,21 -298,28l-294 32z"/>
     <path class="fil10" d="M17103 36704l0 32 152 -5c-54,526 -413,1428 416,1357 534,-45 576,-893 676,-1384 95,-363 221,-1298 325,-1744l324 0c-102,-94 -261,-39 -374,-23 -184,26 -935,-28 -1096,-52 5,8 20,34 22,39 35,99 -108,733 -132,848l-164 932 -149 0z"/>
     <path class="fil3" d="M15349 29778c-73,-68 -140,-183 -140,-324 0,-146 58,-200 101,-275 35,-61 22,-24 30,-74 -84,-28 -2040,-18 -2321,-22l-1770 0c-250,4 -258,94 -257,346 1,454 -11,381 806,381 500,0 3476,18 3551,-32z"/>
     <path class="fil17" d="M4581 29778c109,92 1661,33 1788,33l1122 13c134,1 262,51 367,88 89,31 124,4 177,-36 280,-673 565,-1861 1348,-1891 488,-19 746,386 910,708 192,378 -121,936 -205,1287l145 -37 -3 -3c23,-214 134,-536 179,-775 77,-407 13,-413 236,-715 244,-331 503,-490 1009,-323 168,56 188,123 301,180 51,-68 48,-73 155,-64l35 -85c-152,-13 -128,-146 -531,-264 -281,-83 -444,-69 -717,-10 -98,68 -223,107 -332,186 -102,73 -173,134 -261,232 -88,-85 -86,-189 -235,-308 -461,-368 -1123,-209 -1248,-218 -63,52 -155,73 -266,151 -56,40 -131,111 -196,179 -128,133 -205,324 -322,458 -539,-17 -3510,-390 -4116,-500 -235,-42 -402,-65 -592,-179 -126,-76 -279,-257 -242,-500 197,-48 463,-43 686,-101 304,-78 292,-146 454,-320 35,-18 244,18 332,-34l-535 -2 84 59c-169,262 -651,307 -1042,306l107 -420 143 14c-70,-40 -3,-9 -77,-31 -19,-6 -57,-14 -78,-18 -55,-13 -106,-23 -162,-34 6,6 14,7 17,18 3,9 13,12 17,15 4,2 37,22 44,25 -472,1338 728,1299 1797,1446 1018,140 2092,262 3108,354 -30,188 -285,533 -373,1063l-20 78c-145,38 -577,18 -747,9 -662,-34 -1595,-34 -2261,-34z"/>
     <path class="fil3" d="M12145 28158l-35 85c557,-49 3344,53 3467,-18 109,-117 77,-197 76,-391 0,-168 38,-326 -89,-407 -89,-46 -2704,-10 -3269,-15l-144 5c-59,11 -24,1 -56,18 48,83 101,214 118,334 21,142 -38,277 -68,389z"/>
     <path class="fil6" d="M16879 29914c106,38 689,38 797,1 150,-46 215,-91 341,-137 60,-156 127,-609 186,-825 38,-138 72,-274 114,-404 42,-129 103,-246 139,-366 -154,85 -538,587 -989,862 -379,230 -473,4 -566,-461 -57,-287 -60,-192 98,-430 185,-279 -26,-163 75,-447 29,-80 50,-138 69,-233 31,-152 20,-138 10,-263 -137,11 -238,192 -249,324 -182,-49 90,-30 -230,-40 -145,-5 4,-39 -141,-31 -16,1 -298,118 -328,169 -48,83 -39,344 -18,469 10,59 45,122 59,190 16,74 10,150 21,229 75,557 198,1182 612,1393z"/>
     <path class="fil4" d="M28373 29806c31,74 61,79 115,121l-1220 -3c22,49 -35,36 169,47l624 6c297,0 521,-38 797,-38 248,1 1551,29 1597,1 -153,-166 -1,-187 52,-356 54,-175 -32,-265 105,-391 127,-117 159,-58 276,-226 111,-160 97,-228 55,-406 -119,-22 -75,-91 -377,-170 -798,-207 -844,-27 -1175,275l-1018 1140z"/>
     <path class="fil18" d="M38552 33540c39,0 109,-4 146,-1 48,4 -2,-4 44,6 53,11 24,1 54,20 307,-224 822,-469 1245,-458 83,2 142,20 214,-16l11 -880c-637,111 -2054,261 -2568,-74 -146,39 -224,151 -297,283 -102,183 -107,247 -96,467 568,27 874,310 1247,653z"/>
     <path class="fil19" d="M5908 26859c-35,38 84,51 -129,53 24,95 102,85 313,145 136,39 277,63 402,101 392,118 2154,541 2327,618 125,9 787,-150 1248,218 149,119 147,223 235,308 88,-98 159,-159 261,-232 109,-79 234,-118 332,-186 -5,-4 -12,-14 -14,-9 -3,4 -12,-8 -15,-9l-3603 -1103c-29,-128 -47,-275 -74,-405 -193,70 -476,313 -641,347 -72,-146 -160,-304 -250,-471l-179 -342c-9,-15 -30,-51 -40,-64 -24,-32 -18,-24 -44,-46l-129 1077z"/>
     <path class="fil6" d="M38277 29825c5,-156 56,-293 195,-297 44,77 89,72 149,200l-344 97zm-951 -877l67 140c83,239 38,242 51,490 10,184 84,574 61,627l63 149c76,69 90,156 187,241 90,77 204,95 343,88l129 -3c6,-1 16,-10 19,-4 4,8 28,-6 39,-8 20,-4 42,-9 62,-14l384 -92c163,-45 308,-98 463,-153l7 44c49,-51 35,-64 71,-78 63,-23 31,-32 52,46l40 -52c25,-32 12,-17 33,-39l-354 -778 -297 124c-9,-10 -11,-13 -28,-42 -3,-5 -20,-38 -25,-47 -17,-32 -28,-64 -54,-99 -103,-137 -426,-158 -466,204 -55,-75 -74,-261 -86,-378 -9,-91 16,-280 113,-308 -26,-97 -28,-211 -11,-325 -191,0 54,-307 -140,-598 -103,69 -125,202 -125,374 -331,-28 -96,-1 -273,12 -77,6 29,-36 -89,2 -48,16 -64,58 -101,96l-160 114c0,136 23,165 25,267z"/>
     <path class="fil14" d="M18456 28183c-36,120 -97,237 -139,366 -42,130 -76,266 -114,404 -59,216 -126,669 -186,825l-17 158 1002 -5c166,-514 520,-1228 928,-1366 148,-50 326,-39 470,29 142,68 174,222 183,410 20,397 -146,627 -239,933l221 0c-25,-99 -54,-231 -17,-351 38,-126 119,-113 261,-128 -65,-137 -77,-257 16,-380l33 -23c-99,-202 -42,-623 -627,-887 -81,-36 -340,-110 -376,-135 -109,224 -424,519 -708,601 -213,62 -382,-9 -430,-173 -53,-180 39,-344 111,-478 -85,18 -140,27 -215,66 -75,40 -129,73 -157,134z"/>
     <path class="fil15" d="M20623 31665c86,252 210,552 -25,763 -360,324 -2166,229 -2509,449 -18,527 1101,315 1470,279 567,-54 1271,-177 1795,-190l-96 -311c-20,-43 47,-30 111,-112 -4,-5 -11,-18 -13,-14 -1,2 -17,-20 -25,-29l-12 -157 68 -1c-36,-115 6,-324 -28,-519 -31,-174 -79,-290 -147,-430 -97,36 -200,102 -301,150 -89,42 -196,79 -288,122z"/>
     <path class="fil8" d="M6588 32942c-70,223 115,1723 129,2168 8,253 50,450 50,720 110,-146 749,-3668 829,-4168 -444,-5 -582,144 -753,409 -165,256 -255,491 -255,871z"/>
     <path class="fil5" d="M11162 28924c-118,13 -170,-41 -171,-243 0,-60 16,-130 35,-176 35,-90 38,-88 143,-85 -91,193 -107,305 -7,504zm-97 48l4444 -9c122,32 268,17 399,17l0 -99c-80,0 -117,-8 -173,-25 -3,66 -317,36 -450,36 -391,0 -1206,-24 -1502,-1 -25,-221 -88,-184 8,-419 242,-18 1863,-42 1968,10 75,-2 90,-11 149,-25l0 -75 -299 -1 -3635 -5c-334,-2 -1047,-52 -1286,63l-9 426c106,124 211,103 386,107z"/>
     <path class="fil20" d="M4803 18661c78,471 514,938 853,1240 126,112 224,247 364,328 54,-65 230,-584 267,-725 90,51 174,220 232,305 56,82 161,262 233,312l247 -1370c-70,-53 -294,-192 -383,-231 -113,49 30,208 -232,358 -614,353 -1069,-436 -1146,-486l-435 269z"/>
     <path class="fil6" d="M28704 32004c-80,168 -271,417 -467,433 -478,40 -515,74 -588,368 -48,93 -81,514 353,328 146,-63 125,-112 213,-157 10,-5 570,-119 642,-136 78,-27 234,-166 303,-219 116,-88 196,-214 315,-272 33,-108 507,-525 723,-1181l-1082 -4c-54,223 -282,761 -412,840z"/>
     <path class="fil10" d="M9243 37471c38,-49 31,-104 64,-149 30,68 159,313 203,372 39,-92 15,-14 188,-102 271,-138 277,-419 268,-689 79,0 155,12 216,-24l-202 0c-35,-150 -69,-852 -110,-1136 -33,-232 -75,-968 -114,-1129l-668 1294c-158,318 -173,318 -25,765 69,207 222,560 180,798z"/>
     <path class="fil6" d="M17925 31757c-109,23 -215,24 -320,42 -241,43 -692,-27 -826,250l177 216c59,57 77,27 138,62 73,42 27,57 125,105 67,33 62,17 139,58 507,274 1507,-592 1588,-617 48,-82 267,-250 345,-330 66,-67 266,-290 300,-377l-1224 0c-60,129 -347,506 -442,591z"/>
     <path class="fil21" d="M2010 29782c6,5 13,5 16,15 12,39 -11,21 98,68 201,88 1027,158 1232,170 1343,80 2540,98 3885,53 212,-7 551,-44 744,-22l50 -190c-53,40 -88,67 -177,36 -105,-37 -233,-87 -367,-88l-1122 -13c-127,0 -1679,59 -1788,-33 -135,36 -573,-41 -725,-72 -197,-41 -494,-153 -650,-166 -90,18 -254,25 -329,34 -134,15 -204,18 -337,36 -139,19 -480,61 -530,172z"/>
     <path class="fil7" d="M41411 22888l284 -2c-176,11 -476,160 -508,438 155,-8 125,-14 222,-85 -88,171 -144,153 -123,412 61,-14 26,-3 69,-34l174 -154c0,192 -127,140 -132,359 78,135 280,278 481,334 271,76 442,-19 638,-124 -274,231 -193,217 -665,229 36,47 -13,9 59,60 291,207 750,85 838,-412 22,-126 -9,-85 -17,-211 153,-397 -559,-1093 -1222,-875 -52,17 -23,4 -54,24 -50,33 -5,-8 -44,41z"/>
     <path class="fil6" d="M19002 29931l1342 6c93,-306 259,-536 239,-933 -9,-188 -41,-342 -183,-410 -144,-68 -322,-79 -470,-29 -408,138 -762,852 -928,1366z"/>
     <path class="fil22" d="M12147 36833l430 -14c91,-182 -39,-4028 33,-4422 234,0 983,-32 1156,21l0 -1245 4178 -6 -6458 6 1084 0 0 5631 -423 29z"/>
     <path class="fil8" d="M8282 34487l29 573c0,-68 -12,-440 -49,-499 -90,114 -428,989 -515,1205 -281,692 -217,487 11,1140 57,164 25,114 105,172 30,-354 239,-1036 359,-1410 37,-117 98,-385 128,-459 -30,-61 -6,-30 11,-46 68,-92 274,-920 324,-1104 113,-420 199,-718 350,-1062 301,-684 536,-1337 823,-2027 -18,-43 -9,-26 -42,-81 -10,-18 -20,-32 -31,-48l-23 -33c-122,313 -247,612 -366,924l-743 1830c-126,302 -275,616 -371,925z"/>
     <path class="fil11" d="M40664 23324c211,112 351,285 493,481 328,454 454,993 385,1563 -24,195 -213,805 -247,743 -3,-5 -10,10 -16,15 -14,-186 32,-357 30,-560 -2,-178 -28,-348 -80,-494 -113,-319 -283,-446 -460,-639 111,342 545,543 489,1433 -77,-137 -77,-472 -192,-668 29,280 164,745 29,1017l94 67c87,5 130,64 197,124 68,-383 398,-492 398,-1711 142,11 221,89 428,55 177,-28 251,-93 351,-198 95,-98 155,-204 197,-351l24 -380c-15,-177 15,-78 -53,-123 8,126 39,85 17,211 -88,497 -547,619 -838,412 -72,-51 -23,-13 -59,-60 472,-12 391,2 665,-229 -196,105 -367,200 -638,124 -201,-56 -403,-199 -481,-334 5,-219 132,-167 132,-359l-174 154c-43,31 -8,20 -69,34 -21,-259 35,-241 123,-412 -97,71 -67,77 -222,85 32,-278 332,-427 508,-438l-284 2c-112,0 -258,128 -324,211 -44,55 -85,94 -125,150 -39,53 -67,113 -99,175l-199 -100z"/>
     <path class="fil9" d="M38597 35562c0,246 301,1104 398,1260 312,-64 679,-67 797,228l199 -21c-1,-64 -249,-1110 -249,-1459 -412,-70 -757,-239 -1145,-8z"/>
     <path class="fil9" d="M36729 35556c3,168 114,506 164,659 40,119 71,199 113,311 36,96 98,198 121,312 143,-59 337,-66 513,-25 233,54 200,110 309,252l199 -37c-55,-116 -141,-555 -167,-704 -23,-131 -38,-245 -56,-369 -15,-108 -48,-285 -51,-386 -211,-40 -328,-95 -572,-112 -111,-8 -237,-11 -347,9 -117,20 -140,63 -226,90z"/>
     <path class="fil22" d="M34363 32397c234,0 998,-30 1170,20l0 -1244 1619 -10 -6488 10 3699 0 0 1224z"/>
     <path class="fil23" d="M8162 12959c-4,-62 73,6 -38,-62 -89,-55 -8,-29 -87,-15 -208,-86 -483,-220 -711,-257 130,-2 505,264 320,489 -109,134 -575,154 -804,158 -298,4 -626,10 -923,-7 -280,-17 -593,-52 -889,-50 308,215 340,269 812,333 342,47 707,88 1075,98 330,10 1436,108 1456,-290 10,-195 -152,-258 -211,-397z"/>
     <path class="fil24" d="M27268 29924l1220 3c-54,-42 -84,-47 -115,-121 -52,-154 -9,-225 66,-324 69,-92 122,-163 184,-239 107,-131 314,-348 381,-466l-345 204c-65,-109 -43,-292 -106,-431l-405 265 107 -433c-289,130 -558,598 -692,872l-295 670z"/>
     <path class="fil14" d="M24550 35296c-132,-13 -85,-105 -167,-219 -62,-84 -133,-94 -207,-158 208,-12 455,212 374,377zm-177 -467l-14 64c-207,-16 -130,-21 -308,43 -98,36 -178,70 -275,65 -25,83 -96,137 -148,186 -162,-17 -563,-97 -694,-181 -54,-34 -67,-19 -65,-95 6,-178 -1,-66 62,-101 -49,-51 60,-61 -57,-42l-41 192c117,162 593,270 795,274 -29,126 -25,193 -25,349 304,203 827,264 1361,220 -116,-44 -553,-31 -734,-55 -216,-29 -453,-84 -597,-185l-2 -154c275,57 259,117 734,166 150,16 275,10 435,7 150,-3 269,33 422,36 19,-21 17,-18 36,-49 70,-116 126,-298 358,-322l12 -75c-137,-92 -208,-49 -391,-79 -94,-228 -57,-269 -298,-373 -179,-78 -378,-124 -519,-19l-6 135c44,36 5,9 60,33 8,3 32,11 40,13 18,7 42,9 74,20 139,45 313,172 306,352 -146,-6 -105,-127 -230,-233 -101,-86 -183,-93 -239,-135 -4,-3 -10,-9 -14,-12l-38 -45z"/>
     <path class="fil9" d="M6479 37053c-40,241 -82,469 -115,714 -48,348 46,406 368,441 343,38 1319,77 1530,-105 67,-237 -84,-470 -195,-601l48 -16 -107 -79c-36,-37 -39,-50 -67,-80l-7 225c-225,109 -1197,120 -1427,-12 -41,-232 52,-697 105,-935 -64,53 -12,-32 -60,84 -6,15 -28,113 -29,120 -21,88 -52,159 -44,244z"/>
     <path class="fil8" d="M10230 29940l3 3c664,-45 5099,74 5271,-16 75,-126 -17,-149 -155,-149 -75,50 -3051,32 -3551,32 -817,0 -805,73 -806,-381 -1,-252 7,-342 257,-346l1770 0c281,4 2237,-6 2321,22 161,0 166,22 169,-142l-4444 9 -66 105c-63,109 -33,274 -33,402 0,84 -13,205 7,283 16,66 40,75 88,140l-831 38z"/>
     <path class="fil25" d="M12095 27435c32,-17 -3,-7 56,-18l144 -5c565,5 3180,-31 3269,15 127,81 89,239 89,407 1,194 33,274 -76,391 -123,71 -2910,-31 -3467,18 -107,-9 -104,-4 -155,64l19 69 3635 5c111,-204 74,-281 74,-572 0,-173 43,-481 -116,-556 -91,-43 -2855,-15 -3296,-17 -95,-1 -242,-22 -296,31 -82,83 13,159 120,168z"/>
     <path class="fil14" d="M18946 31873c614,1 1023,-21 1571,-173l106 -35c92,-43 199,-80 288,-122 101,-48 204,-114 301,-150l73 -49c2,-96 5,-109 -23,-180l-1671 2c-34,87 -234,310 -300,377 -78,80 -297,248 -345,330z"/>
     <path class="fil6" d="M10230 29940l831 -38c-48,-65 -72,-74 -88,-140 -20,-78 -7,-199 -7,-283 0,-128 -30,-293 33,-402l66 -105c-175,-4 -280,17 -386,-107l9 -426c239,-115 952,-65 1286,-63l-19 -69c-113,-57 -133,-124 -301,-180 -506,-167 -765,-8 -1009,323 -223,302 -159,308 -236,715 -45,239 -156,561 -179,775z"/>
     <path class="fil14" d="M38688 31207l9 -145 140 17c-46,210 54,173 185,88 -48,165 -149,147 -276,76 -134,66 -222,40 -256,-105l34 28c37,28 30,60 164,41zm257 -437c156,24 113,164 -7,136 -10,-17 -31,32 -23,-79 7,-90 9,-25 30,-57zm-413 -9c163,-36 137,146 5,124 -10,-18 -17,-18 -21,-60 -6,-54 1,-23 16,-64zm-305 -81c-529,837 898,1152 1159,509 142,-348 -147,-524 -208,-589l23 -147 -7 -44c-155,55 -300,108 -463,153l-384 92c-20,5 -42,10 -62,14 -11,2 -35,16 -39,8 -3,-6 -13,3 -19,4z"/>
     <path class="fil14" d="M25471 29766l-187 0c23,-125 171,-568 220,-650l234 -2c51,88 195,522 220,652l-213 -2c-52,-79 -18,-95 -99,-131 -174,9 -48,38 -175,133zm-496 173l1194 -1 8 -1033 -7 -24 -1416 -2 221 21 0 1039z"/>
     <path class="fil5" d="M25654 27969c314,-12 552,-24 409,343 170,44 211,115 178,320 -130,128 -352,108 -599,93l12 -756zm516 912l7 24c268,-157 291,248 291,-448 0,-243 22,-545 -25,-748l-814 7 -342 22 -5 1122c190,8 759,-30 888,21z"/>
     <path class="fil25" d="M23798 34731c-133,-19 -95,-130 -173,-240 -44,-62 -138,-133 -234,-140 242,-48 453,154 407,380zm-141 -419c-308,0 -425,12 -626,125 -98,55 -129,79 -166,208 -30,108 -38,184 -32,315l41 -192c117,-19 8,-9 57,42 105,93 662,225 845,191 97,5 177,-29 275,-65 178,-64 101,-59 308,-43l14 -64c-20,-332 77,-204 92,-342 14,-136 -112,-233 -186,-279 -90,-55 -206,-104 -329,-124 -210,-34 -277,2 -272,203 5,4 15,0 18,7 3,8 14,6 18,7l40 11c44,11 57,10 99,25 49,17 104,49 143,81 66,52 160,153 143,281 -148,0 -103,-127 -199,-225 -77,-78 -175,-103 -283,-162z"/>
     <path class="fil26" d="M20565 29937l2167 -2c4,-7 17,-31 19,-36 23,-51 5,-9 19,-47 -14,-83 -49,-85 -98,-167 -44,-73 -50,-117 -70,-218 -297,3 -571,65 -891,66 -337,2 -589,0 -902,-75 -142,15 -223,2 -261,128 -37,120 -8,252 17,351z"/>
     <path class="fil20" d="M1687 19985l-25 25c-50,74 -70,58 -106,150 11,140 83,197 148,282 57,76 122,181 170,278 162,331 77,450 136,785 -33,85 -25,48 -25,150 112,75 147,62 295,21 105,-30 203,-57 246,-146 23,-291 -94,-653 -175,-913 -46,-148 -94,-262 -157,-392 -68,-139 -146,-246 -203,-364 -4,-3 -13,-9 -15,-4l-289 128z"/>
     <path class="fil18" d="M37597 37444c-108,-18 -338,-393 -549,-237 108,36 331,165 253,311 -119,-11 -87,-97 -179,-186 -166,-160 -374,-93 -535,52 -102,92 -102,169 -99,338 242,13 435,82 714,64 275,-18 456,-57 751,-59 165,-522 290,-247 286,-450 -140,-62 -213,-18 -361,-25 -40,-104 -52,-206 -228,-275 -387,-150 -584,7 -508,135 48,79 -16,21 84,36 53,9 63,0 134,22 116,35 266,144 237,274z"/>
     <path class="fil18" d="M39460 37439c-180,-6 -107,-276 -548,-263 72,88 233,87 277,348 -192,-28 -87,-76 -216,-199 -90,-86 -197,-112 -318,-70 -259,90 -318,248 -303,476 108,-14 427,58 593,59 195,0 473,-62 867,-65 136,-476 276,-263 282,-448 -139,-65 -205,-19 -357,-25 -43,-147 -80,-213 -221,-270 -401,-163 -605,14 -505,132 41,49 493,63 449,325z"/>
     <path class="fil6" d="M38472 28313c0,106 7,162 -44,225 -23,30 -35,32 -66,59 -47,40 -24,-4 -57,59 -11,225 17,328 173,417 129,74 331,92 516,76 378,-34 563,-223 583,-617 -133,-145 -119,-140 -183,-334 -99,-90 -10,86 -54,-43 -5,-14 -16,-13 -21,-22 -49,110 -187,213 -337,247 -252,57 -328,-10 -510,-67z"/>
     <path class="fil6" d="M5238 18392c77,50 532,839 1146,486 262,-150 119,-309 232,-358l-28 -37c-381,0 -800,-334 -1027,-605 -121,-145 -143,-249 -224,-317 -8,198 -55,655 -99,831z"/>
     <path class="fil24" d="M28704 32004c130,-79 358,-617 412,-840l-1856 2c68,82 248,172 351,233 231,139 908,543 1093,605z"/>
     <path class="fil3" d="M15735 28856l-21 -81c-8,-26 -25,-95 -25,-99 -7,-90 32,-139 70,-194 -105,-52 -1726,-28 -1968,-10 -96,235 -33,198 -8,419 296,-23 1111,1 1502,1 133,0 447,30 450,-36z"/>
     <path class="fil16" d="M25427 27460c-83,143 -305,201 -423,69 -104,-115 -76,-358 33,-428 197,-128 464,93 266,107 -73,5 -158,-78 -212,45 -41,96 -3,146 49,194 200,77 157,-144 287,13zm-669 274c105,-49 697,-13 871,-18l-9 -779 -1220 0 0 797 358 0z"/>
     <path class="fil19" d="M9243 37471c-47,70 -116,73 -233,78 -109,4 -218,-1 -326,-8 -165,-11 -432,-71 -569,-55l-48 16c111,131 262,364 195,601 360,32 922,103 1253,3 63,-154 37,-246 -5,-412 -44,-59 -173,-304 -203,-372 -33,45 -26,100 -64,149z"/>
     <path class="fil20" d="M8660 21406c-21,75 -34,51 47,100 17,10 116,45 148,54 101,30 228,40 278,-55l127 -124c474,-434 632,-986 670,-1037 19,-98 25,-107 25,-234 -65,-44 -67,-62 -149,-100 -44,-21 -144,-62 -192,-74 -136,310 -197,555 -388,839 -146,217 -479,452 -566,631z"/>
     <path class="fil24" d="M29475 32349l443 133c4,2 10,7 14,9l26 23c117,-31 112,34 220,-47 35,-146 206,-423 274,-597 44,-108 89,-214 120,-328 35,-130 53,-236 92,-369l-466 -5c-216,656 -690,1073 -723,1181z"/>
     <path class="fil27" d="M21366 33068l-12 -102c-524,13 -1228,136 -1795,190 -369,36 -1488,248 -1470,-279 343,-220 2149,-125 2509,-449 235,-211 111,-511 25,-763l-106 35c43,221 249,498 -38,680 -383,243 -2352,204 -2484,429 -47,323 219,506 527,521 418,21 2330,-213 2844,-262z"/>
     <path class="fil13" d="M20809 29458c313,75 565,77 902,75 320,-1 594,-63 891,-66l-20 -6 -74 -9c12,-16 10,-16 30,-43 3,-5 18,-23 22,-28 2,-4 9,-11 11,-14 3,-3 8,-9 12,-13l0 -50c-2,-150 -13,-175 -116,-224 -140,96 -605,75 -806,74 -150,0 -299,2 -449,-3 -239,-10 -381,35 -387,-73 -93,123 -81,243 -16,380z"/>
     <path class="fil18" d="M24745 28856l9 23 1416 2c-129,-51 -698,-13 -888,-21l5 -1122 342 -22c-174,5 -766,-31 -871,18l-13 1122z"/>
     <path class="fil25" d="M36579 29296c93,33 21,-27 75,61l260 572c292,35 478,50 591,276 23,-53 -51,-443 -61,-627 -13,-248 32,-251 -51,-490l-67 -140c-126,47 -262,113 -382,173 -71,36 -110,58 -182,92 -64,31 -131,50 -183,83z"/>
     <path class="fil7" d="M18228 23299c86,44 104,33 220,38 2,6 3,10 3,17l-3 65 286 -1c-85,92 -426,141 -440,138 131,55 289,49 456,61l-71 65c-77,51 -193,66 -217,150l418 1c-50,129 -82,85 -106,186l363 -11c-36,130 -80,113 -107,233 141,-7 405,-244 479,-319 -57,-62 -155,-130 -222,-190 -224,-200 -483,-504 -501,-842 -43,22 -127,44 -164,63 -98,53 -40,25 -59,60 -134,249 -255,118 -335,286z"/>
     <path class="fil9" d="M21258 32655l96 311 12 102 -8 469 240 -10c-139,-41 -210,-322 -161,-532 310,66 -126,109 288,571 -37,-63 -57,-105 -64,-199 -19,-259 80,-217 99,-226 110,137 -30,189 52,376 82,189 155,125 240,222 278,0 368,-10 456,-207 -105,-22 -104,-120 -249,-267 -306,-311 -278,-247 -581,-464 -106,-76 -149,-155 -266,-227l-154 81z"/>
     <path class="fil5" d="M20858 29055l-33 23c6,108 148,63 387,73 150,5 299,3 449,3 201,1 666,22 806,-74 -53,-40 -16,-23 -109,-25 71,-134 62,-140 25,-299 -61,-29 -108,-47 -199,-53 -312,75 -766,86 -1071,-3 -261,31 -192,146 -175,355l-80 0z"/>
     <path class="fil18" d="M29004 28777c-67,118 -274,335 -381,466 -62,76 -115,147 -184,239 -75,99 -118,170 -66,324l1018 -1140c331,-302 377,-482 1175,-275 302,79 258,148 377,170l13 -29c-117,-72 33,-141 -413,-290 -191,-64 -383,-125 -639,-104 -274,19 -364,115 -510,257 -131,129 -244,252 -390,382z"/>
     <polygon class="fil25" points="24450,29939 24975,29939 24975,28900 24754,28879 24745,28856 24450,28856 "/>
     <path class="fil28" d="M23657 34312c108,59 206,84 283,162 96,98 51,225 199,225 17,-128 -77,-229 -143,-281 -39,-32 -94,-64 -143,-81 -42,-15 -55,-14 -99,-25l-40 -11c-4,-1 -15,1 -18,-7 -3,-7 -13,-3 -18,-7 -5,-201 62,-237 272,-203 123,20 239,69 329,124 74,46 200,143 186,279 -15,138 -112,10 -92,342l38 45c4,3 10,9 14,12 56,42 138,49 239,135 125,106 84,227 230,233 7,-180 -167,-307 -306,-352 -32,-11 -56,-13 -74,-20 -8,-2 -32,-10 -40,-13 -55,-24 -16,3 -60,-33l6 -135c141,-105 340,-59 519,19 241,104 204,145 298,373 183,30 254,-13 391,79 149,1 141,-73 85,-177 -133,-76 -180,-142 -391,-92 -115,-176 -34,-204 -281,-308 -153,-65 -325,-100 -512,-84 5,-260 51,-318 -182,-444 -151,-81 -325,-121 -519,-124 -220,-10 -228,187 -171,369z"/>
     <path class="fil28" d="M28521 28208c-73,30 -225,120 -266,174l-107 433 405 -265c63,139 41,322 106,431l345 -204c146,-130 259,-253 390,-382 146,-142 236,-238 510,-257l-181 -80c-223,218 -956,519 -1202,150z"/>
     <path class="fil23" d="M25202 32269c329,164 548,-86 704,-238 144,-141 469,-381 163,-628 -220,43 -445,207 -547,318 -88,94 -308,383 -320,548z"/>
     <path class="fil10" d="M2010 31888c72,-90 79,-243 317,-351 480,-216 1072,210 1080,832 74,-33 29,50 62,-210l85 -710c-358,-20 -1208,-79 -1469,-191 0,224 -75,398 -75,630z"/>
     <path class="fil24" d="M22723 29080c60,42 159,55 243,114 58,40 133,118 175,174 144,194 114,359 45,589l218 -42c21,-11 65,-29 91,-47 40,-28 17,-8 39,-34 31,-37 20,-23 29,-56 17,-243 16,-398 -106,-577 -132,-192 -206,-199 -349,-345 -161,0 -365,88 -385,224z"/>
     <path class="fil10" d="M28493 34113l390 0 176 1096c24,-1190 812,-1112 1033,-737l62 96c0,-189 -75,-317 -75,-497 -248,-11 -534,21 -797,27 -152,4 -722,-36 -789,15z"/>
     <path class="fil14" d="M22583 29304l0 50 -1 107 20 6c20,101 26,145 70,218 49,82 84,84 98,167 102,22 18,-7 80,31 81,49 20,12 56,49l280 25c69,-230 99,-395 -45,-589 -42,-56 -117,-134 -175,-174 -84,-59 -183,-72 -243,-114 -86,43 -45,-4 -93,99 -13,29 -8,27 -19,55 -2,5 -4,13 -6,18l-15 35c-1,4 -4,12 -7,17z"/>
     <path class="fil28" d="M25642 28725c247,15 469,35 599,-93 33,-205 -8,-276 -178,-320 143,-367 -95,-355 -409,-343l-12 756z"/>
     <path class="fil28" d="M24964 35803c148,16 236,31 394,14 172,-19 172,-37 187,-205l-253 20c14,-185 140,-326 318,-357l6 -28c-232,24 -288,206 -358,322 -19,31 -17,28 -36,49 -153,-3 -272,-39 -422,-36 -160,3 -285,9 -435,-7 -475,-49 -459,-109 -734,-166l2 154c144,101 381,156 597,185 181,24 618,11 734,55z"/>
     <path class="fil10" d="M19668 34935c7,113 123,918 150,966 68,-144 60,-580 350,-765 123,-79 301,-101 453,-33 207,93 157,176 293,305 -29,-93 -91,-394 -100,-495 -303,-5 -897,72 -1146,22z"/>
     <path class="fil23" d="M5337 17561c81,68 103,172 224,317 227,271 646,605 1027,605l-15 -267c22,-80 -51,-42 72,-54 -75,-38 -282,-73 -388,-109 -495,-171 -616,-352 -914,-580l-6 88z"/>
     <path class="fil28" d="M38305 28656c-88,7 -52,4 -116,25 -17,114 -15,228 11,325 101,322 586,361 957,264 347,-91 615,-295 587,-713 -78,-7 -84,-23 -167,-25 -20,394 -205,583 -583,617 -185,16 -387,-2 -516,-76 -156,-89 -184,-192 -173,-417z"/>
     <path class="fil28" d="M21258 32655l154 -81c117,72 160,151 266,227 303,217 275,153 581,464 145,147 144,245 249,267 70,-63 90,-103 53,-192 -133,-318 -678,-635 -819,-754 -58,-49 -93,-97 -150,-149 -126,-114 -135,-110 -205,-95l-68 1 12 157c8,9 24,31 25,29 2,-4 9,9 13,14 -64,82 -131,69 -111,112z"/>
     <path class="fil21" d="M21113 28700c305,89 759,78 1071,3 36,-50 75,-79 43,-186 -31,-108 -86,-71 -193,-106 -219,68 -586,86 -772,-9 -5,4 -14,1 -17,9l-132 46c-32,136 -36,106 0,243z"/>
     <path class="fil29" d="M28275 26524c-140,-52 -309,51 -504,-19 -227,-83 -210,-200 -332,-261 -196,77 -141,452 220,596 273,109 719,-26 616,-316z"/>
     <path class="fil9" d="M4024 26928l-708 -41 -143 -14 -107 420c391,1 873,-44 1042,-306l-84 -59z"/>
     <path class="fil7" d="M39931 27809c61,230 137,474 394,516 131,21 191,-1 239,-67 -380,0 -423,-201 -423,-499 60,87 69,276 328,293 192,13 315,-99 319,-293l-92 132c-40,39 -113,79 -164,88 -218,42 -405,-195 -225,-377 167,-169 320,-213 407,-340 -93,-24 -149,-79 -200,-119l-266 349c-67,74 -284,263 -317,317z"/>
     <path class="fil28" d="M25471 29766c127,-95 1,-124 175,-133 81,36 47,52 99,131l213 2c-25,-130 -169,-564 -220,-652l-234 2c-49,82 -197,525 -220,650l187 0z"/>
     <path class="fil28" d="M39201 30453l-23 147c61,65 350,241 208,589 -261,643 -1688,328 -1159,-509l-129 3c-232,646 158,953 799,932 457,-14 702,-443 578,-801 -17,-48 -45,-99 -79,-141l-89 -92 17 -160c-21,-78 11,-69 -52,-46 -36,14 -22,27 -71,78z"/>
     <path class="fil7" d="M21146 24780c33,98 45,184 50,307 13,-34 8,-28 28,-56 26,-37 12,-18 38,-42l37 165 79 -143c32,-53 10,-20 34,-49 54,77 33,150 80,228l85 -176c103,77 55,131 129,223l129 -268c80,95 43,148 93,264 75,-184 81,-495 70,-737 -52,96 -109,170 -218,222 -152,72 -163,19 -218,204 -38,-62 3,-84 -26,-139 -127,42 -265,12 -390,-3z"/>
     <path class="fil9" d="M29056 25840l125 -4c0,164 -141,179 -125,4zm40 -81c-126,135 -253,384 -124,587 194,43 276,-7 368,-148 121,-185 123,-247 59,-448 -151,-48 -328,-99 -375,-245 -11,112 31,185 72,254z"/>
     <path class="fil23" d="M24724 31637c81,26 153,98 279,57 67,-23 171,-111 238,-158 158,-111 383,-176 397,-373l-490 4c-167,175 -113,12 -424,470z"/>
     <path class="fil12" d="M28857 32840c449,-67 807,-6 1101,-326l-26 -23c-4,-2 -10,-7 -14,-9l-443 -133c-119,58 -199,184 -315,272 -69,53 -225,192 -303,219z"/>
     <path class="fil30" d="M6865 17323c128,-113 407,-144 581,-112 77,14 130,26 175,82 85,-62 266,-265 181,-436 -108,-16 -91,-7 -141,56 -54,328 -843,257 -939,7 -2,-3 -24,-36 -33,-46 -42,-45 20,2 -46,-35 -246,161 109,431 222,484z"/>
     <path class="fil9" d="M39367 26115l-6 -75c24,-9 -8,-22 59,-19 121,5 85,173 -53,94zm136 -230c-94,27 -113,38 -160,128 -128,247 -88,654 205,507 236,-117 299,-734 -45,-635z"/>
     <path class="fil9" d="M19577 25735c-295,124 -340,750 23,588 96,-43 203,-218 223,-335 28,-163 -75,-325 -246,-253z"/>
     <path class="fil31" d="M38672 26812c-145,5 -47,76 -179,150 -67,37 -531,147 -647,-71 -27,-51 -16,-42 -23,-55 -30,-56 6,-28 -48,-65 -189,103 66,478 374,489 251,10 619,-180 523,-448z"/>
     <path class="fil19" d="M27235 25347c-70,-126 83,-170 109,-79 27,92 -34,113 -109,79zm-121 -383c17,155 62,128 88,216 22,75 -30,175 -35,264 -11,188 122,404 275,278 91,-75 149,-375 87,-520 -76,-177 -201,13 -415,-238z"/>
     <path class="fil24" d="M21262 28402c186,95 553,77 772,9 30,-32 55,-87 42,-145 -19,-87 -68,-83 -166,-84 -214,38 -278,66 -498,-6 -195,21 -150,12 -150,226z"/>
     <path class="fil18" d="M40347 32177c-9,170 -18,346 -21,516 -3,155 -13,306 -5,423l142 75 51 0c0,-378 25,-669 25,-1051l-192 37z"/>
     <path class="fil9" d="M37466 25805l110 -5c78,167 -165,191 -110,5zm277 -130c-139,-36 -271,-40 -302,126 -131,687 646,654 302,-126z"/>
     <path class="fil23" d="M38519 28133c-62,94 -47,46 -47,180 182,57 258,124 510,67 150,-34 288,-137 337,-247 5,9 16,8 21,22 44,129 -45,-47 54,43l0 -165c-221,159 -625,98 -875,100z"/>
     <path class="fil23" d="M4272 15997c4,-113 14,-178 43,-255 144,-7 187,61 239,157 4,25 -198,358 16,457 313,145 245,-566 -107,-697 -280,-105 -268,201 -191,338z"/>
     <path class="fil14" d="M23563 29778c295,-154 183,-913 -365,-943 -12,0 -40,-14 -90,21 143,146 217,153 349,345 122,179 123,334 106,577z"/>
     <path class="fil9" d="M17684 25366c80,-58 65,-57 157,-20 -13,111 44,111 -166,120 -4,0 -12,-1 -18,1 -27,455 365,551 364,-25 0,-285 -284,-321 -337,-76z"/>
     <path class="fil14" d="M21536 27976c112,43 167,31 274,-6 72,-374 -51,-403 -99,-585 -217,19 -224,446 -175,591z"/>
     <path class="fil28" d="M23776 35001c-183,34 -740,-98 -845,-191 -63,35 -56,-77 -62,101 -2,76 11,61 65,95 131,84 532,164 694,181 52,-49 123,-103 148,-186z"/>
     <path class="fil30" d="M17798 26757c265,-25 468,56 569,237 147,-65 421,-191 280,-381 -35,22 -109,252 -536,116 -279,-89 -226,-179 -246,-269 -27,-127 34,-57 -65,-100 -117,80 -53,289 -2,397z"/>
     <path class="fil14" d="M17925 31757c95,-85 382,-462 442,-591l-423 1c13,154 -12,153 -19,280 -6,97 0,211 0,310z"/>
     <path class="fil7" d="M6568 14977c-87,-268 -716,-54 -765,139 -64,255 159,-58 541,-76 134,-6 158,20 224,-63z"/>
     <path class="fil28" d="M25427 27460c-130,-157 -87,64 -287,-13 -52,-48 -90,-98 -49,-194 54,-123 139,-40 212,-45 198,-14 -69,-235 -266,-107 -109,70 -137,313 -33,428 118,132 340,74 423,-69z"/>
     <path class="fil25" d="M6865 17323c196,193 572,152 756,-30 -45,-56 -98,-68 -175,-82 -174,-32 -453,-1 -581,112z"/>
     <path class="fil28" d="M6722 16920c96,250 885,321 939,-7l-11 -23c-219,108 -522,104 -761,38 -72,-21 -168,-76 -167,-8z"/>
     <path class="fil28" d="M39685 30391c-12,-63 -223,-390 -276,-503 -41,-88 -80,-189 -110,-292 -71,-247 -17,-227 -105,-259 -76,52 -71,32 -45,158 42,207 218,548 321,732 68,122 58,193 215,164z"/>
     <path class="fil7" d="M7577 14990c96,59 247,24 368,57 165,44 174,129 316,128 11,-347 -710,-459 -684,-185z"/>
     <path class="fil16" d="M21412 28176c220,72 284,44 498,6 49,-101 23,-125 0,-223l-100 11c-107,37 -162,49 -274,6l-99 -21c-57,111 -59,94 -25,221z"/>
     <path class="fil25" d="M18367 26994c-101,-181 -304,-262 -569,-237 106,236 267,301 569,237z"/>
     <path class="fil23" d="M30271 27062c119,3 148,-35 216,-92 38,-33 60,-59 77,-107 74,-212 -61,-90 112,-150 29,53 40,90 49,179 -1,-3 -1,-13 -1,-10l3 -73c-2,-65 -1,-70 -39,-108 -122,-125 -514,105 -417,361z"/>
     <path class="fil32" d="M5936 15609c53,217 110,342 358,344 281,1 376,-224 349,-289 -73,117 -190,203 -395,175 -221,-30 -190,-147 -278,-303l-183 2c26,11 94,48 149,71z"/>
     <path class="fil23" d="M41062 26572c95,38 83,35 115,153 -35,-92 -30,-237 -192,-186 -84,26 -215,155 -247,242 -90,241 205,279 280,-94 12,-62 -4,-62 44,-115z"/>
     <path class="fil32" d="M7578 15637c-14,234 197,325 429,256 199,-60 202,-259 225,-301 37,-68 39,-22 117,-97l-166 -5c-47,415 -531,378 -605,147z"/>
     <path class="fil28" d="M36778 29929l136 0 -260 -572c-54,-88 18,-28 -75,-61l-59 33c48,220 189,401 258,600z"/>
     <path class="fil23" d="M21028 26577c-186,-28 -445,168 -392,322 36,107 225,34 292,-158 61,-175 -61,-72 111,-125l42 156c-21,-98 22,-64 -53,-195z"/>
     <path class="fil14" d="M25545 35612c4,-5 9,-13 11,-17 30,-57 53,-96 54,-320 -178,31 -304,172 -318,357l253 -20z"/>
     <path class="fil25" d="M36405 29443c83,51 100,150 146,242 41,80 85,161 109,248l118 -4c-69,-199 -210,-380 -258,-600 -81,23 -105,17 -115,114z"/>
     <path class="fil14" d="M38277 29825l344 -97c-60,-128 -105,-123 -149,-200 -139,4 -190,141 -195,297z"/>
     <path class="fil18" d="M39857 37718l247 -35 9 -301c-171,41 -230,148 -256,336z"/>
     <path class="fil18" d="M38007 37718l236 -34 15 -157 -3 -50 -8 -99c-136,32 -232,169 -240,340z"/>
     <path class="fil24" d="M11162 28924c-100,-199 -84,-311 7,-504 -105,-3 -108,-5 -143,85 -19,46 -35,116 -35,176 1,202 53,256 171,243z"/>
     <path class="fil28" d="M38688 31207c-134,19 -127,-13 -164,-41l-34 -28c34,145 122,171 256,105 127,71 228,89 276,-76 -131,85 -231,122 -185,-88l-140 -17 -9 145z"/>
     <path class="fil28" d="M23798 34731c46,-226 -165,-428 -407,-380 96,7 190,78 234,140 78,110 40,221 173,240z"/>
     <path class="fil28" d="M24550 35296c81,-165 -166,-389 -374,-377 74,64 145,74 207,158 82,114 35,206 167,219z"/>
     <path class="fil28" d="M27235 25347c75,34 136,13 109,-79 -26,-91 -179,-47 -109,79z"/>
     <path class="fil28" d="M37466 25805c-55,186 188,162 110,-5l-110 5z"/>
     <path class="fil28" d="M38938 30906c120,28 163,-112 7,-136 -21,32 -23,-33 -30,57 -8,111 13,62 23,79z"/>
     <path class="fil28" d="M38537 30885c132,22 158,-160 -5,-124 -15,41 -22,10 -16,64 4,42 11,42 21,60z"/>
     <path class="fil28" d="M29056 25840c-16,175 125,160 125,-4l-125 4z"/>
     <path class="fil28" d="M39367 26115c138,79 174,-89 53,-94 -67,-3 -35,10 -59,19l6 75z"/>
    </g>
   </g>
  </g>
  <path class="fil2" d="M3537 0l23262 0c1945,0 3536,1592 3536,3537l0 29276c0,1946 -1591,3537 -3536,3537l-23262 0c-1945,0 -3537,-1591 -3537,-3537l0 -29276c0,-1945 1592,-3537 3537,-3537z"/>
  <path class="fil33" d="M8550 5687c-147,0 -286,-27 -419,-80 -133,-53 -242,-128 -327,-225l212 -276c153,153 331,230 534,230 119,0 211,-26 279,-77 68,-52 102,-116 102,-194 0,-25 -3,-48 -10,-69 -7,-22 -20,-41 -38,-58 -18,-18 -34,-32 -46,-42 -13,-11 -37,-24 -72,-38 -34,-15 -60,-25 -75,-31 -16,-5 -46,-16 -92,-30 -45,-15 -76,-25 -91,-31 -91,-31 -168,-61 -231,-91 -63,-30 -126,-69 -190,-116 -64,-48 -112,-106 -145,-174 -33,-69 -50,-148 -50,-237 0,-190 69,-338 207,-444 137,-107 315,-160 534,-160 240,0 455,64 644,192l-171 293c-157,-99 -311,-148 -462,-148 -102,0 -185,22 -249,65 -64,44 -96,104 -96,182 0,29 4,55 11,78 8,23 25,45 50,65 25,21 45,37 61,50 15,12 45,27 90,45 44,17 75,29 91,35 17,5 54,18 112,37 95,31 174,61 237,90 63,29 128,67 194,114 67,46 117,104 150,172 33,69 49,148 49,237 0,184 -74,336 -223,456 -149,120 -339,180 -570,180z"/>
  <path id="1" class="fil33" d="M11067 5687c-289,0 -526,-93 -713,-279 -187,-186 -280,-445 -280,-778 0,-331 95,-595 287,-791 192,-197 439,-295 741,-295 180,0 341,39 483,118 142,78 254,187 335,326l-307 206c-119,-193 -285,-290 -500,-290 -188,0 -337,63 -448,187 -112,125 -167,300 -167,524 0,223 56,395 168,517 112,122 256,183 430,183 224,0 421,-97 589,-293l259 253c-235,274 -527,412 -877,412z"/>
  <polygon id="2" class="fil33" points="12781,5655 12781,3582 13200,3582 13200,4435 14071,4435 14071,3582 14489,3582 14489,5655 14071,5655 14071,4804 13200,4804 13200,5655 "/>
  <path id="3" class="fil33" d="M16384 5687c-308,0 -556,-97 -744,-290 -188,-194 -281,-451 -281,-770 0,-325 94,-587 283,-785 188,-199 438,-298 747,-298 308,0 556,99 744,296 187,198 281,458 281,781 0,322 -94,580 -283,774 -189,195 -438,292 -747,292zm5 -366c186,0 333,-61 440,-184 108,-123 161,-296 161,-519 0,-226 -53,-401 -161,-524 -107,-123 -254,-184 -440,-184 -187,0 -336,61 -444,184 -108,123 -162,298 -162,524 0,225 54,398 162,520 108,122 257,183 444,183z"/>
  <path id="4" class="fil33" d="M19199 5687c-308,0 -556,-97 -744,-290 -187,-194 -281,-451 -281,-770 0,-325 94,-587 283,-785 189,-199 438,-298 747,-298 308,0 556,99 744,296 188,198 281,458 281,781 0,322 -94,580 -283,774 -188,195 -438,292 -747,292zm5 -366c186,0 333,-61 440,-184 108,-123 162,-296 162,-519 0,-226 -54,-401 -162,-524 -107,-123 -254,-184 -440,-184 -187,0 -335,61 -444,184 -108,123 -162,298 -162,524 0,225 54,398 162,520 109,122 257,183 444,183z"/>
  <path id="5" class="fil33" d="M21268 5655c-49,0 -89,-16 -121,-48 -32,-32 -48,-72 -48,-120l0 -1905 416 0 0 1724 920 0 0 349 -1167 0z"/>
  <path id="6" class="fil33" d="M6378 8354l-450 -778 -215 0 0 778 -404 0 0 -1905c0,-48 17,-88 49,-120 33,-32 74,-48 122,-48l625 0c224,0 397,59 518,177 121,118 181,276 181,473 0,323 -152,526 -455,607l505 816 -476 0zm-665 -1725l0 613 334 0c224,0 336,-105 336,-314 0,-93 -28,-166 -84,-219 -56,-53 -138,-80 -247,-80l-339 0z"/>
  <path id="7" class="fil33" d="M9071 6632l-955 0 0 491 859 0 0 351 -859 0 0 526 929 0 0 354 -1348 0 0 -1905c0,-50 18,-91 53,-122 35,-31 76,-46 125,-46l1196 0 0 351z"/>
  <path id="8" class="fil33" d="M11253 8354l-174 -514 -758 0 -174 514 -433 0 703 -1919c41,-111 134,-166 282,-166 149,0 243,56 284,168l703 1917 -433 0zm-813 -865l520 0 -261 -770 -259 770z"/>
  <path id="9" class="fil33" d="M12448 8354l0 -1905c0,-50 18,-91 52,-122 35,-31 78,-46 128,-46l613 0c205,0 385,47 540,142 155,95 271,220 348,374 78,155 116,326 116,512 0,292 -90,539 -270,741 -180,203 -425,304 -737,304l-790 0zm418 -349l343 0c186,0 336,-65 450,-196 114,-130 171,-297 171,-500 0,-190 -54,-351 -164,-482 -109,-132 -257,-198 -443,-198l-357 0 0 1376z"/>
  <polygon id="10" class="fil33" points="15054,8354 15054,6281 15472,6281 15472,8354 "/>
  <path id="11" class="fil33" d="M17838 6281l380 0 0 1960c0,40 -20,73 -60,97 -39,24 -89,36 -149,36 -66,0 -117,-9 -153,-26 -35,-17 -69,-47 -100,-90l-917 -1298 0 1394 -386 0 0 -1919c0,-57 20,-98 61,-125 40,-27 93,-41 159,-41 78,0 134,12 170,35 36,23 78,70 126,139l869 1214 0 -1376z"/>
  <path id="12" class="fil33" d="M20577 6632l-955 0 0 491 860 0 0 351 -860 0 0 526 929 0 0 354 -1347 0 0 -1905c0,-50 17,-91 52,-122 35,-31 77,-46 125,-46l1196 0 0 351z"/>
  <path id="13" class="fil33" d="M22045 8386c-147,0 -287,-27 -419,-80 -133,-53 -242,-128 -327,-225l212 -276c153,153 331,229 534,229 118,0 211,-25 279,-77 68,-51 102,-115 102,-193 0,-25 -4,-48 -10,-69 -7,-22 -20,-41 -38,-58 -19,-18 -34,-32 -47,-43 -12,-10 -36,-23 -71,-37 -35,-15 -60,-25 -75,-31 -16,-6 -46,-16 -92,-30 -45,-15 -76,-25 -91,-31 -91,-31 -168,-61 -231,-91 -63,-30 -126,-69 -190,-116 -64,-48 -113,-106 -145,-175 -33,-68 -50,-147 -50,-236 0,-190 69,-338 206,-444 138,-107 316,-160 535,-160 240,0 454,64 644,192l-171 293c-157,-99 -311,-148 -462,-148 -102,0 -186,21 -250,65 -63,44 -95,104 -95,182 0,29 4,55 11,78 8,23 24,45 50,65 25,21 45,37 61,50 15,12 45,27 90,45 44,17 75,29 91,34 17,6 54,19 112,38 95,31 174,61 236,90 63,29 128,67 195,114 67,46 117,104 150,172 33,69 49,148 49,237 0,184 -75,336 -224,456 -149,120 -338,180 -569,180z"/>
  <path id="14" class="fil33" d="M24259 8386c-147,0 -287,-27 -419,-80 -133,-53 -242,-128 -327,-225l212 -276c153,153 331,229 534,229 119,0 211,-25 279,-77 68,-51 102,-115 102,-193 0,-25 -4,-48 -10,-69 -7,-22 -20,-41 -38,-58 -18,-18 -34,-32 -47,-43 -12,-10 -36,-23 -71,-37 -34,-15 -60,-25 -75,-31 -16,-6 -46,-16 -92,-30 -45,-15 -76,-25 -91,-31 -91,-31 -168,-61 -231,-91 -63,-30 -126,-69 -190,-116 -64,-48 -112,-106 -145,-175 -33,-68 -50,-147 -50,-236 0,-190 69,-338 207,-444 137,-107 315,-160 534,-160 240,0 455,64 644,192l-171 293c-157,-99 -311,-148 -462,-148 -102,0 -185,21 -249,65 -64,44 -96,104 -96,182 0,29 4,55 11,78 8,23 25,45 50,65 25,21 45,37 61,50 15,12 45,27 90,45 44,17 75,29 91,34 17,6 54,19 112,38 95,31 174,61 237,90 63,29 127,67 194,114 67,46 117,104 150,172 33,69 49,148 49,237 0,184 -74,336 -223,456 -150,120 -339,180 -570,180z"/>
  <path id="15" class="fil33" d="M7249 8980c230,0 407,64 530,193 123,128 184,291 184,489 0,221 -64,389 -192,507 -127,117 -311,175 -551,175l-351 0 0 709 -419 0 0 -1905c0,-48 17,-89 50,-121 33,-31 73,-47 122,-47l627 0zm-44 1019c225,0 337,-114 337,-340 0,-105 -29,-186 -88,-244 -59,-58 -143,-87 -252,-87l-333 0 0 671 336 0z"/>
  <path id="16" class="fil33" d="M9788 11053l-450 -778 -215 0 0 778 -403 0 0 -1905c0,-48 16,-89 49,-121 33,-31 74,-47 122,-47l624 0c225,0 398,59 519,177 121,118 181,276 181,473 0,323 -152,525 -456,607l505 816 -476 0zm-665 -1725l0 613 334 0c225,0 337,-105 337,-314 0,-93 -28,-166 -84,-219 -56,-53 -139,-80 -247,-80l-340 0z"/>
  <path id="17" class="fil33" d="M12005 11085c-307,0 -555,-97 -743,-291 -188,-193 -282,-450 -282,-769 0,-325 95,-587 283,-786 189,-198 438,-297 748,-297 308,0 556,99 744,296 187,197 281,458 281,781 0,321 -94,579 -283,774 -189,194 -438,292 -748,292zm6 -366c186,0 333,-62 440,-185 108,-122 161,-295 161,-518 0,-226 -53,-401 -161,-524 -107,-123 -254,-184 -440,-184 -188,0 -336,61 -444,184 -108,123 -163,298 -163,524 0,225 55,398 163,520 108,122 256,183 444,183z"/>
  <path id="18" class="fil33" d="M14815 11085c-316,0 -565,-95 -746,-285 -182,-190 -273,-446 -273,-769 0,-333 96,-598 290,-794 194,-197 450,-295 769,-295 209,0 388,44 536,133 148,89 256,207 324,352l-334 177c-101,-203 -278,-305 -531,-305 -192,0 -345,64 -459,193 -114,129 -171,304 -171,527 0,221 53,393 159,518 107,125 253,188 439,188 166,0 303,-47 410,-141 108,-94 164,-213 167,-356l-525 0 0 -328 938 0 0 229c0,283 -93,513 -279,690 -186,177 -424,266 -714,266z"/>
  <path id="19" class="fil33" d="M17735 11053l-451 -778 -214 0 0 778 -404 0 0 -1905c0,-48 16,-89 49,-121 33,-31 74,-47 122,-47l625 0c224,0 397,59 518,177 121,118 181,276 181,473 0,323 -152,525 -455,607l505 816 -476 0zm-665 -1725l0 613 334 0c224,0 336,-105 336,-314 0,-93 -28,-166 -84,-219 -56,-53 -138,-80 -247,-80l-339 0z"/>
  <path id="20" class="fil33" d="M20402 11053l-175 -514 -757 0 -175 514 -432 0 702 -1920c41,-110 135,-165 282,-165 149,0 244,56 285,168l702 1917 -432 0zm-813 -866l519 0 -261 -769 -258 769z"/>
  <path id="21" class="fil33" d="M23548 8968c64,0 116,13 158,39 42,26 62,65 62,118l0 1928 -406 0 0 -1339 -491 947 -374 0 -494 -947 0 1339 -406 0 0 -1925c0,-53 21,-92 64,-119 42,-28 95,-41 159,-41 78,0 133,13 167,39 34,26 71,77 112,153l587 1120 586 -1120c39,-76 75,-127 109,-153 34,-26 89,-39 167,-39z"/>
 </g>
</svg>
