<?xml version="1.0" encoding="UTF-8"?>
<!DOCTYPE svg PUBLIC "-//W3C//DTD SVG 1.1//EN" "http://www.w3.org/Graphics/SVG/1.1/DTD/svg11.dtd">
<!-- Creator: CorelDRAW X7 -->
<svg xmlns="http://www.w3.org/2000/svg" xml:space="preserve" width="1.90327in" height="1.6869in" version="1.1" style="shape-rendering:geometricPrecision; text-rendering:geometricPrecision; image-rendering:optimizeQuality; fill-rule:evenodd; clip-rule:evenodd"
viewBox="0 0 16628 14738"
 xmlns:xlink="http://www.w3.org/1999/xlink">
 <defs>
  <style type="text/css">
   <![CDATA[
    .fil33 {fill:none}
    .fil32 {fill:#28180F}
    .fil22 {fill:#2E8986}
    .fil19 {fill:#33352F}
    .fil15 {fill:#387EB2}
    .fil13 {fill:#41AFAF}
    .fil9 {fill:#5A4A3E}
    .fil18 {fill:#65BA95}
    .fil30 {fill:#69110A}
    .fil5 {fill:#6AD1D5}
    .fil10 {fill:#788E1A}
    .fil17 {fill:#7A6C63}
    .fil11 {fill:#915B36}
    .fil4 {fill:#94E4C4}
    .fil31 {fill:#972415}
    .fil8 {fill:#99BD34}
    .fil27 {fill:#A9D6E7}
    .fil21 {fill:#AFD658}
    .fil29 {fill:#B94832}
    .fil7 {fill:#BC7646}
    .fil25 {fill:#CC2417}
    .fil3 {fill:#D9EDEB}
    .fil26 {fill:#DCAAE7}
    .fil14 {fill:#EB492E}
    .fil23 {fill:#EE8E4D}
    .fil12 {fill:#F77A26}
    .fil6 {fill:#F7BA6D}
    .fil20 {fill:#FBF2CB}
    .fil16 {fill:#FFA91D}
    .fil24 {fill:#FFE357}
    .fil28 {fill:white}
    .fil0 {fill:url(#id1)}
    .fil2 {fill:url(#id2)}
    .fil1 {fill:url(#id3)}
   ]]>
  </style>
   <clipPath id="id0">
    <path d="M1939 0l12750 0c1067,0 1939,873 1939,1939l0 10860c0,1066 -872,1939 -1939,1939l-12750 0c-1067,0 -1939,-873 -1939,-1939l0 -10860c0,-1067 872,-1939 1939,-1939z"/>
   </clipPath>
  <linearGradient id="id1" gradientUnits="userSpaceOnUse" x1="3810.19" y1="12766.8" x2="12817.9" y2="1971">
   <stop offset="0" style="stop-opacity:1; stop-color:#E6E6E6"/>
   <stop offset="1" style="stop-opacity:1; stop-color:#F7F7F7"/>
  </linearGradient>
  <linearGradient id="id2" gradientUnits="userSpaceOnUse" x1="6828.68" y1="19644" x2="16943.1" y2="4714.74">
   <stop offset="0" style="stop-opacity:1; stop-color:#6200D1"/>
   <stop offset="1" style="stop-opacity:1; stop-color:#FF2EBD"/>
  </linearGradient>
  <linearGradient id="id3" gradientUnits="userSpaceOnUse" x1="4924.69" y1="19762.3" x2="12955.8" y2="6536.42">
   <stop offset="0" style="stop-opacity:1; stop-color:#B0B0B0"/>
   <stop offset="1" style="stop-opacity:1; stop-color:#EDEDED"/>
  </linearGradient>
 </defs>
 <g id="Layer_x0020_1">
  <metadata id="CorelCorpID_0Corel-Layer"/>
  <path class="fil0" d="M1939 0l12750 0c1067,0 1939,873 1939,1939l0 10860c0,1066 -872,1939 -1939,1939l-12750 0c-1067,0 -1939,-873 -1939,-1939l0 -10860c0,-1067 872,-1939 1939,-1939z"/>
  <g style="clip-path:url(#id0)">
   <g id="_2565220177312">
    <circle class="fil1" cx="8940" cy="13149" r="9710"/>
    <path class="fil2" d="M11886 986c3091,0 5889,1253 7915,3278 2026,2026 3279,4824 3279,7915 0,3091 -1253,5890 -3279,7916 -2026,2025 -4824,3278 -7915,3278 -3091,0 -5890,-1253 -7915,-3278 -2026,-2026 -3279,-4825 -3279,-7916 0,-3091 1253,-5889 3279,-7915 2025,-2025 4824,-3278 7915,-3278zm7851 3343c-2009,-2010 -4785,-3252 -7851,-3252 -3066,0 -5842,1242 -7851,3252 -2009,2009 -3252,4784 -3252,7850 0,3066 1243,5842 3252,7851 2009,2009 4785,3252 7851,3252 3066,0 5842,-1243 7851,-3252 2009,-2009 3252,-4785 3252,-7851 0,-3066 -1243,-5841 -3252,-7850z"/>
    <g>
     <path class="fil3" d="M21847 15487c14,-103 47,-161 141,-183l-5 165 -136 18zm-1014 1c5,-94 57,-169 132,-187l4 54 2 28 -8 86 -130 19zm530 -216c71,67 13,94 118,109 -24,-143 -112,-142 -152,-191 242,-7 202,141 301,145 24,-144 -224,-152 -246,-178 -55,-65 57,-162 277,-73 77,31 97,68 120,148 84,4 120,-22 196,14 -3,101 -80,-16 -154,245 -216,2 -369,36 -475,36 -91,0 -266,-40 -325,-32 -9,-125 23,-212 166,-261 66,-23 124,-9 174,38zm-1015 4c51,49 33,96 99,102 42,-80 -80,-151 -139,-171 115,-85 241,121 301,130 15,-71 -67,-130 -130,-150 -39,-12 -45,-7 -74,-12 -55,-8 -20,24 -46,-20 -42,-70 66,-156 279,-73 96,37 103,93 124,150 82,4 122,-20 199,14 2,111 -67,-39 -157,246 -162,2 -261,23 -412,33 -153,10 -259,-28 -391,-35 -2,-93 -2,-135 54,-185 88,-80 202,-117 293,-29zm-8755 -343c39,194 75,387 107,583 39,249 -63,368 -319,348 -210,-17 -269,-173 -325,-361 -51,-169 -87,-390 -115,-568l-406 0 -478 -3c-55,269 -78,733 -371,759 -454,38 -258,-456 -228,-744l-83 2c3,85 -82,461 -109,556 -52,181 -117,338 -314,358 -512,50 -307,-434 -230,-901l-303 0c-134,-11 -299,-3 -437,-3 -65,0 -154,-5 -216,2 -60,7 -150,7 -220,17 -24,36 -22,544 -6,615 186,9 851,4 962,90 -10,15 -4,22 -60,36 -20,5 -49,9 -69,12 -304,44 -870,52 -1169,52 -229,0 -457,-5 -682,-14 -78,-4 -548,-13 -597,-86 103,-79 787,-88 960,-88 24,-81 9,-486 9,-600l-236 7c-204,-13 -358,7 -532,12 -90,3 -184,-3 -274,-1 -98,3 -96,14 -271,14 -33,20 -75,14 -118,14 5,148 1,302 -147,378 -95,48 -82,5 -103,56 23,91 37,141 3,225 -182,55 -490,16 -687,-1 -116,99 -651,78 -839,57 -176,-19 -228,-51 -202,-242 19,-134 41,-259 63,-391l-1084 68c-36,19 -74,11 -125,11 -47,138 -135,240 -311,252 -193,14 -321,-45 -366,-185l-72 1 -45 3 -89 15c-58,190 -147,349 -347,380 -249,38 -435,-26 -480,-242l-49 -7c-61,9 -111,28 -162,47 -140,52 -150,130 -10,184 48,19 97,35 144,47 270,69 753,121 1036,152 169,19 1302,122 1463,121 110,-1 265,18 369,26 207,17 536,16 753,40 59,7 128,0 189,2 156,4 389,28 573,27l383 14c82,0 99,13 176,14 68,1 138,-2 206,-1 78,1 95,15 177,15 315,0 659,27 956,27 270,-1 501,15 778,13l382 14c115,0 286,-10 394,2 233,26 525,11 781,11 82,0 99,14 176,15l997 -1c140,0 236,14 382,14l3154 0c146,0 247,-14 382,-14l984 1c87,0 111,-14 190,-15 223,-3 584,23 784,-7 122,-19 422,-3 582,-5 79,-1 103,-15 190,-15 277,1 511,-13 779,-13l956 -27c87,0 111,-14 190,-15 63,-1 128,1 192,1 87,0 111,-13 190,-14 64,-1 129,1 192,1 79,-1 103,-15 191,-15l2253 -122c467,-23 1890,-142 2274,-293 73,-28 83,-29 115,-90 -42,-78 -110,-93 -227,-128 -235,-70 -957,-162 -1235,-185 -102,-8 -767,-58 -811,-77 -50,-22 -50,-55 -130,-60l-109 11c-65,-161 -266,-160 -437,-124 -48,43 -41,57 -41,140 -47,-1 -53,-10 -96,-13 -35,-3 -74,0 -109,0 -81,-1 -123,-15 -218,-14l-109 19c-60,-77 -42,-108 -170,-138 -96,-22 -203,-18 -281,14 -28,32 -29,27 -41,77 -84,0 -106,-12 -177,-14l-560 -9 -97 0c0,110 -14,453 8,536 197,0 849,3 961,88 -21,31 -3,21 -59,36 -295,78 -2416,110 -2519,-36 106,-84 779,-82 962,-90 20,-79 9,-456 7,-564 -60,5 -161,19 -202,-15l-289 -14c-100,-2 -203,4 -302,1 -101,-3 -112,-15 -286,-15 -100,0 -200,0 -300,1l-34 13c11,227 -109,330 -336,301 -144,-18 -205,-131 -242,-250 -23,-73 -10,-78 -84,-76 75,306 57,531 -301,510 -260,-16 -350,-311 -379,-529 -72,10 -224,27 -274,-11l-466 1 -357 -2c-34,184 -114,350 -312,361 -259,14 -306,-135 -293,-373l-76 6c-25,23 -89,283 -122,350 -57,113 -111,186 -273,197 -454,29 -331,-334 -299,-549 -143,-3 -952,27 -1008,-18l-365 0c12,289 244,796 -212,773 -179,-8 -236,-133 -284,-284 -45,-142 -75,-308 -98,-462 -17,-11 19,-14 -49,-12z"/>
     <path class="fil4" d="M1907 5307c-31,21 -60,27 -100,46 -39,19 -61,31 -100,50l-615 296c30,65 74,123 111,200 34,71 61,134 86,215 44,142 108,340 96,500 54,-1 579,-131 618,-150 0,305 -1,610 0,915 1,456 -377,1075 -583,1480l-164 300c-28,51 -67,93 -72,160 60,31 116,68 177,92 91,26 179,71 283,94 31,6 59,12 89,19 11,2 32,6 42,9 41,13 5,-4 43,17l388 23 293 1 739 -39 71 -590c14,12 11,7 24,25 5,7 18,27 22,35l98 188c50,91 98,178 137,258 91,-19 246,-152 352,-191 26,-13 43,-28 81,-37 0,-80 -23,-127 -42,-190 -18,-56 -30,-120 -43,-189 -75,-386 -98,-878 3,-1274 92,-359 126,-253 407,-535 206,-208 143,-428 30,-680 59,1 294,166 369,191 47,-98 230,-227 310,-346 105,-156 138,-290 213,-460l-878 -456c-98,-19 -165,-83 -257,-120 -73,-29 -212,-57 -298,-73l-136 751c-39,-28 -97,-126 -128,-171 -32,-47 -77,-140 -127,-167 -20,77 -117,361 -146,397 -77,-44 -131,-118 -199,-180 -187,-165 -425,-421 -468,-679 -134,25 -272,53 -391,104 -58,25 -98,56 -161,85 -61,29 -113,53 -174,76z"/>
     <path class="fil5" d="M8498 11217c-94,49 -2525,-16 -2889,8l-80 21c-196,72 -185,224 -178,454l13 18c6,9 11,16 17,26 18,31 12,21 23,45 52,33 67,70 151,93 67,19 155,13 229,13 163,0 329,-3 492,1l20 4 3540 -3 232 -1 671 0 916 -1 2129 1 269 -2 890 2 1017 -1 593 2 255 3 3557 -6c59,-15 78,-24 117,-54 20,-15 27,-22 43,-39l46 -51c23,-113 46,-164 22,-299l-35 -82c-62,-123 -164,-132 -324,-151l-74 0 -65 2 -741 0 -436 -5 -601 7 -300 0 -519 0 -369 1 -435 1c-25,16 -740,0 -875,0 -152,-1 -275,20 -437,20l-342 -3c-112,-6 -81,1 -93,-26l-603 8 -654 1 -288 -1 -573 -13 -120 23 -153 -13 -96 1 -1187 1 -122 0 -735 -3 -550 3 -177 -12c-59,21 -379,21 -437,0l-754 7z"/>
     <path class="fil6" d="M4404 11189l-27 104c-40,102 -77,275 -105,392 -25,105 -59,336 -97,411l-11 72c-44,274 -395,2205 -455,2285 -15,69 -37,144 -51,209 -9,41 -10,62 -21,103 -12,48 -29,55 -13,112 -29,131 -79,386 -57,513 126,73 659,66 782,6l4 -123c15,17 17,24 36,44l59 43c75,-9 222,25 312,31 60,3 119,6 179,4 64,-3 102,-4 128,-43 23,-130 -61,-324 -99,-437 -81,-245 -73,-245 13,-420l367 -709 700 -1404c31,-61 216,-427 228,-486 -163,-4 -329,-1 -492,-1 -74,0 -162,6 -229,-13 -84,-23 -99,-60 -151,-93 -158,378 -287,736 -451,1111 -83,188 -130,352 -192,582 -28,101 -141,555 -178,605l-6 25c-17,41 -50,188 -70,252 -66,205 -180,579 -197,773 -44,-32 -26,-4 -58,-94 -125,-358 -159,-246 -5,-626 47,-118 233,-597 281,-660 12,-19 9,-13 12,-41 52,-169 134,-341 203,-507l408 -1002c65,-172 133,-336 200,-507 -7,-230 -18,-382 178,-454 47,-192 218,-499 113,-705 -90,-177 -231,-399 -499,-389 -429,17 -585,668 -739,1037z"/>
     <path class="fil7" d="M1525 4645c73,-29 151,-113 230,-136 123,-36 10,81 266,-48 113,-57 414,-217 551,-190 15,134 -377,264 -475,349 134,143 30,112 50,199 11,48 45,38 26,108 -10,38 -46,63 -62,100 -35,81 -8,205 -244,204 -63,-1 -108,-21 -164,17 74,0 114,-12 173,32 3,2 6,4 8,6 18,14 10,6 23,21 61,-23 113,-47 174,-76 63,-29 103,-60 161,-85 119,-51 257,-79 391,-104l238 -148c24,-96 50,-347 54,-455l4 -49c-22,-37 -49,-63 -76,-101 -95,-137 -127,-215 -196,-320 -242,14 -344,-167 -399,-368 -86,-307 72,-428 344,-290 62,32 60,45 122,10 41,-24 75,-50 113,-79 299,-228 304,-497 253,-828 56,28 163,124 314,204 109,59 232,111 354,150 295,95 540,110 860,138 27,129 6,558 -9,702 -22,207 -69,412 -129,595 -63,192 -161,338 -271,453 -176,183 -266,141 -566,112 -68,7 -28,-14 -40,30l8 146 16 20c48,22 171,98 210,127 86,16 225,44 298,73 92,37 159,101 257,120 103,-23 172,-44 230,-106 91,-99 10,-177 -25,-230 434,0 243,-226 270,-287 -66,-64 -275,-208 -276,-288 -3,-118 303,100 333,115 -9,-43 -21,-49 -41,-86 58,-28 88,-7 124,-68 21,-36 34,-99 26,-163 -13,-107 -77,-183 -191,-193 32,-59 28,-48 28,-136 -40,-27 -40,-28 -96,-41 67,-289 -81,-140 -40,-326 48,-224 31,-532 51,-578 17,-40 43,-62 54,-111 53,-242 -69,-610 -259,-799l-106 -71c32,76 121,111 116,218 -11,218 -617,164 -799,159 -201,-6 -401,-28 -589,-54 -259,-35 -276,-65 -445,-183 162,-1 334,19 488,28 162,9 342,6 505,3 126,-1 381,-12 441,-86 101,-123 -104,-269 -175,-268 125,20 275,94 390,141 -18,-39 -4,-31 -82,-68 -498,-234 -1059,-321 -1592,-171l-224 76c35,-149 106,-98 164,-177 -69,1 -146,24 -186,73 -60,73 -59,111 -111,163 -40,40 -53,59 -89,102 -177,214 -261,500 -314,778 -12,63 -37,259 -35,330 3,94 24,233 47,321 11,46 38,102 26,137 -20,56 -58,30 -34,131 -106,-25 -149,0 -123,109 -79,0 -126,22 -157,76 -47,84 -2,103 34,156 -44,30 -76,68 -83,137 -9,108 18,108 56,164 -160,13 -62,147 -41,177 -104,55 -137,101 -137,257z"/>
     <path class="fil8" d="M11707 13196l-1 54c-353,53 -876,45 -1253,38 -437,-9 -475,-22 -828,-134 -43,-13 -217,-26 -277,-36 -27,14 -189,25 -239,32 -94,15 -144,25 -212,61l5 610c12,52 28,12 22,98 -4,50 -30,148 -42,206 -27,135 -54,271 -82,410 -26,132 -50,279 -80,410 -50,0 -101,1 -151,0 -46,0 -113,-11 -150,17l303 0c-77,467 -282,951 230,901 197,-20 262,-177 314,-358 27,-95 112,-471 109,-556l0 -17c37,-52 25,-45 35,-115l129 -869 68 -13c88,13 500,43 601,28 62,-9 149,-39 204,13 112,0 269,25 369,-14 137,27 462,-15 628,-12l17 -2 161 -17c60,-4 107,-10 164,-15 98,-10 214,-26 300,-63 0,0 39,53 42,-95l-5 -451c-47,-54 -87,-18 -132,-122 -45,-103 32,-131 -28,-206 -11,4 -65,-18 -55,123 4,52 15,75 35,109 -227,-253 13,-276 -158,-312 -26,115 13,269 89,292l-132 5z"/>
     <path class="fil6" d="M21100 9591c72,-40 18,-79 98,-82 52,147 -149,251 -287,246 -169,-6 -308,-211 -205,-268 30,20 10,5 26,36 4,7 -2,2 13,30 64,119 318,59 355,38zm1408 -213c-26,29 -18,29 -24,63 -41,205 -203,183 -154,52 18,-48 90,-119 136,-133 89,-28 86,52 105,102 -18,-65 -11,-63 -63,-84zm-854 -377c188,-54 153,284 24,349 -161,80 -183,-143 -112,-278 25,-50 36,-56 88,-71zm-965 -115c188,428 -238,446 -166,69 17,-91 89,-89 166,-69zm-303 23c-42,188 29,269 -62,451 -97,194 -47,266 -14,409 -133,31 -181,158 -288,190 -100,29 -118,69 -174,194 -31,69 -290,403 -369,602l-43 80 -13 27c-5,58 -30,100 -44,161 -16,64 -25,109 -25,197l741 0c-13,-47 -37,-92 -60,-136 -25,-50 -34,-105 -80,-132l-41 7c0,-139 186,-521 241,-553l182 -90c0,-31 -5,-91 -4,-113 3,-78 44,-47 -23,-119 -77,-85 35,-47 -96,-110 38,-56 92,-87 110,-164l160 168c41,40 149,119 208,133 -13,159 -209,13 -259,0 20,30 81,83 119,100 64,29 113,10 168,-18 -12,48 -25,91 -67,112 -68,36 -89,-6 -125,-30 37,136 194,105 301,-96 34,1 252,44 285,55 137,-1 358,32 479,-55 39,4 -11,7 30,-1 79,-14 205,-99 265,-122 18,-29 137,-133 174,-174l146 -191c28,22 58,52 109,65 41,18 113,-8 160,-32 51,-26 93,-64 125,-106 32,-44 57,-82 75,-144 29,-99 19,-98 8,-187 -36,-33 -60,-65 -108,-68 -77,-7 -71,-6 -137,23l-10 -21c-1,-4 -3,-8 -5,-12l-13 -34c-20,78 -69,148 -126,164 -35,-515 -141,-527 -154,-640l50 199c-44,-51 -75,-107 -122,-155 -111,-115 -309,-324 -459,-372 50,62 192,202 197,315 -161,-16 -335,-18 -481,-75 -131,-52 -263,-148 -375,-184 79,234 534,315 601,293 -324,50 -566,-11 -809,-180 -130,-90 -182,-223 -200,-389 -38,40 -49,113 -52,170 -7,93 33,229 86,303 22,31 19,19 39,57 13,26 10,30 29,59 -228,-160 -206,-337 -189,-529 -71,149 -41,383 29,479 22,29 62,76 88,89 -12,-2 -41,-8 -49,-7 -43,5 -11,-16 -40,17 27,-42 -16,-48 -46,-81 -30,-33 -26,-41 -69,-73l26 274z"/>
     <path class="fil7" d="M20386 8909l-26 -274c43,32 39,40 69,73 30,33 73,39 46,81 29,-33 -3,-12 40,-17 8,-1 37,5 49,7 -26,-13 -66,-60 -88,-89 -70,-96 -100,-330 -29,-479 -17,192 -39,369 189,529 -19,-29 -16,-33 -29,-59 -20,-38 -17,-26 -39,-57 -53,-74 -93,-210 -86,-303 3,-57 14,-130 52,-170 18,166 70,299 200,389 243,169 485,230 809,180 -67,22 -522,-59 -601,-293 112,36 244,132 375,184 146,57 320,59 481,75 -5,-113 -147,-253 -197,-315 150,48 348,257 459,372 47,48 78,104 122,155l-50 -199c13,113 119,125 154,640 57,-16 106,-86 126,-164l13 34c2,4 4,8 5,12l10 21c66,-29 60,-30 137,-23l-51 -37c74,-149 0,-404 -16,-557 63,107 63,291 105,366 31,-488 -207,-598 -268,-785 97,105 190,175 252,350 29,80 43,173 44,271 1,111 -24,205 -16,306 3,-2 7,-10 8,-8 19,34 123,-300 136,-407 38,-312 -31,-608 -211,-857 -78,-107 -155,-202 -271,-263 -56,-18 -145,-38 -195,-64l-168 -78c-377,-132 -715,-81 -959,-5 -28,9 -56,16 -92,29 -60,24 -132,65 -183,77 -97,-65 -86,-107 -236,-158 -4,-1 -7,-2 -10,-3 -73,-24 -142,-33 -220,-19 -206,36 -319,122 -410,272 -175,287 -25,905 385,809 16,34 20,73 33,117 18,66 86,258 129,310 19,24 -4,2 23,24z"/>
     <path class="fil9" d="M17307 7925l0 0zm-2512 328c19,-68 114,-114 211,-127 83,-10 356,48 432,73 45,14 58,37 115,62 82,34 174,66 274,67 -172,7 -230,-52 -371,-80 44,82 165,134 268,170 144,51 231,55 385,24 -34,46 -71,59 -143,68 -69,8 -137,3 -207,0 3,2 7,2 9,7 2,5 7,5 9,6l73 27c174,32 403,-22 536,-125 28,-22 46,-38 69,-68l60 -83c52,129 35,321 123,436 53,-91 22,-223 19,-316 8,96 34,149 32,283 -2,105 -12,209 -8,313 44,-79 75,-180 98,-282 37,-165 14,-196 -4,-345 178,260 -139,645 9,890 41,67 113,130 199,156l0 73 11 -54c94,22 164,26 190,-68 -190,0 -102,-200 -14,-315 85,-111 149,-178 214,-318 83,-177 113,-457 32,-638 -47,-104 -71,-106 -109,-164 39,11 53,33 95,55 -7,-93 -167,-176 -232,-191 6,-67 33,-150 0,-219 -32,13 -47,28 -54,123l-28 0c-46,-172 -429,-382 -591,-473 -93,-53 -150,-73 -260,-109 -527,-173 -873,163 -960,191 -100,32 -105,-48 -127,36 42,20 50,14 109,14l-35 19c-12,5 -27,11 -39,16 -37,15 -47,18 -76,33 -209,103 -463,295 -452,561 2,63 20,61 20,92 1,30 -24,56 -19,208 2,87 25,122 41,191 2,-3 4,-11 5,-9 2,9 36,-170 91,-210z"/>
     <path class="fil6" d="M16593 9646c-53,-140 162,-266 229,-197 20,20 20,23 21,59l-2 40c0,-2 0,3 1,5 -5,-49 -11,-69 -27,-98 -95,33 -21,-34 -62,82 -9,27 -21,41 -42,59 -37,31 -53,52 -118,50zm-1094 -294c56,158 -188,232 -338,173 -198,-79 -228,-285 -121,-327 68,34 58,98 183,143 106,39 199,-18 276,11zm382 -98c-71,-111 -1,-248 68,-322 -23,-37 -46,-77 -40,-139 26,80 123,108 206,135 35,109 34,144 -32,245 -51,77 -96,104 -202,81zm-971 -639c-14,-48 -38,-34 -47,-119 117,138 185,34 227,131 34,79 2,244 -48,285 -84,69 -156,-49 -151,-153 3,-48 32,-103 19,-144zm-115 -362c-39,157 9,474 -115,678 -104,172 -234,304 -86,602 154,308 599,550 1061,550 0,107 -5,119 -22,192 136,202 537,37 660,-82 -6,-47 -38,-77 -57,-131 -19,-56 -17,-118 -35,-156 50,-34 68,-53 115,-90 48,-37 75,-73 117,-101 39,26 119,173 336,49 111,-64 186,-151 214,-282l0 -73c-86,-26 -158,-89 -199,-156 -148,-245 169,-630 -9,-890 18,149 41,180 4,345 -23,102 -54,203 -98,282 -4,-104 6,-208 8,-313 2,-134 -24,-187 -32,-283 3,93 34,225 -19,316 -88,-115 -71,-307 -123,-436l-60 83c-23,30 -41,46 -69,68 -133,103 -362,157 -536,125l-73 -27c-2,-1 -7,-1 -9,-6 -2,-5 -6,-5 -9,-7 70,3 138,8 207,0 72,-9 109,-22 143,-68 -154,31 -241,27 -385,-24 -103,-36 -224,-88 -268,-170 141,28 199,87 371,80 -100,-1 -192,-33 -274,-67 -57,-25 -70,-48 -115,-62 -76,-25 -349,-83 -432,-73 -97,13 -192,59 -211,127z"/>
     <path class="fil6" d="M4178 4292c-102,99 -308,122 -415,16 -62,-29 -257,-177 -122,-265 36,20 3,-5 25,19 5,5 18,24 19,25 -1,-37 52,-7 91,4 131,37 297,39 417,-20l6 12c28,-34 19,-39 78,-30 46,93 -53,205 -99,239zm-1836 -711c-43,-75 -49,-242 104,-185 193,72 231,462 59,382 -117,-54 -7,-237 -9,-250 -28,-53 -52,-90 -131,-87 -16,43 -21,79 -23,140zm912 -212c-30,-13 -68,-33 -82,-39l101 -1c48,85 30,149 152,166 112,15 176,-32 216,-96 15,35 -37,159 -191,158 -136,-1 -167,-69 -196,-188zm900 15c41,126 306,147 332,-80l90 2c-42,41 -43,16 -64,53 -12,23 -14,132 -123,165 -127,38 -243,-12 -235,-140zm-1 -355c-14,-150 381,-88 375,102 -77,0 -83,-46 -173,-71 -66,-17 -149,2 -202,-31zm-553 -7c-36,46 -49,31 -122,35 -210,9 -332,181 -297,41 27,-105 371,-223 419,-76zm-671 1368c163,125 229,225 501,318 58,20 171,39 213,60 300,29 390,71 566,-112 110,-115 208,-261 271,-453 60,-183 107,-388 129,-595 15,-144 36,-573 9,-702 -320,-28 -565,-43 -860,-138 -122,-39 -245,-91 -354,-150 -151,-80 -258,-176 -314,-204 51,331 46,600 -253,828 -38,29 -72,55 -113,79 -62,35 -60,22 -122,-10 -272,-138 -430,-17 -344,290 55,201 157,382 399,368 69,105 101,183 196,320 27,38 54,64 76,101z"/>
     <path class="fil6" d="M11526 9381c41,72 18,53 30,106l-23 -85c-95,29 -28,-27 -62,69 -36,105 -140,145 -160,86 -29,-84 114,-192 215,-176zm-1458 228c-166,35 -254,0 -312,-130 -28,-59 -63,-173 1,-217 54,23 21,-15 36,54 10,50 -18,99 134,148 234,75 275,-52 294,-64 78,105 -73,173 -153,209zm663 -690c94,-39 150,49 135,139 -11,64 -70,160 -122,184 -199,88 -175,-255 -13,-323zm-1052 -147c3,-1 7,0 9,-1 116,-4 84,-4 92,-65 -51,-20 -43,-21 -87,11 29,-135 185,-115 185,42 1,315 -214,263 -199,13zm-119 -423c24,139 -5,489 -80,638 -60,120 -211,292 -64,550 186,323 565,492 956,492 0,80 14,103 -52,123 -39,73 -89,163 -60,261 26,90 118,129 235,95 156,-45 329,-206 389,-329 -38,-79 -76,-124 -76,-232 264,-140 266,-218 369,-287 14,10 118,172 336,22 86,-59 179,-184 175,-309 -43,-83 -283,-52 -233,-446 27,-209 111,-408 -15,-566 30,120 49,163 27,303 -10,64 -42,224 -86,276 -3,-125 25,-319 -22,-416l-32 174c-81,-110 -83,-329 -134,-416 -58,133 -139,199 -282,251 -203,74 -245,51 -436,16 172,-19 238,27 358,-85 -146,36 -219,45 -368,-2 -101,-32 -226,-79 -274,-154 132,23 212,76 367,62 -255,-7 -307,-89 -382,-107 -209,-48 -508,-122 -616,86z"/>
     <path class="fil8" d="M16421 12635c-161,175 -357,142 -603,178 -39,10 -347,73 -352,75 -48,25 -37,52 -117,86 -238,102 -220,-129 -194,-180 -531,21 -542,-204 -743,361l-295 813c-14,22 -6,11 -22,27 30,57 35,97 -47,97l-6 41 -4 15c-1,123 -13,145 -30,176 -1,2 -3,6 -6,9 -8,92 -8,102 -102,112 -87,10 -135,1 -216,-7 9,66 -59,405 -77,480l-1006 0c56,45 865,15 1008,18 -32,215 -155,578 299,549 162,-11 216,-84 273,-197 33,-67 97,-327 122,-350 1,-64 19,-118 31,-180 43,-221 186,-1094 201,-1274l69 -1c117,11 559,38 655,15 97,38 250,13 359,13 37,-27 350,-6 433,-8 144,-3 300,-20 437,-14l40 -18c136,24 473,-45 615,-71 84,-37 54,-116 54,-312 0,-59 0,-118 0,-178 1,-58 10,-130 -13,-177 -14,-38 3,-22 -52,-44 -112,-44 -483,-78 -590,-80 -59,45 -56,9 -121,26z"/>
     <path class="fil8" d="M1102 12292l-377 2318c-32,207 -101,616 -101,800l-41 9 49 7c45,216 231,280 480,242 200,-31 289,-190 347,-380l89 -15 -78 0c150,-641 247,-1355 326,-2010 14,-117 97,-636 72,-708 -5,-340 -330,-574 -592,-455 -131,59 -135,143 -174,192z"/>
     <path class="fil10" d="M1593 15270l72 -1c45,140 173,199 366,185 176,-12 264,-114 311,-252 51,0 89,8 125,-11l-109 0c116,-243 225,-1196 271,-1518l220 -1582 574 0c178,-4 97,-42 148,425l17 312c11,46 -13,15 23,42 0,-209 50,-338 140,-478 94,-145 169,-227 413,-224l11 -72c-13,-38 13,-23 -29,-30 -160,0 -347,12 -519,14 -483,9 -1058,-24 -1542,-22l-244 1592c-51,372 -134,830 -177,1189 -16,134 -48,284 -16,421l-55 10z"/>
     <path class="fil11" d="M11591 8396c68,8 144,24 214,1 16,31 -7,43 14,76 30,-101 36,-72 120,-111 60,-29 90,-69 119,-122 6,133 3,303 -38,404 -28,-63 -7,-93 -51,-145l-71 147c-40,-50 -14,-80 -71,-122l-46 97c-26,-43 -15,-83 -44,-125 -13,15 -1,-3 -19,26l-43 79 -21 -91c-14,13 -6,3 -20,23 -11,16 -8,12 -16,31 -2,-68 -9,-114 -27,-168zm350 -457l0 0zm-1734 -545c21,-10 67,-23 91,-34 9,185 151,352 274,461 37,33 90,70 122,104 -41,42 -185,171 -263,175 15,-66 39,-56 59,-127l-199 5c13,-55 31,-30 58,-101l-229 -1c13,-46 77,-54 119,-82l39 -36c-92,-6 -178,-3 -250,-33 8,1 194,-26 241,-76l-157 1 2 -36c0,-4 -1,-6 -2,-9 -63,-3 -73,3 -120,-21 44,-92 110,-21 183,-157 11,-19 -21,-4 32,-33zm-647 955c108,-208 407,-134 616,-86 75,18 127,100 382,107 -155,14 -235,-39 -367,-62 48,75 173,122 274,154 149,47 222,38 368,2 -120,112 -186,66 -358,85 191,35 233,58 436,-16 143,-52 224,-118 282,-251 51,87 53,306 134,416l32 -174c47,97 19,291 22,416 44,-52 76,-212 86,-276 22,-140 3,-183 -27,-303 126,158 42,357 15,566 -50,394 190,363 233,446 65,1 63,17 114,11 47,-6 56,-27 99,-38l0 -41c-211,0 -143,-176 -69,-287 73,-108 133,-181 196,-309 43,-89 92,-291 70,-421 -13,-81 -22,-131 -51,-195 -48,-100 -67,-97 -106,-154 36,10 50,24 82,41 -25,-110 -140,-134 -232,-177 20,-85 20,-120 0,-205 -36,41 -40,88 -54,150 -39,-56 -75,-117 -147,-181 -153,-136 -471,-303 -669,-355 -210,-54 -396,-56 -592,15 -198,71 -222,136 -321,185 -82,41 -63,15 -142,8 6,73 17,55 96,55l-273 150c-144,102 -299,304 -255,501 16,70 23,-9 11,73 -13,89 -24,102 -6,195 23,117 16,131 72,146 0,-105 12,-123 49,-191z"/>
     <path class="fil12" d="M13814 12501c7,-91 128,-249 175,-301 57,-60 180,-151 301,-174 167,136 -11,267 -90,344 -86,84 -205,221 -386,131zm-262 -347c-105,154 -213,406 -281,598 -40,111 -78,216 -113,324 -35,109 -73,230 -97,342 107,2 202,24 285,68 127,69 102,101 99,244 103,-9 197,10 281,46 135,57 91,72 154,168 116,-27 142,9 215,51 16,-16 8,-5 22,-27l295 -813c201,-565 212,-340 743,-361 41,-161 61,-180 323,-201 107,-9 212,-146 256,-238 -101,-34 -473,-255 -599,-331 -57,-34 -156,-83 -192,-128l-890 -2c-7,108 -131,144 -217,205 -37,26 -94,74 -131,86 -69,23 -108,-16 -153,-31z"/>
     <path class="fil6" d="M4867 4661c43,33 84,68 126,96 -33,45 -73,34 -81,97 -14,104 39,33 -29,136 -32,50 -23,58 5,117 73,155 -48,238 249,311 122,30 186,45 320,63 73,10 60,29 99,78l266 294c29,31 53,62 81,96 31,37 59,71 86,105 42,54 145,164 150,232 -58,-13 -118,-46 -172,-73l-524 -249c-21,28 -107,331 -367,569l-70 68c68,10 110,37 170,62 59,25 98,40 154,64 273,118 733,308 1016,336 315,31 503,-34 640,-230 249,-355 -668,-1231 -911,-1465l-238 -213c-124,-99 -370,-393 -462,-439 -86,-43 -97,26 -190,-42l-261 -186c-30,-15 -336,-233 -333,-115 1,80 210,224 276,288z"/>
     <path class="fil9" d="M1757 11005c86,7 249,68 357,91 83,17 323,59 397,39 365,0 877,0 1239,19 93,5 330,16 410,-5l11 -43c48,-291 188,-480 204,-582 -556,-51 -1145,-118 -1703,-195 -586,-80 -1244,-59 -985,-792 -4,-2 -22,-12 -24,-14 -2,-1 -8,-3 -10,-8 -1,-6 -6,-7 -9,-10 -104,-23 -192,-68 -283,-94 -36,173 -263,587 -164,973 41,160 113,270 215,372 59,58 87,94 159,142 56,37 148,73 186,107z"/>
     <path class="fil6" d="M692 5959l-26 15 26 -15zm833 -1314c-121,97 -291,225 -422,304 -407,242 -1386,976 -1532,1376 -200,550 625,449 907,403 116,-20 203,-38 309,-60 49,-11 87,-19 145,-32 65,-14 102,-31 170,-35 -33,-184 14,-249 -75,-431 -26,-53 -62,-111 -93,-152 -36,-47 -75,-78 -81,-155 -23,43 -7,38 -58,62 -35,16 -67,25 -103,34 27,-41 60,-61 99,-93 20,-16 34,-27 53,-42 36,-30 19,-30 67,-43l13 -14c29,-43 129,-114 176,-152 92,-73 378,-331 471,-348 33,-6 110,-18 132,-19 56,-38 101,-18 164,-17 236,1 209,-123 244,-204 16,-37 52,-62 62,-100 19,-70 -15,-60 -26,-108 -20,-87 84,-56 -50,-199 98,-85 490,-215 475,-349 -137,-27 -438,133 -551,190 -256,129 -143,12 -266,48 -79,23 -157,107 -230,136z"/>
     <path class="fil8" d="M1143 11946c143,62 609,94 805,105 69,0 58,20 137,7 484,-2 1059,31 1542,22 172,-2 359,-14 519,-14 42,7 16,-8 29,30 38,-75 72,-306 97,-411 28,-117 65,-290 105,-392 -106,-12 -292,9 -408,12 -737,25 -1393,15 -2130,-29 -112,-6 -565,-45 -675,-93 -59,-26 -47,-16 -53,-37 -2,-6 -6,-6 -9,-9l0 776c14,14 21,18 41,33z"/>
     <path class="fil13" d="M18634 15014c41,34 142,20 202,15 2,108 13,485 -7,564 -183,8 -856,6 -962,90 103,146 2224,114 2519,36 56,-15 38,-5 59,-36 -112,-85 -764,-88 -961,-88 -22,-83 -8,-426 -8,-536l97 0c-20,-17 -5,-11 -42,-17 -14,-2 -39,-1 -54,-1l0 -2459c-94,-28 -513,-11 -641,-11l0 2443 -202 0z"/>
     <path class="fil13" d="M6894 14995c0,114 15,519 -9,600 -173,0 -857,9 -960,88 49,73 519,82 597,86 225,9 453,14 682,14 299,0 865,-8 1169,-52 20,-3 49,-7 69,-12 56,-14 50,-21 60,-36 -111,-86 -776,-81 -962,-90 -16,-71 -18,-579 6,-615l0 -2395c-95,-30 -505,-12 -634,-12 -39,216 32,2324 -18,2424z"/>
     <path class="fil14" d="M21484 10894c48,17 18,6 58,141 16,57 37,112 60,161 29,62 145,241 151,275 -86,16 -80,-23 -118,-90 -56,-100 -153,-287 -176,-401 -14,-69 -17,-58 25,-86zm-545 -182c-53,16 -67,119 -62,169 7,64 17,166 47,207 22,-198 199,-187 256,-112 14,20 20,37 29,55 3,5 13,23 14,25 9,16 11,18 15,23l163 -68 194 427c-11,12 -4,4 -18,21l-22 29 -9 87 49 51c18,23 34,51 43,77 68,197 -66,431 -317,439 -351,12 -565,-156 -438,-511 -76,4 -139,-6 -188,-48 -53,-46 -60,-94 -102,-132 24,135 1,186 -22,299 -4,80 9,83 12,150 3,55 0,121 0,177 0,80 7,269 27,319l54 32c281,184 1059,102 1408,41 2,-3 4,-11 6,-8 2,3 7,-5 9,-6 67,-20 -53,0 29,-5l105 -20c40,-6 57,-16 96,-25 0,-281 -82,-823 -82,-1106 88,-47 174,-100 178,-232 7,-187 -105,-440 -276,-544 -56,-35 -89,-27 -167,-38 -56,-7 -137,-19 -185,-19 16,229 -131,341 -321,391 -203,53 -470,31 -525,-145z"/>
     <path class="fil9" d="M2499 9574c-48,28 -163,9 -182,19 -89,95 -82,133 -249,175 -122,32 -268,29 -376,56 -20,133 64,232 133,274 104,62 195,75 324,98 332,60 1961,265 2257,274 63,-74 106,-178 176,-251 36,-37 77,-77 107,-98 61,-43 112,-54 146,-83 -95,-42 -1060,-274 -1275,-339 -69,-21 -146,-34 -221,-55 -115,-33 -158,-28 -171,-80 117,-1 51,-8 70,-29l-739 39z"/>
     <path class="fil14" d="M17443 10507l140 -216c11,-16 14,-19 24,-30 0,380 -43,256 -164,246zm-475 -55l-7 16c23,98 31,135 -30,223 -64,92 -81,59 -151,124 -75,69 -28,118 -58,214 -29,92 -112,104 -28,195l435 -1c29,-70 94,-171 109,-238 74,6 201,38 273,54 0,85 -13,102 -13,183l519 0c0,-138 6,-249 13,-388l15 -340c7,-38 -1,-20 17,-42 -16,-79 -13,-437 3,-533 -45,-192 -98,-235 -286,-281 -68,-17 -171,-44 -242,-47 -60,-2 -67,10 -92,44l-477 817z"/>
     <path class="fil15" d="M10385 12284c-44,14 -593,488 -870,338 -42,-23 -40,-14 -77,-32 -53,-26 -28,-35 -68,-57 -34,-19 -43,-3 -76,-34l-97 -119c-131,25 -172,264 -138,423 41,194 110,258 289,315 60,10 234,23 277,36 353,112 391,125 828,134 377,7 900,15 1253,-38l1 -54 5 -257c-282,26 -1330,155 -1560,143 -168,-8 -314,-108 -288,-285 72,-124 1151,-102 1361,-235 158,-100 45,-252 21,-373 -300,83 -524,95 -861,95z"/>
     <path class="fil16" d="M18065 9919c-16,96 -19,454 -3,533 112,184 398,195 624,192 111,-2 158,-49 218,40 -56,84 -126,128 -244,152 -122,25 -220,26 -370,26l27 360 601 -7c38,-30 89,-36 141,-62 55,-26 91,-46 141,-77 46,-27 88,-58 124,-94l99 -120 13 -27c13,-148 102,-369 -204,-520 -222,-109 -531,-30 -697,-27 -34,-51 -116,-147 68,-192 65,-15 256,-46 301,-67 -4,-50 -47,-259 -66,-290 -94,-149 -448,-16 -568,25 -53,18 -74,34 -113,63 -93,69 -48,42 -92,92z"/>
     <path class="fil8" d="M15929 14112c-3,89 78,512 100,623 14,68 35,141 35,210l-257 0c50,38 202,21 274,11 29,218 119,513 379,529 358,21 376,-204 301,-510l0 -16c-1,-75 -140,-774 -165,-900l-59 -281c-1,-2 -4,-7 -4,-9 -1,-1 -3,-5 -5,-8l-33 -53c-121,-205 -553,-248 -566,404z"/>
     <path class="fil10" d="M16528 13471l274 1488 -41 0 0 16c74,-2 61,3 84,76 37,119 98,232 242,250 227,29 347,-74 336,-301l34 -13c-58,-56 -73,-295 -88,-377 -27,-152 -202,-1155 -226,-1210 -142,26 -479,95 -615,71z"/>
     <path class="fil10" d="M14379 14932c-13,238 34,387 293,373 198,-11 278,-177 312,-361l357 2c-41,-27 -116,-14 -164,-14 -59,0 -118,0 -178,0 53,-227 84,-470 131,-702 24,-119 128,-649 129,-732 -96,23 -538,-4 -655,-15 14,18 -23,15 27,15l-63 362c-27,143 -191,996 -189,1072z"/>
     <path class="fil8" d="M10863 14492l68 426 -301 -1c-29,0 -70,-1 -95,18l406 0c28,178 64,399 115,568 56,188 115,344 325,361 256,20 358,-99 319,-348 -32,-196 -68,-389 -107,-583l-1 -15 -128 -696c-75,-72 -47,-117 -161,-168 -83,-37 -180,-25 -248,18 -159,102 -155,341 -192,420z"/>
     <path class="fil6" d="M20133 14302c47,-14 60,-38 123,-49 61,-11 130,-9 191,-5 134,9 198,40 314,62 0,-295 400,-905 371,-1113 -204,-188 -372,-343 -684,-358 -6,-120 -3,-155 53,-255 40,-73 83,-134 163,-156l-54 -32c-92,42 -206,236 -235,361 -8,37 -14,84 -25,125l-100 364c-69,278 -196,735 -117,1056z"/>
     <path class="fil6" d="M21266 13211c-18,78 -47,171 -66,248 -22,88 -34,169 -50,265 -21,133 -41,473 6,582 213,-127 402,-34 628,4 0,-148 46,-229 90,-340 42,-105 87,-199 127,-296 67,-164 182,-448 179,-668l-79 -41c-3,-64 2,-147 3,-232 2,-93 7,-190 12,-283 -82,5 38,-15 -29,5 -2,1 -7,9 -9,6 -2,-3 -4,5 -6,8l-7 482c-39,20 -71,10 -117,9 -232,-6 -514,128 -682,251z"/>
     <path class="fil10" d="M11426 13948c0,1 31,9 38,14 0,143 163,836 163,956l-35 0 1 15c68,-2 32,1 49,12 23,154 53,320 98,462 48,151 105,276 284,284 456,23 224,-484 212,-773l-143 -780c-16,-100 -42,-176 -42,-285 -86,37 -202,53 -300,63 -57,5 -104,11 -164,15l-161 17z"/>
     <path class="fil10" d="M9375 14932l0 17 83 -2c-30,288 -226,782 228,744 293,-26 316,-490 371,-759 52,-199 121,-712 178,-956l177 0c-55,-52 -142,-22 -204,-13 -101,15 -513,-15 -601,-28 2,4 11,18 12,21 19,54 -59,402 -72,465l-90 511 -82 0z"/>
     <path class="fil3" d="M8413 11135c-39,-37 -76,-100 -76,-178 -1,-79 32,-109 55,-150 19,-34 12,-13 16,-41 -45,-15 -1117,-9 -1272,-12l-970 0c-137,3 -141,52 -141,190 1,249 -6,209 442,209 274,0 1905,10 1946,-18z"/>
     <path class="fil17" d="M2511 11135c60,51 911,19 980,19l615 6c74,1 143,28 201,48 49,17 68,3 97,-19 154,-369 310,-1020 739,-1037 268,-10 409,212 499,389 105,206 -66,513 -113,705l80 -21 -2 -1c13,-117 74,-294 99,-425 42,-223 7,-226 129,-392 134,-181 276,-268 553,-176 92,30 103,66 165,98 28,-37 27,-40 85,-35l19 -47c-83,-7 -70,-80 -291,-145 -154,-45 -243,-37 -393,-5 -54,37 -122,59 -182,102 -56,40 -95,73 -143,127 -48,-46 -47,-104 -129,-169 -253,-202 -616,-114 -684,-119 -34,29 -85,40 -146,83 -30,21 -71,61 -107,98 -70,73 -113,177 -176,251 -296,-9 -1925,-214 -2257,-274 -129,-23 -220,-36 -324,-98 -69,-42 -153,-141 -133,-274 108,-27 254,-24 376,-56 167,-42 160,-80 249,-175 19,-10 134,9 182,-19l-293 -1 46 32c-93,144 -357,168 -571,168l58 -230 79 7c-38,-21 -2,-4 -43,-17 -10,-3 -31,-7 -42,-9 -30,-7 -58,-13 -89,-19 3,3 8,4 9,10 2,5 8,7 10,8 2,2 20,12 24,14 -259,733 399,712 985,792 558,77 1147,144 1703,195 -16,102 -156,291 -204,582l-11 43c-80,21 -317,10 -410,5 -362,-19 -874,-19 -1239,-19z"/>
     <path class="fil3" d="M6657 10247l-19 47c305,-27 1833,29 1901,-10 59,-64 41,-108 41,-214 0,-92 21,-179 -49,-224 -49,-24 -1482,-5 -1791,-8l-79 3c-33,6 -14,0 -31,10 26,46 55,117 65,183 11,78 -21,152 -38,213z"/>
     <path class="fil6" d="M9252 11210c58,21 378,21 437,0 82,-25 118,-49 187,-75 33,-85 70,-333 102,-452 21,-76 39,-150 62,-221 23,-71 57,-135 77,-201 -85,47 -296,322 -543,472 -207,127 -259,3 -310,-252 -31,-157 -33,-106 54,-236 101,-153 -14,-89 41,-245 16,-44 27,-76 38,-127 17,-84 11,-76 5,-145 -75,6 -130,106 -136,178 -100,-27 49,-17 -126,-22 -80,-3 2,-21 -78,-17 -8,0 -163,65 -179,93 -27,45 -22,188 -10,257 5,32 24,66 32,104 9,40 6,82 11,125 42,306 109,648 336,764z"/>
     <path class="fil4" d="M15552 11150c17,41 34,44 64,67l-669 -2c12,27 -19,20 93,26l342 3c162,0 285,-21 437,-20 135,0 850,16 875,0 -84,-91 -1,-103 28,-195 30,-96 -17,-145 58,-214 70,-65 87,-32 151,-124 61,-88 53,-125 30,-223 -65,-12 -41,-50 -206,-93 -438,-114 -463,-15 -645,151l-558 624z"/>
     <path class="fil18" d="M21132 13197c22,0 60,-2 80,0 27,2 -1,-2 24,3 29,6 14,1 30,11 168,-123 450,-257 682,-251 46,1 78,11 117,-9l7 -482c-349,61 -1127,143 -1408,-41 -80,22 -123,83 -163,156 -56,100 -59,135 -53,255 312,15 480,170 684,358z"/>
     <path class="fil19" d="M3238 9535c-19,21 47,28 -70,29 13,52 56,47 171,80 75,21 152,34 221,55 215,65 1180,297 1275,339 68,5 431,-83 684,119 82,65 81,123 129,169 48,-54 87,-87 143,-127 60,-43 128,-65 182,-102 -2,-2 -7,-7 -8,-5 -1,2 -6,-4 -8,-5l-1975 -605c-16,-70 -26,-150 -40,-222 -106,39 -261,172 -352,191 -39,-80 -87,-167 -137,-258l-98 -188c-4,-8 -17,-28 -22,-35 -13,-18 -10,-13 -24,-25l-71 590z"/>
     <path class="fil6" d="M20981 11161c3,-86 31,-161 107,-163 24,42 49,40 82,110l-189 53zm-521 -481l37 77c45,131 21,133 28,269 5,101 46,314 33,343l35 82c42,38 49,86 102,132 49,42 112,52 188,48l71 -1c3,-1 9,-6 10,-2 2,4 16,-4 22,-5 11,-2 22,-5 34,-8l210 -50c90,-25 169,-54 254,-84l4 24c26,-27 19,-35 39,-42 34,-13 17,-18 28,25l22 -29c14,-17 7,-9 18,-21l-194 -427 -163 68c-4,-5 -6,-7 -15,-23 -1,-2 -11,-20 -14,-25 -9,-18 -15,-35 -29,-55 -57,-75 -234,-86 -256,112 -30,-41 -40,-143 -47,-207 -5,-50 9,-153 62,-169 -14,-53 -15,-116 -6,-178 -104,0 30,-169 -77,-328 -56,38 -68,111 -68,205 -182,-15 -53,-1 -150,7 -42,3 16,-20 -48,1 -27,9 -36,32 -56,52l-87 63c0,74 12,90 13,146z"/>
     <path class="fil14" d="M10117 10261c-20,66 -54,130 -77,201 -23,71 -41,145 -62,221 -32,119 -69,367 -102,452l-10 87 550 -3c91,-281 285,-673 509,-749 81,-27 178,-21 257,16 78,38 96,122 101,225 10,217 -81,344 -132,511l122 0c-14,-54 -30,-126 -10,-192 21,-69 65,-62 143,-70 -35,-75 -42,-141 9,-209l18 -12c-54,-111 -23,-341 -344,-486 -44,-20 -186,-61 -205,-74 -60,123 -233,284 -389,329 -117,34 -209,-5 -235,-95 -29,-98 21,-188 60,-261 -46,9 -76,14 -117,36 -42,21 -71,40 -86,73z"/>
     <path class="fil15" d="M11304 12170c48,138 116,302 -13,418 -198,178 -1187,125 -1375,246 -11,289 603,173 805,153 311,-30 697,-97 984,-104l-53 -171c-11,-23 26,-16 61,-61 -2,-3 -6,-10 -7,-8 0,1 -9,-11 -13,-15l-7 -86 37 -1c-20,-64 4,-178 -15,-285 -17,-95 -43,-159 -81,-235 -53,19 -109,56 -165,82 -49,23 -107,43 -158,67z"/>
     <path class="fil8" d="M3611 12870c-38,122 63,944 71,1188 4,139 27,247 27,395 60,-80 411,-2011 455,-2285 -244,-3 -319,79 -413,224 -90,140 -140,269 -140,478z"/>
     <path class="fil5" d="M6118 10667c-64,7 -93,-22 -93,-133 0,-33 9,-71 19,-97 19,-49 21,-48 78,-46 -50,106 -58,167 -4,276zm-53 26l2436 -4c67,17 147,9 219,9l0 -55c-44,0 -64,-4 -95,-13 -1,36 -174,19 -247,19 -214,0 -661,-12 -823,0 -14,-121 -48,-101 4,-230 133,-9 1022,-22 1079,6 41,-1 49,-6 82,-14l0 -41 -164 -1 -1992 -2c-183,-1 -575,-29 -705,34l-5 234c58,68 116,56 211,58z"/>
     <path class="fil20" d="M2633 5042c43,258 281,514 468,679 68,62 122,136 199,180 29,-36 126,-320 146,-397 50,27 95,120 127,167 31,45 89,143 128,171l136 -751c-39,-29 -162,-105 -210,-127 -63,27 16,114 -128,197 -336,193 -586,-239 -628,-267l-238 148z"/>
     <path class="fil6" d="M15734 12355c-44,92 -149,229 -256,238 -262,21 -282,40 -323,201 -26,51 -44,282 194,180 80,-34 69,-61 117,-86 5,-2 313,-65 352,-75 43,-14 128,-90 166,-119 64,-49 107,-118 172,-150 18,-59 279,-287 397,-647l-593 -2c-30,122 -155,417 -226,460z"/>
     <path class="fil10" d="M5067 15352c20,-27 16,-57 34,-82 17,38 88,172 112,205 21,-51 8,-8 103,-56 148,-76 152,-230 147,-378 43,0 85,6 118,-14l-110 0c-20,-82 -39,-466 -61,-622 -18,-127 -41,-531 -62,-619l-367 709c-86,175 -94,175 -13,420 38,113 122,307 99,437z"/>
     <path class="fil6" d="M9825 12220c-59,13 -117,13 -175,23 -132,24 -379,-15 -453,137l97 119c33,31 42,15 76,34 40,22 15,31 68,57 37,18 35,9 77,32 277,150 826,-324 870,-338 27,-45 147,-137 189,-181 36,-37 146,-159 165,-207l-671 0c-33,71 -190,278 -243,324z"/>
     <path class="fil21" d="M1102 11137c3,3 7,3 9,9 6,21 -6,11 53,37 110,48 563,87 675,93 737,44 1393,54 2130,29 116,-3 302,-24 408,-12l27 -104c-29,22 -48,36 -97,19 -58,-20 -127,-47 -201,-48l-615 -6c-69,0 -920,32 -980,-19 -74,20 -314,-22 -397,-39 -108,-23 -271,-84 -357,-91 -49,10 -139,14 -180,18 -74,9 -112,11 -185,20 -76,10 -263,34 -290,94z"/>
     <path class="fil7" d="M22699 7359l156 -2c-97,6 -261,88 -279,241 85,-5 69,-8 122,-47 -48,94 -79,84 -67,226 33,-8 14,-2 38,-19l95 -84c0,105 -70,77 -72,197 42,74 153,152 263,183 149,41 243,-11 350,-68 -150,126 -106,119 -365,125 20,26 -7,5 33,33 159,114 411,46 459,-226 12,-69 -5,-46 -9,-115 84,-218 -307,-599 -670,-480 -28,9 -13,2 -30,13 -27,18 -2,-4 -24,23z"/>
     <path class="fil6" d="M10416 11219l735 3c51,-167 142,-294 132,-511 -5,-103 -23,-187 -101,-225 -79,-37 -176,-43 -257,-16 -224,76 -418,468 -509,749z"/>
     <path class="fil22" d="M6658 15002l236 -7c50,-100 -21,-2208 18,-2424 129,0 539,-18 634,12l0 -683 2290 -3 -3540 3 594 0 0 3086 -232 16z"/>
     <path class="fil8" d="M4540 13716l16 314c0,-36 -7,-241 -28,-273 -48,63 -234,542 -281,660 -154,380 -120,268 5,626 32,90 14,62 58,94 17,-194 131,-568 197,-773 20,-64 53,-211 70,-252 -17,-33 -3,-16 6,-25 37,-50 150,-504 178,-605 62,-230 109,-394 192,-582 164,-375 293,-733 451,-1111 -11,-24 -5,-14 -23,-45 -6,-10 -11,-17 -17,-26l-13 -18c-67,171 -135,335 -200,507l-408 1002c-69,166 -151,338 -203,507z"/>
     <path class="fil11" d="M22289 7598c116,61 193,156 271,263 180,249 249,545 211,857 -13,107 -117,441 -136,407 -1,-2 -5,6 -8,8 -8,-101 17,-195 16,-306 -1,-98 -15,-191 -44,-271 -62,-175 -155,-245 -252,-350 61,187 299,297 268,785 -42,-75 -42,-259 -105,-366 16,153 90,408 16,557l51 37c48,3 72,35 108,68 37,-210 219,-270 219,-938 78,6 121,49 234,30 97,-15 138,-51 193,-108 52,-54 84,-112 108,-193l13 -208c-8,-97 8,-43 -29,-67 4,69 21,46 9,115 -48,272 -300,340 -459,226 -40,-28 -13,-7 -33,-33 259,-6 215,1 365,-125 -107,57 -201,109 -350,68 -110,-31 -221,-109 -263,-183 2,-120 72,-92 72,-197l-95 84c-24,17 -5,11 -38,19 -12,-142 19,-132 67,-226 -53,39 -37,42 -122,47 18,-153 182,-235 279,-241l-156 2c-61,-1 -141,70 -178,115 -24,31 -46,52 -68,82 -21,30 -36,62 -54,96l-110 -54z"/>
     <path class="fil9" d="M21156 14306c0,135 165,605 219,691 171,-36 372,-37 437,124l109 -11c-1,-35 -137,-608 -137,-800 -226,-38 -415,-131 -628,-4z"/>
     <path class="fil9" d="M20133 14302c2,92 62,278 90,362 22,65 38,109 62,170 20,53 54,109 66,171 78,-32 185,-36 281,-14 128,30 110,61 170,138l109 -19c-31,-64 -78,-305 -92,-387 -13,-71 -21,-134 -30,-202 -9,-59 -27,-156 -28,-211 -116,-22 -180,-53 -314,-62 -61,-4 -130,-6 -191,5 -63,11 -76,35 -123,49z"/>
     <path class="fil22" d="M18836 12571c128,0 547,-17 641,11l0 -682 888 -6 -3557 6 2028 0 0 671z"/>
     <path class="fil23" d="M4474 1916c-2,-34 40,4 -21,-34 -49,-30 -4,-16 -47,-8 -115,-47 -265,-121 -390,-141 71,-1 276,145 175,268 -60,74 -315,85 -441,86 -163,3 -343,6 -505,-3 -154,-9 -326,-29 -488,-28 169,118 186,148 445,183 188,26 388,48 589,54 182,5 788,59 799,-159 5,-107 -84,-142 -116,-218z"/>
     <path class="fil24" d="M14947 11215l669 2c-30,-23 -47,-26 -64,-67 -28,-84 -4,-123 36,-177 38,-51 68,-89 102,-131 58,-72 171,-191 208,-256l-189 112c-36,-60 -24,-160 -58,-236l-222 146 59 -238c-158,71 -306,328 -380,478l-161 367z"/>
     <path class="fil14" d="M13457 14160c-72,-7 -47,-58 -92,-120 -33,-46 -73,-52 -113,-87 114,-6 250,117 205,207zm-97 -256l-8 35c-113,-9 -71,-12 -169,24 -53,19 -97,38 -151,36 -13,45 -52,74 -80,101 -89,-9 -309,-53 -381,-99 -29,-19 -37,-10 -35,-52 3,-97 -1,-36 33,-56 -27,-28 33,-33 -31,-23l-22 106c64,88 325,148 436,150 -16,69 -14,106 -14,191 166,112 453,145 746,121 -64,-24 -303,-17 -403,-30 -118,-16 -248,-47 -327,-102l-1 -84c151,31 142,64 403,91 82,9 150,5 238,4 82,-2 147,18 231,19 11,-11 10,-9 20,-26 39,-64 69,-164 197,-177l6 -41c-76,-50 -114,-27 -214,-43 -52,-125 -32,-148 -164,-205 -98,-43 -207,-68 -284,-10l-3 74c23,19 2,5 32,18 5,2 18,6 22,7 10,4 23,5 41,11 76,25 171,94 168,193 -81,-4 -58,-69 -127,-128 -55,-47 -100,-51 -131,-74 -2,-2 -5,-5 -7,-7l-21 -24z"/>
     <path class="fil9" d="M3551 15123c-22,132 -44,257 -63,391 -26,191 26,223 202,242 188,21 723,42 839,-57 36,-130 -46,-258 -107,-330l26 -9 -59 -43c-19,-20 -21,-27 -36,-44l-4 123c-123,60 -656,67 -782,-6 -22,-127 28,-382 57,-513 -35,29 -6,-17 -33,46 -3,9 -15,62 -16,66 -11,49 -28,87 -24,134z"/>
     <path class="fil8" d="M5607 11224l2 1c364,-24 2795,41 2889,-8 42,-69 -9,-82 -85,-82 -41,28 -1672,18 -1946,18 -448,0 -441,40 -442,-209 0,-138 4,-187 141,-190l970 0c155,3 1227,-3 1272,12 88,0 92,12 93,-77l-2436 4 -36 58c-34,60 -18,150 -18,220 0,46 -7,113 4,156 9,36 22,41 48,76l-456 21z"/>
     <path class="fil25" d="M6630 9851c17,-10 -2,-4 31,-10l79 -3c309,3 1742,-16 1791,8 70,45 49,132 49,224 0,106 18,150 -41,214 -68,39 -1596,-17 -1901,10 -58,-5 -57,-2 -85,35l11 38 1992 2c61,-111 41,-153 41,-313 0,-95 23,-263 -64,-305 -50,-23 -1565,-8 -1807,-9 -52,0 -132,-12 -162,17 -45,45 7,87 66,92z"/>
     <path class="fil14" d="M10385 12284c337,0 561,-12 861,-95l58 -19c51,-24 109,-44 158,-67 56,-26 112,-63 165,-82l40 -27c1,-53 3,-60 -12,-99l-916 1c-19,48 -129,170 -165,207 -42,44 -162,136 -189,181z"/>
     <path class="fil6" d="M5607 11224l456 -21c-26,-35 -39,-40 -48,-76 -11,-43 -4,-110 -4,-156 0,-70 -16,-160 18,-220l36 -58c-95,-2 -153,10 -211,-58l5 -234c130,-63 522,-35 705,-34l-11 -38c-62,-32 -73,-68 -165,-98 -277,-92 -419,-5 -553,176 -122,166 -87,169 -129,392 -25,131 -86,308 -99,425z"/>
     <path class="fil14" d="M21207 11918l4 -79 77 9c-25,115 30,95 102,49 -27,90 -82,80 -152,41 -73,37 -121,22 -140,-57l19 15c20,16 16,33 90,22zm141 -239c85,13 61,90 -4,75 -6,-10 -17,17 -13,-44 4,-49 5,-13 17,-31zm-227 -5c89,-19 75,80 3,68 -6,-10 -10,-10 -12,-33 -3,-30 1,-12 9,-35zm-167 -44c-290,458 492,631 635,279 78,-191 -80,-287 -114,-323l13 -81 -4 -24c-85,30 -164,59 -254,84l-210 50c-12,3 -23,6 -34,8 -6,1 -20,9 -22,5 -1,-4 -7,1 -10,2z"/>
     <path class="fil14" d="M13962 11129l-103 0c13,-69 94,-312 121,-357l128 -1c28,48 107,287 121,358l-117 -2c-29,-43 -10,-52 -55,-71 -95,5 -26,21 -95,73zm-272 95l654 -1 5 -566 -4 -13 -776 -2 121 12 0 570z"/>
     <path class="fil5" d="M14062 10144c172,-7 302,-13 224,188 93,24 116,63 98,175 -72,70 -193,59 -328,51l6 -414zm283 500l4 13c147,-87 159,135 159,-246 0,-133 12,-298 -14,-410l-446 4 -187 12 -3 615c104,4 416,-16 487,12z"/>
     <path class="fil25" d="M13045 13850c-73,-10 -52,-71 -95,-132 -24,-33 -76,-72 -129,-76 133,-26 249,84 224,208zm-77 -229c-169,0 -234,6 -344,68 -53,30 -70,43 -90,114 -17,59 -21,101 -18,173l22 -106c64,-10 4,-5 31,23 58,52 363,124 463,106 54,2 98,-17 151,-36 98,-36 56,-33 169,-24l8 -35c-11,-182 42,-112 50,-188 8,-74 -61,-127 -102,-152 -49,-31 -113,-57 -180,-68 -115,-19 -152,1 -149,111 3,2 8,0 10,4 1,4 8,3 10,3l21 6c25,7 32,6 55,14 27,9 57,27 78,44 36,29 88,85 79,155 -81,0 -57,-70 -110,-124 -42,-42 -96,-56 -154,-88z"/>
     <path class="fil26" d="M11273 11222l1187 -1c2,-4 10,-17 11,-19 12,-28 2,-5 10,-26 -8,-46 -27,-47 -54,-91 -24,-41 -27,-65 -38,-120 -163,1 -313,36 -488,36 -185,1 -323,0 -495,-41 -78,8 -122,1 -143,70 -20,66 -4,138 10,192z"/>
     <path class="fil20" d="M924 5767l-13 14c-27,41 -39,32 -58,82 6,77 45,108 81,155 31,41 67,99 93,152 89,182 42,247 75,431 -18,46 -14,26 -14,82 62,41 81,34 162,11 57,-16 111,-31 135,-80 12,-160 -52,-358 -96,-500 -25,-81 -52,-144 -86,-215 -37,-77 -81,-135 -111,-200 -3,-1 -8,-5 -9,-2l-159 70z"/>
     <path class="fil18" d="M20609 15337c-60,-9 -186,-215 -301,-130 59,20 181,91 139,171 -66,-6 -48,-53 -99,-102 -91,-88 -205,-51 -293,29 -56,50 -56,92 -54,185 132,7 238,45 391,35 151,-10 250,-31 412,-33 90,-285 159,-135 157,-246 -77,-34 -117,-10 -199,-14 -21,-57 -28,-113 -124,-150 -213,-83 -321,3 -279,73 26,44 -9,12 46,20 29,5 35,0 74,12 63,20 145,79 130,150z"/>
     <path class="fil18" d="M21630 15335c-99,-4 -59,-152 -301,-145 40,49 128,48 152,191 -105,-15 -47,-42 -118,-109 -50,-47 -108,-61 -174,-38 -143,49 -175,136 -166,261 59,-8 234,32 325,32 106,0 259,-34 475,-36 74,-261 151,-144 154,-245 -76,-36 -112,-10 -196,-14 -23,-80 -43,-117 -120,-148 -220,-89 -332,8 -277,73 22,26 270,34 246,178z"/>
     <path class="fil6" d="M21088 10332c0,59 4,89 -24,124 -13,16 -19,17 -36,32 -26,22 -13,-2 -31,32 -6,123 9,180 94,229 71,40 182,50 283,41 207,-18 309,-122 320,-338 -73,-79 -65,-76 -101,-183 -54,-49 -5,47 -29,-23 -3,-8 -9,-7 -12,-12 -26,60 -102,117 -184,135 -138,31 -180,-6 -280,-37z"/>
     <path class="fil6" d="M2871 4894c42,28 292,460 628,267 144,-83 65,-170 128,-197l-16 -20c-209,0 -438,-183 -563,-332 -66,-79 -78,-136 -123,-173 -4,108 -30,359 -54,455z"/>
     <path class="fil24" d="M15734 12355c71,-43 196,-338 226,-460l-1017 1c36,45 135,94 192,128 126,76 498,297 599,331z"/>
     <path class="fil3" d="M8625 10630l-12 -45c-4,-14 -13,-51 -13,-54 -4,-49 17,-76 38,-106 -57,-28 -946,-15 -1079,-6 -52,129 -18,109 -4,230 162,-12 609,0 823,0 73,0 246,17 247,-19z"/>
     <path class="fil16" d="M13938 9865c-46,78 -168,110 -232,38 -57,-63 -42,-197 18,-235 108,-70 254,51 146,59 -40,3 -87,-43 -116,24 -23,53 -2,80 27,106 109,43 85,-79 157,8zm-367 150c58,-27 382,-7 477,-10l-4 -427 -669 0 0 437 196 0z"/>
     <path class="fil19" d="M5067 15352c-26,39 -64,40 -128,43 -60,2 -119,-1 -179,-4 -90,-6 -237,-40 -312,-31l-26 9c61,72 143,200 107,330 197,17 505,56 687,1 34,-84 20,-134 -3,-225 -24,-33 -95,-167 -112,-205 -18,25 -14,55 -34,82z"/>
     <path class="fil20" d="M4747 6546c-12,41 -19,28 26,55 9,6 63,25 81,30 55,16 125,22 152,-30l70 -68c260,-238 346,-541 367,-569 11,-54 14,-59 14,-128 -36,-24 -37,-34 -82,-55 -24,-11 -79,-34 -105,-41 -75,170 -108,304 -213,460 -80,119 -263,248 -310,346z"/>
     <path class="fil24" d="M16156 12544l243 73c2,2 6,4 8,6l14 12c65,-17 62,19 121,-26 19,-80 113,-232 150,-327 24,-59 49,-117 66,-180 19,-71 29,-129 50,-202l-255 -3c-118,360 -379,588 -397,647z"/>
     <path class="fil27" d="M11712 12939l-7 -56c-287,7 -673,74 -984,104 -202,20 -816,136 -805,-153 188,-121 1177,-68 1375,-246 129,-116 61,-280 13,-418l-58 19c24,121 137,273 -21,373 -210,133 -1289,111 -1361,235 -26,177 120,277 288,285 230,12 1278,-117 1560,-143z"/>
     <path class="fil13" d="M11406 10960c172,41 310,42 495,41 175,0 325,-35 488,-36l-11 -3 -41 -5c7,-9 6,-9 17,-24 2,-3 10,-13 12,-15 1,-2 5,-6 6,-8 2,-1 5,-5 7,-7l0 -28c-1,-82 -7,-96 -64,-122 -77,53 -331,41 -442,40 -82,0 -164,1 -246,-2 -131,-5 -209,20 -212,-40 -51,68 -44,134 -9,209z"/>
     <path class="fil18" d="M13564 10630l5 12 776 2c-71,-28 -383,-8 -487,-12l3 -615 187 -12c-95,3 -419,-17 -477,10l-7 615z"/>
     <path class="fil25" d="M20051 10871c50,18 11,-15 41,33l142 314c160,19 262,28 324,151 13,-29 -28,-242 -33,-343 -7,-136 17,-138 -28,-269l-37 -77c-69,26 -144,62 -209,95 -39,20 -61,32 -100,51 -35,16 -72,27 -100,45z"/>
     <path class="fil7" d="M9992 7584c47,24 57,18 120,21 1,3 2,5 2,9l-2 36 157 -1c-47,50 -233,77 -241,76 72,30 158,27 250,33l-39 36c-42,28 -106,36 -119,82l229 1c-27,71 -45,46 -58,101l199 -5c-20,71 -44,61 -59,127 78,-4 222,-133 263,-175 -32,-34 -85,-71 -122,-104 -123,-109 -265,-276 -274,-461 -24,11 -70,24 -91,34 -53,29 -21,14 -32,33 -73,136 -139,65 -183,157z"/>
     <path class="fil9" d="M11652 12712l53 171 7 56 -5 257 132 -5c-76,-23 -115,-177 -89,-292 171,36 -69,59 158,312 -20,-34 -31,-57 -35,-109 -10,-141 44,-119 55,-123 60,75 -17,103 28,206 45,104 85,68 132,122 152,0 201,-6 249,-114 -57,-12 -56,-66 -136,-146 -168,-171 -152,-136 -318,-255 -59,-41 -82,-85 -146,-124l-85 44z"/>
     <path class="fil5" d="M11433 10739l-18 12c3,60 81,35 212,40 82,3 164,2 246,2 111,1 365,13 442,-40 -29,-22 -9,-13 -60,-14 39,-73 34,-77 14,-164 -33,-16 -59,-26 -109,-29 -171,41 -420,47 -587,-2 -143,18 -105,80 -96,195l-44 0z"/>
     <path class="fil18" d="M15898 10586c-37,65 -150,184 -208,256 -34,42 -64,80 -102,131 -40,54 -64,93 -36,177l558 -624c182,-166 207,-265 645,-151 165,43 141,81 206,93l7 -16c-64,-39 18,-77 -226,-159 -105,-35 -210,-68 -350,-57 -150,11 -200,63 -280,141 -72,71 -134,139 -214,209z"/>
     <polygon class="fil25" points="13402,11223 13690,11224 13690,10654 13569,10642 13564,10630 13402,10630 "/>
     <path class="fil28" d="M12968 13621c58,32 112,46 154,88 53,54 29,124 110,124 9,-70 -43,-126 -79,-155 -21,-17 -51,-35 -78,-44 -23,-8 -30,-7 -55,-14l-21 -6c-2,0 -9,1 -10,-3 -2,-4 -7,-2 -10,-4 -3,-110 34,-130 149,-111 67,11 131,37 180,68 41,25 110,78 102,152 -8,76 -61,6 -50,188l21 24c2,2 5,5 7,7 31,23 76,27 131,74 69,59 46,124 127,128 3,-99 -92,-168 -168,-193 -18,-6 -31,-7 -41,-11 -4,-1 -17,-5 -22,-7 -30,-13 -9,1 -32,-18l3 -74c77,-58 186,-33 284,10 132,57 112,80 164,205 100,16 138,-7 214,43 82,0 77,-40 47,-97 -73,-42 -99,-78 -215,-51 -63,-96 -19,-111 -154,-168 -84,-36 -178,-55 -281,-46 3,-143 28,-175 -99,-244 -83,-44 -178,-66 -285,-68 -121,-5 -125,103 -93,203z"/>
     <path class="fil28" d="M15633 10275c-39,16 -123,66 -145,95l-59 238 222 -146c34,76 22,176 58,236l189 -112c80,-70 142,-138 214,-209 80,-78 130,-130 280,-141l-99 -43c-123,119 -524,284 -660,82z"/>
     <path class="fil23" d="M13814 12501c181,90 300,-47 386,-131 79,-77 257,-208 90,-344 -121,23 -244,114 -301,174 -47,52 -168,210 -175,301z"/>
     <path class="fil10" d="M1102 12292c39,-49 43,-133 174,-192 262,-119 587,115 592,455 40,-17 15,28 34,-115l46 -389c-196,-11 -662,-43 -805,-105 0,123 -41,219 -41,346z"/>
     <path class="fil24" d="M12455 10753c34,22 87,30 134,62 31,22 72,65 96,96 79,106 62,196 24,322l120 -23c11,-6 35,-16 49,-26 22,-15 10,-4 22,-18 17,-20 11,-13 16,-31 9,-133 9,-218 -58,-316 -72,-105 -113,-109 -191,-189 -89,0 -201,48 -212,123z"/>
     <path class="fil10" d="M15618 13511l214 0 97 601c13,-652 445,-609 566,-404l33 53c0,-104 -40,-174 -40,-272 -137,-6 -293,11 -437,14 -83,2 -396,-19 -433,8z"/>
     <path class="fil14" d="M12379 10875l0 28 -1 59 11 3c11,55 14,79 38,120 27,44 46,45 54,91 56,12 10,-4 44,17 45,27 11,6 31,27l153 13c38,-126 55,-216 -24,-322 -24,-31 -65,-74 -96,-96 -47,-32 -100,-40 -134,-62 -46,23 -24,-3 -50,54 -7,16 -5,15 -11,30 -1,3 -2,7 -3,10l-8 19c-1,2 -3,7 -4,9z"/>
     <path class="fil28" d="M14056 10558c135,8 256,19 328,-51 18,-112 -5,-151 -98,-175 78,-201 -52,-195 -224,-188l-6 414z"/>
     <path class="fil28" d="M13684 14438c81,8 129,17 216,7 94,-10 94,-20 102,-112l-139 11c8,-101 77,-178 175,-196l4 -15c-128,13 -158,113 -197,177 -10,17 -9,15 -20,26 -84,-1 -149,-21 -231,-19 -88,1 -156,5 -238,-4 -261,-27 -252,-60 -403,-91l1 84c79,55 209,86 327,102 100,13 339,6 403,30z"/>
     <path class="fil10" d="M10781 13962c4,62 67,504 82,530 37,-79 33,-318 192,-420 68,-43 165,-55 248,-18 114,51 86,96 161,168 -16,-52 -50,-216 -55,-272 -166,-3 -491,39 -628,12z"/>
     <path class="fil23" d="M2925 4439c45,37 57,94 123,173 125,149 354,332 563,332l-8 -146c12,-44 -28,-23 40,-30 -42,-21 -155,-40 -213,-60 -272,-93 -338,-193 -501,-318l-4 49z"/>
     <path class="fil28" d="M20997 10520c-49,4 -29,2 -64,14 -9,62 -8,125 6,178 55,176 322,198 525,145 190,-50 337,-162 321,-391 -42,-4 -46,-13 -91,-14 -11,216 -113,320 -320,338 -101,9 -212,-1 -283,-41 -85,-49 -100,-106 -94,-229z"/>
     <path class="fil28" d="M11652 12712l85 -44c64,39 87,83 146,124 166,119 150,84 318,255 80,80 79,134 136,146 39,-35 50,-56 30,-105 -73,-175 -372,-348 -449,-414 -32,-27 -51,-53 -82,-81 -69,-63 -75,-60 -113,-52l-37 1 7 86c4,4 13,16 13,15 1,-2 5,5 7,8 -35,45 -72,38 -61,61z"/>
     <path class="fil21" d="M11573 10544c167,49 416,43 587,2 20,-28 41,-43 24,-102 -18,-59 -48,-39 -106,-58 -120,37 -321,47 -423,-5 -3,2 -8,1 -10,5l-72 25c-18,75 -20,58 0,133z"/>
     <path class="fil29" d="M15499 9352c-77,-29 -170,28 -276,-11 -125,-45 -115,-109 -183,-143 -107,42 -77,248 121,327 150,59 394,-15 338,-173z"/>
     <path class="fil9" d="M2206 9573l-388 -23 -79 -7 -58 230c214,0 478,-24 571,-168l-46 -32z"/>
     <path class="fil7" d="M21888 10056c33,126 75,260 216,283 72,11 104,-1 131,-37 -209,0 -232,-110 -232,-273 33,47 38,151 180,160 105,7 172,-54 175,-160l-51 72c-22,21 -62,43 -89,48 -120,23 -223,-107 -124,-207 91,-92 175,-116 223,-186 -51,-13 -81,-43 -109,-65l-146 191c-37,41 -156,145 -174,174z"/>
     <path class="fil28" d="M13962 11129c69,-52 0,-68 95,-73 45,19 26,28 55,71l117 2c-14,-71 -93,-310 -121,-358l-128 1c-27,45 -108,288 -121,357l103 0z"/>
     <path class="fil28" d="M21488 11505l-13 81c34,36 192,132 114,323 -143,352 -925,179 -635,-279l-71 1c-127,355 87,523 438,511 251,-8 385,-242 317,-439 -9,-26 -25,-54 -43,-77l-49 -51 9 -87c-11,-43 6,-38 -28,-25 -20,7 -13,15 -39,42z"/>
     <path class="fil7" d="M11591 8396c18,54 25,100 27,168 8,-19 5,-15 16,-31 14,-20 6,-10 20,-23l21 91 43 -79c18,-29 6,-11 19,-26 29,42 18,82 44,125l46 -97c57,42 31,72 71,122l71 -147c44,52 23,82 51,145 41,-101 44,-271 38,-404 -29,53 -59,93 -119,122 -84,39 -90,10 -120,111 -21,-33 2,-45 -14,-76 -70,23 -146,7 -214,-1z"/>
     <path class="fil9" d="M15927 8977l69 -2c-1,90 -78,98 -69,2zm22 -45c-69,74 -139,211 -68,322 106,23 151,-4 202,-81 66,-101 67,-136 32,-245 -83,-27 -180,-55 -206,-135 -6,62 17,102 40,139z"/>
     <path class="fil23" d="M13552 12154c45,15 84,54 153,31 37,-12 94,-60 131,-86 86,-61 210,-97 217,-205l-269 2c-91,97 -61,7 -232,258z"/>
     <path class="fil12" d="M15818 12813c246,-36 442,-3 603,-178l-14 -12c-2,-2 -6,-4 -8,-6l-243 -73c-65,32 -108,101 -172,150 -38,29 -123,105 -166,119z"/>
     <path class="fil30" d="M3763 4308c70,-62 223,-79 318,-61 43,7 72,14 97,45 46,-34 145,-146 99,-239 -59,-9 -50,-4 -78,30 -29,180 -462,141 -514,4 -1,-1 -14,-20 -19,-25 -22,-24 11,1 -25,-19 -135,88 60,236 122,265z"/>
     <path class="fil9" d="M21579 9127l-3 -41c12,-5 -5,-12 32,-10 66,2 47,95 -29,51zm75 -126c-52,15 -63,21 -88,71 -71,135 -49,358 112,278 129,-65 164,-403 -24,-349z"/>
     <path class="fil9" d="M10731 8919c-162,68 -186,411 13,323 52,-24 111,-120 122,-184 15,-90 -41,-178 -135,-139z"/>
     <path class="fil31" d="M21198 9509c-80,3 -26,42 -98,82 -37,21 -291,81 -355,-38 -15,-28 -9,-23 -13,-30 -16,-31 4,-16 -26,-36 -103,57 36,262 205,268 138,5 339,-99 287,-246z"/>
     <path class="fil19" d="M14929 8706c-39,-69 45,-93 60,-43 14,50 -19,62 -60,43zm-66 -210c9,85 33,71 47,119 13,41 -16,96 -19,144 -5,104 67,222 151,153 50,-41 82,-206 48,-285 -42,-97 -110,7 -227,-131z"/>
     <path class="fil24" d="M11655 10381c102,52 303,42 423,5 16,-17 30,-48 23,-79 -11,-48 -37,-46 -91,-47 -117,21 -152,36 -273,-3 -107,12 -82,7 -82,124z"/>
     <path class="fil18" d="M22116 12450c-5,93 -10,190 -12,283 -1,85 -6,168 -3,232l79 41 28 0c0,-207 13,-366 13,-576l-105 20z"/>
     <path class="fil9" d="M20537 8958l60 -3c43,91 -91,105 -60,3zm152 -72c-77,-20 -149,-22 -166,69 -72,377 354,359 166,-69z"/>
     <path class="fil23" d="M21114 10234c-34,51 -26,25 -26,98 100,31 142,68 280,37 82,-18 158,-75 184,-135 3,5 9,4 12,12 24,70 -25,-26 29,23l0 -90c-121,87 -342,54 -479,55z"/>
     <path class="fil23" d="M2342 3581c2,-61 7,-97 23,-140 79,-3 103,34 131,87 2,13 -108,196 9,250 172,80 134,-310 -59,-382 -153,-57 -147,110 -104,185z"/>
     <path class="fil14" d="M12916 11135c162,-84 100,-500 -200,-516 -7,-1 -22,-8 -49,11 78,80 119,84 191,189 67,98 67,183 58,316z"/>
     <path class="fil9" d="M9693 8717c44,-32 36,-31 87,-11 -8,61 24,61 -92,65 -2,1 -6,0 -9,1 -15,250 200,302 199,-13 0,-157 -156,-177 -185,-42z"/>
     <path class="fil14" d="M11805 10147c61,24 91,18 150,-3 39,-205 -28,-221 -54,-320 -119,10 -123,244 -96,323z"/>
     <path class="fil28" d="M13032 13999c-100,18 -405,-54 -463,-106 -34,20 -30,-41 -33,56 -2,42 6,33 35,52 72,46 292,90 381,99 28,-27 67,-56 80,-101z"/>
     <path class="fil30" d="M9756 9479c145,-13 256,31 312,130 80,-36 231,-104 153,-209 -19,12 -60,139 -294,64 -152,-49 -124,-98 -134,-148 -15,-69 18,-31 -36,-54 -64,44 -29,158 -1,217z"/>
     <path class="fil14" d="M9825 12220c53,-46 210,-253 243,-324l-232 1c7,84 -7,83 -11,153 -3,53 0,116 0,170z"/>
     <path class="fil7" d="M3600 3022c-48,-147 -392,-29 -419,76 -35,140 87,-32 297,-41 73,-4 86,11 122,-35z"/>
     <path class="fil28" d="M13938 9865c-72,-87 -48,35 -157,-8 -29,-26 -50,-53 -27,-106 29,-67 76,-21 116,-24 108,-8 -38,-129 -146,-59 -60,38 -75,172 -18,235 64,72 186,40 232,-38z"/>
     <path class="fil25" d="M3763 4308c107,106 313,83 415,-16 -25,-31 -54,-38 -97,-45 -95,-18 -248,-1 -318,61z"/>
     <path class="fil28" d="M3685 4087c52,137 485,176 514,-4l-6 -12c-120,59 -286,57 -417,20 -39,-11 -92,-41 -91,-4z"/>
     <path class="fil28" d="M21753 11471c-6,-34 -122,-213 -151,-275 -23,-49 -44,-104 -60,-161 -40,-135 -10,-124 -58,-141 -42,28 -39,17 -25,86 23,114 120,301 176,401 38,67 32,106 118,90z"/>
     <path class="fil7" d="M4153 3029c53,33 136,14 202,31 90,25 96,71 173,71 6,-190 -389,-252 -375,-102z"/>
     <path class="fil16" d="M11737 10257c121,39 156,24 273,3 27,-55 12,-68 0,-122l-55 6c-59,21 -89,27 -150,3l-54 -11c-32,61 -33,52 -14,121z"/>
     <path class="fil25" d="M10068 9609c-56,-99 -167,-143 -312,-130 58,130 146,165 312,130z"/>
     <path class="fil23" d="M16593 9646c65,2 81,-19 118,-50 21,-18 33,-32 42,-59 41,-116 -33,-49 62,-82 16,29 22,49 27,98 -1,-2 -1,-7 -1,-5l2 -40c-1,-36 -1,-39 -21,-59 -67,-69 -282,57 -229,197z"/>
     <path class="fil32" d="M3254 3369c29,119 60,187 196,188 154,1 206,-123 191,-158 -40,64 -104,111 -216,96 -122,-17 -104,-81 -152,-166l-101 1c14,6 52,26 82,39z"/>
     <path class="fil23" d="M22508 9378c52,21 45,19 63,84 -19,-50 -16,-130 -105,-102 -46,14 -118,85 -136,133 -49,131 113,153 154,-52 6,-34 -2,-34 24,-63z"/>
     <path class="fil32" d="M4154 3384c-8,128 108,178 235,140 109,-33 111,-142 123,-165 21,-37 22,-12 64,-53l-90 -2c-26,227 -291,206 -332,80z"/>
     <path class="fil28" d="M20160 11218l74 0 -142 -314c-30,-48 9,-15 -41,-33l-33 18c27,120 104,220 142,329z"/>
     <path class="fil23" d="M11526 9381c-101,-16 -244,92 -215,176 20,59 124,19 160,-86 34,-96 -33,-40 62,-69l23 85c-12,-53 11,-34 -30,-106z"/>
     <path class="fil14" d="M14002 14333c3,-3 5,-7 6,-9 17,-31 29,-53 30,-176 -98,18 -167,95 -175,196l139 -11z"/>
     <path class="fil25" d="M19955 10952c46,27 55,82 80,132 23,44 47,89 60,136l65 -2c-38,-109 -115,-209 -142,-329 -44,13 -58,10 -63,63z"/>
     <path class="fil14" d="M20981 11161l189 -53c-33,-70 -58,-68 -82,-110 -76,2 -104,77 -107,163z"/>
     <path class="fil18" d="M21847 15487l136 -18 5 -165c-94,22 -127,80 -141,183z"/>
     <path class="fil18" d="M20833 15488l130 -19 8 -86 -2 -28 -4 -54c-75,18 -127,93 -132,187z"/>
     <path class="fil24" d="M6118 10667c-54,-109 -46,-170 4,-276 -57,-2 -59,-3 -78,46 -10,26 -19,64 -19,97 0,111 29,140 93,133z"/>
     <path class="fil28" d="M21207 11918c-74,11 -70,-6 -90,-22l-19 -15c19,79 67,94 140,57 70,39 125,49 152,-41 -72,46 -127,66 -102,-49l-77 -9 -4 79z"/>
     <path class="fil28" d="M13045 13850c25,-124 -91,-234 -224,-208 53,4 105,43 129,76 43,61 22,122 95,132z"/>
     <path class="fil28" d="M13457 14160c45,-90 -91,-213 -205,-207 40,35 80,41 113,87 45,62 20,113 92,120z"/>
     <path class="fil28" d="M14929 8706c41,19 74,7 60,-43 -15,-50 -99,-26 -60,43z"/>
     <path class="fil28" d="M20537 8958c-31,102 103,88 60,-3l-60 3z"/>
     <path class="fil28" d="M21344 11754c65,15 89,-62 4,-75 -12,18 -13,-18 -17,31 -4,61 7,34 13,44z"/>
     <path class="fil28" d="M21124 11742c72,12 86,-87 -3,-68 -8,23 -12,5 -9,35 2,23 6,23 12,33z"/>
     <path class="fil28" d="M15927 8977c-9,96 68,88 69,-2l-69 2z"/>
     <path class="fil28" d="M21579 9127c76,44 95,-49 29,-51 -37,-2 -20,5 -32,10l3 41z"/>
    </g>
   </g>
  </g>
  <path class="fil33" d="M1939 0l12750 0c1067,0 1939,873 1939,1939l0 10860c0,1066 -872,1939 -1939,1939l-12750 0c-1067,0 -1939,-873 -1939,-1939l0 -10860c0,-1067 872,-1939 1939,-1939z"/>
 </g>
</svg>
