<?xml version="1.0" encoding="UTF-8"?>
<svg xmlns="http://www.w3.org/2000/svg" xmlns:xlink="http://www.w3.org/1999/xlink" viewBox="0 0 230.4 360">
  <defs>
    <style>
      .cls-1, .cls-2 {
        fill: #fff;
      }

      .cls-1, .cls-3 {
        opacity: .2;
      }

      .cls-4 {
        fill: url(#linear-gradient);
      }

      .cls-4, .cls-5, .cls-6 {
        mix-blend-mode: color-burn;
        opacity: .5;
      }

      .cls-7 {
        clip-path: url(#clippath-4);
      }

      .cls-8 {
        stroke: #b32040;
      }

      .cls-8, .cls-9, .cls-10 {
        stroke-linecap: round;
        stroke-linejoin: round;
      }

      .cls-8, .cls-9, .cls-10, .cls-11, .cls-12, .cls-13 {
        fill: none;
      }

      .cls-14 {
        fill: #f4eefb;
      }

      .cls-15 {
        stroke-width: .75px;
      }

      .cls-15, .cls-16, .cls-17, .cls-12, .cls-18, .cls-13, .cls-19, .cls-20, .cls-21 {
        stroke-miterlimit: 10;
      }

      .cls-15, .cls-16, .cls-22, .cls-21 {
        fill: #fef1d7;
      }

      .cls-15, .cls-17, .cls-18, .cls-13, .cls-21 {
        stroke: #231f20;
      }

      .cls-23 {
        fill: #633952;
      }

      .cls-24 {
        fill: #f7a192;
      }

      .cls-25 {
        fill: #ffac99;
      }

      .cls-26 {
        fill: #a1ce32;
      }

      .cls-9 {
        opacity: .71;
        stroke: #a1d6d4;
      }

      .cls-10 {
        stroke: #e0483a;
      }

      .cls-5 {
        fill: url(#linear-gradient-4);
      }

      .cls-27 {
        fill: url(#radial-gradient);
        mix-blend-mode: multiply;
      }

      .cls-16 {
        stroke-width: .25px;
      }

      .cls-16, .cls-19, .cls-20 {
        stroke: #531100;
      }

      .cls-17, .cls-28 {
        fill: #469bb2;
      }

      .cls-29 {
        fill: #821f38;
      }

      .cls-30 {
        fill: #f99b8c;
      }

      .cls-31 {
        fill: #4f2f44;
      }

      .cls-32 {
        clip-path: url(#clippath-1);
      }

      .cls-33, .cls-3 {
        fill: #c7c0ce;
      }

      .cls-34 {
        isolation: isolate;
      }

      .cls-6 {
        fill: url(#linear-gradient-3);
      }

      .cls-35 {
        fill: #f63b50;
      }

      .cls-36 {
        fill: #8c4d34;
      }

      .cls-37 {
        fill: #e4ffd2;
        opacity: .66;
      }

      .cls-38 {
        fill: #737577;
      }

      .cls-39 {
        fill: #262262;
      }

      .cls-40 {
        fill: url(#linear-gradient-2);
        mix-blend-mode: overlay;
      }

      .cls-40, .cls-12 {
        opacity: .4;
      }

      .cls-41 {
        fill: #27292b;
      }

      .cls-42 {
        fill: #a8a2af;
      }

      .cls-43 {
        fill: #ea3650;
      }

      .cls-12 {
        stroke: #f9f8f7;
        stroke-width: 5px;
      }

      .cls-44 {
        clip-path: url(#clippath-2);
      }

      .cls-18, .cls-19 {
        fill: #5cb3d2;
      }

      .cls-45 {
        fill: #603913;
        opacity: .55;
      }

      .cls-46 {
        fill: #33363a;
      }

      .cls-47 {
        fill: #3e2336;
      }

      .cls-19, .cls-20 {
        stroke-width: .5px;
      }

      .cls-48 {
        clip-path: url(#clippath);
      }

      .cls-20 {
        fill: #fdf8db;
      }

      .cls-21 {
        stroke-width: 2px;
      }
    </style>
    <clipPath id="clippath">
      <rect class="cls-11" x="500.8" width="230.4" height="360" rx="12.28" ry="12.28"/>
    </clipPath>
    <clipPath id="clippath-1">
      <path class="cls-11" d="M679.74,90.54v125.62h-118.88v-90.72h-2.85c-.94,0-1.71-.76-1.71-1.7s.77-1.71,1.71-1.71c.26,0,.51.06.74.17.37-.71,1.11-1.2,1.98-1.2.05,0,.09,0,.13,0v-19.12c.09-20.02,14.42-37.31,34.97-45.25h50.57c16.54,6.39,29.05,18.84,33.33,33.9Z"/>
    </clipPath>
    <clipPath id="clippath-2">
      <rect class="cls-11" width="230.4" height="360" rx="16.7" ry="16.7"/>
    </clipPath>
    <radialGradient id="radial-gradient" cx="114.51" cy="483.59" fx="114.51" fy="483.59" r="118.8" gradientTransform="translate(0 57.45) scale(1 .49)" gradientUnits="userSpaceOnUse">
      <stop offset="0" stop-color="#fff" stop-opacity="0"/>
      <stop offset=".11" stop-color="#f7fafc" stop-opacity=".08"/>
      <stop offset=".34" stop-color="#e5eff5" stop-opacity=".28"/>
      <stop offset=".65" stop-color="#c7ddea" stop-opacity=".61"/>
      <stop offset="1" stop-color="#a4c7dd"/>
    </radialGradient>
    <clipPath id="clippath-4">
      <rect class="cls-11" y="280.68" width="229.02" height="79.32"/>
    </clipPath>
    <linearGradient id="linear-gradient" x1="0" y1="332.23" x2="266.26" y2="332.23" gradientUnits="userSpaceOnUse">
      <stop offset="0" stop-color="#fff" stop-opacity="0"/>
      <stop offset=".01" stop-color="#fdfefe" stop-opacity=".01"/>
      <stop offset="1" stop-color="#aeb5b7"/>
    </linearGradient>
    <linearGradient id="linear-gradient-2" x1="114.32" y1="328.53" x2="112.9" y2="292.27" gradientUnits="userSpaceOnUse">
      <stop offset="0" stop-color="#fff" stop-opacity="0"/>
      <stop offset=".29" stop-color="#fdfcfc" stop-opacity=".28"/>
      <stop offset=".97" stop-color="#f9f7f7" stop-opacity=".97"/>
      <stop offset="1" stop-color="#f9f7f7"/>
    </linearGradient>
    <linearGradient id="linear-gradient-3" x1="-27.78" y1="325.43" x2="150.88" y2="325.43" xlink:href="#linear-gradient"/>
    <linearGradient id="linear-gradient-4" x1="94.75" y1="325.43" x2="150.94" y2="325.43" xlink:href="#linear-gradient"/>
  </defs>
  <g class="cls-34">
    <g id="Layer_1" data-name="Layer 1">
      <g class="cls-48">
        <g class="cls-32">
          <image width="7349" height="2450" transform="translate(24.84 55.72) scale(.1)" xlink:href="../../../../../Users/victus/Downloads/15251042_17Z_2104.w026.n002.352B.p1.352.jpg"/>
        </g>
      </g>
      <g class="cls-44">
        <g>
          <rect class="cls-37" width="230.4" height="360"/>
          <g>
            <g>
              <path class="cls-26" d="M0,323.12v-30.14s1.08-4.19,4.06-3.98,6.64,3.98,6.64,3.98c0,0-2.29-7.33,0-7.33s3.44,3.14,3.44,3.14c0,0,2.29-6.07,5.95-6.07s5.27,7.96,5.27,7.96c0,0,2.75-3.55,4.81-3.56s0,3.77,0,3.77c0,0,10.54-1.89,13.74-.42,0,0-4.12-2.92,0-3.35s9.52,4.18,9.52,4.18c0,0,.34-3.97,2.85-4.18,2.51-.21,2.24,2.93,2.24,2.93,0,0,7.6-8.17,11.95-7.33s9.16,8.8,9.16,8.8c0,0,.66-2.3,3.53-2.3s9.12,2.72,9.12,2.72c0,0-1.8-5.02.68-4.81,2.48.2,5.05,4.6,5.05,4.6,0,0,4.33-8.21,9.35-7.35,5.02.86,0,6.72,0,6.72,0,0,3.99-3.77,7.25-2.51,3.26,1.26,5.81,2.93,5.81,2.93,0,0-1.34-5.02,2.06-4.39,3.4.62,6.42,3.35,6.42,3.35,0,0,.15-3.97,2.69-3.35s-.6,4.6-.6,4.6c0,0,5.53-2.72,9.26-2.51,3.73.21,6.83,2.51,6.83,2.51,0,0,1.37-4.18,5.21-4.6,3.83-.42,7.53,3.35,7.53,3.35,0,0,1.34-4.18,3.17-3.35s0,5.44,0,5.44c0,0,2.54-6.06,7.91-5.44,5.37.62,10.64,4.39,10.64,4.39,0,0-.23-4.81,1.6-4.39s3.21,3.35,3.21,3.35c0,0,.46-5.03,4.35-4.82s9.85,6.49,9.85,6.49c0,0,2.52-3.35,4.81-3.14s1.6,3.56,1.6,3.56c0,0,5.73-6.48,7.79-5.44s2.29,5.02,2.29,5.02c0,0,4.48-3.14,11.97-2.3v33.28H0Z"/>
              <path class="cls-27" d="M0,315.12v-30.14s1.08-4.19,4.06-3.98,6.64,3.98,6.64,3.98c0,0-2.29-7.33,0-7.33s3.44,3.14,3.44,3.14c0,0,2.29-6.07,5.95-6.07s5.27,7.96,5.27,7.96c0,0,2.75-3.55,4.81-3.56s0,3.77,0,3.77c0,0,10.54-1.89,13.74-.42,0,0-4.12-2.92,0-3.35s9.52,4.18,9.52,4.18c0,0,.34-3.97,2.85-4.18,2.51-.21,2.24,2.93,2.24,2.93,0,0,7.6-8.17,11.95-7.33s9.16,8.8,9.16,8.8c0,0,.66-2.3,3.53-2.3s9.12,2.72,9.12,2.72c0,0-1.8-5.02.68-4.81,2.48.2,5.05,4.6,5.05,4.6,0,0,4.33-8.21,9.35-7.35,5.02.86,0,6.72,0,6.72,0,0,3.99-3.77,7.25-2.51,3.26,1.26,5.81,2.93,5.81,2.93,0,0-1.34-5.02,2.06-4.39,3.4.62,6.42,3.35,6.42,3.35,0,0,.15-3.97,2.69-3.35s-.6,4.6-.6,4.6c0,0,5.53-2.72,9.26-2.51,3.73.21,6.83,2.51,6.83,2.51,0,0,1.37-4.18,5.21-4.6,3.83-.42,7.53,3.35,7.53,3.35,0,0,1.34-4.18,3.17-3.35s0,5.44,0,5.44c0,0,2.54-6.06,7.91-5.44,5.37.62,10.64,4.39,10.64,4.39,0,0-.23-4.81,1.6-4.39s3.21,3.35,3.21,3.35c0,0,.46-5.03,4.35-4.82s9.85,6.49,9.85,6.49c0,0,2.52-3.35,4.81-3.14s1.6,3.56,1.6,3.56c0,0,5.73-6.48,7.79-5.44s2.29,5.02,2.29,5.02c0,0,4.48-3.14,11.97-2.3v33.28H0Z"/>
              <g class="cls-7">
                <g>
                  <path class="cls-36" d="M229.02,306.98c-35.25-1.63-74.11-2.52-114.51-2.52s-79.26.9-114.51,2.52v53.02h229.02v-53.02Z"/>
                  <path class="cls-4" d="M229.02,306.98c-35.25-1.63-74.11-2.52-114.51-2.52s-79.26.9-114.51,2.52v53.02h229.02v-53.02Z"/>
                  <path class="cls-40" d="M229.02,306.98c-35.25-1.63-74.11-2.52-114.51-2.52s-79.26.9-114.51,2.52v53.02h229.02v-53.02Z"/>
                  <path class="cls-12" d="M229.02,314.83c-35.25-1.63-74.01-2.52-114.4-2.52s-79.37.9-114.62,2.52"/>
                </g>
              </g>
              <g>
                <ellipse class="cls-6" cx="85.81" cy="325.43" rx="68.47" ry="2.09"/>
                <path class="cls-5" d="M152.01,325.43c0,.36-9.64.66-21.54.66s-21.53-.29-21.53-.66,9.64-.66,21.53-.66,21.54.29,21.54.66Z"/>
              </g>
            </g>
            <g>
              <ellipse class="cls-45" cx="182.7" cy="325.58" rx="30.58" ry="1.62"/>
              <ellipse class="cls-45" cx="131.59" cy="322.95" rx="16.66" ry=".77"/>
              <ellipse class="cls-45" cx="69.84" cy="322.18" rx="16.66" ry=".77"/>
              <g>
                <g>
                  <path class="cls-2" d="M100.46,271.03c.05,3.53,2.08,6.38,4.56,6.36,2.47-.02,4.44-2.91,4.39-6.44-.05-3.54-2.08-6.38-4.55-6.36-2.47.02-4.44,2.91-4.39,6.44Z"/>
                  <path class="cls-38" d="M70.05,271.47c-.38-29.19,16.12-53.02,36.85-53.22,20.73-.2,37.84,23.3,38.21,52.49.38,29.19-16.12,53.02-36.85,53.22s-37.84-23.29-38.21-52.49ZM109.23,318.73c18.18-.18,32.65-21.41,32.31-47.43-.34-26.01-15.35-46.96-33.53-46.78-18.18.18-32.65,21.41-32.31,47.42.34,26.01,15.35,46.96,33.53,46.78Z"/>
                  <path class="cls-2" d="M75.51,271.95c-.34-26.16,14.21-47.51,32.5-47.69,18.28-.18,33.38,20.88,33.72,47.05.34,26.16-14.21,47.51-32.5,47.69-18.28.18-33.38-20.88-33.72-47.04ZM109.2,316.11c17.17-.17,30.83-20.22,30.52-44.79-.32-24.57-14.49-44.35-31.66-44.18-17.17.17-30.83,20.22-30.52,44.79.32,24.57,14.49,44.35,31.66,44.18Z"/>
                  <path class="cls-14" d="M102.32,271.69c.06,4.98,2.94,8.99,6.42,8.96,3.48-.03,6.25-4.1,6.19-9.09-.06-4.98-2.94-8.99-6.42-8.96-3.48.03-6.25,4.1-6.19,9.09Z"/>
                  <path class="cls-1" d="M78.92,271.92c-.3-23.48,12.75-42.64,29.16-42.8,16.41-.16,29.95,18.74,30.26,42.21.3,23.47-12.75,42.64-29.16,42.8-16.41.16-29.95-18.74-30.26-42.21ZM108.79,284.26c4.88-.05,8.76-5.74,8.67-12.72s-4.12-12.6-8.99-12.55c-4.88.05-8.76,5.74-8.67,12.72.09,6.98,4.12,12.6,8.99,12.55Z"/>
                </g>
                <g>
                  <path class="cls-46" d="M80.9,210.9l36.84.18c2.01,0,3.65-2.03,3.66-4.55h0c.01-2.52-1.6-4.58-3.61-4.59l-36.84-.18c-2.01,0-3.65,2.03-3.66,4.55h0c-.01,2.52,1.6,4.58,3.61,4.59Z"/>
                  <path class="cls-33" d="M115.06,298c.68,0,1.26-.48,1.39-1.13.03-.19.02-.38-.01-.55-.26-3.32.25-61.68.48-84.09,0-.36-.15-.71-.41-.97-.26-.26-.61-.4-.99-.41l-46.63-.23h-.01c-.38,0-.73.14-.99.4-.27.25-.42.6-.42.97l-.44,84.41c0,.76.63,1.37,1.4,1.38l46.62.23h.01ZM114.08,213.59c-.58,58.51-.73,76.17-.36,81.67l-43.86-.22.42-81.67,43.8.22Z"/>
                  <path class="cls-33" d="M115.5,213.59c.77,0,1.41-.61,1.41-1.36l.27-53,12.29.06h.01c.77,0,1.41-.61,1.41-1.36s-.63-1.37-1.4-1.38l-13.7-.07h-.01c-.77,0-1.41.61-1.41,1.36l-.28,54.37c0,.76.63,1.37,1.4,1.38h.01Z"/>
                  <path class="cls-33" d="M68.4,305.76c.77,0,1.41-.61,1.41-1.36l.03-7.99c0-.76-.63-1.37-1.4-1.37h-.01c-.77,0-1.41.61-1.41,1.36l-.03,7.99c0,.76.63,1.37,1.4,1.38h.01Z"/>
                  <path class="cls-38" d="M61.69,311.26c-1.71,4.76-.11,9.63,3.56,10.87,3.68,1.24,8.04-1.61,9.75-6.37,1.71-4.76.11-9.63-3.56-10.87-3.68-1.24-8.04,1.61-9.75,6.37Z"/>
                  <rect class="cls-46" x="119.69" y="154.86" width="15.28" height="6.09" rx=".22" ry=".22" transform="translate(253.89 316.43) rotate(-179.72)"/>
                  <path class="cls-33" d="M114.77,257.24l-54.74-.27h-.01c-.6,0-1.14.37-1.33.92l-10.23,28.63c.23.03.46.07.71.13.66.18,1.31.54,1.86,1.03l10-27.97,53.73.26h.01c.77,0,1.41-.61,1.41-1.36s-.63-1.37-1.4-1.38Z"/>
                  <path class="cls-33" d="M64.96,312.37c-.87,2.42-.06,4.89,1.81,5.52,1.87.63,4.09-.82,4.95-3.23.87-2.42.06-4.89-1.81-5.52-1.87-.63-4.09.82-4.95,3.23Z"/>
                  <rect class="cls-46" x="66.05" y="301.07" width="4.7" height="5.42" transform="translate(135.26 607.89) rotate(-179.71)"/>
                  <rect class="cls-46" x="69.65" y="219.71" width="44.86" height="25.86" transform="translate(183.01 465.73) rotate(-179.72)"/>
                </g>
                <rect class="cls-41" x="116.41" y="186.25" width="55.23" height="43.15" transform="translate(286.99 416.38) rotate(-179.71)"/>
                <rect class="cls-41" x="69.7" y="238.68" width="101.76" height="9.8" transform="translate(239.92 487.78) rotate(-179.71)"/>
                <polygon class="cls-41" points="51.15 290.44 106 290.72 108.89 280.93 54.04 280.65 51.15 290.44"/>
                <g>
                  <path class="cls-41" d="M138.21,271.57c.95-29.18,18.51-52.38,39.23-51.82,20.72.56,36.75,24.67,35.8,53.85-.95,29.18-18.51,52.38-39.23,51.82-20.72-.56-36.75-24.67-35.8-53.85ZM175.22,320.23c18.17.49,33.59-20.19,34.44-46.19.84-26-13.21-47.48-31.38-47.97-18.17-.49-33.59,20.19-34.44,46.19-.84,26,13.21,47.48,31.38,47.97Z"/>
                  <path class="cls-33" d="M143.65,272.25c.85-26.15,16.35-46.95,34.63-46.45,18.28.49,32.41,22.1,31.56,48.25-.85,26.15-16.35,46.95-34.63,46.45-18.28-.49-32.41-22.1-31.56-48.25ZM175.3,317.61c17.17.46,31.73-19.07,32.52-43.63.8-24.56-12.47-44.84-29.64-45.31-17.17-.46-31.73,19.07-32.52,43.63-.8,24.56,12.47,44.84,29.64,45.31Z"/>
                  <path class="cls-42" d="M170.44,272.97c-.16,4.98,2.53,9.1,6.01,9.19,3.48.09,6.44-3.87,6.6-8.85.16-4.98-2.53-9.1-6.01-9.19-3.48-.09-6.44,3.87-6.6,8.85Z"/>
                  <path class="cls-33" d="M174.88,273.02c-.11,3.53,1.79,6.45,4.26,6.52,2.47.07,4.56-2.74,4.68-6.28.12-3.53-1.79-6.45-4.26-6.52-2.47-.07-4.56,2.74-4.68,6.28Z"/>
                  <path class="cls-3" d="M147.44,272.35c.75-23.16,14.48-41.58,30.67-41.14,16.19.44,28.7,19.57,27.95,42.73-.75,23.16-14.48,41.58-30.67,41.14-16.19-.44-28.7-19.57-27.95-42.73ZM176.33,286c4.96.13,9.17-5.51,9.41-12.62.23-7.1-3.61-12.97-8.57-13.1-4.96-.13-9.18,5.51-9.41,12.62-.23,7.1,3.61,12.97,8.57,13.1Z"/>
                </g>
                <g>
                  <g>
                    <path class="cls-24" d="M68.09,272.07c1.99-9.73,6.2-23.53,8.75-33.35,7.51-.85,15.14,0,22.57,2.91-7.44,11.62-14.17,27.99-18.98,40.76-3.67-3.64-9.26-7.34-12.34-10.33Z"/>
                    <g>
                      <path class="cls-47" d="M77.92,288.51c.94-.09,1.78-.54,2.38-1.2.55-.62.9-1.42.9-2.29,0-1.77-.41-3.61-1.14-4.97-1.18-2.2-3.07-3.93-5.1-5.38-3.11-2.21-6.8-3.87-10.7-3.73-2.68.09-5.46,1.2-7.39,3.25-1.38,1.46-1.57,3.6-.54,5.17.11.17.23.33.37.48,5.21,5.82,13.1,9.45,21.23,8.67Z"/>
                      <path class="cls-31" d="M77.92,288.51c.94-.09,1.78-.54,2.38-1.2-.01-.19-.03-.37-.07-.56-.19-.92-.72-1.73-1.28-2.47-3.33-4.43-8.31-7.58-13.81-8.72-1.95-.4-4.05-.55-5.92.25-1.4.6-2.61,1.88-2.89,3.53.11.17.23.33.37.48,5.21,5.82,13.1,9.45,21.23,8.67Z"/>
                    </g>
                  </g>
                  <path class="cls-43" d="M96.11,210.02s-5.06,6.51-5.74,13.68l-16.68,11.36,17.3,13.22,17.64-20.84s16.89-15.42-12.52-17.42Z"/>
                  <path class="cls-29" d="M110.72,257.98c-2.21-.36-4.49-.97-6.56-1.8,1.8-1.02,3.71-1.85,5.68-2.48.42,1.45.77,2.97.88,4.28Z"/>
                  <g>
                    <path class="cls-25" d="M91.68,282.87c-1.59-11.21-2.37-27.66-3.39-39.18,7.72-3.86,16.22-5.96,25.29-5.77-3.52,15.39-4.47,35.58-4.72,51.16-5.33-2.46-12.74-4.22-17.18-6.2Z"/>
                    <g>
                      <path class="cls-47" d="M106.12,289.6c1.09-.32,1.96-1.03,2.5-1.94.49-.85.68-1.88.45-2.9-.48-2.09-1.47-4.16-2.71-5.61-2.01-2.33-4.71-3.95-7.52-5.2-4.3-1.92-9.13-3.05-13.72-2.02-3.16.71-6.15,2.63-7.89,5.48-1.24,2.02-.88,4.59.77,6.21.17.18.37.34.57.49,7.77,5.7,18.13,8.23,27.57,5.49Z"/>
                      <path class="cls-23" d="M106.12,289.6c1.09-.32,1.96-1.03,2.5-1.94-.07-.22-.14-.43-.24-.64-.48-1.04-1.32-1.87-2.19-2.63-5.17-4.48-11.93-7.08-18.78-7.2-2.42-.04-4.96.25-6.96,1.62-1.5,1.02-2.58,2.79-2.47,4.81.17.18.37.34.57.49,7.77,5.7,18.13,8.23,27.57,5.49Z"/>
                    </g>
                  </g>
                  <g>
                    <path class="cls-35" d="M140.39,213.71c2.72,6.1,2.24,13.32-.38,19.46-2.62,6.14-7.21,11.28-12.43,15.44-5.22,4.17-11.08,7.44-16.86,9.37-5.27-7.14-13.26-12.87-21.26-16.4-.81-.36-1.09-1.37-.58-2.09,2.07-2.96,4.47-5.86,6.85-8.47-.91-.99-1.4-1.95-1.75-2.99-.66-1.95-.78-4.04-.47-6.07.21-1.37.43-2.83.78-3.85,13.3-3.26,25.73-4.81,39.37-6.12"/>
                    <g>
                      <path class="cls-8" d="M97,231.25c6.58-1.66,13.74-.9,19.83,2.09"/>
                      <path class="cls-8" d="M100.8,229.18c5.99-2.26,12.52-3.06,18.87-2.32"/>
                    </g>
                  </g>
                </g>
                <g>
                  <path class="cls-25" d="M51.45,186.8s11.31,23.42,19.11,23.16c7.8-.26,17.31-8.71,17.31-8.71l-13.47-15.13s-5.48,4.65-5.92,4.4c-.44-.25-7.96-8.2-7.96-8.2l-9.06,4.47Z"/>
                  <g>
                    <g>
                      <path class="cls-39" d="M147.5,219.19c-1.98-10.66-3.57-24.63-8.09-34.49-4.52-9.85-11.86-18.84-23.67-23.54-18.9-2.32-30.5,9.35-42.51,23.37,4.43,6.69,9.4,13.02,15.91,18.75,2.66-1.39,4.25-2.47,6.06-3.68,1.32,6.66.17,16.91-2.51,23.84,17.75,7.2,38.79,5.74,54.82-4.25Z"/>
                      <g>
                        <path class="cls-9" d="M117.75,175.39c-1.55,8.01-2.22,16.18-1.98,24.34"/>
                        <path class="cls-9" d="M138.28,198.14c.96-.13,1.93-.27,2.89-.4-.43-2.53-.87-5.06-1.3-7.59"/>
                        <path class="cls-9" d="M93.53,177.03c.64,8.75,1.28,17.51,1.92,26.26"/>
                        <path class="cls-9" d="M112.79,183.23c.37,3.39,1.41,6.71,3.04,9.7"/>
                      </g>
                    </g>
                    <g>
                      <path class="cls-25" d="M120.13,164.55c-.8,3.21-2.43,6.01-4.93,7.84-2.5,1.83-5.97,2.52-8.76,1.18-2.21-1.05-3.66-3.14-4.6-5.48-.34-.85-.62-1.73-.84-2.62.63-1.82.96-3.74.97-5.66,2.89-.23,5.78-.54,8.6-1.05,2-.37,3.97-.83,5.89-1.44.15.63.34,1.25.57,1.85.2.57.44,1.13.71,1.67.64,1.33,1.45,2.57,2.4,3.69Z"/>
                      <path class="cls-47" d="M117.02,159.19c-2.13-.2-4.29-.32-6.46-.41-2.82.51-5.71.82-8.6,1.05,0,1.92-.33,3.84-.97,5.66.23.89.5,1.77.84,2.62,5.96-.2,11.84-2.85,15.89-7.24"/>
                    </g>
                  </g>
                  <path class="cls-25" d="M118.55,199.84l20.45-1.21s-.16,24.75-32.69,19.44l1.77-9.45s8.24-3.1,10.48-8.79Z"/>
                  <g>
                    <g>
                      <g>
                        <path class="cls-22" d="M46.66,188.3l-4.92,3.53,5.41,4.6s1.92-1.35,1.82-1.28,3.86-3.27,3.86-3.27l-6.16-3.59Z"/>
                        <g>
                          <path class="cls-20" d="M46.42,192.36s13.04-24.12,45.86-6.67"/>
                          <path class="cls-13" d="M50.34,190.05s8.16-9.74,24.22-8.76"/>
                          <g>
                            <polygon class="cls-22" points="22.28 171.68 19.05 171.74 38.89 190.74 42.56 179.65 22.28 171.68"/>
                            <path class="cls-21" d="M20.21,171.7l-.93-2.17s6.03-.37,15.85,6.12"/>
                            <path class="cls-16" d="M24.53,170s26.13,4.17,23.56,20.28c0,0-1.98,4.51-4.59,1.79"/>
                            <path class="cls-15" d="M28.78,173.41s14.62,6.58,16.49,13.52"/>
                          </g>
                        </g>
                        <path class="cls-19" d="M15.74,169.18s26.38,15.9,27.4,21.76c0,0,.67,3.64,2.95,2.72,1.29-.52,2.3-1.45,4.12-2.41,1.39-.73,3.27-1.48,6.12-2.09,6.59-1.41,23.07-3.78,37.17-3.16l11.94,36.91s-20.43-.68-39.04,6.89c0,0-2,2.68-4.97,1.34l-1.26-2.32s-19.81-19.39-31.43-25.28c0,0,.33-12.4-13.01-34.36Z"/>
                        <line class="cls-17" x1="50.22" y1="191.25" x2="66.39" y2="228.87"/>
                        <line class="cls-18" x1="43.49" y1="192.07" x2="59.77" y2="228.43"/>
                        <path class="cls-28" d="M43.82,192.81l15.93,35.77s1.51,2.24,1.6,2.39,3.07,1.38,5.06-1.18l-16.45-38.4s-2.93,2.14-3.87,2.27-1.85.15-2.28-.85Z"/>
                      </g>
                      <path class="cls-25" d="M21.04,196.28c-1.4-1.91-2.43-4.16-2.58-6.52-.15-2.36.67-4.85,2.46-6.4,1.79-1.55,4.59-1.97,6.6-.71.21.13.43.31.48.55.06.34-.22.63-.48.86-1.44,1.28-2.88,2.55-4.32,3.83,1.73-1.57,4.1-2.41,6.43-2.26.51.03.99.33,1.16.81.24.69-.3,1.19-.79,1.58-1.24,1-2.48,1.99-3.72,2.99,1.46-1.16,3.29-1.86,5.16-1.96.33-.02.67.09.91.33.62.63.06,1.51-.49,2.1-1.06,1.13-2.17,2.2-3.33,3.22.94-1,1.78-1.39,2.95-1.88,1.17-.49,3.11-.74,3.22.49.14,1.56-2.36,2.44-2.61,4.01.28.75.4,1.58.34,2.38-.14,2.02-3.36,4.1-5.21,3.27-.6-.27-4.79-4.77-6.19-6.68Z"/>
                    </g>
                    <g>
                      <path class="cls-25" d="M106.97,204.98c-1.64-2.72-4.68-6.17-7.73-7.06-.61-.18-1.26-.28-1.86-.11-.61.17-1.16.67-1.23,1.29-.08.67.38,1.27.8,1.78.91,1.11,1.83,2.23,2.56,3.43-3.58.26-7.15.59-10.72,1-.7.08-1.49.22-1.87.81-.3.47-.23,1.11.05,1.59.28.48.74.83,1.21,1.13,1.74,1.08,3.85,1.56,5.73,1.49-1.84.18-3.69.36-5.5.76-.58.13-1.22.32-1.53.83-.23.39-.21.89-.02,1.3s.5.75.85,1.03c1.07.89,2.43,1.38,3.8,1.62,1.37.24,2.3.29,4.06.08-1.8.36-3.04.4-4.69.6-.51.06-1.11.12-1.41.54-.3.42-.29,1.19,0,1.61s.82.75,1.27.98c1.98,1.01,4.22,1.18,6.44,1.05-1.68-.53-3.35-1.06-5.03-1.58.02,2.07,1.71,3.87,3.68,4.51,1.97.65,4.14.33,6.11-.3,3.25-1.04,6.21-2.95,8.68-5.5-1.51-4.58-1.19-8.76-3.68-12.89Z"/>
                      <path class="cls-10" d="M92.82,220.27c1.48.42,3.05.51,4.57.26"/>
                    </g>
                  </g>
                  <g>
                    <path class="cls-47" d="M130.75,93.78c2.01-1.93,3.86-4.02,4.99-6.34,1.12-2.32,1.48-4.92.48-7.17-1.75-3.93-6.97-5.36-6.48-4.26,2.02,4.54,3,12.22,1.02,17.77Z"/>
                    <path class="cls-47" d="M129.96,93.73c1.24-1.92,2.88-3.57,4.84-4.49,1.97-.92,4.28-1.03,6.19-.04,3.92,2.03,4.66,6.19,3.35,5.51-2.57-1.33-8.77-3.07-14.39-.98Z"/>
                    <g>
                      <path class="cls-25" d="M84.11,96.59c-6.97,13.6-8.31,29.98-3.66,44.46-2.3,5.01-.68,11.24,3.03,15.32,3.71,4.08,9.15,6.24,14.6,7.07,14.81,2.26,30.37-4.95,39.17-17.07,8.8-12.12,10.96-28.49,6.89-43.31-17.55-12.52-42.07-14.49-60.04-6.47Z"/>
                      <path class="cls-47" d="M78.82,134.4c-.95-11.27,1.7-22.83,7.48-32.55,1.54,3.92,4.14,7.42,7.44,10.04,1.26.99,2.8,1.9,4.38,1.58,1.99-.41,3.12-2.71,2.93-4.73-.19-2.02-1.34-3.81-2.45-5.51,2.24,2.81,5.42,4.87,8.9,5.76,1.39.36,2.96.51,4.19-.25,1.52-.93,2-3,1.6-4.74-.4-1.74-1.5-3.21-2.59-4.8,4.94,2.65,10.32,4.48,15.42,6.16.66,4.44,3.21,8.58,6.43,11.85.6,8.06,2.2,16.04,4.62,23.95,2.47-.2,4.99.13,7.43.18,2.56-6.22,5.14-12.5,6.4-19.11,1.26-6.61,1.13-13.66-1.59-19.82-2.72-6.15-8.33-11.25-15.97-12.35-2.72-3.73-6.71-6.42-11.04-8.03-4.32-1.61-8.97-2.2-13.59-2.27-12.59-.18-25.2,3.58-35.64,10.61-1.99,1.34-4.13,3.4-3.52,5.72.34,1.26,1.46,2.19,2.69,2.63,1.23.44,2.56.48,3.86.52-2.84,2.8-4.8,6.42-6.01,10.22-.53,1.64-.92,3.38-.68,5.09.24,1.71,1.22,3.4,2.81,4.08s3.74.03,4.36-1.58c-1.51,6.02-.82,12.57,2.15,17.35Z"/>
                      <path class="cls-25" d="M135.09,139.63c2.11-1.83,4.57-3.78,7.35-3.5,3.09.31,5.29,3.41,5.68,6.5.54,4.3-1.86,8.82-5.73,10.78-3.87,1.95-8.93,1.2-11.93-1.95-.1.02-5.06-3.44,4.62-11.83Z"/>
                      <g>
                        <path class="cls-47" d="M107.59,120.34c.47-2.79,2.93-4.98,5.45-4.84,2.52.13,4.78,2.57,5,5.4-3.03-2.07-7.05-2.18-10.45-.55Z"/>
                        <path class="cls-47" d="M95.56,122.18c-1.61-2.12-4.54-2.77-6.74-1.5-2.2,1.27-3.45,4.34-2.87,7.05,2.33-3.12,5.76-5.16,9.61-5.55Z"/>
                        <g>
                          <path class="cls-30" d="M112.61,143.42c-.97-2.16.36-5.06,2.97-6.46,2.61-1.41,5.5-.79,6.47,1.38.97,2.16-.36,5.06-2.97,6.46-2.61,1.41-5.5.79-6.47-1.38Z"/>
                          <path class="cls-47" d="M109.16,139.5c-.37-2.09.48-4.01,1.89-4.29,1.42-.27,2.87,1.2,3.24,3.3.37,2.09-.48,4.01-1.89,4.29-1.42.27-2.87-1.2-3.24-3.3Z"/>
                        </g>
                        <g>
                          <path class="cls-30" d="M93.51,143.76c.18-2.38-2.03-4.61-4.94-4.97-2.91-.37-5.42,1.27-5.6,3.65-.18,2.38,2.03,4.61,4.94,4.97,2.91.37,5.42-1.27,5.6-3.65Z"/>
                          <path class="cls-47" d="M95.44,138.83c-.35-2.1-1.79-3.59-3.21-3.33-1.42.26-2.28,2.17-1.93,4.27.35,2.1,1.79,3.59,3.21,3.33,1.42-.26,2.28-2.17,1.93-4.27Z"/>
                        </g>
                        <path class="cls-10" d="M99.04,141.26c.12-1.51,1.13-2.88,2.43-3.28,1.3-.4,2.79.21,3.56,1.45"/>
                        <g>
                          <path class="cls-47" d="M110.77,148.17c-.04,1.43-.85,2.94-2.32,4.05-2.66,1.99-7.02,2.53-10.13,1.42-.78-.28-1.47-.65-2.07-1.08-1.81-1.31-2.75-3.23-2.59-5.2.12-.01.23-.02.35-.03,5.15-.49,10.31-1.1,15.33-2.21.18.14.34.3.49.46.66.74.97,1.66.94,2.6Z"/>
                          <path class="cls-2" d="M109.86,145.85c-3.91,2.61-8.49,3.92-12.98,3.71-.98-.05-1.88-.56-2.51-1.38-.1-.14-.21-.28-.31-.41,5.15-.5,10.3-1.18,15.29-2.66.19.24.36.49.52.75Z"/>
                        </g>
                      </g>
                    </g>
                  </g>
                </g>
                <g>
                  <polygon class="cls-46" points="127.78 245.24 179.1 245.46 179.25 219.35 127.94 219.12 127.78 245.24"/>
                  <path class="cls-33" d="M178.79,298.29c.76,0,1.43-.49,1.55-1.15.04-.18.03-.37-.01-.54-.28-3.33.29-62.27.54-84.91,0-.37-.17-.72-.46-.98-.29-.26-.69-.41-1.11-.41l-52.19-.23h-.01c-.87,0-1.58.61-1.58,1.38l-.5,85.22c0,.76.7,1.38,1.57,1.39l52.19.23h.01ZM177.7,213.06c-.64,59.05-.82,76.9-.41,82.46l-49.09-.22.47-82.46,49.03.22Z"/>
                  <path class="cls-33" d="M179.29,213.05c.87,0,1.58-.61,1.58-1.38l.31-53.51,13.76.07h.01c.87,0,1.58-.61,1.58-1.38s-.7-1.38-1.57-1.39l-15.34-.07h-.01c-.42,0-.82.15-1.11.4-.31.26-.47.61-.47.98l-.32,54.9c0,.76.7,1.38,1.57,1.39h.01Z"/>
                  <path class="cls-33" d="M126.55,306.12c.87,0,1.58-.61,1.58-1.38l.05-8.06c0-.76-.7-1.38-1.57-1.39h-.01c-.87,0-1.58.61-1.58,1.38l-.05,8.06c0,.76.7,1.38,1.57,1.39h.01Z"/>
                  <path class="cls-46" d="M119.05,311.68c-1.91,4.81-.13,9.72,3.99,10.98,4.12,1.26,9.01-1.62,10.92-6.43,1.91-4.81.13-9.72-3.99-10.98-4.12-1.26-9.01,1.62-10.92,6.43Z"/>
                  <path class="cls-46" d="M144.42,210.36l37.73.17c2.06,0,3.73-1.44,3.74-3.24h0c.01-1.8-1.65-3.27-3.7-3.28l-37.73-.17c-2.06,0-3.73,1.44-3.74,3.24h0c-.01,1.8,1.65,3.27,3.7,3.28Z"/>
                  <path class="cls-46" d="M184.11,159.87l16.85.07c.07,0,.13-.05.13-.12l.03-5.9c0-.07-.06-.12-.13-.12l-16.85-.07c-.07,0-.13.05-.13.12l-.03,5.9c0,.07.06.12.13.12Z"/>
                  <path class="cls-33" d="M178.48,257.13l-61.27-.27h-.01c-.68,0-1.27.37-1.49.93l-11.99,30.26c1.05.02,2.11.35,2.97.93l11.63-29.35,60.14.27h.01c.87,0,1.58-.61,1.58-1.38s-.7-1.38-1.57-1.39Z"/>
                  <path class="cls-33" d="M122.72,312.8c-.97,2.44-.07,4.94,2.03,5.58,2.09.64,4.57-.82,5.55-3.26.97-2.44.06-4.94-2.03-5.58-2.09-.64-4.57.82-5.55,3.27Z"/>
                  <polygon class="cls-46" points="123.91 306.84 129.18 306.87 129.21 301.4 123.95 301.37 123.91 306.84"/>
                </g>
                <g>
                  <polygon class="cls-42" points="33.43 282.25 106.67 291.25 106.71 289.68 89.91 280.59 33.38 280.3 33.43 282.25"/>
                  <polygon class="cls-33" points="50.18 291.27 106.7 291.56 89.9 282.47 33.37 282.18 50.18 291.27"/>
                </g>
              </g>
            </g>
          </g>
        </g>
      </g>
    </g>
  </g>
</svg>