<?xml version="1.0" encoding="UTF-8"?>
<!DOCTYPE svg PUBLIC "-//W3C//DTD SVG 1.1//EN" "http://www.w3.org/Graphics/SVG/1.1/DTD/svg11.dtd">
<!-- Creator: CorelDRAW X7 -->
<svg xmlns="http://www.w3.org/2000/svg" xml:space="preserve" width="1.90327in" height="1.6869in" version="1.1" style="shape-rendering:geometricPrecision; text-rendering:geometricPrecision; image-rendering:optimizeQuality; fill-rule:evenodd; clip-rule:evenodd"
viewBox="0 0 832 737"
 xmlns:xlink="http://www.w3.org/1999/xlink">
 <defs>
  <style type="text/css">
   <![CDATA[
    .fil37 {fill:none}
    .fil33 {fill:#0C2543;fill-rule:nonzero}
    .fil12 {fill:#181C16;fill-rule:nonzero}
    .fil4 {fill:#21261F;fill-rule:nonzero}
    .fil28 {fill:#2A3128;fill-rule:nonzero}
    .fil27 {fill:#313A2F;fill-rule:nonzero}
    .fil31 {fill:#692B59;fill-rule:nonzero}
    .fil29 {fill:#6D1C11;fill-rule:nonzero}
    .fil22 {fill:#7C2113;fill-rule:nonzero}
    .fil8 {fill:#80366D;fill-rule:nonzero}
    .fil9 {fill:#90D8D8;fill-rule:nonzero}
    .fil26 {fill:#9E4485;fill-rule:nonzero}
    .fil14 {fill:#A5343B;fill-rule:nonzero}
    .fil7 {fill:#AA4990;fill-rule:nonzero}
    .fil21 {fill:#AB4891;fill-rule:nonzero}
    .fil20 {fill:#AF4223;fill-rule:nonzero}
    .fil30 {fill:#B88560;fill-rule:nonzero}
    .fil36 {fill:#C42A20;fill-rule:nonzero}
    .fil16 {fill:#C43D49;fill-rule:nonzero}
    .fil11 {fill:#C84D2A;fill-rule:nonzero}
    .fil13 {fill:#D35934;fill-rule:nonzero}
    .fil24 {fill:#D69C70;fill-rule:nonzero}
    .fil18 {fill:#D88500;fill-rule:nonzero}
    .fil10 {fill:#DB623B;fill-rule:nonzero}
    .fil15 {fill:#E24854;fill-rule:nonzero}
    .fil17 {fill:#F09701;fill-rule:nonzero}
    .fil25 {fill:#F2B37E;fill-rule:nonzero}
    .fil19 {fill:#F48577;fill-rule:nonzero}
    .fil6 {fill:#FDA50C;fill-rule:nonzero}
    .fil23 {fill:#FDBD85;fill-rule:nonzero}
    .fil5 {fill:#FDFDFD;fill-rule:nonzero}
    .fil35 {fill:#FF847B;fill-rule:nonzero}
    .fil34 {fill:#FF8847;fill-rule:nonzero}
    .fil32 {fill:#FFB748;fill-rule:nonzero}
    .fil3 {fill:white;fill-rule:nonzero}
    .fil0 {fill:url(#id1)}
    .fil1 {fill:url(#id2)}
    .fil2 {fill:url(#id3)}
   ]]>
  </style>
   <clipPath id="id0">
    <path d="M97 0l638 0c53,0 97,44 97,97l0 543c0,53 -44,97 -97,97l-638 0c-53,0 -97,-44 -97,-97l0 -543c0,-53 44,-97 97,-97z"/>
   </clipPath>
  <linearGradient id="id1" gradientUnits="userSpaceOnUse" x1="190.554" y1="638.489" x2="641.043" y2="98.5727">
   <stop offset="0" style="stop-opacity:1; stop-color:#E6E6E6"/>
   <stop offset="1" style="stop-opacity:1; stop-color:#F7F7F7"/>
  </linearGradient>
  <linearGradient id="id2" gradientUnits="userSpaceOnUse" x1="246.291" y1="988.341" x2="647.94" y2="326.898">
   <stop offset="0" style="stop-opacity:1; stop-color:#B0B0B0"/>
   <stop offset="1" style="stop-opacity:1; stop-color:#EDEDED"/>
  </linearGradient>
  <linearGradient id="id3" gradientUnits="userSpaceOnUse" x1="341.513" y1="982.427" x2="847.352" y2="235.791">
   <stop offset="0" style="stop-opacity:1; stop-color:#6200D1"/>
   <stop offset="1" style="stop-opacity:1; stop-color:#FF2EBD"/>
  </linearGradient>
 </defs>
 <g id="Layer_x0020_1">
  <metadata id="CorelCorpID_0Corel-Layer"/>
  <path class="fil0" d="M97 0l638 0c53,0 97,44 97,97l0 543c0,53 -44,97 -97,97l-638 0c-53,0 -97,-44 -97,-97l0 -543c0,-53 44,-97 97,-97z"/>
  <g style="clip-path:url(#id0)">
   <g id="_2564971159760">
    <circle class="fil1" cx="447" cy="658" r="486"/>
    <path class="fil2" d="M594 49c155,0 295,63 396,164 102,102 164,242 164,396 0,155 -62,295 -164,396 -101,101 -241,164 -396,164 -154,0 -294,-63 -395,-164 -102,-101 -164,-241 -164,-396 0,-154 62,-294 164,-396 101,-101 241,-164 395,-164zm393 167c-100,-100 -239,-162 -393,-162 -153,0 -292,62 -392,162 -101,101 -163,240 -163,393 0,153 62,292 163,393 100,100 239,162 392,162 154,0 293,-62 393,-162 101,-101 163,-240 163,-393 0,-153 -62,-292 -163,-393z"/>
    <g>
     <g>
      <g>
       <path class="fil3" d="M127 212l-101 0c-19,0 -34,15 -34,34 0,19 15,35 34,35l101 0c19,0 34,-16 34,-35 0,-19 -15,-34 -34,-34z"/>
      </g>
      <g>
       <g>
        <path class="fil4" d="M41 221c-2,0 -3,1 -3,2l0 47c0,1 1,2 3,2 1,0 2,-1 2,-2l0 -47c0,-1 -1,-2 -2,-2z"/>
        <path class="fil4" d="M49 226c-1,0 -2,1 -2,2l0 37c0,1 1,1 2,1 1,0 2,0 2,-1l0 -37c0,-1 -1,-2 -2,-2z"/>
        <path class="fil4" d="M32 226c-1,0 -2,1 -2,2l0 37c0,1 1,1 2,1 1,0 2,0 2,-1l0 -37c0,-1 -1,-2 -2,-2z"/>
        <path class="fil4" d="M57 229c-1,0 -2,1 -2,2l0 31c0,1 1,2 2,2 2,0 3,-1 3,-2l0 -31c0,-1 -1,-2 -3,-2z"/>
        <path class="fil4" d="M24 229c-2,0 -3,1 -3,2l0 31c0,1 1,2 3,2 1,0 2,-1 2,-2l0 -31c0,-1 -1,-2 -2,-2z"/>
        <path class="fil4" d="M66 236c-1,0 -2,1 -2,2l0 17c0,1 1,2 2,2 1,0 2,-1 2,-2l0 -17c0,-1 -1,-2 -2,-2z"/>
        <path class="fil4" d="M74 221c-1,0 -2,1 -2,2l0 47c0,1 1,2 2,2 1,0 2,-1 2,-2l0 -47c0,-1 -1,-2 -2,-2z"/>
        <path class="fil4" d="M83 226c-2,0 -3,1 -3,2l0 37c0,1 1,1 3,1 1,0 2,0 2,-1l0 -37c0,-1 -1,-2 -2,-2z"/>
        <path class="fil4" d="M91 229c-1,0 -2,1 -2,2l0 31c0,1 1,2 2,2 1,0 2,-1 2,-2l0 -31c0,-1 -1,-2 -2,-2z"/>
        <path class="fil4" d="M100 236c-2,0 -3,1 -3,2l0 17c0,1 1,2 3,2 1,0 2,-1 2,-2l0 -17c0,-1 -1,-2 -2,-2z"/>
        <path class="fil4" d="M108 221c-1,0 -2,1 -2,2l0 47c0,1 1,2 2,2 1,0 2,-1 2,-2l0 -47c0,-1 -1,-2 -2,-2z"/>
        <path class="fil4" d="M116 226c-1,0 -2,1 -2,2l0 37c0,1 1,1 2,1 2,0 3,0 3,-1l0 -37c0,-1 -1,-2 -3,-2z"/>
        <path class="fil4" d="M125 229c-1,0 -2,1 -2,2l0 31c0,1 1,2 2,2 1,0 2,-1 2,-2l0 -31c0,-1 -1,-2 -2,-2z"/>
        <path class="fil4" d="M133 236c-1,0 -2,1 -2,2l0 17c0,1 1,2 2,2 1,0 2,-1 2,-2l0 -17c0,-1 -1,-2 -2,-2z"/>
       </g>
      </g>
     </g>
     <g>
      <path class="fil5" d="M565 198c-71,0 -129,37 -129,82 0,41 48,76 113,81 0,2 1,4 2,6 1,3 3,6 5,9 2,3 4,5 7,7 3,2 6,4 9,5 5,2 9,2 14,3 0,0 0,-1 0,-1 1,0 1,0 1,0 0,-1 0,-1 0,-1 0,0 0,-1 -1,-1 -1,0 -2,-1 -3,-1 -1,-1 -2,-2 -3,-3 -2,-1 -3,-3 -4,-4 -1,-2 -2,-4 -2,-6l0 0c-1,-3 -1,-5 -1,-7 0,-2 0,-4 0,-5 68,-3 122,-39 122,-82 0,-45 -58,-82 -130,-82z"/>
      <path class="fil6" d="M566 226c-7,0 -13,2 -18,5 -3,2 -5,4 -7,6 -1,2 -2,4 -3,6l0 0c-3,0 -6,0 -9,1 -5,1 -10,3 -14,5 0,0 0,0 -1,-1 0,-1 -1,-2 -2,-3 -1,0 -2,-1 -3,-1 -2,-1 -3,-1 -5,-1 -1,0 -1,0 -2,0 -2,0 -4,1 -7,2 -2,1 -4,2 -6,4 -2,2 -4,4 -6,6 -1,2 -2,5 -3,7 -1,1 -1,3 -1,4 0,1 0,2 0,4 1,2 2,5 3,7 1,1 2,3 4,4l-2 0c0,0 -1,0 -2,0 -2,1 -4,1 -6,1 -1,0 -3,0 -4,-1l0 0c0,0 -1,1 -1,1 0,0 -1,0 -1,1 0,0 0,0 1,1 0,0 0,0 0,0 2,1 4,1 5,1 2,0 3,0 4,0 3,-1 6,-1 9,-2 0,0 1,1 1,1 1,1 3,2 6,2 1,1 3,2 5,2 1,3 2,7 4,10 2,4 4,8 7,12 2,2 4,4 5,5 2,2 4,3 6,5 2,1 4,2 6,3 1,2 2,4 4,6 1,2 3,4 5,6 4,3 8,6 13,7 2,1 4,1 6,2 1,0 1,0 2,0 1,0 3,0 5,-1 3,0 7,-2 11,-5 2,-1 5,-4 7,-6 1,0 2,0 3,1 4,1 9,1 13,1 3,0 5,0 8,0 7,-1 14,-3 21,-6 7,-3 12,-7 17,-12 5,-5 8,-10 10,-16 1,-4 2,-7 2,-11 0,-4 -1,-8 -3,-12 -1,-4 -3,-7 -6,-10 -3,-3 -6,-5 -10,-8 -3,-2 -7,-3 -11,-5 -4,-1 -8,-2 -13,-2 -1,0 -2,0 -3,0 -2,-1 -4,-1 -6,-1 0,0 0,0 0,-1 -2,-4 -4,-8 -8,-12 2,-1 4,-2 7,-3l0 0c4,-2 8,-3 12,-3 2,-1 4,-1 5,-1 2,0 3,0 5,0 2,1 4,1 6,2 2,1 3,2 5,3 1,1 2,1 2,2 1,1 1,1 1,1 1,0 1,0 2,-1 0,0 0,-1 0,-2 -2,-1 -3,-3 -5,-4 -2,-1 -3,-2 -6,-2 -1,-1 -3,-1 -6,-2 -1,0 -2,0 -4,0 0,0 -1,0 -2,0 -4,0 -8,1 -13,3 -4,1 -8,3 -11,5 -2,-2 -5,-4 -8,-5 -4,-2 -8,-4 -13,-5 -2,0 -5,0 -7,0zm-25 17l0 0c0,0 1,0 1,0l0 0c0,-2 1,-3 2,-5 1,-1 3,-2 4,-4 2,-1 4,-2 6,-3 2,-1 5,-1 7,-2 2,0 3,0 5,0 2,0 3,0 5,0 4,1 7,2 11,3l0 0c3,2 6,3 8,5 1,0 1,1 2,1 -1,0 -2,1 -3,2 -2,2 -3,4 -5,6 -1,2 -3,4 -3,7 -1,0 -1,1 -1,2 -1,0 -2,1 -3,1 -2,1 -4,2 -7,2 0,0 0,0 0,-1 -3,-3 -7,-7 -12,-9 -5,-3 -9,-4 -15,-5 0,0 -1,0 -2,0zm42 11l0 0c0,0 0,-1 1,-1l0 0c1,-2 2,-5 4,-7 1,-2 4,-4 6,-6 1,1 2,2 3,3l0 0 0 1c2,2 3,4 4,7 0,0 0,0 0,0 -3,0 -7,0 -10,1 -3,0 -5,1 -8,2zm-100 7l0 0 1 0c0,-2 1,-4 3,-5 1,-2 3,-4 5,-5 2,-2 3,-3 5,-4l1 0c1,0 3,-1 4,-1 1,0 1,0 2,0 0,0 1,0 1,0 1,0 2,0 3,0 0,1 1,1 2,2 0,0 1,1 1,1 1,1 1,1 2,2 -4,3 -7,6 -9,9 -2,4 -4,8 -4,12 0,2 -1,3 -1,4l0 1c-1,0 -1,0 -1,0 -3,1 -6,2 -8,3l-1 0 0 -1c-2,-1 -3,-2 -4,-3 -1,-1 -1,-2 -2,-3 0,-2 -1,-3 -1,-4 0,-1 0,-2 0,-4 1,-1 1,-3 2,-4l-1 0zm49 -15l0 0c0,0 0,0 0,0 2,0 4,0 5,0l0 0 0 0c0,4 0,7 0,11 0,2 -1,5 -1,8 0,2 -1,4 -1,6 -1,2 -2,3 -3,5 -1,1 -3,2 -4,4 -2,1 -4,2 -7,3 -2,1 -5,2 -8,3 -1,0 -3,0 -4,0 -2,0 -3,0 -5,0 0,-1 0,-1 -1,-1 0,-1 0,-2 0,-3 0,-1 0,-2 0,-4 2,-1 4,-3 6,-4 3,-2 5,-5 6,-7 2,-3 3,-6 2,-10 0,-1 0,-3 -1,-5 2,-1 4,-2 7,-3l0 0c3,-2 6,-2 9,-3 0,0 0,0 0,0 0,0 0,0 0,0zm-24 43l0 0c2,0 4,0 6,-1 5,0 9,-2 13,-4 3,-2 7,-5 9,-9 1,-1 2,-3 2,-6 1,-2 1,-5 2,-7 0,-2 0,-4 0,-5l0 -1c0,-2 0,-5 0,-8 0,-1 0,-1 1,-2l0 0 0 0c1,0 1,0 2,0 4,1 7,1 10,3l0 0c3,1 6,3 9,5 2,1 4,3 5,5l0 1c-3,1 -6,3 -9,4 -4,3 -8,6 -12,9 -3,3 -7,7 -9,11 -3,4 -5,8 -7,12 -2,5 -3,9 -3,14 0,3 0,6 1,9 -2,-1 -4,-2 -6,-3 -1,-2 -3,-3 -4,-4 -1,-1 -2,-3 -4,-5 -3,-4 -6,-9 -8,-14l0 1c-1,-2 -1,-4 -2,-5 1,0 3,0 4,0zm-5 -14l0 0 0 -1 0 -1c0,-2 1,-5 2,-7 1,-2 2,-4 3,-6 2,-2 4,-4 6,-6 0,1 0,2 0,3 0,1 0,2 0,4 0,1 0,2 -1,3 0,1 -1,3 -2,4 -1,1 -3,3 -4,4 -2,1 -3,2 -4,3zm104 38l0 0c-1,0 -3,0 -4,0 -2,0 -5,-1 -7,-2 -2,-1 -4,-2 -6,-3 1,-1 1,-2 1,-3 4,-5 7,-9 10,-14 4,-9 7,-18 6,-27 0,-3 -1,-7 -1,-10l0 1c1,0 3,0 4,0 4,0 8,1 12,3 3,1 5,3 7,4 2,2 4,3 5,5 1,2 2,3 3,5 1,2 2,5 2,7 0,3 0,5 0,8 0,3 -1,5 -2,7 -1,3 -2,5 -4,7 -1,2 -3,3 -5,5 -2,2 -5,3 -8,5 -3,1 -6,2 -9,2 -1,0 -2,0 -4,0zm-17 -12l0 0c0,-4 -1,-8 -2,-12 -1,-1 -1,-3 -2,-5l0 0 0 -1 0 0c-1,-2 -2,-5 -2,-8 -1,-2 -2,-5 -2,-7 0,-3 0,-6 0,-9 0,0 0,-1 0,-1 4,-1 8,-2 13,-3 2,0 5,0 8,0 0,2 0,4 1,5 0,4 0,8 0,12 -1,4 -2,9 -4,13 -2,5 -4,9 -7,13l0 0 -1 0c0,1 -1,2 -2,3zm-4 2l0 0 0 0c-2,-2 -3,-4 -4,-6 -2,-5 -3,-10 -4,-14 0,-1 0,-2 -1,-3 0,-4 -1,-7 -2,-10 0,-3 -1,-5 -2,-8 1,-1 3,-2 5,-3 1,0 1,0 1,0 0,0 0,0 0,0 -1,4 0,9 1,14 1,4 2,8 3,11l1 3c0,1 1,4 2,7 0,2 1,4 1,7 0,1 0,2 0,3l0 0 0 0c-1,0 -1,0 -1,0l0 -1 0 0zm21 13l0 0c6,0 13,-1 18,-4 6,-4 11,-8 14,-14 1,-3 2,-6 3,-9 1,-4 1,-8 0,-12 -1,-3 -2,-6 -4,-9 -1,-3 -4,-6 -6,-8 -1,0 -1,0 -1,0 4,1 7,3 10,5 2,2 4,4 6,7 1,2 3,4 4,6 1,2 1,5 2,7 0,3 0,6 -1,9 1,0 1,0 1,-1 -1,3 -2,6 -3,9l0 0c-1,3 -3,6 -5,8l0 0c-2,3 -5,6 -8,8l0 0 0 0 0 0c-4,3 -8,6 -13,8 -5,2 -11,4 -17,4 -3,1 -6,1 -9,1 -2,0 -5,0 -7,-1 -3,0 -5,0 -7,-1 2,-3 4,-7 5,-12 0,-1 1,-3 1,-6 5,4 11,5 17,5 0,0 0,0 0,0zm-62 7l0 0c-2,0 -4,0 -6,0 -2,-1 -5,-1 -7,-2 -1,-2 -1,-4 -2,-6 0,-3 0,-5 0,-8 1,-4 2,-8 4,-12 1,-4 4,-8 6,-11 4,-4 7,-8 12,-12 4,-3 10,-6 15,-9 -1,1 -3,3 -4,5 -2,3 -5,7 -6,11 -3,8 -4,17 -2,25 0,5 2,9 4,12 1,1 2,3 3,4 -4,1 -8,2 -11,3 -2,0 -4,0 -6,0zm20 -4l0 0c0,-1 -1,-2 -2,-3 -1,-2 -3,-4 -4,-6 -1,-3 -1,-6 -2,-9 0,-4 0,-7 0,-11 1,-4 2,-7 3,-11 2,-4 4,-7 6,-10 1,-1 3,-3 4,-5 0,1 1,1 1,2l0 0 0 0c2,4 2,8 3,12l0 2 0 0c1,4 2,8 3,12 1,5 3,8 5,11 1,2 2,3 2,4 -1,1 -2,2 -4,3 -4,3 -9,6 -15,9zm-65 -34l0 0 0 0c-1,-1 -3,-1 -4,-2 -1,0 -2,-1 -3,-1 2,-1 4,-1 7,-2 0,1 0,3 0,5zm69 37l0 0 0 0c0,0 -1,-1 -1,-1 5,-2 10,-6 15,-10 1,-1 2,-1 4,-2 0,0 0,0 0,0l0 1 0 0c0,0 0,1 0,1 0,3 -1,7 -3,10 -1,3 -2,5 -4,7l0 0c-1,0 -1,-1 -2,-1 -3,-1 -6,-3 -9,-5 0,0 0,0 0,0l0 0 0 0c0,0 0,0 0,0zm-24 4l0 0c5,0 10,-1 15,-2 1,-1 3,-1 5,-2 0,1 1,1 2,2 3,3 7,5 12,7 -2,1 -4,3 -5,4 -2,2 -4,3 -6,4 -2,1 -4,1 -6,1 -1,0 -2,1 -3,1 -1,0 -2,-1 -3,-1 -2,0 -5,-1 -7,-1 -2,-2 -5,-3 -7,-5 -3,-2 -5,-4 -6,-6 -1,-1 -2,-2 -3,-3 1,0 1,0 1,0 4,1 7,1 11,1z"/>
     </g>
     <g>
      <path class="fil4" d="M122 752l7 0c16,-57 31,-114 47,-172 -10,-2 -20,-4 -30,-6 -8,60 -16,119 -24,178z"/>
      <path class="fil4" d="M172 738l7 0c16,-57 31,-114 47,-171 -10,-2 -20,-4 -30,-6 -8,59 -16,118 -24,177z"/>
      <path class="fil4" d="M326 750l-7 0c-16,-54 -31,-107 -47,-160 10,-2 20,-4 30,-6 8,55 16,110 24,166z"/>
      <path class="fil4" d="M276 736l-7 0c-16,-58 -31,-115 -47,-172 10,-2 20,-4 30,-6 8,59 16,118 24,178z"/>
      <path class="fil7" d="M209 381l-68 0 -26 0c-2,1 -4,1 -6,2 -4,1 -7,3 -11,4 -6,3 -13,5 -19,9 -2,1 -4,2 -6,3 3,26 7,54 11,85 3,27 7,54 11,83l2 12c1,6 2,12 2,18l1 3c0,3 1,6 1,9 0,1 0,1 0,1 1,3 1,5 1,8 0,0 0,0 0,0 0,0 0,0 1,0 -1,0 -1,0 -1,0 1,1 1,2 1,2 0,0 0,0 0,0 5,0 10,0 14,1 3,0 5,0 8,0 7,0 14,0 21,0 15,0 30,0 45,0 31,0 61,0 91,0l71 0 3 0c0,0 0,0 1,0 0,0 0,-1 0,-1 1,-1 2,-3 3,-4 1,-1 1,-3 2,-5 1,-3 1,-6 1,-10 0,-4 0,-7 -1,-11 -1,-3 -3,-6 -5,-8l0 -1c0,0 0,0 0,0 0,0 -1,0 -1,0l-50 0 -16 0 -2 -19 -3 -20 -5 -32 -4 -33c-3,-16 -5,-32 -7,-48l-3 -23 -2 -11 -2 -12c1,0 1,-1 1,-1 0,0 0,-1 -1,-1l-53 0zm18 2l0 0 34 0 0 0 -34 0z"/>
      <path class="fil8" d="M209 381l-68 0 -26 0c0,0 0,0 0,0 1,12 2,23 4,35 3,29 6,58 9,87 3,28 6,56 9,84l80 0 115 0 29 0c-1,-2 -2,-4 -4,-5l0 -1c0,0 0,0 0,0 0,0 -1,0 -1,0l-50 0 -16 0 -2 -19 -3 -20 -5 -32 -4 -33 -5 -32 -2 -16 -3 -23 -2 -11 -2 -12c1,0 1,-1 1,-1 0,0 0,-1 -1,-1l-53 0z"/>
     </g>
     <g>
      <g>
       <path class="fil9" d="M97 475c-1,1 -2,1 -3,2 -1,1 -2,2 -3,2 -1,1 -1,2 -3,3 1,-1 1,-2 1,-3 0,-1 0,-1 0,-1 0,-1 -1,-1 -1,-2 0,0 -1,0 -1,0 0,0 0,0 -1,0 0,0 0,0 -1,0 0,0 -1,1 -2,1 0,0 -1,1 -2,1 0,1 0,1 0,1 5,13 10,26 15,39 0,-1 1,-1 1,-1 1,-2 3,-3 4,-5 1,-2 2,-3 3,-5 2,-4 3,-7 5,-11l0 0c0,-1 1,-2 1,-3 0,0 1,-1 1,-2 0,-1 1,-1 1,-2 0,-1 0,-2 0,-3 0,0 0,0 0,0 0,-1 0,-1 0,-1 0,0 -1,0 -1,-1 0,0 0,0 0,0 0,0 -1,0 -1,0 0,0 0,0 0,0l0 0c-1,0 -1,0 -1,0 0,0 -1,0 -1,0 0,0 0,0 0,0 1,-2 1,-3 1,-4 0,0 0,0 0,-1 0,0 -1,-1 -1,-1 0,0 -1,0 -1,-1 0,0 -1,0 -1,0 0,0 0,0 0,0 0,0 -1,0 -1,0 -1,0 -1,1 -2,1 -1,1 -1,1 -2,1 0,0 0,-1 1,-2 0,0 -1,-1 -1,-1 0,-1 0,-1 0,-1 0,0 -1,0 -1,0 0,0 -1,0 -1,0 0,0 0,0 0,0 -1,0 -2,0 -2,0z"/>
       <path class="fil10" d="M97 475c-1,1 -2,1 -3,2 -1,1 -2,2 -3,2 0,1 -1,2 -2,3 0,0 0,0 -1,0 1,0 1,0 1,0 -1,0 -1,0 -1,0 1,-1 1,-2 1,-3 0,-1 0,-1 0,-1 0,-1 -1,-1 -1,-2 0,0 -1,0 -1,0 0,0 0,0 -1,0 0,0 0,0 -1,0 0,0 -1,1 -2,1 0,0 -1,1 -2,1 0,1 0,1 0,1 -1,1 -1,2 -2,3 -1,1 -2,3 -2,5 -1,1 -1,3 -2,4 0,2 0,3 0,5 0,1 0,2 0,3 0,3 0,5 1,8 1,3 2,5 3,7 1,2 2,3 2,4 1,0 2,1 3,2 1,0 2,1 3,1 0,0 1,0 2,0 0,0 1,0 1,0 2,0 4,-2 6,-3l0 0c0,-1 1,-1 1,-1 1,-2 3,-3 4,-5 1,-2 2,-3 3,-5 2,-4 3,-7 5,-11l0 0c0,-1 1,-2 1,-3 0,0 1,-1 1,-2 0,-1 1,-1 1,-2 0,-1 0,-2 0,-3 0,0 0,0 0,0 0,-1 0,-1 0,-1 0,0 -1,0 -1,-1 0,0 0,0 0,0 0,0 -1,0 -1,0 0,0 0,0 0,0l0 0c-1,0 -1,0 -1,0 0,0 0,0 -1,0 0,0 0,0 0,0 0,0 0,0 0,0 0,0 0,0 0,0 0,0 0,0 0,0 1,-2 1,-3 1,-4 0,0 0,0 0,-1 0,0 -1,-1 -1,-1 0,0 -1,0 -1,-1 0,0 -1,0 -1,0 0,0 0,0 0,0 0,0 -1,0 -1,0 -1,0 -1,1 -2,1 -1,0 -1,1 -2,1 0,0 0,0 0,0 0,0 0,0 0,0 0,0 0,0 0,0 0,0 0,-1 1,-2 0,0 -1,-1 -1,-1 0,-1 0,-1 0,-1 0,0 -1,0 -1,0 0,0 -1,0 -1,0 0,0 0,0 0,0 -1,0 -2,0 -2,0z"/>
       <path class="fil11" d="M107 485c-2,3 -4,6 -6,8 -2,3 -3,6 -5,9 0,1 0,1 1,1 0,0 0,0 0,0 1,-2 2,-4 3,-5 0,-2 1,-3 2,-5 0,0 0,0 0,0 2,-3 4,-5 6,-7 0,-1 0,-1 0,-1 0,0 -1,0 -1,0 0,0 0,0 0,0zm-5 8l0 0c0,0 0,0 0,0 0,0 0,0 0,0zm0 0l0 0c0,0 0,0 0,0 0,0 0,0 0,0z"/>
       <path class="fil11" d="M100 480c-2,2 -4,5 -6,8 0,1 -1,2 -2,4 -1,1 -1,3 -2,4 0,0 0,0 0,1 0,0 0,0 0,0 1,0 1,0 1,0 1,-2 1,-4 2,-5 1,-2 2,-3 3,-5 0,0 0,0 0,0 1,-2 3,-5 5,-7 0,0 0,0 0,0 0,0 0,0 0,0 0,0 -1,0 -1,0zm-4 7l0 0c0,0 0,0 0,0 0,0 0,0 0,0z"/>
       <path class="fil11" d="M88 483c-1,0 -1,1 -2,2 0,0 -1,1 -1,2 -1,1 -2,3 -2,4 0,0 0,1 0,1 0,0 0,0 1,0 0,-2 1,-4 2,-6 0,0 0,0 0,0 1,-1 2,-2 3,-3 0,0 0,0 -1,0 0,-1 0,-1 0,-1 0,0 0,0 0,1z"/>
      </g>
      <g>
       <path class="fil4" d="M221 182c-4,0 -9,1 -13,2 -6,1 -11,3 -15,5 -3,1 -5,2 -8,3 -2,2 -4,3 -6,5 -3,2 -5,5 -5,8 -1,1 -1,2 -1,4 -2,0 -3,0 -4,1 -3,1 -6,3 -8,6 -2,2 -3,5 -5,9 -1,3 -2,6 -2,9 0,1 0,2 0,3l0 0c0,1 0,2 0,4 0,2 0,4 -1,6 0,3 0,5 -1,7 0,3 -1,5 -2,7l0 0c0,2 -1,3 -2,5 -1,1 -2,3 -3,5 -2,1 -3,3 -5,5 -1,1 -3,3 -5,5l0 0c-3,3 -6,6 -9,10 -3,4 -6,7 -8,11 -1,2 -2,4 -2,6 -1,2 -2,4 -2,6 -1,4 -2,8 -2,13 -1,4 0,8 0,12 1,4 2,8 4,12 1,2 2,3 3,5 1,2 2,4 3,5 4,5 9,9 15,13 3,1 6,3 9,4 2,1 4,1 6,2l15 -6c0,0 0,0 0,0l0 0 3 8c3,0 7,0 10,0 1,0 2,0 3,0 10,0 19,-1 27,-2 5,-1 9,-2 14,-3 2,-1 5,-2 8,-2 6,-2 11,-4 17,-6 6,-3 12,-6 17,-9 6,-4 10,-7 14,-12 2,-2 3,-4 4,-6 1,-3 2,-6 2,-9 1,-1 1,-3 0,-5 0,-1 0,-2 0,-4 -1,-3 -3,-6 -4,-8 -1,-2 -2,-3 -2,-5 -3,-4 -5,-9 -7,-14 0,-2 -1,-4 -1,-6 0,-2 1,-5 1,-7l0 0c1,-3 2,-6 4,-8 1,-2 2,-4 3,-6 0,-1 1,-2 1,-3 1,-3 3,-6 4,-10 1,-3 2,-6 2,-9 1,-2 0,-5 0,-7 0,-1 -1,-2 -1,-3 1,-1 2,-2 3,-3 1,-2 2,-3 2,-4 1,-2 1,-3 2,-5 1,-2 1,-5 0,-8 0,-3 -1,-5 -2,-8 -3,-5 -7,-10 -12,-14 -3,-2 -5,-4 -8,-6 -3,-1 -6,-3 -9,-4 -2,-1 -4,-1 -6,-2 -2,0 -5,-1 -7,-1 -5,-1 -9,-1 -14,-2 -1,0 -2,0 -4,0 -3,0 -7,0 -10,1z"/>
       <path class="fil12" d="M232 210c-3,0 -7,0 -11,0 -1,1 -2,1 -3,1 0,0 -1,0 -2,0 -1,0 -2,0 -3,0 -3,1 -6,1 -8,1 0,0 0,0 0,0 -4,1 -8,1 -12,3l0 0c0,0 -1,1 -2,1 -1,0 -1,1 -2,1l0 0 0 0c0,0 0,0 0,0 0,0 0,0 0,0l0 0c0,0 0,0 0,0l0 0 0 0c0,0 0,0 0,0 0,0 0,0 0,0 0,1 -1,1 -1,2 -1,0 -1,0 -2,1 0,0 0,1 0,1 -1,1 -1,1 -1,2l0 0c0,0 -1,1 -1,2 0,0 0,1 0,2 0,0 0,0 0,0 0,0 0,0 0,0l0 0c0,2 -1,3 -1,5 1,1 1,2 1,4l0 0c1,7 3,13 5,20 1,3 2,6 2,10 1,3 1,6 1,9 -1,1 -1,2 -1,2 0,1 0,2 0,2 0,2 -1,3 -1,4 -1,3 -2,5 -3,7 -1,3 -2,5 -4,7 -1,2 -3,4 -4,6 -3,4 -7,8 -10,12 -4,4 -7,8 -11,12 0,1 -1,2 -2,3 0,1 -1,2 -1,2 -1,1 -2,2 -2,3 0,1 -1,2 -1,3l0 0c-1,2 -2,4 -2,6 0,0 -1,1 -1,2 0,1 0,2 0,3l0 0c0,1 0,3 0,5 0,1 0,1 0,2 0,1 0,2 0,3l0 0c0,0 0,0 0,0 0,0 0,0 0,0 0,1 0,3 1,4 0,1 0,2 1,3 0,0 0,1 0,2 0,0 0,0 0,0 1,2 2,3 3,5 1,1 2,3 3,4 0,0 0,1 0,1l10 -4c0,0 0,0 0,0l0 0 3 8 1 0 1 0c2,0 5,0 8,0 1,0 2,0 3,0 10,0 19,-1 27,-2 5,-1 10,-2 14,-3 3,-1 5,-2 8,-2 6,-2 11,-4 17,-6 6,-3 12,-6 17,-9 6,-4 10,-7 14,-12 0,0 1,-1 2,-2 -1,-2 -1,-4 -2,-6 0,-2 -1,-4 -2,-6 -1,-2 -1,-4 -2,-6 0,0 0,0 0,0 -1,-3 -3,-6 -4,-9 -2,-2 -3,-5 -5,-8 -1,-1 -1,-2 -2,-4 -1,-1 -1,-2 -2,-3 -1,-2 -1,-3 -2,-4 0,-1 0,-2 0,-3 0,0 0,-1 -1,-2 0,0 0,-1 0,-2 0,-1 0,-1 0,-2 0,-1 0,-2 1,-4 0,-1 0,-2 1,-3 0,-1 0,-2 1,-3 1,-3 2,-5 3,-7 3,-5 5,-9 7,-13 0,0 0,0 0,0 1,-2 1,-3 2,-5 0,0 0,-1 0,-2 0,0 0,-1 1,-2l0 0c0,-1 0,-2 0,-3 0,-1 0,-3 -1,-4l0 0c0,-4 -1,-8 -3,-11l0 0c-2,-5 -4,-9 -7,-12 -1,-1 -1,-2 -2,-3 -1,-1 -2,-2 -4,-3l1 0c-1,0 -1,0 -1,0 0,0 0,0 0,0 0,0 0,0 0,0 0,0 0,0 0,0 0,0 0,0 0,0 0,-1 -1,-1 -2,-2 0,0 -1,0 -2,-1 0,0 0,0 0,0 -2,-1 -3,-1 -5,-1 -2,-1 -4,-1 -6,-1l0 0c-3,-1 -7,-1 -10,-1 -1,0 -1,0 -2,0zm-43 7l0 0c0,0 0,0 0,0 0,0 0,0 0,0z"/>
       <path class="fil12" d="M189 217c0,0 0,0 0,0 0,0 0,0 0,0 0,0 0,0 0,0z"/>
       <path class="fil12" d="M189 217c0,0 0,0 0,0l0 0c0,0 0,0 0,0z"/>
       <path class="fil12" d="M171 294c0,0 0,0 -1,1 0,0 0,0 0,0 0,0 0,0 0,0 0,0 0,0 0,0 0,0 0,0 0,0 -2,3 -5,5 -8,8 -3,3 -6,5 -9,8 -1,1 -2,2 -4,4 -1,1 -2,3 -3,5 -3,3 -5,7 -6,11 -1,2 -2,5 -2,7 -1,2 -1,5 -1,7 0,2 0,5 1,7 0,3 1,5 2,7 0,0 0,0 1,1 0,0 0,0 0,0 1,0 1,-1 1,-1 0,0 0,0 0,-1 -1,-1 -1,-2 -2,-4 0,-1 0,-2 0,-4 0,0 0,0 0,0 0,0 0,0 0,0 0,0 0,0 -1,0l1 0c-1,-3 -1,-5 -1,-8 1,-4 2,-8 3,-11 0,0 0,0 0,0 2,-5 4,-9 7,-13 0,0 0,0 0,0 1,-2 2,-3 3,-4 0,-1 1,-2 2,-2 2,-2 4,-4 6,-6 2,-2 5,-4 6,-6 1,-1 2,-2 3,-3 1,-1 2,-2 3,-3 0,0 0,0 -1,0 0,0 0,0 0,0 0,0 0,0 0,0zm-22 23l0 0c0,0 0,0 0,1 0,-1 0,-1 0,-1zm-9 33l0 0c0,0 0,0 0,0 0,0 0,0 0,0 0,0 0,0 0,0zm30 -55l0 0 0 0c0,0 0,0 0,0 0,0 0,0 0,0z"/>
       <path class="fil12" d="M140 305c0,0 -1,1 -2,2 -1,1 -1,2 -2,3 -1,1 -2,3 -3,5 -1,2 -2,4 -3,6 0,2 -1,4 -1,7 0,0 0,0 0,0 0,0 0,0 0,0 1,0 1,0 1,0 0,0 0,0 0,0 0,-2 1,-3 1,-5 0,-2 1,-3 1,-5 0,0 0,0 0,0 1,-1 2,-3 2,-4 1,-1 2,-3 3,-4 0,0 0,0 0,0 1,-2 2,-3 4,-5 0,0 0,0 0,0 0,0 0,0 0,0 0,0 -1,0 -1,0zm-3 5l0 0c0,0 0,0 0,0 0,0 0,0 0,0z"/>
       <path class="fil10" d="M236 202c-3,0 -7,0 -11,1 -2,0 -4,0 -6,0 -2,1 -3,1 -5,1 -2,1 -5,1 -8,2 -3,1 -6,2 -9,3 -6,2 -10,6 -13,10 -1,2 -2,4 -3,7 0,1 0,3 0,4 0,2 0,4 0,6 1,4 2,8 3,12 2,4 3,7 5,10 -3,-1 -5,-2 -7,-2l0 0c-2,0 -3,1 -4,1 -2,1 -3,2 -4,3 -1,1 -2,2 -2,4 -1,1 -1,3 -1,5 0,1 1,3 1,4 1,2 1,3 2,4 1,2 3,4 5,5 2,1 4,3 6,3 2,1 4,2 6,2 1,0 1,0 2,0 2,0 3,0 5,-1 1,2 2,4 3,6 2,3 4,8 5,12 0,0 0,0 0,0 0,0 0,0 0,0 1,5 1,9 1,14l0 0c0,3 -1,7 -2,10 0,1 0,1 0,1 1,1 2,2 3,3 1,1 2,2 4,3 2,1 5,2 8,3 3,1 6,2 10,2 1,0 2,0 3,0 2,0 4,0 6,0 4,-1 8,-2 11,-3 3,-1 6,-3 8,-5 1,0 1,0 1,-1l0 0c0,0 0,0 0,0 0,0 0,-1 0,-1 0,0 0,0 0,0 0,0 0,0 0,0 -1,0 -1,0 -1,0l0 0c-1,0 -1,0 -2,-1 -1,-1 -2,-1 -3,-3 -1,-1 -2,-2 -3,-3l0 0c0,-2 -1,-3 -2,-5 0,-3 0,-5 0,-8 5,-1 11,-3 15,-6 3,-2 6,-5 9,-8 1,-2 2,-3 3,-5 1,-1 1,-3 2,-5 1,-3 2,-7 2,-11 0,-3 -1,-7 -2,-11 0,-2 -1,-4 -1,-7 -1,-1 -1,-2 -1,-3 -1,-1 -1,-2 -1,-2l-1 -1c-1,-2 -2,-5 -3,-8 0,-3 -1,-5 -1,-8l0 0c-1,-1 -1,-3 -1,-4 0,-1 0,-2 0,-3 0,-3 0,-5 0,-8 0,-2 -1,-5 -2,-7 0,-1 0,-2 -1,-2 0,-1 -1,-1 -1,-2 0,0 -1,-1 -1,-1 0,0 0,0 -1,0 0,0 -1,-1 -2,-1l0 0c-1,-1 -2,-1 -3,-1 -2,-1 -4,-2 -6,-2 -4,-1 -8,-2 -13,-2 -1,0 -1,0 -2,0z"/>
       <path class="fil11" d="M219 307l0 0c1,1 2,3 4,4 1,1 2,2 3,2l0 0c2,1 3,2 4,3 2,0 3,1 5,1 0,0 0,0 0,0 0,0 0,0 0,0 0,0 0,0 0,0 0,0 0,0 0,0 1,1 2,1 4,1 1,1 2,1 4,1 0,0 0,0 0,0 0,0 0,0 0,0 0,0 0,0 0,0 1,0 2,0 3,0 1,0 2,-1 3,-1 0,0 0,0 0,0 -1,-3 -1,-5 -1,-8 0,0 0,0 0,0 -1,0 -1,0 -2,0 -2,1 -4,1 -6,1 -3,-1 -7,-1 -10,-2 -3,-1 -7,-2 -10,-4 -1,0 -3,-1 -4,-2 1,2 2,3 3,4z"/>
       <path class="fil11" d="M235 317l0 0c0,0 0,0 0,0 0,0 0,0 0,0z"/>
       <path class="fil11" d="M187 264c0,0 0,0 -1,0 0,1 0,1 0,1 0,1 0,1 0,1 0,1 0,2 0,3 0,1 0,1 0,2 0,1 1,2 1,3 1,1 2,3 3,4 0,0 1,1 1,1 1,1 2,1 2,2 0,0 1,0 1,0 0,0 0,-1 0,-1 -1,0 -1,0 -1,0 0,0 0,0 0,0 -1,-1 -1,-1 -2,-2 -1,-1 -2,-2 -2,-3 -1,-2 -1,-3 -2,-4 0,-1 0,-2 0,-3 0,-1 0,-2 1,-3 0,0 0,0 0,0 0,0 0,-1 0,-1 0,0 0,0 -1,0 0,0 0,0 0,0 0,0 0,0 0,0zm1 1l0 0c0,0 0,0 0,0 0,0 0,0 0,0zm1 10l0 0c0,0 0,0 0,0 0,0 0,0 0,0z"/>
       <path class="fil11" d="M181 261c0,0 -1,0 -2,0 0,1 -1,1 -2,1 -1,0 -2,1 -2,2 0,0 0,0 0,1 0,0 0,0 0,0 0,-1 1,-1 1,-1 0,0 0,0 1,-1 0,0 0,0 0,0 1,0 1,0 1,0 0,0 0,0 0,0 0,0 1,0 1,-1 0,0 1,0 1,0l0 0c1,0 2,0 3,1 0,0 1,0 2,1 1,0 1,1 2,1 0,0 0,0 0,0 0,0 0,0 1,0 0,0 0,0 0,0 0,0 0,-1 0,-1 0,0 0,0 -1,0 0,-1 0,-1 0,-1 -1,-1 -1,-1 -2,-1 0,0 -1,-1 -2,-1 0,0 -1,0 -1,0 -1,0 -1,0 -1,0zm2 2l0 0 0 0c0,0 0,0 0,0z"/>
       <path class="fil13" d="M225 203c-2,0 -4,0 -6,0 -2,1 -3,1 -5,1 -2,0 -5,1 -8,2 -3,1 -6,1 -9,3 -6,2 -10,6 -13,10 0,0 -1,1 -1,1 0,1 1,1 1,1 1,1 2,2 3,2 0,0 0,0 0,0 2,1 3,2 5,3 2,0 3,1 5,1 6,2 13,2 20,2l0 0c1,0 2,0 3,0 1,0 2,0 3,0 3,0 6,0 9,0 5,0 10,1 14,2 2,0 4,1 6,1 2,1 4,2 5,3 2,1 3,2 5,3 2,1 3,2 4,3 2,2 4,3 5,4 0,0 0,-1 -1,-2 0,-3 -1,-5 -1,-8 -1,-1 -1,-3 -1,-4 0,-1 0,-2 0,-3 0,-3 0,-5 0,-8 0,-2 -1,-5 -2,-7 0,-1 0,-2 -1,-2 0,-1 -1,-1 -1,-2 0,0 -1,-1 -1,-1 0,0 0,0 -1,0 0,0 -1,-1 -1,-1l-1 0 0 0c-1,-1 -2,-1 -3,-1 -2,-1 -4,-2 -6,-2 -4,-1 -8,-2 -13,-2 -1,0 -1,0 -2,0 -3,0 -7,0 -11,1z"/>
       <path class="fil14" d="M235 491c-3,0 -6,1 -9,1 -4,1 -8,3 -13,5l10 27c-13,5 -27,10 -40,15 0,0 0,1 0,1 0,3 1,6 2,9 2,3 3,6 5,8 2,3 4,5 6,7 4,4 9,8 16,11 5,2 11,4 18,6 6,2 12,3 19,4 5,1 10,2 14,3 6,0 11,1 17,2 11,1 22,2 32,2 5,1 11,1 17,1 2,0 5,0 8,0 1,0 2,0 3,0 1,0 3,0 5,0 0,0 0,0 0,0 -7,14 -14,29 -20,46 -3,8 -7,17 -10,27 0,0 0,0 0,0 -3,10 -6,20 -9,30l0 1 0 1c1,1 2,2 3,3 1,1 3,2 4,3 4,3 8,4 12,6 4,1 9,2 13,2 0,0 1,0 1,0 1,0 1,0 2,0 13,-20 25,-38 36,-57 2,-4 4,-7 6,-11 1,-1 1,-2 2,-3l0 -1 1 -1 1 -1 1 -3c2,-2 3,-4 4,-6l1 -1c1,-2 2,-4 4,-7 3,-6 6,-11 8,-16 3,-6 5,-11 6,-16 2,-6 2,-12 2,-17 -1,-2 -1,-5 -2,-7 -1,-3 -2,-5 -4,-8 -1,-2 -3,-4 -5,-6 -2,-2 -4,-4 -7,-6 -4,-3 -8,-6 -14,-9 -6,-3 -11,-6 -16,-8 -3,-1 -6,-3 -10,-4l-2 -1c-2,-1 -5,-3 -8,-4 -8,-4 -15,-7 -21,-9 -2,-1 -4,-1 -5,-2 -2,0 -4,-1 -6,-1 -3,-1 -6,-2 -9,-3 -12,-4 -25,-8 -39,-11 -7,-1 -14,-2 -20,-2 -2,0 -3,0 -5,0 -1,0 -3,0 -5,0z"/>
       <path class="fil11" d="M306 697c0,0 0,0 0,0 -1,4 -2,8 -3,12 -1,4 -3,8 -3,12 -2,6 -3,12 -4,17 5,1 9,2 14,3 3,0 5,1 8,1 1,0 2,0 4,0 1,1 2,1 3,1l0 0 1 0c1,0 2,0 2,-1 1,0 1,0 2,0 0,0 1,-1 1,-1 1,-1 1,-1 2,-2 0,-1 1,-1 1,-2l0 -1c1,0 1,-1 2,-1 0,-1 0,-1 1,-2l0 0 0 0c0,0 -1,0 -1,-1 -2,0 -5,-1 -7,-2 5,-7 9,-14 14,-20l-1 0 -1 0c-2,0 -3,0 -4,0 -4,-1 -8,-2 -12,-3 -7,-3 -13,-6 -19,-10l0 0z"/>
       <path class="fil12" d="M335 732c0,0 0,0 0,0 -1,1 -2,2 -2,2 -1,1 -1,1 -1,2 -1,0 -1,1 -1,1 0,1 0,1 -1,1 0,1 0,1 0,1 0,0 0,0 0,1 0,0 0,0 0,0 -7,-1 -12,-1 -18,-2 -5,0 -11,-1 -16,-2 0,4 -1,7 -2,11 0,0 1,0 1,1 0,0 0,0 0,0l2 0c2,0 3,1 5,1 4,0 8,1 12,1 5,0 10,1 15,1 6,0 11,1 15,1l1 0c1,0 3,0 5,-1 2,0 4,0 6,0 1,0 2,-1 3,-1 1,0 1,0 2,-1 0,0 0,0 1,-1 0,0 0,0 0,-1 0,0 0,0 0,-1 0,0 -1,0 -1,0 0,0 0,-1 -1,-1 0,-1 -1,-2 -3,-3 -1,0 -2,-1 -3,-2 -2,0 -3,-1 -4,-1l-1 -1 0 0 -1 0 -1 -1c0,0 0,0 0,0l-1 0 -1 -1c-1,0 -2,-1 -3,-1 -2,-1 -4,-2 -6,-3 -1,0 -1,0 -1,0l0 0z"/>
       <path class="fil15" d="M223 524c-22,8 -45,17 -68,25 1,2 1,3 2,4 1,3 2,5 4,8 2,2 4,5 6,7 4,4 10,7 16,10 5,3 11,5 19,7 5,2 12,3 19,4 4,1 9,2 14,2 5,1 10,2 16,2 11,2 22,2 32,3 6,0 11,1 17,1 2,0 5,0 8,0 1,0 2,0 3,0 2,0 3,0 5,0 0,0 0,0 0,0 -7,14 -14,29 -20,46 -3,8 -6,17 -9,27 0,0 0,0 0,0 -4,9 -7,19 -10,30 0,1 0,1 0,2 1,1 2,2 3,3 2,1 3,2 4,3 0,0 0,0 0,0 4,2 8,4 12,6l0 0c5,1 9,2 13,2l0 0c1,0 2,0 3,0 13,-20 25,-39 36,-58 2,-3 4,-7 6,-10 1,-1 2,-3 3,-4 1,-2 2,-3 2,-5 2,-2 3,-4 4,-7 2,-2 3,-4 5,-7 3,-6 6,-11 8,-16 3,-6 5,-11 7,-17 1,-5 1,-11 1,-16 0,-2 -1,-5 -2,-7 -1,-3 -2,-5 -4,-8 -1,-2 -3,-4 -5,-6 -2,-2 -4,-4 -6,-6 -5,-3 -9,-6 -15,-10 -5,-2 -11,-5 -16,-7 -3,-1 -6,-3 -10,-5 -3,-1 -7,-3 -10,-4 -8,-4 -15,-7 -21,-9 -2,-1 -4,-1 -5,-2 -2,-1 -4,-1 -5,-2 -3,-1 -6,-2 -9,-2 -13,-4 -26,-8 -40,-11 -7,-1 -14,-2 -20,-2 -1,0 -2,0 -4,0l11 29zm73 190l0 0c0,0 0,0 0,0 0,0 0,0 0,0z"/>
       <path class="fil16" d="M223 524c-22,8 -45,17 -68,25 1,2 1,3 2,4 1,3 2,5 4,8 2,2 4,5 6,7 4,4 10,7 16,10 5,3 11,5 19,7 5,2 12,3 19,4 5,1 9,2 14,2 5,1 10,2 16,2 11,2 22,3 32,3 6,0 11,1 17,1 2,0 5,0 8,0 1,0 2,0 3,0 2,0 3,0 5,0 0,0 0,0 0,0 -7,14 -14,29 -20,46 -3,8 -6,17 -9,26 0,1 0,1 0,1 -4,9 -7,19 -10,30l0 1 0 1c1,1 1,2 2,2 2,-6 3,-12 5,-18 4,-14 10,-28 15,-41 0,0 0,0 0,0 1,-3 3,-6 4,-9 7,-17 15,-33 23,-49 -8,1 -16,1 -25,0 -8,-1 -16,-2 -25,-3 -4,-1 -8,-2 -12,-3 -2,0 -5,-1 -7,-1 -5,-2 -10,-3 -15,-5 -3,-1 -6,-2 -8,-3 -2,-1 -5,-2 -7,-4 -2,-1 -4,-2 -6,-4 -2,-1 -4,-3 -5,-5 -1,-1 -1,-2 -2,-3 0,0 -1,-1 -1,-2 -1,-2 -1,-5 -1,-7 0,-5 3,-10 6,-14 0,0 0,0 0,0 0,0 0,0 0,0 0,0 0,0 0,0 0,0 1,-1 1,-1 0,0 0,0 0,1 0,0 0,0 0,0 3,0 7,1 10,1 0,0 0,0 0,0 3,0 6,0 8,0 3,0 6,0 9,0 6,0 12,-1 17,-2 0,0 0,0 0,0 9,-2 18,-5 26,-9 0,0 0,0 0,0 0,0 0,0 0,0 0,0 0,0 0,0l0 0c4,-2 8,-4 12,-7 -2,-1 -4,-1 -6,-2 -2,-1 -4,-1 -5,-2 -2,-1 -4,-1 -5,-2 -3,-1 -6,-2 -9,-3 -13,-3 -26,-7 -40,-10 -7,-1 -14,-2 -20,-2 -1,0 -2,0 -4,0l11 29z"/>
       <path class="fil16" d="M215 530c0,1 0,1 1,1 3,1 5,1 8,1 1,0 1,0 1,0 0,-1 0,-1 -1,-1 -2,0 -4,0 -6,-1 0,0 -1,0 -2,0 0,0 0,0 0,0 0,0 -1,0 -1,0z"/>
       <path class="fil16" d="M214 530c0,0 0,1 0,1 0,0 0,0 0,0 0,1 0,1 0,1 4,0 8,1 13,1 0,0 0,0 0,0 0,-1 0,-1 0,-1 -4,-1 -9,-1 -13,-2 0,0 0,0 0,0 0,0 0,0 0,0z"/>
       <path class="fil16" d="M214 531c-1,0 -1,0 -1,1 0,0 0,0 1,0 0,0 0,0 0,0 5,1 9,2 14,2 0,0 0,0 0,-1 0,0 0,0 0,0 0,-1 0,-1 0,-1 -5,0 -9,0 -14,-1 0,0 0,0 0,0 0,0 0,0 0,0z"/>
       <path class="fil10" d="M274 712c-1,5 -2,9 -3,13 -2,6 -3,12 -4,17 5,1 9,2 14,3 3,0 5,0 8,1 1,0 3,0 4,0 1,0 2,0 3,0 0,0 0,0 0,0 1,0 2,0 4,0l-1 0c1,0 2,0 2,0 0,-1 1,-1 1,-1 1,-1 1,-1 2,-2 0,-1 1,-2 2,-3 0,0 0,-1 1,-1 0,-1 1,-2 1,-2 0,0 0,0 0,0 0,-1 -1,-1 -1,-1 -2,-1 -4,-1 -7,-2 5,-7 9,-14 14,-21 -2,1 -4,0 -6,0 -4,0 -8,-1 -12,-2 -7,-3 -13,-6 -19,-10 -1,3 -2,7 -3,11z"/>
       <path class="fil4" d="M304 738c0,0 0,0 0,0l0 0c0,0 0,0 0,0 0,0 0,0 0,0l0 0c0,0 0,0 0,0 0,0 0,0 0,0 0,0 0,0 0,0 0,0 0,0 0,0 0,0 0,0 0,0 0,1 -1,1 -1,2 0,0 -1,0 -1,1 0,0 0,1 0,1 0,0 -1,1 -1,1 0,0 0,0 0,0 0,0 0,1 0,1 -6,-1 -12,-1 -17,-2 -6,0 -11,-1 -17,-2 0,4 -1,7 -1,11 0,0 0,0 0,0 0,0 0,1 1,1l1 0c2,0 3,0 5,0 5,1 9,1 12,2 6,0 10,0 15,1 6,0 11,0 15,0l1 0c2,0 3,0 6,0 2,0 3,0 5,0 1,-1 3,-1 4,-1 0,0 0,-1 1,-1 0,0 1,-1 1,-1 0,0 0,-1 0,-1 0,0 0,-1 0,-1 0,0 0,0 0,0 -1,-1 -1,-1 -1,-2 -1,0 -2,-1 -3,-2 -2,-1 -3,-1 -4,-2 -1,0 -3,-1 -4,-2l-1 0 0 0 -1 -1 0 0c-1,0 -1,0 -1,0l-1 0 0 -1c-1,0 -3,-1 -4,-1 -2,-1 -4,-2 -6,-3 0,0 -1,0 -1,0 -1,0 -1,1 -2,2z"/>
       <path class="fil4" d="M304 738c0,0 0,0 0,0l0 0z"/>
       <path class="fil4" d="M304 738c0,0 0,0 0,0 0,0 0,0 0,0z"/>
       <path class="fil10" d="M288 278l-1 0c-1,0 -2,1 -3,1 0,0 -1,0 -1,0 -1,0 -1,0 -1,1 -1,0 -1,0 -1,1 0,0 0,1 0,1 0,1 1,1 1,2 1,1 2,1 3,2 1,0 2,0 3,1 2,0 4,1 7,2l0 0 0 0c1,2 2,3 3,4 1,1 2,2 3,2 0,1 0,2 0,3 1,1 1,2 2,3 1,0 1,0 1,0 1,1 1,1 2,1l0 0c0,0 1,0 1,0 1,1 2,1 4,2 1,1 2,1 3,1 2,0 3,0 4,1 1,0 2,0 3,0 1,0 3,0 5,-1 3,0 5,-1 8,-1 1,-1 2,-1 2,-2 1,0 2,-1 2,-1 0,-1 1,-1 1,-1 0,0 0,-1 0,-1 0,-1 0,-2 0,-3 0,-2 0,-3 -2,-5 1,0 1,0 1,0 0,0 0,0 0,0 0,0 0,-1 -1,-1 -2,-2 -6,-4 -10,-6 -3,-1 -7,-2 -12,-3 -3,-1 -7,-1 -11,-1 -1,0 -2,0 -2,0 -1,0 -2,0 -2,-1 -1,0 -2,0 -3,0l-1 0c-2,0 -5,0 -8,-1z"/>
       <path class="fil11" d="M303 284c-1,0 -2,0 -3,0 -1,0 -2,1 -3,1 0,1 -1,1 -1,2 -1,0 0,1 0,1 0,0 0,0 0,0 0,-1 0,-1 1,-1 0,0 0,0 0,0 0,-1 0,-1 1,-1 0,0 0,0 0,0 1,-1 1,-1 1,-1 1,0 1,0 2,0 0,0 1,-1 1,-1 1,0 2,0 3,0 0,0 0,0 0,0 0,0 0,0 0,0 1,0 1,0 1,0 0,0 0,0 0,0 0,0 0,0 0,0 -1,0 -1,0 -1,0 -1,0 -1,0 -1,0 0,0 -1,0 -1,0zm-1 0l0 0c0,0 0,0 0,0 0,0 0,0 0,0zm-5 3l0 0c0,0 0,0 0,0 0,0 0,0 0,0z"/>
       <path class="fil11" d="M305 290c0,0 0,0 0,0 0,1 -1,1 -1,1 0,0 -1,0 -1,0 -1,1 -2,2 -2,3 0,0 0,0 0,0 0,0 0,0 1,0 0,0 0,-1 0,-1 0,0 0,0 1,0 0,-1 0,-1 0,-1 0,0 0,0 0,0 0,0 0,0 0,0 0,0 0,0 0,0 0,0 0,0 0,0 0,0 0,0 1,0 0,0 0,0 0,-1 0,0 1,0 1,0 0,0 0,0 1,0 0,0 0,0 0,0 0,0 0,0 0,0 0,0 0,-1 0,-1 0,0 0,0 0,0 0,0 -1,0 -1,0zm-2 2l0 0c0,0 0,0 0,0 0,0 0,0 0,0 0,0 0,0 0,0z"/>
       <path class="fil11" d="M311 298c0,0 0,0 -1,0 0,0 -1,1 -1,1 0,0 0,0 -1,1 0,0 0,0 0,1 0,0 0,0 0,0 0,0 0,0 0,0 0,0 0,0 0,0 0,0 0,0 0,0 0,0 0,0 1,0 0,-1 0,-1 0,-1 0,0 0,0 0,0 0,0 0,0 0,0 0,0 0,0 0,0 0,0 0,0 0,0 0,0 0,0 0,0 0,0 0,-1 1,-1 0,0 0,0 -1,0 1,0 1,0 1,0 0,0 1,0 1,0 0,0 0,-1 1,-1 0,0 0,0 0,0 0,0 0,0 -1,0 0,0 0,0 0,0zm-2 2l0 0 0 0c0,0 0,0 0,0 0,0 0,0 0,0z"/>
       <path class="fil6" d="M335 288l0 0 0 0c-1,1 -2,3 -3,5 0,1 -1,2 -2,3 -1,0 -1,1 -2,2 -2,2 -3,4 -5,5 0,1 -1,2 -2,2 0,1 -1,1 -1,1 7,9 14,19 20,29l0 0c3,4 6,9 9,13l-2 0 -1 -1c-9,-1 -19,-4 -28,-7 -8,-3 -16,-5 -24,-7 -3,-1 -5,-1 -7,-1 -3,-1 -5,-1 -7,-1l-3 0 -1 0c-1,-1 -3,-1 -4,-1 -2,0 -5,0 -7,-1 -2,0 -4,-1 -6,-2 -1,0 -3,-1 -4,-2 -2,-2 -3,-3 -5,-5 0,0 0,0 0,0 0,0 0,0 -1,0 0,0 0,0 0,0 -1,1 -2,1 -4,2 -2,1 -5,2 -8,2 -2,1 -4,1 -7,1 -1,0 -3,0 -4,0 -4,0 -8,-1 -12,-3 -2,-1 -5,-2 -7,-3 0,0 0,0 0,0 0,0 0,0 -1,0 0,0 0,0 0,0 0,0 0,0 0,1 0,2 -1,4 -1,6 -1,2 -2,3 -3,5 -1,2 -3,3 -5,5 -3,3 -6,5 -12,7 0,0 0,0 0,0 -2,2 -5,3 -8,4l0 0 0 0c-4,1 -7,3 -10,5 -6,3 -12,7 -17,11 -4,4 -7,9 -11,14 -2,3 -4,6 -6,10l11 -4 23 -9c0,0 0,0 0,0l0 0 28 75 28 75c0,0 0,0 -1,0 6,1 13,2 19,2 3,0 7,0 10,0 7,-1 13,-2 20,-4 6,-2 12,-4 18,-7 5,-3 11,-7 15,-11 1,-1 1,-1 1,-1 0,0 0,-1 0,-1 -2,-3 -3,-6 -5,-10 -3,-5 -6,-11 -8,-17 -2,-5 -3,-11 -3,-16 -1,-2 -1,-4 -1,-6 1,-2 1,-4 1,-6 1,-6 4,-12 6,-18 1,-2 1,-3 1,-4 2,-3 3,-7 4,-12 1,-3 2,-7 2,-11 0,-2 0,-4 0,-5 4,0 8,1 12,1 6,1 11,1 16,1 4,0 8,0 12,-1 5,0 9,-1 14,-2 4,-1 8,-2 13,-3 4,-1 8,-3 12,-5 2,-1 4,-2 5,-3 2,-1 3,-2 5,-3 3,-2 5,-5 8,-8 1,-1 2,-3 2,-5 1,-1 2,-3 2,-5 1,-3 1,-7 0,-11 -1,-3 -2,-7 -4,-10 -2,-3 -4,-6 -7,-10 -2,-2 -5,-4 -7,-6 0,0 0,-1 0,-1l0 0 -1 -1c-1,-1 -3,-3 -4,-4 -2,-2 -4,-3 -6,-5 -3,-3 -6,-6 -10,-8 -10,-8 -20,-14 -28,-20 -1,0 -1,0 -1,0l0 0z"/>
       <path class="fil17" d="M404 361c-2,3 -4,5 -5,6 -4,4 -8,7 -12,9 -5,3 -11,5 -16,6 -6,1 -12,2 -18,1 -7,0 -13,0 -19,-2 -6,-1 -13,-2 -19,-4 -11,-4 -21,-8 -32,-13 3,3 5,5 7,8 2,3 5,7 7,10 1,4 3,8 4,11 1,1 1,3 1,4l0 0c4,0 8,1 12,1 6,1 11,1 16,1 4,0 8,0 12,-1 5,0 9,-1 14,-2 4,0 8,-2 13,-3 4,-1 8,-3 12,-5 2,-1 4,-2 5,-3 2,-1 3,-2 5,-3 3,-2 6,-5 8,-8 1,-1 2,-3 2,-5 1,-1 2,-3 2,-5 0,-1 1,-2 1,-3 0,0 0,0 0,0z"/>
       <path class="fil17" d="M178 346l0 1 -1 0 0 0 0 0c-4,1 -7,3 -10,5 -6,3 -12,7 -17,11 -4,4 -8,9 -11,14 -2,3 -4,6 -6,10l11 -4 23 -9c0,0 0,0 0,0l0 0 28 75 2 4c-3,-10 -6,-20 -9,-30 -1,-6 -3,-13 -5,-19 -1,-3 -2,-7 -2,-10 -1,-3 -2,-6 -2,-9 -1,-5 -2,-9 -3,-15 0,-2 0,-5 0,-7 0,-3 0,-5 1,-8 0,-1 0,-2 1,-3 0,-1 1,-2 1,-3 1,-1 2,-2 2,-3 1,-1 1,-1 1,-1 -1,0 -3,1 -4,1z"/>
       <path class="fil18" d="M283 364c0,0 0,0 0,0 0,0 0,1 0,1 1,0 1,1 2,2 1,0 1,1 2,2 0,0 0,0 0,0 1,1 2,2 2,3 1,1 2,2 3,4 2,2 3,4 5,7 0,0 0,0 0,0 1,4 3,7 4,11 0,0 0,0 0,0l0 0c0,0 0,0 0,0 0,2 0,4 0,6 0,1 0,3 0,5 0,0 0,0 0,0 0,0 0,1 0,1 0,1 0,2 0,2 0,1 0,2 0,3 0,1 -1,1 -1,2 0,0 0,0 0,1 0,0 0,0 0,0 0,0 1,-1 1,-2 0,-1 1,-3 1,-4 0,-2 0,-4 0,-5 0,-5 0,-9 -1,-13 -1,-2 -2,-5 -3,-7 -1,-2 -2,-4 -3,-5 -2,-4 -5,-7 -8,-11 -1,-1 -2,-2 -3,-3 0,0 0,0 -1,0 0,0 0,0 0,0z"/>
       <path class="fil18" d="M301 394l0 0c0,0 0,0 0,0 0,0 0,0 0,0z"/>
       <path class="fil18" d="M185 392c-1,1 -2,2 -2,3 -1,2 -1,3 -2,4 -1,2 -1,4 -2,6l1 3c0,-1 1,-2 1,-4 1,-2 1,-4 2,-6 0,0 0,0 0,0 1,-2 1,-4 2,-6 0,0 0,0 0,0 0,0 0,0 0,0 0,0 0,0 0,0z"/>
       <path class="fil18" d="M320 306c0,0 0,0 0,0 0,0 0,0 0,0 1,1 1,2 2,2 0,1 0,1 1,2 1,1 2,2 3,4 0,0 0,0 0,0 0,0 0,0 0,0 0,0 0,0 0,0 0,0 0,0 0,0 5,7 10,14 14,22 2,3 4,7 7,10 1,2 2,4 3,6 1,1 2,3 4,5 3,4 6,7 10,11 0,0 1,0 1,0 0,-1 0,-1 0,-1 -2,-2 -4,-3 -6,-5 -1,-2 -3,-4 -4,-6 -3,-3 -5,-7 -7,-10 -2,-4 -4,-7 -6,-11 -5,-8 -9,-15 -15,-22 -1,-2 -2,-3 -3,-4 0,-1 -1,-1 -1,-2 0,0 -1,0 -1,-1 0,0 -1,0 -1,0 0,-1 0,-1 0,-1l0 0c-1,0 -1,0 -1,1zm6 8l0 0c0,0 0,0 0,0 0,0 0,0 0,0 0,0 0,0 0,0z"/>
       <path class="fil18" d="M206 318c0,0 0,1 0,1 3,2 6,4 9,5 3,1 7,2 11,2 3,0 7,0 10,-1 2,0 4,0 5,-1 2,0 4,-1 6,-2 1,-1 2,-1 3,-2 1,0 1,-1 0,-1 0,0 0,0 -1,0 -1,1 -2,1 -3,2 -1,0 -2,1 -4,2 -1,0 -2,0 -3,1 0,0 0,0 0,-1 -4,1 -8,2 -12,1 0,0 0,0 0,0 -4,0 -8,0 -11,-1 0,0 0,0 0,0 -3,-1 -5,-2 -7,-4 0,0 0,0 0,0 -1,0 -1,-1 -2,-1 0,0 0,0 -1,0 0,0 0,0 0,0zm10 4l0 0c0,0 0,0 0,0 0,0 0,0 0,0zm11 2l0 0c0,0 0,0 0,0 0,0 0,0 0,0z"/>
       <path class="fil4" d="M229 198c-3,0 -6,0 -8,0 -7,1 -13,2 -19,4 -2,1 -5,2 -8,3 -2,2 -5,4 -7,5 -2,2 -4,5 -5,7 -2,3 -4,7 -4,11 -1,2 -1,4 -1,6 1,2 1,4 1,7 1,2 2,5 3,8 1,3 3,5 4,7 0,1 1,2 2,3 1,1 1,2 2,3 1,1 2,1 3,1 0,0 0,0 0,0 1,0 1,0 2,-1 0,0 1,-2 1,-2 0,-2 -1,-3 -1,-4 -1,-2 -1,-4 -2,-6 0,-1 0,-1 -1,-2 0,-1 0,-2 -1,-3 0,-5 -1,-9 -1,-14l0 0c0,-3 1,-6 2,-9 2,1 4,2 7,2 2,0 3,0 5,0 2,0 4,0 6,0 3,0 6,-1 9,-1 1,0 2,0 3,0 1,0 3,-1 5,-1 2,0 3,0 5,0 0,0 1,0 2,0l0 0c2,0 5,0 7,1 3,0 5,1 8,2 2,0 5,2 8,3 3,1 5,3 8,4l0 0c4,3 7,6 10,9 1,0 1,1 1,1 0,0 0,0 1,0 0,0 0,0 0,0 0,0 0,0 0,0 0,0 0,0 0,0 0,-1 0,-1 0,-1l0 0 0 0c0,0 0,-1 0,-1 0,-5 0,-9 -1,-13 0,-2 -1,-4 -1,-6 -1,-2 -2,-4 -3,-6 -1,-3 -4,-6 -6,-8 -2,-2 -5,-3 -8,-5 -3,-1 -6,-2 -10,-2 -3,-1 -6,-1 -8,-2 -4,0 -7,0 -10,0z"/>
       <path class="fil12" d="M230 213c-2,0 -4,1 -6,1 -4,1 -8,2 -12,2l0 0c-4,1 -9,1 -13,1 0,0 0,0 0,0 -1,0 -3,0 -4,-1 0,0 -1,1 0,1 2,1 4,1 6,1 2,0 4,0 6,0 5,-1 9,-1 13,-2 0,0 0,0 0,0 1,0 1,0 1,0 0,0 0,0 0,0 3,-1 5,-1 8,-1 1,0 2,0 3,0 2,0 3,0 4,0 0,0 0,0 0,0 5,0 10,2 15,3 0,0 0,0 0,0 1,1 3,1 4,2 1,1 3,1 4,2 3,1 5,3 8,5 0,0 0,0 0,0 1,1 3,2 4,3 1,1 2,2 2,3 1,0 2,1 3,2 0,0 0,1 0,1 1,0 1,0 2,-1 0,0 0,0 0,-1 0,0 0,0 0,-1 -1,-1 -3,-3 -4,-4 -2,-2 -3,-3 -5,-4 -3,-2 -6,-4 -10,-6 -2,-1 -4,-2 -6,-2 -2,-1 -4,-2 -5,-2 -4,-1 -8,-2 -12,-2 -1,0 -1,0 -2,0 -1,0 -3,0 -4,0zm6 2l0 0c0,0 0,0 0,0 0,0 0,0 0,0z"/>
       <path class="fil12" d="M250 208c0,1 1,1 1,1 2,0 4,1 6,2 -1,0 -1,0 -1,0 2,0 4,1 5,2 2,1 3,2 5,3 1,1 3,2 4,3 1,1 3,3 4,4 0,0 0,1 0,1 0,0 1,0 1,0 0,0 1,0 1,0 1,0 1,-1 0,-2 -1,-1 -2,-1 -2,-2 -1,-1 -2,-2 -3,-3 -1,0 -2,-1 -3,-2 -1,-1 -2,-1 -3,-2 -2,-1 -5,-2 -7,-3 -1,0 -2,-1 -3,-1 -2,0 -3,-1 -4,-1 0,0 0,0 0,0 0,0 0,0 -1,0zm16 8l0 0c0,0 0,0 0,0 0,0 0,0 0,0z"/>
       <path class="fil4" d="M228 280c0,2 0,3 1,5 0,1 0,2 1,4 1,2 3,4 5,5 2,1 4,2 7,2 2,0 4,-1 6,-2 4,-3 6,-8 6,-13 -2,1 -4,1 -5,1 -3,0 -5,0 -8,0 -4,0 -8,-1 -13,-2 0,0 0,0 0,0z"/>
       <path class="fil5" d="M232 282c1,0 2,0 3,1 0,0 1,0 2,0 0,0 0,0 0,0 1,1 2,1 3,1 1,0 2,0 3,0l0 0c0,0 0,0 0,0 0,0 0,0 0,0 0,0 0,0 0,0 3,0 5,-1 8,-1 0,0 0,0 0,0 0,-1 1,-1 2,-1 0,0 0,-1 0,-1 -1,1 -3,1 -4,1 -2,0 -4,0 -5,0 -1,0 -2,0 -3,0 -3,0 -7,-1 -10,-1 0,0 1,0 1,1z"/>
       <path class="fil19" d="M233 288c0,0 0,0 0,0 -1,1 -2,1 -3,1 1,2 3,4 5,5 2,1 4,2 7,2 2,0 4,-1 6,-2l1 -1c-1,0 -2,-1 -4,-2 -1,-1 -3,-1 -6,-2 -2,0 -4,-1 -6,-1z"/>
       <path class="fil4" d="M221 269c1,-1 2,-3 1,-7 -1,-3 -2,-5 -4,-5 -1,1 -2,3 -1,6 1,4 2,6 4,6z"/>
       <path class="fil4" d="M261 259c1,0 1,-3 1,-6 -1,-3 -2,-5 -3,-5 -2,1 -2,3 -2,6 1,3 2,5 4,5z"/>
       <path class="fil4" d="M205 242c1,1 6,0 10,-3 5,-3 8,-6 7,-8 -1,-1 -5,0 -10,3 -5,3 -8,7 -7,8z"/>
       <path class="fil4" d="M191 220c0,0 -1,0 -1,0 -1,0 -1,0 -1,0 -1,0 -2,1 -2,1 -1,1 -1,2 -2,2 -1,2 -2,4 -2,6 -1,2 -1,4 -1,7 -1,5 -1,9 0,14 0,3 1,5 2,6 0,1 0,2 1,3 1,1 1,2 2,2 0,1 1,1 2,2 0,0 0,0 1,0 0,0 1,1 1,1 1,0 1,0 1,0 0,0 0,0 0,0 1,0 1,0 1,-1 1,0 1,0 2,0 0,0 1,-1 1,-1 0,0 1,-1 1,-2 0,-1 1,-2 1,-3 0,-2 0,-3 -1,-4 0,-1 0,-2 0,-3l0 0 0 -1c0,-1 0,-1 0,-2 0,-1 0,-2 -1,-3l0 -1 0 -1c0,-2 -1,-3 -1,-5 0,-3 0,-5 0,-6 0,-3 0,-5 0,-7 0,0 0,-1 0,-2 0,0 0,0 0,0 0,0 0,0 0,0 0,0 0,0 0,0 0,0 -1,-1 -1,-1 0,0 0,0 0,-1 -1,0 -1,0 -1,0 -1,0 -1,0 -2,0 0,0 0,0 0,0z"/>
       <path class="fil20" d="M243 246l0 0 0 0 0 0c0,0 0,0 0,0 0,1 1,2 1,3 1,2 1,3 2,5l1 1c1,2 2,5 4,7 0,2 1,4 1,5 0,1 0,2 0,2 0,1 0,1 0,2 0,0 -1,0 -1,1 0,0 0,0 -1,0 0,1 0,1 -1,1 -1,0 -1,1 -2,1 0,0 -1,0 -1,0 -1,0 -1,0 -1,1 0,0 0,1 0,1 0,0 0,0 1,0 2,0 5,-1 7,-4 1,-2 1,-4 0,-6 0,-1 -1,-3 -1,-4 -1,-1 -1,-2 -2,-3 0,-1 -1,-2 -2,-3l0 -1c-1,-1 -1,-2 -2,-4 -1,-1 -1,-2 -2,-3 0,-1 0,-1 -1,-2 0,0 0,0 0,0z"/>
      </g>
      <path class="fil5" d="M167 374c0,0 0,0 0,0l-23 9 -87 32 24 64c0,0 0,0 0,-1 1,0 2,-1 2,-1 1,0 2,-1 2,-1 1,0 1,0 1,0 1,0 1,0 1,0 0,0 1,0 1,0 0,1 1,1 1,2 0,0 0,0 0,1 0,1 0,2 -1,3 2,-1 2,-2 3,-3 1,0 2,-1 3,-2 1,-1 2,-1 3,-2 0,0 1,0 2,0l0 0c0,0 0,0 0,0 0,0 1,0 1,0 0,0 1,0 1,0 0,0 0,0 0,1 0,0 1,1 1,1 -1,1 -1,2 -1,2 1,0 1,0 2,-1 1,0 1,-1 2,-1 0,0 1,0 1,0 0,0 0,0 0,0 0,0 1,0 1,0 0,1 1,1 1,1 0,0 1,1 1,1 0,1 0,1 0,1 0,1 0,2 -1,4 0,0 0,0 0,0 0,0 1,0 1,0 0,0 0,0 1,0l0 0c0,0 0,0 0,0 0,0 1,0 1,0 0,0 0,0 0,0 0,1 1,1 1,1 0,0 0,0 0,1 0,0 0,0 0,0 0,1 0,2 0,3 0,1 -1,1 -1,2 0,1 -1,2 -1,2 0,1 -1,2 -1,3l0 0c-2,4 -3,7 -5,11 -1,2 -2,3 -3,5 -1,2 -3,3 -4,5 0,0 -1,0 -1,1l18 47c36,-14 73,-27 109,-41l-28 -75 -28 -75 0 0z"/>
      <path class="fil21" d="M184 470c0,7 -1,14 -5,21 -4,6 -11,11 -19,11 -7,1 -14,-2 -17,-8 -3,-5 -3,-12 1,-17 3,-3 7,-6 11,-8 4,-2 6,-5 6,-9 -1,-3 -4,-6 -8,-6 -7,0 -20,8 -25,-1 -2,-5 1,-11 3,-15 3,-4 8,-8 13,-10 6,-1 7,4 6,8 -2,3 -4,7 -1,9 2,2 4,1 6,0 7,-7 6,-18 -1,-24 -7,-7 -17,-4 -25,0 -5,2 -9,6 -12,10 -3,4 -6,9 -7,14 -3,10 2,21 11,26 2,1 3,1 5,2 -1,1 -2,3 -2,4 -3,10 -2,21 5,29 3,4 8,8 13,10 14,6 33,-2 41,-15 3,-4 6,-10 6,-15 1,-5 1,-12 -1,-17 -1,-2 -4,-1 -4,1l0 0z"/>
     </g>
     <g>
      <path class="fil22" d="M687 352c-2,0 -4,1 -6,1 -2,0 -3,0 -4,1 -2,0 -3,1 -4,2 -2,1 -5,2 -7,4 -2,2 -3,4 -5,7 -1,2 -2,5 -3,7 -1,5 -1,10 0,14 1,2 2,4 4,6 1,1 2,2 3,3 0,0 0,0 0,0 -1,1 -2,3 -2,4 -1,2 -1,3 -2,5 0,1 0,3 0,5 0,3 0,6 1,10 0,3 1,6 3,9 1,3 3,6 5,8 1,3 4,5 6,8 2,2 5,3 8,5 2,2 5,3 8,4 6,2 12,4 19,5 7,1 14,2 20,2l1 1c1,0 2,0 3,0 1,0 2,0 4,0l0 0 0 0c4,0 7,0 10,1 3,0 4,1 6,1l0 1 0 0c0,0 0,0 1,0 0,0 0,0 0,0 0,0 0,0 1,0 2,-1 4,-2 6,-3 1,-2 3,-3 4,-4 4,-2 7,-5 9,-8 6,-7 10,-14 13,-21 1,-3 1,-7 1,-10 0,-3 0,-6 0,-9 -1,-3 -2,-6 -4,-9 0,-1 -1,-2 -2,-3 -1,-1 -2,-3 -3,-4 -1,0 -2,-1 -2,-1 1,-1 2,-2 4,-3 0,0 1,-1 1,-2 1,0 1,-1 1,-2 1,0 1,-1 1,-2 0,0 0,-1 0,-2 0,-1 -1,-1 -1,-2 0,-1 0,-1 -1,-2 -1,-1 -2,-1 -3,-1 0,0 -1,-1 -1,-1 -1,0 -2,1 -2,1 -2,0 -3,0 -4,1 -1,1 -2,1 -4,2 0,0 0,1 0,1 1,-2 1,-4 1,-6 0,-1 0,-3 0,-4 0,-1 -1,-3 -2,-4 -1,-1 -2,-1 -3,-2 -1,0 -2,0 -2,0 -1,0 -1,0 -2,0 -1,0 -2,1 -3,2 -1,0 -1,1 -2,2 -1,1 -1,2 -2,4 0,1 0,2 -1,3l0 1c-1,-2 -2,-4 -3,-7 -2,-3 -5,-5 -7,-8 -2,-1 -4,-1 -5,-2 -1,-1 -3,-1 -4,-1 -1,0 -2,0 -3,0 -2,0 -4,0 -6,0 -3,1 -5,3 -7,5 -1,1 -1,2 -2,2 0,0 -1,-1 -2,-2 -1,-1 -2,-2 -4,-3 -2,-3 -5,-5 -9,-6 -1,-1 -3,-2 -5,-2 -1,-1 -3,-1 -5,-1 -1,-1 -3,-1 -5,-1z"/>
      <path class="fil23" d="M733 472c0,0 0,0 0,0 0,0 -1,0 -1,0 0,2 -1,3 -1,4 0,0 0,1 0,2 -1,-1 -1,-2 -1,-2 -1,-1 -2,-2 -3,-2 -1,-1 -2,-1 -4,-1 0,-1 -1,-1 -2,-1 0,0 -1,0 -1,1 -3,0 -6,1 -8,2 -1,1 -2,1 -3,2 -1,2 -2,3 -3,5 0,1 0,2 -1,2l0 0 0 0c0,0 0,-1 0,-1 -1,0 -1,0 -1,0 0,0 0,1 0,1 0,0 0,0 0,0 0,1 0,2 0,3 0,0 0,1 1,1 0,1 0,3 -1,4 0,2 0,4 -1,6 -1,2 -2,4 -3,5 -1,0 -1,1 -1,1 1,0 1,0 1,0 0,0 0,0 0,0 1,2 2,4 4,5 2,2 4,3 6,4 3,1 5,1 7,2 2,0 3,0 5,0 1,0 2,0 3,0 1,0 3,-1 4,-1 2,-1 3,-2 5,-3 1,-1 2,-3 2,-4 1,-2 2,-4 2,-6 0,0 0,0 0,0 -1,-1 -1,-1 -1,-1 0,0 0,0 -1,0 -1,-2 -2,-3 -3,-5 0,-2 -1,-4 -1,-7 -1,-2 -1,-5 0,-8l0 0c0,-2 1,-5 1,-7l1 0c0,0 0,0 0,0 0,-1 -1,-1 -1,-1 0,0 0,0 0,0z"/>
      <path class="fil24" d="M720 472c-3,1 -6,2 -8,3 -1,1 -2,1 -3,2 -1,2 -2,3 -3,5 0,1 0,2 -1,2l0 0 0 0c0,0 0,-1 0,-1 -1,0 -1,0 -1,0 0,0 0,1 0,1 0,0 0,0 0,0 0,1 0,2 0,3 0,0 0,1 1,1 0,1 0,3 -1,4 0,1 0,2 0,3 2,-1 5,-1 7,-2 0,0 0,0 0,0 0,0 0,0 0,0 0,0 0,0 0,0 1,0 3,-1 4,-1 1,-1 3,-1 4,-2 0,0 0,0 0,0 1,-1 2,-1 3,-2 1,0 1,-1 2,-2 0,0 0,0 0,0 1,0 1,-1 2,-2 0,0 1,-1 1,-2 0,0 0,0 0,0 0,0 0,0 0,0 0,0 0,0 0,0 1,-2 2,-4 3,-6 0,0 0,0 0,0 -1,-1 -2,-2 -3,-2 -1,-1 -2,-1 -4,-1 0,-1 -1,-1 -2,-1 0,0 -1,0 -1,0zm7 10l0 0c0,0 0,0 0,0 0,0 0,0 0,0 0,0 0,0 0,0 0,0 0,0 0,0zm-16 11l0 0c0,0 0,0 0,0 0,0 0,0 0,0z"/>
      <path class="fil25" d="M668 417c-1,0 -2,0 -2,0 -1,1 -2,1 -2,2 -2,1 -3,2 -4,4 -1,2 -2,4 -3,6 0,2 0,3 0,4 0,1 0,2 0,3 1,3 1,5 3,6 1,2 3,4 5,5 0,0 0,0 0,0 0,0 1,0 1,0 0,0 0,0 0,0 3,-3 5,-5 6,-8 1,-2 2,-3 3,-5 0,-2 1,-3 1,-5 0,-2 0,-3 0,-5 -1,-1 -2,-3 -3,-4 -1,-1 -1,-2 -2,-2 -1,0 -1,-1 -1,-1 -1,0 -1,0 -2,0 0,0 0,0 0,0zm-2 28l0 0c0,0 0,0 0,0 0,0 0,0 0,0 0,0 0,0 0,0z"/>
      <path class="fil24" d="M664 422c0,1 0,1 0,1 1,0 1,0 1,0 0,0 0,0 0,0 0,0 1,0 1,0 1,0 1,1 1,1 1,0 1,1 2,1 0,1 0,1 1,2 0,1 0,2 1,4 0,0 0,0 0,-1 0,1 0,2 0,2 0,1 0,1 1,1 0,0 0,0 0,-1 0,-2 0,-5 -2,-7 0,-1 -1,-2 -2,-2 -1,0 -1,-1 -2,-1 0,0 -1,0 -2,0 0,0 0,0 0,0 0,0 0,0 0,0zm2 1l0 0c0,0 0,0 0,0 0,0 0,0 0,0zm4 4l0 0c0,0 0,0 0,0 0,0 0,0 0,0z"/>
      <path class="fil23" d="M713 386c-2,0 -4,0 -6,0 -3,0 -6,1 -9,2 -2,0 -3,0 -5,1 -2,0 -3,0 -5,0 -1,0 -1,0 -2,0 -1,0 -2,0 -3,0l0 0c0,0 -1,0 -1,0 0,0 0,0 0,0 -1,2 -2,3 -3,5 -1,1 -2,2 -3,4 -1,3 -2,6 -3,10 -1,3 -1,5 -1,7 -1,5 -2,10 -3,14 -1,1 -1,2 -2,4 0,0 0,1 -1,2 0,1 -1,1 -1,2 -1,2 -2,4 -2,6 -1,3 -2,6 -2,10 0,3 1,7 2,10 0,1 1,3 2,4 1,2 2,3 3,5 2,3 4,5 7,8 3,2 6,3 9,5 4,1 7,2 11,3 3,0 6,1 10,1l0 0c7,0 14,-2 20,-4 3,-2 6,-4 8,-6 2,-2 4,-4 6,-7 2,2 5,2 8,3 1,0 1,0 2,0l1 0c0,0 1,0 2,-1 2,0 4,0 5,-1 2,-1 3,-2 4,-3 2,-2 3,-3 3,-5 1,-1 1,-3 1,-5 0,-1 0,-3 -1,-4 -1,-2 -2,-3 -3,-3 -1,-1 -3,-2 -4,-2 -2,-1 -4,-1 -5,-1 -1,0 -2,0 -3,0 1,-1 2,-3 3,-4l1 -2 1 -1 1 -1c0,-1 0,-1 1,-2 2,-3 4,-7 6,-11 1,-2 1,-4 2,-6 0,-1 0,-2 0,-3 0,-1 0,-2 0,-3 -1,-3 -2,-6 -4,-9 -2,-3 -4,-5 -7,-8 -3,-2 -6,-4 -9,-5 -3,-2 -6,-4 -9,-5 -5,-2 -9,-3 -13,-3 -3,-1 -6,-1 -9,-1z"/>
      <path class="fil25" d="M707 386c-3,0 -6,1 -9,1 -2,1 -3,1 -5,1 -2,1 -3,1 -5,1 -1,0 -1,0 -2,0 -1,0 -2,0 -3,0 0,0 -1,0 -1,0l0 0c0,0 0,0 0,0 -1,2 -2,3 -3,5 -1,1 -2,2 -3,4 -1,2 -1,3 -2,5 1,0 1,0 1,1 1,0 3,1 4,2 1,0 3,1 4,1l0 0c1,1 3,1 5,1 1,1 3,1 4,1l0 0c2,0 4,0 5,0 2,0 3,-1 5,-1 0,0 0,0 0,0 1,0 3,-1 5,-2 0,0 0,0 0,1 0,0 0,0 0,0 1,0 1,0 1,0 1,1 2,2 3,3 0,0 0,0 0,0l0 0 0 0c0,1 1,2 2,3 1,0 1,1 2,2 1,0 2,0 3,1 0,0 1,1 2,1l0 0c1,0 2,0 3,0 0,1 1,1 2,1l0 0c0,0 0,0 0,0 0,0 0,0 0,0 1,0 2,0 3,0 1,0 1,-1 2,-1 0,0 0,0 0,0 2,0 3,-1 4,-1 0,0 0,0 1,0 0,0 0,0 0,0 0,1 1,2 1,3 0,0 0,0 0,0 1,1 1,1 2,2 0,1 1,2 2,3l0 0c1,1 2,2 3,3 1,0 2,1 3,2 1,1 2,1 4,2 1,1 2,1 3,1 0,0 0,0 0,0 0,0 0,0 0,0 0,0 0,0 0,0 2,1 5,2 7,2 1,-2 1,-3 2,-5 1,-2 1,-4 2,-6 0,-1 0,-2 0,-3 0,-1 0,-2 0,-3 -1,-3 -2,-6 -4,-9 -2,-3 -4,-5 -7,-8 -3,-2 -6,-4 -9,-5 -3,-2 -6,-4 -9,-5 -5,-2 -9,-3 -13,-4 -3,0 -6,0 -9,0 -2,0 -4,0 -6,0zm-24 21l0 0c0,0 0,0 0,0 0,0 0,0 0,0zm19 1l0 0c0,0 0,0 0,0 0,0 0,0 0,0zm18 9l0 0 0 0 0 0zm5 1l0 0 0 0 0 0 0 0zm15 6l0 0c0,0 0,0 0,0 0,0 0,0 0,0zm13 8l0 0c0,0 0,0 0,0 0,0 0,0 0,0z"/>
      <polygon class="fil25" points="725,418 725,418 "/>
      <path class="fil25" d="M706 404c0,0 0,0 0,1 1,2 3,5 5,7 1,1 1,1 2,2 1,0 1,0 2,1 1,1 2,2 4,2 1,1 2,1 4,2 1,0 3,0 4,0 2,0 3,0 5,-1 1,0 1,0 2,-1 1,0 2,0 2,-1 1,0 1,-1 1,-1 0,-1 -1,-1 -2,-1 0,0 -1,0 -2,0 0,1 -1,1 -1,1 -2,0 -4,1 -5,1 -2,0 -3,0 -5,-1 -1,0 -2,0 -3,0 -1,-1 -2,-1 -3,-2 -1,-1 -3,-2 -4,-3 -1,-1 -2,-1 -2,-2 -1,-1 -2,-2 -2,-3 0,0 0,0 0,0 0,0 -1,0 -1,-1 0,0 0,0 0,0 -1,0 -1,0 -1,0zm6 6l0 0c0,0 0,0 0,0 0,0 0,0 0,0zm20 5l0 0c0,0 0,0 0,0 0,0 0,0 0,0zm-10 0l0 0c0,0 0,0 0,0 0,0 0,0 0,0z"/>
      <path class="fil24" d="M751 455c0,0 0,1 0,1 0,0 0,0 0,0 0,0 0,0 0,1 0,0 0,0 0,0 0,0 0,0 0,0 0,1 -1,2 -1,3 -1,1 -1,2 -2,3 -1,1 -2,2 -3,3 0,0 0,0 1,0 -1,0 -2,1 -3,1 0,0 0,0 0,0 0,0 0,0 0,0 0,0 0,0 0,0 0,0 0,0 0,0 0,0 -1,0 -1,0 0,1 0,1 0,1 0,0 0,0 0,0 2,0 3,-1 4,-2 1,-1 2,-2 3,-3 1,0 1,-1 1,-1 1,-1 1,-2 1,-3 1,-1 1,-3 1,-4 0,-1 0,-1 0,-1 -1,0 -1,0 -1,1zm-8 12l0 0c0,0 0,0 0,0 0,0 0,0 0,0 0,0 0,0 0,0zm2 -1l0 0c0,0 0,0 0,0 0,0 0,0 0,0zm6 -9l0 0c0,0 0,0 0,0 0,0 0,0 0,-1 0,1 0,1 0,1z"/>
      <path class="fil24" d="M752 454c0,0 0,0 0,0 0,0 -1,0 -1,0 0,0 0,1 0,1 0,0 0,0 0,0 0,0 0,0 0,0 1,1 1,1 2,1 1,0 1,0 2,0 1,0 2,1 3,1 1,1 1,1 2,2 0,0 0,0 0,0 0,0 0,0 0,0 0,0 0,0 0,0 0,0 0,0 0,0 0,0 1,0 1,0 0,1 0,1 0,1 0,0 0,0 0,0 1,1 1,1 1,2 0,0 0,0 0,1 0,0 1,0 1,0 0,0 0,0 0,0 0,-1 0,-2 0,-2 -1,-1 -1,-1 -1,-2 0,0 -1,-1 -1,-1 0,0 0,0 0,-1 -1,0 -1,-1 -2,-1 -1,-1 -2,-2 -4,-2 0,0 0,0 -1,0 0,0 0,0 -1,0 0,0 0,0 0,0 0,0 0,0 -1,0zm3 2l0 0c0,0 0,0 0,0 0,0 0,0 0,0zm7 6l0 0c0,0 0,0 0,0 0,0 0,0 0,0zm-2 -3l0 0c0,0 0,0 0,0l0 0c0,0 0,0 0,0z"/>
      <path class="fil23" d="M805 416c0,-2 0,-5 -1,-8 0,0 0,-1 0,-2 0,0 0,0 0,0 0,-1 -1,-2 -1,-3 -1,-4 -2,-7 -3,-10 -1,-2 -2,-3 -3,-4 0,-1 -1,-1 -1,-2 -1,0 -1,-1 -2,-1 0,0 -1,0 -1,0 0,0 0,0 0,0 -1,0 -1,0 -1,1 -1,0 -1,1 -1,2 0,1 -1,1 -1,2 0,-1 -1,-2 -1,-3 -1,-1 -1,-2 -2,-3 0,0 -1,0 -1,0 0,0 0,-1 0,-1 -1,0 -1,0 -1,0 0,0 0,0 -1,0 0,0 0,1 0,1 0,0 -1,0 -1,0 0,0 0,1 0,1 -1,1 -1,1 -1,2 0,0 1,1 1,1 0,2 0,3 1,4 -1,-1 -2,-2 -3,-3 -1,0 -1,0 -1,0 -1,0 -1,0 -1,0 0,0 -1,0 -1,0 0,0 -1,1 -1,1 0,0 -1,1 -1,1 0,1 0,2 1,3 0,1 1,2 2,3 0,1 1,2 2,3l1 1c-1,-1 -1,-1 -2,-1 -1,0 -2,1 -3,2 0,0 0,1 -1,1 0,1 0,2 0,2 1,3 3,5 5,6 1,1 3,1 4,2l1 0 0 0c2,2 5,3 7,4 1,0 2,0 3,0 0,0 1,0 1,0 1,0 2,0 3,0 1,-1 2,-1 3,-2 0,0 0,1 0,1 0,0 0,1 0,1 0,0 0,0 0,0 0,0 1,0 1,0 0,0 0,1 0,1 1,0 1,-1 1,-1 0,-1 0,-1 0,-1 0,0 0,-1 0,-1z"/>
      <path class="fil23" d="M632 423c-1,-1 -1,-1 -1,-2 -1,0 -1,-1 -2,-1 -1,0 -2,0 -3,1 0,0 -1,1 -1,1l0 -1c0,-1 0,-2 0,-4 0,-1 0,-2 0,-3 0,-1 0,-2 -1,-3 0,0 -1,0 -1,-1 -1,0 -1,0 -1,0 -1,0 -1,1 -2,1 0,0 0,0 0,0 0,0 -1,1 -1,1 0,1 -1,2 -1,4 0,-1 0,-3 -1,-4 0,0 0,-1 0,-1 -1,-1 -1,-1 -1,-1 -1,-1 -1,-1 -2,-1 0,0 0,0 0,0 0,0 -1,0 -1,0 0,0 0,0 -1,0 0,0 0,1 0,1 0,0 0,0 0,0 -1,0 -1,1 -1,1 0,1 0,2 0,3 0,1 0,2 1,4 -1,-1 -1,-1 -2,-2 0,0 -1,-1 -2,-1 0,0 -1,0 -1,0 0,0 0,0 0,0 -1,0 -1,1 -1,1 0,0 -1,1 -1,2 0,0 0,1 0,2 -1,1 -1,3 0,4 0,4 1,7 2,11 1,1 1,1 1,2 0,0 0,0 0,0 1,1 1,2 2,3 1,2 2,5 3,7 0,0 0,0 0,0 1,1 1,1 1,1 0,1 1,1 1,1 0,-1 0,-1 0,-1 0,0 0,0 0,-1 1,0 1,0 1,0 0,0 0,0 0,0 -1,-1 -1,-1 -1,-2 1,0 2,1 3,0 1,0 2,0 3,-1 0,0 1,0 1,0 1,-1 1,-1 2,-2 2,-2 3,-4 4,-7l0 0 1 -1c0,-1 1,-2 2,-4 1,-2 2,-5 1,-7z"/>
      <path class="fil24" d="M616 425c-1,0 -1,0 -1,0 0,1 0,1 0,2 0,1 0,1 -1,2 0,1 1,1 1,2 0,1 0,1 0,2 1,0 1,0 1,0 0,0 0,0 1,0 0,0 0,0 0,0 0,-1 -1,-1 -1,-1 0,0 0,0 0,0 0,0 0,0 0,-1 0,0 0,0 0,0 -1,-1 -1,-1 -1,-1 0,0 0,-1 0,-1 0,0 0,-1 0,-1 0,0 0,0 0,0 0,0 1,-1 1,-1 0,-1 0,-1 0,-2 0,0 0,0 0,0 0,0 0,0 0,0 0,0 0,0 0,0z"/>
      <path class="fil24" d="M791 400c0,1 0,1 0,1 0,0 0,0 0,1 1,0 1,1 1,1 0,0 0,0 0,0 1,1 1,2 1,3 0,0 0,1 0,2 0,0 0,1 1,1 0,0 0,0 0,-1 0,0 1,0 1,0 -1,-2 -1,-3 -1,-4 -1,-2 -2,-3 -3,-4 0,0 0,0 0,0 0,0 0,0 0,0zm2 6l0 0c0,0 0,0 0,0 0,0 0,0 0,0z"/>
      <path class="fil7" d="M628 434c0,0 0,0 0,0 -3,0 -7,1 -10,2 -3,1 -5,2 -7,3 0,0 0,0 0,0 -1,1 -1,1 -2,2 -1,5 -1,9 -1,13 0,2 1,4 1,6 0,1 0,3 1,5 1,7 3,13 7,20 3,6 7,12 11,18 5,5 10,10 16,14 6,4 12,8 19,11 3,1 7,3 11,4 0,0 0,0 0,0 4,1 8,2 13,3 1,0 2,0 3,0 3,0 5,-1 8,-1 1,-1 2,-1 4,-2 1,-1 2,-2 3,-3 1,-2 1,-3 2,-5 0,-1 0,-1 0,-2 0,-1 0,-1 0,-2 0,-2 0,-4 0,-6 0,-1 -1,-3 -1,-5 -1,-2 -1,-4 -2,-5 -1,-2 -2,-3 -3,-4 1,0 1,0 1,0 0,0 0,-1 0,-1 0,0 0,0 0,0 -1,0 -1,0 -1,0 0,0 0,0 0,0 -1,0 -1,0 -2,0l0 0c-2,0 -4,0 -6,0 -2,0 -3,0 -5,0 -5,-1 -9,-2 -13,-3l0 0c-5,-2 -11,-5 -15,-9l0 0c-6,-4 -10,-9 -15,-14 -2,-3 -4,-5 -5,-8 -2,-3 -3,-6 -5,-10 -3,-6 -4,-13 -5,-18l0 0c0,-1 0,-2 -1,-3 0,0 -1,0 -1,0z"/>
      <path class="fil7" d="M701 499c0,0 -1,0 -1,0 -1,0 -1,1 -1,1 0,0 1,1 1,1 1,0 1,-1 1,-1 1,0 1,0 1,0 0,-1 0,-1 -1,-1 0,0 0,0 0,0z"/>
      <path class="fil7" d="M701 499c0,0 -1,0 -1,0 -1,0 -1,0 -1,1 0,0 1,1 1,0 0,0 1,0 2,0 0,0 0,0 0,0 0,0 0,-1 0,-1 0,0 0,0 0,0 0,0 0,0 -1,0 0,0 0,0 0,0z"/>
      <path class="fil7" d="M701 499c0,0 -1,0 -1,0 -1,0 -1,1 -1,1 0,0 1,1 1,1 0,0 1,-1 1,-1 1,0 1,0 1,0 0,-1 -1,-1 -1,-1 0,0 0,0 0,0z"/>
      <path class="fil7" d="M701 499c0,0 -1,0 -1,0 -1,0 -1,0 -1,1 0,0 1,1 1,0 0,0 1,0 1,0 0,0 1,0 1,0 0,0 0,-1 0,-1 0,0 0,0 -1,0 0,0 0,0 0,0z"/>
      <path class="fil7" d="M701 499c-1,0 -1,0 -2,0 0,0 0,0 0,1 0,0 0,1 1,0 0,0 1,0 1,0 1,0 1,0 1,-1 0,0 0,0 -1,0 0,0 0,0 0,0z"/>
      <path class="fil7" d="M701 499c-1,0 -1,0 -2,0 0,0 -1,1 -1,1 1,0 1,1 1,1 1,-1 1,-1 2,-1 0,0 0,0 1,0 0,0 0,-1 0,-1 0,0 -1,0 -1,0 0,0 0,0 0,0z"/>
      <path class="fil7" d="M785 413c0,0 0,0 0,0 4,-1 7,-1 10,-1 3,0 6,0 8,1 0,0 0,0 0,0 1,0 2,0 2,1 3,4 4,9 5,12 1,2 1,4 1,6 1,2 1,3 1,5 1,7 1,14 -1,21 -1,7 -3,14 -6,21 -3,6 -6,12 -10,18 -5,6 -10,11 -15,16 -3,2 -6,5 -9,7 -1,0 -1,0 -1,0 -3,2 -7,5 -11,7 -1,0 -2,0 -3,1 -3,1 -5,1 -7,1 -2,0 -4,0 -5,-1 -1,0 -3,-1 -4,-2 -1,-1 -2,-2 -3,-3 0,-1 -1,-2 -1,-2 0,-1 0,-2 -1,-3 0,-1 -1,-3 -1,-5 0,-2 -1,-4 -1,-5 0,-2 0,-4 0,-6 1,-1 1,-3 2,-4 0,0 0,0 -1,0 0,0 0,-1 0,-1 0,0 0,0 0,0 0,0 0,0 1,-1 0,0 0,0 0,0 1,0 1,0 2,0l0 0c2,0 4,-1 5,-1 2,-1 4,-1 6,-2 4,-2 7,-4 11,-7l0 0c4,-4 8,-8 12,-13l0 0c4,-5 7,-11 9,-18 1,-3 2,-6 3,-9 1,-3 1,-7 2,-11 0,-7 0,-13 -1,-19l0 0c0,-1 0,-2 0,-3 0,0 1,0 1,0z"/>
      <path class="fil7" d="M735 497c0,0 1,0 1,0 0,0 1,0 1,0 0,1 0,1 -1,1 0,0 -1,0 -1,0 -1,0 -1,0 -1,0 0,-1 0,-1 1,-1 0,0 0,0 0,0z"/>
      <path class="fil7" d="M735 496c0,0 1,0 1,0 1,0 1,1 1,1 0,0 0,1 -1,1 0,0 -1,0 -1,0 -1,0 -1,0 -1,0 0,0 0,-1 0,-1 0,0 0,0 0,0 0,0 0,0 0,-1 0,0 0,0 1,0z"/>
      <path class="fil7" d="M735 497c0,0 1,0 1,-1 1,0 1,1 1,1 0,1 0,1 -1,1 0,0 0,0 -1,0 0,0 -1,0 -1,-1 0,0 0,0 1,0 0,0 0,0 0,0z"/>
      <path class="fil7" d="M735 496c0,0 1,0 1,0 1,0 1,1 1,1 0,0 0,1 -1,1 0,0 -1,0 -1,0 0,0 0,0 -1,0 0,0 0,-1 0,-1 0,0 0,0 1,-1 0,0 0,0 0,0z"/>
      <path class="fil7" d="M735 496c0,0 1,0 2,0 0,0 0,0 0,1 0,0 0,1 0,1 -1,0 -2,0 -2,0 -1,0 -1,0 -1,-1 0,0 0,-1 1,-1 0,0 0,0 0,0z"/>
      <path class="fil7" d="M735 496c1,0 1,0 2,0 0,0 1,0 1,1 0,0 -1,1 -1,1 -1,0 -1,0 -2,0 0,0 0,0 0,0 -1,0 -1,-1 -1,-1 0,0 1,-1 1,-1 0,0 0,0 0,0z"/>
      <path class="fil7" d="M734 496c0,1 0,1 0,1 0,0 0,0 0,0 -1,1 -2,3 -3,4 -1,1 -2,2 -4,3 -1,1 -3,1 -5,2l0 0c-1,1 -3,1 -5,1l-1 0c-1,0 -3,0 -4,-1l0 0c-2,0 -3,0 -4,-1 -1,-1 -2,-1 -3,-2 -1,-1 -2,-2 -2,-3 0,0 -1,-1 -1,-1 0,0 0,-1 -1,-1l0 0c0,0 0,1 0,1 0,0 0,0 0,0 0,0 0,0 0,0 -6,3 -12,7 -16,13 -5,5 -9,11 -11,17 -2,4 -3,7 -4,10 -1,4 -1,7 -2,11 0,3 0,7 0,10 0,3 0,7 1,11 2,13 6,25 13,35 0,1 0,1 0,1 3,4 9,6 16,6l0 0c3,0 6,0 10,-1 3,0 6,-1 9,-2 2,-1 5,-2 8,-3 3,-1 6,-3 10,-4 7,-3 13,-7 19,-11 6,-5 11,-10 14,-16 1,-2 2,-4 2,-6 1,-1 1,-3 1,-6 1,-3 0,-8 0,-13 -1,-1 -1,-3 -2,-6 0,-1 -1,-3 -1,-5 -1,-3 -3,-6 -4,-10 -3,-7 -7,-13 -11,-18 -5,-7 -12,-12 -18,-15 0,-1 0,-1 -1,-1 0,0 0,0 0,0z"/>
      <path class="fil26" d="M802 413c0,0 0,0 0,0 0,0 0,0 1,1 1,3 2,6 3,9 1,4 1,7 1,11 0,3 0,7 0,11 -1,3 -1,7 -2,11 -1,3 -2,6 -4,10 -1,3 -2,6 -4,9 0,1 -1,3 -2,4 -1,2 -2,4 -3,5 -3,4 -5,7 -7,10 -6,6 -11,11 -17,16 -3,2 -7,4 -10,6 -2,1 -3,2 -5,3 -1,1 -3,1 -4,2l-1 0 0 1c3,6 6,13 7,21 0,4 1,8 1,12 0,4 0,8 0,12 -1,5 -1,9 -2,14 -1,4 -2,8 -3,13 1,-1 2,-1 3,-2 6,-5 11,-10 14,-16 1,-2 2,-4 2,-6 1,-1 1,-3 2,-6 0,-3 0,-8 -1,-13 -1,-2 -1,-3 -2,-6 0,-2 -1,-3 -1,-5 -1,-3 -3,-6 -4,-10 -1,-1 -1,-3 -2,-5 3,-1 6,-3 8,-5 0,0 1,0 1,0 3,-2 6,-5 9,-7 5,-5 10,-10 15,-16 4,-6 8,-12 10,-18 3,-7 5,-14 6,-21 2,-7 2,-14 1,-21 0,-2 0,-4 -1,-5 0,-2 0,-4 -1,-6 -1,-3 -2,-8 -5,-12 0,-1 -1,-1 -2,-1 0,0 -1,0 -1,0 0,0 0,0 0,0z"/>
      <path class="fil26" d="M733 496c0,1 -1,1 -1,2 -1,1 -2,3 -3,4 -1,0 -2,1 -3,1 0,1 -1,1 -2,1 -1,1 -3,1 -4,2 0,0 0,0 0,0 -2,0 -4,0 -5,0 -2,0 -3,-1 -5,-1 -1,-1 -2,-1 -3,-2 -2,-1 -3,-2 -4,-3 0,-1 0,-1 -1,-2 0,0 -1,0 -1,0 0,0 0,1 0,1 1,1 2,3 3,4 1,1 3,2 4,2 3,2 6,3 9,2 3,0 7,-1 9,-2 2,-1 4,-2 5,-3 1,-2 2,-3 3,-5 1,0 1,0 1,0 0,-1 0,-1 -1,-1 0,0 0,0 0,0 0,0 -1,0 -1,0zm-1 2l0 0c0,0 0,0 0,0 0,0 0,0 0,0zm-29 2l0 0c0,0 0,0 0,0 0,0 0,0 0,0zm26 2l0 0c-1,0 -1,0 -1,0 0,0 0,0 1,0zm-23 1l0 0c0,0 0,0 0,0 0,0 0,0 0,0zm18 1l0 0c0,0 0,0 0,0 0,0 0,0 0,0zm-14 1l0 0c0,0 0,0 0,0 0,0 0,0 0,0z"/>
      <path class="fil4" d="M649 559c-1,0 -2,0 -3,0 0,1 -1,1 -1,1 -1,0 -1,0 -2,1 -1,0 -2,1 -4,2 -1,1 -2,2 -3,4 -1,2 -3,5 -3,7 -1,3 -1,6 -1,8 0,3 1,6 2,9 1,2 2,5 4,8 2,2 3,5 5,7 2,2 5,5 7,7 2,2 4,3 5,5 0,0 0,0 0,0 0,0 0,1 0,1 1,0 1,1 2,1 0,1 1,1 2,1 1,1 2,2 4,3 1,0 2,1 4,1 1,1 2,1 3,1 0,1 0,1 0,1 1,0 1,-1 1,-1 0,0 1,0 1,0 3,1 6,1 9,2 3,0 5,0 7,0 3,0 6,0 8,0 3,-1 5,-1 8,-2 2,0 4,-1 6,-2 2,-1 4,-2 5,-4 0,-1 0,-1 1,-2 0,-1 0,-2 0,-3 0,-1 0,-2 -1,-3 0,-1 -1,-2 -1,-4 -1,-1 -3,-2 -3,-3 -2,-2 -4,-4 -5,-5 -3,-3 -7,-6 -10,-9 -1,0 -2,-1 -3,-2 -3,-2 -5,-4 -7,-6 -2,-1 -3,-2 -4,-3 -1,-1 -2,-1 -3,-2l0 -1c-4,-4 -9,-8 -13,-11 -3,-2 -6,-4 -8,-5 -3,-1 -5,-2 -8,-2 0,0 0,0 -1,0z"/>
      <path class="fil15" d="M691 613c0,0 0,0 0,0 -1,0 -2,0 -3,0l0 0c-2,1 -3,1 -4,1l0 0c0,0 0,0 0,0 0,0 0,0 0,0 -5,0 -9,0 -13,0l-2 0c-1,0 -2,0 -2,0l-2 0c0,0 -1,0 -2,0 0,0 -1,0 -2,0 -4,0 -6,1 -8,3 -2,1 -3,4 -2,7 1,2 2,4 5,6 1,1 2,2 3,3 2,0 3,1 4,2 3,1 6,2 9,2 3,1 6,1 9,1 1,0 2,0 4,0 4,0 9,-1 14,-3 0,0 0,1 0,1 0,0 0,0 0,0l0 0c1,0 1,0 1,0 1,0 1,-1 1,-2 1,0 2,0 3,-1 1,0 1,0 1,0 0,0 0,0 0,-1 0,0 -1,0 -1,0 0,0 0,0 0,0 0,0 0,0 0,0 -1,0 -1,0 -2,0 1,0 1,-1 1,-1 0,-1 0,-2 0,-3 0,-1 0,-3 0,-4 0,-2 0,-3 -1,-4 0,-1 -1,-2 -1,-2 0,-1 -1,-1 -2,-2 -1,-1 -2,-2 -4,-2 -1,-1 -2,-1 -4,-1z"/>
      <path class="fil5" d="M653 617c-2,1 -3,4 -2,7 1,2 2,4 5,6 1,1 2,2 3,3 1,0 1,0 2,1 0,-2 1,-3 1,-5 0,0 0,0 0,0l0 0c0,0 0,0 0,0 0,-2 0,-4 0,-6 0,0 0,0 0,0 0,-1 0,-2 -1,-2 0,-1 0,-2 0,-3 0,0 0,0 0,0 0,0 0,0 0,0l0 0 0 0c0,0 0,0 0,0 0,0 0,0 0,0 0,0 0,0 0,0 0,0 -1,-1 -1,-1 0,-1 -1,-1 -1,-2 0,0 0,0 0,0 0,0 0,0 0,0 0,0 0,0 0,0l0 0c0,0 0,0 0,0 0,0 0,0 0,0 0,0 0,0 0,0 0,0 0,0 0,0 0,0 0,0 0,0 0,0 -1,0 -1,-1 -2,1 -4,2 -5,3zm9 12l0 0 0 0 0 0z"/>
      <path class="fil5" d="M659 615l0 0c0,0 0,0 0,0 0,0 0,0 0,0z"/>
      <path class="fil5" d="M668 618c0,0 -1,1 0,1 0,0 0,1 0,1 0,1 1,2 1,2 0,0 0,0 0,0 0,1 0,3 0,4 0,0 0,1 1,1 0,0 0,-1 0,-1 0,-1 0,-3 0,-4 0,-1 0,-1 0,-2 0,-1 -1,-1 -1,-2 0,0 0,0 -1,0 0,0 0,0 0,0z"/>
      <path class="fil5" d="M675 618c-1,0 -1,0 0,1 0,0 0,0 0,1 0,0 1,1 1,2 0,2 0,3 0,4 0,1 0,1 1,1 0,0 0,0 0,-1 0,-1 0,-3 0,-4 0,-1 0,-1 0,-2 -1,-1 -1,-1 -1,-2 0,0 -1,0 -1,0 0,0 0,0 0,0zm1 4l0 0c0,0 0,0 0,0 0,0 0,0 0,0z"/>
      <path class="fil5" d="M681 617c0,0 0,1 0,1 0,0 0,1 0,1 1,1 1,2 1,3 0,0 0,0 0,-1 0,2 0,3 0,4 0,0 1,0 1,0 0,0 1,0 1,0 0,-2 0,-3 -1,-4 0,-1 0,-3 -1,-4 0,0 0,0 0,0 -1,0 -1,0 -1,0zm0 2l0 0c0,0 0,0 0,0 0,0 0,0 0,0z"/>
      <path class="fil27" d="M773 566c-3,1 -6,1 -10,2 -2,0 -3,1 -5,1 -2,1 -4,2 -5,2 -4,2 -8,3 -12,6 -8,4 -15,9 -21,14 -3,2 -6,4 -9,6l-3 2c-2,2 -4,3 -6,5 -2,1 -4,3 -6,4 -3,2 -5,3 -8,5 4,8 8,16 12,24 0,0 0,0 1,0 0,0 0,0 0,0 6,0 12,0 18,-1 6,-1 13,-2 19,-3 7,-2 13,-4 19,-7 7,-2 12,-6 17,-9 5,-4 10,-8 13,-13 1,-2 2,-3 3,-4 0,-2 1,-3 2,-5 0,-1 1,-3 1,-5 0,-2 0,-4 0,-5 0,-4 -1,-8 -3,-10 0,-1 -1,-2 -1,-2 -1,-1 -1,-2 -2,-2 -1,-1 -3,-2 -4,-3 -2,-1 -3,-1 -5,-1 -1,0 -3,-1 -4,-1 0,0 -1,0 -1,0z"/>
      <path class="fil28" d="M789 573c0,0 0,0 0,0 0,1 0,2 0,3 0,3 -1,7 -2,10 -1,3 -3,7 -5,10 -2,3 -4,5 -7,8 -3,3 -5,5 -8,7 -2,1 -3,3 -5,3 -1,1 -3,2 -5,3 -7,5 -15,8 -23,11 -9,3 -17,5 -25,6 -4,0 -7,0 -10,1 0,0 1,1 1,2 1,0 1,0 1,0 6,0 12,0 18,-1 6,-1 13,-2 19,-3 7,-2 13,-4 19,-7 7,-2 12,-6 17,-9 6,-4 10,-8 13,-13 1,-2 2,-3 3,-4 0,-2 1,-3 2,-5 0,-1 1,-3 1,-5 0,-2 0,-4 0,-5 0,-4 -1,-8 -3,-10 0,-1 0,-1 -1,-2l0 0z"/>
      <path class="fil22" d="M691 378c0,0 -1,0 -1,0 -8,0 -14,1 -21,3 0,0 0,0 0,0 0,0 0,0 0,0 0,0 -1,1 0,1 0,3 1,5 2,8 1,2 3,4 5,6 3,3 8,5 14,7 2,0 4,0 7,0 6,0 11,-1 16,-4 0,1 0,2 0,4 0,2 2,4 3,5 3,3 8,5 12,5 1,0 1,0 1,0 4,0 8,-1 11,-4 0,1 -1,2 -1,3 0,2 1,5 3,7 1,1 2,2 3,2 1,1 2,1 3,2 1,0 2,0 3,0l0 0 0 0c-2,2 -3,3 -4,5 -2,3 -4,7 -4,11 -1,2 -1,4 -1,5 0,1 0,2 0,3 1,0 1,1 1,1 0,1 0,1 1,2 0,0 1,1 1,1 1,0 1,0 2,0 0,0 0,0 0,0 1,0 1,0 1,0 1,0 3,0 4,-1 1,-1 1,-1 2,-2 1,-1 1,-1 2,-2 3,-3 5,-6 7,-10 2,-3 3,-7 4,-11 1,-3 2,-7 1,-11 0,-2 0,-4 -1,-6 0,-1 -1,-3 -1,-4 -1,-1 -2,-3 -2,-4 -1,-1 -2,-2 -3,-3 -2,-2 -4,-4 -7,-5 -2,-2 -5,-3 -8,-4 -5,-3 -11,-4 -18,-6 -3,0 -5,-1 -8,-1 -4,-1 -7,-1 -10,-2 -7,0 -13,-1 -19,-1z"/>
      <path class="fil29" d="M668 385c0,0 0,1 0,1 1,1 2,3 3,4 1,2 2,3 3,4 2,3 5,5 8,6 3,2 6,3 10,4 1,0 3,0 5,0 1,0 3,0 5,0 2,0 3,-1 5,-1 1,-1 2,-1 3,-1 1,-1 2,-1 3,-2 1,0 1,-1 1,-1 -1,0 -1,-1 -1,-1 0,0 -1,0 -1,0 -1,1 -2,1 -2,1 -1,1 -2,1 -3,1 -1,1 -2,1 -4,2 0,0 0,0 1,0 -2,0 -3,0 -5,0 -1,0 -2,1 -4,1 0,0 0,0 0,0 0,0 0,0 0,0 0,0 0,0 0,0 0,0 0,0 0,0 -1,-1 -2,-1 -4,-1 -1,0 -3,0 -4,-1l0 0c-1,0 -2,-1 -4,-1 -1,-1 -2,-2 -3,-2 -2,-2 -5,-3 -6,-5 -2,-2 -4,-5 -5,-7 0,0 0,0 0,0 0,0 0,0 0,0 0,-1 0,-1 -1,-1 0,0 0,0 0,0zm6 8l0 0c0,0 0,0 0,0 0,0 0,0 0,0zm21 10l0 0 0 0c0,0 0,0 0,0 0,0 0,0 0,0zm-26 -17l0 0 0 0 0 0z"/>
      <path class="fil29" d="M683 388c0,0 0,1 0,1 1,1 2,2 3,2 0,1 2,2 3,2 1,1 2,1 3,2 1,0 3,0 4,0 1,0 2,0 4,0 1,0 2,0 4,0 1,-1 2,-1 3,-1 1,-1 1,-1 2,-1 1,-1 1,-1 2,-1 0,-1 0,-1 0,-1 0,0 0,-1 0,-1 0,-1 -1,-1 -2,-1 -1,1 -3,2 -5,3 -2,1 -5,1 -7,1 -1,0 -2,0 -3,0 -1,0 -1,0 -2,0 -1,0 -3,-1 -4,-1 0,0 0,0 0,0 0,0 0,0 0,0l0 0 0 0c-1,-1 -2,-2 -3,-2 -1,-1 -1,-1 -2,-2 0,0 0,0 0,0 0,0 0,0 0,0zm2 2l0 0c0,0 0,0 0,0 0,0 0,0 0,0zm3 2l0 0c0,0 0,0 0,0 0,0 0,0 0,0l0 0z"/>
      <path class="fil29" d="M746 404c0,2 0,3 0,4 1,2 1,3 2,4 1,1 2,2 3,3 1,0 2,1 3,2 1,0 1,0 2,0 0,-1 0,-1 -1,-2 -1,0 -1,-1 -2,-1 -1,-1 -2,-1 -3,-2 0,0 0,0 0,0 0,0 0,0 0,0 0,0 0,0 0,0 0,0 0,0 0,0 0,0 -1,-1 -1,-1 -1,-1 -1,-2 -1,-2 -1,-1 -1,-2 -1,-2 0,0 0,0 0,0 0,-1 0,-2 0,-3 0,0 0,0 0,0 0,0 -1,0 -1,0zm4 8l0 0c0,0 0,0 0,0 0,0 0,0 0,0 0,0 0,0 0,0z"/>
      <path class="fil29" d="M781 422c0,1 0,2 -1,4 0,1 -1,2 -1,3 -1,1 -1,2 -1,3 -1,0 -1,1 -2,2 0,1 -1,3 -2,4 0,0 0,0 0,0l0 0c0,0 0,0 0,0 0,0 0,0 0,0 -1,1 -2,2 -3,3 -1,1 -2,2 -3,3 0,0 0,0 0,0 -1,1 -2,1 -3,2 -1,0 -1,1 -1,2 1,0 2,0 2,0 3,-1 5,-3 6,-5 1,-1 2,-2 3,-3 1,-1 1,-2 2,-3 1,-1 1,-3 2,-4 0,-1 1,-2 1,-4 0,-1 1,-2 1,-3 0,-2 1,-3 1,-4 0,0 0,-1 0,-1 0,0 -1,0 -1,0 0,0 0,0 0,1zm-7 16l0 0c0,0 0,0 0,0 0,0 0,0 0,0 0,0 0,0 0,0z"/>
      <path class="fil29" d="M775 418c0,1 0,1 0,1 0,1 0,1 0,2 0,0 0,1 -1,1 0,0 0,0 0,0 0,2 -1,3 -3,5 0,0 1,0 1,0 0,0 -1,0 -1,0 0,0 0,0 0,0 0,0 0,0 0,0 0,0 0,1 -1,1 0,0 0,1 0,1 0,0 0,0 0,0 0,1 0,1 1,1 0,0 0,0 0,-1 1,0 2,-1 2,-2 1,-1 1,-2 2,-3 1,-2 1,-4 1,-6 0,0 0,0 0,0 -1,0 -1,0 -1,0zm-4 9l0 0c0,0 0,0 0,0 0,0 0,0 0,0 0,0 0,0 0,0z"/>
      <path class="fil4" d="M706 453c0,2 0,3 -1,5 0,1 -1,2 -1,3 -2,2 -3,4 -6,5 -2,1 -4,2 -6,1 -2,0 -4,-1 -6,-3 -3,-3 -4,-8 -4,-13 2,1 4,1 5,1 3,1 5,1 7,1 4,1 8,1 12,0 0,0 0,0 0,0z"/>
      <path class="fil5" d="M702 454c-1,0 -1,1 -2,1 -1,0 -1,0 -2,0 0,0 0,0 0,0 -1,0 -2,0 -3,0 -1,0 -2,0 -3,0 0,0 0,0 0,0 0,0 0,0 0,0 0,0 0,0 0,0 0,0 0,0 0,0 -2,0 -5,-1 -7,-2 0,0 0,0 0,0 0,-1 -1,-1 -1,-1 -1,0 -1,-1 -1,-1 1,1 3,1 4,1 2,1 3,1 5,1 0,0 1,0 2,0 3,1 7,1 10,0 -1,1 -1,1 -2,1z"/>
      <path class="fil19" d="M700 461c1,0 1,0 1,0 1,0 2,0 3,1 -2,2 -4,3 -6,4 -2,1 -4,2 -6,1 -2,0 -4,-1 -6,-3l0 0c1,-1 2,-1 3,-2 2,0 4,-1 6,-1 2,0 4,0 5,0z"/>
      <path class="fil4" d="M714 449c-1,0 -2,-3 -1,-6 1,-2 2,-5 3,-4 1,0 2,2 1,5 0,3 -2,5 -3,5z"/>
      <path class="fil4" d="M678 440c-1,0 -2,-2 -1,-5 0,-3 2,-4 3,-4 1,0 1,2 1,5 -1,3 -2,4 -3,4z"/>
      <path class="fil22" d="M686 410c-1,0 -3,0 -4,1 -1,0 -3,1 -4,1 -1,1 -2,1 -1,2 0,0 1,1 2,1 1,0 3,0 4,-1 3,0 6,-2 6,-3 -1,0 -2,-1 -3,-1z"/>
      <path class="fil22" d="M717 415c0,0 -1,1 -1,1 0,0 0,1 1,2 1,1 2,2 4,3 2,1 4,2 5,2 1,0 1,0 2,-1 0,0 0,-1 -1,-2 -1,-1 -3,-2 -4,-3 -2,-1 -5,-2 -6,-2z"/>
      <path class="fil30" d="M691 440c0,0 0,0 0,0 -1,0 -1,0 -2,0 0,1 -1,1 -1,1 -1,1 -1,1 -1,2 0,0 0,0 0,0 0,0 0,1 0,1 0,0 0,0 0,0 0,0 0,0 0,0 1,0 1,-1 1,-1l0 0c0,0 0,0 1,-1 0,0 0,0 0,0 1,-1 1,-1 1,-1 1,0 1,0 2,0 0,0 1,0 1,0 1,0 1,1 2,1 0,0 0,0 1,1 0,0 0,0 0,1l0 0 0 0c1,0 1,0 1,0 0,0 0,0 0,0 0,0 0,0 0,0 0,-1 0,-1 -1,-2 0,0 0,0 -1,-1 -1,0 -2,-1 -3,-1 0,0 0,0 -1,0z"/>
     </g>
     <g>
      <path class="fil4" d="M773 646c-5,0 -10,0 -16,0 10,36 20,72 30,108l6 0c-5,-36 -10,-72 -15,-108 -2,0 -3,0 -5,0z"/>
      <path class="fil4" d="M736 646c-6,0 -11,0 -17,0 9,32 18,65 27,97l6 0c-5,-32 -9,-65 -14,-97 -1,0 -1,0 -2,0z"/>
      <path class="fil4" d="M638 646c-4,35 -9,71 -14,106l6 0c10,-35 19,-71 29,-106l-21 0z"/>
      <path class="fil4" d="M678 646c-4,31 -9,63 -13,95l6 0c9,-32 17,-64 26,-95l-19 0z"/>
      <path class="fil7" d="M643 626l-11 0c-10,0 -19,8 -19,17 0,9 9,16 19,16l146 0 2 0c10,0 18,-7 18,-16 0,-9 -8,-17 -18,-17l-137 0z"/>
      <path class="fil8" d="M768 626c0,1 1,1 0,2 0,1 0,1 0,2 0,2 -1,3 -1,4 -1,2 -2,3 -3,5 -1,1 -2,2 -3,3 -1,2 -2,3 -4,4 -1,1 -2,2 -4,3 -3,2 -6,3 -9,5 -4,2 -7,3 -11,4 -1,1 -2,1 -3,1l48 0 2 0c10,0 18,-7 18,-16 0,-9 -8,-17 -18,-17l-12 0z"/>
     </g>
     <g>
      <path class="fil4" d="M450 520l0 25c0,2 2,3 3,3 2,0 4,-1 4,-3l0 -25c0,-2 -2,-4 -4,-4 -1,0 -3,2 -3,4z"/>
      <path class="fil4" d="M465 541l-16 0 -7 0c-5,0 -9,4 -9,8 0,5 4,9 9,9l23 0c5,0 9,-4 9,-9 0,-4 -4,-8 -9,-8z"/>
      <path class="fil15" d="M477 442c-2,0 -3,0 -5,0 -3,1 -6,2 -8,3 -3,2 -5,4 -7,6 -1,2 -2,3 -3,4 -1,-1 -2,-2 -3,-3 -1,-1 -3,-2 -5,-4 -4,-2 -7,-3 -10,-4 -2,0 -4,-1 -6,-1 -1,0 -2,0 -3,0 -3,1 -6,2 -8,3 -5,2 -9,6 -12,9 -2,2 -4,3 -6,5 -2,2 -4,4 -6,6 -2,2 -4,3 -6,5 0,0 0,0 0,0 0,0 -1,1 -1,1 0,2 1,4 1,6 1,5 3,9 5,12 2,4 4,8 8,11 6,6 13,11 22,15 8,3 17,5 27,5 1,0 2,0 3,0 8,0 15,-1 23,-3 16,-5 29,-15 36,-28 1,-1 2,-3 2,-4 1,-1 1,-3 2,-4 0,0 0,0 0,0 0,-2 0,-3 1,-4l0 0 0 0c0,0 0,-1 0,-1l0 0 0 0 0 0 0 0c0,0 0,0 0,0 0,-1 0,-2 0,-3l0 0 0 -1 0 0 0 0 0 0 0 0 0 -1 0 0c0,0 0,0 0,0l0 0 0 0 1 0c0,-1 0,-1 0,-1l0 0 0 0 0 0c0,-1 -1,-1 -1,-2 0,0 0,0 0,0 -2,-1 -4,-2 -6,-3 -3,-3 -6,-6 -8,-9 -2,-2 -4,-3 -5,-5 -3,-3 -6,-5 -8,-6 -3,-2 -7,-3 -10,-4 -1,0 -3,0 -4,0z"/>
      <path class="fil16" d="M427 443c-3,1 -6,2 -8,3 -5,2 -9,6 -12,9 -2,2 -4,3 -6,5l0 0c-2,2 -4,4 -6,6 -2,2 -4,3 -6,5 0,0 0,0 0,0 -1,0 -1,1 -1,1 0,2 1,4 1,6 1,5 3,9 5,13 2,3 4,7 8,10 6,6 13,11 22,15 8,3 17,5 27,5 1,0 2,0 3,0 8,0 15,-1 23,-3 3,-1 5,-2 7,-3 -4,1 -8,1 -12,2 -6,0 -11,0 -17,-1 -6,0 -11,-1 -17,-3 -5,-1 -10,-4 -14,-7 -2,-1 -4,-3 -6,-4 -2,-2 -4,-4 -5,-6 -2,-2 -3,-5 -4,-7 -1,-2 -1,-3 -1,-5 -1,-1 -1,-3 -1,-5 0,-3 0,-6 1,-9 1,-4 2,-7 4,-9 2,-3 4,-6 7,-8 2,-2 5,-4 8,-5 1,-1 3,-1 5,-2 1,0 3,-1 4,-1 1,0 2,0 3,0 -1,0 -2,-1 -3,-1 -2,-1 -4,-1 -6,-1 -1,0 -2,0 -3,0z"/>
      <path class="fil4" d="M508 474c0,1 -1,1 -2,2 -3,1 -5,2 -8,3 -4,2 -8,3 -13,3 -5,1 -9,2 -14,2 -4,1 -9,1 -14,1 -5,0 -9,0 -14,0 -5,0 -9,-1 -14,-1 -4,-1 -9,-1 -13,-2 -3,-1 -5,-1 -7,-2 -2,0 -4,-1 -6,-2 -1,0 -2,-1 -3,-1 -1,0 -2,-1 -2,-1 0,2 1,3 2,4 3,7 9,14 17,18 4,2 7,4 12,5 4,2 8,3 13,3 4,1 7,1 11,1 5,0 10,0 15,-1 4,-1 9,-2 13,-4 4,-1 7,-3 11,-6 4,-3 8,-6 11,-10l0 0c1,-1 1,-2 2,-3l0 0 0 0 0 0c1,-1 1,-2 1,-2l0 0 1 -1 0 0c0,-1 0,-2 1,-2l0 -1 0 0 0 0 0 0 0 0 0 -1 0 0 0 0c0,0 0,-1 1,-1 0,0 0,-1 0,-1 -1,0 -1,0 -1,0z"/>
      <path class="fil5" d="M507 473l0 0 -1 0 0 0 0 0 0 0 -1 0 0 1c-2,0 -3,0 -4,0 -3,1 -5,1 -8,2 -4,0 -8,1 -12,1 -8,1 -17,1 -26,1 -1,0 -2,0 -3,0 -8,0 -16,0 -24,-1 -5,0 -11,-1 -16,-1 -2,-1 -4,-1 -6,-1l0 0c-2,-1 -3,-1 -5,-1l0 0 -1 0c0,0 0,0 -1,0 0,-1 0,-1 0,-1 -1,0 -1,0 -1,0 0,0 -1,1 -1,2 1,1 1,2 1,3 1,0 3,1 4,1 0,0 0,0 0,0 2,1 4,2 6,3 2,0 4,1 5,1 4,1 8,2 12,2 0,0 0,0 0,0 0,0 0,0 0,0 0,0 0,0 0,0 5,1 9,1 14,1 4,1 9,1 13,1 9,0 18,-1 27,-2l0 0c4,0 8,-1 12,-2 4,-1 8,-2 12,-4 0,0 0,1 0,1 1,-1 3,-2 5,-3l0 -1 0 0 0 0c0,0 0,-1 1,-1 0,-1 -1,-2 -1,-2 0,0 -1,0 -1,0 0,0 0,0 0,0z"/>
     </g>
     <path class="fil6" d="M505 527c0,0 0,0 0,0 0,0 0,0 0,0z"/>
     <g>
      <g>
       <path class="fil6" d="M521 523l-12 0c-1,0 -1,0 -1,0 -1,0 -1,0 -1,1 -1,1 -1,2 -2,3 0,0 0,0 0,0 -1,1 -1,3 -2,4 0,2 -1,3 -1,5 0,0 0,0 0,0 0,0 0,0 0,0l0 0c0,1 0,3 0,5 0,1 0,3 0,4l0 0c0,2 1,4 1,6 1,1 2,3 3,5 0,0 0,0 0,0 0,1 1,3 2,4 0,0 0,0 1,0l93 0 4 0c0,0 1,0 2,0 1,-2 2,-4 2,-6 1,-2 2,-5 2,-7l0 0c0,-2 1,-3 1,-4 0,-2 0,-3 0,-4 0,-2 -1,-5 -1,-7l0 0c0,-2 -1,-5 -2,-7 0,0 0,0 0,0 -1,-1 -1,-2 -1,-2 0,0 0,0 0,0 -1,0 -2,0 -3,0l-85 0zm-16 4l0 0 0 0 0 0z"/>
       <polygon class="fil18" points="535,560 541,560 541,523 535,523 "/>
       <polygon class="fil18" points="521,523 516,523 516,560 528,560 528,523 "/>
      </g>
      <g>
       <path class="fil15" d="M566 502l-40 0c-1,0 -2,0 -3,0 0,0 0,0 0,0 0,1 0,2 -1,2l0 0c0,1 0,2 -1,3 0,1 0,2 0,3 0,0 0,0 0,0 0,1 0,1 0,2 0,1 0,2 0,3 0,0 0,0 0,0 0,1 0,2 0,3 1,0 1,1 1,2 0,0 0,0 0,0 0,0 0,0 0,0 0,0 1,1 1,2 0,0 1,0 1,1 0,0 1,0 2,0l74 0 10 0c0,0 1,0 1,0 0,-1 1,-2 1,-3 0,0 0,0 0,0 0,-1 1,-1 1,-2 0,-1 1,-2 1,-3 0,0 0,0 0,0 0,-1 0,-2 0,-3 0,-1 0,-2 0,-3l0 0c0,-1 -1,-2 -1,-3 0,0 0,-1 0,-2 -1,0 -1,-1 -1,-1 0,0 -1,-1 -1,-1 0,0 -1,0 -1,0l-44 0z"/>
       <polygon class="fil5" points="528,517 569,517 569,508 528,508 "/>
      </g>
     </g>
     <g>
      <path class="fil4" d="M496 574l0 172c0,3 2,5 5,5 4,0 6,-2 6,-5l0 -172c0,-3 -2,-6 -6,-6 -3,0 -5,3 -5,6z"/>
      <path class="fil31" d="M556 730l-60 0 -54 0c-6,0 -11,5 -11,11 0,6 5,11 11,11l110 0 4 0c6,0 12,-5 12,-11 0,-6 -6,-11 -12,-11z"/>
      <path class="fil7" d="M611 553l0 0 -120 0 -107 0c-8,0 -15,7 -15,15 0,8 7,14 15,14l198 0 29 0c8,0 15,-6 15,-14 0,-8 -7,-15 -15,-15z"/>
      <path class="fil8" d="M617 573l-130 0 -116 0c2,6 7,9 13,9l198 0 29 0c6,0 12,-3 14,-9l-8 0z"/>
     </g>
     <g>
      <g>
       <g>
        <path class="fil32" d="M140 665c-1,-5 -5,-10 -10,-13 -3,-2 -8,-3 -10,-7 -2,-3 -2,-7 -2,-11 0,-5 -2,-10 -5,-14 -2,-4 -7,-6 -12,-5 -6,1 -11,7 -11,13 0,6 4,12 8,16 2,2 5,4 6,7 1,3 -1,6 -2,10 0,4 2,9 4,13 5,5 11,9 18,10 3,1 6,1 10,0 3,-1 4,-2 5,-5 2,-5 2,-9 1,-14z"/>
       </g>
       <path class="fil33" d="M102 619c3,9 6,17 9,25 4,9 8,16 13,24 3,4 6,8 9,12 0,0 0,0 0,-1 -6,-6 -11,-14 -15,-22 -4,-7 -8,-15 -11,-24 -2,-4 -3,-9 -4,-14 0,0 -1,0 -1,0z"/>
      </g>
      <g>
       <path class="fil34" d="M119 673c-4,-8 -5,-17 -3,-25 2,-4 4,-8 6,-13 2,-8 -1,-16 -3,-23 -3,-8 -7,-15 -8,-23 0,-8 2,-17 8,-21 6,-4 15,-4 21,0 6,4 10,11 11,18 2,7 1,14 0,21 -1,6 -3,13 -1,18 2,3 4,5 6,8 5,6 9,14 10,22 1,8 -1,17 -6,23 -4,6 -14,13 -21,10 -8,-2 -16,-8 -20,-15z"/>
       <path class="fil33" d="M131 571c2,7 4,15 5,22 2,7 3,15 4,22 1,8 2,15 2,23 1,7 1,15 1,22 1,7 1,15 0,22 0,1 0,2 0,3 0,0 0,0 0,0 1,-7 1,-15 1,-22 0,-8 -1,-15 -1,-23 -1,-7 -1,-15 -2,-22 -1,-8 -2,-15 -4,-22 -1,-8 -3,-15 -5,-22 0,-1 0,-2 0,-3 0,0 -1,0 -1,0z"/>
      </g>
      <g>
       <g>
        <path class="fil32" d="M137 667c1,-7 4,-15 9,-20 4,-3 9,-6 11,-11 2,-4 0,-10 -1,-14 -1,-7 -1,-13 1,-19 3,-6 8,-10 15,-11 7,-1 15,6 17,14 1,7 -1,16 -6,22 -2,3 -4,6 -4,10 -1,4 3,8 5,12 2,6 1,12 -2,17 -3,8 -10,15 -18,18 -4,2 -8,3 -13,4 -4,0 -6,-2 -8,-5 -4,-5 -6,-11 -6,-17z"/>
       </g>
       <path class="fil33" d="M171 599c-1,5 -1,11 -1,16 -1,6 -2,12 -3,17 -1,6 -2,11 -4,17 -1,5 -3,11 -5,16 -2,5 -4,10 -6,16 0,0 -1,1 -1,2 0,0 0,0 0,0 3,-5 5,-11 7,-16 2,-5 4,-11 5,-16 2,-5 3,-11 4,-17 1,-5 2,-11 3,-16 0,-6 1,-12 1,-17 0,-1 0,-2 0,-2 0,-1 0,-1 0,0z"/>
      </g>
      <g>
       <g>
        <polygon class="fil35" points="170,752 118,752 111,687 176,687 "/>
       </g>
       <g>
        <polygon class="fil36" points="180,694 108,694 108,680 180,680 "/>
       </g>
      </g>
     </g>
    </g>
   </g>
  </g>
  <path class="fil37" d="M97 0l638 0c53,0 97,44 97,97l0 543c0,53 -44,97 -97,97l-638 0c-53,0 -97,-44 -97,-97l0 -543c0,-53 44,-97 97,-97z"/>
 </g>
</svg>
