<?xml version="1.0" encoding="UTF-8"?>
<svg id="Layer_1" data-name="Layer 1" xmlns="http://www.w3.org/2000/svg" xmlns:xlink="http://www.w3.org/1999/xlink" viewBox="0 0 230.4 360">
  <defs>
    <style>
      .cls-1 {
        fill: #6cc4bd;
      }

      .cls-2 {
        fill: #c4282e;
      }

      .cls-3 {
        fill: #633952;
      }

      .cls-4, .cls-5 {
        fill: #7dba38;
      }

      .cls-4, .cls-6 {
        opacity: .5;
      }

      .cls-7 {
        fill: #f0b892;
      }

      .cls-8 {
        fill: #fcc49f;
      }

      .cls-9 {
        fill: #fa4664;
      }

      .cls-10 {
        fill: #fff;
      }

      .cls-11 {
        fill: #f8bb9c;
      }

      .cls-12 {
        fill: #f7bb01;
      }

      .cls-13, .cls-14, .cls-15, .cls-16, .cls-17, .cls-18 {
        fill: none;
      }

      .cls-19, .cls-6 {
        fill: #5bb4ba;
      }

      .cls-20 {
        fill: #d9fcfa;
      }

      .cls-14, .cls-15 {
        stroke: #603913;
      }

      .cls-14, .cls-15, .cls-16, .cls-17, .cls-18 {
        stroke-linecap: round;
        stroke-linejoin: round;
      }

      .cls-15 {
        stroke-width: .5px;
      }

      .cls-21 {
        fill: #cde06e;
      }

      .cls-22 {
        fill: #1e0c0a;
      }

      .cls-23 {
        fill: #7ed6c6;
      }

      .cls-16 {
        stroke: #f08826;
      }

      .cls-24 {
        fill: #f57b01;
      }

      .cls-17 {
        stroke: #3e2336;
      }

      .cls-25 {
        fill: #d98c6d;
      }

      .cls-26 {
        fill: #b8d65e;
      }

      .cls-27 {
        fill: #af1e30;
      }

      .cls-28 {
        fill: #3e2336;
      }

      .cls-29 {
        clip-path: url(#clippath);
      }

      .cls-30 {
        fill: #f7f7f7;
      }

      .cls-18 {
        stroke: #ab1513;
      }
    </style>
    <clipPath id="clippath">
      <rect class="cls-13" x="0" width="230.4" height="360" rx="12.28" ry="12.28"/>
    </clipPath>
  </defs>
  <g class="cls-29">
    <g>
      <rect class="cls-20" width="230.4" height="360"/>
      <g>
        <path class="cls-22" d="M151.5,188.01c1.53,4.92,7.53,7.67,13.23,8.33,5.7.66,11.52-.19,17.22.4,5.71.59,11.76,3.18,13.5,8.04-2.08-1.65-5.22-2.18-7.86-1.32,6.32,5.32,7.69,14.71,3.13,21.39-.55-4.94-5.89-8.36-11.22-9.78-5.33-1.41-11.07-1.48-16.3-3.15-8.64-2.75-15.17-10.06-16.25-18.19,1.51-1.8,3.03-3.61,4.55-5.72Z"/>
        <path class="cls-22" d="M108.54,181.07c-2.53,3.8-6.85,5.94-11.04,7.73-4.19,1.8-8.61,3.51-11.73,6.82-3.13,3.32-4.51,8.81-1.78,12.46-.38-1.72.63-3.65,2.27-4.31-.79,4.01.39,8.36,3.1,11.42,2.71,3.06,6.88,4.76,10.96,4.47-3.08-3.12-2.79-8.38-.76-12.26,2.03-3.89,5.42-6.85,8.31-10.15,2.89-3.3,5.43-7.36,4.74-11.71-1.62-1.36-3.23-2.72-4.06-4.47Z"/>
        <g>
          <g>
            <g>
              <path class="cls-7" d="M73.02,155.67c1.02-1.93,2.05-3.91,2.36-6.08.31-2.16-.25-4.58-1.87-5.85-.61-3.68-3.15-6.98-6.55-8.51-1.06-.48-2.25-.79-3.37-.48-1.12.31-2.07,1.41-2.1,2.42-4.67,2.77-7.9,7.78-8.64,13.49-.31,2.35.53,4.71,2.23,6.36,2.47,2.39,5.33,4.38,8.44,5.84,3.14-2.51,7.69-3.76,9.5-7.19Z"/>
              <g>
                <path class="cls-15" d="M54.77,154.44c1.18.88,2.57,1.49,4.02,1.76.63.12,1.31.16,1.88-.13.51-.26.86-.76,1.03-1.3.18-.54.19-1.12.16-1.69"/>
                <path class="cls-15" d="M54.93,149.3c1.25.63,2.2,1.71,3.34,2.53,1.13.82,2.65,1.38,3.92.8,1.19-.54,1.79-1.91,1.9-3.21"/>
                <path class="cls-15" d="M57.52,144.02c1.15.99,2,2.29,3.09,3.35,1.09,1.06,2.56,1.92,4.06,1.67,1.63-.27,2.84-1.86,2.97-3.5"/>
                <path class="cls-15" d="M62.04,138.57c1.42,2.7,3.37,5.12,5.8,6.97.88.26,1.86-.25,2.34-1.03.48-.78.52-1.77.31-2.66-.21-.89-.65-1.71-1.08-2.52"/>
              </g>
            </g>
            <polygon class="cls-7" points="73.15 153.12 77.41 158.48 67.47 170.81 62.91 161.91 73.15 153.12"/>
          </g>
          <g>
            <path class="cls-7" d="M171.84,202.11c-1.55-3.14-3.11-6.28-4.66-9.43-.43-.87-.87-1.87-.55-2.79.44-1.28,2.18-1.59,3.33-.94,1.15.65,1.83,1.91,2.46,3.11.75-2.85,1.51-5.7,2.26-8.54.17-.66.36-1.34.78-1.87.42-.53,1.13-.87,1.74-.63.74.29,1,1.23,1.1,2.05.29,2.21.19,4.48-.31,6.65,1.28-2.34,2.93-4.45,4.86-6.24.66-.61,1.6-1.21,2.37-.76.91.54.69,1.95.32,2.96-.78,2.17-1.67,4.3-2.53,6.12,1.99-1.14,4.07-2.1,6.22-2.86.78-.28,1.68-.52,2.41-.1.98.56,1.08,2.09.52,3.1s-1.61,1.58-2.49,2.3c-.76.62-1.64,1.4-2.39,2.55,1.81-.65,3.16-1.53,4.2-1.68,1.34-.19,2.42.66,2.33,2.07-.06,1.07-.97,1.85-1.79,2.48-2.93,2.25-5.88,4.47-8.84,6.66-3.57-1.16-7.14-2.32-11.33-4.22Z"/>
            <path class="cls-14" d="M173.64,193.37c2.54.21,4.87,2.19,5.6,4.74"/>
          </g>
          <g>
            <path class="cls-11" d="M133.51,284.97c-8.79,14.79-14.99,31.11-18.25,48-5.84-3.62-11.93-6.83-18.15-10.73-.62-13.52,1.56-27.16,6.37-39.81,10.26,1.22,20.52,2.44,30.03,2.54Z"/>
            <g>
              <path class="cls-28" d="M78.58,324.51c.52,4.62,29.85,20.5,35.75,18.91.15-.05.3-.1.42-.16,3.3-1.8,1.28-11.83-1.92-16.69-3.19-4.87-8.51-8.18-14.2-9.4-3.72-.8-7.65-.74-11.26.47-3.37,1.12-8.4,3.67-8.76,6.34-.04.18-.04.36-.02.54Z"/>
              <path class="cls-3" d="M78.58,324.51c.52,4.62,29.85,20.5,35.75,18.91-.66-2.19-1.85-4.23-3.31-6.01-2.23-2.69-5.06-4.82-7.94-6.81-3.82-2.62-7.84-5.04-12.28-6.38-3.94-1.2-8.28-1.47-12.2-.24-.04.18-.04.36-.02.54Z"/>
            </g>
          </g>
          <g>
            <path class="cls-28" d="M167.44,291.71c.26-4.42,5.07-10.43,7.71-9.71,5.24,1.44,18.46,28.24,15.11,32.96-1.84,2.59-12.46-1.83-16.88-6.15s-6.32-10.52-5.94-17.11Z"/>
            <path class="cls-8" d="M133.36,281.85c.75,8,2.62,15.9,5.76,23.44,1.15,2.75,3.9,4.47,6.88,4.32,8.65-.45,17.23-2.17,25.37-5.11.11-4.96-.52-9.93-2.42-14.98-2.14.3-4.3.44-6.84,0-.36-.06-.64-.36-.69-.71-.4-2.84-.37-5.74.1-8.58-9.16.13-18.3.98-28.15,1.63Z"/>
          </g>
          <g>
            <path class="cls-12" d="M154.06,238.47l-2.81-5.77c7.19.5,17.58.39,23.99-.56,3.81-.57,7.25-2.85,8.83-6.36,2.3-5.1,4.68-14.07,5.5-20.1-6.34-1.44-12.08-3.59-18.89-5.55-1.36,2.69-2.47,5.26-3.65,7.74-.43.91-1.42,1.43-2.42,1.26-16.89-2.9-32.79-5.4-49.18-9.25-11.12-12.67-23.95-23.89-39.15-43.97-5.07,3.16-9.25,7.75-12.15,14.04,9.32,19.75,21.99,37.91,38.16,52.42,1.3,8.81,3.01,17.56,5.28,26.76,15.81-1.54,31.46-4.63,46.49-10.65Z"/>
            <g>
              <path class="cls-16" d="M142.69,220.09c1.27,4.63,4.01,8.85,7.73,11.9"/>
              <path class="cls-16" d="M165.28,210.5c-1.25,2.21-1.91,4.74-1.9,7.28"/>
              <path class="cls-16" d="M162.61,211.27c-2.45,1.28-4.47,3.39-5.63,5.9"/>
            </g>
          </g>
          <g>
            <path class="cls-7" d="M107.71,204.17c.09,2.84,1.18,5.62,2.98,7.8.92,1.13,2.03,2.1,3.28,2.83,3.66,2.15,8.4,2.19,12.09.13,3.7-2.07,6.23-6.18,6.45-10.5-.64-.58-1.22-1.2-1.72-1.87-.56-.76-1.03-1.56-1.42-2.42,0,0,0,0,0-.02-.07.02-.14.03-.22.04-6.12,1.24-13.75,2.83-21.44,4.01Z"/>
            <path class="cls-25" d="M129.38,200.13c-.08.02-.15.03-.23.03-6.12,1.24-13.75,2.83-21.44,4.01.09,2.84,1.18,5.62,2.98,7.8,7.35-1.22,14.39-4.51,20.1-9.41"/>
          </g>
          <g>
            <path class="cls-10" d="M114.46,234.66c-3.41-8.82-6.09-19.69-7.43-30.57-1.77-.27-3.53-.55-6.07-.86.46,9.32,5.05,25.34,8.21,32.71,1.74-.35,3.49-.7,5.29-1.28Z"/>
            <path class="cls-2" d="M155.24,238.83c8.48,12.65,12.38,28.3,10.28,43.72-20.36,8.08-43.4,9.2-64.5,2.3,1.81-12.12,3.62-24.25,5.88-36.35.02-4.9.57-9.8,2.18-14.41,10.47-.58,20.85-2.61,30.79-5.74,4.2,3.36,8.98,5.99,14.06,7.75.56,1.09.97,2.22,1.32,2.74Z"/>
            <path class="cls-10" d="M135.35,231.17c-2.57-8.06-2.51-19.15-1.87-28.14,2.52.09,5.01.74,7.33,1.91-1.28,8.77-.89,17.78,1.16,26.41-1.92,0-3.85-.01-6.63-.17Z"/>
            <g>
              <path class="cls-18" d="M154.8,240.26c-13.96,8.51-30.9,12.04-47.1,9.8"/>
              <path class="cls-10" d="M117.51,236.88c5.09-.46,10.14-1.35,15.37-2.46,1.27,3.07,1.78,6.7,0,9.54-2.08,3.32-7.11,4.53-10.77,2.78-3.66-1.75-5.59-6.03-4.6-9.86Z"/>
              <path class="cls-18" d="M124.69,232.62c.27.89.54,1.78.81,2.68"/>
              <path class="cls-18" d="M128.64,247.34c.17.72.35,1.44.76,2.92,1.12,12.05,1.48,24.17,1.08,36.26"/>
              <path class="cls-18" d="M146.4,245c3.15,4.07,8.75,6.07,13.77,4.92"/>
              <path class="cls-18" d="M114.75,251.12c-1.57,3.16-5,5.3-8.53,5.32"/>
              <path class="cls-18" d="M165.14,280.25c-19.75,8.39-42.6,9.23-62.92,2.32"/>
            </g>
          </g>
          <g>
            <path class="cls-7" d="M86.32,190.96c1.3,5.05,5.12,9.22,9.72,11.7,6.78,3.66,14.93,3.83,22.57,2.77,9.82-1.37,19.52-4.7,27.4-10.72,7.88-6.03,13.8-14.91,15.7-25.46-3.62-13.18-12.91-24.7-25.03-31.04-12.11-6.33-26.88-7.38-40.74-3.97-5.1,5.4-7.32,12.93-8.16,20.31-.69,6.05-.56,12.16-.91,18.24-.08,1.34-.18,2.68-.32,4.01-.13,1.34-.31,2.69-.46,4.03-.39,3.41-.63,6.83.23,10.12Z"/>
            <path class="cls-22" d="M156.51,191.03c3.8-5.53,7.61-11.12,10.16-17.33,2.55-6.21,3.78-13.15,2.24-19.68-1.55-6.53-6.21-12.52-13.52-15.1-6.59-11.91-19.77-19.88-33.37-20.19-13.61-.31-27.13,7.04-34.27,18.63-2.57,4.18-4.37,8.92-4.62,13.83-.26,4.9,1.12,9.97,4.07,13.45-.02-4.22.65-8.44,1.93-12.56,8.57-.3,16.93-4.48,22.32-11.15-1.62,3.39-3.25,6.77-4.87,10.16-.35.72-.7,1.53-.46,2.3.37,1.18,1.87,1.5,3.11,1.56,4.24.18,8.6-.51,12.31-2.56,3.72-2.05,6.72-5.58,7.88-9.77-.49,9.03,4.73,18.12,12.97,22.09.11,9.1,2.51,18.16,6.91,26.13,2.12-.91,4.53-1.11,7.2.2Z"/>
            <path class="cls-7" d="M147,186.86c2.92-1.83,6.67-3.01,9.77-1.51,3.4,1.65,4.69,6.24,3.34,9.77-1.36,3.53-4.8,5.95-8.45,6.93-2.35.63-4.9.73-7.2-.08-2.3-.81-4.3-2.61-5.01-4.94"/>
            <g>
              <g>
                <path class="cls-25" d="M120.49,183.3c-.07-2.57,2.93-4.73,6.69-4.83,3.77-.1,6.87,1.9,6.94,4.47.07,2.57-2.93,4.73-6.69,4.83-3.77.1-6.87-1.9-6.94-4.47Z"/>
                <path class="cls-22" d="M118.3,176.75c.32-2.1,1.94-3.61,3.62-3.35,1.68.25,2.79,2.16,2.48,4.27-.32,2.1-1.94,3.61-3.62,3.35-1.68-.25-2.79-2.16-2.48-4.27Z"/>
              </g>
              <g>
                <path class="cls-25" d="M86.09,180.84c.44.29.93.55,1.45.74,3.02,1.15,6.03.21,6.71-2.09.69-2.3-1.21-5.09-4.23-6.24-1.09-.41-2.18-.55-3.16-.46-.08,1.34-.18,2.68-.32,4.01-.13,1.34-.31,2.69-.46,4.03Z"/>
                <path class="cls-22" d="M98.25,173.73c.32-2.11-.79-4.02-2.48-4.27-1.68-.25-3.31,1.25-3.62,3.35-.32,2.1.79,4.02,2.48,4.27,1.68.25,3.31-1.25,3.62-3.35Z"/>
              </g>
              <path class="cls-22" d="M91.57,164.06c2.89-2.69,7.55-3.67,11.45-2.42-.74-2.54-3.85-4.28-6.67-3.74-2.82.54-4.9,3.28-4.78,6.16Z"/>
              <path class="cls-22" d="M118.73,164.18c4.75-.55,9.76,1.79,11.93,5.58.34-1.82.28-3.74-.58-5.42-.86-1.68-2.61-3.06-4.67-3.29-1.45-.17-2.94.24-4.16.97-1.21.72-2.17,1.75-2.52,2.17Z"/>
              <path class="cls-14" d="M104.2,180.57c-1.02-.68-1.46-2.1-1-3.2.46-1.1,1.77-1.77,2.96-1.51"/>
              <g>
                <path class="cls-28" d="M115.84,192.16c-1.43,2.99-4.59,5.13-7.88,5.11-2.15-.02-4.22-.94-5.83-2.37-.62-.55-1.17-1.18-1.64-1.87-1.68-2.47-2.29-5.58-2.04-8.56.22.01.44.02.66.02,5.58.18,10.95-.41,16.07-1.87.17.26.33.53.46.8.57,1.08.93,2.25,1.07,3.43.21,1.81-.07,3.66-.86,5.31Z"/>
                <path class="cls-10" d="M115.63,183.42c-3.49,2.74-7.99,4.12-12.4,3.84-1.55-.09-2.95-.98-3.81-2.28-.11-.17-.22-.34-.32-.5,5.58.18,10.95-.41,16.07-1.87.17.26.33.53.46.8Z"/>
                <path class="cls-9" d="M115.84,192.16c-1.43,2.99-4.59,5.13-7.88,5.11-2.15-.02-4.22-.94-5.83-2.37,1.04-3.03,3.24-5.66,6.09-7.1,2.6-1.32,5.67-1.61,8.49-.95.21,1.81-.07,3.66-.86,5.31Z"/>
              </g>
            </g>
          </g>
          <g>
            <path class="cls-17" d="M57.75,156.5c-5.16,8.52-4.68,20.15,1.16,28.21,5.54,7.65,15.63,12.93,16.52,22.36.47,4.97-1.92,9.77-4.74,13.88-2.82,4.11-6.17,7.94-8.07,12.55-3.54,8.59-1.07,19.31,5.86,25.47"/>
            <path class="cls-17" d="M85.48,241.81c-6.91,2.93-15.28,2.67-21.59-1.38-6.32-4.05-10.1-12.03-8.51-19.36,1.11-5.11,4.6-9.98,3.46-15.09-.95-4.25-4.85-7.15-8.74-9.11-3.89-1.96-8.16-3.47-11.18-6.6-5.36-5.57-4.98-15-.75-21.47,4.23-6.47,11.43-10.42,18.74-12.94"/>
          </g>
          <g>
            <g>
              <path class="cls-17" d="M68.62,111.16c.3,9.37.6,18.74.91,28.11"/>
              <g>
                <g>
                  <path class="cls-26" d="M109.72,67.52c-3.92,21.56-22.86,40.94-40.48,37.74-7.63-1.38-13.76-6.79-17.93-14.21-5.47-9.7-7.59-22.89-5.38-35.1,3.91-21.56,19.87-31.96,37.49-28.76,11.15,2.03,20.29,9.01,24.5,19.32,2.45,5.98,3.24,13.09,1.8,21.01Z"/>
                  <path class="cls-4" d="M109.72,67.52c-3.92,21.56-22.86,40.94-40.48,37.74-7.63-1.38-13.76-6.79-17.93-14.21,3.03,2.95,7.06,4.94,11.26,5.68,6.44,1.14,13.16-.4,19.02-3.32,9.25-4.6,16.67-12.58,21.11-21.9,3.7-7.75,5.37-16.4,5.23-25,2.45,5.98,3.24,13.09,1.8,21.01Z"/>
                  <path class="cls-21" d="M83.32,33.4c-5.39-2.01-11.62-1.79-16.89.59-5.27,2.38-9.52,6.89-11.53,12.24-1.07,2.83-1.17,6.68,1.49,8.14,2.25,1.23,5.12-.07,6.97-1.86,1.84-1.79,3.21-4.09,5.38-5.49,2.12-1.38,4.74-1.72,7.26-1.91,2.52-.19,5.11-.27,7.45-1.23,2.34-.96,4.42-3.03,4.52-5.52.1-2.49-2.69-4.22-4.65-4.95Z"/>
                </g>
                <g>
                  <path class="cls-5" d="M66.97,103.63c-1.05.23-1.63,1.51-1.34,2.55.29,1.04,1.25,1.78,2.27,2.11.98.31,2.09.29,2.99-.2.9-.5,1.53-1.51,1.43-2.53-1.71-.19-3.37-.75-5.35-1.92Z"/>
                  <path class="cls-5" d="M67.73,105.35c-2.44,1.73-4.39,4.36-5.6,7.75.62.95,1.26,1.92,2.08,2.65.82.73,1.87,1.22,2.93,1.09,1.15-.15,2.17-1,3.31-1.18,1.15-.18,2.28.35,3.43.48,1.15.13,2.57-.38,2.94-1.82-1.93-3.37-4.65-6.15-9.1-8.97Z"/>
                  <path class="cls-17" d="M65.74,106.83c1.79,1.19,4.12,1.51,6.17.86"/>
                </g>
              </g>
            </g>
            <g>
              <path class="cls-17" d="M89.39,110.09c-6.49,9.92-12.97,19.85-19.46,29.77"/>
              <g>
                <g>
                  <path class="cls-1" d="M148.33,101.44c-16.49,14.43-43.38,17.8-55.17,4.33-5.11-5.83-6.54-13.88-5.19-22.28,1.76-11,8.31-22.64,17.64-30.82,16.48-14.44,35.45-12.64,47.24.84,7.47,8.53,10.27,19.68,7.15,30.37-1.81,6.21-5.62,12.26-11.68,17.56Z"/>
                  <path class="cls-6" d="M148.33,101.44c-16.49,14.43-43.38,17.8-55.17,4.33-5.11-5.83-6.54-13.88-5.19-22.28.53,4.19,2.45,8.27,5.28,11.46,4.33,4.91,10.55,7.88,16.95,9.25,10.1,2.17,20.87.53,30.16-4,7.72-3.77,14.41-9.5,19.65-16.31-1.81,6.21-5.62,12.26-11.68,17.56Z"/>
                  <path class="cls-23" d="M148.9,58.31c-2.97-4.93-7.97-8.64-13.58-10.05-5.6-1.42-11.74-.53-16.65,2.4-2.6,1.55-5.07,4.5-3.9,7.3.99,2.37,4.05,3.14,6.61,2.88,2.56-.25,5.06-1.2,7.63-.95,2.51.24,4.78,1.6,6.87,3.03,2.09,1.42,4.17,2.97,6.6,3.68,2.43.71,5.35.38,6.97-1.51,1.63-1.89.52-4.98-.55-6.77Z"/>
                </g>
                <g>
                  <path class="cls-19" d="M92.39,103.09c-.96-.48-2.22.17-2.64,1.16-.42.99-.13,2.17.47,3.06.57.85,1.45,1.53,2.47,1.7,1.01.17,2.14-.23,2.7-1.09-1.22-1.21-2.17-2.68-2.99-4.83Z"/>
                  <path class="cls-19" d="M90.24,104.79c-3.32.52-6.49,1.94-8.77,4.16,2.52,1.56,1.66,5.94,4.07,7.67,1.44,1.03,3.4.65,5.12.24,1.72-.41,3.7-.76,5.11.3-.1-1.58-.28-3.15-.53-4.71-.18-1.1-.41-2.25-1.11-3.12-.69-.86-1.73-1.33-2.61-2-.88-.67-1.64-1.73-1.27-2.55Z"/>
                </g>
                <path class="cls-17" d="M89.2,104.54c.71,2.3,2.77,4.13,5.14,4.57"/>
              </g>
            </g>
          </g>
        </g>
        <path class="cls-18" d="M124.69,252.14s-2.33,16.06,5.78,14.78"/>
        <path class="cls-27" d="M129.64,268.2l-2.22,21.15h4.13s.3-24.4-1.91-21.15Z"/>
        <polygon class="cls-30" points="99.39 282.35 131.12 282.63 131.07 290.68 100.48 290.41 99.39 282.35"/>
        <polygon class="cls-10" points="130.18 282.63 165.54 281.2 165.68 289.35 129.72 290.88 130.18 282.63"/>
        <polygon class="cls-24" points="191.08 204.93 169.92 200.38 167.11 206.67 188.67 212.66 191.08 204.93"/>
        <polygon class="cls-24" points="78.55 154.61 62.26 168.88 65.63 174.88 83.3 161.16 78.55 154.61"/>
      </g>
    </g>
  </g>
</svg>