<?xml version="1.0" encoding="UTF-8"?>
<svg xmlns="http://www.w3.org/2000/svg" xmlns:xlink="http://www.w3.org/1999/xlink" viewBox="0 0 230.4 360">
  <defs>
    <style>
      .cls-1 {
        fill: #ded2c8;
      }

      .cls-2 {
        fill: #49220f;
      }

      .cls-2, .cls-3, .cls-4, .cls-5, .cls-6 {
        fill-rule: evenodd;
      }

      .cls-7 {
        fill: #ec3060;
      }

      .cls-8 {
        fill: #540d0d;
      }

      .cls-9 {
        fill: #e3cbaa;
      }

      .cls-10 {
        fill: #eb516b;
      }

      .cls-11 {
        fill: #3e7291;
      }

      .cls-12 {
        opacity: .29;
      }

      .cls-12, .cls-13, .cls-14, .cls-15 {
        mix-blend-mode: multiply;
      }

      .cls-12, .cls-14 {
        fill: #390c18;
      }

      .cls-16 {
        fill: #92566a;
      }

      .cls-17 {
        fill: #aca635;
      }

      .cls-18 {
        clip-path: url(#clippath-4);
      }

      .cls-3, .cls-19 {
        fill: #f57b01;
      }

      .cls-20 {
        fill: #6f4a54;
      }

      .cls-21 {
        fill: #f9efdb;
      }

      .cls-22 {
        fill: #e83317;
      }

      .cls-23 {
        fill: #895531;
      }

      .cls-24 {
        fill: #eba77c;
      }

      .cls-25 {
        fill: #bf9f86;
      }

      .cls-26 {
        fill: #f42b53;
      }

      .cls-27 {
        fill: #e9c792;
      }

      .cls-28 {
        fill: #ffae3e;
      }

      .cls-29 {
        fill: #982b23;
      }

      .cls-30 {
        fill: #d93659;
      }

      .cls-31 {
        fill: #f0b892;
      }

      .cls-32 {
        fill: #564585;
      }

      .cls-33 {
        fill: #ff4664;
      }

      .cls-34 {
        fill: #8fc4c2;
      }

      .cls-35 {
        fill: #fff;
      }

      .cls-36 {
        fill: #e6c38e;
      }

      .cls-37 {
        fill: #a4dce9;
      }

      .cls-13 {
        fill: #8a4c54;
        opacity: .73;
      }

      .cls-38 {
        fill: #efe0c1;
      }

      .cls-4, .cls-39, .cls-5, .cls-40, .cls-41, .cls-42, .cls-43, .cls-44, .cls-45 {
        stroke-miterlimit: 10;
      }

      .cls-4, .cls-5, .cls-46, .cls-6, .cls-40 {
        fill: #ffbe45;
      }

      .cls-4, .cls-5, .cls-40, .cls-41 {
        stroke: #ffa33b;
      }

      .cls-47 {
        fill: #8f8b09;
      }

      .cls-48, .cls-39, .cls-41, .cls-49, .cls-42, .cls-43, .cls-44, .cls-45 {
        fill: none;
      }

      .cls-50 {
        fill: #abab1a;
      }

      .cls-39, .cls-42 {
        stroke: #faaa39;
      }

      .cls-51 {
        fill: #8b562e;
      }

      .cls-52 {
        fill: #f7eedb;
      }

      .cls-53 {
        fill: #c49a6c;
      }

      .cls-54 {
        clip-path: url(#clippath-1);
      }

      .cls-55 {
        fill: #b4d34b;
      }

      .cls-56 {
        fill: #ba2249;
      }

      .cls-57 {
        fill: #441019;
      }

      .cls-58 {
        fill: #58272b;
      }

      .cls-5, .cls-41, .cls-42 {
        stroke-width: 2px;
      }

      .cls-59 {
        fill: #df8f2b;
      }

      .cls-60 {
        isolation: isolate;
      }

      .cls-61 {
        fill: #432931;
      }

      .cls-62 {
        fill: #a9ba3e;
      }

      .cls-63 {
        fill: #4bacc9;
      }

      .cls-64 {
        fill: #37190b;
      }

      .cls-65 {
        fill: #ff961b;
      }

      .cls-66 {
        fill: #9b9610;
      }

      .cls-14 {
        opacity: .31;
      }

      .cls-67 {
        fill: #661e29;
      }

      .cls-68 {
        fill: #eaceb4;
      }

      .cls-69 {
        clip-path: url(#clippath-3);
      }

      .cls-70 {
        fill: #524e4d;
      }

      .cls-71 {
        fill: #fa6b08;
      }

      .cls-72 {
        fill: #fff8e8;
      }

      .cls-41, .cls-49 {
        stroke-linecap: round;
      }

      .cls-73 {
        fill: #ffb03c;
      }

      .cls-74 {
        fill: #898930;
      }

      .cls-75 {
        fill: #e43c4a;
      }

      .cls-49 {
        stroke: #a97c50;
        stroke-linejoin: round;
      }

      .cls-76 {
        fill: #72401e;
      }

      .cls-77 {
        fill: #753940;
      }

      .cls-78 {
        opacity: .59;
      }

      .cls-79 {
        fill: #f2dfc2;
      }

      .cls-80 {
        fill: #a1d6d4;
      }

      .cls-81 {
        fill: #1e0c0a;
      }

      .cls-82 {
        fill: #dcba81;
      }

      .cls-83 {
        fill: #8f2722;
      }

      .cls-84 {
        fill: #727171;
      }

      .cls-85 {
        fill: #349cd6;
      }

      .cls-43 {
        stroke: #c49a6c;
        stroke-width: .25px;
      }

      .cls-86 {
        fill: #3777b3;
      }

      .cls-87 {
        fill: #6d1915;
      }

      .cls-44 {
        stroke: #6dc5de;
      }

      .cls-44, .cls-45 {
        stroke-width: 4px;
      }

      .cls-88 {
        fill: #d98c6d;
      }

      .cls-89 {
        fill: #a29d18;
      }

      .cls-90 {
        fill: #edd9b0;
      }

      .cls-91 {
        fill: #1f9ef2;
      }

      .cls-92 {
        clip-path: url(#clippath-2);
      }

      .cls-93 {
        fill: #f6b048;
      }

      .cls-94 {
        fill: #b6a395;
      }

      .cls-95 {
        fill: #f9ddb7;
      }

      .cls-96 {
        fill: #5e3214;
      }

      .cls-97 {
        fill: #e6d0b9;
      }

      .cls-45 {
        stroke: #00aeef;
      }

      .cls-98 {
        fill: #6ccce4;
      }

      .cls-99 {
        fill: #7e231b;
      }

      .cls-100 {
        fill: #faf7f3;
      }

      .cls-101 {
        clip-path: url(#clippath);
      }

      .cls-102 {
        fill: #ffd557;
      }

      .cls-103 {
        fill: #a16c3f;
      }

      .cls-104 {
        fill: #974f59;
      }

      .cls-105 {
        fill: #ca3047;
      }
    </style>
    <clipPath id="clippath">
      <rect class="cls-48" width="230.4" height="360" rx="12.28" ry="12.28"/>
    </clipPath>
    <clipPath id="clippath-1">
      <path class="cls-48" d="M126.64,307.25c-26.44-2.55-48.76,15.9-72.57,3.59,1.11-24.81,2.87-44.98,4.38-78.77,14.88-2.24,29.66-3.17,45.86-3.52,4.98,14.66,19.33,68.2,22.33,78.7Z"/>
    </clipPath>
    <clipPath id="clippath-2">
      <path class="cls-48" d="M90.12,261.6c-8-4.29-25.33-20.33-34.2-33.16,1.7-2.99,3.63-6.51,5.82-11.1,13.67.55,27.39-.35,41.15-2.67,3.47,2.36,6.95,5.69,10.33,8.96-3.57,12.8-12.92,29.31-23.1,37.96Z"/>
    </clipPath>
    <clipPath id="clippath-3">
      <rect class="cls-48" x="250.4" width="230.4" height="360" rx="12.28" ry="12.28"/>
    </clipPath>
    <clipPath id="clippath-4">
      <rect class="cls-48" x="250.35" y="1.18" width="230.5" height="359.6"/>
    </clipPath>
  </defs>
  <g class="cls-60">
    <g id="Layer_1" data-name="Layer 1">
      <g class="cls-101">
        <g>
          <rect class="cls-21" width="230.4" height="360"/>
          <g>
            <g>
              <rect class="cls-84" x="13.88" y="251.73" width="1.09" height="82.71" transform="translate(28.85 586.17) rotate(180)"/>
              <rect class="cls-70" x="13.88" y="248.87" width="1.09" height="18.88" transform="translate(28.85 516.62) rotate(180)"/>
              <polygon class="cls-70" points="5.54 335.39 14.42 332.47 23.31 335.39 23.31 336.41 5.54 336.41 5.54 335.39"/>
              <path class="cls-52" d="M20.64,257.12c-1.78-.42-3.93-.66-6.23-.66s-4.45.24-6.23.66c-4.74-2.53-8.01-7.85-8.01-14.02,0-6.5,3.64-12.07,8.81-14.4,1.61.31,3.47.49,5.44.49s3.83-.18,5.44-.49c5.17,2.34,8.81,7.91,8.81,14.4,0,6.16-3.27,11.49-8.01,14.02Z"/>
              <path class="cls-38" d="M3.47,233.13c0,.06,0,.11,0,.17,0,11.63,7.05,21.05,15.76,21.05,2.36,0,4.6-.7,6.61-1.94-1.36,1.99-3.13,3.61-5.19,4.71-1.78-.42-3.93-.66-6.23-.66s-4.45.24-6.23.66c-4.74-2.53-8.01-7.85-8.01-14.02,0-3.8,1.25-7.27,3.31-9.97Z"/>
              <path class="cls-52" d="M4.66,252.57c-1.67-1.81-2.1-3.57-.95-3.93,1.15-.36,3.43.81,5.1,2.62,1.67,1.81,2.1,3.57.95,3.93-1.15.36-3.43-.81-5.1-2.62Z"/>
              <path class="cls-100" d="M23.85,241.84c.86-1.33,2.12-2.16,2.83-1.86.7.3.57,1.62-.29,2.95-.86,1.33-2.12,2.16-2.83,1.86s-.57-1.62.29-2.95Z"/>
              <path class="cls-100" d="M15.83,236.22c-1.94-2.09-3.2-4.47-3.59-6.47.66.04,1.32.07,2.01.07,1.98,0,3.83-.18,5.44-.49,1.9.86,3.59,2.16,4.97,3.77,1.27,2.54,1.49,4.96.34,6.23-1.71,1.9-5.82.51-9.18-3.11Z"/>
              <g class="cls-15">
                <path class="cls-38" d="M3.93,253.65c-.11-.13-.22-.26-.33-.39,3-.36,6.74-.57,10.8-.57s7.8.21,10.8.57c-.11.13-.22.26-.33.39-3.06-.26-6.64-.41-10.48-.41s-7.42.15-10.48.41Z"/>
                <path class="cls-38" d="M1.55,249.82c-.06-.13-.11-.26-.17-.39,3.55-.39,8.08-.63,13.02-.63s9.47.24,13.02.63c-.05.13-.11.26-.17.39-3.69-.29-8.1-.46-12.85-.46s-9.16.17-12.85.46Z"/>
                <path class="cls-38" d="M.39,245.89c-.02-.14-.05-.28-.07-.42,3.93-.35,8.8-.55,14.08-.55s10.15.21,14.08.55c-.02.14-.05.28-.07.42-4.07-.26-8.87-.42-14.01-.42s-9.94.15-14.01.42Z"/>
                <path class="cls-38" d="M5.68,230.79c.18-.15.35-.3.53-.44,2.5.15,5.27.24,8.19.24s5.69-.09,8.19-.24c.18.14.36.29.53.44-2.58.23-5.55.36-8.72.36s-6.14-.13-8.72-.36Z"/>
                <path class="cls-38" d="M2.52,234.52c.09-.14.17-.28.26-.42,3.42.24,7.39.37,11.62.37s8.2-.14,11.62-.37c.09.14.18.28.26.42-3.36.32-7.46.51-11.89.51s-8.53-.19-11.89-.51Z"/>
                <path class="cls-38" d="M.82,238.4c.04-.15.09-.29.14-.43,3.95.24,8.54.38,13.45.38s9.5-.14,13.45-.38c.05.14.1.28.14.43-3.84.32-8.53.51-13.59.51s-9.74-.19-13.59-.51Z"/>
                <path class="cls-38" d="M.21,241.82c.01-.17.04-.34.05-.52,4.45.09,9.2.14,14.14.14s9.69-.05,14.14-.14c.02.17.04.34.05.52-4.42.12-9.2.18-14.2.18s-9.78-.06-14.2-.18Z"/>
              </g>
            </g>
            <polygon class="cls-14" points="198.16 143.73 164.31 153.43 87.2 152.6 90.8 177.85 207.59 176.74 198.16 143.73"/>
            <g>
              <path class="cls-30" d="M129.47,271.09c0-19.53,11.43-35.25,31.2-35.25s47.87,1.91,47.87,36.2-19.77,36.91-37.39,36.91-41.68-11.91-41.68-37.87Z"/>
              <path class="cls-7" d="M171.27,259.18c13.07,0,24.78-2.69,32.75-6.94-8.74-15.3-28.42-16.4-43.34-16.4-11.76,0-20.56,5.56-25.77,14.18,7.76,5.52,21.15,9.16,36.37,9.16Z"/>
              <path class="cls-56" d="M170.43,293.4c-18.82,0-34.46-20.35-37.71-39.12-2.14,4.99-3.25,10.72-3.25,16.82,0,25.96,24.05,37.87,41.68,37.87s37.39-2.62,37.39-36.91c0-4.85-.58-9.04-1.6-12.68-4.96,16.2-19.43,34.03-36.5,34.03Z"/>
              <polygon class="cls-27" points="184.42 309.19 188.3 339.68 189.72 339.68 189.36 309.91 184.42 309.19"/>
              <polygon class="cls-27" points="151.23 309.19 153.05 339.68 154.48 339.68 156.13 309.91 151.23 309.19"/>
              <polygon class="cls-27" points="197.85 309.19 201.87 339.68 200.36 339.68 192.82 309.91 197.85 309.19"/>
              <polygon class="cls-27" points="143.76 309.19 139.95 339.68 141.38 339.68 148.52 309.91 143.76 309.19"/>
              <path class="cls-10" d="M216.91,267.28c-10.6-6.67-23.69,19.77-27.03,32.87h-37.31c-4.05-13.1-18.58-39.53-28.82-32.87-10.24,6.67,18.81,46.68,18.81,46.68h58.07s26.88-40.01,16.27-46.68Z"/>
              <path class="cls-30" d="M219.35,272.02c-.67,2.12-1.43,4.3-2.28,6.5-6.64,17.22-16.23,29.56-21.43,27.56-3-1.16-3.87-6.83-2.8-14.73-1.29,3.21-2.31,6.25-2.96,8.79h-.25c.92.86,1.44,1.8,1.44,2.78,0,4.12-8.92,7.46-19.93,7.46s-19.93-3.34-19.93-7.46c0-.98.52-1.92,1.44-2.78h-.09c-.57-1.83-1.34-3.92-2.28-6.15.97,5.74.43,9.84-1.87,11.01-4.8,2.45-15.44-8.75-23.76-25.03-1.11-2.17-2.12-4.32-3.03-6.43,1.26,13.31,20.93,40.41,20.93,40.41h58.07s19.68-29.31,18.71-41.93Z"/>
              <polygon class="cls-56" points="187.65 259.93 189.95 260.5 190.86 267.54 191.7 260.5 194.83 259.64 191.55 259.26 190.86 251.84 190.1 259.07 187.65 259.93"/>
              <polygon class="cls-56" points="165.21 277.4 167.51 277.97 168.42 285.01 169.26 277.97 172.39 277.11 169.11 276.73 168.42 269.31 167.66 276.54 165.21 277.4"/>
              <polygon class="cls-56" points="143.3 258.19 145.6 258.76 146.51 265.8 147.35 258.76 150.48 257.9 147.2 257.52 146.51 250.1 145.75 257.33 143.3 258.19"/>
            </g>
            <g>
              <polygon class="cls-12" points="88.37 88.52 45.23 130.72 54.64 142.73 80.56 142.73 80.56 127.25 95.5 127.25 96.04 103.05 88.37 88.52"/>
              <polygon class="cls-12" points="61.73 77.02 35.91 75.88 34.83 91.35 19.35 91.94 18.59 119.21 27.99 131.22 53.92 131.22 53.92 115.75 68.86 115.75 69.4 91.55 61.73 77.02"/>
              <g>
                <rect class="cls-87" x="61.66" y="90.32" width="24.91" height="24.13"/>
                <polygon class="cls-8" points="86.57 90.25 61.66 89.72 61.66 100.02 86.57 100.55 86.57 90.25"/>
                <rect class="cls-87" x="46.36" y="105.43" width="24.91" height="24.13"/>
                <polygon class="cls-8" points="71.27 105.36 46.36 104.83 46.36 115.13 71.27 115.66 71.27 105.36"/>
                <polygon class="cls-8" points="83.12 107.97 78.49 107.91 75.59 114.6 85.05 114.57 83.12 107.97"/>
                <polygon class="cls-8" points="74.32 104.4 71.2 104.3 71.2 114.6 77.54 114.56 74.32 104.4"/>
                <polygon class="cls-8" points="55.27 114 46.36 113.85 46.36 130.09 64.45 130.02 55.27 114"/>
                <path class="cls-47" d="M78.66,101.67c-3.41-2.03-1.4-5.75-1.4-5.75,0,0,1.3.91,1.8,2.41.57,1.71-.4,3.34-.4,3.34Z"/>
                <path class="cls-66" d="M78.62,102.07c-1.41-4.07,2.24-5.4,2.24-5.4,0,0,.47,1.66-.02,3.17-.55,1.72-2.22,2.23-2.22,2.23Z"/>
                <path class="cls-50" d="M78.75,104.05c-.81-4.49,3.36-4.59,3.36-4.59,0,0,.09,1.74-.72,3.06-.91,1.51-2.65,1.53-2.65,1.53Z"/>
                <path class="cls-89" d="M78.96,103.97c-3.83-.33-3.29-4.65-3.29-4.65,0,0,1.51.25,2.5,1.4,1.12,1.32.8,3.25.8,3.25Z"/>
                <path class="cls-29" d="M78.92,103.6c-.47-.04-3,1.73-3.83,3.58l7.13.25c-.4-1.19-2.82-3.79-3.29-3.83Z"/>
                <path class="cls-57" d="M83,106.73l-8.8-.08s-.31,4.28,1.48,7.58l5.76.08c2.18-2.55,1.56-7.58,1.56-7.58Z"/>
                <path class="cls-67" d="M74.76,106.65c.32,2.84,1.97,5.02,3.97,5.05,2,.03,3.66-2.13,3.97-4.97l-7.94-.07Z"/>
                <polygon class="cls-36" points="60.49 129.13 55.82 118.65 59.49 117.32 63.77 127.42 60.49 129.13"/>
                <polygon class="cls-75" points="56.85 129.6 51.25 116.85 53.98 114.45 60.13 128.12 56.85 129.6"/>
                <polygon class="cls-59" points="52.78 129.39 47.62 116.31 50.59 114.08 56.28 128.11 52.78 129.39"/>
                <path class="cls-93" d="M50.83,115.18c-1.35.78-.45,5.68,2,10.95.45.97.92,1.88,1.4,2.72l2.04-.75-5.26-12.99c-.06.02-.12.03-.18.06Z"/>
                <path class="cls-83" d="M72.59,103.85l-27.72-.8.36,28.27,27.72.2-.36-27.67ZM47.87,128.62l-.29-22.83,22.39.65.29,22.34-22.39-.16Z"/>
                <polygon class="cls-99" points="60.64 87.86 60.11 103.49 62.75 103.57 63.16 90.55 85.6 91.26 85.36 114.24 72.72 113.79 72.76 116.62 88.15 117.2 88.37 88.67 60.64 87.86"/>
                <g>
                  <polygon class="cls-99" points="47.57 105.79 63.55 106.25 61.33 103.53 44.87 103.05 45.05 116.74 47.77 121.02 47.57 105.79"/>
                  <polygon class="cls-83" points="72.77 117.59 70.06 114.26 70.25 128.78 52.62 128.65 54.36 131.38 72.95 131.52 72.77 117.59"/>
                </g>
                <polygon class="cls-83" points="68.73 90.73 85.6 91.26 85.36 114.24 82.92 114.15 84.7 117.07 88.15 117.2 88.37 88.67 67.11 88.05 68.73 90.73"/>
                <polygon class="cls-95" points="59.97 126.28 56.99 119.61 59.33 118.76 62.06 125.19 59.97 126.28"/>
                <g>
                  <polygon class="cls-33" points="55.05 117.81 54.42 116.41 52.39 118.19 52.89 119.31 55.05 117.81"/>
                  <polygon class="cls-33" points="56.02 126.46 56.54 127.64 58.97 126.54 58.25 124.92 56.02 126.46"/>
                </g>
              </g>
              <g>
                <path class="cls-83" d="M46.81,91.16l-28.87-.84.37,29.44,28.87.21-.37-28.81ZM21.06,116.95l-.3-23.77,23.31.67.3,23.27-23.31-.17Z"/>
                <polygon class="cls-99" points="34.36 74.51 33.82 90.79 36.56 90.87 36.98 77.31 60.36 78.05 60.11 101.97 46.95 101.52 46.98 104.46 63.01 105.07 63.24 75.35 34.36 74.51"/>
                <g>
                  <polygon class="cls-87" points="20.76 93.18 37.39 93.66 35.08 90.82 17.94 90.33 18.13 104.58 20.96 109.04 20.76 93.18"/>
                  <polygon class="cls-99" points="47 105.47 44.18 102 44.37 117.12 26.01 116.99 27.82 119.83 47.19 119.97 47 105.47"/>
                </g>
                <polygon class="cls-83" points="42.78 77.49 60.36 78.05 60.11 101.97 57.57 101.89 59.41 104.93 63.01 105.07 63.24 75.35 41.1 74.71 42.78 77.49"/>
              </g>
            </g>
            <g>
              <polygon class="cls-87" points="89.97 145.09 91.93 162.79 191.58 163.01 193.55 145.09 89.97 145.09"/>
              <polygon class="cls-8" points="174.89 145.09 158.32 145.09 157.22 162.62 178.25 163.19 174.89 145.09"/>
              <g>
                <polygon class="cls-8" points="94.45 145.09 89.97 145.09 91.93 162.79 102.76 162.81 94.45 145.09"/>
                <polygon class="cls-8" points="190.56 145.09 182.32 162.99 191.58 163.01 193.55 145.09 190.56 145.09"/>
              </g>
              <path class="cls-74" d="M175.27,137.46c-.06-1.43-2.52-3.41-5.26.66l.86,2.97c2.62,0,4.46-2.2,4.4-3.63Z"/>
              <path class="cls-17" d="M175.27,137.46c-.05-1.17-1.7-2.7-3.79-1.01-.09,1.25.43,2.35,1.39,2.7.66.24,1.39.07,2.03-.38.25-.45.39-.91.37-1.31Z"/>
              <path class="cls-74" d="M163.27,138.56c-1.6-.77-4.46-.66-4.83,1.87-.37,2.53,5.07,2.09,5.07,2.09l-.23-3.96Z"/>
              <path class="cls-17" d="M161.16,138.8c0-.22-.03-.44-.07-.65-1.24.08-2.42.72-2.65,2.28-.08.56.13.97.5,1.27,1.28-.35,2.23-1.51,2.23-2.9Z"/>
              <path class="cls-17" d="M165.89,132.18c-5.04,1.21-4.51,12.33-.4,19.48l3.41-.11c3.65-9.47,2.03-20.58-3.01-19.37Z"/>
              <path class="cls-74" d="M168.68,147.53c-2.46.34-5.05-3.62-5.77-8.85-.13-.96-.19-1.9-.19-2.8-1.16,4.17-.03,10.89,2.78,15.77l3.41-.11c.64-1.65,1.11-3.35,1.43-5.03-.47.57-1.03.93-1.65,1.01Z"/>
              <path class="cls-58" d="M173.99,150.23c-.98-.55-13.99-.76-14.53.11-.55.87,1.42,11.47,1.42,11.91l13.22-.44s.87-11.04-.11-11.58Z"/>
              <polygon class="cls-8" points="133.42 145.15 120.13 145.2 119.91 161.57 136.81 162.1 133.42 145.15"/>
              <polygon class="cls-8" points="117.23 145.09 99.44 145.09 99.45 161.56 120.12 162.1 117.23 145.09"/>
              <polygon class="cls-105" points="133.31 144.11 121 144.77 121.63 161.33 133.35 161.33 133.31 144.11"/>
              <g>
                <polygon class="cls-26" points="124.8 144.57 121.46 156.79 121.63 161.33 123.42 161.33 127.03 144.45 124.8 144.57"/>
                <polygon class="cls-26" points="133.31 144.11 130.72 144.25 127.07 161.33 129.09 161.33 133.32 145.92 133.31 144.11"/>
              </g>
              <polygon class="cls-61" points="132.12 145.91 122.41 146.44 122.91 159.58 132.14 159.58 132.12 145.91"/>
              <polygon class="cls-20" points="116.19 140.36 99.58 141.81 102.21 161.33 116.92 161.33 116.19 140.36"/>
              <g>
                <polygon class="cls-16" points="105.35 141.31 101.28 154.45 102.21 161.33 103.71 161.33 108.74 141.01 105.35 141.31"/>
                <polygon class="cls-16" points="116.19 140.36 111.25 140.79 106.58 161.33 111.07 161.33 116.34 144.65 116.19 140.36"/>
              </g>
              <polygon class="cls-61" points="114.36 142.4 101.58 143.54 103.6 158.91 114.92 158.91 114.36 142.4"/>
              <polygon class="cls-99" points="195.3 164.32 88.66 164.32 88.66 161.04 195.95 160.61 195.3 164.32"/>
              <polygon class="cls-99" points="91.93 143.12 85.82 143.34 88.66 164.32 94.34 163.88 91.93 143.12"/>
              <polygon class="cls-99" points="192.02 143.12 198.14 143.34 195.3 164.32 189.62 163.88 192.02 143.12"/>
              <path class="cls-77" d="M173.98,150.22c-.9-.46-10.23-.68-13.45-.22.03.18.06.36.1.55,1.18,5.55,5.05,9.43,8.65,8.67,3.07-.65,4.94-4.46,4.7-9Z"/>
              <polygon class="cls-97" points="113.92 142.83 102.06 143.92 103.93 158.47 114.44 158.47 113.92 142.83"/>
              <path class="cls-104" d="M169.73,154.71c1.79,0,3.28-1.62,3.67-3.79-.61-.26-4.03-.45-7.4-.46.24,2.4,1.82,4.25,3.73,4.25Z"/>
              <polygon class="cls-90" points="131.79 146.22 122.74 146.73 123.2 159.27 131.82 159.27 131.79 146.22"/>
              <g>
                <path class="cls-35" d="M103,143.83c-.23.67-.46,1.34-.69,2.03l1.62,12.61h1.43l5.62-15.37-7.98.73Z"/>
                <path class="cls-35" d="M113.92,142.83l-1.08.1c-.5,1.45-3.62,10.55-5.32,15.54h3.13l3.47-9.5-.2-6.14Z"/>
              </g>
              <g>
                <path class="cls-82" d="M123.33,159.27c.89-3.35,2.28-8.43,3.47-12.77l-4.06.23.47,12.55h.12Z"/>
                <polygon class="cls-82" points="129.98 146.32 126.99 159.27 131.82 159.27 131.79 146.22 129.98 146.32"/>
              </g>
            </g>
            <g>
              <rect class="cls-28" x="-4.76" y="336.28" width="231.6" height="23.72"/>
              <polygon class="cls-102" points="169.71 360 58.39 360 135.55 336.28 226.84 336.28 169.71 360"/>
            </g>
            <path class="cls-13" d="M132.15,342.43c0-.56-31.93-1.01-71.32-1.01s-71.32.45-71.32,1.01,31.93,1.01,71.32,1.01,71.32-.45,71.32-1.01Z"/>
            <path class="cls-13" d="M240.88,342.43c0-.56-22.66-1.01-50.61-1.01s-50.61.45-50.61,1.01,22.66,1.01,50.61,1.01,50.61-.45,50.61-1.01Z"/>
            <g>
              <path class="cls-21" d="M71.95,344.99l.1-4.94.29,4.92c.06.99.86,1.77,1.85,1.8l4.12.12-4.11.41c-.94.09-1.67.86-1.72,1.8l-.17,3.13-.26-3.22c-.08-.96-.86-1.71-1.82-1.76l-2.2-.1,2.26-.31c.93-.13,1.63-.91,1.65-1.86Z"/>
              <path class="cls-72" d="M108.14,342.48l.1-4.94.29,4.92c.06.99.86,1.77,1.85,1.8l4.12.12-4.11.41c-.94.09-1.67.86-1.72,1.8l-.17,3.13-.26-3.22c-.08-.96-.86-1.71-1.82-1.76l-2.2-.1,2.26-.31c.93-.13,1.63-.91,1.65-1.86Z"/>
              <path class="cls-72" d="M169.5,351.05l.05-2.55.15,2.54c.03.51.45.91.96.93l2.13.06-2.12.21c-.48.05-.86.44-.89.93l-.09,1.62-.13-1.66c-.04-.5-.44-.89-.94-.91l-1.14-.05,1.17-.16c.48-.07.85-.47.86-.96Z"/>
              <path class="cls-21" d="M50.94,347.89l.05-2.61.16,2.6c.03.52.46.94.98.95l2.18.07-2.17.22c-.5.05-.88.45-.91.95l-.09,1.66-.14-1.7c-.04-.51-.45-.91-.96-.93l-1.16-.05,1.2-.16c.49-.07.86-.48.87-.98Z"/>
              <path class="cls-21" d="M133.82,349.12l.05-2.61.16,2.6c.03.52.46.94.98.95l2.18.07-2.17.22c-.5.05-.88.45-.91.95l-.09,1.66-.14-1.7c-.04-.51-.45-.91-.96-.93l-1.16-.05,1.2-.16c.49-.07.86-.48.87-.98Z"/>
              <path class="cls-21" d="M149.76,341.03l.04-1.84.11,1.83c.02.37.32.66.69.67l1.53.05-1.53.15c-.35.03-.62.32-.64.67l-.06,1.17-.1-1.2c-.03-.36-.32-.64-.68-.65l-.82-.04.84-.11c.35-.05.61-.34.62-.69Z"/>
              <path class="cls-21" d="M29.97,355.9l.05-2.61.16,2.6c.03.52.46.94.98.95l2.18.07-2.17.22c-.5.05-.88.45-.91.95l-.09,1.66-.14-1.7c-.04-.51-.45-.91-.96-.93l-1.16-.05,1.2-.16c.49-.07.86-.48.87-.98Z"/>
            </g>
            <g>
              <g>
                <path class="cls-34" d="M115.17,302.09c3.87.19,7.65,1.81,11.48,5.16-19.2,9.5-41.97,11.52-62.54,5.56,15.88-5.24,32.26-11.67,51.06-10.72Z"/>
                <g>
                  <path class="cls-31" d="M118.29,330.33c5.29-1.56,11.62,1.49,15.17,8.47-9.77,4.95-20.54,7.42-31.63,7.09-1.27-3.81-1.13-8.13.15-11.54,5.28-1.23,10.59-2.32,16.31-4.02Z"/>
                  <path class="cls-81" d="M132.64,336.88c.99,1.33,1.58,2.96,1.67,4.94-10.21,4.43-21.43,6.53-32.67,6.02-.48-1.44-.81-2.92-.87-4.34,10.75-.59,21.43-2.54,31.86-6.61Z"/>
                  <path class="cls-81" d="M114.59,342.66c.04-5.34,3.58-10.48,8.46-12.58,2.82-.19,5.69,1.08,7.57,3.41-1.64.19-3.18,1.12-4.12,2.49-.93,1.36-1.25,3.14-.84,4.74-3.38.55-6.76,1.11-11.07,1.95Z"/>
                </g>
                <path class="cls-91" d="M115.36,291.05c2.02,9.72,6.11,27.88,8.68,38.07-6.2,3.38-16.26,6.87-23.26,7.79-2.07-7.98-7.44-27.5-9.51-35.49,7.61-2.77,15.23-5.53,24.09-10.36Z"/>
                <g>
                  <path class="cls-31" d="M65.29,331.89c-5.51-.38-11.01,3.98-12.97,11.55,10.61,2.72,21.66,2.79,32.41.06.42-3.99-.66-8.19-2.65-11.23-5.42-.06-10.85.02-16.8-.39Z"/>
                  <path class="cls-81" d="M52.7,341.4c-.67,1.52-.9,3.23-.55,5.18,10.93,2.11,22.34,1.73,33.19-1.21.16-1.51.16-3.03-.09-4.42-10.63,1.76-21.48,2.16-32.54.45Z"/>
                  <path class="cls-81" d="M71.57,343.12c-1.2-5.2-5.77-9.46-10.99-10.45-2.79.43-5.33,2.29-6.66,4.97,1.64-.17,3.35.4,4.57,1.53,1.21,1.13,1.9,2.79,1.84,4.45,3.43-.19,6.86-.39,11.24-.5Z"/>
                </g>
                <path class="cls-91" d="M87.09,292.63c-1.03,9.87-2.32,31.81-2.97,42.3-8.32-.15-16.63-1.15-24.76-2.97.45-8.24,1.17-28.55,1.63-36.79,8.1-.32,16.19-.64,26.1-2.54Z"/>
                <path class="cls-46" d="M126.64,307.25c-26.44-2.55-48.76,15.9-72.57,3.59,1.11-24.81,2.87-44.98,4.38-78.77,14.88-2.24,29.66-3.17,45.86-3.52,4.98,14.66,19.33,68.2,22.33,78.7Z"/>
                <g class="cls-54">
                  <g>
                    <path class="cls-45" d="M51.71,302.32c7.55,4.6,17.05,4.76,25.74,3.14s17.01-4.86,25.67-6.65c8.66-1.79,18.09-2.01,25.9,2.14"/>
                    <path class="cls-45" d="M127.01,291.06c-8.15-3.14-17.32-2.03-25.77.2-8.45,2.23-16.65,5.53-25.3,6.73-8.65,1.2-18.18-.01-24.71-5.81"/>
                  </g>
                </g>
              </g>
              <g>
                <g>
                  <path class="cls-31" d="M132.25,256.1c-.75-4.76-9.67-16.71-14.81-23.29-.27.26-.63.46-1.08.59-.87.24-1.64.55-2.4.93-1.63,1.4-3.45,2.54-5.29,3.65-.38.37-.75.73-1.12,1.11-.99,1.01-1.99,1.96-2.47,3.33-.19.55-.63.77-1.07.75.06.04.13.09.19.14,1.22,1.02,1.48,2.67,2.64,3.72,1.05.95,2.51,1.29,3.44,2.35.51.59.3,1.25-.17,1.63,2.77,2.71,5.18,5.14,5.22,6.03.11,2.14-5.58,2.76-5.58,2.76l-.65,12.66c22.38-1.97,24.21-9.64,23.15-16.36Z"/>
                  <path class="cls-53" d="M115.9,258.21c3.54-3.24,8.72-4.34,13.29-2.89.92.29,1.32-1.16.4-1.45-5.08-1.61-10.82-.31-14.75,3.28-.71.65.35,1.71,1.06,1.06h0Z"/>
                </g>
                <path class="cls-40" d="M123.64,236.35l-10.89-11.96s-14.56,17.87-14.98,17.91c-.42.04.03.45.03.45,0,0,6.71,5.75,15.71,14.38-.03.08-.08.15-.14.22l-.08,1.26,8.34,13.19s28.36-10.36,2.02-35.45Z"/>
              </g>
              <path class="cls-42" d="M113.58,255.86s5.48-2.78,8.49-.1"/>
              <path class="cls-39" d="M115.29,254.56s2.47-2.9,4.83-2.09"/>
              <path class="cls-46" d="M120.35,287.76c-5.04-17.16-13.65-55.37-17.17-65.05-14.88.3-28.45,1.1-42.11,3.02-1.07,22.29-2.27,46.44-3.23,62.03h62.51Z"/>
              <path class="cls-6" d="M68.46,233.97c-3.11,4.94-5.62,9.59-7.23,13.52-.34.83-.63,1.59-.87,2.29,1.65-.98,3.7-2.47,6.2-4.56l8.14,9.71c-6.75,5.63-12.09,8.33-15.99,8.91-1.76.26-3.4.15-4.9-.29-1.85-.55-3.36-1.55-4.53-2.96-1.21-1.45-1.95-3.2-2.24-5.18-.51-3.43.42-7.82,2.44-12.76,1.84-4.49,4.7-9.79,8.23-15.41l10.74,6.74Z"/>
              <g>
                <g>
                  <path class="cls-80" d="M61.7,232.93c6.34,12.18,16.19,22.51,28.24,29.82,9.96-7.88,16.95-19.44,19.29-31.92-15.7,2.57-31.76,3.01-47.53,2.1Z"/>
                  <g>
                    <path class="cls-91" d="M90.12,261.6c-8-4.29-25.33-20.33-34.2-33.16,1.7-2.99,3.63-6.51,5.82-11.1,13.67.55,27.39-.35,41.15-2.67,3.47,2.36,6.95,5.69,10.33,8.96-3.57,12.8-12.92,29.31-23.1,37.96Z"/>
                    <g class="cls-92">
                      <path class="cls-44" d="M57.31,223.21c9.43,11.85,19.41,23.6,32.31,32.52,9.07-10.79,17.03-24.18,21.94-37.76"/>
                    </g>
                  </g>
                </g>
                <g>
                  <path class="cls-85" d="M115.97,192.82c0,1-.04,1.99-.13,2.96-1.46,16.91-15.32,30.17-32.2,30.17-17.86,0-32.33-14.83-32.33-33.13,0-11.89,6.11-22.31,15.28-28.16,4.95-3.15,10.79-4.97,17.05-4.97,17.86,0,32.33,14.83,32.33,33.13Z"/>
                  <path class="cls-86" d="M66.16,219.16c-4.74-3.76-7.37-9.68-8.35-15.64-.98-5.97-.47-12.07.41-18.27-3.54,10.39-2.6,23.26,3.21,32.86,5.82,9.6,15.45,14.19,26,16.01,10.24-2.91,19.16-10.17,24.13-19.54-11.9-6.8-24.19-12.89-36.38-18.5-1.74,7.82-4.88,15.32-9.02,23.08Z"/>
                  <path class="cls-31" d="M113.02,210.73c0,8.41-11.9,15.22-26.57,15.22-12.27,0-22.59-4.76-25.65-11.23v-.02c0-2.45.31-5.2.9-8.1,1.55-7.69,5.05-16.42,9.79-23.29,4.47-6.46,10.03-11.27,16.12-12.03,6.33.9,11.73,4.56,15.84,9.83,4.07,5.2,6.89,11.95,8.14,19.16.22,1.26.39,2.55.51,3.83h0c-.02,1.41.19,2.83.58,4.19.23.8.34,1.61.34,2.45Z"/>
                  <path class="cls-24" d="M111.6,200.26c-1.91-5.34-4.24-10.57-7.84-14.93-4.05-4.9-9.95-8.6-16.31-8.68-12.44,5.78-21.81,17.02-25.75,29.95,1.55-7.69,5.05-16.42,9.79-23.29,4.47-6.46,10.03-11.27,16.12-12.03,6.33.9,11.73,4.56,15.84,9.83,4.06,5.19,6.89,11.95,8.14,19.15Z"/>
                  <path class="cls-32" d="M103.45,181.1c-10.35-3.6-22.2-2.78-31.96,2.2,4.47-6.46,10.03-11.27,16.12-12.03,6.33.9,11.72,4.56,15.84,9.83Z"/>
                  <path class="cls-91" d="M115.97,192.82c0,1-.04,1.99-.13,2.96-1.88-10.84-8.35-20.93-17.67-26.84-9.6-6.1-21.92-7.57-32.79-4.27,5.07-3.15,11.06-4.97,17.47-4.97,18.29,0,33.12,14.83,33.12,33.12Z"/>
                  <g class="cls-78">
                    <path class="cls-88" d="M100.34,205.95c2.86-.39,5.4.96,5.69,3.02.28,2.06-1.8,4.05-4.66,4.44-2.86.39-5.4-.96-5.69-3.02-.28-2.06,1.8-4.05,4.66-4.44Z"/>
                    <ellipse class="cls-88" cx="75.24" cy="211.25" rx="5.22" ry="3.76"/>
                  </g>
                  <path class="cls-81" d="M70.8,197.85c0-.94.54-1.86,1.26-2.51.73-.65,1.65-1.07,2.6-1.25.96-.18,1.96-.11,2.87.23.9.34,1.72.95,2.15,1.78-.89-.27-1.68-.42-2.45-.46-.77-.05-1.52.01-2.26.14-.74.14-1.46.35-2.16.67-.69.32-1.36.73-2.01,1.4Z"/>
                  <path class="cls-81" d="M102.2,195.01c-.76-.54-1.49-.83-2.22-1.03-.74-.19-1.49-.29-2.24-.3-.75,0-1.5.07-2.25.24s-1.5.45-2.34.88c.29-.89.98-1.64,1.82-2.12.84-.49,1.82-.73,2.79-.71.97.01,1.94.27,2.78.79.82.51,1.51,1.33,1.66,2.26Z"/>
                  <path class="cls-81" d="M81.43,206.83c.3-1.78-.56-3.41-1.93-3.64s-2.71,1.03-3.01,2.82c-.3,1.78.56,3.41,1.93,3.64,1.36.23,2.71-1.03,3.01-2.82Z"/>
                  <path class="cls-81" d="M95.86,203.77c.3-1.78,1.64-3.05,3.01-2.82,1.36.23,2.22,1.86,1.93,3.64-.3,1.78-1.64,3.05-3.01,2.82-1.36-.23-2.22-1.86-1.93-3.64Z"/>
                </g>
                <path class="cls-2" d="M82.88,217.14c-.14-.21-.46-.29-.72-.18-.26.11-.36.38-.22.59,2.97,4.6,14.53,2.85,15.42-.59l.03-.12c.05-.24-.14-.47-.43-.51-.29-.04-.57.11-.62.35l-.02.1c-.24.94-1.37,1.63-2.48,2.09-3.43,1.4-9.43.61-10.96-1.73Z"/>
              </g>
              <line class="cls-41" x1="111.16" y1="252.32" x2="108.24" y2="237.93"/>
              <path class="cls-4" d="M57.84,263.94s5.33-.93,9.02-3.36"/>
              <path class="cls-5" d="M63.79,246s-6.6,1.98-9.13,6.81"/>
              <path class="cls-4" d="M62.11,246.06s-3.79.07-5.76,1.09"/>
              <path class="cls-3" d="M77.14,253.03c.45-.34.91-.66,1.36-.98.14-.19.29-.36.44-.54l-10.92-9.47c-.37.33-.75.64-1.14.91-.14.1-.27.2-.41.3-.56.57-1.1,1.15-1.65,1.72-.04.04-.09.09-.13.13l10.35,9.72c.62-.6,1.3-1.18,2.09-1.79Z"/>
              <path class="cls-49" d="M89.02,208.7c.63.53.97,1.37.91,2.19-.07.82-.55,1.59-1.25,2.02"/>
              <path class="cls-22" d="M67.43,228.04l72.82,92.32,3.13-.99-73.85-92.99c-.42-.53-1.18-.66-1.75-.3h0c-.67.42-.83,1.33-.34,1.96Z"/>
              <g>
                <path class="cls-65" d="M150.52,346.03c22.31.99,28.13-9.66,28.13-9.66-8.67-1.28-29.28-20.45-36.09-18.61-8.95,2.42,7.96,28.28,7.96,28.28Z"/>
                <path class="cls-71" d="M156.17,341.52c-10.38-6.68-16.19-16.62-14.24-23.53-7.47,3.49,8.59,28.04,8.59,28.04,5.04.22,9.24-.15,12.72-.86-2.36-.94-4.74-2.16-7.07-3.66Z"/>
                <g>
                  <path class="cls-71" d="M167.58,344.01c.58-.2,1.14-.4,1.67-.61-10.08-3.71-18.02-11.1-18.02-11.1,0,0,5.51,6.28,16.35,11.72Z"/>
                  <path class="cls-71" d="M171.78,342.23c.51-.27.98-.54,1.43-.81-4.46-1.76-7.41-3.48-7.41-3.48,0,0,2.16,1.93,5.98,4.29Z"/>
                  <path class="cls-71" d="M176.03,339.35c.83-.72,1.43-1.38,1.85-1.89-7.47-1.29-13.87-5.32-13.87-5.32,0,0,4.16,4.16,12.02,7.21Z"/>
                </g>
                <path class="cls-73" d="M144.89,318.47c7.42,2.79,17.52,11.65,17.52,11.65l-17.52-11.65Z"/>
                <path class="cls-73" d="M144.96,323.04c4.02,5.71,9.13,8.01,9.13,8.01l-9.13-8.01Z"/>
                <path class="cls-71" d="M163.62,335.62c-6.44-2.7-9.42-6.92-9.42-6.92l9.42,6.92Z"/>
                <path class="cls-65" d="M147.25,330.12l-3.32-2.37c3.32,9.28,12.5,17.05,12.5,17.05,0,0-7.39-8.24-9.19-14.68Z"/>
              </g>
              <g>
                <path class="cls-79" d="M199.35,315.66c-.07-.54-.35-1.05-.63-1.51-.32-.52-.75-1.15-1.27-1.5-.84-.56-2.03-.68-3.01-.66-.18,0-.46.06-.64,0-.16-.05-.09-.02-.15-.13-.02-.03-.03-.16-.04-.2-.05-.12-.13-.26-.18-.38-.15-.36-.32-.6-.16-.99.24-.59.48-1.16.37-1.82-.08-.47-.3-.93-.46-1.37-.16-.44-.3-.88-.46-1.32-.42-1.16-1.52-1.89-2.63-2.34-.82-.33-1.71-.43-2.6-.36-1.07.09-2.29.1-3.36.43-.97.3-1.87.89-2.67,1.45-.41.29-.81.6-1.19.94-.79.71-1.41,1.44-1.67,2.44-.05.43-.1.87-.15,1.3-.06.53,0,1.03.18,1.52.13.45.32.83.63,1.18.22.26.48.46.71.7-.04.13-.14.23-.19.35-.07.17-.04.34-.07.51-.06.42-.48.41-.69.79-.38.68-.26,2.14.6,2.47.19.07.39.1.54.26-.18.24-.97.02-1.26.08-.52.11-.78.86-.93,1.24-.24.61-.43,1.23-.54,1.88-.17.94-.23,1.85.37,2.65.64.85,1.52,1.44,2.54,1.72.79.22,1.59.29,2.41.28.28,0,.7-.09.96,0-.02.68.11,1.33-.26,1.94-.19.31-.47.55-.51.93,0,.09.06.34-.01.41-.07.07-.31.01-.4.01-.31,0-.53.06-.82.1-.17.03-.41-.02-.58-.02-.52.01-.92.22-1.32.53-.6.46-.99,1.31-1.13,2.04-.12.62.04,1.03.5,1.47.28.27.99.58,1.1,1.01.02.09-.02.18,0,.27.03.12.1.17.17.27.26.36.43.78.44,1.23.01.47-.12,1.17-.43,1.54-.22.26-.75.63-1.1.67.28-.05.52.01.81-.11.39-.16.75-.41,1.01-.75.18-.24.22-.52.39-.77.27-.39.33-.52.34-1.02,0-.24.02-.42-.2-.57-.35-.23-.63-.17-.47.65-.66-1.24-.62-3.16.43-4.19.41-.41.92-.66,1.46-.34.38.23.57.71.97.89.99.44,2.15-.65,2.54-1.44.2-.35.27-.71.18-1.1-.1-.17-.21-.34-.31-.5-.3-.43-.79-.73-1.07-1.17.22.06.43.19.67.24.6.13,1.41.12,1.92-.22.58-.37,1-1.05.98-1.76,0-.27-.03-.72-.28-.89.16.04.31.11.47.15.42.08.46-.32.47-.64.02-.39.03-.79-.02-1.18-.03-.28-.25-.67-.19-.93.49.09.94.39,1.45.5,1.14.23,2.62.21,3.68-.28.68-.32,1.24-.8,1.8-1.29.58-.52,1.14-1.05,1.67-1.62.89-.96,1.46-2.34,1.27-3.68Z"/>
                <path class="cls-9" d="M190.93,322.53c.35.07.72.11,1.11.13-.71-.44-1.28-1.02-1.64-1.74-1.33-2.67.51-6.36,4.17-8.93-.04,0-.09,0-.13,0-.18,0-.46.06-.64,0-.16-.05-.09-.02-.15-.13-.02-.03-.03-.16-.04-.2-.05-.13-.13-.26-.18-.38-.15-.36-.32-.6-.16-.99.24-.59.48-1.16.37-1.82-.08-.47-.3-.93-.46-1.37-.16-.44-.3-.88-.46-1.32-.03-.07-.06-.13-.09-.2-.18,4.1-2.72,7.85-6.75,9.3-2.32.84-4.74.77-6.91-.01-.28.73-.13,1.99.67,2.3.19.07.39.1.54.26-.17.22-.88.05-1.2.08,2.53.08,4.54,1.57,4.54,3.4s-2.06,3.35-4.62,3.41c.44.31.93.54,1.46.68.79.22,1.59.29,2.41.28.28,0,.7-.09.96,0-.02.68.11,1.33-.26,1.94-.19.31-.47.55-.51.93,0,.09.06.34-.01.41-.07.07-.31.01-.4.01-.31,0-.53.06-.82.1-.17.03-.41-.02-.58-.02-.52.01-.92.22-1.32.53-.6.46-.99,1.31-1.13,2.04-.12.62.04,1.03.5,1.47.28.27.99.58,1.1,1.01.02.09-.02.18,0,.27.03.12.1.17.17.27.26.36.43.78.44,1.23.01.47-.12,1.17-.43,1.54-.22.26-.75.63-1.1.67.28-.05.52.01.81-.11.39-.16.75-.41,1.01-.75.18-.24.22-.52.39-.77.27-.39.33-.52.34-1.02,0-.24.02-.42-.2-.57-.35-.23-.63-.17-.47.65-.66-1.24-.62-3.16.43-4.19.41-.41.92-.66,1.46-.34.38.23.57.71.97.89.99.44,2.15-.65,2.54-1.44.2-.35.27-.71.18-1.1-.1-.17-.21-.34-.31-.5-.3-.43-.79-.73-1.07-1.17.22.06.43.19.67.24.6.13,1.41.12,1.92-.22.58-.37,1-1.05.98-1.76,0-.27-.03-.72-.28-.89.16.04.31.11.47.15.42.08.46-.32.47-.64.02-.39.03-.79-.02-1.18-.03-.28-.25-.67-.19-.93.49.09.94.39,1.45.5Z"/>
                <path class="cls-79" d="M187.03,321.76c-3.28.55-3.19-3.44-1.33-5.3.95-.95,2.84-1.33,3.32.28.47,1.61-.66,2.65-.66,2.65,0,0,.95,1.99-1.33,2.37Z"/>
              </g>
              <g>
                <g>
                  <path class="cls-31" d="M108.27,264.49c-1.3-1.71-3.62-3.82-5.74-4.2-.42-.07-.87-.1-1.27.06-.4.16-.73.53-.73.96,0,.46.35.83.67,1.15.7.68,1.4,1.37,1.98,2.13-2.4.44-4.79.93-7.16,1.46-.46.1-.99.26-1.2.68-.17.34-.08.76.15,1.07.22.31.56.51.9.67,1.25.6,2.71.77,3.98.58-1.23.26-2.46.52-3.66.91-.38.13-.8.3-.97.67-.13.28-.07.61.08.88s.39.47.65.64c.79.52,1.74.75,2.69.81.94.06,1.57.03,2.75-.25-1.19.37-2.02.5-3.12.75-.34.08-.74.16-.91.47-.17.3-.11.83.12,1.09s.61.44.93.57c1.41.54,2.94.49,4.43.24-1.17-.23-2.34-.47-3.51-.7.16,1.4,1.44,2.49,2.82,2.78,1.38.29,2.82-.08,4.1-.65,2.12-.94,3.98-2.45,5.46-4.35-1.35-2.98-1.45-5.83-3.43-8.43Z"/>
                  <path class="cls-31" d="M99.84,275.85c1.03.17,2.1.12,3.11-.16"/>
                </g>
                <path class="cls-31" d="M119.1,266.71c-.36-1.67-.85-3.31-1.48-4.91-.54-1.07-1.14-2.11-1.8-3.13-.02-.04-.04-.07-.07-.11-4.39,2.99-9.02,5.66-13.83,8,.96,2.8,1.91,5.52,2.85,8.24,5.25-.79,10.36-2.44,15.03-4.84-.46-1.02-.7-2.1-.71-3.24Z"/>
              </g>
              <polygon class="cls-19" points="110.5 259.01 114.75 256.52 124.55 272.52 116.78 273.25 110.5 259.01"/>
              <path class="cls-43" d="M95.66,266.15s3-.7,5.27-1.13"/>
              <path class="cls-31" d="M71.34,245.25c-1.2-1.75-2.06-3.8-2.13-5.92-.07-2.12.74-4.33,2.39-5.67,1.65-1.34,4.17-1.63,5.94-.45.19.13.38.29.41.51.05.3-.21.56-.45.75-1.33,1.1-2.66,2.2-3.99,3.31,1.59-1.36,3.75-2.05,5.83-1.85.46.04.88.33,1.02.76.2.62-.3,1.06-.75,1.39-1.14.86-2.28,1.71-3.42,2.57,1.35-1,3.01-1.57,4.68-1.61.3,0,.6.1.8.32.54.58.01,1.36-.5,1.87-.98.98-2.01,1.91-3.08,2.79.87-.87,1.64-1.19,2.7-1.6,1.06-.41,2.81-.58,2.87.53.08,1.4-2.19,2.12-2.45,3.52.23.68.31,1.43.24,2.15-.18,1.8-3.13,3.58-4.76,2.78-.53-.26-4.16-4.41-5.36-6.17Z"/>
            </g>
          </g>
        </g>
      </g>
      <g class="cls-69">
        <g class="cls-18">
          <g>
            <path class="cls-63" d="M616.96,207.73v-.26h-6.22v-8.88h-33.15v8.88h-6.22v31.08h-32.56v-46.47h-3.55v-6.51h-3.55v-57.43h-25.45v57.43h-5.33v6.51h-4.6v35.52h-6.06v-21.31h-6.51v-14.21h-26.64v14.21h-7.1v-46.77h-2.96v-8.88h-6.05v-18.95l-36.53-16.58v35.52h-5.24v8.88h-5.98v20.72h-34.65v18.35h-19.82v50.32h-8.36v-17.76h-13.09v-66.31l-27.76-28.42h-11.25v91.17h-26.05v8.88h-23.09v-29.01h-6.77c-3.33,9.17-7.36,18.68-12.23,28.57-8.93,18.13-12.88,34.36-12.92,48.99h335.07c13.19-22.47,53.73-39.23,84.62-77.3Z"/>
            <path class="cls-55" d="M356.73,417.35c8.34-3.73,16.8-7.33,25.43-10.06,8.1-2.56,17.13-3.06,25.31-4.16,7.45-1,16.24-3,24.22-2.63,13.5.62,26.97,3.17,40.26,5.23,4.82.75,9.57,1.84,14.25,3.25,13.44,4.05,26.61,9.98,39.34,15.75,18.35-37.84,20.5-72.03,5.14-111.39-6.79-17.41-.07-29.66,13.14-41.88H198.38c-12.92,81.33,89.02,116.63,158.35,145.88Z"/>
            <path class="cls-62" d="M255.72,369.88c91.26-7.45,216.48-19.34,282.17-32.91-1.69-7.71-4.07-15.55-7.22-23.62-1.66-4.25-2.5-8.19-2.65-11.9-87.83-12.84-258.49-17.39-330.7-18.78-1.2,38.36,24.32,65.79,58.4,87.21Z"/>
            <g>
              <path class="cls-76" d="M337.12,227.5c-.81-6.73-3.26-16.85-10.64-22h-96.6c-7.38,5.15-9.83,15.27-10.64,22h117.87Z"/>
              <path class="cls-23" d="M329.33,207.97c-.86-.91-1.8-1.74-2.85-2.48h-96.6c-1.05.73-1.99,1.57-2.85,2.48h102.3Z"/>
              <path class="cls-96" d="M220.65,220.25c-.71,2.58-1.14,5.09-1.4,7.25h117.87c-.26-2.16-.69-4.67-1.39-7.25h-115.08Z"/>
              <path class="cls-64" d="M219.74,224.24c-.21,1.14-.37,2.24-.49,3.25h117.87c-.12-1.02-.28-2.11-.49-3.25h-116.88Z"/>
              <rect class="cls-103" x="219.91" y="230.95" width="116.86" height="44.38"/>
              <rect class="cls-51" x="219.91" y="230.95" width="116.86" height="5.42"/>
              <rect class="cls-1" x="218.87" y="229.57" width="118.64" height="3.81"/>
              <rect class="cls-94" x="218.87" y="229.57" width="118.64" height="1.78"/>
              <rect class="cls-35" x="217.68" y="226.55" width="121.01" height="3.82"/>
              <g>
                <g>
                  <rect class="cls-51" x="222" y="252.2" width="8.61" height="1.02"/>
                  <g>
                    <g>
                      <path class="cls-35" d="M229.96,240.7c0-2.02-1.64-3.66-3.66-3.66s-3.66,1.64-3.66,3.66v9.92h7.32v-9.92Z"/>
                      <path class="cls-98" d="M229.35,241.05c0-1.68-1.36-3.05-3.05-3.05s-3.05,1.36-3.05,3.05v8.68h6.1v-8.68Z"/>
                      <path class="cls-11" d="M226.3,238c-1.68,0-3.05,1.36-3.05,3.05v.8c0-1.68,1.36-3.05,3.05-3.05s3.05,1.36,3.05,3.05v-.8c0-1.68-1.36-3.05-3.05-3.05Z"/>
                      <path class="cls-37" d="M223.25,244.84l5.54-5.54c-.26-.36-.59-.66-.97-.88l-4.57,4.57v1.85Z"/>
                      <path class="cls-37" d="M229.35,241.05c0-.29-.04-.57-.12-.83l-5.98,5.98v3.53h.57l5.53-5.53v-3.15Z"/>
                      <rect class="cls-35" x="226.01" y="237.67" width=".58" height="12.44"/>
                      <rect class="cls-35" x="222.95" y="244.41" width="6.73" height=".75"/>
                    </g>
                    <rect class="cls-68" x="221.59" y="250.62" width="9.43" height="1.88"/>
                    <rect class="cls-25" x="221.59" y="251.56" width="9.43" height=".94"/>
                  </g>
                </g>
                <g>
                  <rect class="cls-51" x="222" y="270.53" width="8.61" height="1.02"/>
                  <g>
                    <g>
                      <path class="cls-35" d="M229.96,259.03c0-2.02-1.64-3.66-3.66-3.66s-3.66,1.64-3.66,3.66v9.92h7.32v-9.92Z"/>
                      <path class="cls-98" d="M229.35,259.38c0-1.68-1.36-3.05-3.05-3.05s-3.05,1.37-3.05,3.05v8.68h6.1v-8.68Z"/>
                      <path class="cls-11" d="M226.3,256.33c-1.68,0-3.05,1.37-3.05,3.05v.8c0-1.68,1.36-3.05,3.05-3.05s3.05,1.36,3.05,3.05v-.8c0-1.68-1.36-3.05-3.05-3.05Z"/>
                      <path class="cls-37" d="M223.25,263.17l5.54-5.54c-.26-.36-.59-.66-.97-.88l-4.57,4.57v1.85Z"/>
                      <path class="cls-37" d="M229.35,259.38c0-.29-.04-.57-.12-.83l-5.98,5.98v3.53h.57l5.53-5.53v-3.15Z"/>
                      <rect class="cls-35" x="226.01" y="256.01" width=".58" height="12.44"/>
                      <rect class="cls-35" x="222.95" y="262.74" width="6.73" height=".75"/>
                    </g>
                    <rect class="cls-68" x="221.59" y="268.95" width="9.43" height="1.88"/>
                    <rect class="cls-25" x="221.59" y="269.89" width="9.43" height=".94"/>
                  </g>
                </g>
              </g>
            </g>
          </g>
        </g>
      </g>
    </g>
  </g>
</svg>