<svg xmlns="http://www.w3.org/2000/svg" xmlns:xlink="http://www.w3.org/1999/xlink" xmlns:inkscape="http://www.inkscape.org/namespaces/inkscape" version="1.1" width="167.6553" height="49.3221" viewBox="0 0 167.6553 49.3221">
<g inkscape:groupmode="layer" inkscape:label="Layer 1">
<path transform="matrix(1,0,0,-1,1,48.3221)" d="M42.0253 32.2713V45.5374H46.6662V47.0687H35.5535V45.5374H40.1941V32.2713ZM61.5472 32.2713V47.0687H59.7572V40.6247H51.6827V47.0687H49.8932V32.2713H51.6827V39.0336H59.7572V32.2713ZM75.4078 32.2713V33.8227H67.3543V39.0336H74.5129V40.6049H67.3543V45.5374H75.3454V47.0687H65.6059V32.2713Z" fill="#ffffff"/>
<path transform="matrix(1,0,0,-1,1,48.3221)" d="M93.9603 42.4743V42.6733C93.9603 44.238 93.4404 45.4014 92.3998 46.1639 91.3589 46.9261 89.8886 47.3074 87.9877 47.3074 86.1565 47.3074 84.7032 46.8998 83.6277 46.0843 82.5528 45.2687 82.0154 44.1584 82.0154 42.753 82.0154 41.9306 82.1744 41.2379 82.4936 40.6743 82.8128 40.1108 83.2292 39.6933 83.7425 39.4214 84.2559 39.1496 84.8211 38.9341 85.4388 38.7751 86.0556 38.6158 86.6733 38.4934 87.2906 38.4072 87.9083 38.321 88.4733 38.2215 88.9866 38.1087 89.5 37.9962 89.9161 37.817 90.2353 37.5718 90.5545 37.3263 90.714 36.9916 90.714 36.5672 90.714 36.0238 90.4782 35.5927 90.0065 35.2746 89.5348 34.9563 88.8619 34.7973 87.9877 34.7973 86.1012 34.7973 85.1573 35.5198 85.1573 36.9652H81.807V36.786C81.807 35.2346 82.3445 34.0713 83.4199 33.2955 84.4948 32.5199 85.9969 32.1321 87.9253 32.1321 89.8123 32.1321 91.3071 32.5431 92.4097 33.3652 93.5133 34.1872 94.0643 35.3078 94.0643 36.7265 94.0643 37.4426 93.9399 38.0591 93.6899 38.5761 93.4404 39.0932 93.1107 39.4877 92.7014 39.7596 92.2918 40.0314 91.8275 40.2602 91.3071 40.4456 90.7869 40.6312 90.2563 40.7605 89.7154 40.8336 89.174 40.9065 88.6433 40.9927 88.1232 41.0922 87.6027 41.1917 87.1381 41.2943 86.7285 41.4003 86.3195 41.5066 85.9898 41.682 85.7404 41.9275 85.4904 42.1727 85.3656 42.4811 85.3656 42.8522 85.3656 43.4092 85.5879 43.8435 86.0315 44.155 86.4757 44.4665 87.1138 44.6224 87.946 44.6224 89.7219 44.6224 90.6097 43.9064 90.6097 42.4743ZM100.0794 32.2713V37.6812H103.3673C104.7685 37.6812 105.9724 38.1053 106.9781 38.954 107.9838 39.8027 108.487 40.9561 108.487 42.4148 108.487 43.8866 108.0255 45.03 107.1026 45.8456 106.1802 46.6611 104.9837 47.0687 103.513 47.0687H96.7912V32.2713ZM100.0794 40.3662V44.3837H103.2007C103.839 44.3837 104.3385 44.2114 104.6993 43.8667 105.0599 43.522 105.2402 43.0379 105.2402 42.4148 105.2402 41.7784 105.0494 41.2744 104.6682 40.9031 104.2866 40.532 103.7699 40.3529 103.1179 40.3662ZM121.4938 32.2713V35.0558H114.1894V38.3771H120.6822V41.1219H114.1894V44.3041H121.4521V47.0687H110.901V32.2713ZM134.8756 32.2713V35.0558H127.571V38.3771H134.0637V41.1219H127.571V44.3041H134.8339V47.0687H124.2831V32.2713ZM150.4426 37.8204H147.0917C147.0917 35.805 146.065 34.7973 144.0116 34.7973 143.041 34.7973 142.2604 35.0722 141.6711 35.6227 141.0809 36.1729 140.7864 37.0647 140.7864 38.2978V40.9629C140.7864 42.196 141.0809 43.0877 141.6711 43.638 142.2604 44.1882 143.041 44.4634 144.0116 44.4634 146.065 44.4634 147.0917 43.4557 147.0917 41.4403H150.4426V41.6988C150.4426 43.4755 149.87 44.8413 148.7254 45.796 147.5807 46.7507 146.0095 47.228 144.0116 47.228 142.056 47.228 140.4743 46.724 139.2673 45.7163 138.06 44.7086 137.4568 43.2037 137.4568 41.2016V38.0392C137.4568 36.0502 138.0634 34.5552 139.2775 33.5543 140.4913 32.5531 142.0696 32.0525 144.0116 32.0525 146.0095 32.0525 147.5807 32.5264 148.7254 33.4746 149.87 34.4225 150.4426 35.7851 150.4426 37.5619ZM165.6553 32.2713V47.0687H162.2633V41.2214H156.6028V47.0687H153.2109V32.2713H156.6028V38.3973H162.2633V32.2713Z" fill="#da159b"/>
<path transform="matrix(1,0,0,-1,1,48.3221)" d="M47.6895 19.3779H44.5864C44.5864 17.5113 43.6354 16.5779 41.7342 16.5779 40.8339 16.5779 40.1114 16.833 39.5654 17.3426 39.0195 17.852 38.7462 18.678 38.7462 19.8201V22.2888C38.7462 23.4309 39.0195 24.2569 39.5654 24.7666 40.1114 25.276 40.8339 25.5308 41.7342 25.5308 43.6354 25.5308 44.5864 24.5974 44.5864 22.7307H47.6895V22.9703C47.6895 24.6158 47.1597 25.8806 46.0998 26.7653 45.0397 27.6494 43.5844 28.0916 41.7342 28.0916 39.922 28.0916 38.4568 27.6248 37.3391 26.6913 36.2211 25.7581 35.6624 24.3643 35.6624 22.5099V19.5806C35.6624 17.7384 36.2239 16.3539 37.3493 15.4267 38.4732 14.4995 39.9348 14.0357 41.7342 14.0357 43.5844 14.0357 45.0397 14.4748 46.0998 15.3533 47.1597 16.2312 47.6895 17.4932 47.6895 19.1387ZM59.6985 14.2384V16.8174H53.3764V27.9439H50.254V14.2384ZM65.154 14.2384V27.9439H61.9931V14.2384ZM79.9963 14.2384V27.9439H77.1245V18.1437L72.248 27.9439H68.0074V14.2384H70.8795V24.0386L75.8137 14.2384ZM86.0111 14.2384V27.9439H82.8499V14.2384ZM100.6988 19.3779H97.5957C97.5957 17.5113 96.6447 16.5779 94.7429 16.5779 93.8432 16.5779 93.1201 16.833 92.5741 17.3426 92.0282 17.852 91.7555 18.678 91.7555 19.8201V22.2888C91.7555 23.4309 92.0282 24.2569 92.5741 24.7666 93.1201 25.276 93.8432 25.5308 94.7429 25.5308 96.6447 25.5308 97.5957 24.5974 97.5957 22.7307H100.6988V22.9703C100.6988 24.6158 100.1684 25.8806 99.1086 26.7653 98.0484 27.6494 96.5931 28.0916 94.7429 28.0916 92.9313 28.0916 91.4661 27.6248 90.3481 26.6913 89.2304 25.7581 88.6711 24.3643 88.6711 22.5099V19.5806C88.6711 17.7384 89.2332 16.3539 90.358 15.4267 91.4822 14.4995 92.9441 14.0357 94.7429 14.0357 96.5931 14.0357 98.0484 14.4748 99.1086 15.3533 100.1684 16.2312 100.6988 17.4932 100.6988 19.1387Z" fill="#54169c"/>
<path transform="matrix(1,0,0,-1,1,48.3221)" d="M116.1867 20.0784C116.1867 17.1303 114.696 15.6569 111.7145 15.6569H108.7852V26.5626H111.7145C112.3444 26.5626 112.9099 26.492 113.4108 26.3506 113.9122 26.2094 114.3811 25.9758 114.8182 25.6507 115.2553 25.3253 115.5926 24.8644 115.8299 24.2691 116.0674 23.6735 116.1867 22.9518 116.1867 22.1046ZM111.6955 14.2384C112.5437 14.2384 113.3243 14.3459 114.0378 14.561 114.7504 14.7759 115.3998 15.1075 115.9846 15.5554 116.5689 16.0038 117.0249 16.6147 117.3532 17.3886 117.6803 18.1624 117.8447 19.065 117.8447 20.0968V22.0861C117.8447 23.1177 117.6837 24.0202 117.3626 24.7938 117.0417 25.5677 116.5949 26.1785 116.0226 26.627 115.4509 27.0754 114.8051 27.4071 114.0857 27.6219 113.3663 27.8365 112.5825 27.9439 111.7341 27.9439H107.1468V14.2384ZM130.5865 19.1387C130.5865 17.9473 130.2622 17.0325 129.613 16.3936 128.9642 15.7552 128.0038 15.4361 126.7319 15.4361 125.4849 15.4361 124.5314 15.7581 123.8692 16.403 123.2073 17.0476 122.8768 17.9597 122.8768 19.1387V27.9439H121.2188V19.1387C121.2188 17.5544 121.7137 16.2984 122.7027 15.3711 123.692 14.4439 125.0351 13.9805 126.7319 13.9805 128.4403 13.9805 129.7868 14.4439 130.7699 15.3711 131.7523 16.2984 132.2439 17.5544 132.2439 19.1387V27.9439H130.5865ZM137.5268 15.6203V20.5571H141.8831C142.6674 20.5571 143.316 20.336 143.8299 19.8941 144.3436 19.4519 144.6007 18.8314 144.6007 18.0334 144.6007 17.2474 144.3603 16.6487 143.8781 16.2374 143.3965 15.8258 142.7763 15.6203 142.018 15.6203ZM137.5268 21.9387V26.5995H141.5171C142.314 26.5995 142.9495 26.4155 143.4254 26.047 143.9008 25.6785 144.138 25.1198 144.138 24.3706 144.138 23.5967 143.8909 22.9978 143.3965 22.5743 142.9016 22.1505 142.2624 21.9387 141.4783 21.9387ZM142.1915 14.2384C143.3098 14.2384 144.267 14.5732 145.0638 15.2425 145.8601 15.912 146.2584 16.8483 146.2584 18.0519 146.2584 18.5553 146.1753 19.0157 146.0081 19.4332 145.8411 19.851 145.6549 20.1736 145.4494 20.4004 145.2438 20.6277 145.0057 20.8304 144.7359 21.0084 144.4663 21.1864 144.2798 21.2939 144.1769 21.3307 144.0743 21.3678 143.9904 21.3985 143.926 21.4228L144.1188 21.515C144.2475 21.5765 144.402 21.687 144.582 21.8466 144.7614 22.0062 144.9414 22.1936 145.1211 22.4087 145.3011 22.623 145.4556 22.9088 145.584 23.2648 145.7121 23.6214 145.7768 24.0021 145.7768 24.4071 145.7768 25.5861 145.4006 26.4702 144.6491 27.0598 143.8977 27.6494 142.943 27.9439 141.7864 27.9439H135.9082V14.2384ZM157.5746 18.6412H151.8301L154.7025 26.1573ZM161.0439 14.2384 155.6467 27.9439H153.8351L148.3801 14.2384H150.1537L151.3485 17.2783H158.0562L159.2317 14.2384ZM165.401 14.2384V27.9439H163.7436V14.2384Z" fill="#ffffff"/>
<path transform="matrix(1,0,0,-1,1,48.3221)" d="M17.7931 33.5837C17.7123 33.0364 17.2035 32.6582 16.6561 32.739 16.109 32.8195 15.7309 33.3283 15.8114 33.8757 15.8922 34.4228 16.401 34.8012 16.9483 34.7204 17.4954 34.6397 17.8736 34.1308 17.7931 33.5837" fill="#e6d000"/>
<path transform="matrix(1,0,0,-1,1,48.3221)" d="M13.4323 35.888C12.7735 35.888 12.2372 36.4243 12.2372 37.0831 12.2372 37.7422 12.7735 38.2782 13.4323 38.2782 14.0913 38.2782 14.6273 37.7422 14.6273 37.0831 14.6273 36.4243 14.0913 35.888 13.4323 35.888" fill="#ff6700"/>
<path transform="matrix(1,0,0,-1,1,48.3221)" d="M13.4323 35.4557C13.6134 35.445 14.334 35.4229 14.9496 35.9396 15.4029 36.3203 15.571 36.8019 15.6314 37.0361 15.8238 37.781 15.5285 38.3394 15.6243 38.3749 15.7414 38.418 16.4027 37.6631 16.3774 36.7792 16.3488 35.7749 15.5614 35.2236 14.9071 34.3945 14.2846 33.6059 13.6142 32.3527 13.4323 30.3253Z" fill="#ff6700"/>
<path transform="matrix(1,0,0,-1,1,48.3221)" d="M13.4323 35.4557C13.2514 35.445 12.5306 35.4229 11.9151 35.9396 11.4616 36.3203 11.2938 36.8019 11.2331 37.0361 11.0407 37.781 11.3363 38.3394 11.2402 38.3749 11.1234 38.418 10.4621 37.6631 10.4873 36.7792 10.516 35.7749 11.3031 35.2236 11.9574 34.3945 12.5802 33.6059 13.2506 32.3527 13.4323 30.3253Z" fill="#ff6700"/>
<path transform="matrix(1,0,0,-1,1,48.3221)" d="M15.5069 34.2272C15.6229 34.1637 15.3476 33.7493 15.5347 33.2252 15.694 32.7781 16.0841 32.5466 16.2091 32.4799 16.8304 32.1491 17.475 32.3921 17.6074 32.442 18.4649 32.7651 18.8113 33.6178 18.8651 33.5846 18.9244 33.5477 18.5913 32.4476 17.6454 31.5553 16.5654 30.5362 14.7407 29.8392 14.1194 30.4517 13.549 31.0144 14.1829 32.493 14.2934 32.7504 14.6792 33.6501 15.3505 34.3131 15.5069 34.2272" fill="#e6d000"/>
<path transform="matrix(1,0,0,-1,1,48.3221)" d="M9.0717 33.5837C9.1522 33.0364 9.6613 32.6582 10.2084 32.739 10.7555 32.8195 11.1339 33.3283 11.0531 33.8757 10.9726 34.4228 10.4635 34.8012 9.9164 34.7204 9.3691 34.6397 8.9909 34.1308 9.0717 33.5837" fill="#00ca9d"/>
<path transform="matrix(1,0,0,-1,1,48.3221)" d="M11.3579 34.2272C11.2419 34.1637 11.5169 33.7493 11.3301 33.2252 11.1708 32.7781 10.7804 32.5466 10.6554 32.4799 10.0344 32.1491 9.3895 32.3921 9.2574 32.442 8.3996 32.7651 8.0532 33.6178 7.9997 33.5846 7.9401 33.5477 8.2732 32.4476 9.2191 31.5553 10.2991 30.5362 12.1238 29.8392 12.7454 30.4517 13.3157 31.0144 12.6816 32.493 12.5714 32.7504 12.1856 33.6501 11.5143 34.3131 11.3579 34.2272" fill="#00ca9d"/>
<path transform="matrix(1,0,0,-1,1,48.3221)" d="M12.5561 41.0576C12.5561 41.0576 11.0322 48.6737 4.9788 46.9964-1.3524 45.2421-.1743 38.6827 .6993 37.0831 3.5776 31.8149 13.5499 27.8002 11.4301 22.6111 11.4301 22.6111 10.6744 20.3179 8.9776 21.2732 7.8678 21.8976 7.3511 22.6089 7.126 23.0261 7.0838 23.1046 6.9644 23.0675 6.9749 22.9791 7.0308 22.5057 7.2788 21.6879 8.2423 20.8996 8.3353 20.8236 8.4379 20.7609 8.545 20.7068 8.8214 20.5676 9.4348 20.1696 9.4224 19.381 9.4073 18.4331 9.5587 15.4899 6.7666 14.0947 6.6977 14.0604 6.7405 13.9558 6.8136 13.9805 7.6609 14.2665 9.0961 15.0372 10.1336 17.0926 10.175 17.1746 10.2095 17.2599 10.2433 17.3452 10.2781 17.4331 10.3552 17.5394 10.4913 17.3194 10.7626 16.8797 10.9791 16.5132 10.2249 14.5556 10.2249 14.5556 10.222 14.1987 10.4814 14.5868 10.741 14.9749 11.8335 16.0617 10.9599 19.0939 10.9599 19.0939 10.8031 19.9108 11.575 21.7854 12.7534 24.6484 13.2715 26.259 6.0367 34.3511-1.1982 42.4431 5.6979 44.7321 6.2926 44.873 6.8871 45.0139 11.0013 46.0483 12.5561 41.0576" fill="#54169c"/>
<path transform="matrix(1,0,0,-1,1,48.3221)" d="M14.2316 39.166C14.2316 39.166 13.0887 46.2331 19.751 47.2377 25.7596 48.1439 28.5732 41.5199 26.8146 38.3766 25.8936 36.7305 24.4134 34.3341 20.5985 31.1564 16.7837 27.9785 15.2345 26.5161 16.6246 23.6203 18.0145 20.7244 20.4508 24.9579 20.4508 24.9579 20.4508 24.9579 20.4582 24.1413 18.9286 22.4768 17.3991 20.8123 19.1594 20.0166 19.1594 20.0166 19.1594 20.0166 21.3134 19.1636 22.1627 19.277 23.0119 19.3907 22.2755 18.3458 19.0973 19.2419 19.0973 19.2419 18.3291 19.6087 18.7603 18.8759 19.1914 18.1429 19.7011 17.4098 19.8442 17.2633 20.1759 16.924 20.1095 16.7403 19.6699 17.0249 19.23 17.3098 18.1205 17.9073 17.3665 19.6554 16.6124 21.4033 17.3078 21.4611 16.4228 23.0196 15.5378 24.5786 14.6339 26.9192 18.6471 31.4059 22.6602 35.8923 24.6268 39.4787 23.6923 42.1537 22.8285 44.6267 20.8284 46.1537 17.8549 45.0927 14.9051 44.0405 13.8926 40.0654 14.2316 39.166" fill="#da159b"/>
<path transform="matrix(1,0,0,-1,1,48.3221)" d="M10.6356 22.9079C10.6356 22.4062 10.2288 21.9994 9.7268 21.9994 9.2251 21.9994 8.8183 22.4062 8.8183 22.9079 8.8183 23.4096 9.2251 23.8164 9.7268 23.8164 10.2288 23.8164 10.6356 23.4096 10.6356 22.9079" fill="#54169c"/>
<path transform="matrix(1,0,0,-1,1,48.3221)" d="M18.8717 24.3147C18.8717 23.813 18.4649 23.4062 17.9631 23.4062 17.4611 23.4062 17.0544 23.813 17.0544 24.3147 17.0544 24.8165 17.4611 25.2235 17.9631 25.2235 18.4649 25.2235 18.8717 24.8165 18.8717 24.3147" fill="#da159b"/>
<path transform="matrix(1,0,0,-1,1,48.3221)" d="M.0723 .0675H.6973V4.6953H.4717C.2052 4.6953 .0723 4.5669 .0723 4.3095ZM1.9755 .0675H2.6008V3.8713L4.8614 .0675H5.6469V4.6953H5.0213V1.0253L2.8803 4.6953H2.3751C2.1084 4.6953 1.9755 4.5714 1.9755 4.3231ZM6.8842 .0675H7.5093V3.8713L9.7702 .0675H10.5554V4.6953H9.9298V1.0253L7.7888 4.6953H7.2836C7.0169 4.6953 6.8842 4.5714 6.8842 4.3231ZM15.4638 2.3814C15.4548 1.1319 14.944 .5111 13.934 .519 12.9231 .5281 12.4087 1.1492 12.3905 2.3814 12.3996 3.6227 12.9107 4.2435 13.9204 4.2435 14.9485 4.2517 15.4638 3.6317 15.4638 2.3814ZM13.934 4.7747C12.4801 4.7667 11.7485 3.9691 11.7394 2.3814 11.7666 .786 12.4974-.0074 13.934 .0006 15.3694 .0096 16.1016 .8028 16.1274 2.3814 16.1274 3.977 15.3967 4.7747 13.934 4.7747ZM18.5769 .0675H19.2285L20.8636 4.6953H20.5846C20.3097 4.6862 20.1328 4.5578 20.0534 4.3095L18.9096 .9048 17.619 4.6953H16.9543ZM20.7584 .0675H21.5164L21.89 1.1446H23.8303L24.2164 .0675H24.9616L23.3252 4.6953H22.6468C22.4606 4.6953 22.3415 4.6157 22.2883 4.4561ZM22.8603 4.0703 23.6716 1.6764H22.0351ZM25.2819 4.1766H26.6913V.0675H27.33V4.1766H28.7399V4.6953H25.6813C25.3973 4.6953 25.2649 4.5669 25.2819 4.3095ZM30.0042 .0675H30.6295V4.6953H30.4038C30.1371 4.6953 30.0042 4.5669 30.0042 4.3095ZM33.5302 .0675H34.1819L35.8169 4.6953H35.538C35.2633 4.6862 35.0861 4.5578 35.007 4.3095L33.863 .9048 32.5723 4.6953H31.9076ZM37.0556 .0675H40.1672V.5862H37.6807V2.2348H39.1697C39.4274 2.2348 39.5555 2.3508 39.5555 2.5812V2.7536H37.6807V4.1766H40.1672V4.6953H37.455C37.1883 4.6953 37.0556 4.5669 37.0556 4.3095ZM44.0799 .0675H47.1915V.5862H44.7052V4.6953H44.4793C44.2128 4.6953 44.0799 4.5669 44.0799 4.3095ZM48.39 .0675H51.5018V.5862H49.0153V2.2348H50.5043C50.7617 2.2348 50.8901 2.3508 50.8901 2.5812V2.7536H49.0153V4.1766H51.5018V4.6953H48.7896C48.5229 4.6953 48.39 4.5669 48.39 4.3095ZM52.6867 .0675H53.4447L53.8183 1.1446H55.7586L56.1444 .0675H56.8899L55.2535 4.6953H54.5751C54.3889 4.6953 54.2696 4.6157 54.2163 4.4561ZM54.7883 4.0703 55.5999 1.6764H53.9634ZM58.1406 .0675H59.8827C60.1311 .0675 60.366 .0981 60.5874 .1604 61.4917 .4884 61.9444 1.2399 61.9444 2.4146 61.9444 3.5898 61.5268 4.314 60.694 4.5884 60.4287 4.6602 60.1571 4.6953 59.8827 4.6953H58.5266C58.269 4.6953 58.1406 4.5669 58.1406 4.3095ZM58.7659 .5862V4.1766H59.9754C60.8632 4.1505 61.3057 3.5561 61.3057 2.395 61.3057 1.2328 60.8224 .6304 59.8567 .5862ZM63.1556 .0675H66.2675V.5862H63.7809V2.2348H65.27C65.5274 2.2348 65.6558 2.3508 65.6558 2.5812V2.7536H63.7809V4.1766H66.2675V4.6953H63.5553C63.2886 4.6953 63.1556 4.5669 63.1556 4.3095ZM67.466 .0675H68.091V1.9695H69.6073C69.7935 1.9695 69.9216 1.9114 69.9931 1.7957 70.1169 1.637 70.1838 1.1979 70.1918 .4793 70.1918 .284 70.219 .1468 70.2723 .0675H70.9237C70.8883 .1298 70.861 .3464 70.844 .7186 70.8259 1.2328 70.782 1.5973 70.7114 1.8094 70.6309 2.0398 70.4537 2.1815 70.1793 2.2348 70.6309 2.4653 70.8656 2.8738 70.8837 3.4586 70.8656 4.2925 70.3913 4.7044 69.4607 4.6953H67.8518C67.5941 4.6953 67.466 4.5669 67.466 4.3095ZM68.091 2.5016V4.1766H69.4471C69.9976 4.1505 70.2723 3.9067 70.2723 3.4458 70.2986 2.8069 70.0191 2.488 69.4349 2.488ZM71.9892 1.5973C72.0159 1.065 72.1845 .6656 72.4944 .4 72.7784 .1344 73.2175 .0006 73.8111 .0006 74.3525 .0006 74.7825 .1253 75.1014 .3736 75.42 .6214 75.5802 .9584 75.5802 1.3839 75.5802 1.9423 75.278 2.3108 74.6756 2.488 74.3922 2.5676 74.0991 2.6391 73.7986 2.7006 73.0528 2.8602 72.6897 3.1351 72.7078 3.5254 72.7248 4.0209 73.0755 4.2698 73.7578 4.2698 74.3434 4.2698 74.7156 4.0255 74.8752 3.5391 74.9109 3.4322 75.0127 3.3789 75.1808 3.3789H75.4472C75.4291 3.7953 75.278 4.1323 74.9945 4.39 74.6938 4.6466 74.2944 4.7747 73.7986 4.7747 73.2832 4.7747 72.8804 4.6511 72.5876 4.4025 72.2869 4.163 72.1358 3.8531 72.1358 3.4722 72.1358 3.1442 72.2245 2.8865 72.4017 2.7006 72.597 2.4698 73.0483 2.2927 73.7578 2.1694 74.1923 2.0883 74.5157 1.9831 74.7292 1.849 74.9154 1.7439 75.0036 1.561 74.9945 1.3042 74.9945 1.074 74.8797 .8742 74.6495 .7064 74.4633 .5817 74.1798 .519 73.7986 .519 73.4434 .519 73.1551 .6168 72.9334 .8118 72.7123 .9981 72.597 1.26 72.5876 1.5973ZM79.5328 .0675H80.1581V4.6953H79.9325C79.6657 4.6953 79.5328 4.5669 79.5328 4.3095ZM81.4363 .0675H82.0616V3.8713L84.3222 .0675H85.1077V4.6953H84.4818V1.0253L82.3408 4.6953H81.8357C81.5692 4.6953 81.4363 4.5714 81.4363 4.3231ZM89.0592 .0675H89.6842V1.9695H91.08C92.0027 2.0047 92.4633 2.4653 92.4633 3.3528 92.4633 4.2389 92.0027 4.6862 91.08 4.6953H89.445C89.1873 4.6953 89.0592 4.5669 89.0592 4.3095ZM89.6842 2.5016V4.1766H91.0539C91.5953 4.1675 91.8541 3.8931 91.8315 3.3528 91.8099 2.8114 91.55 2.5279 91.0539 2.5016ZM92.6634 .0675H93.4217L93.795 1.1446H95.7356L96.1214 .0675H96.8666L95.2305 4.6953H94.5519C94.3659 4.6953 94.2466 4.6157 94.1933 4.4561ZM94.7653 4.0703 95.5766 1.6764H93.9404ZM98.1176 .0675H101.2294V.5862H98.7429V2.2348H100.2319C100.4893 2.2348 100.6177 2.3508 100.6177 2.5812V2.7536H98.7429V4.1766H101.2294V4.6953H98.517C98.2505 4.6953 98.1176 4.5669 98.1176 4.3095ZM102.4277 .0675H104.1698C104.4181 .0675 104.6529 .0981 104.8745 .1604 105.7788 .4884 106.2315 1.2399 106.2315 2.4146 106.2315 3.5898 105.8139 4.314 104.9811 4.5884 104.7158 4.6602 104.4442 4.6953 104.1698 4.6953H102.8137C102.5561 4.6953 102.4277 4.5669 102.4277 4.3095ZM103.053 .5862V4.1766H104.2625C105.1503 4.1505 105.5928 3.5561 105.5928 2.395 105.5928 1.2328 105.1095 .6304 104.1437 .5862ZM107.4427 .0675H108.068V4.6953H107.8424C107.5757 4.6953 107.4427 4.5669 107.4427 4.3095ZM109.3326 .0675H110.0906L110.4642 1.1446H112.4045L112.7906 .0675H113.5358L111.8993 4.6953H111.221C111.0348 4.6953 110.9154 4.6157 110.8624 4.4561ZM111.4345 4.0703 112.2457 1.6764H110.6093ZM113.8561 4.1766H115.2652V.0675H115.9041V4.1766H117.3138V4.6953H114.2555C113.9715 4.6953 113.8391 4.5669 113.8561 4.3095ZM118.5783 .0675H119.2037V1.9695H120.7199C120.9059 1.9695 121.0343 1.9114 121.1057 1.7957 121.2296 1.637 121.2965 1.1979 121.3041 .4793 121.3041 .284 121.3313 .1468 121.3846 .0675H122.0363C122.0009 .1298 121.9737 .3464 121.9567 .7186 121.9385 1.2328 121.8943 1.5973 121.8237 1.8094 121.7432 2.0398 121.5663 2.1815 121.2919 2.2348 121.7432 2.4653 121.9782 2.8738 121.9963 3.4586 121.9782 4.2925 121.504 4.7044 120.5734 4.6953H118.9644C118.7067 4.6953 118.5783 4.5669 118.5783 4.3095ZM119.2037 2.5016V4.1766H120.5597C121.1102 4.1505 121.3846 3.9067 121.3846 3.4458 121.411 2.8069 121.1318 2.488 120.5473 2.488ZM123.1815 .0675H123.8068V4.6953H123.5809C123.3145 4.6953 123.1815 4.5669 123.1815 4.3095ZM128.4755 1.4905C128.2635 .8515 127.8289 .5236 127.173 .5066 126.1984 .5326 125.7009 1.1582 125.6828 2.3814 125.7009 3.6317 126.2106 4.2517 127.2127 4.2435 127.762 4.2435 128.1396 4.0391 128.3431 3.6317 128.4403 3.4095 128.596 3.2995 128.8083 3.2995H129.1283C129.0657 3.742 128.8888 4.0975 128.596 4.3628 128.2771 4.6466 127.8244 4.7837 127.2399 4.7747 125.7678 4.7486 125.0291 3.9464 125.0246 2.3678 125.0201 .7906 125.7236 .0006 127.133 .0006 128.2499-.0164 128.9151 .4793 129.1283 1.4905ZM133.0398 4.1766H134.4492V.0675H135.0882V4.1766H136.4978V4.6953H133.4395C133.1555 4.6953 133.0231 4.5669 133.0398 4.3095ZM137.7624 .0675H138.3877V2.2348H140.7949V.0675H141.4335V4.6953H140.7949V2.7536H138.3877V4.6953H138.1618C137.878 4.6953 137.7454 4.5669 137.7624 4.3095ZM142.6572 .0675H145.7688V.5862H143.2826V2.2348H144.7716C145.029 2.2348 145.1574 2.3508 145.1574 2.5812V2.7536H143.2826V4.1766H145.7688V4.6953H143.0566C142.7902 4.6953 142.6572 4.5669 142.6572 4.3095ZM146.9673 .0675H147.5926V1.9695H149.1089C149.2948 1.9695 149.4232 1.9114 149.4947 1.7957 149.6186 1.637 149.6854 1.1979 149.6931 .4793 149.6931 .284 149.7203 .1468 149.7736 .0675H150.4253C150.3899 .1298 150.3626 .3464 150.3456 .7186 150.3275 1.2328 150.2833 1.5973 150.2127 1.8094 150.1322 2.0398 149.9553 2.1815 149.6809 2.2348 150.1322 2.4653 150.3672 2.8738 150.3853 3.4586 150.3672 4.2925 149.8929 4.7044 148.9623 4.6953H147.3534C147.0957 4.6953 146.9673 4.5669 146.9673 4.3095ZM147.5926 2.5016V4.1766H148.9487C149.4992 4.1505 149.7736 3.9067 149.7736 3.4458 149.8 2.8069 149.5208 2.488 148.9363 2.488ZM151.5569 .0675H152.3151L152.6885 1.1446H154.6291L155.0149 .0675H155.7601L154.1239 4.6953H153.4453C153.2594 4.6953 153.14 4.6157 153.0867 4.4561ZM153.6588 4.0703 154.47 1.6764H152.8339ZM157.011 .0675H157.6363V1.9695H159.0321C159.9548 2.0047 160.4154 2.4653 160.4154 3.3528 160.4154 4.2389 159.9548 4.6862 159.0321 4.6953H157.3968C157.1394 4.6953 157.011 4.5669 157.011 4.3095ZM157.6363 2.5016V4.1766H159.006C159.5475 4.1675 159.8063 3.8931 159.7836 3.3528 159.762 2.8114 159.5021 2.5279 159.006 2.5016ZM163.8213 1.8887 165.3908 4.6953H164.9381C164.7258 4.6953 164.5747 4.6111 164.4866 4.4425L163.5015 2.5676 162.3983 4.6953H161.6267L163.1959 1.8763V.0675H163.8213Z" fill="#ffffff"/>
</g>
</svg>
