<?xml version="1.0" encoding="UTF-8"?>
<svg xmlns="http://www.w3.org/2000/svg" xmlns:xlink="http://www.w3.org/1999/xlink" viewBox="0 0 230.4 360">
  <defs>
    <style>
      .cls-1 {
        fill: #ebebec;
      }

      .cls-2 {
        fill: #6cc4bd;
      }

      .cls-3 {
        fill: #fefefe;
        mix-blend-mode: overlay;
      }

      .cls-3, .cls-4 {
        opacity: .7;
      }

      .cls-5 {
        clip-path: url(#clippath-4);
      }

      .cls-6 {
        fill: #633952;
      }

      .cls-7 {
        fill: #41231f;
      }

      .cls-8, .cls-9, .cls-10 {
        fill: #c47559;
      }

      .cls-11 {
        fill: #5d2e2e;
      }

      .cls-12 {
        fill: #8d542c;
        stroke-width: .75px;
      }

      .cls-12, .cls-9, .cls-10 {
        stroke-miterlimit: 10;
      }

      .cls-12, .cls-13 {
        stroke: #603913;
      }

      .cls-14 {
        fill: #fff;
      }

      .cls-15, .cls-16, .cls-13 {
        fill: none;
      }

      .cls-17 {
        fill: #dee0e2;
      }

      .cls-18 {
        fill: #46949c;
      }

      .cls-19 {
        fill: #84ccf3;
      }

      .cls-19, .cls-20, .cls-21, .cls-22, .cls-23 {
        opacity: .5;
      }

      .cls-19, .cls-20, .cls-24, .cls-25 {
        mix-blend-mode: multiply;
      }

      .cls-9, .cls-10 {
        stroke: #754c29;
      }

      .cls-16 {
        stroke: #46949c;
      }

      .cls-16, .cls-13 {
        stroke-linecap: round;
        stroke-linejoin: round;
      }

      .cls-20, .cls-21, .cls-26 {
        fill: #bbecff;
      }

      .cls-27 {
        fill: #6eb7ce;
      }

      .cls-28 {
        fill: #e7e2fe;
      }

      .cls-29 {
        fill: #1f1313;
      }

      .cls-30 {
        clip-path: url(#clippath-1);
      }

      .cls-31 {
        fill: #b4d34b;
      }

      .cls-32 {
        isolation: isolate;
      }

      .cls-33 {
        fill: #d1e9f9;
      }

      .cls-10 {
        stroke-width: .5px;
      }

      .cls-34 {
        clip-path: url(#clippath-5);
      }

      .cls-35, .cls-21 {
        mix-blend-mode: screen;
      }

      .cls-35, .cls-23 {
        fill: #96d7f6;
      }

      .cls-36 {
        fill: #89caed;
      }

      .cls-37 {
        clip-path: url(#clippath-3);
      }

      .cls-24 {
        fill: #efeeed;
      }

      .cls-38 {
        fill: #d98c6d;
        fill-rule: evenodd;
      }

      .cls-39 {
        fill: #1e0c0a;
      }

      .cls-40 {
        fill: #b05d46;
      }

      .cls-41 {
        fill: #531100;
      }

      .cls-42 {
        fill: #ebeff2;
      }

      .cls-43 {
        fill: #ece8fe;
      }

      .cls-44 {
        fill: #d3e2f2;
      }

      .cls-45 {
        fill: #ccc;
      }

      .cls-22 {
        fill: #3fa2c9;
      }

      .cls-46 {
        clip-path: url(#clippath-2);
      }

      .cls-47 {
        fill: #3e2336;
      }

      .cls-48 {
        clip-path: url(#clippath);
      }

      .cls-49 {
        fill: #c9e6f8;
      }
    </style>
    <clipPath id="clippath">
      <rect class="cls-15" x="250.4" y="-376.85" width="230.4" height="360" rx="12.28" ry="12.28"/>
    </clipPath>
    <clipPath id="clippath-1">
      <rect class="cls-15" x="250.35" y="-375.67" width="230.5" height="359.6"/>
    </clipPath>
    <clipPath id="clippath-2">
      <rect class="cls-15" width="230.4" height="360" rx="12.28" ry="12.28"/>
    </clipPath>
    <clipPath id="clippath-3">
      <rect class="cls-15" x="250.4" width="230.4" height="360" rx="12.28" ry="12.28"/>
    </clipPath>
    <clipPath id="clippath-4">
      <path class="cls-15" d="M429.34,90.54v125.62h-118.88v-90.72h-2.85c-.94,0-1.71-.76-1.71-1.7s.77-1.71,1.71-1.71c.26,0,.51.06.74.17.37-.71,1.11-1.2,1.98-1.2.05,0,.09,0,.13,0v-19.12c.09-20.02,14.42-37.31,34.97-45.25h50.57c16.54,6.39,29.05,18.84,33.33,33.9Z"/>
    </clipPath>
    <clipPath id="clippath-5">
      <rect class="cls-15" x="250.4" width="229.91" height="248.7"/>
    </clipPath>
  </defs>
  <g class="cls-32">
    <g id="Layer_1" data-name="Layer 1">
      <g class="cls-48">
        <g class="cls-30">
          <path class="cls-31" d="M356.73,40.5c8.34-3.73,16.8-7.33,25.43-10.06,8.1-2.56,17.13-3.06,25.31-4.16,7.45-1,16.24-3,24.22-2.63,13.5.62,26.97,3.17,40.26,5.23,4.82.75,9.57,1.84,14.25,3.25,13.44,4.05,26.61,9.98,39.34,15.75,18.35-37.84,20.5-72.03,5.14-111.39-6.79-17.41-.07-29.66,13.14-41.88H198.38c-12.92,81.33,89.02,116.63,158.35,145.88Z"/>
        </g>
      </g>
      <g class="cls-46">
        <g>
          <rect class="cls-44" width="230.4" height="360"/>
          <g>
            <g>
              <g>
                <path class="cls-8" d="M99.94,140.52s-5.18,10.59-3.7,15.13c1.48,4.54.55,29.29,1.41,40.17.86,10.89,56.24.72,56.24.72,0,0-5.16-29.21-.73-41.52,4.43-12.31-5.86-22.53-5.86-22.53l-46.44,8.06"/>
                <g>
                  <path class="cls-8" d="M103.11,134.58c-10.8-8.88-22.8-17.67-33.28-26.19-3.32,3.85-6.2,6-9.07,11.14,9.15,12.83,21.16,27.9,35.48,36.12,2.26-7.39,4.52-14.78,6.87-21.07Z"/>
                  <g>
                    <path class="cls-8" d="M71.4,110.2c1.34-4.49,2.34-9.08,2.98-13.72.09-.69.18-1.39,0-2.07-.18-.67-.71-1.3-1.41-1.42-.96-.16-1.78.64-2.33,1.42-1.22,1.71-2.08,3.66-2.99,5.53-1.62-3.51-3.53-6.89-5.7-10.11-.69-1.03-1.59-2.14-2.84-2.21-1.36-.07-2.46,1.25-2.58,2.57-.12,1.33.48,2.61,1.14,3.79.66,1.17,1.4,2.34,1.62,3.66-3.04-1.93-6.32-3.48-9.75-4.62-.82-.27-1.69-.53-2.55-.43-.86.1-1.73.64-1.93,1.46-.24,1.01.54,1.97,1.3,2.71,2.01,1.98,4.2,3.78,6.54,5.38-2.84-.85-5.81-1.27-8.78-1.25-.9,0-1.94.12-2.45.84-.49.68-.27,1.67.27,2.33.54.65,1.34,1.05,2.1,1.42,2.41,1.18,4.81,2.35,7.22,3.53-1.16.24-2.37.04-3.56-.09-1.19-.13-2.45-.15-3.49.41-1.04.56-1.71,1.9-1.16,2.93.37.69,1.15,1.05,1.88,1.35,2.69,1.11,4.53,1.54,7.48,2.27,2.41,2.43,6.21,4.17,9.11,4.29,2.96-3.96,8.4-5.06,9.88-9.98Z"/>
                    <path class="cls-13" d="M66.33,101.97c-2.38,1.37-3.94,4.06-3.94,6.8"/>
                  </g>
                </g>
                <path class="cls-8" d="M147.3,133.66c11.21-8.36,23.61-16.56,34.49-24.58,3.13,4,5.91,6.29,8.53,11.56-9.75,12.38-22.46,26.86-37.15,34.39-1.9-7.49-3.81-14.98-5.86-21.37Z"/>
                <path class="cls-8" d="M180.14,110.8c-1.13-4.55-1.91-9.18-2.32-13.84-.06-.69-.11-1.4.1-2.06.22-.66.77-1.27,1.47-1.35.96-.11,1.74.73,2.26,1.53,1.14,1.77,1.91,3.76,2.73,5.67,1.79-3.43,3.85-6.72,6.17-9.83.74-.99,1.69-2.06,2.94-2.07,1.37,0,2.4,1.36,2.46,2.69.06,1.33-.6,2.59-1.31,3.73-.71,1.14-1.51,2.27-1.79,3.58,3.13-1.78,6.48-3.18,9.96-4.16.84-.24,1.71-.45,2.57-.31.86.14,1.69.72,1.85,1.55.2,1.02-.64,1.94-1.42,2.65-2.1,1.88-4.38,3.58-6.79,5.06,2.88-.71,5.87-.99,8.83-.83.9.05,1.93.21,2.41.96.45.71.19,1.68-.38,2.31-.57.63-1.38.98-2.17,1.32-2.46,1.06-4.92,2.12-7.38,3.18,1.15.3,2.37.15,3.56.08,1.19-.07,2.46-.03,3.47.58,1.01.61,1.62,1.98,1.01,2.99-.4.67-1.2,1-1.95,1.26-2.74.98-4.6,1.32-7.58,1.91-2.52,2.32-6.4,3.87-9.3,3.85-2.77-4.09-8.15-5.45-9.39-10.44Z"/>
                <path class="cls-13" d="M185.59,102.82c2.31,1.48,3.74,4.24,3.61,6.98"/>
                <g>
                  <path class="cls-18" d="M93.03,214.83c-1.5-.19-2.87.09-4.23,1.34,6.18,8.32,20.39,13.71,27.27,13.16-2.7-3.64-6.29-6.55-10.23-8.78-3.94-2.23-7.87-5.11-12.81-5.72Z"/>
                  <g>
                    <path class="cls-8" d="M116.5,225.15c-7.8,12.05-15.91,23.9-25.01,36.52-5.22-2.71-9.1-5.5-13.61-9.31,4.34-12.44,9.62-24.55,15.79-36.19,7.17,3.19,14.33,6.37,22.83,8.98Z"/>
                    <g>
                      <path class="cls-47" d="M60.78,257.65c6.32,6.28,16.37,13.29,25.22,15.48,1.07.27,2.19-.03,2.99-.74.23-.2.43-.44.6-.71,1.99-3.16,3.14-6.44,3.14-11.75-5.4-6.17-14.06-10.04-22.25-10.04-3.38,0-6.99.74-9.58,3.03-.49.43-.81.97-.97,1.56-.3,1.1-.02,2.32.85,3.18Z"/>
                      <path class="cls-6" d="M60.78,257.65c6.32,6.28,16.37,13.29,25.22,15.48,1.07.27,2.19-.03,2.99-.74-.28-1.26-.83-2.47-1.55-3.54-1.43-2.12-3.44-3.77-5.45-5.35-3.77-2.95-7.71-5.8-12.16-7.53-3.13-1.22-6.57-1.84-9.89-1.5-.3,1.1-.02,2.32.85,3.18Z"/>
                    </g>
                  </g>
                  <g>
                    <path class="cls-47" d="M142.32,262.71c3.66.09,7.28,1.4,10.14,3.69,2.42,1.94,4.28,4.56,5.21,7.72.28.96-.32,1.95-1.3,2.14-9.48,1.78-23.56,1.89-32.58-.64-1.06-.3-1.73-1.31-1.6-2.4.42-3.5,1.38-7.16,3.32-9.92,5.95-.07,11.89-.13,16.81-.6Z"/>
                    <path class="cls-8" d="M153.06,210.97c-.48,17.99-3.62,35.91-10.16,53.5-6.02.72-12.09,1.02-17.92.28,1.95-13.57,1.9-27.42-.14-40.97,8.75-5.18,18.31-9,28.21-12.81Z"/>
                  </g>
                  <g>
                    <path class="cls-2" d="M153.89,196.54c.92,9.13,1.27,18.31.92,28.07-10.31,3.99-20.21,5.9-31.38,5.54-.99-2.51-1.51-4.07-2.41-6.35,0,0-4.65,5.35-4.95,5.53-8.92-6.65-21.45-13.16-27.27-13.16,2.79-6.4,5.87-13.52,8.86-20.35,18.45,1.61,37.03,1.71,56.24.72Z"/>
                    <g>
                      <path class="cls-16" d="M122.21,205.5c.09,5.81-.32,11.62-1.23,17.36"/>
                      <path class="cls-16" d="M132.62,210.65c-7.56-.25-15.08-1.55-22.28-3.85"/>
                      <path class="cls-16" d="M134.99,220c-4.41-1.43-8.68-3.28-13.32-5.54-5.71.77-11.54.62-17.2-.44"/>
                    </g>
                  </g>
                </g>
                <g>
                  <path class="cls-8" d="M133.78,139.76c-.26,4.54-2.97,8.86-6.93,11.08-3.97,2.22-9.07,2.27-13.07.12-4.01-2.15-6.79-6.42-7.13-10.95,8.99-.05,17.98-.1,27.14-.25Z"/>
                  <path class="cls-40" d="M134.35,139.06c-6.15,6.84-15.69,10.23-24.7,8.44-1.37-1.56-2.74-4.36-2.82-6.06"/>
                </g>
                <path class="cls-13" d="M82.72,118.68c-.16,5.88,2.34,11.78,6.64,15.65"/>
                <path class="cls-13" d="M165.34,124.78c.59,2.59.17,5.39-1.16,7.69-1.32,2.3-3.54,4.07-6.07,4.87"/>
              </g>
              <g>
                <g>
                  <path class="cls-33" d="M135.06,273.69c-.1,3.82-3.28,6.83-7.1,6.72-3.82-.1-6.83-3.28-6.73-7.1.11-3.82,3.28-6.83,7.1-6.72,3.82.1,6.83,3.28,6.73,7.1Z"/>
                  <path class="cls-33" d="M144.69,269.51c-.1,3.82-3.28,6.83-7.1,6.73-3.82-.1-6.83-3.28-6.72-7.1.1-3.81,3.28-6.83,7.1-6.72,3.82.1,6.83,3.28,6.73,7.1Z"/>
                  <path class="cls-33" d="M139.22,261.6c-.1,3.82-3.28,6.83-7.09,6.72-3.82-.1-6.83-3.28-6.73-7.1.1-3.82,3.28-6.83,7.1-6.72,3.82.1,6.83,3.28,6.72,7.1Z"/>
                  <path class="cls-33" d="M130.13,264.94c-.1,3.82-3.28,6.83-7.1,6.72-3.82-.1-6.83-3.28-6.73-7.1.1-3.82,3.28-6.83,7.1-6.72,3.81.1,6.82,3.28,6.72,7.1Z"/>
                </g>
                <g>
                  <path class="cls-49" d="M147.93,260.63c0,4.2-3.4,7.6-7.61,7.6s-7.6-3.41-7.6-7.6,3.4-7.61,7.6-7.61,7.61,3.41,7.61,7.61Z"/>
                  <path class="cls-36" d="M146.39,260.3c0,3.66-2.97,6.62-6.62,6.62s-6.63-2.97-6.63-6.62,2.97-6.63,6.63-6.63,6.62,2.97,6.62,6.63Z"/>
                  <path class="cls-33" d="M139.73,256.8c0,1.05-.85,1.9-1.9,1.9s-1.9-.85-1.9-1.9.85-1.9,1.9-1.9,1.9.85,1.9,1.9Z"/>
                  <path class="cls-33" d="M136.56,261.2c0,.51-.41.93-.92.93s-.92-.42-.92-.93.41-.93.92-.93.92.42.92.93Z"/>
                </g>
              </g>
              <g>
                <g>
                  <path class="cls-33" d="M155.28,259.84c-.88,3.73-4.62,6.04-8.34,5.15-3.73-.88-6.04-4.62-5.16-8.34.88-3.72,4.62-6.03,8.34-5.15,3.73.88,6.04,4.61,5.16,8.34Z"/>
                  <path class="cls-33" d="M165.58,257.7c-.88,3.73-4.62,6.04-8.35,5.15-3.73-.88-6.03-4.61-5.15-8.35.88-3.72,4.62-6.03,8.34-5.15,3.73.88,6.03,4.61,5.15,8.34Z"/>
                  <path class="cls-33" d="M161.82,248.82c-.88,3.73-4.61,6.04-8.34,5.16-3.73-.88-6.03-4.62-5.15-8.35.88-3.73,4.62-6.03,8.34-5.15,3.73.88,6.03,4.61,5.15,8.34Z"/>
                  <path class="cls-33" d="M152.22,250.25c-.88,3.73-4.61,6.04-8.34,5.15-3.73-.88-6.04-4.61-5.16-8.34.88-3.73,4.62-6.03,8.34-5.15,3.72.88,6.03,4.61,5.15,8.34Z"/>
                </g>
                <g>
                  <path class="cls-49" d="M170.58,249.65c-.86,4.12-4.89,6.77-9.02,5.92-4.12-.86-6.77-4.9-5.91-9.02.86-4.12,4.89-6.77,9.02-5.92,4.13.86,6.77,4.9,5.92,9.02Z"/>
                  <path class="cls-36" d="M169.13,249.01c-.74,3.59-4.26,5.9-7.85,5.15-3.59-.75-5.9-4.26-5.15-7.85.75-3.59,4.26-5.9,7.86-5.15,3.59.74,5.9,4.26,5.15,7.85Z"/>
                  <path class="cls-33" d="M163.31,244.22c-.21,1.03-1.22,1.69-2.25,1.48-1.03-.21-1.69-1.23-1.48-2.25.21-1.03,1.23-1.69,2.25-1.48,1.03.21,1.69,1.23,1.48,2.25Z"/>
                  <path class="cls-33" d="M159.29,247.88c-.1.5-.59.83-1.09.72-.5-.11-.82-.6-.72-1.1s.59-.83,1.1-.72c.5.1.82.6.72,1.1Z"/>
                </g>
                <g>
                  <path class="cls-49" d="M160.37,240.6c-.64,3.05-3.62,5.01-6.67,4.38-3.05-.64-5.02-3.62-4.38-6.68.64-3.05,3.62-5.02,6.68-4.38,3.05.63,5.01,3.62,4.38,6.68Z"/>
                  <path class="cls-36" d="M159.29,240.13c-.55,2.66-3.15,4.36-5.81,3.81-2.65-.55-4.36-3.15-3.81-5.81.55-2.66,3.16-4.36,5.81-3.81,2.66.55,4.36,3.16,3.81,5.81Z"/>
                  <path class="cls-33" d="M154.99,236.58c-.16.76-.91,1.25-1.67,1.1-.76-.16-1.25-.91-1.09-1.67.16-.76.91-1.26,1.67-1.1.77.16,1.26.91,1.1,1.67Z"/>
                  <path class="cls-33" d="M152.02,239.3c-.08.37-.44.61-.81.53-.37-.08-.61-.44-.53-.81.08-.37.44-.61.81-.54.37.08.61.45.53.82Z"/>
                </g>
              </g>
              <g>
                <path class="cls-49" d="M161.08,268.15c0,4.31-3.49,7.81-7.8,7.81s-7.81-3.49-7.81-7.81,3.49-7.8,7.81-7.8,7.8,3.49,7.8,7.8Z"/>
                <path class="cls-36" d="M159.5,267.81c0,3.75-3.04,6.8-6.8,6.8s-6.8-3.04-6.8-6.8,3.04-6.8,6.8-6.8,6.8,3.04,6.8,6.8Z"/>
                <path class="cls-33" d="M152.67,264.22c0,1.08-.87,1.95-1.95,1.95s-1.95-.87-1.95-1.95.87-1.95,1.95-1.95,1.95.87,1.95,1.95Z"/>
                <path class="cls-33" d="M149.41,268.73c0,.52-.43.95-.95.95s-.95-.43-.95-.95.43-.95.95-.95.95.43.95.95Z"/>
              </g>
              <g>
                <path class="cls-33" d="M100.57,225.26c-.19,6.43-5.56,11.48-11.98,11.29-6.43-.19-11.48-5.56-11.29-11.98.19-6.42,5.55-11.48,11.98-11.28,6.43.19,11.48,5.56,11.29,11.98Z"/>
                <path class="cls-33" d="M116.78,218.27c-.19,6.43-5.55,11.48-11.98,11.29-6.43-.19-11.48-5.55-11.29-11.98.19-6.42,5.56-11.48,11.98-11.29,6.42.19,11.47,5.56,11.28,11.98Z"/>
                <path class="cls-33" d="M107.62,204.94c-.19,6.43-5.55,11.48-11.98,11.29-6.43-.19-11.48-5.56-11.29-11.98.19-6.42,5.56-11.48,11.98-11.28,6.42.19,11.48,5.56,11.28,11.98Z"/>
                <path class="cls-33" d="M92.31,210.52c-.19,6.43-5.56,11.48-11.98,11.29-6.43-.19-11.48-5.55-11.29-11.98.19-6.42,5.56-11.48,11.98-11.29,6.42.19,11.47,5.56,11.28,11.98Z"/>
              </g>
              <g>
                <path class="cls-33" d="M133.11,192.85c-.19,6.43-5.56,11.48-11.98,11.29-6.43-.19-11.48-5.56-11.29-11.98.19-6.42,5.56-11.48,11.98-11.28,6.43.19,11.48,5.56,11.29,11.98Z"/>
                <path class="cls-33" d="M149.32,185.86c-.19,6.43-5.55,11.48-11.98,11.29-6.43-.19-11.48-5.56-11.29-11.98.19-6.42,5.56-11.48,11.98-11.29,6.42.19,11.47,5.56,11.28,11.98Z"/>
                <path class="cls-33" d="M140.16,172.53c-.19,6.43-5.55,11.48-11.98,11.29-6.43-.19-11.48-5.56-11.29-11.98.19-6.42,5.55-11.48,11.98-11.28,6.42.19,11.48,5.56,11.28,11.98Z"/>
                <path class="cls-33" d="M124.85,178.1c-.19,6.43-5.56,11.48-11.98,11.29-6.43-.19-11.48-5.55-11.29-11.98.19-6.42,5.56-11.48,11.98-11.29,6.42.19,11.47,5.56,11.28,11.98Z"/>
              </g>
              <g>
                <path class="cls-33" d="M140.37,228.43c-.19,6.43-5.56,11.48-11.98,11.29-6.43-.19-11.48-5.56-11.29-11.98.19-6.42,5.56-11.48,11.98-11.28,6.43.19,11.48,5.56,11.29,11.98Z"/>
                <path class="cls-33" d="M156.59,221.44c-.19,6.43-5.55,11.48-11.98,11.29-6.43-.19-11.48-5.56-11.29-11.98.19-6.42,5.56-11.48,11.98-11.29,6.42.19,11.47,5.55,11.28,11.98Z"/>
                <path class="cls-33" d="M147.42,208.11c-.19,6.43-5.55,11.48-11.98,11.29-6.43-.19-11.48-5.56-11.29-11.98.19-6.42,5.55-11.48,11.98-11.28,6.42.19,11.48,5.56,11.28,11.98Z"/>
                <path class="cls-33" d="M132.11,213.69c-.19,6.43-5.56,11.48-11.98,11.29-6.43-.19-11.48-5.55-11.29-11.98.19-6.42,5.55-11.48,11.98-11.29,6.42.19,11.47,5.56,11.28,11.98Z"/>
              </g>
              <g>
                <circle class="cls-49" cx="175.18" cy="69.99" r="8.25"/>
                <path class="cls-36" d="M181.75,69.64c0,3.97-3.21,7.18-7.18,7.18s-7.18-3.22-7.18-7.18,3.22-7.18,7.18-7.18,7.18,3.22,7.18,7.18Z"/>
                <circle class="cls-33" cx="172.48" cy="65.84" r="2.06"/>
                <path class="cls-33" d="M171.1,70.61c0,.55-.45,1.01-1.01,1.01s-1-.45-1-1.01.45-1,1-1,1.01.45,1.01,1Z"/>
              </g>
              <g>
                <path class="cls-49" d="M100.19,184.36c0,4.6-3.73,8.33-8.33,8.33s-8.33-3.73-8.33-8.33,3.73-8.33,8.33-8.33,8.33,3.73,8.33,8.33Z"/>
                <path class="cls-36" d="M98.5,184c0,4.01-3.25,7.26-7.26,7.26s-7.25-3.25-7.25-7.26,3.25-7.26,7.25-7.26,7.26,3.25,7.26,7.26Z"/>
                <path class="cls-33" d="M91.21,180.17c0,1.15-.93,2.08-2.08,2.08s-2.08-.93-2.08-2.08.93-2.08,2.08-2.08,2.08.93,2.08,2.08Z"/>
                <path class="cls-33" d="M87.74,184.98c0,.56-.46,1.02-1.02,1.02s-1.01-.45-1.01-1.02.45-1.01,1.01-1.01,1.02.46,1.02,1.01Z"/>
              </g>
              <g>
                <path class="cls-49" d="M123.09,220.33c0,3.31-2.68,5.99-5.99,5.99s-5.99-2.68-5.99-5.99,2.68-5.99,5.99-5.99,5.99,2.69,5.99,5.99Z"/>
                <path class="cls-36" d="M121.88,220.07c0,2.88-2.33,5.22-5.22,5.22s-5.22-2.34-5.22-5.22,2.34-5.22,5.22-5.22,5.22,2.34,5.22,5.22Z"/>
                <circle class="cls-33" cx="115.14" cy="217.32" r="1.5"/>
                <path class="cls-33" d="M114.13,220.78c0,.4-.33.73-.73.73s-.73-.33-.73-.73.33-.73.73-.73.73.33.73.73Z"/>
              </g>
              <g>
                <path class="cls-49" d="M131.79,227.19c0,2.36-1.91,4.27-4.27,4.27s-4.27-1.91-4.27-4.27,1.91-4.27,4.27-4.27,4.27,1.91,4.27,4.27Z"/>
                <path class="cls-36" d="M130.93,227.01c0,2.05-1.66,3.72-3.72,3.72s-3.72-1.67-3.72-3.72,1.67-3.72,3.72-3.72,3.72,1.66,3.72,3.72Z"/>
                <path class="cls-33" d="M127.19,225.04c0,.59-.48,1.07-1.07,1.07s-1.07-.48-1.07-1.07.48-1.07,1.07-1.07,1.07.48,1.07,1.07Z"/>
                <path class="cls-33" d="M125.41,227.51c0,.29-.23.52-.52.52s-.52-.23-.52-.52.23-.52.52-.52.52.23.52.52Z"/>
              </g>
              <g>
                <g>
                  <path class="cls-33" d="M162.16,209.02c-.18,6.43-5.53,11.49-11.95,11.32-6.43-.17-11.49-5.53-11.32-11.95.18-6.43,5.53-11.49,11.95-11.31,6.43.17,11.49,5.53,11.32,11.95Z"/>
                  <path class="cls-33" d="M178.36,201.99c-.17,6.43-5.52,11.49-11.95,11.32-6.43-.17-11.49-5.53-11.32-11.95.17-6.42,5.53-11.49,11.95-11.32,6.42.18,11.49,5.53,11.31,11.95Z"/>
                  <path class="cls-33" d="M169.16,188.68c-.17,6.43-5.52,11.49-11.95,11.31-6.43-.18-11.49-5.52-11.32-11.95.18-6.42,5.53-11.49,11.95-11.31,6.42.17,11.49,5.53,11.31,11.95Z"/>
                  <path class="cls-33" d="M153.86,194.3c-.17,6.43-5.52,11.49-11.95,11.32-6.43-.17-11.49-5.52-11.32-11.95.18-6.43,5.53-11.49,11.96-11.32,6.42.18,11.49,5.53,11.31,11.95Z"/>
                </g>
                <g>
                  <path class="cls-49" d="M183.82,187.04c0,7.07-5.73,12.8-12.8,12.8s-12.8-5.73-12.8-12.8,5.73-12.8,12.8-12.8,12.8,5.73,12.8,12.8Z"/>
                  <path class="cls-36" d="M181.23,186.49c0,6.16-4.99,11.15-11.15,11.15s-11.15-4.99-11.15-11.15,4.99-11.15,11.15-11.15,11.15,4.99,11.15,11.15Z"/>
                  <path class="cls-33" d="M170.02,180.6c0,1.77-1.43,3.2-3.2,3.2s-3.2-1.43-3.2-3.2,1.43-3.2,3.2-3.2,3.2,1.43,3.2,3.2Z"/>
                  <path class="cls-33" d="M164.68,188c0,.86-.7,1.56-1.56,1.56s-1.56-.7-1.56-1.56.7-1.56,1.56-1.56,1.56.7,1.56,1.56Z"/>
                </g>
                <g>
                  <circle class="cls-49" cx="154.48" cy="175.66" r="9.48"/>
                  <path class="cls-36" d="M162.03,175.26c0,4.56-3.69,8.25-8.25,8.25s-8.25-3.7-8.25-8.25,3.7-8.26,8.25-8.26,8.25,3.7,8.25,8.26Z"/>
                  <circle class="cls-33" cx="151.37" cy="170.9" r="2.37"/>
                  <path class="cls-33" d="M149.79,176.37c0,.64-.52,1.16-1.16,1.16s-1.15-.52-1.15-1.16.52-1.15,1.15-1.15,1.16.52,1.16,1.15Z"/>
                </g>
              </g>
              <g>
                <path class="cls-49" d="M172.74,90.71c0,2.67-2.16,4.83-4.82,4.83s-4.83-2.16-4.83-4.83,2.16-4.82,4.83-4.82,4.82,2.16,4.82,4.82Z"/>
                <path class="cls-36" d="M171.76,90.5c0,2.32-1.88,4.2-4.2,4.2s-4.2-1.88-4.2-4.2,1.88-4.2,4.2-4.2,4.2,1.88,4.2,4.2Z"/>
                <path class="cls-33" d="M167.54,88.28c0,.66-.54,1.21-1.21,1.21s-1.21-.54-1.21-1.21.54-1.21,1.21-1.21,1.21.54,1.21,1.21Z"/>
                <path class="cls-33" d="M165.53,91.07c0,.32-.26.59-.59.59s-.59-.26-.59-.59.26-.59.59-.59.59.26.59.59Z"/>
              </g>
              <g>
                <circle class="cls-49" cx="97.05" cy="205.15" r="8.33"/>
                <path class="cls-36" d="M103.69,204.8c0,4.01-3.25,7.26-7.26,7.26s-7.25-3.25-7.25-7.26,3.25-7.26,7.25-7.26,7.26,3.25,7.26,7.26Z"/>
                <path class="cls-33" d="M96.4,200.96c0,1.15-.93,2.08-2.08,2.08s-2.08-.93-2.08-2.08.93-2.08,2.08-2.08,2.08.93,2.08,2.08Z"/>
                <path class="cls-33" d="M92.92,205.78c0,.56-.46,1.02-1.02,1.02s-1.01-.45-1.01-1.02.45-1.01,1.01-1.01,1.02.46,1.02,1.01Z"/>
              </g>
              <g>
                <path class="cls-49" d="M64.13,149.94c0,3.97-3.22,7.19-7.19,7.19s-7.19-3.22-7.19-7.19,3.22-7.19,7.19-7.19,7.19,3.22,7.19,7.19Z"/>
                <path class="cls-36" d="M62.67,149.63c0,3.46-2.81,6.26-6.26,6.26s-6.26-2.8-6.26-6.26,2.81-6.26,6.26-6.26,6.26,2.8,6.26,6.26Z"/>
                <path class="cls-33" d="M56.38,146.32c0,.99-.81,1.8-1.8,1.8s-1.8-.81-1.8-1.8.8-1.8,1.8-1.8,1.8.81,1.8,1.8Z"/>
                <path class="cls-33" d="M53.38,150.47c0,.48-.39.88-.87.88s-.88-.39-.88-.88.39-.87.88-.87.87.39.87.87Z"/>
              </g>
              <g>
                <path class="cls-49" d="M154.99,214.79c0,3.31-2.68,5.99-5.99,5.99s-5.99-2.68-5.99-5.99,2.68-5.99,5.99-5.99,5.99,2.69,5.99,5.99Z"/>
                <path class="cls-36" d="M153.78,214.53c0,2.88-2.33,5.22-5.22,5.22s-5.22-2.34-5.22-5.22,2.34-5.22,5.22-5.22,5.22,2.34,5.22,5.22Z"/>
                <path class="cls-33" d="M148.53,211.77c0,.83-.67,1.5-1.5,1.5s-1.5-.67-1.5-1.5.67-1.5,1.5-1.5,1.5.67,1.5,1.5Z"/>
                <path class="cls-33" d="M146.03,215.23c0,.4-.33.73-.73.73s-.73-.33-.73-.73.33-.73.73-.73.73.33.73.73Z"/>
              </g>
              <path class="cls-12" d="M154.77,144.45s-2.6,3.25-3.92,12.23"/>
              <g>
                <g>
                  <g>
                    <path class="cls-33" d="M161.23,148.83c.39,1.53-.52,3.08-2.05,3.48-1.53.4-3.08-.52-3.48-2.05-.39-1.53.52-3.08,2.05-3.48,1.53-.4,3.08.52,3.48,2.05Z"/>
                    <path class="cls-33" d="M164.57,146.07c.39,1.53-.52,3.08-2.05,3.48-1.53.4-3.08-.52-3.48-2.05-.39-1.52.52-3.08,2.05-3.48,1.53-.39,3.08.52,3.48,2.05Z"/>
                    <path class="cls-33" d="M161.5,143.56c.39,1.53-.52,3.08-2.05,3.48-1.53.39-3.08-.52-3.48-2.05-.39-1.53.52-3.08,2.05-3.48,1.53-.4,3.08.52,3.48,2.05Z"/>
                    <path class="cls-33" d="M158.27,145.92c.4,1.53-.52,3.08-2.05,3.48-1.53.4-3.08-.52-3.48-2.05-.39-1.53.52-3.08,2.05-3.48,1.52-.39,3.08.52,3.48,2.05Z"/>
                  </g>
                  <g>
                    <path class="cls-49" d="M164.84,142.18c.48,1.67-.48,3.41-2.15,3.89-1.67.48-3.4-.48-3.88-2.15-.48-1.67.48-3.41,2.15-3.89,1.67-.48,3.41.48,3.89,2.15Z"/>
                    <path class="cls-36" d="M164.19,142.23c.42,1.45-.42,2.97-1.87,3.38-1.45.42-2.97-.42-3.38-1.87-.42-1.45.42-2.97,1.87-3.38,1.45-.42,2.97.42,3.38,1.87Z"/>
                    <path class="cls-33" d="M161.15,141.6c.12.42-.12.85-.54.97-.42.12-.85-.12-.97-.54-.12-.42.12-.85.54-.97.42-.12.85.12.97.54Z"/>
                    <path class="cls-33" d="M160.4,143.7c.06.2-.06.42-.26.47-.2.06-.41-.06-.47-.26-.06-.2.06-.41.26-.47.2-.06.41.06.47.26Z"/>
                  </g>
                  <g>
                    <path class="cls-49" d="M159.39,140.85c.35,1.23-.36,2.52-1.59,2.88-1.23.35-2.52-.36-2.88-1.59-.35-1.23.36-2.52,1.59-2.88,1.23-.35,2.52.36,2.88,1.59Z"/>
                    <path class="cls-36" d="M158.91,140.88c.31,1.07-.31,2.19-1.39,2.5-1.07.31-2.19-.31-2.5-1.39-.31-1.07.31-2.2,1.39-2.5,1.08-.31,2.2.31,2.5,1.39Z"/>
                    <path class="cls-33" d="M156.66,140.42c.09.31-.09.63-.4.72-.31.09-.63-.09-.72-.4-.09-.31.09-.63.4-.72.31-.09.63.09.72.4Z"/>
                    <path class="cls-33" d="M156.1,141.98c.04.15-.04.31-.19.35-.15.04-.31-.04-.35-.19-.04-.15.04-.31.19-.35.15-.04.31.04.35.2Z"/>
                  </g>
                </g>
                <g>
                  <g>
                    <path class="cls-33" d="M153.59,152.17c.4,1.53-.52,3.08-2.05,3.48-1.53.4-3.08-.52-3.48-2.05-.39-1.53.52-3.08,2.05-3.48,1.53-.4,3.08.52,3.48,2.05Z"/>
                    <path class="cls-33" d="M156.93,149.41c.39,1.53-.52,3.08-2.05,3.48-1.53.39-3.08-.52-3.48-2.05-.39-1.52.52-3.08,2.05-3.48,1.53-.39,3.08.52,3.48,2.05Z"/>
                    <path class="cls-33" d="M153.86,146.9c.39,1.53-.52,3.08-2.05,3.48-1.53.4-3.08-.52-3.48-2.05-.39-1.53.52-3.08,2.05-3.48,1.53-.39,3.08.52,3.48,2.05Z"/>
                    <path class="cls-33" d="M150.64,149.26c.4,1.53-.52,3.08-2.05,3.48-1.53.4-3.08-.52-3.48-2.05-.39-1.53.52-3.08,2.05-3.48,1.52-.39,3.08.52,3.48,2.05Z"/>
                  </g>
                  <g>
                    <path class="cls-49" d="M151.75,144.19c.36,1.23-.36,2.52-1.59,2.88-1.23.35-2.52-.36-2.88-1.59-.36-1.23.36-2.52,1.59-2.88,1.23-.35,2.52.36,2.88,1.59Z"/>
                    <path class="cls-36" d="M151.27,144.22c.31,1.07-.31,2.19-1.38,2.5-1.07.31-2.2-.31-2.51-1.38-.31-1.07.31-2.2,1.38-2.51,1.08-.31,2.2.31,2.5,1.39Z"/>
                    <path class="cls-33" d="M149.02,143.76c.09.31-.09.63-.4.72-.31.09-.63-.09-.72-.4-.09-.31.09-.63.4-.72.31-.09.63.09.72.4Z"/>
                    <path class="cls-33" d="M148.46,145.32c.04.15-.04.31-.19.35-.15.04-.31-.04-.35-.19-.04-.15.04-.31.19-.35.15-.04.31.04.35.19Z"/>
                  </g>
                </g>
              </g>
              <g>
                <g>
                  <g>
                    <path class="cls-8" d="M99.42,128.07c.01-4.58-4.28-8.31-9.59-8.33-5.31-.02-9.63,3.68-9.64,8.27-.01,4.58,4.28,8.31,9.59,8.33,5.31.02,9.63-3.68,9.64-8.27Z"/>
                    <path class="cls-40" d="M97.01,130.25c.02-2.68-2.95-4.89-6.64-4.92-3.69-.03-6.7,2.12-6.72,4.8-.02,2.68,2.95,4.89,6.64,4.92,3.69.03,6.7-2.12,6.72-4.8Z"/>
                  </g>
                  <g>
                    <path class="cls-8" d="M158.07,119.1c-1.57-4.3-6.89-6.31-11.88-4.49-4.99,1.82-7.76,6.79-6.18,11.09,1.57,4.3,6.89,6.31,11.88,4.49,4.99-1.82,7.76-6.79,6.18-11.09Z"/>
                    <path class="cls-40" d="M155.53,122.27c-.94-2.52-4.5-3.51-7.96-2.23-3.46,1.29-5.5,4.37-4.57,6.88.94,2.52,4.5,3.51,7.96,2.23,3.46-1.29,5.5-4.37,4.57-6.88Z"/>
                  </g>
                  <g>
                    <path class="cls-8" d="M88.76,122.21c-1.31-16.56,4.52-38.45,29.93-37.84,18.6-1.12,29.12,16.53,30.43,33.09,1.31,16.56-14.22,22.42-30.01,24.96-11.61,1.86-21.5-.82-26.65-8.59-.36-.55-.7-1.12-1.02-1.72-1.45-2.75-2.37-6.04-2.68-9.88Z"/>
                    <path class="cls-38" d="M98.04,118.49c-2.63-.56-5.01.17-5.31,1.62-.31,1.45,1.58,3.08,4.2,3.63,2.63.56,5.01-.17,5.31-1.62.31-1.45-1.58-3.08-4.2-3.63Z"/>
                    <path class="cls-38" d="M137.66,113.62c2.4-1.21,4.88-1.13,5.55.19.67,1.32-.73,3.38-3.13,4.59-2.4,1.21-4.88,1.13-5.55-.2-.67-1.32.73-3.38,3.13-4.59Z"/>
                    <path class="cls-40" d="M148.03,114.33c-3.6-7.44-7.94-14.52-13.26-21.41-1.78,1.51-4.13,2.36-6.46,2.31-2.34-.04-4.65-.97-6.54-2.16-2,1.7-4.56,2.73-7.18,2.89-2.61.16-5.28-.55-7.47-1.62-2.64,2.81-7.11,3.72-10.9,2.13-2.92,6.76-5.46,13.68-7.6,20.73-.21-4.67-.29-9.37.32-14.01.62-4.64,1.97-9.23,4.65-13.09,14.27-2.21,28.63-3.93,43.02-5.08,5.41,7.76,9.26,16.61,11.42,29.31Z"/>
                  </g>
                  <g>
                    <g>
                      <path class="cls-39" d="M108.24,98.35c-.93-1.68-2.93-2.68-4.88-2.68-1.95,0-3.83.91-5.22,2.22-1.41,1.32-2.37,3.03-2.88,4.88,3.1-3.71,8.65-5.27,12.99-4.42Z"/>
                      <path class="cls-39" d="M125.21,97.78c1.45-2.47,4.26-3.95,6.96-3.67,2.7.29,5.17,2.33,6.58,6.06-3.53-4.02-9-3.72-13.55-2.39Z"/>
                    </g>
                    <g>
                      <path class="cls-29" d="M110.66,114.84c-1.04-2.68-2.53-4.08-5.2-5.1-2.48-.93-5.91-.44-7.99,2.37-1.12,1.52-1.57,2.74-1.96,4.54-.39-1.86-.12-3.86.94-5.62,1.93-3.21,6.02-4.55,9.47-3.08,2.9,1.23,4.62,3.99,4.75,6.88Z"/>
                      <path class="cls-29" d="M124.62,112.88c.48-2.83,1.64-4.51,4.06-6.05,2.24-1.43,5.7-1.63,8.31.7,1.42,1.26,2.09,2.36,2.84,4.05.01-1.9-.67-3.81-2.06-5.32-2.54-2.75-6.82-3.23-9.89-1.09-2.61,1.81-3.73,4.86-3.27,7.71Z"/>
                    </g>
                    <g>
                      <path class="cls-11" d="M116.42,114.42c-.22,1.17-.23,2.36-.03,3.53-.71-.23-1.25-.94-1.29-1.69-.04-.75.41-1.51,1.32-1.84Z"/>
                      <g>
                        <path class="cls-41" d="M113,132.43c3.55,1.87,8.39,1.47,11.62-1.15,2.94-2.37,4.23-6.49,3.06-9.81-.12-.34-.26-.67-.44-1-6.65-.04-12.96.79-19.16,2.16-.14.03-.27.05-.41.09-.33,3.96,1.79,7.87,5.33,9.73Z"/>
                        <path class="cls-14" d="M108.09,122.62c.82,2.31,3.73,2.62,7.3,2.29,4.29-.39,8.25-1.76,12.3-3.45-.12-.34-.26-.67-.44-1-6.65-.02-12.96.8-19.16,2.17Z"/>
                      </g>
                    </g>
                  </g>
                  <g>
                    <path class="cls-39" d="M82.75,110.65c.48.99,1.11,1.9,1.88,2.67-3.32,3.98.21,10.95,4.49,12.31-.07-10.15,2.19-22.09,6.7-31.56,3.48,1.92,8.85.24,11.23-3.24,4.89,3.8,11.1,2.39,14.61-1.18,3.63,4.27,9.3,3.97,12.82.16,7.23,9.93,11.53,20.29,14.71,32.16,4.4-4.46,5.35-11,.99-15.45,5.7-5.06,1.29-15.65-6.32-15.88.98-3.77-.79-7.38-3.66-9.6-3.07-2.35-7.38-3.13-10.96-.85-3.32-7.96-14.56-6.89-19.05-.45-5.39-3.32-14.47-1.82-15.5,5.89-7.16-2.36-11.62,7.57-9.09,13.7-4.14,1.84-4.81,7.23-2.85,11.33Z"/>
                    <path class="cls-7" d="M82.75,110.65c-.08-1.56-.03-3.13.35-4.65.64-2.53,2.35-4.93,4.85-5.64-.58-1.91-1.06-3.5-1.09-5.11-.03-1.63.45-3.33,1.64-4.44,1.69-1.59,4.29-1.58,6.59-1.28.48-3.2,2.64-5.78,5.43-6.83,2.78-1.05,6.11-.5,8.42,1.36,2.5-3.35,6.09-5.18,9.73-5.23,3.65-.04,7.27,1.72,9.5,4.61,3.57-2.46,8.02-3.27,12.03-2.41-3.07-2.35-7.38-3.13-10.96-.85-3.32-7.96-14.56-6.89-19.05-.45-5.39-3.32-14.47-1.82-15.5,5.89-7.16-2.36-11.62,7.57-9.09,13.7-4.12,1.83-4.79,7.23-2.83,11.33Z"/>
                  </g>
                </g>
                <path class="cls-9" d="M91.37,132.88s6.12,9.35,16.11,9.84"/>
                <path class="cls-10" d="M145.55,130.23s-3.94,6.02-11.42,8.57"/>
              </g>
              <g>
                <g>
                  <g>
                    <path class="cls-33" d="M110.26,84.96c2.29,4.01.91,9.12-3.1,11.41-4,2.3-9.11.91-11.41-3.1-2.29-4.01-.9-9.11,3.1-11.41,4.01-2.3,9.12-.91,11.41,3.09Z"/>
                    <path class="cls-33" d="M117.56,74.59c2.3,4.01.91,9.12-3.1,11.41-4,2.3-9.11.91-11.41-3.1-2.29-4-.91-9.11,3.1-11.41,4-2.3,9.11-.91,11.41,3.09Z"/>
                    <path class="cls-33" d="M106.94,69.88c2.3,4.01.92,9.11-3.09,11.41-4.01,2.3-9.12.91-11.42-3.1-2.29-4-.91-9.11,3.1-11.41,4.01-2.3,9.11-.91,11.41,3.1Z"/>
                    <path class="cls-33" d="M99.66,79.04c2.3,4,.92,9.11-3.09,11.4-4.01,2.3-9.11.92-11.41-3.09-2.3-4.01-.91-9.11,3.1-11.41,4-2.29,9.11-.91,11.4,3.1Z"/>
                  </g>
                  <g>
                    <path class="cls-49" d="M115.32,63.39c2.64,4.34,1.27,9.99-3.06,12.64-4.34,2.64-9.99,1.27-12.64-3.06-2.64-4.33-1.27-9.99,3.06-12.64,4.34-2.64,9.99-1.27,12.64,3.06Z"/>
                    <path class="cls-36" d="M113.53,64.02c2.3,3.77,1.11,8.7-2.67,11-3.78,2.3-8.7,1.11-11.01-2.67-2.3-3.78-1.11-8.71,2.67-11.01,3.77-2.3,8.7-1.11,11,2.67Z"/>
                    <path class="cls-33" d="M104.45,64.6c.66,1.08.32,2.5-.76,3.16-1.09.66-2.5.32-3.16-.76-.66-1.08-.32-2.5.77-3.16,1.08-.66,2.5-.32,3.16.77Z"/>
                    <path class="cls-33" d="M103.94,71.13c.32.53.16,1.22-.37,1.54-.53.32-1.22.15-1.54-.38-.32-.52-.16-1.21.37-1.54.53-.32,1.22-.15,1.54.38Z"/>
                  </g>
                  <g>
                    <path class="cls-49" d="M98.88,63.84c1.96,3.21.94,7.4-2.26,9.36-3.21,1.96-7.4.94-9.36-2.27-1.96-3.21-.95-7.4,2.27-9.36,3.21-1.96,7.4-.94,9.36,2.27Z"/>
                    <path class="cls-36" d="M97.55,64.31c1.7,2.79.82,6.44-1.98,8.15-2.79,1.7-6.44.82-8.15-1.98-1.7-2.79-.82-6.44,1.97-8.15,2.8-1.71,6.44-.82,8.15,1.97Z"/>
                    <path class="cls-33" d="M90.84,64.73c.49.8.23,1.85-.57,2.35-.8.48-1.85.23-2.34-.57-.49-.8-.23-1.85.57-2.34.8-.49,1.85-.24,2.34.56Z"/>
                    <path class="cls-33" d="M90.46,69.57c.24.39.11.9-.28,1.14-.39.24-.9.12-1.14-.27-.24-.39-.11-.9.27-1.14.39-.24.9-.11,1.14.28Z"/>
                  </g>
                </g>
                <g>
                  <g>
                    <path class="cls-33" d="M91.27,100.31c2.3,4,.91,9.11-3.1,11.41-4.01,2.3-9.12.91-11.42-3.1-2.29-4.01-.9-9.11,3.1-11.41,4.01-2.3,9.12-.91,11.41,3.09Z"/>
                    <path class="cls-33" d="M98.57,89.94c2.3,4.01.91,9.12-3.1,11.42-4,2.3-9.11.91-11.41-3.1-2.29-4-.91-9.12,3.1-11.41,4.01-2.3,9.11-.91,11.41,3.09Z"/>
                    <path class="cls-33" d="M87.95,85.22c2.29,4.01.91,9.11-3.09,11.41-4.01,2.3-9.12.91-11.42-3.1-2.29-4-.91-9.11,3.1-11.41,4-2.3,9.11-.91,11.41,3.1Z"/>
                    <path class="cls-33" d="M80.67,94.39c2.3,4,.92,9.11-3.09,11.4-4.01,2.31-9.11.92-11.41-3.09-2.3-4.01-.91-9.12,3.1-11.41,4-2.29,9.11-.91,11.4,3.1Z"/>
                  </g>
                  <g>
                    <path class="cls-49" d="M79.89,79.19c1.96,3.21.95,7.4-2.26,9.36-3.21,1.96-7.4.94-9.36-2.26-1.96-3.21-.95-7.4,2.27-9.36,3.21-1.96,7.39-.94,9.35,2.27Z"/>
                    <path class="cls-36" d="M78.56,79.66c1.7,2.79.83,6.44-1.97,8.15-2.79,1.7-6.44.82-8.15-1.97-1.7-2.79-.82-6.44,1.97-8.15,2.8-1.71,6.44-.82,8.15,1.98Z"/>
                    <path class="cls-33" d="M71.85,80.08c.49.8.24,1.85-.57,2.34-.8.49-1.85.23-2.34-.57-.49-.8-.23-1.85.56-2.34.8-.49,1.85-.24,2.34.56Z"/>
                    <path class="cls-33" d="M71.47,84.92c.24.39.11.9-.27,1.14-.39.24-.9.11-1.14-.28-.24-.39-.12-.9.27-1.14.4-.24.91-.11,1.14.28Z"/>
                  </g>
                </g>
              </g>
            </g>
            <g>
              <g>
                <g>
                  <path class="cls-23" d="M53.98,292.58c-53.56,2.2-66.32,10.71-46.04,13.22,20.28,2.51,28.49,3.65,6.84,11.62-21.65,7.98-14.01,18.64,33.5,18.46,61.33-.23,67.23-4.1,56.75-9.57-10.48-5.47-9.8-2.51,13.45-3.42,23.25-.91,46.95.23,32.36-5.24-14.59-5.47,7.06-4.15,21.88-3.33,14.81.82-7.75-5.33,7.75-5.79,15.5-.46,59.05-1.36,49.84-9.57-9.21-8.21-104.31-9.34-176.33-6.38Z"/>
                  <path class="cls-22" d="M47.11,336.1c-26.53,0-42.95-3.49-44.01-9.37-.57-3.16,3.55-6.54,11.6-9.51,5.54-2.04,12.87-4.97,12.66-6.85-.23-1.99-8.71-3.03-19.44-4.36-4.3-.53-9.4-1.61-9.31-3.76.15-3.67,17.54-8.33,55.37-9.89,67.83-2.79,166.9-2.11,176.48,6.44,1.15,1.02,1.56,2,1.23,2.91-2.06,5.64-33.96,6.55-49.29,6.98l-1.91.06c-4.27.13-5.35.68-5.49,1.13-.18.52.87,1.36,1.7,2.03.94.75,1.75,1.4,1.52,1.98-.19.49-.98.9-5.5.65l-1.11-.06c-9.36-.52-25.02-1.39-25.38.32-.05.25.3,1.01,4.7,2.65,4.27,1.6,4.71,2.44,4.61,3-.3,1.75-7.8,1.98-22.15,2.27-4.83.1-9.82.19-14.89.39-8.49.33-14.03.15-17,.05-1.16-.04-2.08-.07-2.52-.04.32.18.91.46,1.58.76,1.12.52,2.66,1.24,4.59,2.25,3.2,1.67,4.56,3.02,4.26,4.25-.62,2.56-8.13,5.52-61.1,5.73-.39,0-.79,0-1.17,0ZM53.98,292.58v.21c-40.09,1.65-54.83,6.57-54.95,9.48-.06,1.38,3.28,2.62,8.94,3.31,12.85,1.59,19.56,2.52,19.82,4.74.2,1.7-3.67,3.89-12.93,7.3-7.72,2.84-11.85,6.14-11.33,9.03.46,2.55,4.52,4.82,11.44,6.38,7.83,1.77,19.35,2.69,33.32,2.63,40.55-.16,59.83-1.87,60.69-5.4.24-.98-1.12-2.25-4.04-3.77-1.93-1-3.46-1.72-4.58-2.24-1.74-.81-2.1-.98-2.03-1.3.08-.33.43-.33,3.17-.24,2.97.1,8.5.28,16.97-.05,5.08-.2,10.07-.3,14.9-.39,11.05-.22,21.48-.43,21.73-1.91.04-.25-.29-1.01-4.34-2.52-4.62-1.73-5.08-2.59-4.96-3.14.4-1.92,10.96-1.49,25.82-.66l1.11.06c4.2.23,4.98-.13,5.08-.37.11-.29-.76-.98-1.39-1.49-1.04-.83-2.11-1.69-1.84-2.5.2-.59,1.04-1.28,5.89-1.42l1.91-.05c14.05-.4,46.94-1.34,48.9-6.7.27-.73-.11-1.55-1.11-2.44-4.14-3.69-27.03-6.29-64.47-7.33-32.71-.91-74.47-.53-111.7,1v-.21Z"/>
                </g>
                <path class="cls-19" d="M43.27,292.55c-34.76,4.27-22.6,9.89-2.08,9.93,20.51.03,23.78,1.07,4.76,5.98-19.03,4.91-30.04,10.12,13.89,9.22,11.73-.24,8.23.96-2.65,3.37-10.88,2.41,8.13,6.63,29.31,4.33,21.18-2.3-12.46-5.05-2.14-6.26,10.32-1.2,17.3-1.2,38.23-2.17,20.94-.96,28.16-2.65,4.81-5.05-23.34-2.41-9.51-1.84,18.29-4.63,27.79-2.79,25.75-3.51,16.61-4.49-9.14-.98,10.22-.23,39.71-.71,29.49-.48,6.5-13.5-46.93-10.61-46.39,2.5-97.1-.7-111.81,1.11Z"/>
                <path class="cls-35" d="M42.96,331.4c-1.29-.26-2.6-.29-3.91-.39-1.28-.09-2.55-.15-3.83-.26-2.55-.21-5.1-.51-7.63-.92-5.13-.82-10.16-2.03-15.15-3.46-1.16-.33-2.4-.68-3.23-1.61-.68-.75-.94-2.08-.01-2.75.21-.15.14-.57-.14-.39-.74.49-1.03,1.37-.98,2.23.06,1.03.62,1.86,1.44,2.45.98.71,2.2,1.09,3.33,1.47,1.32.44,2.65.86,3.99,1.25,5.36,1.55,10.89,2.54,16.44,3.09,1.56.16,3.12.29,4.69.36,1.59.07,3.19.1,4.75-.16.35-.06.76-.81.24-.92Z"/>
                <path class="cls-35" d="M100.99,327.75c-.45,1.46-2.11,2.28-3.49,2.58-1.68.37-3.43.52-5.14.73-3.51.43-7.02.79-10.54,1.06-7.08.56-14.18.87-21.28.86-4.04,0-8.08-.08-12.12-.28-.14,0-.26.26-.1.28,7.32.52,14.66.71,21.99.53,7.39-.18,14.76-.74,22.1-1.65,1.02-.13,2.04-.26,3.05-.4.91-.12,1.83-.24,2.71-.51,1.55-.48,2.86-1.5,3.02-3.2.02-.16-.18-.14-.22,0Z"/>
                <path class="cls-35" d="M95.29,328.39c-4.03.46-8.05.97-12.1,1.23-4.06.26-8.12.37-12.19.32-2.34-.03-4.67-.11-7.01-.26-.16,0-.3.3-.12.32,8.15.63,16.33.52,24.45-.33,2.31-.24,4.62-.54,6.91-.97.15-.03.24-.33.05-.31Z"/>
                <path class="cls-35" d="M55.62,330.46c-1.03-.14-2.09-.1-3.13-.12-1.1-.02-2.19-.06-3.29-.12-2.15-.11-4.29-.29-6.44-.48-4.29-.4-8.57-1.01-12.8-1.85-2.37-.47-4.74-.99-7.09-1.57-.12-.03-.22.2-.09.23,8.29,2.38,16.86,3.82,25.46,4.28,1.17.06,2.35.11,3.52.14,1.23.03,2.5.11,3.73-.05.18-.02.38-.43.12-.47Z"/>
                <path class="cls-35" d="M210.32,306.09c14.47-1.19,22.18-6.24,12.83-8.73,8.89,1.49,10.89,7.01-12.83,8.73Z"/>
                <path class="cls-35" d="M206.67,305.22c12.65-1.04,19.39-5.45,11.22-7.63,6.26,1.15,9.52,6.13-11.22,7.63Z"/>
              </g>
              <g>
                <g class="cls-4">
                  <g>
                    <path class="cls-26" d="M182.38,219.73c0,1.91-1.54,3.45-3.45,3.45s-3.45-1.54-3.45-3.45,1.54-3.45,3.45-3.45,3.45,1.54,3.45,3.45Z"/>
                    <path class="cls-27" d="M178.93,223.42c-2.03,0-3.68-1.65-3.68-3.68s1.65-3.68,3.68-3.68,3.68,1.65,3.68,3.68-1.65,3.68-3.68,3.68ZM178.93,216.52c-1.77,0-3.22,1.44-3.22,3.22s1.44,3.22,3.22,3.22,3.22-1.44,3.22-3.22-1.44-3.22-3.22-3.22Z"/>
                  </g>
                  <path class="cls-21" d="M179.61,218.14c0,.72-.58,1.3-1.3,1.3s-1.3-.58-1.3-1.3.58-1.3,1.3-1.3,1.3.58,1.3,1.3Z"/>
                  <path class="cls-20" d="M178.93,216.28c-1.91,0-3.45,1.54-3.45,3.45s1.54,3.45,3.45,3.45,3.45-1.54,3.45-3.45-1.54-3.45-3.45-3.45ZM178.71,222.29c-1.6,0-2.9-1.3-2.9-2.9s1.3-2.9,2.9-2.9,2.9,1.3,2.9,2.9-1.3,2.9-2.9,2.9Z"/>
                </g>
                <g class="cls-4">
                  <g>
                    <path class="cls-26" d="M163.91,223.58c0,1.91-1.54,3.45-3.45,3.45s-3.45-1.54-3.45-3.45,1.54-3.45,3.45-3.45,3.45,1.54,3.45,3.45Z"/>
                    <path class="cls-27" d="M160.46,227.26c-2.03,0-3.68-1.65-3.68-3.68s1.65-3.68,3.68-3.68,3.68,1.65,3.68,3.68-1.65,3.68-3.68,3.68ZM160.46,220.36c-1.77,0-3.22,1.44-3.22,3.22s1.44,3.22,3.22,3.22,3.22-1.44,3.22-3.22-1.44-3.22-3.22-3.22Z"/>
                  </g>
                  <circle class="cls-21" cx="159.84" cy="221.99" r="1.3"/>
                  <path class="cls-20" d="M160.46,220.13c-1.91,0-3.45,1.54-3.45,3.45s1.54,3.45,3.45,3.45,3.45-1.54,3.45-3.45-1.54-3.45-3.45-3.45ZM160.23,226.14c-1.6,0-2.9-1.3-2.9-2.9s1.3-2.9,2.9-2.9,2.9,1.3,2.9,2.9-1.3,2.9-2.9,2.9Z"/>
                </g>
                <g class="cls-4">
                  <g>
                    <path class="cls-26" d="M166.81,219.04c0,1.35-1.09,2.45-2.45,2.45s-2.45-1.09-2.45-2.45,1.09-2.45,2.45-2.45,2.45,1.09,2.45,2.45Z"/>
                    <path class="cls-27" d="M164.36,221.71c-1.48,0-2.68-1.2-2.68-2.68s1.2-2.68,2.68-2.68,2.68,1.2,2.68,2.68-1.2,2.68-2.68,2.68ZM164.36,216.82c-1.22,0-2.21.99-2.21,2.21s.99,2.21,2.21,2.21,2.21-.99,2.21-2.21-.99-2.21-2.21-2.21Z"/>
                  </g>
                  <circle class="cls-21" cx="163.92" cy="217.9" r=".92"/>
                  <path class="cls-20" d="M164.36,216.59c-1.35,0-2.45,1.09-2.45,2.45s1.09,2.45,2.45,2.45,2.45-1.09,2.45-2.45-1.09-2.45-2.45-2.45ZM164.2,220.85c-1.13,0-2.05-.92-2.05-2.05s.92-2.05,2.05-2.05,2.05.92,2.05,2.05-.92,2.05-2.05,2.05Z"/>
                </g>
                <g class="cls-4">
                  <g>
                    <path class="cls-26" d="M197.89,220.13c0,1.91-1.54,3.45-3.45,3.45s-3.45-1.54-3.45-3.45,1.54-3.45,3.45-3.45,3.45,1.54,3.45,3.45Z"/>
                    <path class="cls-27" d="M194.44,223.81c-2.03,0-3.68-1.65-3.68-3.68s1.65-3.68,3.68-3.68,3.68,1.65,3.68,3.68-1.65,3.68-3.68,3.68ZM194.44,216.91c-1.77,0-3.22,1.44-3.22,3.22s1.44,3.22,3.22,3.22,3.22-1.44,3.22-3.22-1.44-3.22-3.22-3.22Z"/>
                  </g>
                  <path class="cls-21" d="M195.12,218.54c0,.72-.58,1.3-1.3,1.3s-1.3-.58-1.3-1.3.58-1.3,1.3-1.3,1.3.58,1.3,1.3Z"/>
                  <path class="cls-20" d="M194.44,216.68c-1.91,0-3.45,1.54-3.45,3.45s1.54,3.45,3.45,3.45,3.45-1.54,3.45-3.45-1.54-3.45-3.45-3.45ZM194.22,222.69c-1.6,0-2.9-1.3-2.9-2.9s1.3-2.9,2.9-2.9,2.9,1.3,2.9,2.9-1.3,2.9-2.9,2.9Z"/>
                </g>
                <g class="cls-4">
                  <g>
                    <path class="cls-26" d="M206.29,218.17c0,1.91-1.54,3.45-3.45,3.45s-3.45-1.54-3.45-3.45,1.54-3.45,3.45-3.45,3.45,1.54,3.45,3.45Z"/>
                    <path class="cls-27" d="M202.84,221.86c-2.03,0-3.68-1.65-3.68-3.68s1.65-3.68,3.68-3.68,3.68,1.65,3.68,3.68-1.65,3.68-3.68,3.68ZM202.84,214.96c-1.77,0-3.22,1.44-3.22,3.22s1.44,3.22,3.22,3.22,3.22-1.44,3.22-3.22-1.44-3.22-3.22-3.22Z"/>
                  </g>
                  <path class="cls-21" d="M203.52,216.58c0,.72-.58,1.3-1.3,1.3s-1.3-.58-1.3-1.3.58-1.3,1.3-1.3,1.3.58,1.3,1.3Z"/>
                  <path class="cls-20" d="M202.84,214.72c-1.91,0-3.45,1.54-3.45,3.45s1.54,3.45,3.45,3.45,3.45-1.54,3.45-3.45-1.54-3.45-3.45-3.45ZM202.62,220.73c-1.6,0-2.9-1.3-2.9-2.9s1.3-2.9,2.9-2.9,2.9,1.3,2.9,2.9-1.3,2.9-2.9,2.9Z"/>
                </g>
                <g class="cls-4">
                  <g>
                    <circle class="cls-26" cx="216.54" cy="220.13" r="8.75" transform="translate(-47.45 380.31) rotate(-76.72)"/>
                    <path class="cls-27" d="M216.54,229.11c-4.95,0-8.98-4.03-8.98-8.98s4.03-8.98,8.98-8.98,8.98,4.03,8.98,8.98-4.03,8.98-8.98,8.98ZM216.54,211.62c-4.69,0-8.51,3.82-8.51,8.51s3.82,8.51,8.51,8.51,8.51-3.82,8.51-8.51-3.82-8.51-8.51-8.51Z"/>
                  </g>
                  <path class="cls-21" d="M218.26,216.09c0,1.81-1.47,3.29-3.29,3.29s-3.29-1.47-3.29-3.29,1.47-3.29,3.29-3.29,3.29,1.47,3.29,3.29Z"/>
                  <path class="cls-20" d="M216.54,211.38c-4.83,0-8.75,3.92-8.75,8.75s3.92,8.75,8.75,8.75,8.75-3.92,8.75-8.75-3.92-8.75-8.75-8.75ZM215.97,226.61c-4.06,0-7.35-3.29-7.35-7.35s3.29-7.35,7.35-7.35,7.35,3.29,7.35,7.35-3.29,7.35-7.35,7.35Z"/>
                </g>
                <g class="cls-4">
                  <g>
                    <circle class="cls-26" cx="209.76" cy="224.18" r="8.75" transform="translate(-69.82 97.34) rotate(-22.5)"/>
                    <path class="cls-27" d="M209.76,233.15c-4.95,0-8.98-4.03-8.98-8.98s4.03-8.98,8.98-8.98,8.98,4.03,8.98,8.98-4.03,8.98-8.98,8.98ZM209.76,215.66c-4.69,0-8.51,3.82-8.51,8.51s3.82,8.51,8.51,8.51,8.51-3.82,8.51-8.51-3.82-8.51-8.51-8.51Z"/>
                  </g>
                  <path class="cls-21" d="M211.48,220.13c0,1.81-1.47,3.29-3.29,3.29s-3.29-1.47-3.29-3.29,1.47-3.29,3.29-3.29,3.29,1.47,3.29,3.29Z"/>
                  <path class="cls-20" d="M209.76,215.43c-4.83,0-8.75,3.92-8.75,8.75s3.92,8.75,8.75,8.75,8.75-3.92,8.75-8.75-3.92-8.75-8.75-8.75ZM209.2,230.66c-4.06,0-7.35-3.29-7.35-7.35s3.29-7.35,7.35-7.35,7.35,3.29,7.35,7.35-3.29,7.35-7.35,7.35Z"/>
                </g>
                <g class="cls-4">
                  <g>
                    <circle class="cls-26" cx="172.1" cy="224.18" r="6.83"/>
                    <path class="cls-27" d="M172.1,231.24c-3.9,0-7.06-3.17-7.06-7.06s3.17-7.06,7.06-7.06,7.06,3.17,7.06,7.06-3.17,7.06-7.06,7.06ZM172.1,217.58c-3.64,0-6.6,2.96-6.6,6.6s2.96,6.6,6.6,6.6,6.6-2.96,6.6-6.6-2.96-6.6-6.6-6.6Z"/>
                  </g>
                  <circle class="cls-21" cx="173.33" cy="221.02" r="2.57"/>
                  <path class="cls-20" d="M165.27,224.18c0,3.77,3.06,6.83,6.83,6.83s6.83-3.06,6.83-6.83-3.06-6.83-6.83-6.83-6.83,3.06-6.83,6.83ZM166.81,223.5c0-3.17,2.57-5.74,5.74-5.74s5.74,2.57,5.74,5.74-2.57,5.74-5.74,5.74-5.74-2.57-5.74-5.74Z"/>
                </g>
                <g class="cls-4">
                  <g>
                    <circle class="cls-26" cx="187.2" cy="223.58" r="6.83"/>
                    <path class="cls-27" d="M187.2,230.65c-3.9,0-7.06-3.17-7.06-7.06s3.17-7.06,7.06-7.06,7.06,3.17,7.06,7.06-3.17,7.06-7.06,7.06ZM187.2,216.98c-3.64,0-6.6,2.96-6.6,6.6s2.96,6.6,6.6,6.6,6.6-2.96,6.6-6.6-2.96-6.6-6.6-6.6Z"/>
                  </g>
                  <path class="cls-21" d="M185.86,220.42c0,1.42,1.15,2.57,2.57,2.57s2.57-1.15,2.57-2.57-1.15-2.57-2.57-2.57-2.57,1.15-2.57,2.57Z"/>
                  <path class="cls-20" d="M180.37,223.58c0,3.77,3.06,6.83,6.83,6.83s6.83-3.06,6.83-6.83-3.06-6.83-6.83-6.83-6.83,3.06-6.83,6.83ZM181.9,222.91c0-3.17,2.57-5.74,5.74-5.74s5.74,2.57,5.74,5.74-2.57,5.74-5.74,5.74-5.74-2.57-5.74-5.74Z"/>
                </g>
                <g class="cls-4">
                  <g>
                    <circle class="cls-26" cx="198.85" cy="223.5" r="5.33"/>
                    <path class="cls-27" d="M198.85,229.06c-3.06,0-5.56-2.49-5.56-5.56s2.49-5.56,5.56-5.56,5.56,2.49,5.56,5.56-2.49,5.56-5.56,5.56ZM198.85,218.41c-2.81,0-5.09,2.29-5.09,5.09s2.29,5.09,5.09,5.09,5.09-2.29,5.09-5.09-2.29-5.09-5.09-5.09Z"/>
                  </g>
                  <path class="cls-21" d="M199.9,221.04c0,1.1-.9,2-2,2s-2-.9-2-2,.9-2,2-2,2,.9,2,2Z"/>
                  <path class="cls-20" d="M198.85,218.17c-2.94,0-5.33,2.38-5.33,5.33s2.38,5.33,5.33,5.33,5.33-2.38,5.33-5.33-2.38-5.33-5.33-5.33ZM198.51,227.45c-2.47,0-4.47-2-4.47-4.47s2-4.47,4.47-4.47,4.47,2,4.47,4.47-2,4.47-4.47,4.47Z"/>
                </g>
              </g>
              <g>
                <g class="cls-4">
                  <g>
                    <path class="cls-26" d="M67.97,217.61c0,1.91,1.54,3.45,3.45,3.45s3.45-1.54,3.45-3.45-1.54-3.45-3.45-3.45-3.45,1.54-3.45,3.45Z"/>
                    <path class="cls-27" d="M71.42,221.29c-2.03,0-3.68-1.65-3.68-3.68s1.65-3.68,3.68-3.68,3.68,1.65,3.68,3.68-1.65,3.68-3.68,3.68ZM71.42,214.39c-1.77,0-3.22,1.44-3.22,3.22s1.44,3.22,3.22,3.22,3.22-1.44,3.22-3.22-1.44-3.22-3.22-3.22Z"/>
                  </g>
                  <path class="cls-21" d="M70.74,216.01c0,.72.58,1.3,1.3,1.3s1.3-.58,1.3-1.3-.58-1.3-1.3-1.3-1.3.58-1.3,1.3Z"/>
                  <path class="cls-20" d="M67.97,217.61c0,1.91,1.54,3.45,3.45,3.45s3.45-1.54,3.45-3.45-1.54-3.45-3.45-3.45-3.45,1.54-3.45,3.45ZM68.75,217.27c0-1.6,1.3-2.9,2.9-2.9s2.9,1.3,2.9,2.9-1.3,2.9-2.9,2.9-2.9-1.3-2.9-2.9Z"/>
                </g>
                <g class="cls-4">
                  <g>
                    <path class="cls-26" d="M93.96,218.41c0,1.91,1.54,3.45,3.45,3.45s3.45-1.54,3.45-3.45-1.54-3.45-3.45-3.45-3.45,1.54-3.45,3.45Z"/>
                    <path class="cls-27" d="M97.41,222.1c-2.03,0-3.68-1.65-3.68-3.68s1.65-3.68,3.68-3.68,3.68,1.65,3.68,3.68-1.65,3.68-3.68,3.68ZM97.41,215.2c-1.77,0-3.22,1.44-3.22,3.22s1.44,3.22,3.22,3.22,3.22-1.44,3.22-3.22-1.44-3.22-3.22-3.22Z"/>
                  </g>
                  <path class="cls-21" d="M96.74,216.82c0,.72.58,1.3,1.3,1.3s1.3-.58,1.3-1.3-.58-1.3-1.3-1.3-1.3.58-1.3,1.3Z"/>
                  <path class="cls-20" d="M93.96,218.41c0,1.91,1.54,3.45,3.45,3.45s3.45-1.54,3.45-3.45-1.54-3.45-3.45-3.45-3.45,1.54-3.45,3.45ZM94.74,218.07c0-1.6,1.3-2.9,2.9-2.9s2.9,1.3,2.9,2.9-1.3,2.9-2.9,2.9-2.9-1.3-2.9-2.9Z"/>
                </g>
                <g class="cls-4">
                  <g>
                    <path class="cls-26" d="M84.33,214.43c0,1.35,1.09,2.45,2.45,2.45s2.45-1.09,2.45-2.45-1.09-2.45-2.45-2.45-2.45,1.09-2.45,2.45Z"/>
                    <path class="cls-27" d="M86.78,217.11c-1.48,0-2.68-1.2-2.68-2.68s1.2-2.68,2.68-2.68,2.68,1.2,2.68,2.68-1.2,2.68-2.68,2.68ZM86.78,212.22c-1.22,0-2.21.99-2.21,2.21s.99,2.21,2.21,2.21,2.21-.99,2.21-2.21-.99-2.21-2.21-2.21Z"/>
                  </g>
                  <path class="cls-21" d="M86.3,213.3c0,.51.41.92.92.92s.92-.41.92-.92-.41-.92-.92-.92-.92.41-.92.92Z"/>
                  <path class="cls-20" d="M84.33,214.43c0,1.35,1.09,2.45,2.45,2.45s2.45-1.09,2.45-2.45-1.09-2.45-2.45-2.45-2.45,1.09-2.45,2.45ZM84.88,214.19c0-1.13.92-2.05,2.05-2.05s2.05.92,2.05,2.05-.92,2.05-2.05,2.05-2.05-.92-2.05-2.05Z"/>
                </g>
                <g class="cls-4">
                  <g>
                    <path class="cls-26" d="M120.24,207.5c0,1.35,1.09,2.45,2.45,2.45s2.45-1.09,2.45-2.45-1.09-2.45-2.45-2.45-2.45,1.09-2.45,2.45Z"/>
                    <path class="cls-27" d="M122.68,210.18c-1.48,0-2.68-1.2-2.68-2.68s1.2-2.68,2.68-2.68,2.68,1.2,2.68,2.68-1.2,2.68-2.68,2.68ZM122.68,205.29c-1.22,0-2.21.99-2.21,2.21s.99,2.21,2.21,2.21,2.21-.99,2.21-2.21-.99-2.21-2.21-2.21Z"/>
                  </g>
                  <circle class="cls-21" cx="123.12" cy="206.37" r=".92"/>
                  <path class="cls-20" d="M120.24,207.5c0,1.35,1.09,2.45,2.45,2.45s2.45-1.09,2.45-2.45-1.09-2.45-2.45-2.45-2.45,1.09-2.45,2.45ZM120.79,207.26c0-1.13.92-2.05,2.05-2.05s2.05.92,2.05,2.05-.92,2.05-2.05,2.05-2.05-.92-2.05-2.05Z"/>
                </g>
                <g class="cls-4">
                  <g>
                    <path class="cls-26" d="M108.32,214.43c0,1.35,1.09,2.45,2.45,2.45s2.45-1.09,2.45-2.45-1.09-2.45-2.45-2.45-2.45,1.09-2.45,2.45Z"/>
                    <path class="cls-27" d="M110.76,217.11c-1.48,0-2.68-1.2-2.68-2.68s1.2-2.68,2.68-2.68,2.68,1.2,2.68,2.68-1.2,2.68-2.68,2.68ZM110.76,212.22c-1.22,0-2.21.99-2.21,2.21s.99,2.21,2.21,2.21,2.21-.99,2.21-2.21-.99-2.21-2.21-2.21Z"/>
                  </g>
                  <path class="cls-21" d="M110.28,213.3c0,.51.41.92.92.92s.92-.41.92-.92-.41-.92-.92-.92-.92.41-.92.92Z"/>
                  <path class="cls-20" d="M108.32,214.43c0,1.35,1.09,2.45,2.45,2.45s2.45-1.09,2.45-2.45-1.09-2.45-2.45-2.45-2.45,1.09-2.45,2.45ZM108.87,214.19c0-1.13.92-2.05,2.05-2.05s2.05.92,2.05,2.05-.92,2.05-2.05,2.05-2.05-.92-2.05-2.05Z"/>
                </g>
                <g class="cls-4">
                  <g>
                    <path class="cls-26" d="M57.81,214.43c0,1.91,1.54,3.45,3.45,3.45s3.45-1.54,3.45-3.45-1.54-3.45-3.45-3.45-3.45,1.54-3.45,3.45Z"/>
                    <path class="cls-27" d="M61.26,218.12c-2.03,0-3.68-1.65-3.68-3.68s1.65-3.68,3.68-3.68,3.68,1.65,3.68,3.68-1.65,3.68-3.68,3.68ZM61.26,211.22c-1.77,0-3.22,1.44-3.22,3.22s1.44,3.22,3.22,3.22,3.22-1.44,3.22-3.22-1.44-3.22-3.22-3.22Z"/>
                  </g>
                  <circle class="cls-21" cx="61.88" cy="212.84" r="1.3"/>
                  <path class="cls-20" d="M57.81,214.43c0,1.91,1.54,3.45,3.45,3.45s3.45-1.54,3.45-3.45-1.54-3.45-3.45-3.45-3.45,1.54-3.45,3.45ZM58.58,214.09c0-1.6,1.3-2.9,2.9-2.9s2.9,1.3,2.9,2.9-1.3,2.9-2.9,2.9-2.9-1.3-2.9-2.9Z"/>
                </g>
                <g class="cls-4">
                  <g>
                    <circle class="cls-26" cx="41.42" cy="222.53" r="8.75"/>
                    <path class="cls-27" d="M41.42,231.51c-4.95,0-8.98-4.03-8.98-8.98s4.03-8.98,8.98-8.98,8.98,4.03,8.98,8.98-4.03,8.98-8.98,8.98ZM41.42,214.02c-4.69,0-8.51,3.82-8.51,8.51s3.82,8.51,8.51,8.51,8.51-3.82,8.51-8.51-3.82-8.51-8.51-8.51Z"/>
                  </g>
                  <path class="cls-21" d="M39.7,218.48c0,1.81,1.47,3.29,3.29,3.29s3.29-1.47,3.29-3.29-1.47-3.29-3.29-3.29-3.29,1.47-3.29,3.29Z"/>
                  <path class="cls-20" d="M32.67,222.53c0,4.83,3.92,8.75,8.75,8.75s8.75-3.92,8.75-8.75-3.92-8.75-8.75-8.75-8.75,3.92-8.75,8.75ZM34.64,221.66c0-4.06,3.29-7.35,7.35-7.35s7.35,3.29,7.35,7.35-3.29,7.35-7.35,7.35-7.35-3.29-7.35-7.35Z"/>
                </g>
                <g class="cls-4">
                  <g>
                    <circle class="cls-26" cx="54.27" cy="218.99" r="8.75" transform="translate(-138.96 102.52) rotate(-45)"/>
                    <path class="cls-27" d="M54.27,227.97c-4.95,0-8.98-4.03-8.98-8.98s4.03-8.98,8.98-8.98,8.98,4.03,8.98,8.98-4.03,8.98-8.98,8.98ZM54.27,210.48c-4.69,0-8.51,3.82-8.51,8.51s3.82,8.51,8.51,8.51,8.51-3.82,8.51-8.51-3.82-8.51-8.51-8.51Z"/>
                  </g>
                  <path class="cls-21" d="M52.55,214.95c0,1.81,1.47,3.29,3.29,3.29s3.29-1.47,3.29-3.29-1.47-3.29-3.29-3.29-3.29,1.47-3.29,3.29Z"/>
                  <path class="cls-20" d="M45.53,218.99c0,4.83,3.92,8.75,8.75,8.75s8.75-3.92,8.75-8.75-3.92-8.75-8.75-8.75-8.75,3.92-8.75,8.75ZM47.49,218.13c0-4.06,3.29-7.35,7.35-7.35s7.35,3.29,7.35,7.35-3.29,7.35-7.35,7.35-7.35-3.29-7.35-7.35Z"/>
                </g>
                <g class="cls-4">
                  <g>
                    <circle class="cls-26" cx="115.2" cy="218.99" r="8.75" transform="translate(-47.23 32.33) rotate(-13.28)"/>
                    <path class="cls-27" d="M115.2,227.97c-4.95,0-8.98-4.03-8.98-8.98s4.03-8.98,8.98-8.98,8.98,4.03,8.98,8.98-4.03,8.98-8.98,8.98ZM115.2,210.48c-4.7,0-8.51,3.82-8.51,8.51s3.82,8.51,8.51,8.51,8.51-3.82,8.51-8.51-3.82-8.51-8.51-8.51Z"/>
                  </g>
                  <path class="cls-21" d="M113.48,214.95c0,1.81,1.47,3.29,3.29,3.29s3.29-1.47,3.29-3.29-1.47-3.29-3.29-3.29-3.29,1.47-3.29,3.29Z"/>
                  <path class="cls-20" d="M106.45,218.99c0,4.83,3.92,8.75,8.75,8.75s8.75-3.92,8.75-8.75-3.92-8.75-8.75-8.75-8.75,3.92-8.75,8.75ZM108.42,218.13c0-4.06,3.29-7.35,7.35-7.35s7.35,3.29,7.35,7.35-3.29,7.35-7.35,7.35-7.35-3.29-7.35-7.35Z"/>
                </g>
                <g class="cls-4">
                  <g>
                    <circle class="cls-26" cx="80.71" cy="220.11" r="6.83" transform="translate(-132.01 121.54) rotate(-45)"/>
                    <path class="cls-27" d="M80.71,227.18c-3.9,0-7.06-3.17-7.06-7.06s3.17-7.06,7.06-7.06,7.06,3.17,7.06,7.06-3.17,7.06-7.06,7.06ZM80.71,213.51c-3.64,0-6.6,2.96-6.6,6.6s2.96,6.6,6.6,6.6,6.6-2.96,6.6-6.6-2.96-6.6-6.6-6.6Z"/>
                  </g>
                  <circle class="cls-21" cx="79.48" cy="216.95" r="2.57"/>
                  <path class="cls-20" d="M80.71,213.28c-3.77,0-6.83,3.06-6.83,6.83s3.06,6.83,6.83,6.83,6.83-3.06,6.83-6.83-3.06-6.83-6.83-6.83ZM80.26,225.18c-3.17,0-5.74-2.57-5.74-5.74s2.57-5.74,5.74-5.74,5.74,2.57,5.74,5.74-2.57,5.74-5.74,5.74Z"/>
                </g>
                <g class="cls-4">
                  <g>
                    <circle class="cls-26" cx="129.3" cy="223.81" r="6.83" transform="translate(-75.81 66.52) rotate(-22.5)"/>
                    <path class="cls-27" d="M129.3,230.88c-3.9,0-7.06-3.17-7.06-7.06s3.17-7.06,7.06-7.06,7.06,3.17,7.06,7.06-3.17,7.06-7.06,7.06ZM129.3,217.21c-3.64,0-6.6,2.96-6.6,6.6s2.96,6.6,6.6,6.6,6.6-2.96,6.6-6.6-2.96-6.6-6.6-6.6Z"/>
                  </g>
                  <circle class="cls-21" cx="128.08" cy="220.65" r="2.57"/>
                  <path class="cls-20" d="M129.3,216.98c-3.77,0-6.83,3.06-6.83,6.83s3.06,6.83,6.83,6.83,6.83-3.06,6.83-6.83-3.06-6.83-6.83-6.83ZM128.86,228.88c-3.17,0-5.74-2.57-5.74-5.74s2.57-5.74,5.74-5.74,5.74,2.57,5.74,5.74-2.57,5.74-5.74,5.74Z"/>
                </g>
                <g class="cls-4">
                  <g>
                    <circle class="cls-26" cx="150.76" cy="220.73" r="6.83" transform="translate(-91.27 334.19) rotate(-80.78)"/>
                    <path class="cls-27" d="M150.76,227.8c-3.9,0-7.06-3.17-7.06-7.06s3.17-7.06,7.06-7.06,7.06,3.17,7.06,7.06-3.17,7.06-7.06,7.06ZM150.76,214.13c-3.64,0-6.6,2.96-6.6,6.6s2.96,6.6,6.6,6.6,6.6-2.96,6.6-6.6-2.96-6.6-6.6-6.6Z"/>
                  </g>
                  <circle class="cls-21" cx="149.54" cy="217.57" r="2.57"/>
                  <path class="cls-20" d="M150.76,213.9c-3.77,0-6.83,3.06-6.83,6.83s3.06,6.83,6.83,6.83,6.83-3.06,6.83-6.83-3.06-6.83-6.83-6.83ZM150.32,225.79c-3.17,0-5.74-2.57-5.74-5.74s2.57-5.74,5.74-5.74,5.74,2.57,5.74,5.74-2.57,5.74-5.74,5.74Z"/>
                </g>
                <g class="cls-4">
                  <g>
                    <circle class="cls-26" cx="136.65" cy="217.65" r="6.83" transform="translate(-100.09 317.67) rotate(-80.78)"/>
                    <path class="cls-27" d="M136.65,224.72c-3.9,0-7.06-3.17-7.06-7.06s3.17-7.06,7.06-7.06,7.06,3.17,7.06,7.06-3.17,7.06-7.06,7.06ZM136.65,211.05c-3.64,0-6.6,2.96-6.6,6.6s2.96,6.6,6.6,6.6,6.6-2.96,6.6-6.6-2.96-6.6-6.6-6.6Z"/>
                  </g>
                  <circle class="cls-21" cx="135.42" cy="214.49" r="2.57"/>
                  <path class="cls-20" d="M136.65,210.82c-3.77,0-6.83,3.06-6.83,6.83s3.06,6.83,6.83,6.83,6.83-3.06,6.83-6.83-3.06-6.83-6.83-6.83ZM136.2,222.72c-3.17,0-5.74-2.57-5.74-5.74s2.57-5.74,5.74-5.74,5.74,2.57,5.74,5.74-2.57,5.74-5.74,5.74Z"/>
                </g>
                <g class="cls-4">
                  <g>
                    <circle class="cls-26" cx="66.8" cy="222.88" r="6.83" transform="translate(-165.46 236.69) rotate(-76.72)"/>
                    <path class="cls-27" d="M66.8,229.94c-3.9,0-7.06-3.17-7.06-7.06s3.17-7.06,7.06-7.06,7.06,3.17,7.06,7.06-3.17,7.06-7.06,7.06ZM66.8,216.28c-3.64,0-6.6,2.96-6.6,6.6s2.96,6.6,6.6,6.6,6.6-2.96,6.6-6.6-2.96-6.6-6.6-6.6Z"/>
                  </g>
                  <path class="cls-21" d="M68.14,219.72c0,1.42-1.15,2.57-2.57,2.57s-2.57-1.15-2.57-2.57,1.15-2.57,2.57-2.57,2.57,1.15,2.57,2.57Z"/>
                  <path class="cls-20" d="M66.8,216.05c-3.77,0-6.83,3.06-6.83,6.83s3.06,6.83,6.83,6.83,6.83-3.06,6.83-6.83-3.06-6.83-6.83-6.83ZM66.36,227.94c-3.17,0-5.74-2.57-5.74-5.74s2.57-5.74,5.74-5.74,5.74,2.57,5.74,5.74-2.57,5.74-5.74,5.74Z"/>
                </g>
                <g class="cls-4">
                  <g>
                    <path class="cls-26" d="M27.35,218.88c0,2.94,2.38,5.33,5.33,5.33s5.33-2.38,5.33-5.33-2.38-5.33-5.33-5.33-5.33,2.38-5.33,5.33Z"/>
                    <path class="cls-27" d="M32.67,224.44c-3.06,0-5.56-2.49-5.56-5.56s2.49-5.56,5.56-5.56,5.56,2.49,5.56,5.56-2.49,5.56-5.56,5.56ZM32.67,213.78c-2.81,0-5.09,2.29-5.09,5.09s2.29,5.09,5.09,5.09,5.09-2.29,5.09-5.09-2.29-5.09-5.09-5.09Z"/>
                  </g>
                  <path class="cls-21" d="M31.63,216.41c0,1.11.9,2,2,2s2-.9,2-2-.9-2-2-2-2,.9-2,2Z"/>
                  <path class="cls-20" d="M27.35,218.88c0,2.94,2.38,5.33,5.33,5.33s5.33-2.38,5.33-5.33-2.38-5.33-5.33-5.33-5.33,2.38-5.33,5.33ZM28.54,218.35c0-2.47,2-4.47,4.47-4.47s4.47,2,4.47,4.47-2,4.47-4.47,4.47-4.47-2-4.47-4.47Z"/>
                </g>
              </g>
              <g>
                <g>
                  <g>
                    <g>
                      <g>
                        <path class="cls-42" d="M46.1,308.36c0,1.24-2.06,2.25-4.59,2.25s-4.59-1.01-4.59-2.25,2.06-2.25,4.59-2.25,4.59,1.01,4.59,2.25Z"/>
                        <path class="cls-45" d="M41.5,310.82c-2.69,0-4.8-1.08-4.8-2.46s2.11-2.46,4.8-2.46,4.8,1.08,4.8,2.46-2.11,2.46-4.8,2.46ZM41.5,306.32c-2.38,0-4.39.93-4.39,2.04s2.01,2.04,4.39,2.04,4.39-.93,4.39-2.04-2.01-2.04-4.39-2.04Z"/>
                      </g>
                      <g>
                        <path class="cls-17" d="M41.5,310.61c-2.54,0-4.59-1.01-4.59-2.25v2.68c0,1.24,2.06,2.25,4.59,2.25s4.59-1.01,4.59-2.25v-2.68c0,1.24-2.06,2.25-4.59,2.25Z"/>
                        <path class="cls-45" d="M41.5,313.5c-2.69,0-4.8-1.08-4.8-2.46v-2.68c0-.12.09-.21.21-.21s.21.09.21.21c0,1.11,2.01,2.04,4.39,2.04s4.39-.93,4.39-2.04c0-.12.09-.21.21-.21s.21.09.21.21v2.68c0,1.38-2.11,2.46-4.8,2.46ZM37.12,309.38v1.66c0,1.11,2.01,2.04,4.39,2.04s4.39-.93,4.39-2.04v-1.66c-.74.86-2.41,1.44-4.39,1.44s-3.64-.58-4.39-1.44Z"/>
                      </g>
                      <path class="cls-24" d="M43.77,310.32v2.68c1.39-.39,2.33-1.12,2.33-1.95v-2.68c0,.84-.94,1.57-2.33,1.96Z"/>
                      <path class="cls-3" d="M38.67,310.13c-1.07-.41-1.76-1.05-1.76-1.77v2.68c0,.72.69,1.35,1.76,1.77v-2.68Z"/>
                    </g>
                    <g>
                      <path class="cls-17" d="M41.5,309.19h0c1.16,0,2.19-.76,2.52-1.87l3.66-12c.2-.66.65-1.21,1.25-1.54l4.39-2.42c-4,0-7.72-1.57-10.49-4.19l-3.93,18.88c-.32,1.63.93,3.15,2.59,3.15Z"/>
                      <path class="cls-45" d="M41.5,309.39c-.85,0-1.66-.38-2.2-1.04-.54-.66-.76-1.52-.6-2.36l3.93-18.88c.02-.07.07-.13.14-.16.07-.02.15,0,.21.05,2.8,2.67,6.48,4.14,10.34,4.14.1,0,.18.06.2.16.02.09-.02.19-.1.23l-4.39,2.42c-.56.31-.97.81-1.15,1.42l-3.66,12c-.37,1.21-1.46,2.02-2.72,2.02ZM42.98,287.56l-3.86,18.52c-.14.71.05,1.45.51,2.01.46.56,1.15.89,1.88.89,1.08,0,2.01-.69,2.33-1.72l3.66-12c.22-.71.7-1.31,1.35-1.67l3.72-2.04c-3.56-.18-6.93-1.57-9.58-3.98Z"/>
                    </g>
                    <path class="cls-24" d="M48.07,290.39l-1.62.89c-.6.33-1.05.89-1.25,1.54l-3.66,12c-.34,1.11-1.36,1.87-2.52,1.87-.06,0-.12,0-.18,0,.09,1.35,1.21,2.47,2.63,2.47,1.16,0,2.19-.76,2.52-1.87l3.66-12c.2-.66.65-1.21,1.25-1.54l4.39-2.42c-1.82,0-3.59-.33-5.23-.93Z"/>
                  </g>
                  <g>
                    <g>
                      <g>
                        <path class="cls-42" d="M199.1,308.36c0,1.24,2.06,2.25,4.59,2.25s4.59-1.01,4.59-2.25-2.06-2.25-4.59-2.25-4.59,1.01-4.59,2.25Z"/>
                        <path class="cls-45" d="M203.7,310.82c-2.69,0-4.8-1.08-4.8-2.46s2.11-2.46,4.8-2.46,4.8,1.08,4.8,2.46-2.11,2.46-4.8,2.46ZM203.7,306.32c-2.38,0-4.39.93-4.39,2.04s2.01,2.04,4.39,2.04,4.39-.93,4.39-2.04-2.01-2.04-4.39-2.04Z"/>
                      </g>
                      <g>
                        <path class="cls-17" d="M203.7,310.61c2.54,0,4.59-1.01,4.59-2.25v2.68c0,1.24-2.06,2.25-4.59,2.25s-4.59-1.01-4.59-2.25v-2.68c0,1.24,2.06,2.25,4.59,2.25Z"/>
                        <path class="cls-45" d="M203.7,313.5c-2.69,0-4.8-1.08-4.8-2.46v-2.68c0-.12.09-.21.21-.21s.21.09.21.21c0,1.11,2.01,2.04,4.39,2.04s4.39-.93,4.39-2.04c0-.12.09-.21.21-.21s.21.09.21.21v2.68c0,1.38-2.11,2.46-4.8,2.46ZM199.31,309.38v1.66c0,1.11,2.01,2.04,4.39,2.04s4.39-.93,4.39-2.04v-1.66c-.74.86-2.41,1.44-4.39,1.44s-3.64-.58-4.39-1.44Z"/>
                      </g>
                      <path class="cls-24" d="M201.43,310.32v2.68c-1.39-.39-2.33-1.12-2.33-1.95v-2.68c0,.84.94,1.57,2.33,1.96Z"/>
                      <path class="cls-3" d="M206.54,310.13c1.07-.41,1.76-1.05,1.76-1.77v2.68c0,.72-.69,1.35-1.76,1.77v-2.68Z"/>
                    </g>
                    <g>
                      <path class="cls-17" d="M203.7,309.19h0c-1.16,0-2.19-.76-2.52-1.87l-3.66-12c-.2-.66-.65-1.21-1.25-1.54l-4.39-2.42c4,0,7.72-1.57,10.49-4.19l3.93,18.88c.32,1.63-.93,3.15-2.59,3.15Z"/>
                      <path class="cls-45" d="M203.7,309.39c-1.26,0-2.36-.81-2.72-2.02l-3.66-12c-.19-.61-.6-1.11-1.15-1.42l-4.39-2.42c-.08-.05-.12-.14-.1-.23.02-.09.11-.16.2-.16,3.87,0,7.54-1.47,10.34-4.14.05-.05.13-.07.21-.05.07.02.13.08.14.16l3.93,18.88c.17.84-.05,1.7-.59,2.36-.54.66-1.34,1.04-2.2,1.04ZM192.65,291.54l3.72,2.04c.65.36,1.13.95,1.35,1.67l3.66,12c.31,1.03,1.25,1.72,2.33,1.72.73,0,1.41-.32,1.88-.89.46-.56.65-1.3.51-2.01l-3.86-18.51c-2.65,2.41-6.02,3.8-9.58,3.98Z"/>
                    </g>
                    <path class="cls-24" d="M197.14,290.39l1.62.89c.6.33,1.05.89,1.25,1.54l3.66,12c.34,1.11,1.36,1.87,2.52,1.87.06,0,.12,0,.18,0-.09,1.35-1.21,2.47-2.63,2.47-1.16,0-2.19-.76-2.52-1.87l-3.66-12c-.2-.66-.65-1.21-1.25-1.54l-4.39-2.42c1.82,0,3.59-.33,5.23-.93Z"/>
                  </g>
                </g>
                <g>
                  <g>
                    <g>
                      <g>
                        <path class="cls-42" d="M65.16,301.21c0,1.24-2.06,2.25-4.6,2.25-2.54,0-4.59-1.01-4.59-2.25,0-1.24,2.06-2.25,4.6-2.25,2.54,0,4.59,1.01,4.59,2.25Z"/>
                        <path class="cls-45" d="M60.57,303.66h0c-2.69,0-4.8-1.08-4.8-2.46,0-1.38,2.11-2.46,4.8-2.46,1.26,0,2.44.24,3.34.68.94.46,1.46,1.09,1.46,1.78h-.21.21c0,1.38-2.11,2.46-4.8,2.46ZM60.57,299.17c-2.38,0-4.39.93-4.39,2.04,0,1.11,2.01,2.04,4.39,2.04h0c2.38,0,4.39-.93,4.39-2.04,0-.52-.44-1.02-1.23-1.4-.84-.41-1.96-.64-3.16-.64Z"/>
                      </g>
                      <g>
                        <path class="cls-17" d="M60.57,303.46c-2.54,0-4.59-1.01-4.59-2.25v2.68c0,1.24,2.06,2.25,4.59,2.25,2.54,0,4.59-1.01,4.6-2.25v-2.68c0,1.24-2.06,2.25-4.59,2.25Z"/>
                        <path class="cls-45" d="M60.57,306.35h0c-1.26,0-2.44-.24-3.34-.68-.94-.46-1.46-1.09-1.46-1.78v-2.68c0-.12.09-.21.21-.21h0c.12,0,.21.09.21.21h0c0,.52.44,1.02,1.23,1.4.84.41,1.96.64,3.16.64h0c2.38,0,4.39-.93,4.39-2.04,0-.12.09-.21.21-.21h0c.12,0,.21.09.21.21v2.68c0,.68-.52,1.32-1.46,1.78-.9.44-2.08.68-3.34.68ZM56.18,302.22v1.66c0,.52.44,1.02,1.23,1.4.84.41,1.96.64,3.16.64h0c1.2,0,2.32-.23,3.16-.64.79-.39,1.23-.89,1.23-1.4v-1.66c-.74.86-2.41,1.44-4.38,1.44h0c-1.26,0-2.44-.24-3.34-.68-.45-.22-.8-.48-1.05-.76Z"/>
                      </g>
                      <path class="cls-24" d="M62.83,303.16v2.68c1.39-.39,2.33-1.12,2.33-1.95v-2.68c0,.84-.94,1.57-2.33,1.95Z"/>
                      <path class="cls-3" d="M57.73,302.97c-1.07-.41-1.76-1.05-1.76-1.77v2.68c0,.72.69,1.36,1.76,1.77v-2.68Z"/>
                    </g>
                    <g>
                      <path class="cls-17" d="M60.57,302.03h0c1.16,0,2.19-.76,2.52-1.87l3.66-12c.2-.66.65-1.21,1.25-1.54l4.39-2.42c-4,0-7.72-1.57-10.49-4.19l-3.93,18.88c-.32,1.63.93,3.15,2.59,3.15Z"/>
                      <path class="cls-45" d="M60.57,302.24h0c-.85,0-1.66-.38-2.2-1.04-.54-.66-.76-1.52-.6-2.36l3.94-18.88c.02-.07.07-.13.14-.16.07-.02.15,0,.21.05,2.8,2.67,6.48,4.14,10.34,4.14.1,0,.18.06.2.16.02.09-.02.19-.1.23l-4.39,2.42c-.56.31-.97.81-1.15,1.42l-3.66,12c-.37,1.21-1.46,2.02-2.72,2.02ZM62.04,280.41l-3.86,18.52c-.14.71.05,1.45.51,2.01.46.56,1.15.89,1.88.89,1.08,0,2.01-.69,2.33-1.72l3.66-12c.22-.71.7-1.31,1.35-1.67l3.72-2.04c-3.56-.18-6.93-1.57-9.58-3.98Z"/>
                    </g>
                    <path class="cls-24" d="M67.13,283.23l-1.62.89c-.6.33-1.05.89-1.25,1.54l-3.66,12c-.34,1.11-1.36,1.87-2.52,1.87-.06,0-.12,0-.18,0,.09,1.35,1.21,2.47,2.63,2.47,1.16,0,2.19-.76,2.53-1.87l3.66-12c.2-.66.65-1.21,1.25-1.54l4.39-2.42c-1.82,0-3.59-.33-5.23-.93Z"/>
                  </g>
                  <g>
                    <g>
                      <g>
                        <path class="cls-42" d="M180.01,301.23c0,1.24,2.06,2.25,4.59,2.25,2.54,0,4.59-1.01,4.6-2.25,0-1.24-2.06-2.25-4.59-2.25-2.54,0-4.59,1.01-4.6,2.25Z"/>
                        <path class="cls-45" d="M184.6,303.68h0c-2.69,0-4.8-1.08-4.8-2.46h0c0-1.38,2.11-2.46,4.8-2.46h0c1.26,0,2.44.24,3.34.68.94.46,1.46,1.09,1.46,1.78,0,.68-.52,1.32-1.46,1.78-.9.44-2.08.68-3.34.68ZM180.22,301.23c0,1.11,2.01,2.04,4.39,2.04h0c1.2,0,2.32-.23,3.16-.64.79-.39,1.23-.89,1.23-1.4s-.44-1.02-1.23-1.4c-.84-.41-1.96-.64-3.16-.64h0c-2.38,0-4.39.93-4.39,2.04h0Z"/>
                      </g>
                      <g>
                        <path class="cls-17" d="M184.6,303.48c2.54,0,4.59-1.01,4.6-2.25v2.68c0,1.24-2.06,2.25-4.6,2.25-2.54,0-4.59-1.01-4.59-2.25v-2.68c0,1.24,2.06,2.25,4.59,2.25Z"/>
                        <path class="cls-45" d="M184.6,306.37h0c-1.26,0-2.44-.24-3.34-.68-.94-.46-1.46-1.09-1.46-1.78v-2.68c0-.12.09-.21.21-.21s.21.09.21.21c0,1.11,2.01,2.04,4.39,2.04h0c1.2,0,2.32-.23,3.16-.64.79-.39,1.23-.89,1.23-1.4h0c0-.12.09-.21.21-.21h0c.12,0,.21.09.21.21v2.68c0,.68-.52,1.32-1.46,1.78-.9.44-2.08.68-3.34.68ZM180.22,302.24v1.66c0,.52.44,1.02,1.23,1.4.84.41,1.96.64,3.16.64h0c1.2,0,2.32-.23,3.16-.64.79-.39,1.23-.89,1.23-1.4v-1.66c-.25.28-.6.54-1.05.76-.9.44-2.08.68-3.34.68h0c-1.98,0-3.64-.58-4.39-1.44Z"/>
                      </g>
                      <path class="cls-24" d="M182.34,303.18v2.68c-1.39-.39-2.33-1.12-2.33-1.96v-2.68c0,.84.94,1.57,2.33,1.96Z"/>
                      <path class="cls-3" d="M187.44,302.99c1.07-.41,1.76-1.05,1.76-1.77v2.68c0,.72-.69,1.35-1.76,1.77v-2.68Z"/>
                    </g>
                    <g>
                      <path class="cls-17" d="M184.6,302.05h0c-1.16,0-2.19-.76-2.52-1.87l-3.66-12c-.2-.66-.65-1.21-1.25-1.54l-4.39-2.42c4,0,7.72-1.56,10.49-4.19l3.93,18.88c.32,1.63-.93,3.15-2.59,3.15Z"/>
                      <path class="cls-45" d="M184.6,302.26h0c-1.26,0-2.36-.81-2.72-2.02l-3.66-12c-.19-.61-.59-1.11-1.15-1.42l-4.39-2.42c-.08-.05-.12-.14-.1-.23.02-.09.11-.16.2-.16h0c3.86,0,7.54-1.47,10.34-4.13.05-.05.13-.07.21-.05.07.02.13.08.14.16l3.93,18.88c.16.84-.05,1.7-.6,2.36-.54.66-1.34,1.04-2.2,1.04ZM173.55,284.41l3.72,2.04c.65.36,1.13.95,1.35,1.67l3.66,12c.31,1.03,1.25,1.72,2.33,1.72h0c.73,0,1.41-.32,1.88-.89.46-.56.65-1.3.51-2.01l-3.85-18.51c-2.65,2.41-6.02,3.8-9.58,3.98Z"/>
                    </g>
                    <path class="cls-24" d="M178.04,283.25l1.62.89c.6.33,1.05.89,1.25,1.54l3.66,12c.34,1.11,1.36,1.87,2.52,1.87.06,0,.12,0,.18,0-.09,1.35-1.21,2.47-2.63,2.47-1.16,0-2.19-.76-2.52-1.87l-3.66-12c-.2-.66-.65-1.21-1.25-1.54l-4.39-2.42c1.82,0,3.59-.33,5.23-.93Z"/>
                  </g>
                </g>
                <g>
                  <g>
                    <path class="cls-1" d="M191.87,291.35H53.33c-6.72,0-12.64-4.4-14.57-10.84l-15.6-51.95h198.89l-15.6,51.95c-1.93,6.43-7.85,10.84-14.57,10.84Z"/>
                    <path class="cls-45" d="M191.87,291.56H53.33c-6.86,0-12.8-4.42-14.77-10.99l-15.68-52.22h199.45l-15.68,52.22c-1.97,6.57-7.91,10.99-14.77,10.99ZM23.44,228.77l15.52,51.69c1.92,6.39,7.7,10.69,14.37,10.69h138.54c6.68,0,12.45-4.3,14.37-10.69l15.52-51.69H23.44Z"/>
                  </g>
                  <polygon class="cls-24" points="220.98 232.12 222.05 228.56 23.16 228.56 24.23 232.12 220.98 232.12"/>
                  <path class="cls-24" d="M191.87,291.35H53.33c-6.72,0-12.64-4.4-14.57-10.84l-15.6-51.95s22.71,54.11,99.04,54.11c85.68,0,99.84-54.11,99.84-54.11l-15.6,51.95c-1.93,6.43-7.85,10.84-14.57,10.84Z"/>
                  <path class="cls-3" d="M41.5,235.06h166.79s-86.8,42.18-166.79,0Z"/>
                </g>
                <g>
                  <g>
                    <path class="cls-1" d="M227.46,228.74H17.74c-2.18,0-3.96-1.78-3.96-3.96h0c0-2.18,1.78-3.96,3.96-3.96h209.72c2.18,0,3.96,1.78,3.96,3.96h0c0,2.18-1.78,3.96-3.96,3.96Z"/>
                    <path class="cls-45" d="M227.46,228.95H17.74c-2.3,0-4.17-1.87-4.17-4.17s1.87-4.17,4.17-4.17h209.72c2.3,0,4.17,1.87,4.17,4.17s-1.87,4.17-4.17,4.17ZM17.74,221.03c-2.07,0-3.75,1.68-3.75,3.75s1.68,3.75,3.75,3.75h209.72c2.07,0,3.75-1.68,3.75-3.75s-1.68-3.75-3.75-3.75H17.74Z"/>
                  </g>
                  <path class="cls-24" d="M227.46,224.97H17.74c-1.5,0-2.8-.84-3.48-2.07-.31.56-.48,1.21-.48,1.89,0,2.18,1.78,3.96,3.96,3.96h209.72c2.18,0,3.96-1.78,3.96-3.96,0-.68-.18-1.33-.48-1.89-.67,1.23-1.98,2.07-3.48,2.07Z"/>
                  <path class="cls-3" d="M17.76,221.89h208.16s-107.3,5.32-208.16,0Z"/>
                </g>
              </g>
              <g>
                <g class="cls-4">
                  <g>
                    <circle class="cls-26" cx="181.59" cy="144.73" r="9.01"/>
                    <path class="cls-27" d="M181.59,153.92c-5.07,0-9.19-4.12-9.19-9.19s4.12-9.19,9.19-9.19,9.19,4.12,9.19,9.19-4.12,9.19-9.19,9.19ZM181.59,135.9c-4.87,0-8.83,3.96-8.83,8.83s3.96,8.83,8.83,8.83,8.83-3.96,8.83-8.83-3.96-8.83-8.83-8.83Z"/>
                  </g>
                  <path class="cls-21" d="M183.36,140.56c0,1.87-1.52,3.38-3.38,3.38s-3.38-1.52-3.38-3.38,1.52-3.38,3.38-3.38,3.38,1.52,3.38,3.38Z"/>
                  <path class="cls-20" d="M181.59,135.72c-4.98,0-9.01,4.03-9.01,9.01s4.03,9.01,9.01,9.01,9.01-4.03,9.01-9.01-4.03-9.01-9.01-9.01ZM181,151.41c-4.18,0-7.57-3.39-7.57-7.57s3.39-7.57,7.57-7.57,7.57,3.39,7.57,7.57-3.39,7.57-7.57,7.57Z"/>
                </g>
                <g class="cls-4">
                  <g>
                    <circle class="cls-26" cx="159.38" cy="236.8" r="9.01" transform="translate(-120.76 182.06) rotate(-45)"/>
                    <path class="cls-27" d="M159.38,245.99c-5.07,0-9.19-4.12-9.19-9.19s4.12-9.19,9.19-9.19,9.19,4.12,9.19,9.19-4.12,9.19-9.19,9.19ZM159.38,227.97c-4.87,0-8.83,3.96-8.83,8.83s3.96,8.83,8.83,8.83,8.83-3.96,8.83-8.83-3.96-8.83-8.83-8.83Z"/>
                  </g>
                  <path class="cls-21" d="M161.15,232.64c0,1.87-1.52,3.38-3.38,3.38s-3.38-1.52-3.38-3.38,1.52-3.38,3.38-3.38,3.38,1.52,3.38,3.38Z"/>
                  <path class="cls-20" d="M159.38,227.79c-4.98,0-9.01,4.03-9.01,9.01s4.03,9.01,9.01,9.01,9.01-4.03,9.01-9.01-4.03-9.01-9.01-9.01ZM158.8,243.48c-4.18,0-7.57-3.39-7.57-7.57s3.39-7.57,7.57-7.57,7.57,3.39,7.57,7.57-3.39,7.57-7.57,7.57Z"/>
                </g>
                <g class="cls-4">
                  <g>
                    <circle class="cls-26" cx="112.3" cy="131.55" r="9.01" transform="translate(-60.13 117.94) rotate(-45)"/>
                    <path class="cls-27" d="M112.3,140.74c-5.07,0-9.19-4.12-9.19-9.19s4.12-9.19,9.19-9.19,9.19,4.12,9.19,9.19-4.12,9.19-9.19,9.19ZM112.3,122.72c-4.87,0-8.83,3.96-8.83,8.83s3.96,8.83,8.83,8.83,8.83-3.96,8.83-8.83-3.96-8.83-8.83-8.83Z"/>
                  </g>
                  <circle class="cls-21" cx="113.92" cy="127.39" r="3.38"/>
                  <path class="cls-20" d="M103.29,131.55c0,4.98,4.03,9.01,9.01,9.01s9.01-4.03,9.01-9.01-4.03-9.01-9.01-9.01-9.01,4.03-9.01,9.01ZM105.32,130.66c0-4.18,3.39-7.57,7.57-7.57s7.57,3.39,7.57,7.57-3.39,7.57-7.57,7.57-7.57-3.39-7.57-7.57Z"/>
                </g>
                <g class="cls-4">
                  <g>
                    <circle class="cls-26" cx="32.29" cy="197.12" r="9.01" transform="translate(-44.43 12.69) rotate(-13.28)"/>
                    <path class="cls-27" d="M32.29,206.31c-5.07,0-9.19-4.12-9.19-9.19s4.12-9.19,9.19-9.19,9.19,4.12,9.19,9.19-4.12,9.19-9.19,9.19ZM32.29,188.29c-4.87,0-8.83,3.96-8.83,8.83s3.96,8.83,8.83,8.83,8.83-3.96,8.83-8.83-3.96-8.83-8.83-8.83Z"/>
                  </g>
                  <path class="cls-21" d="M30.52,192.96c0,1.87,1.52,3.38,3.38,3.38s3.38-1.52,3.38-3.38-1.52-3.38-3.38-3.38-3.38,1.52-3.38,3.38Z"/>
                  <path class="cls-20" d="M23.28,197.12c0,4.98,4.03,9.01,9.01,9.01s9.01-4.03,9.01-9.01-4.03-9.01-9.01-9.01-9.01,4.03-9.01,9.01ZM25.31,196.23c0-4.18,3.39-7.57,7.57-7.57s7.57,3.39,7.57,7.57-3.39,7.57-7.57,7.57-7.57-3.39-7.57-7.57Z"/>
                </g>
                <g class="cls-4">
                  <g>
                    <circle class="cls-26" cx="60.47" cy="135.26" r="13.53" transform="translate(-29.46 17.51) rotate(-13.28)"/>
                    <path class="cls-27" d="M60.47,148.97c-7.56,0-13.71-6.15-13.71-13.71s6.15-13.71,13.71-13.71,13.71,6.15,13.71,13.71-6.15,13.71-13.71,13.71ZM60.47,121.91c-7.36,0-13.35,5.99-13.35,13.35s5.99,13.35,13.35,13.35,13.35-5.99,13.35-13.35-5.99-13.35-13.35-13.35Z"/>
                  </g>
                  <path class="cls-21" d="M57.82,129.01c0,2.81,2.28,5.08,5.08,5.08s5.08-2.28,5.08-5.08-2.28-5.08-5.08-5.08-5.08,2.28-5.08,5.08Z"/>
                  <path class="cls-20" d="M46.94,135.26c0,7.47,6.06,13.53,13.53,13.53s13.53-6.06,13.53-13.53-6.06-13.53-13.53-13.53-13.53,6.06-13.53,13.53ZM49.99,133.93c0-6.28,5.09-11.37,11.37-11.37s11.37,5.09,11.37,11.37-5.09,11.37-11.37,11.37-11.37-5.09-11.37-11.37Z"/>
                </g>
                <g class="cls-4">
                  <g>
                    <path class="cls-26" d="M98.73,158.11c0,2.89,2.34,5.23,5.23,5.23s5.23-2.34,5.23-5.23-2.34-5.23-5.23-5.23-5.23,2.34-5.23,5.23Z"/>
                    <path class="cls-27" d="M103.96,163.52c-2.98,0-5.41-2.43-5.41-5.41s2.43-5.41,5.41-5.41,5.41,2.43,5.41,5.41-2.43,5.41-5.41,5.41ZM103.96,153.06c-2.79,0-5.06,2.27-5.06,5.06s2.27,5.06,5.06,5.06,5.06-2.27,5.06-5.06-2.27-5.06-5.06-5.06Z"/>
                  </g>
                  <path class="cls-21" d="M102.93,155.69c0,1.09.88,1.97,1.97,1.97s1.97-.88,1.97-1.97-.88-1.97-1.97-1.97-1.97.88-1.97,1.97Z"/>
                  <path class="cls-20" d="M98.73,158.11c0,2.89,2.34,5.23,5.23,5.23s5.23-2.34,5.23-5.23-2.34-5.23-5.23-5.23-5.23,2.34-5.23,5.23ZM99.9,157.6c0-2.43,1.97-4.4,4.4-4.4s4.4,1.97,4.4,4.4-1.97,4.4-4.4,4.4-4.4-1.97-4.4-4.4Z"/>
                </g>
                <g class="cls-4">
                  <g>
                    <path class="cls-26" d="M148.46,115.01c0,2.89,2.34,5.23,5.23,5.23s5.23-2.34,5.23-5.23-2.34-5.23-5.23-5.23-5.23,2.34-5.23,5.23Z"/>
                    <path class="cls-27" d="M153.7,120.42c-2.98,0-5.41-2.43-5.41-5.41s2.43-5.41,5.41-5.41,5.41,2.43,5.41,5.41-2.43,5.41-5.41,5.41ZM153.7,109.95c-2.79,0-5.06,2.27-5.06,5.06s2.27,5.06,5.06,5.06,5.06-2.27,5.06-5.06-2.27-5.06-5.06-5.06Z"/>
                  </g>
                  <circle class="cls-21" cx="154.64" cy="112.59" r="1.97"/>
                  <path class="cls-20" d="M148.46,115.01c0,2.89,2.34,5.23,5.23,5.23s5.23-2.34,5.23-5.23-2.34-5.23-5.23-5.23-5.23,2.34-5.23,5.23ZM149.64,114.49c0-2.43,1.97-4.4,4.4-4.4s4.4,1.97,4.4,4.4-1.97,4.4-4.4,4.4-4.4-1.97-4.4-4.4Z"/>
                </g>
                <g class="cls-4">
                  <g>
                    <path class="cls-26" d="M82.64,119.39c0,2.89,2.34,5.23,5.23,5.23s5.23-2.34,5.23-5.23-2.34-5.23-5.23-5.23-5.23,2.34-5.23,5.23Z"/>
                    <path class="cls-27" d="M87.87,124.8c-2.98,0-5.41-2.43-5.41-5.41s2.43-5.41,5.41-5.41,5.41,2.43,5.41,5.41-2.43,5.41-5.41,5.41ZM87.87,114.34c-2.79,0-5.06,2.27-5.06,5.06s2.27,5.06,5.06,5.06,5.06-2.27,5.06-5.06-2.27-5.06-5.06-5.06Z"/>
                  </g>
                  <circle class="cls-21" cx="88.81" cy="116.97" r="1.97"/>
                  <path class="cls-20" d="M82.64,119.39c0,2.89,2.34,5.23,5.23,5.23s5.23-2.34,5.23-5.23-2.34-5.23-5.23-5.23-5.23,2.34-5.23,5.23ZM83.82,118.87c0-2.43,1.97-4.4,4.4-4.4s4.4,1.97,4.4,4.4-1.97,4.4-4.4,4.4-4.4-1.97-4.4-4.4Z"/>
                </g>
                <g class="cls-4">
                  <g>
                    <path class="cls-26" d="M65.3,241.15c0,2.89,2.34,5.23,5.23,5.23s5.23-2.34,5.23-5.23-2.34-5.23-5.23-5.23-5.23,2.34-5.23,5.23Z"/>
                    <path class="cls-27" d="M70.53,246.56c-2.98,0-5.41-2.43-5.41-5.41s2.43-5.41,5.41-5.41,5.41,2.43,5.41,5.41-2.43,5.41-5.41,5.41ZM70.53,236.09c-2.79,0-5.06,2.27-5.06,5.06s2.27,5.06,5.06,5.06,5.06-2.27,5.06-5.06-2.27-5.06-5.06-5.06Z"/>
                  </g>
                  <path class="cls-21" d="M69.5,238.72c0,1.09.88,1.97,1.97,1.97s1.97-.88,1.97-1.97-.88-1.97-1.97-1.97-1.97.88-1.97,1.97Z"/>
                  <path class="cls-20" d="M65.3,241.15c0,2.89,2.34,5.23,5.23,5.23s5.23-2.34,5.23-5.23-2.34-5.23-5.23-5.23-5.23,2.34-5.23,5.23ZM66.48,240.63c0-2.43,1.97-4.4,4.4-4.4s4.4,1.97,4.4,4.4-1.97,4.4-4.4,4.4-4.4-1.97-4.4-4.4Z"/>
                </g>
                <g class="cls-4">
                  <g>
                    <path class="cls-26" d="M97.7,241.15c0,2.89,2.34,5.23,5.23,5.23s5.23-2.34,5.23-5.23-2.34-5.23-5.23-5.23-5.23,2.34-5.23,5.23Z"/>
                    <path class="cls-27" d="M102.93,246.56c-2.98,0-5.41-2.43-5.41-5.41s2.43-5.41,5.41-5.41,5.41,2.43,5.41,5.41-2.43,5.41-5.41,5.41ZM102.93,236.09c-2.79,0-5.06,2.27-5.06,5.06s2.27,5.06,5.06,5.06,5.06-2.27,5.06-5.06-2.27-5.06-5.06-5.06Z"/>
                  </g>
                  <path class="cls-21" d="M101.9,238.72c0,1.09.88,1.97,1.97,1.97s1.97-.88,1.97-1.97-.88-1.97-1.97-1.97-1.97.88-1.97,1.97Z"/>
                  <path class="cls-20" d="M97.7,241.15c0,2.89,2.34,5.23,5.23,5.23s5.23-2.34,5.23-5.23-2.34-5.23-5.23-5.23-5.23,2.34-5.23,5.23ZM98.88,240.63c0-2.43,1.97-4.4,4.4-4.4s4.4,1.97,4.4,4.4-1.97,4.4-4.4,4.4-4.4-1.97-4.4-4.4Z"/>
                </g>
                <g class="cls-4">
                  <g>
                    <circle class="cls-26" cx="176.59" cy="165.8" r="3.6"/>
                    <path class="cls-27" d="M176.59,169.59c-2.09,0-3.78-1.7-3.78-3.78s1.7-3.78,3.78-3.78,3.78,1.7,3.78,3.78-1.7,3.78-3.78,3.78ZM176.59,162.38c-1.89,0-3.43,1.54-3.43,3.43s1.54,3.43,3.43,3.43,3.43-1.54,3.43-3.43-1.54-3.43-3.43-3.43Z"/>
                  </g>
                  <circle class="cls-21" cx="175.94" cy="164.14" r="1.35"/>
                  <path class="cls-20" d="M176.59,162.2c-1.99,0-3.6,1.61-3.6,3.6s1.61,3.6,3.6,3.6,3.6-1.61,3.6-3.6-1.61-3.6-3.6-3.6ZM176.35,168.47c-1.67,0-3.03-1.36-3.03-3.03s1.36-3.03,3.03-3.03,3.03,1.36,3.03,3.03-1.36,3.03-3.03,3.03Z"/>
                </g>
                <g class="cls-4">
                  <g>
                    <circle class="cls-26" cx="186.78" cy="202.09" r="3.6"/>
                    <path class="cls-27" d="M186.78,205.88c-2.09,0-3.78-1.7-3.78-3.78s1.7-3.78,3.78-3.78,3.78,1.7,3.78,3.78-1.7,3.78-3.78,3.78ZM186.78,198.67c-1.89,0-3.43,1.54-3.43,3.43s1.54,3.43,3.43,3.43,3.43-1.54,3.43-3.43-1.54-3.43-3.43-3.43Z"/>
                  </g>
                  <circle class="cls-21" cx="186.13" cy="200.43" r="1.35"/>
                  <path class="cls-20" d="M186.78,198.49c-1.99,0-3.6,1.61-3.6,3.6s1.61,3.6,3.6,3.6,3.6-1.61,3.6-3.6-1.61-3.6-3.6-3.6ZM186.54,204.77c-1.67,0-3.03-1.36-3.03-3.03s1.36-3.03,3.03-3.03,3.03,1.36,3.03,3.03-1.36,3.03-3.03,3.03Z"/>
                </g>
                <g class="cls-4">
                  <g>
                    <circle class="cls-26" cx="138.83" cy="156.61" r="4.08"/>
                    <path class="cls-27" d="M138.83,160.87c-2.35,0-4.26-1.91-4.26-4.26s1.91-4.26,4.26-4.26,4.26,1.91,4.26,4.26-1.91,4.26-4.26,4.26ZM138.83,152.71c-2.15,0-3.9,1.75-3.9,3.9s1.75,3.9,3.9,3.9,3.9-1.75,3.9-3.9-1.75-3.9-3.9-3.9Z"/>
                  </g>
                  <path class="cls-21" d="M139.63,154.72c0,.85-.69,1.53-1.53,1.53s-1.53-.69-1.53-1.53.69-1.53,1.53-1.53,1.53.69,1.53,1.53Z"/>
                  <path class="cls-20" d="M138.83,152.53c-2.25,0-4.08,1.83-4.08,4.08s1.83,4.08,4.08,4.08,4.08-1.83,4.08-4.08-1.83-4.08-4.08-4.08ZM138.56,159.63c-1.89,0-3.43-1.53-3.43-3.43s1.53-3.43,3.43-3.43,3.43,1.53,3.43,3.43-1.53,3.43-3.43,3.43Z"/>
                </g>
                <g class="cls-4">
                  <g>
                    <path class="cls-26" d="M121.38,184.8c0,2.25-1.83,4.08-4.08,4.08s-4.08-1.83-4.08-4.08,1.83-4.08,4.08-4.08,4.08,1.83,4.08,4.08Z"/>
                    <path class="cls-27" d="M117.3,189.06c-2.35,0-4.26-1.91-4.26-4.26s1.91-4.26,4.26-4.26,4.26,1.91,4.26,4.26-1.91,4.26-4.26,4.26ZM117.3,180.9c-2.15,0-3.9,1.75-3.9,3.9s1.75,3.9,3.9,3.9,3.9-1.75,3.9-3.9-1.75-3.9-3.9-3.9Z"/>
                  </g>
                  <circle class="cls-21" cx="116.57" cy="182.91" r="1.53"/>
                  <path class="cls-20" d="M117.3,180.72c-2.25,0-4.08,1.83-4.08,4.08s1.83,4.08,4.08,4.08,4.08-1.83,4.08-4.08-1.83-4.08-4.08-4.08ZM117.04,187.82c-1.89,0-3.43-1.53-3.43-3.43s1.53-3.43,3.43-3.43,3.43,1.53,3.43,3.43-1.53,3.43-3.43,3.43Z"/>
                </g>
                <g class="cls-4">
                  <g>
                    <path class="cls-26" d="M108.04,213.32c0,2.25-1.83,4.08-4.08,4.08s-4.08-1.83-4.08-4.08,1.83-4.08,4.08-4.08,4.08,1.83,4.08,4.08Z"/>
                    <path class="cls-27" d="M103.96,217.58c-2.35,0-4.26-1.91-4.26-4.26s1.91-4.26,4.26-4.26,4.26,1.91,4.26,4.26-1.91,4.26-4.26,4.26ZM103.96,209.42c-2.15,0-3.9,1.75-3.9,3.9s1.75,3.9,3.9,3.9,3.9-1.75,3.9-3.9-1.75-3.9-3.9-3.9Z"/>
                  </g>
                  <circle class="cls-21" cx="103.23" cy="211.44" r="1.53"/>
                  <path class="cls-20" d="M103.96,209.24c-2.25,0-4.08,1.83-4.08,4.08s1.83,4.08,4.08,4.08,4.08-1.83,4.08-4.08-1.83-4.08-4.08-4.08ZM103.69,216.35c-1.89,0-3.43-1.53-3.43-3.43s1.53-3.43,3.43-3.43,3.43,1.53,3.43,3.43-1.53,3.43-3.43,3.43Z"/>
                </g>
                <g class="cls-4">
                  <g>
                    <circle class="cls-26" cx="157.37" cy="150.19" r="2.01"/>
                    <path class="cls-27" d="M157.37,152.37c-1.21,0-2.19-.98-2.19-2.19s.98-2.19,2.19-2.19,2.19.98,2.19,2.19-.98,2.19-2.19,2.19ZM157.37,148.35c-1.01,0-1.83.82-1.83,1.83s.82,1.83,1.83,1.83,1.83-.82,1.83-1.83-.82-1.83-1.83-1.83Z"/>
                  </g>
                  <path class="cls-21" d="M157.77,149.26c0,.42-.34.76-.76.76s-.76-.34-.76-.76.34-.76.76-.76.76.34.76.76Z"/>
                  <path class="cls-20" d="M157.37,148.17c-1.11,0-2.01.9-2.01,2.01s.9,2.01,2.01,2.01,2.01-.9,2.01-2.01-.9-2.01-2.01-2.01ZM157.24,151.68c-.93,0-1.69-.76-1.69-1.69s.76-1.69,1.69-1.69,1.69.76,1.69,1.69-.76,1.69-1.69,1.69Z"/>
                </g>
                <g class="cls-4">
                  <g>
                    <circle class="cls-26" cx="200.49" cy="208.5" r="2.01"/>
                    <path class="cls-27" d="M200.49,210.69c-1.21,0-2.19-.98-2.19-2.19s.98-2.19,2.19-2.19,2.19.98,2.19,2.19-.98,2.19-2.19,2.19ZM200.49,206.66c-1.01,0-1.83.82-1.83,1.83s.82,1.83,1.83,1.83,1.83-.82,1.83-1.83-.82-1.83-1.83-1.83Z"/>
                  </g>
                  <circle class="cls-21" cx="200.12" cy="207.57" r=".76"/>
                  <path class="cls-20" d="M200.49,206.49c-1.11,0-2.01.9-2.01,2.01s.9,2.01,2.01,2.01,2.01-.9,2.01-2.01-.9-2.01-2.01-2.01ZM200.35,209.99c-.93,0-1.69-.76-1.69-1.69s.76-1.69,1.69-1.69,1.69.76,1.69,1.69-.76,1.69-1.69,1.69Z"/>
                </g>
                <g class="cls-4">
                  <g>
                    <circle class="cls-26" cx="90.3" cy="169.7" r="2.01"/>
                    <path class="cls-27" d="M90.3,171.88c-1.21,0-2.19-.98-2.19-2.19s.98-2.19,2.19-2.19,2.19.98,2.19,2.19-.98,2.19-2.19,2.19ZM90.3,167.86c-1.01,0-1.83.82-1.83,1.83s.82,1.83,1.83,1.83,1.83-.82,1.83-1.83-.82-1.83-1.83-1.83Z"/>
                  </g>
                  <path class="cls-21" d="M90.69,168.77c0,.42-.34.76-.76.76s-.76-.34-.76-.76.34-.76.76-.76.76.34.76.76Z"/>
                  <path class="cls-20" d="M90.3,167.69c-1.11,0-2.01.9-2.01,2.01s.9,2.01,2.01,2.01,2.01-.9,2.01-2.01-.9-2.01-2.01-2.01ZM90.17,171.19c-.93,0-1.69-.76-1.69-1.69s.76-1.69,1.69-1.69,1.69.76,1.69,1.69-.76,1.69-1.69,1.69Z"/>
                </g>
                <g class="cls-4">
                  <g>
                    <path class="cls-26" d="M39.3,162.78c0,1.11-.9,2.01-2.01,2.01s-2.01-.9-2.01-2.01.9-2.01,2.01-2.01,2.01.9,2.01,2.01Z"/>
                    <path class="cls-27" d="M37.29,164.97c-1.21,0-2.19-.98-2.19-2.19s.98-2.19,2.19-2.19,2.19.98,2.19,2.19-.98,2.19-2.19,2.19ZM37.29,160.95c-1.01,0-1.83.82-1.83,1.83s.82,1.83,1.83,1.83,1.83-.82,1.83-1.83-.82-1.83-1.83-1.83Z"/>
                  </g>
                  <path class="cls-21" d="M37.68,161.85c0,.42-.34.76-.76.76s-.76-.34-.76-.76.34-.76.76-.76.76.34.76.76Z"/>
                  <path class="cls-20" d="M37.29,160.77c-1.11,0-2.01.9-2.01,2.01s.9,2.01,2.01,2.01,2.01-.9,2.01-2.01-.9-2.01-2.01-2.01ZM37.16,164.27c-.93,0-1.69-.76-1.69-1.69s.76-1.69,1.69-1.69,1.69.76,1.69,1.69-.76,1.69-1.69,1.69Z"/>
                </g>
                <g>
                  <g>
                    <circle class="cls-26" cx="48.96" cy="108.7" r="2.01"/>
                    <path class="cls-27" d="M48.96,110.89c-1.21,0-2.19-.98-2.19-2.19s.98-2.19,2.19-2.19,2.19.98,2.19,2.19-.98,2.19-2.19,2.19ZM48.96,106.86c-1.01,0-1.83.82-1.83,1.83s.82,1.83,1.83,1.83,1.83-.82,1.83-1.83-.82-1.83-1.83-1.83Z"/>
                  </g>
                  <path class="cls-21" d="M49.35,107.77c0,.42-.34.76-.76.76s-.76-.34-.76-.76.34-.76.76-.76.76.34.76.76Z"/>
                  <path class="cls-20" d="M48.96,106.69c-1.11,0-2.01.9-2.01,2.01s.9,2.01,2.01,2.01,2.01-.9,2.01-2.01-.9-2.01-2.01-2.01ZM48.82,110.19c-.93,0-1.69-.76-1.69-1.69s.76-1.69,1.69-1.69,1.69.76,1.69,1.69-.76,1.69-1.69,1.69Z"/>
                </g>
              </g>
            </g>
          </g>
        </g>
      </g>
      <g class="cls-37">
        <g>
          <g class="cls-5">
            <image width="7349" height="2450" transform="translate(-225.56 55.72) scale(.1)" xlink:href="../../../../../Users/victus/Downloads/15251042_17Z_2104.w026.n002.352B.p1.352.jpg"/>
          </g>
          <g class="cls-34">
            <g class="cls-25">
              <g>
                <rect class="cls-28" x="210.49" y="152.72" width="19.83" height="8.97"/>
                <rect class="cls-28" x="210.49" y="174.91" width="19.83" height="8.97"/>
                <rect class="cls-28" x="199.39" y="163.81" width="19.83" height="8.97"/>
                <rect class="cls-28" x="221.59" y="163.81" width="19.83" height="8.97"/>
              </g>
              <rect class="cls-43" x="205.8" y="58.96" width="19.54" height="8.68"/>
            </g>
          </g>
        </g>
      </g>
    </g>
  </g>
</svg>