<?xml version="1.0" encoding="UTF-8"?>
<!DOCTYPE svg PUBLIC "-//W3C//DTD SVG 1.1//EN" "http://www.w3.org/Graphics/SVG/1.1/DTD/svg11.dtd">
<!-- Creator: CorelDRAW X7 -->
<svg xmlns="http://www.w3.org/2000/svg" xml:space="preserve" width="1.37168in" height="1.64365in" version="1.1" style="shape-rendering:geometricPrecision; text-rendering:geometricPrecision; image-rendering:optimizeQuality; fill-rule:evenodd; clip-rule:evenodd"
viewBox="0 0 644 772"
 xmlns:xlink="http://www.w3.org/1999/xlink">
 <defs>
  <style type="text/css">
   <![CDATA[
    .str0 {stroke:#FF3DD5;stroke-width:4.89117}
    .fil2 {fill:none}
    .fil33 {fill:#0C2543;fill-rule:nonzero}
    .fil12 {fill:#181C16;fill-rule:nonzero}
    .fil4 {fill:#21261F;fill-rule:nonzero}
    .fil28 {fill:#2A3128;fill-rule:nonzero}
    .fil27 {fill:#313A2F;fill-rule:nonzero}
    .fil31 {fill:#692B59;fill-rule:nonzero}
    .fil29 {fill:#6D1C11;fill-rule:nonzero}
    .fil22 {fill:#7C2113;fill-rule:nonzero}
    .fil8 {fill:#80366D;fill-rule:nonzero}
    .fil9 {fill:#90D8D8;fill-rule:nonzero}
    .fil26 {fill:#9E4485;fill-rule:nonzero}
    .fil14 {fill:#A5343B;fill-rule:nonzero}
    .fil7 {fill:#AA4990;fill-rule:nonzero}
    .fil21 {fill:#AB4891;fill-rule:nonzero}
    .fil20 {fill:#AF4223;fill-rule:nonzero}
    .fil30 {fill:#B88560;fill-rule:nonzero}
    .fil36 {fill:#C42A20;fill-rule:nonzero}
    .fil16 {fill:#C43D49;fill-rule:nonzero}
    .fil11 {fill:#C84D2A;fill-rule:nonzero}
    .fil13 {fill:#D35934;fill-rule:nonzero}
    .fil24 {fill:#D69C70;fill-rule:nonzero}
    .fil18 {fill:#D88500;fill-rule:nonzero}
    .fil10 {fill:#DB623B;fill-rule:nonzero}
    .fil15 {fill:#E24854;fill-rule:nonzero}
    .fil17 {fill:#F09701;fill-rule:nonzero}
    .fil25 {fill:#F2B37E;fill-rule:nonzero}
    .fil19 {fill:#F48577;fill-rule:nonzero}
    .fil6 {fill:#FDA50C;fill-rule:nonzero}
    .fil23 {fill:#FDBD85;fill-rule:nonzero}
    .fil5 {fill:#FDFDFD;fill-rule:nonzero}
    .fil35 {fill:#FF847B;fill-rule:nonzero}
    .fil34 {fill:#FF8847;fill-rule:nonzero}
    .fil32 {fill:#FFB748;fill-rule:nonzero}
    .fil3 {fill:white;fill-rule:nonzero}
    .fil0 {fill:url(#id1)}
    .fil1 {fill:url(#id2)}
    .fil37 {fill:url(#id3);fill-rule:nonzero}
   ]]>
  </style>
   <clipPath id="id0">
    <path d="M75 0l494 0c41,0 75,34 75,75l0 622c0,41 -34,75 -75,75l-494 0c-41,0 -75,-34 -75,-75l0 -622c0,-41 34,-75 75,-75z"/>
   </clipPath>
  <linearGradient id="id1" gradientUnits="userSpaceOnUse" x1="159.397" y1="626.225" x2="484.881" y2="145.799">
   <stop offset="0" style="stop-opacity:1; stop-color:#5200B0"/>
   <stop offset="1" style="stop-opacity:1; stop-color:#EB00A1"/>
  </linearGradient>
  <linearGradient id="id2" gradientUnits="userSpaceOnUse" x1="176.432" y1="961.36" x2="516.369" y2="459.598">
   <stop offset="0" style="stop-opacity:1; stop-color:#6200D1"/>
   <stop offset="1" style="stop-opacity:1; stop-color:#FF2EBD"/>
  </linearGradient>
  <linearGradient id="id3" gradientUnits="objectBoundingBox" x1="38.8668%" y1="110.26%" x2="61.1332%" y2="0%">
   <stop offset="0" style="stop-opacity:1; stop-color:#B940FF"/>
   <stop offset="1" style="stop-opacity:1; stop-color:#FF87EF"/>
  </linearGradient>
 </defs>
 <g id="Layer_x0020_1">
  <metadata id="CorelCorpID_0Corel-Layer"/>
  <path class="fil0" d="M75 0l494 0c41,0 75,34 75,75l0 622c0,41 -34,75 -75,75l-494 0c-41,0 -75,-34 -75,-75l0 -622c0,-41 34,-75 75,-75z"/>
  <g style="clip-path:url(#id0)">
   <g id="_2278747739392">
    <circle class="fil1" cx="346" cy="710" r="376"/>
    <circle class="fil2 str0" cx="461" cy="673" r="432"/>
    <g>
     <g>
      <g>
       <path class="fil3" d="M98 365l-78 0c-15,0 -27,12 -27,27 0,15 12,27 27,27l78 0c15,0 27,-12 27,-27 0,-15 -12,-27 -27,-27z"/>
      </g>
      <g>
       <g>
        <path class="fil4" d="M31 372c-1,0 -1,1 -1,2l0 36c0,1 0,1 1,1 1,0 2,0 2,-1l0 -36c0,-1 -1,-2 -2,-2z"/>
        <path class="fil4" d="M38 376c-1,0 -2,1 -2,2l0 28c0,1 1,1 2,1 1,0 2,0 2,-1l0 -28c0,-1 -1,-2 -2,-2z"/>
        <path class="fil4" d="M25 376c-1,0 -2,1 -2,2l0 28c0,1 1,1 2,1 1,0 2,0 2,-1l0 -28c0,-1 -1,-2 -2,-2z"/>
        <path class="fil4" d="M44 378c0,0 -1,1 -1,2l0 24c0,1 1,1 1,1 1,0 2,0 2,-1l0 -24c0,-1 -1,-2 -2,-2z"/>
        <path class="fil4" d="M18 378c-1,0 -1,1 -1,2l0 24c0,1 0,1 1,1 1,0 2,0 2,-1l0 -24c0,-1 -1,-2 -2,-2z"/>
        <path class="fil4" d="M51 384c-1,0 -2,0 -2,1l0 14c0,0 1,1 2,1 1,0 2,-1 2,-1l0 -14c0,-1 -1,-1 -2,-1z"/>
        <path class="fil4" d="M58 372c-1,0 -2,1 -2,2l0 36c0,1 1,1 2,1 0,0 1,0 1,-1l0 -36c0,-1 -1,-2 -1,-2z"/>
        <path class="fil4" d="M64 376c-1,0 -2,1 -2,2l0 28c0,1 1,1 2,1 1,0 2,0 2,-1l0 -28c0,-1 -1,-2 -2,-2z"/>
        <path class="fil4" d="M71 378c-1,0 -2,1 -2,2l0 24c0,1 1,1 2,1 1,0 1,0 1,-1l0 -24c0,-1 0,-2 -1,-2z"/>
        <path class="fil4" d="M77 384c-1,0 -2,0 -2,1l0 14c0,0 1,1 2,1 1,0 2,-1 2,-1l0 -14c0,-1 -1,-1 -2,-1z"/>
        <path class="fil4" d="M84 372c-1,0 -2,1 -2,2l0 36c0,1 1,1 2,1 1,0 1,0 1,-1l0 -36c0,-1 0,-2 -1,-2z"/>
        <path class="fil4" d="M90 376c-1,0 -2,1 -2,2l0 28c0,1 1,1 2,1 1,0 2,0 2,-1l0 -28c0,-1 -1,-2 -2,-2z"/>
        <path class="fil4" d="M97 378c-1,0 -2,1 -2,2l0 24c0,1 1,1 2,1 1,0 1,0 1,-1l0 -24c0,-1 0,-2 -1,-2z"/>
        <path class="fil4" d="M103 384c-1,0 -2,0 -2,1l0 14c0,0 1,1 2,1 1,0 2,-1 2,-1l0 -14c0,-1 -1,-1 -2,-1z"/>
       </g>
      </g>
     </g>
     <g>
      <path class="fil5" d="M438 355c-55,0 -100,28 -100,63 0,32 37,59 88,63 0,1 0,3 1,4 1,3 2,5 4,7 1,2 3,4 5,6 3,1 5,3 7,4 4,1 7,2 11,2 0,0 0,0 0,-1 1,0 1,0 1,0 0,0 0,-1 0,-1 0,0 0,0 -1,0 0,0 -1,-1 -2,-1 -1,-1 -2,-2 -3,-3 -1,-1 -2,-2 -3,-3 0,-1 -1,-3 -1,-5l0 1c-1,-2 -1,-4 -1,-6 0,-1 0,-3 0,-4 53,-2 94,-30 94,-63 0,-35 -45,-63 -100,-63z"/>
      <path class="fil6" d="M438 376c-5,0 -10,1 -14,4 -2,1 -3,3 -5,5 -1,1 -1,2 -2,4l0 0c-3,0 -5,0 -7,1 -4,1 -8,2 -11,4 0,0 0,0 -1,-1 0,-1 -1,-1 -1,-2 -1,0 -2,-1 -3,-1 -1,-1 -2,-1 -4,-1 0,0 0,0 -1,0 -2,0 -3,1 -5,2 -2,1 -4,2 -5,3 -2,1 -3,3 -5,5 -1,1 -2,3 -2,5 -1,1 -1,2 -1,3 0,1 0,2 0,3 1,2 1,4 3,6 0,1 1,2 2,3l-1 0c0,0 -1,0 -1,0 -2,0 -4,0 -5,0 -1,0 -2,0 -3,0l0 0c-1,0 -1,0 -1,0 0,0 -1,1 -1,1 0,0 0,1 1,1 0,0 0,0 0,0 1,1 3,1 4,1 1,0 2,0 3,0 2,-1 5,-1 7,-2 0,1 0,1 1,1 1,1 2,1 4,2 1,0 3,1 4,1 1,3 2,5 3,8 2,3 4,6 6,9 1,2 2,3 4,4 1,2 2,3 4,4 2,1 3,2 5,2 1,2 2,4 3,5 1,2 2,3 4,4 3,3 6,5 10,6 1,1 3,1 5,1 0,0 1,0 1,0 1,0 2,0 4,0 3,-1 5,-2 8,-4 2,-1 4,-3 6,-5 0,0 1,0 2,1 3,0 7,1 11,1 1,0 3,0 6,-1 5,0 11,-2 16,-4 5,-2 9,-5 13,-9 4,-4 7,-8 8,-13 1,-3 1,-5 1,-8 0,-3 0,-7 -2,-10 -1,-2 -3,-5 -5,-7 -2,-2 -4,-4 -7,-6 -3,-2 -6,-3 -9,-4 -3,-1 -6,-1 -10,-2 -1,0 -1,0 -2,0 -2,0 -3,0 -5,-1 0,0 0,0 0,0 -1,-3 -3,-7 -6,-9 1,-1 3,-2 5,-3l0 0c3,-1 6,-2 9,-3 2,0 3,0 5,0 1,0 2,0 3,0 2,1 4,1 5,2 1,0 3,1 4,2 0,0 1,1 2,2 0,0 0,0 0,0 1,0 1,0 1,0 1,-1 1,-2 0,-2 -1,-1 -2,-2 -3,-3 -2,-1 -3,-2 -5,-2 -1,-1 -2,-1 -4,-1 -1,0 -2,0 -3,0 -1,0 -2,0 -2,0 -3,0 -7,1 -10,2 -3,1 -6,2 -9,4 -2,-2 -4,-3 -6,-4 -3,-2 -7,-3 -10,-4 -2,0 -4,0 -6,0zm-19 13l0 0c0,0 1,0 1,0l0 0c0,-1 1,-2 1,-3 1,-1 2,-2 4,-3 1,-1 2,-2 4,-3 2,-1 4,-1 6,-1 1,-1 2,-1 3,-1 2,0 3,0 4,1 3,0 6,1 9,2l0 0c2,1 5,2 6,4 1,0 1,0 1,0 0,1 -1,1 -1,2 -2,1 -3,3 -5,5 -1,1 -2,3 -2,5 -1,0 -1,1 -1,2 0,0 -1,0 -2,0 -2,1 -3,2 -5,2 0,0 0,0 -1,-1 -2,-3 -5,-5 -9,-7 -3,-2 -7,-3 -11,-4 -1,0 -1,0 -2,0zm33 9l0 0c0,-1 0,-1 0,-1l0 0c1,-2 2,-4 3,-5 2,-2 3,-4 5,-5 1,1 1,2 2,3l0 0 0 0c2,2 3,3 4,6 0,-1 0,-1 0,-1 -3,0 -6,1 -8,1 -2,0 -4,1 -6,2zm-77 5l0 0 0 0c0,-1 1,-3 2,-4 1,-1 2,-3 4,-4 1,-1 3,-2 4,-2l1 -1c1,0 2,0 3,-1 1,0 1,0 1,0 1,0 1,0 2,0 0,1 1,1 1,1 1,0 1,0 2,1 0,0 1,1 1,1 0,1 1,1 1,2 -2,2 -5,4 -6,6 -2,3 -3,7 -4,10 0,1 0,2 0,3l0 0c-1,0 -1,1 -2,1 -2,1 -4,1 -6,2l0 0 0 -1c-2,-1 -2,-1 -3,-2 -1,-1 -1,-2 -2,-3 0,-1 0,-2 0,-2 0,-1 0,-2 0,-3 0,-2 0,-3 1,-4l0 0zm38 -11l0 0c0,0 0,0 0,0 1,0 2,-1 3,-1l0 1 0 0c0,2 0,5 0,8 0,2 0,4 -1,6 0,2 0,4 -1,5 0,1 -1,2 -2,4 -1,1 -2,2 -3,3 -2,1 -3,2 -5,2 -2,1 -4,2 -6,2 -2,0 -3,0 -4,0 -1,0 -2,0 -3,0 -1,0 -1,0 -1,0 0,-1 0,-1 0,-2 -1,-1 -1,-2 -1,-3 2,-1 4,-3 6,-4 2,-2 3,-3 4,-5 1,-3 2,-5 2,-8 0,-1 -1,-2 -1,-4 2,-1 3,-1 5,-2l0 0c2,-1 5,-2 8,-2 0,0 0,0 0,0 0,0 0,0 0,0zm-19 33l0 0c1,0 3,0 5,-1 3,0 6,-1 9,-3 3,-2 5,-4 7,-7 1,-1 2,-3 2,-4 1,-2 1,-4 1,-6 0,-1 0,-3 0,-4l0 0c0,-2 0,-5 0,-7 1,0 1,-1 1,-2l0 0 0 0c1,1 1,1 2,1 2,0 5,1 7,2l1 0c2,1 4,2 6,4 2,1 3,2 4,4l1 0c-3,1 -5,2 -8,4 -3,2 -6,4 -9,7 -3,2 -5,5 -7,8 -2,3 -4,6 -5,10 -2,3 -3,6 -3,10 0,3 0,5 1,7 -1,0 -3,-1 -4,-2 -2,-1 -3,-2 -4,-3 -1,-1 -2,-2 -3,-4 -2,-3 -4,-7 -6,-11l0 0c-1,-1 -1,-2 -1,-3 1,0 2,0 3,0zm-5 -11l0 0 0 -1 1 0c0,-2 0,-4 1,-6 1,-2 2,-3 3,-5 1,-1 2,-3 4,-4 0,1 0,1 0,2 0,1 0,2 0,3 0,1 0,2 0,3 -1,1 -1,2 -2,2 -1,2 -2,3 -4,4 0,1 -2,1 -3,2zm81 30l0 0c-1,0 -2,0 -3,0 -2,-1 -4,-1 -5,-2 -2,-1 -3,-1 -5,-2 1,-1 1,-2 1,-3 3,-3 5,-7 7,-11 4,-7 6,-14 5,-21 0,-2 0,-5 -1,-7l1 0c1,0 2,0 3,0 3,1 6,2 9,3 2,1 4,2 5,3 2,1 3,2 4,4 1,1 2,3 3,4 0,2 1,3 1,5 0,2 0,4 0,6 0,2 -1,4 -1,6 -1,2 -2,3 -3,5 -1,1 -3,3 -4,4 -2,2 -4,3 -7,4 -2,1 -4,1 -6,1 -1,1 -3,1 -4,1zm-13 -10l0 0c0,-3 -1,-6 -2,-9 0,-1 0,-2 -1,-4l0 0 0 0 0 -1c-1,-2 -1,-4 -2,-6 0,-2 -1,-4 -1,-5 0,-3 0,-5 0,-7 0,0 0,-1 0,-1 3,-1 6,-2 10,-2 2,0 4,-1 6,-1 0,2 1,3 1,5 0,3 0,5 0,8 -1,4 -2,7 -3,11 -2,3 -4,7 -6,10l0 0 0 0c-1,1 -1,1 -2,2zm-3 2l0 0 0 0c-1,-2 -2,-3 -3,-5 -2,-4 -3,-8 -3,-11 0,-1 0,-1 -1,-2 0,-3 -1,-6 -1,-8 -1,-2 -1,-4 -2,-6 1,-1 3,-2 4,-2 0,0 0,0 1,-1 -1,1 -1,1 -1,1 0,3 0,6 1,10 1,4 2,7 3,9l0 2c1,1 1,3 2,6 0,1 1,3 1,5 0,1 0,1 0,2l0 0 -1 1c0,0 0,-1 0,-1l0 0 0 0zm16 10l0 0c5,0 10,-1 14,-4 5,-2 9,-6 11,-10 1,-2 2,-5 2,-7 1,-3 1,-6 0,-9 0,-3 -1,-5 -2,-8 -2,-2 -3,-4 -6,-5 0,-1 0,-1 0,-1 3,1 5,3 7,5 2,1 4,3 5,4 1,2 2,4 3,5 1,2 1,4 2,6 0,2 0,4 0,6 0,0 0,0 0,0 -1,3 -1,5 -2,7l0 0c-1,2 -2,4 -4,6l0 0c-2,3 -4,5 -6,7l0 0 0 0 0 0c-3,2 -7,4 -10,5 -5,2 -9,3 -14,4 -2,0 -4,0 -6,0 -3,0 -5,0 -6,0 -2,0 -4,-1 -6,-1 2,-3 3,-6 4,-9 1,-2 1,-3 1,-5 4,3 8,4 13,4 0,0 0,0 0,0zm-48 5l0 0c-1,0 -3,0 -4,0 -2,0 -4,-1 -6,-1 -1,-2 -1,-3 -1,-5 0,-2 0,-4 0,-7 0,-2 1,-5 2,-8 2,-3 4,-6 6,-9 2,-3 5,-6 8,-9 4,-3 8,-5 12,-7 -1,1 -2,2 -3,4 -2,2 -3,5 -5,8 -2,7 -3,14 -1,20 0,3 2,6 3,9 1,1 2,2 3,3 -3,1 -6,2 -9,2 -2,0 -3,0 -5,0zm16 -3l0 0c-1,-1 -1,-1 -2,-2 -1,-2 -2,-3 -3,-5 0,-2 -1,-5 -1,-7 -1,-3 -1,-5 0,-8 0,-3 1,-6 2,-9 1,-3 3,-5 4,-7 1,-2 3,-3 4,-4 0,0 0,0 0,1l0 0 0 0c2,3 2,7 3,10l0 1 0 0c1,3 1,6 2,9 1,4 2,7 4,9 0,1 1,2 2,2 -2,1 -2,2 -3,3 -4,3 -8,5 -12,7zm-50 -26l0 0 -1 0c-1,-1 -2,-1 -3,-2 -1,0 -1,0 -2,-1 2,0 3,-1 5,-1 0,1 0,2 1,4zm53 29l0 0 0 0c0,-1 -1,-1 -1,-1 4,-2 8,-5 12,-8 1,0 2,-1 2,-2 1,0 1,1 1,1l0 0 0 0c0,0 0,1 0,1 -1,3 -1,5 -2,8 -1,2 -2,4 -3,5l-1 0c0,0 -1,0 -1,-1 -3,-1 -5,-2 -7,-3 0,0 0,0 0,0l0 0 0 0c0,0 0,0 0,0zm-19 3l0 0c4,0 8,-1 12,-2 1,0 2,-1 3,-1 1,0 2,1 2,1 3,2 6,4 9,5 -1,2 -2,3 -3,4 -2,1 -4,2 -5,2 -2,1 -3,1 -5,2 0,0 -1,0 -2,0 -1,0 -2,0 -2,0 -2,-1 -4,-1 -5,-2 -2,-1 -4,-2 -6,-3 -2,-2 -4,-3 -5,-5 -1,-1 -1,-2 -2,-3 0,1 1,1 1,1 3,0 5,1 8,1z"/>
     </g>
     <g>
      <path class="fil4" d="M94 784l6 0c12,-45 24,-89 36,-133 -7,-2 -15,-3 -23,-5 -6,46 -12,92 -19,138z"/>
      <path class="fil4" d="M133 773l6 0c12,-44 24,-89 36,-133 -8,-2 -15,-3 -23,-5 -6,46 -13,92 -19,138z"/>
      <path class="fil4" d="M253 782l-6 0c-12,-42 -24,-83 -36,-124 8,-2 15,-3 23,-4 6,42 12,85 19,128z"/>
      <path class="fil4" d="M214 771l-6 0c-12,-44 -24,-89 -36,-133 8,-2 15,-3 23,-5 6,46 13,92 19,138z"/>
      <path class="fil7" d="M162 496l-53 0 -20 0c-2,1 -3,1 -5,2 -3,1 -5,2 -8,3 -5,2 -10,4 -15,7 -2,0 -3,1 -5,2 3,20 6,42 9,66 3,21 6,42 9,64l1 9c1,5 1,10 2,15l0 2c1,2 1,5 1,7 0,0 0,1 0,1 1,2 1,4 1,6 0,0 0,0 0,0 0,0 0,0 0,0 0,0 0,0 0,0 0,1 1,1 1,2 0,0 0,0 0,0 4,0 7,0 11,0 2,0 4,0 6,0 5,0 11,0 16,0 12,0 24,0 35,0 24,0 47,0 70,0l55 0 3 0c0,0 0,0 0,0 0,0 0,0 1,0 0,-1 1,-3 2,-4 0,-1 1,-2 1,-3 1,-3 1,-6 1,-9 0,-2 0,-5 -1,-8 0,-2 -2,-5 -3,-6l0 -1c0,0 -1,0 -1,0 0,0 0,0 0,0l-39 0 -12 0 -2 -15 -2 -15 -4 -25 -3 -26c-2,-12 -4,-24 -6,-37l-2 -17 -1 -9 -2 -9c0,0 1,-1 1,-1 0,0 -1,-1 -1,-1l-41 0zm14 2l0 0 26 0 0 0 -26 0z"/>
      <path class="fil8" d="M162 496l-53 0 -20 0c0,0 0,0 0,0 1,9 2,18 3,27 2,23 5,45 7,68 3,21 5,43 7,65l62 0 89 0 22 0c0,-2 -1,-3 -2,-4l0 -1c0,0 0,0 -1,0 0,0 0,0 0,0l-39 0 -12 0 -2 -15 -2 -15 -4 -25 -3 -26 -4 -24 -2 -13 -2 -17 -1 -9 -2 -9c1,0 1,-1 1,-1 0,0 -1,-1 -1,-1l-41 0z"/>
     </g>
     <g>
      <g>
       <path class="fil9" d="M75 569c-1,1 -1,1 -2,1 -1,1 -2,2 -2,2 -1,1 -2,2 -2,2 0,0 0,-1 0,-2 0,0 0,-1 0,-1 0,0 -1,-1 -1,-1 0,0 0,0 -1,0 0,0 0,0 0,0 0,0 -1,0 -1,0 0,0 -1,0 -1,1 -1,0 -1,0 -2,1 0,0 0,0 0,0 4,10 8,20 11,30 1,0 1,0 1,-1 1,-1 2,-2 3,-3 1,-2 2,-3 2,-4 2,-3 3,-6 4,-9l0 0c1,-1 1,-1 1,-2 0,0 1,-1 1,-1 0,-1 0,-2 1,-2 0,-1 0,-1 0,-2 0,0 0,-1 0,-1 0,0 0,0 0,0 -1,0 -1,-1 -1,-1 0,0 0,0 0,0 0,0 0,0 -1,0 0,0 0,0 0,0l0 0c0,0 0,0 0,0 -1,0 -1,0 -1,0 0,0 0,0 0,0 0,-1 0,-2 0,-3 0,0 0,0 0,-1 0,0 0,0 0,-1 -1,0 -1,0 -1,0 0,0 -1,0 -1,0 0,0 0,0 0,0 0,0 0,0 0,0 -1,0 -2,0 -2,1 -1,0 -1,0 -2,0 1,0 1,-1 1,-1 0,-1 0,-1 -1,-1 0,-1 0,-1 0,-1 0,0 0,0 0,0 -1,0 -1,0 -1,0 0,0 0,0 0,0 -1,0 -2,0 -2,0z"/>
       <path class="fil10" d="M75 569c-1,1 -1,1 -2,1 -1,1 -2,2 -2,2 -1,1 -1,1 -2,2 0,0 0,0 0,0 0,0 0,0 0,0 0,0 0,0 0,0 0,0 0,-1 0,-2 0,0 0,-1 0,-1 0,0 -1,-1 -1,-1 0,0 0,0 -1,0 0,0 0,0 0,0 0,0 -1,0 -1,0 0,0 -1,0 -1,1 -1,0 -1,0 -2,1 0,0 0,0 0,0 -1,1 -1,1 -2,2 -1,1 -1,3 -2,4 0,1 0,2 -1,4 0,1 0,2 0,3 0,1 0,2 0,3 0,2 0,4 1,6 0,2 1,4 2,6 1,0 1,1 2,2 1,1 1,1 2,2 1,0 2,1 2,1 1,0 1,0 2,0 0,0 0,0 1,0 2,-1 3,-2 4,-3l0 0c1,0 1,0 1,-1 1,-1 2,-2 3,-3 1,-2 2,-3 2,-4 2,-3 3,-6 4,-9l0 0c1,-1 1,-1 1,-2 0,0 1,-1 1,-1 0,-1 0,-2 1,-2 0,-1 0,-1 0,-2 0,0 0,-1 0,-1 0,0 0,0 0,0 -1,0 -1,-1 -1,-1 0,0 0,0 0,0 0,0 0,0 -1,0 0,0 0,0 0,0l0 0c0,0 0,0 0,0 -1,0 -1,0 -1,0 0,0 0,0 0,0 0,0 0,0 0,0 0,0 0,0 0,0 0,0 0,0 0,0 0,-1 0,-2 0,-3 0,0 0,0 0,-1 0,0 0,0 0,-1 -1,0 -1,0 -1,0 0,0 -1,0 -1,0 0,0 0,0 0,0 0,0 0,0 0,0 -1,0 -2,0 -2,1 -1,0 -1,0 -1,0 -1,0 -1,0 -1,0 0,0 0,0 0,0 0,0 0,0 0,0 1,0 1,-1 1,-1 0,-1 0,-1 -1,-1 0,-1 0,-1 0,-1 0,0 0,0 0,0 -1,0 -1,0 -1,0 0,0 0,0 0,0 -1,0 -2,0 -2,0z"/>
       <path class="fil11" d="M83 577c-2,2 -3,4 -5,6 -1,2 -2,5 -3,7 -1,0 0,1 0,1 0,0 0,0 0,0 1,-2 1,-3 2,-4 1,-2 1,-3 2,-4 0,0 0,0 0,0 1,-2 3,-4 4,-6 0,0 0,0 0,0 0,0 0,0 0,0 0,0 0,0 0,0zm-4 6l0 0c0,0 0,0 0,0 0,0 0,0 0,0zm0 0l0 0c0,0 0,0 0,0 0,0 0,0 0,0z"/>
       <path class="fil11" d="M78 573c-2,2 -3,4 -5,6 -1,1 -1,2 -2,3 0,1 -1,2 -1,3 0,0 0,1 0,1 0,0 0,0 0,0 0,0 0,0 1,0 0,-2 1,-3 1,-4 1,-1 1,-2 2,-4 0,0 0,0 0,0 1,-1 3,-3 4,-5 0,0 0,0 0,0 0,0 0,0 0,0 0,0 0,0 0,0zm-4 5l0 0c0,0 0,0 0,0 0,0 0,0 0,0z"/>
       <path class="fil11" d="M68 575c0,0 -1,1 -1,1 0,1 -1,1 -1,2 -1,1 -1,2 -2,4 0,0 0,0 0,0 0,0 1,0 1,0 0,-2 1,-3 2,-4 0,0 0,0 0,0 0,-1 1,-2 2,-3 0,0 0,0 0,0 -1,0 -1,0 -1,0 0,0 0,0 0,0z"/>
      </g>
      <g>
       <path class="fil4" d="M171 342c-3,0 -7,1 -10,2 -4,1 -8,2 -12,3 -2,1 -4,2 -5,3 -2,1 -4,2 -5,4 -2,1 -4,3 -5,6 0,1 0,2 0,3 -1,0 -2,0 -3,1 -2,0 -4,2 -6,4 -2,2 -3,4 -4,7 -1,2 -1,5 -2,8 0,0 0,1 0,1l0 1c0,0 0,1 0,2 0,2 0,4 0,5 0,2 -1,4 -1,6 0,2 -1,4 -2,5l0 0c0,1 -1,3 -1,4 -1,1 -2,2 -3,4 -1,1 -2,2 -3,4 -2,1 -3,2 -4,4l0 0c-3,2 -5,5 -7,7 -3,3 -5,6 -6,9 -1,1 -2,3 -2,5 -1,1 -2,3 -2,5 -1,3 -1,6 -1,9 -1,3 0,6 0,10 1,3 2,6 3,9 0,1 1,3 2,4 1,1 2,3 3,4 3,4 6,7 11,10 2,1 5,2 7,3 2,0 3,1 5,1l12 -4c0,0 0,0 0,0l0 0 2 6c2,0 5,0 7,0 1,0 2,0 3,0 8,0 15,-1 21,-2 3,0 7,-1 11,-2 1,-1 3,-1 5,-2 5,-1 10,-3 14,-4 5,-2 9,-5 13,-7 5,-3 8,-6 11,-9 1,-2 2,-4 3,-5 1,-2 2,-5 2,-7 0,-1 0,-2 0,-4 0,-1 0,-2 -1,-3 0,-2 -1,-5 -2,-6 -1,-2 -2,-3 -2,-4 -2,-3 -4,-7 -5,-11 -1,-1 -1,-3 -1,-5 0,-1 0,-3 1,-5l0 0c0,-2 1,-4 2,-6 1,-2 2,-3 3,-5 0,-1 0,-2 1,-2 1,-2 2,-5 3,-8 1,-2 1,-5 2,-7 0,-2 0,-4 -1,-5 0,-1 0,-2 -1,-2 1,-1 2,-2 3,-3 1,-1 1,-2 2,-3 0,-1 1,-2 1,-4 0,-2 1,-4 0,-6 0,-2 -1,-4 -2,-6 -2,-4 -5,-8 -9,-11 -2,-2 -4,-3 -6,-5 -2,-1 -5,-2 -7,-3 -2,0 -3,-1 -5,-1 -1,-1 -3,-1 -5,-1 -4,-1 -7,-1 -11,-2 -1,0 -2,0 -3,0 -2,0 -5,1 -8,1z"/>
       <path class="fil12" d="M180 364c-3,0 -6,0 -9,0 0,0 -1,0 -2,0 0,0 -1,0 -1,0 -1,1 -2,1 -3,1 -2,0 -4,0 -6,0 0,0 0,0 0,0 -3,1 -6,1 -9,2l0 0c-1,1 -1,1 -2,1 -1,1 -1,1 -2,1l0 0 0 0c0,0 0,0 0,0 0,0 0,0 0,0l0 0c0,0 0,0 0,0l0 0 0 0c0,0 0,0 0,0 0,0 0,0 0,0 0,1 0,1 -1,1 0,1 0,1 -1,1 0,1 0,1 0,1 0,1 -1,1 -1,1l0 0c0,1 0,1 0,2 0,1 -1,1 -1,2 0,0 0,0 0,0 0,0 0,0 0,0l0 0c0,1 0,2 0,3 0,2 0,3 0,4l0 0c1,5 3,10 4,15 1,3 2,5 2,8 1,2 1,5 0,7 0,1 0,1 0,2 0,0 0,1 0,1 0,1 -1,2 -1,3 -1,2 -1,4 -2,6 -1,2 -2,3 -3,5 -1,2 -2,3 -3,5 -3,3 -6,6 -8,9 -3,3 -6,6 -8,9 -1,1 -1,2 -2,2 0,1 -1,2 -1,3 -1,0 -1,1 -1,2 -1,1 -1,1 -1,2l0 0c-1,1 -2,3 -2,4 0,1 0,2 0,2 0,1 -1,2 -1,2l0 0c0,1 0,3 0,4 0,1 0,1 0,2 0,1 0,1 0,2l0 0c0,0 0,0 0,0 0,0 0,0 0,0 0,1 1,2 1,4 0,0 0,1 1,1 0,1 0,1 0,2 0,0 0,0 0,0 1,1 1,3 2,4 1,1 2,2 2,3 1,0 1,1 1,1l8 -3c0,0 0,0 0,0l0 0 2 6 0 0 1 0c2,0 4,0 6,0 1,0 2,0 3,0 8,0 15,-1 21,-2 3,0 7,-1 11,-2 2,-1 4,-1 5,-2 5,-1 10,-3 14,-4 5,-2 9,-5 13,-7 5,-3 8,-6 11,-9 0,-1 1,-1 1,-2 0,-1 -1,-3 -1,-4 0,-2 -1,-4 -2,-5 0,-2 -1,-3 -1,-5 0,0 0,0 0,0 -1,-2 -2,-4 -3,-7 -2,-2 -3,-4 -4,-6 -1,-1 -1,-2 -2,-3 0,-1 -1,-2 -1,-3 -1,-1 -1,-2 -1,-3 -1,0 -1,-1 -1,-2 0,0 0,-1 0,-1 0,-1 0,-1 0,-2 0,0 0,-1 0,-2 0,0 0,-1 0,-2 0,-1 0,-2 1,-3 0,-1 0,-2 1,-3 0,-1 1,-3 2,-5 2,-3 4,-7 6,-10 0,0 0,0 0,0 0,-1 1,-2 1,-3 0,-1 0,-1 0,-2 0,0 0,-1 0,-2l0 1c1,-1 1,-2 1,-3 0,-1 0,-2 -1,-3l0 0c0,-3 -1,-6 -2,-9l0 0c-2,-3 -3,-6 -5,-9 -1,-1 -2,-2 -3,-3 0,0 -1,-1 -2,-2l0 0c0,0 0,0 0,0 0,0 0,0 0,0 0,0 0,0 0,0 0,0 0,0 0,0 0,0 0,0 0,0 -1,0 -1,-1 -2,-1 0,0 -1,-1 -1,-1 0,0 0,0 0,0 -2,0 -3,-1 -4,-1 -2,0 -3,-1 -5,-1l0 0c-2,0 -5,0 -8,0 0,0 -1,0 -1,0zm-34 5l0 0c0,0 0,0 0,0 0,0 0,0 0,0z"/>
       <path class="fil12" d="M146 369c0,0 0,0 0,0 0,0 0,0 0,0 0,0 0,0 0,0z"/>
       <path class="fil12" d="M146 369c0,0 0,0 0,0l0 0c0,0 0,0 0,0z"/>
       <path class="fil12" d="M132 429c0,0 0,0 0,0 0,0 0,0 0,0 0,0 0,0 0,0 0,0 0,0 0,0 0,0 0,0 0,0 -2,3 -4,5 -6,7 -3,2 -5,4 -7,6 -1,1 -2,2 -3,3 -1,1 -2,2 -3,4 -2,2 -3,5 -5,8 0,2 -1,4 -1,6 -1,2 -1,3 -1,5 0,2 0,4 1,6 0,2 1,4 2,5 0,0 0,0 0,1 0,0 0,0 1,0 0,0 0,-1 0,-1 0,0 0,0 0,0 0,-1 -1,-2 -1,-4 0,-1 -1,-2 -1,-3 0,0 0,0 0,0 0,0 0,0 0,0 0,0 0,0 0,0l0 0c0,-2 0,-4 0,-6 0,-3 1,-6 2,-9 0,0 0,0 0,1 1,-4 3,-8 5,-11 0,0 0,0 0,0 1,-1 2,-2 2,-2 1,-1 2,-2 3,-3 1,-1 3,-3 4,-4 2,-1 3,-3 5,-4 1,-1 1,-2 2,-3 1,0 1,-1 2,-2 0,0 0,0 0,0 0,-1 0,-1 0,-1 0,0 -1,1 -1,1zm-16 18l0 0c0,0 -1,0 -1,0 0,0 1,0 1,0zm-8 25l0 0c0,0 0,0 0,0 0,0 0,0 0,0 0,0 0,0 0,0zm24 -43l0 0 0 0c0,0 0,0 0,0 0,0 0,0 0,0z"/>
       <path class="fil12" d="M109 437c-1,1 -1,1 -2,2 -1,0 -1,1 -2,2 -1,1 -2,3 -2,4 -1,2 -2,3 -2,5 -1,1 -1,3 -1,5 0,0 0,0 0,0 0,0 0,0 0,0 0,0 1,0 1,0 0,0 0,0 0,0 0,-1 0,-3 0,-4 1,-1 1,-2 2,-4 0,0 0,1 0,1 0,-2 0,-3 1,-4 1,-1 1,-2 2,-3 0,0 0,0 0,0 1,-1 2,-2 3,-4 0,0 0,0 0,0 0,0 0,0 0,0 0,0 0,0 0,0zm-3 4l0 0c0,0 0,0 0,0 0,0 0,0 0,0z"/>
       <path class="fil10" d="M183 358c-3,0 -5,0 -9,0 -1,0 -3,0 -4,1 -2,0 -3,0 -4,0 -2,0 -4,1 -6,1 -3,1 -5,2 -7,3 -5,2 -8,4 -10,7 -2,2 -2,4 -3,6 0,1 0,2 0,3 0,2 0,3 0,5 1,3 2,6 3,9 1,3 2,6 3,8 -2,-1 -3,-1 -5,-1l0 0c-1,0 -2,0 -3,0 -1,1 -2,1 -3,2 -1,1 -1,2 -2,3 0,2 0,3 0,4 0,1 0,3 0,4 1,1 1,2 2,3 1,1 2,2 4,4 1,1 2,1 4,2 2,1 3,1 5,1 1,0 1,0 2,0 1,0 2,0 3,0 1,1 2,2 3,4 1,3 3,6 3,9 0,0 0,0 0,0 0,0 0,1 0,1 1,3 2,7 1,10l0 0c0,3 0,6 -1,8 0,1 0,1 0,1 1,1 2,2 2,2 1,1 2,2 3,2 2,1 4,2 7,3 2,1 4,1 7,1 1,0 2,0 3,0 1,0 3,0 4,0 3,0 6,-1 9,-2 2,-1 4,-2 6,-4 0,0 0,0 0,0l1 0c0,0 0,-1 0,-1 0,0 0,0 0,0 0,0 -1,0 -1,0 0,0 0,0 0,0 0,0 0,0 0,0l0 0c-1,0 -1,-1 -1,-1 -1,-1 -2,-1 -3,-2 -1,-1 -1,-2 -2,-3l0 0c-1,-1 -1,-2 -1,-4 -1,-2 -1,-4 -1,-6 4,0 8,-2 12,-5 2,-1 5,-3 6,-6 1,-1 2,-2 3,-3 1,-1 1,-3 2,-4 0,-3 1,-5 1,-9 0,-2 0,-5 -1,-8 0,-2 -1,-4 -1,-6 -1,0 -1,-1 -1,-2 -1,-1 -1,-1 -1,-2l0 -1c-1,-1 -2,-4 -3,-6 0,-2 -1,-4 -1,-6l0 0c0,-1 0,-2 0,-3 0,-1 0,-2 0,-3 0,-2 0,-3 0,-5 -1,-2 -1,-4 -2,-6 0,0 0,-1 -1,-2 0,0 0,-1 0,-1 -1,0 -1,0 -1,-1 0,0 -1,0 -1,0 0,0 -1,0 -1,-1l-1 0c0,0 -1,0 -2,-1 -1,0 -3,-1 -5,-1 -3,-1 -6,-1 -10,-1 0,0 -1,0 -1,0z"/>
       <path class="fil11" d="M170 439l0 0c1,1 2,2 3,3 0,0 1,1 2,2l0 0c1,0 2,1 4,2 1,0 2,0 3,1 0,0 0,0 0,0 0,0 0,0 0,0 0,0 0,0 0,0 0,0 0,0 0,0 1,0 2,0 3,1 1,0 2,0 3,0 0,0 0,0 0,0 0,0 0,0 0,0 0,0 0,0 0,0 1,0 2,0 3,0 0,0 1,0 2,0 0,-1 0,-1 0,-1 -1,-2 -1,-4 -1,-6 0,0 0,0 0,0 0,0 -1,0 -1,1 -2,0 -3,0 -5,0 -2,-1 -5,-1 -8,-2 -2,0 -5,-1 -7,-2 -2,-1 -3,-2 -4,-2 1,1 2,2 3,3z"/>
       <path class="fil11" d="M182 447l0 0c0,0 0,0 0,0 0,0 0,0 0,0z"/>
       <path class="fil11" d="M145 405c0,0 0,1 -1,1 0,0 0,0 0,1 0,0 0,0 0,0 0,1 0,2 0,2 0,1 0,1 0,2 0,1 1,1 1,2 0,1 1,2 2,3 0,1 1,1 1,2 1,0 1,0 2,1 0,0 0,0 0,-1 0,0 0,0 0,0 0,0 0,0 0,0 0,0 0,0 0,0 -1,-1 -2,-1 -2,-2 -1,0 -1,-1 -2,-2 0,-1 -1,-2 -1,-3 0,-1 0,-2 0,-3 0,0 0,-1 0,-2 0,0 0,0 0,0 1,0 1,0 1,0 -1,0 -1,-1 -1,-1 0,0 0,0 0,0 0,0 0,0 0,0zm0 1l0 0c0,0 0,0 0,0 0,0 0,0 0,0zm1 8l0 0c0,0 0,0 0,0 0,0 0,0 0,0z"/>
       <path class="fil11" d="M140 403c0,0 -1,0 -1,0 -1,1 -1,1 -2,1 0,0 -1,1 -2,2 0,0 0,0 0,0 0,0 1,0 1,0 0,0 0,0 0,0 0,-1 1,-1 1,-1 0,0 0,0 0,0 1,0 1,0 1,-1 0,0 0,0 0,1 0,-1 1,-1 1,-1 0,0 0,0 0,0l0 0c1,0 2,0 2,1 1,0 2,0 2,0 1,1 1,1 2,1 0,0 0,0 0,0 0,0 0,0 0,0 0,0 0,0 1,0 0,0 0,0 0,0 -1,0 -1,-1 -1,-1 0,0 0,0 0,0 -1,-1 -1,-1 -2,-1 0,0 -1,-1 -1,-1 0,0 -1,0 -1,0 0,0 -1,0 -1,0zm1 2l0 0 0 0c0,0 0,0 0,0z"/>
       <path class="fil13" d="M174 358c-1,0 -3,0 -4,1 -2,0 -3,0 -4,0 -2,0 -4,1 -6,1 -3,1 -5,2 -7,3 -5,2 -8,4 -10,7 -1,1 -1,1 -1,2 0,0 0,0 1,1 1,0 1,1 2,1 0,0 0,0 0,0 1,1 3,1 4,2 1,0 2,1 4,1 5,1 10,1 15,1l0 0c1,0 1,0 2,0 1,0 2,0 3,0 2,0 4,0 7,0 3,0 7,1 11,2 1,0 3,0 4,1 2,1 3,1 4,2 2,1 3,1 4,2 1,1 2,2 3,3 2,1 3,2 4,3 0,-1 0,-1 -1,-2 0,-2 -1,-4 -1,-6 0,-1 0,-2 0,-3 0,-1 0,-2 0,-3 0,-2 0,-3 0,-5 -1,-2 -1,-4 -2,-6 0,0 0,-1 -1,-2 0,0 0,-1 0,-1 -1,0 -1,-1 -1,-1 0,0 -1,0 -1,0 0,0 -1,0 -1,-1l0 0 -1 0c0,0 -1,0 -2,-1 -1,0 -3,-1 -5,-1 -3,-1 -6,-1 -10,-1 0,0 -1,0 -1,0 -3,0 -5,0 -9,0z"/>
       <path class="fil14" d="M182 581c-2,1 -5,1 -7,1 -3,1 -6,2 -10,4l8 21c-10,4 -21,8 -31,12 0,0 0,0 0,0 0,3 1,5 2,8 1,2 2,4 3,6 1,2 3,3 5,5 3,3 7,6 12,8 4,2 9,4 14,5 5,2 10,3 15,4 4,0 8,1 11,1 4,1 8,1 13,2 8,1 17,1 25,2 4,0 8,0 13,0 2,1 4,1 6,1 1,0 1,0 2,0 2,0 3,0 4,0 0,0 0,0 0,0 -5,10 -11,22 -15,35 -3,6 -5,14 -8,21 0,0 0,0 0,0 -2,8 -5,15 -7,23l0 1 0 1c1,1 2,2 2,2 1,1 3,2 4,3 2,1 6,3 9,4 3,1 7,2 10,2 0,0 1,0 1,0 0,0 1,0 1,0 10,-16 19,-30 28,-45 2,-3 3,-5 5,-8 0,-1 1,-2 1,-2l1 -1 0 -1 0 0 2 -3c1,-1 2,-3 3,-5l0 0c1,-2 2,-4 3,-6 3,-4 5,-8 7,-12 2,-5 4,-9 5,-13 1,-4 1,-9 1,-13 0,-2 -1,-4 -2,-5 0,-2 -1,-4 -3,-6 -1,-2 -2,-3 -4,-5 -1,-2 -3,-3 -5,-5 -3,-2 -7,-4 -11,-7 -4,-2 -9,-4 -12,-6 -3,-1 -5,-2 -8,-3l-1 -1c-2,-1 -5,-2 -7,-3 -6,-3 -11,-5 -16,-7 -2,0 -3,-1 -4,-1 -2,-1 -3,-1 -4,-2 -3,0 -5,-1 -7,-2 -10,-3 -20,-6 -31,-8 -5,-1 -10,-1 -15,-2 -1,0 -3,0 -4,0 -1,0 -2,0 -4,0z"/>
       <path class="fil11" d="M237 741c0,0 0,0 0,0 -1,3 -2,6 -2,9 -1,3 -2,7 -3,10 -1,4 -2,9 -3,13 4,1 8,1 11,2 2,0 4,1 6,1 1,0 2,0 3,0 1,0 2,0 3,0l0 0 0 0c1,0 2,0 2,0 1,0 1,0 2,0 0,0 0,-1 0,-1 1,0 1,-1 2,-1 0,-1 0,-1 1,-2l0 0c0,-1 1,-1 1,-2 0,0 1,-1 1,-1l0 0 0 0c0,0 -1,0 -1,-1 -2,0 -3,-1 -5,-1 4,-6 7,-11 10,-16l0 0 -1 0c-1,0 -2,0 -3,0 -3,-1 -6,-1 -9,-2 -5,-2 -10,-5 -15,-8l0 0z"/>
       <path class="fil12" d="M260 768c0,0 0,0 0,0 -1,1 -2,1 -2,2 -1,0 -1,1 -1,1 0,0 -1,1 -1,1 0,0 0,1 0,1 0,0 0,0 0,1 0,0 0,0 0,0 0,0 0,0 -1,0 -4,0 -9,0 -13,-1 -4,0 -8,-1 -12,-2 -1,3 -1,6 -2,9 0,0 0,0 0,0 1,0 1,0 1,0l1 1c1,0 3,0 4,0 3,0 6,1 9,1 4,0 8,1 12,1 5,0 8,0 11,0l1 0c1,0 3,0 4,0 2,0 3,0 4,0 2,0 3,-1 3,-1 1,0 1,0 1,0 1,-1 1,-1 1,-1 0,-1 0,-1 0,-1 0,0 0,-1 0,-1 0,0 0,0 0,0 0,0 0,-1 -1,-1 0,-1 -1,-1 -2,-2 -1,0 -2,-1 -3,-1 -1,-1 -2,-1 -3,-2l0 0 -1 0 0 0 -1 -1c0,0 0,0 0,0l-1 0 0 0c-1,-1 -2,-1 -3,-2 -1,0 -3,-1 -5,-2 0,0 0,0 0,0l0 0z"/>
       <path class="fil15" d="M173 607c-17,6 -35,13 -53,20 1,0 1,1 1,2 1,3 2,5 4,7 1,1 3,3 5,5 3,3 7,6 12,8 4,2 9,4 14,5 5,2 9,3 15,3 3,1 7,2 11,2 4,1 8,1 12,2 9,1 18,1 26,2 4,0 8,0 12,0 2,0 4,0 6,0 1,0 2,0 3,0 1,0 2,0 4,0 0,0 0,0 0,0 -6,11 -11,23 -16,36 -2,6 -5,13 -7,21 0,0 0,0 0,0 -2,7 -5,15 -7,23 0,1 0,1 0,2 0,1 1,2 2,2 1,1 2,2 3,3 0,0 0,0 0,0 3,1 6,3 10,4l0 0c3,1 6,1 10,2l0 0c0,0 1,0 2,0 10,-16 19,-30 28,-45 1,-3 3,-5 4,-8 1,-1 2,-2 2,-3 1,-1 2,-3 2,-4 2,-2 3,-3 4,-5 1,-2 2,-4 3,-6 3,-4 5,-8 7,-12 2,-5 3,-9 4,-13 2,-5 2,-9 1,-13 0,-2 0,-4 -1,-6 -1,-1 -2,-3 -3,-5 -1,-2 -2,-4 -4,-5 -1,-2 -3,-3 -5,-5 -3,-2 -7,-5 -11,-7 -5,-2 -9,-4 -12,-6 -3,-1 -6,-2 -8,-3 -3,-2 -5,-3 -8,-4 -6,-3 -12,-5 -16,-7 -2,0 -3,-1 -5,-1 -1,-1 -2,-1 -4,-2 -2,0 -4,-1 -6,-2 -10,-3 -20,-6 -31,-8 -6,-1 -11,-1 -16,-2 0,0 -1,0 -2,0l8 23zm57 147l0 0c0,0 0,0 0,0 0,0 0,0 0,0z"/>
       <path class="fil16" d="M173 607c-18,6 -35,13 -53,20 1,1 1,1 1,2 1,3 2,5 4,7 1,1 3,3 5,5 3,3 7,6 12,8 4,2 9,4 14,5 5,2 9,3 15,3 4,1 8,2 11,2 4,1 8,1 12,2 9,1 18,1 26,2 4,0 8,0 12,0 2,0 4,0 6,0 1,0 2,0 3,0 1,0 2,0 4,0 0,0 0,0 0,0 -6,11 -11,23 -16,36 -2,6 -5,13 -7,21 0,0 0,0 0,0 -2,7 -5,15 -7,23l0 1 0 1c0,0 1,1 1,2 1,-5 3,-10 4,-14 3,-11 7,-22 12,-33 0,0 0,0 0,0 1,-2 2,-4 3,-6 5,-13 11,-26 18,-38 -7,0 -13,0 -19,0 -7,-1 -14,-2 -20,-3 -3,0 -6,-1 -9,-2 -2,0 -4,0 -6,-1 -4,-1 -8,-2 -12,-4 -2,0 -4,-1 -6,-2 -2,-1 -3,-2 -5,-3 -2,-1 -3,-2 -5,-3 -1,-1 -3,-2 -4,-4 0,-1 -1,-1 -1,-2 0,-1 -1,-1 -1,-2 0,-2 -1,-3 -1,-5 1,-4 3,-8 5,-11 0,0 0,0 0,0 0,0 0,0 0,0 0,0 0,0 0,0 0,0 0,0 0,0 0,0 1,0 1,0 0,0 0,0 0,0 2,0 5,1 8,1 0,0 0,0 0,0 2,0 4,0 6,0 2,0 4,0 6,0 5,-1 10,-1 14,-2 0,0 0,0 0,0 7,-1 14,-3 20,-6 0,0 0,0 0,0 0,0 0,-1 0,-1 0,0 0,0 0,0l0 0c3,-1 6,-3 9,-5 -1,-1 -3,-1 -4,-2 -2,0 -3,-1 -5,-1 -1,-1 -2,-1 -3,-2 -3,0 -5,-1 -7,-2 -10,-3 -20,-6 -31,-8 -6,-1 -11,-1 -16,-2 0,0 -1,0 -2,0l8 23z"/>
       <path class="fil16" d="M167 612c0,0 0,1 0,1 2,0 5,0 7,0 0,1 0,0 0,0 0,0 0,-1 0,-1 -2,0 -3,0 -5,0 0,0 -1,0 -1,-1 -1,0 -1,0 -1,0 0,0 0,1 0,1z"/>
       <path class="fil16" d="M166 612c0,0 0,0 0,0 0,0 0,1 0,1 0,0 0,0 0,0 3,0 6,1 9,1 1,0 1,0 1,0 0,-1 0,-1 0,-1 -4,0 -7,-1 -10,-1 0,0 0,0 0,0 0,0 0,0 0,0z"/>
       <path class="fil16" d="M165 612c0,0 0,1 0,1 0,0 0,0 0,0 1,0 1,0 1,0 3,1 7,2 10,1 1,0 1,0 1,0 0,0 0,0 0,0 0,0 0,-1 -1,-1 -3,0 -7,0 -10,-1 0,0 0,0 0,0 0,0 0,0 -1,0z"/>
       <path class="fil10" d="M212 753c-1,3 -1,7 -2,10 -1,4 -2,9 -3,13 4,1 7,1 11,2 2,0 4,0 6,1 1,0 2,0 3,0 1,0 2,0 2,0 0,0 0,0 0,0 1,0 2,0 3,0l0 0c0,0 1,0 1,0 1,-1 1,-1 1,-1 1,0 1,-1 1,-1 1,-1 1,-2 2,-3 0,0 0,0 1,-1 0,0 0,-1 1,-1 0,0 0,0 0,0 0,0 -1,-1 -1,-1 -2,0 -4,-1 -5,-1 3,-6 7,-11 10,-16 -1,0 -3,0 -4,0 -4,-1 -7,-1 -10,-3 -5,-1 -10,-4 -14,-7 -1,3 -2,6 -3,9z"/>
       <path class="fil4" d="M236 773c0,0 0,0 0,0l0 0c0,0 0,0 0,0 0,0 0,0 0,0l-1 0c0,0 0,0 0,0 0,0 0,0 0,0 0,0 0,0 0,0 0,0 0,0 0,0 0,0 0,0 0,0 0,0 0,1 0,1 -1,0 -1,1 -1,1 0,0 0,1 0,1 0,0 0,0 -1,1 0,0 0,0 0,0 0,0 0,0 0,0 -4,0 -9,-1 -13,-1 -4,0 -9,-1 -13,-2 0,3 -1,6 -1,8 0,1 0,1 0,1 0,0 0,0 1,0l1 0c1,1 2,1 4,1 3,0 6,1 9,1 4,0 8,0 12,1 4,0 8,0 11,0l1 0c1,0 2,0 4,0 2,0 3,0 4,0 1,0 2,-1 3,-1 0,0 1,0 1,-1 0,0 1,0 1,0 0,-1 0,-1 0,-1 0,-1 0,-1 0,-1 0,0 0,0 0,0 -1,-1 -1,-1 -1,-1 -1,-1 -1,-1 -2,-2 -1,-1 -2,-1 -3,-2 -1,0 -2,0 -3,-1l-1 0 0 0 -1 -1 0 0c0,0 -1,0 -1,0l0 0 -1 -1c-1,0 -1,0 -2,-1 -2,0 -3,-1 -5,-2 0,0 -1,0 -1,0 0,1 -1,1 -1,2z"/>
       <path class="fil4" d="M235 773c1,0 1,0 1,0l-1 0z"/>
       <path class="fil4" d="M235 773c0,0 0,0 0,0 0,0 0,0 0,0z"/>
       <path class="fil10" d="M223 417l0 0c-1,0 -2,0 -3,0 0,0 -1,0 -1,0 0,0 0,0 -1,1 0,0 0,0 0,0 0,1 0,1 0,1 0,1 0,2 1,2 0,1 1,1 2,1 0,1 1,1 2,1 2,1 3,1 5,2l1 0 0 0c0,1 1,2 2,3 1,1 1,1 2,1 0,1 0,2 0,3 1,1 1,1 2,2 0,0 0,0 1,1 0,0 1,0 1,0l0 0c0,0 1,0 1,0 1,0 2,1 3,2 1,0 1,0 3,0 0,1 1,1 2,1 1,0 2,0 2,0 2,0 3,0 5,0 2,-1 4,-1 5,-2 1,0 2,0 3,-1 0,0 1,-1 1,-1 0,0 0,0 0,-1 1,0 1,0 1,-1 0,0 0,-1 0,-2 0,-1 -1,-2 -2,-3 1,0 1,0 1,0 0,0 0,-1 0,-1 0,0 0,0 -1,0 -2,-2 -4,-3 -8,-5 -2,-1 -5,-2 -9,-2 -2,-1 -5,-1 -9,-1 0,0 -1,0 -1,0 -1,0 -1,0 -2,-1 -1,0 -1,0 -2,0l0 0c-3,0 -5,0 -7,0z"/>
       <path class="fil11" d="M235 421c-1,0 -2,0 -3,0 0,0 -1,1 -2,1 0,0 -1,1 -1,2 0,0 0,0 0,0 0,0 0,0 1,0 0,0 0,0 0,-1 0,0 0,0 0,0 0,0 0,0 1,0 0,0 0,-1 0,-1 0,0 1,0 1,0 0,0 1,0 1,0 0,-1 1,-1 1,-1 1,0 2,0 3,0 -1,0 -1,0 -1,0 1,0 1,0 1,0 0,0 0,0 0,0 0,0 0,0 0,0 0,0 0,0 0,0 0,0 -1,0 -1,0 0,0 0,0 -1,0 0,0 0,0 0,0zm-1 0l0 0c0,0 0,0 0,0 0,0 0,0 0,0zm-4 2l0 0c0,0 0,0 0,0 0,0 0,0 0,0z"/>
       <path class="fil11" d="M237 426c-1,0 -1,0 -1,0 0,0 0,0 0,0 -1,0 -1,1 -1,1 -1,0 -2,1 -2,1 0,1 0,1 0,1 0,0 1,0 1,0 0,0 0,-1 0,-1 0,0 0,0 0,0 1,0 1,-1 1,-1 0,0 0,0 0,0 0,0 0,0 0,0 0,0 0,0 0,0 0,0 0,0 0,0 0,0 0,0 0,0 0,0 1,0 1,0 0,0 0,0 0,0 0,0 1,0 1,-1 0,0 0,0 0,0 0,0 0,0 0,0 0,0 0,0 0,0 0,0 0,0 0,0 0,0 0,0 0,0zm-2 1l0 0c0,0 0,0 0,0 0,0 0,0 0,0 0,0 0,0 0,0z"/>
       <path class="fil11" d="M241 432c0,0 0,0 -1,0 0,0 0,0 -1,0 0,1 0,1 0,1 0,0 0,1 -1,1 0,0 0,0 0,0 0,0 0,0 0,0 1,0 1,0 1,0 0,0 0,0 0,0 0,0 0,0 0,0 0,0 0,0 0,-1 0,0 0,0 0,0 0,0 0,0 0,0 0,0 0,0 0,0 0,0 0,0 0,0 0,0 0,0 0,0 1,0 1,0 1,0 0,0 0,0 0,0 0,0 0,0 0,0 0,0 1,-1 1,-1 0,0 0,0 0,0 0,0 1,0 1,0 0,0 -1,0 -1,0 0,0 0,0 0,0zm-2 1l0 0 0 0c0,0 0,0 0,0 0,0 0,0 0,0z"/>
       <path class="fil6" d="M260 424l0 0 0 0c-1,1 -2,2 -3,4 0,0 -1,1 -1,2 -1,1 -1,1 -2,2 -1,1 -2,3 -3,4 -1,0 -2,1 -2,2 -1,0 -1,0 -1,0 6,7 11,15 15,22l1 1c2,3 4,6 6,9l-1 0 -1 0c-7,-1 -15,-4 -22,-6 -6,-2 -12,-4 -18,-5 -2,0 -4,-1 -6,-1 -2,0 -4,-1 -5,-1l-3 0 0 0c-1,0 -2,0 -3,0 -2,0 -4,-1 -6,-1 -2,0 -3,-1 -4,-1 -1,-1 -3,-2 -4,-3 -1,-1 -2,-2 -3,-3 0,0 0,0 0,0 -1,0 -1,0 -1,0 0,0 0,0 0,0 -1,0 -2,1 -3,1 -2,1 -4,2 -6,2 -2,1 -4,1 -6,1 -1,0 -2,0 -3,0 -3,-1 -6,-1 -9,-2 -2,-1 -4,-2 -5,-3 0,0 -1,0 -1,0 0,0 0,0 0,0 0,0 0,0 0,0 0,0 0,1 0,1 -1,1 -1,3 -1,4 -1,2 -2,3 -2,4 -1,2 -3,3 -4,4 -3,2 -5,4 -9,6 0,0 0,0 0,0 -3,1 -5,2 -7,3l0 0 0 0c-3,1 -5,2 -8,3 -5,3 -9,6 -12,9 -4,3 -7,7 -9,11 -2,2 -3,5 -5,8l8 -3 19 -7c0,0 0,0 0,0l0 0 21 58 22 58c0,0 -1,0 -1,0 5,1 10,1 15,1 2,0 5,0 7,0 6,0 11,-1 16,-3 5,-1 9,-3 14,-5 4,-3 8,-5 12,-9 0,0 0,0 0,0 0,-1 0,-1 0,-1 -1,-3 -2,-5 -4,-8 -2,-4 -4,-8 -6,-13 -1,-4 -2,-8 -2,-12 -1,-2 -1,-3 0,-5 0,-2 0,-3 0,-5 1,-5 3,-9 5,-14 0,-1 0,-2 1,-3 1,-2 2,-5 3,-9 0,-3 1,-6 1,-9 0,-1 0,-2 0,-4 3,1 6,1 9,1 5,1 9,1 13,1 3,0 6,0 9,0 4,-1 7,-1 11,-2 3,-1 6,-2 10,-3 3,-1 6,-2 9,-4 2,0 3,-1 4,-2 1,0 3,-1 4,-2 2,-2 4,-4 6,-6 1,-1 1,-3 2,-4 1,-1 1,-2 1,-4 1,-3 1,-6 0,-9 0,-2 -1,-5 -3,-7 -1,-3 -3,-5 -5,-8 -2,-2 -4,-3 -5,-5 0,0 0,0 0,0l-1 -1 0 0c-2,-1 -3,-2 -4,-4 -1,-1 -2,-2 -4,-3 -2,-2 -5,-5 -8,-7 -7,-5 -15,-11 -22,-15 0,0 0,0 0,0l0 0z"/>
       <path class="fil17" d="M313 481c-2,2 -3,3 -4,5 -3,2 -6,5 -9,6 -4,3 -8,4 -13,5 -4,1 -9,1 -14,1 -5,0 -9,-1 -14,-2 -5,0 -10,-2 -15,-3 -8,-3 -17,-6 -25,-10 2,2 4,4 6,6 2,3 3,5 5,8 1,3 2,6 3,9 1,1 1,1 1,2l0 0c3,1 6,1 9,1 5,1 9,1 13,1 3,0 6,0 9,0 4,-1 7,-1 11,-2 3,-1 6,-2 10,-3 3,-1 6,-2 9,-3 2,-1 3,-2 4,-3 1,0 3,-1 4,-2 2,-2 4,-4 6,-6 1,-1 1,-3 2,-4 1,-1 1,-2 1,-4 1,-1 1,-1 1,-2 0,0 0,0 0,0z"/>
       <path class="fil17" d="M138 469l0 0 -1 1 0 0 0 0c-3,1 -5,2 -8,3 -5,3 -9,6 -12,9 -4,3 -7,7 -9,11 -2,2 -3,5 -5,8l8 -3 19 -7c0,0 0,0 0,0l0 0 21 58 2 3c-3,-8 -5,-15 -7,-23 -1,-5 -3,-10 -4,-15 -1,-3 -1,-5 -2,-8 -1,-2 -1,-4 -2,-6 0,-4 -1,-8 -2,-12 0,-2 0,-4 0,-6 0,-2 0,-4 1,-6 0,-1 0,-2 1,-3 0,0 1,-1 1,-2 0,-1 1,-2 2,-2 0,-1 0,-1 0,-1 -1,0 -2,1 -3,1z"/>
       <path class="fil18" d="M219 483c0,0 0,0 0,0 0,0 0,0 0,1 1,0 1,1 2,1 0,1 1,1 1,2 0,0 0,0 0,0 1,1 2,1 2,2 1,1 2,2 2,3 2,2 3,4 4,6 0,0 0,0 0,0 1,2 2,5 3,9 0,0 0,0 0,0l0 0c0,0 0,0 0,0 0,1 0,2 0,4 1,1 1,2 0,4 0,0 0,0 0,0 0,0 0,0 0,1 0,0 0,1 0,1 0,1 0,2 0,3 0,0 0,0 0,1 0,0 0,0 0,0 0,1 -1,1 -1,1 1,-1 1,-1 1,-2 0,-1 1,-2 1,-3 0,-1 0,-3 0,-4 0,-3 0,-7 -1,-10 -1,-2 -1,-3 -2,-5 -1,-2 -2,-3 -3,-4 -1,-3 -4,-6 -6,-8 -1,-1 -1,-2 -2,-3 0,0 0,0 0,0 0,0 -1,0 -1,0z"/>
       <path class="fil18" d="M233 507l0 0c0,0 0,0 0,0 0,0 0,0 0,0z"/>
       <path class="fil18" d="M143 505c0,0 -1,1 -1,2 -1,1 -1,2 -2,3 0,2 -1,3 -1,5l0 2c1,-1 1,-2 1,-3 1,-1 1,-3 2,-5 0,0 0,1 0,1 0,-2 1,-4 2,-5 0,0 0,-1 -1,-1 0,0 0,0 0,0 0,0 0,0 0,1z"/>
       <path class="fil18" d="M248 438c0,0 0,0 0,0 0,0 0,0 0,0 0,1 1,1 1,2 0,0 1,1 1,1 1,1 2,2 2,3 0,0 0,0 0,0 0,0 0,0 0,0 0,0 0,0 0,0 0,0 0,0 0,0 5,6 8,11 11,17 2,3 4,6 5,8 1,2 2,3 3,4 1,2 2,3 3,4 2,3 5,6 8,9 0,0 0,0 1,0 0,0 0,-1 0,-1 -2,-1 -3,-2 -5,-4 -1,-1 -2,-3 -3,-4 -2,-3 -4,-5 -6,-8 -1,-3 -3,-6 -4,-8 -4,-6 -7,-12 -11,-18 -1,-1 -2,-2 -3,-3 0,0 -1,-1 -1,-1 0,0 0,0 0,-1 -1,0 -1,0 -1,0 0,0 0,0 -1,0l0 0c0,0 0,0 0,0zm4 6l0 0c0,0 0,0 0,0 0,0 0,0 0,0 0,0 0,0 0,0z"/>
       <path class="fil18" d="M160 447c-1,1 -1,1 0,1 2,2 4,3 7,4 2,1 5,1 8,1 3,1 5,1 8,0 1,0 3,0 4,-1 1,0 3,-1 4,-1 1,-1 2,-1 3,-2 0,0 0,-1 0,-1 0,0 0,0 -1,0 -1,1 -1,1 -2,1 -1,1 -2,1 -3,2 -1,0 -2,0 -3,1 0,0 0,0 0,0 -3,0 -6,1 -9,0 0,0 0,0 0,0 -3,0 -6,0 -9,-1 0,0 0,0 0,0 -2,-1 -4,-2 -5,-3 0,0 0,0 0,0 -1,0 -1,0 -2,-1 0,0 0,0 0,0 0,0 0,0 0,0zm7 4l0 0c0,0 0,0 0,0 0,0 0,0 0,0zm9 1l0 0c0,0 0,0 0,0 0,0 0,0 0,0z"/>
       <path class="fil4" d="M177 354c-2,0 -4,0 -6,1 -5,0 -10,1 -14,2 -2,1 -5,2 -7,3 -2,1 -3,3 -5,4 -2,2 -3,3 -4,5 -2,3 -3,5 -3,8 -1,2 -1,4 -1,5 1,2 1,4 1,5 1,3 1,5 2,7 1,2 2,4 3,5 1,1 1,2 2,3 0,1 1,1 2,2 0,1 1,1 1,1 1,0 1,0 1,0 0,0 1,0 1,-1 1,0 1,-1 1,-2 0,-1 -1,-2 -1,-3 0,-1 -1,-3 -1,-4 0,-1 -1,-1 -1,-2 0,-1 0,-2 0,-2 -1,-4 -1,-8 -1,-11l0 0c0,-2 0,-5 1,-7 1,1 3,1 5,2 2,0 3,0 4,0 2,0 3,0 5,0 2,-1 5,-1 7,-1 1,0 1,0 2,0 1,-1 3,-1 4,-1 1,0 3,0 4,0 0,0 1,0 1,0l0 0c2,0 4,0 6,1 2,0 4,0 6,1 2,1 4,2 6,3 2,1 4,2 6,3l0 0c4,2 6,4 8,7 1,0 1,0 1,0 0,0 0,1 0,1 1,0 1,0 1,0 0,0 0,0 0,0 0,-1 0,-1 0,-1 0,0 0,0 0,0l0 0 0 -1c0,0 0,0 0,0 0,-4 0,-7 -1,-10 0,-2 -1,-3 -1,-5 0,-1 -1,-3 -2,-4 -1,-3 -3,-5 -5,-6 -1,-2 -4,-3 -6,-4 -2,-1 -4,-2 -7,-2 -3,-1 -5,-1 -7,-1 -3,-1 -5,-1 -8,-1z"/>
       <path class="fil12" d="M178 366c-1,0 -3,0 -5,1 -3,0 -6,1 -9,2l0 0c-3,0 -7,0 -10,0 0,0 0,0 0,0 -1,0 -2,0 -3,0 0,0 0,0 0,0 2,1 3,1 5,1 1,0 3,0 5,0 3,-1 6,-1 10,-2 0,0 0,0 0,0 0,0 0,0 1,0 -1,0 -1,0 -1,0 2,0 4,-1 6,-1 1,0 2,0 3,0 1,0 2,0 3,0 0,0 0,0 0,0 4,1 8,2 12,3 0,0 0,0 -1,0 2,1 3,1 4,1 1,1 2,1 3,2 2,1 4,2 6,4 0,0 0,0 -1,0 2,1 3,2 4,3 1,0 1,1 2,1 0,1 1,2 2,2 0,0 0,0 0,1 1,0 1,0 1,-1 0,0 1,0 1,0 0,-1 0,-1 -1,-1 -1,-1 -2,-3 -3,-4 -1,-1 -2,-2 -3,-3 -3,-1 -6,-3 -8,-4 -2,-1 -3,-2 -5,-2 -1,-1 -3,-1 -4,-2 -3,0 -6,-1 -9,-1 -1,0 -1,0 -1,0 -2,0 -3,0 -4,0zm5 1l0 0c0,0 0,0 0,0 0,0 0,0 0,0z"/>
       <path class="fil12" d="M194 362c0,1 0,1 0,1 2,0 3,1 5,1 0,0 0,0 0,0 1,1 2,1 3,2 2,1 3,1 4,2 1,1 2,2 3,3 1,1 2,2 3,3 0,0 0,0 0,0 1,1 1,1 1,1 0,0 1,0 1,0 0,-1 0,-1 0,-2 -1,-1 -1,-1 -2,-2 -1,0 -1,-1 -2,-2 -1,0 -2,-1 -2,-1 -1,-1 -2,-1 -3,-2 -2,-1 -3,-2 -5,-2 -1,-1 -2,-1 -3,-1 -1,0 -2,-1 -3,-1 0,0 0,0 0,0 0,0 0,0 0,0zm12 6l0 0c0,0 0,0 0,0 0,0 0,0 0,0z"/>
       <path class="fil4" d="M177 418c0,1 0,2 0,4 0,1 1,2 1,3 1,1 2,3 4,4 1,1 3,1 5,1 2,0 4,0 5,-2 3,-2 5,-5 5,-9 -2,0 -3,0 -4,0 -2,1 -4,1 -6,1 -4,-1 -7,-1 -10,-2 0,0 0,0 0,0z"/>
       <path class="fil5" d="M180 419c1,1 1,1 2,1 0,0 1,0 1,0 0,0 0,0 0,0 1,1 2,1 3,1 1,0 2,0 3,0l0 0c0,0 0,0 0,0 0,0 0,0 0,0 0,0 0,0 0,0 1,0 3,-1 5,-1 0,0 0,0 0,0 1,0 1,0 2,-1 0,0 0,0 0,0 -1,0 -2,0 -3,0 -2,1 -3,1 -4,1 -1,0 -2,0 -2,0 -3,-1 -6,-1 -8,-1 0,0 1,0 1,0z"/>
       <path class="fil19" d="M181 424c0,0 -1,0 -1,0 -1,1 -1,1 -2,1 1,1 2,3 4,4 1,1 3,1 5,1 2,0 4,0 5,-1l1 -1c-1,0 -2,-1 -3,-1 -1,-1 -3,-2 -5,-2 -1,0 -3,-1 -4,-1z"/>
       <path class="fil4" d="M171 409c1,0 1,-2 1,-5 -1,-2 -2,-4 -3,-4 -1,1 -1,3 -1,5 1,2 2,4 3,4z"/>
       <path class="fil4" d="M202 402c1,-1 1,-3 1,-5 -1,-2 -2,-4 -3,-3 -1,0 -1,2 -1,4 1,2 2,4 3,4z"/>
       <path class="fil4" d="M159 388c1,1 4,0 8,-2 3,-2 6,-5 5,-6 -1,-1 -4,0 -8,2 -3,3 -6,5 -5,6z"/>
       <path class="fil4" d="M148 371c0,0 -1,0 -1,0 0,0 -1,0 -1,1 0,0 -1,0 -1,1 -1,0 -1,0 -1,1 -1,1 -2,3 -2,4 -1,2 -1,4 -1,6 -1,3 -1,7 0,11 0,2 1,3 1,5 1,0 1,1 1,2 1,0 1,1 2,1 0,1 1,1 1,2 0,0 1,0 1,0 1,0 1,0 1,0 0,0 1,0 1,0 0,0 0,0 0,0 0,0 1,0 1,0 0,0 0,0 1,0 0,0 1,-1 1,-1 0,0 0,-1 1,-1 0,-1 0,-2 0,-3 0,-1 0,-2 0,-3 0,-1 0,-1 0,-2l0 -1 0 0c0,-1 0,-1 -1,-2 0,0 0,-1 0,-2l0 -1 0 0c0,-2 -1,-3 -1,-5 0,-1 0,-3 0,-4 0,-2 0,-4 0,-5 0,-1 0,-1 0,-2 0,0 0,0 0,0 0,0 0,0 0,0 0,0 0,0 0,0 0,0 0,0 0,-1 -1,0 -1,0 -1,0 0,0 0,-1 -1,-1 0,0 0,0 -1,0 0,0 0,0 0,0z"/>
       <path class="fil20" d="M188 391l0 0 0 0 0 0c0,0 0,0 0,1 0,1 1,2 1,2 1,1 1,2 2,3l0 1c1,2 2,4 3,6 1,2 1,3 1,4 0,1 0,1 0,2 0,0 0,0 0,1 0,0 0,0 0,0 -1,1 -1,1 -1,1 0,0 -1,0 -1,1 -1,0 -1,0 -2,0 0,0 0,0 -1,0 0,0 -1,1 -1,1 0,0 1,0 1,1 0,0 0,0 0,0 2,0 5,-1 6,-3 1,-1 1,-3 0,-5 0,-1 0,-2 -1,-3 0,-1 -1,-2 -1,-3 -1,0 -1,-1 -2,-2l0 0c0,-1 -1,-2 -2,-3 0,-1 0,-2 -1,-3 0,-1 0,-1 0,-1 0,-1 -1,-1 -1,-1z"/>
      </g>
      <path class="fil5" d="M130 491c0,0 0,0 0,0l-19 7 -66 25 18 49c0,0 0,0 0,0 1,-1 1,-1 2,-1 0,-1 1,-1 1,-1 0,0 1,0 1,0 0,0 0,0 0,0 1,0 1,0 1,0 0,0 1,1 1,1 0,0 0,1 0,1 0,1 0,2 0,2 0,0 1,-1 2,-2 0,0 1,-1 2,-2 1,0 1,0 2,-1 0,0 1,0 2,0l0 0c0,0 0,0 0,0 0,0 0,0 1,0 0,0 0,0 0,0 0,0 0,0 0,1 1,0 1,0 1,1 0,0 0,1 -1,1 1,0 1,0 2,0 0,-1 1,-1 2,-1 0,0 0,0 0,0 0,0 0,0 0,0 0,0 1,0 1,0 0,0 0,0 1,0 0,1 0,1 0,1 0,1 0,1 0,1 0,1 0,2 0,3 0,0 0,0 0,0 0,0 0,0 1,0 0,0 0,0 0,0l0 0c0,0 0,0 0,0 1,0 1,0 1,0 0,0 0,0 0,0 0,0 0,1 1,1 0,0 0,0 0,0 0,0 0,1 0,1 0,1 0,1 0,2 -1,0 -1,1 -1,2 0,0 -1,1 -1,1 0,1 0,1 -1,2l0 0c-1,3 -2,6 -4,9 0,1 -1,2 -2,4 -1,1 -2,2 -3,3 0,1 0,1 -1,1l14 37c28,-11 57,-22 85,-32l-22 -58 -21 -58 0 0z"/>
      <path class="fil21" d="M142 565c0,6 0,11 -4,16 -3,5 -8,9 -14,9 -5,0 -11,-2 -14,-6 -2,-4 -1,-9 1,-13 3,-3 6,-5 9,-7 3,-1 5,-4 4,-7 0,-2 -3,-5 -5,-4 -6,0 -16,6 -20,-1 -2,-4 1,-8 3,-11 2,-4 5,-7 10,-8 4,-1 5,3 4,6 -1,2 -3,5 -1,7 2,1 4,1 5,0 6,-5 5,-14 0,-19 -6,-5 -14,-3 -20,0 -4,2 -7,5 -9,8 -3,3 -5,7 -6,11 -2,8 2,16 9,20 1,1 2,1 3,1 0,1 -1,3 -1,4 -3,7 -1,16 4,22 2,3 6,6 10,8 11,4 26,-2 32,-12 2,-3 4,-7 5,-11 0,-5 0,-9 -2,-14 0,-1 -3,-1 -3,1l0 0z"/>
     </g>
     <g>
      <path class="fil22" d="M532 474c-1,0 -3,0 -4,0 -2,1 -3,1 -4,1 -1,1 -2,1 -3,1 -2,1 -3,3 -5,4 -1,2 -3,3 -4,5 -1,2 -2,4 -2,6 -1,4 -1,7 0,10 1,2 1,4 3,5 0,1 1,2 2,2 0,0 0,1 0,1 -1,1 -1,2 -2,3 0,1 0,2 -1,3 0,2 0,3 0,4 0,3 0,5 1,8 0,2 1,5 2,7 1,2 2,4 4,7 1,2 3,3 5,5 2,2 4,3 6,4 2,2 4,3 6,4 5,1 9,3 15,4 5,0 11,1 15,1l1 0c1,0 2,1 2,1 1,0 2,0 3,0l0 0 1 0c2,0 5,0 8,0 1,1 3,1 4,2l0 0 0 0c0,0 0,0 0,0 0,0 1,0 1,0 0,0 0,0 0,0 2,-1 3,-2 5,-3 1,-1 2,-1 4,-2 2,-2 4,-4 6,-7 5,-5 8,-10 10,-16 1,-2 1,-5 1,-8 0,-2 0,-4 0,-7 -1,-2 -2,-4 -3,-6 0,-1 -1,-2 -2,-3 0,-1 -1,-2 -2,-3 -1,0 -1,0 -2,-1 1,0 2,-1 3,-2 1,0 1,-1 1,-1 1,-1 1,-1 1,-2 1,0 1,-1 1,-1 0,-1 0,-2 0,-2 0,-1 0,-1 -1,-2 0,0 0,-1 -1,-1 0,-1 -1,-1 -2,-1 0,-1 0,-1 -1,-1 0,0 -1,1 -2,1 0,0 -1,0 -2,1 -1,0 -2,1 -3,1 0,0 0,1 0,1 0,-2 0,-3 0,-5 0,-1 0,-2 0,-3 0,-1 0,-2 -1,-3 -1,0 -2,-1 -3,-1 0,0 -1,0 -1,0 -1,0 -1,0 -1,0 -1,0 -2,0 -3,1 0,0 -1,1 -2,2 0,1 0,1 -1,3 0,0 0,1 -1,2l0 1c0,-2 -1,-4 -2,-5 -2,-3 -4,-5 -6,-6 -1,-1 -2,-2 -4,-2 -1,-1 -2,-1 -3,-1 -1,0 -1,0 -2,0 -2,0 -3,0 -4,0 -3,1 -5,2 -6,4 -1,0 -1,1 -1,2 -1,-1 -1,-1 -2,-2 -1,-1 -2,-2 -3,-3 -2,-2 -4,-3 -7,-4 -1,-1 -2,-2 -4,-2 -1,0 -2,-1 -4,-1 -1,0 -2,0 -4,0z"/>
      <path class="fil23" d="M568 567c0,0 0,0 0,0 0,0 -1,0 -1,0 0,1 0,2 -1,3 0,0 0,1 0,1 0,0 0,-1 -1,-1 0,-1 -1,-2 -2,-2 -1,0 -2,-1 -3,-1 0,0 -1,0 -1,0 -1,0 -1,0 -2,0 -2,0 -4,1 -5,2 -1,0 -2,1 -3,2 0,1 -1,2 -2,4 0,0 0,1 -1,1l0 0 0 0c0,0 0,-1 0,-1 0,0 0,0 0,0 0,1 -1,1 -1,1 0,0 0,0 0,0 0,1 1,2 1,2 0,1 0,1 0,1 0,1 0,2 0,3 0,2 -1,3 -1,5 -1,1 -2,3 -3,4 0,0 0,0 0,0 0,0 0,1 0,1 0,0 0,0 0,0 1,1 2,2 4,3 1,2 3,2 4,3 2,1 4,1 6,2 1,0 2,0 3,0 1,0 2,0 2,0 2,0 3,-1 4,-1 1,-1 2,-1 3,-2 1,-1 2,-2 3,-3 0,-2 0,-3 1,-5 0,0 0,0 -1,0 0,0 0,0 0,0 0,0 0,-1 -1,-1 0,-1 -1,-2 -2,-4 0,-1 -1,-3 -1,-5 0,-2 0,-4 0,-6l0 0c0,-2 1,-4 1,-5l0 0c0,-1 0,-1 0,-1 0,0 0,0 0,0 0,0 0,0 0,0z"/>
      <path class="fil24" d="M557 567c-2,0 -4,1 -5,2 -1,0 -2,1 -3,2 0,1 -1,2 -2,4 0,0 0,1 -1,1l0 0 0 0c0,0 0,-1 0,-1 0,0 0,0 0,0 0,1 -1,1 -1,1 0,0 0,0 0,0 0,1 1,2 1,2 0,1 0,1 0,1 0,1 0,2 0,3 0,1 -1,2 -1,2 2,0 4,0 6,-1 0,0 0,0 0,0 0,0 0,0 0,0 0,0 0,0 0,0 1,0 2,0 3,-1 1,0 2,-1 3,-1 0,0 0,0 0,0 1,-1 1,-1 2,-2 1,0 1,-1 2,-1 0,0 0,0 0,0 0,-1 1,-1 1,-2 1,0 1,-1 1,-1 0,0 0,0 0,0 0,0 0,0 0,0 0,0 0,0 0,0 1,-2 2,-4 2,-5 0,0 0,0 0,0 0,-1 -1,-2 -2,-2 -1,-1 -2,-1 -3,-1 0,0 -1,0 -1,0 -1,0 -1,0 -2,0zm6 8l0 0c0,0 0,0 0,0 0,0 0,0 0,0 0,0 0,0 0,0 0,0 0,0 0,0zm-12 8l0 0c0,0 0,0 0,0 0,0 0,0 0,0z"/>
      <path class="fil25" d="M517 524c0,0 -1,0 -1,0 -1,0 -1,1 -2,1 -1,1 -2,2 -3,4 -1,1 -1,3 -2,5 0,1 0,1 0,2 0,1 0,2 0,3 0,2 1,3 2,5 1,1 2,2 4,3 0,0 0,0 0,0 1,0 1,0 1,0 0,0 0,0 0,0 2,-2 4,-4 5,-6 1,-1 1,-2 2,-4 0,-1 1,-2 1,-4 0,-1 0,-2 -1,-3 0,-2 -1,-3 -1,-4 -1,0 -2,-1 -2,-1 -1,0 -1,-1 -1,-1 -1,0 -1,0 -1,0 0,0 -1,0 -1,0zm-1 22l0 0c0,0 0,0 0,0 0,0 0,0 0,-1 0,1 0,1 0,1z"/>
      <path class="fil24" d="M514 528c0,0 1,0 1,0 0,0 0,1 0,1 0,0 0,0 0,0 0,0 1,0 1,0 1,0 1,0 1,0 0,1 1,1 1,1 0,1 1,1 1,2 0,1 0,2 1,3 0,0 0,0 0,-1 0,1 0,2 0,2 0,0 0,1 0,1 1,0 1,-1 1,-1 0,-2 -1,-4 -2,-6 0,0 -1,-1 -1,-1 -1,-1 -1,-1 -2,-1 0,0 -1,0 -1,0 0,0 0,0 0,0 0,0 -1,0 -1,0zm2 1l0 0c0,0 0,0 0,0 0,0 0,0 0,0zm3 3l0 0c0,0 0,0 0,0 0,0 0,0 0,0z"/>
      <path class="fil23" d="M552 500c-1,0 -3,0 -4,0 -3,0 -5,1 -7,1 -1,1 -3,1 -4,1 -2,0 -3,0 -4,0 0,0 -1,0 -2,0 0,0 -1,0 -2,0l0 0c0,0 0,0 0,1 0,0 -1,0 -1,0 -1,1 -1,2 -2,3 -1,1 -2,2 -2,4 -1,2 -2,4 -3,7 0,2 0,4 -1,6 0,3 -1,7 -2,11 0,0 -1,1 -1,2 0,1 -1,1 -1,2 0,0 -1,1 -1,2 -1,1 -1,2 -2,4 0,2 -1,5 -1,8 0,2 1,5 2,8 0,1 1,2 1,3 1,1 1,2 2,4 2,2 4,4 6,6 2,1 5,3 7,4 3,1 5,1 8,2 3,0 5,1 8,1l0 0c6,0 11,-1 16,-4 2,-1 4,-2 6,-4 2,-1 3,-3 5,-5 1,1 4,1 6,2 0,0 1,0 1,0l1 0c0,0 1,0 2,0 1,-1 2,-1 4,-2 1,0 2,-1 3,-2 1,-1 2,-2 2,-4 1,-1 1,-2 1,-3 0,-2 -1,-3 -1,-4 -1,-1 -2,-2 -3,-2 -1,-1 -2,-1 -3,-2 -1,0 -2,0 -4,0 0,0 -1,0 -2,0 1,-1 2,-3 3,-4l1 -1 0 -1 1 -1c0,0 0,-1 1,-1 1,-2 3,-5 4,-9 1,-1 1,-3 2,-4 0,-1 0,-2 0,-3 0,0 0,-1 0,-2 -1,-2 -2,-5 -3,-7 -2,-2 -4,-4 -6,-6 -2,-1 -4,-3 -7,-4 -2,-2 -5,-3 -7,-4 -3,-1 -7,-2 -10,-3 -2,0 -4,0 -7,0z"/>
      <path class="fil25" d="M548 500c-3,0 -5,1 -7,1 -2,0 -3,1 -4,1 -2,0 -3,0 -4,0 0,0 -1,0 -2,0 0,0 -1,0 -2,0 0,0 0,0 0,1l0 0c-1,0 -1,0 -1,0 -1,1 -2,2 -2,3 -1,1 -2,2 -2,4 -1,1 -1,2 -2,3 1,0 1,0 1,1 1,0 2,1 3,1 1,1 2,1 3,1l0 0c1,1 2,1 4,1 1,1 2,1 3,1l0 0c2,0 3,0 4,0 1,0 2,-1 4,-1 0,0 0,0 0,0 1,0 2,-1 4,-1 0,0 0,0 0,0 0,0 0,0 0,0 0,0 0,0 0,0 1,1 2,2 3,3 0,0 0,0 0,0l-1 0 1 0c0,1 1,1 1,2 1,0 2,1 2,1 1,1 1,1 2,1 1,0 1,1 2,1l0 0c1,0 1,0 2,0 0,0 1,1 2,1l0 0c0,0 0,0 0,0 0,0 0,0 0,0 0,0 1,0 2,0 0,-1 1,-1 2,-1 0,0 0,0 0,0 1,0 2,0 3,-1 0,0 0,0 0,0 0,0 0,0 0,0 1,1 1,2 1,2 0,0 0,0 0,0 1,1 1,2 2,2 0,1 1,2 1,2l0 0c1,1 2,2 2,2 1,1 2,2 3,2 1,1 2,1 3,2 1,0 1,1 2,1 0,0 0,0 0,0 0,0 0,0 0,0 0,0 0,0 0,0 2,1 4,1 6,1 0,-1 1,-2 1,-4 1,-1 1,-3 2,-4 0,-1 0,-2 0,-3 0,0 0,-1 0,-2 -1,-2 -2,-5 -3,-7 -2,-2 -4,-4 -6,-6 -2,-1 -4,-3 -7,-4 -2,-2 -4,-3 -7,-4 -3,-1 -7,-2 -10,-3 -2,0 -4,0 -7,0 -1,0 -3,0 -4,0zm-19 16l0 0c0,0 0,0 0,0 0,0 0,0 0,0zm15 1l0 0c0,0 0,0 0,0 0,0 0,0 0,0zm14 7l0 0 0 0 0 0zm4 1l0 0 0 0 0 0 0 0zm11 4l0 0c0,0 0,0 0,0 0,0 0,0 0,0zm10 7l0 0c0,0 0,0 0,0 0,0 0,0 0,0z"/>
      <polygon class="fil25" points="562,525 562,525 "/>
      <path class="fil25" d="M547 514c0,0 0,0 0,0 1,3 2,5 4,6 1,1 1,1 1,1 1,1 1,1 2,1 1,1 2,2 3,2 1,1 2,1 3,1 1,0 2,1 3,1 2,-1 3,-1 4,-1 1,0 1,0 2,-1 0,0 1,0 2,-1 0,0 0,0 0,-1 0,0 -1,-1 -1,0 -1,0 -1,0 -2,0 0,0 -1,0 -1,0 -1,1 -3,1 -4,1 -1,0 -2,0 -4,0 0,0 -1,-1 -2,-1 -1,0 -1,0 -2,-1 -1,0 -3,-1 -4,-2 0,-1 -1,-1 -1,-2 -1,-1 -1,-1 -2,-2 0,0 0,0 0,0 0,0 0,-1 0,-1 0,0 0,0 -1,0 0,0 0,0 0,0zm4 5l0 0c0,0 0,0 0,0 0,0 0,0 0,0zm16 3l0 0c0,1 0,1 0,1 0,0 0,0 0,-1zm-8 1l0 0c0,0 0,0 0,0 0,0 0,0 0,0z"/>
      <path class="fil24" d="M582 553c0,1 0,1 0,2 0,0 0,0 0,0 0,0 0,0 0,0 0,0 0,0 0,0 0,0 0,0 0,0 -1,1 -1,1 -1,2 -1,1 -1,2 -2,3 0,1 -1,1 -1,2 0,0 0,0 0,0 -1,0 -2,1 -2,1 0,0 0,0 0,0 0,0 0,0 0,0 -1,0 -1,0 -1,0 0,0 0,0 0,0 0,0 0,0 0,0 0,0 0,0 0,1 0,0 0,0 0,0 1,-1 2,-1 3,-2 1,0 2,-1 3,-2 0,-1 0,-1 0,-1 1,-1 1,-1 1,-2 1,-1 1,-2 1,-4 0,0 0,0 -1,0 0,0 0,0 0,0zm-7 10l0 0c0,0 1,0 1,0 0,0 0,0 0,0 0,0 0,0 -1,0zm3 -1l0 0c0,0 0,0 0,0 0,0 0,0 0,0zm4 -7l0 0c0,0 0,0 0,0 0,0 0,0 0,0 0,0 0,0 0,0z"/>
      <path class="fil24" d="M583 553c0,0 0,0 -1,0 0,0 0,0 0,0 0,0 0,0 0,0 0,1 0,1 0,1 0,0 0,0 0,0 1,0 1,0 1,0 1,0 1,0 2,0 1,1 1,1 2,1 1,1 1,1 2,1 0,0 0,0 0,0 0,0 0,0 0,0 0,0 0,0 0,0 0,0 0,0 0,0 0,1 0,1 0,1 1,0 1,0 1,1 0,0 0,0 0,0 0,0 0,0 1,1 0,0 0,0 0,0 0,1 0,1 0,1 0,0 0,0 0,-1 0,0 0,-1 0,-1 0,-1 -1,-1 -1,-1 0,-1 0,-1 0,-1 0,0 -1,0 -1,-1 0,0 0,0 -1,-1 -1,0 -2,-1 -3,-1 0,0 0,0 -1,0 0,-1 0,-1 0,-1 0,0 0,0 0,0 -1,0 -1,0 -1,1zm2 1l0 0c0,0 0,0 0,0 0,0 0,0 0,0zm6 5l0 0c0,0 0,0 0,0 0,0 0,0 0,0zm-2 -3l0 0c0,0 0,0 0,0l0 0c0,0 0,0 0,0z"/>
      <path class="fil23" d="M624 523c0,-2 -1,-4 -1,-6 0,0 0,-1 0,-2 0,0 0,0 0,0 0,-1 -1,-1 -1,-2 0,-3 -1,-6 -2,-8 -1,-1 -2,-2 -2,-3 -1,0 -1,-1 -2,-1 0,0 0,-1 -1,-1 0,0 0,0 -1,0 0,0 0,0 0,0 0,0 0,0 -1,1 0,0 0,1 0,1 -1,1 -1,1 -1,2 0,-1 0,-2 -1,-3 0,0 -1,-1 -1,-2 -1,0 -1,0 -1,0 0,0 0,0 0,0 0,0 -1,0 -1,0 0,0 0,0 0,0 0,0 -1,0 -1,0 0,0 0,0 0,0 0,1 -1,1 -1,1 0,1 0,1 0,1 0,1 0,1 0,2 1,1 1,2 1,2 -1,-1 -1,-1 -2,-2 0,0 -1,0 -1,0 0,0 0,0 0,0 -1,0 -1,0 -1,0 -1,0 -1,1 -1,1 0,0 0,1 -1,1 0,0 0,1 1,2 0,1 1,1 1,2 1,1 2,2 2,3l1 0c-1,0 -1,0 -2,0 -1,0 -1,0 -2,1 0,0 0,1 -1,1 0,1 0,1 0,2 1,2 3,3 4,4 1,1 2,1 3,2l1 0 0 0c2,1 4,2 5,3 1,0 2,0 3,0 0,0 0,0 0,0 1,0 2,0 3,0 1,-1 1,-1 2,-2 0,0 0,1 0,1 0,0 0,1 0,1 0,0 0,0 0,0 0,0 1,0 1,0 0,0 0,0 0,0 0,0 1,0 1,0 0,-1 0,-1 0,-1 0,0 0,0 0,-1z"/>
      <path class="fil23" d="M489 529c0,-1 0,-1 0,-2 -1,0 -1,0 -2,0 0,-1 -1,-1 -2,0 0,0 -1,1 -1,1l0 -1c0,-1 0,-2 0,-3 0,-1 0,-2 0,-3 0,0 0,-1 -1,-1 0,-1 0,-1 0,-1 -1,0 -1,0 -1,0 -1,0 -1,0 -1,0 0,0 0,0 -1,0 0,1 0,1 0,1 -1,1 -1,2 -1,3 0,-1 0,-2 -1,-3 0,0 0,0 0,-1 -1,0 -1,0 -1,-1 0,0 -1,0 -1,0 0,0 0,0 -1,0 0,0 0,0 0,0 0,0 0,0 -1,0 0,0 0,0 0,0 0,1 0,1 0,1 0,0 0,0 0,0 -1,1 -1,2 -1,3 0,1 1,2 1,3 0,-1 -1,-1 -1,-1 -1,-1 -1,-1 -2,-2 0,0 -1,0 -1,1 0,0 0,0 0,0 0,0 0,0 -1,0 0,1 0,1 0,1 0,1 0,2 -1,2 0,1 0,2 0,4 1,2 1,5 3,8 0,0 0,1 0,2 0,0 0,0 0,0 1,1 1,1 1,2 1,2 2,4 3,5 0,0 0,1 0,1 0,0 1,0 1,0 0,1 0,1 0,0 1,0 1,0 1,0 0,0 0,0 0,0 0,0 0,-1 0,-1 0,0 0,0 0,0 0,0 0,-1 -1,-1 1,0 2,0 3,0 1,0 2,0 2,-1 0,0 1,0 1,0 0,0 1,-1 2,-2 1,-1 2,-3 2,-5l1 0 0 -1c1,-1 1,-2 2,-3 0,-1 1,-3 0,-5z"/>
      <path class="fil24" d="M477 530c0,0 0,0 0,0 0,1 -1,1 -1,2 0,0 0,1 0,1 0,1 0,1 0,2 0,0 1,1 1,1 0,1 0,1 0,1 1,0 1,-1 1,-1 0,0 0,0 0,0 0,0 0,0 0,0 0,0 0,0 -1,0 0,0 0,-1 0,-1 0,0 0,0 0,0 0,0 0,-1 0,-1 0,0 0,0 0,-1 0,0 0,0 0,0 0,0 0,0 0,0 0,-1 0,-1 0,-1 0,-1 0,-1 0,-1 0,-1 0,-1 0,-1 0,0 0,0 0,0 0,0 0,0 0,0z"/>
      <path class="fil24" d="M613 511c-1,0 -1,1 0,1 0,0 0,0 0,0 0,1 1,1 1,1 0,0 0,0 0,0 0,1 0,2 0,2 0,1 0,1 0,2 0,0 1,1 1,1 0,0 0,0 0,-1 1,0 1,0 1,0 -1,-1 -1,-2 -1,-3 -1,-1 -1,-2 -2,-3 0,0 0,0 0,0 0,0 0,0 0,0zm1 4l0 0c0,0 0,0 0,0 0,0 0,0 0,0z"/>
      <path class="fil7" d="M486 537c0,0 0,0 0,0 -2,0 -5,1 -7,2 -2,0 -4,1 -6,2 0,0 0,0 0,0 0,1 -1,1 -1,1 -1,4 -1,8 -1,11 0,1 0,3 1,4 0,2 0,3 0,4 1,5 3,11 6,16 2,4 5,9 9,13 3,4 8,8 12,12 5,3 9,6 14,8 3,1 6,2 9,3 0,0 0,0 0,0 3,1 7,2 10,2 1,0 2,0 3,0 2,0 4,0 5,-1 2,0 3,0 4,-1 1,-1 1,-2 2,-3 1,0 1,-2 1,-3 1,0 1,-1 1,-2 0,0 0,-1 0,-1 0,-2 0,-3 0,-4 -1,-2 -1,-3 -1,-5 0,-1 -1,-3 -2,-4 0,-1 -1,-2 -2,-3 1,0 1,0 1,0 0,0 0,0 0,0 0,0 0,-1 0,-1 -1,0 -1,0 -1,0 0,0 0,0 0,0 0,0 -1,1 -2,1l1 0c-2,0 -3,0 -5,0 -1,0 -3,0 -4,0 -4,-1 -7,-2 -10,-3l0 0c-4,-2 -8,-4 -12,-7l0 0c-4,-3 -8,-6 -11,-10 -2,-3 -3,-5 -4,-7 -2,-2 -3,-5 -4,-7 -2,-6 -3,-10 -4,-15l0 0c0,-1 0,-1 0,-2 -1,0 -1,0 -2,0z"/>
      <path class="fil7" d="M543 588c0,0 0,0 -1,0 0,0 0,0 0,0 0,1 0,1 0,1 1,0 1,0 1,0 1,0 1,-1 1,-1 0,0 0,0 -1,0 0,0 0,0 0,0z"/>
      <path class="fil7" d="M543 587c0,0 0,0 -1,1 0,0 0,0 0,0 0,1 0,1 0,1 1,0 1,0 2,-1 0,0 0,0 0,0 0,0 0,0 0,0 0,0 0,-1 0,-1 0,0 0,0 -1,0 0,0 0,0 0,0z"/>
      <path class="fil7" d="M543 588c0,0 -1,0 -1,0 0,0 0,0 0,0 0,1 0,1 0,1 1,0 1,0 1,0 1,0 1,-1 1,-1 0,0 -1,0 -1,0 0,0 0,0 0,0z"/>
      <path class="fil7" d="M543 587c0,0 -1,1 -1,1 0,0 0,0 0,0 0,1 0,1 0,1 1,0 1,0 1,-1 0,0 1,0 1,0 0,0 0,0 0,0 0,0 -1,-1 -1,-1 0,0 0,0 0,0z"/>
      <path class="fil7" d="M543 587c0,0 -1,0 -1,1 -1,0 -1,0 -1,0 0,1 1,1 1,1 0,0 1,-1 1,-1 1,0 1,0 1,0 0,-1 0,-1 -1,-1 0,0 0,0 0,0z"/>
      <path class="fil7" d="M543 587c-1,0 -1,1 -1,1 -1,0 -1,0 -1,0 0,1 0,1 1,1 0,0 1,0 1,-1 0,0 0,0 1,0 0,0 0,0 0,0 0,0 -1,-1 -1,-1 0,0 0,0 0,0z"/>
      <path class="fil7" d="M608 521c0,0 0,0 0,0 3,-1 6,-1 8,-1 2,0 4,0 6,1 0,0 0,0 0,0 1,0 1,0 2,1 2,3 3,7 4,9 0,2 0,3 1,5 0,1 0,2 0,4 1,5 1,10 0,16 -1,5 -3,10 -5,16 -2,5 -5,10 -8,14 -4,5 -7,9 -12,12 -2,2 -4,4 -7,6 0,0 0,0 0,0 -3,2 -6,4 -9,5 -1,0 -2,1 -2,1 -2,0 -4,1 -6,1 -1,0 -2,0 -4,-1 -1,0 -2,-1 -3,-1 -1,-1 -1,-2 -2,-3 0,-1 -1,-1 -1,-2 0,0 0,-1 0,-1 -1,-2 -1,-3 -1,-4 -1,-2 -1,-3 -1,-5 0,-1 0,-3 0,-4 0,-1 1,-2 1,-3 0,0 0,0 0,0 0,0 0,-1 0,-1 0,0 0,0 0,0 0,0 0,0 0,0 0,0 0,0 0,0 1,0 1,-1 2,-1l0 0c1,0 3,0 4,-1 2,0 3,-1 4,-1 3,-2 6,-3 9,-6l0 0c3,-2 6,-6 9,-9l0 0c3,-5 6,-9 8,-14 0,-3 1,-5 2,-7 0,-3 1,-6 1,-9 1,-5 0,-10 0,-15l0 0c0,-1 -1,-1 -1,-2 1,0 1,0 1,0z"/>
      <path class="fil7" d="M569 586c1,0 1,0 1,0 1,0 1,0 1,0 0,1 0,1 -1,1 0,0 0,0 -1,0 0,0 0,0 0,-1 0,0 0,0 0,0 0,0 0,0 0,0z"/>
      <path class="fil7" d="M569 586c0,0 1,0 1,0 1,-1 1,0 1,0 0,0 0,1 -1,1 0,0 0,0 -1,0 0,0 0,0 0,0 0,0 0,-1 0,-1 0,0 0,0 0,0 0,0 0,0 0,0 0,0 0,0 0,0z"/>
      <path class="fil7" d="M569 586c1,0 1,0 1,0 1,0 1,0 1,0 0,0 0,1 -1,1 0,0 0,0 0,0 -1,0 -1,0 -1,-1 0,0 0,0 0,0 0,0 0,0 0,0z"/>
      <path class="fil7" d="M569 586c1,0 1,0 1,0 1,0 1,0 1,0 0,0 0,1 -1,1 0,0 0,0 -1,0 0,0 0,0 0,0 0,0 0,-1 0,-1 0,0 0,0 0,0 0,0 0,0 0,0z"/>
      <path class="fil7" d="M569 586c1,-1 1,-1 2,-1 0,0 0,1 0,1 0,0 0,1 0,1 -1,0 -1,0 -2,0 0,0 0,0 0,-1 0,0 0,0 0,0 0,0 0,0 0,0z"/>
      <path class="fil7" d="M569 586c1,0 1,-1 2,-1 0,0 0,1 0,1 1,0 0,1 0,1 0,0 -1,0 -1,0 -1,0 -1,0 -1,0 0,-1 0,-1 0,-1 0,0 0,0 0,0 0,0 0,0 0,0z"/>
      <path class="fil7" d="M569 586c0,0 0,0 0,0 0,0 -1,0 -1,0 0,1 -1,2 -2,3 -1,1 -1,2 -2,2 -2,1 -3,2 -4,2l0 0c-2,0 -3,1 -5,1l0 0c-1,0 -2,0 -4,-1l0 0c-1,0 -2,0 -3,-1 0,0 -1,-1 -2,-1 0,-1 -1,-2 -1,-2 -1,-1 -1,-1 -1,-1 0,-1 0,-1 -1,-1l0 0c0,0 0,0 0,0 0,0 0,0 0,0 0,0 0,0 0,0 -5,3 -9,6 -13,11 -3,3 -6,8 -8,13 -1,3 -2,5 -3,8 -1,2 -1,5 -1,8 -1,2 -1,5 -1,8 0,3 1,5 1,8 2,10 5,20 10,28 0,0 0,0 0,0 3,3 7,5 13,5l0 0c2,0 5,0 7,-1 2,0 5,-1 7,-1 2,-1 5,-2 6,-3 3,-1 6,-2 8,-3 6,-3 11,-5 15,-9 5,-3 8,-7 11,-12 1,-1 1,-3 2,-4 0,-1 1,-3 1,-5 0,-3 0,-6 -1,-10 0,-1 -1,-3 -1,-5 0,-1 -1,-2 -1,-3 -1,-3 -2,-5 -3,-8 -2,-5 -5,-10 -9,-15 -4,-5 -9,-9 -14,-11 0,0 0,0 0,0 0,0 0,0 0,0z"/>
      <path class="fil26" d="M621 521c0,0 0,0 0,0 0,0 1,0 1,1 1,2 2,4 2,7 1,3 1,5 1,8 0,3 0,6 0,9 0,2 -1,5 -2,8 0,3 -1,5 -2,8 -1,2 -2,5 -3,7 -1,1 -1,2 -2,3 -1,2 -2,3 -3,4 -2,3 -3,5 -5,7 -4,5 -8,9 -13,13 -3,2 -5,4 -8,5 -1,1 -2,1 -4,2 -1,1 -2,1 -3,2l0 0 -1 0c3,5 5,11 6,17 0,3 1,6 1,9 0,3 0,6 0,9 -1,4 -1,7 -2,11 0,3 -1,7 -2,10 0,0 1,-1 2,-2 5,-3 8,-7 11,-12 1,-1 1,-3 2,-4 0,-1 1,-3 1,-5 0,-3 0,-6 -1,-10 0,-1 -1,-3 -1,-5 0,-1 -1,-2 -1,-3 -1,-3 -2,-5 -3,-8 -1,-1 -1,-3 -2,-4 3,-1 5,-3 7,-4 0,0 0,0 0,0 3,-2 5,-4 7,-6 5,-3 8,-7 12,-12 3,-4 6,-9 8,-14 2,-5 4,-11 5,-16 1,-6 1,-11 0,-16 0,-2 0,-3 0,-4 -1,-2 -1,-3 -1,-5 -1,-2 -2,-6 -4,-9 0,-1 -1,-1 -2,-1 0,0 0,0 -1,0 0,0 0,0 0,0z"/>
      <path class="fil26" d="M568 585c0,1 -1,1 -1,2 -1,1 -2,2 -3,3 0,0 -1,0 -1,1 -1,0 -1,0 -2,1 -1,0 -2,1 -3,1 0,0 0,0 0,0 -2,0 -3,0 -4,0 -2,0 -3,-1 -4,-1 -1,0 -2,-1 -3,-1 -1,-1 -1,-2 -2,-3 0,0 -1,-1 -1,-1 0,0 -1,0 -1,0 0,0 0,0 0,1 1,1 2,2 2,2 1,1 2,2 4,3 2,1 4,1 7,1 2,0 5,-1 7,-2 1,-1 2,-1 3,-2 1,-1 2,-3 3,-4 0,0 0,0 0,0 0,-1 0,-1 0,-1 0,0 0,0 0,0 -1,0 -1,0 -1,0zm-1 2l0 0c0,0 0,0 0,0 0,0 0,0 0,0zm-22 1l0 0c0,0 0,0 0,0 0,0 0,0 0,0zm19 2l0 0c0,0 0,0 0,0 0,0 0,0 0,0zm-17 0l0 0c0,0 0,0 0,1 0,-1 0,-1 0,-1zm14 2l0 0c0,0 0,0 0,0 0,0 0,0 0,0zm-11 0l0 0c0,0 0,0 0,0 0,0 0,0 0,0z"/>
      <path class="fil4" d="M503 634c-1,0 -1,0 -2,0 -1,0 -1,1 -2,1 0,0 0,0 -1,0 -1,1 -2,1 -3,2 0,1 -1,2 -2,3 -1,2 -2,4 -3,6 0,2 0,4 0,6 0,2 0,4 1,7 1,2 2,4 3,6 1,2 3,4 5,6 1,1 3,3 5,5 1,1 2,2 4,4 0,0 0,0 0,0 0,0 0,0 0,0 0,1 0,1 1,1 0,1 1,1 1,1 1,1 2,2 3,2 1,1 2,1 4,1 0,1 1,1 2,1 0,0 0,0 0,0 1,0 1,0 1,0 0,0 1,0 1,0 2,1 4,1 7,1 2,0 4,0 5,1 2,0 4,-1 6,-1 2,0 4,0 6,-1 2,0 4,-1 5,-2 2,-1 3,-1 4,-3 0,0 0,-1 1,-1 0,-1 0,-2 0,-3 0,0 0,-1 -1,-2 0,-1 -1,-2 -1,-3 -1,-1 -2,-2 -3,-3 -1,-1 -2,-2 -3,-3 -3,-3 -5,-5 -8,-7 -1,0 -1,-1 -2,-2 -2,-1 -4,-3 -6,-4 -1,-1 -2,-2 -3,-2 0,-1 -1,-2 -2,-2l0 -1c-3,-3 -7,-6 -10,-9 -2,-1 -4,-2 -6,-3 -2,-1 -4,-2 -6,-2 -1,0 -1,0 -1,0z"/>
      <path class="fil15" d="M535 676c0,0 0,0 0,0 -1,0 -1,0 -2,0l0 0c-1,0 -2,0 -3,0l0 0c0,0 0,0 0,0 0,0 0,0 0,0 -4,1 -7,1 -10,1l-1 0c-1,0 -2,0 -3,0l-1 0c0,0 -1,0 -1,0 -1,0 -1,0 -2,0 -3,0 -5,1 -6,2 -1,1 -2,3 -2,5 1,2 2,4 4,5 1,1 2,2 3,2 1,1 2,1 3,2 2,1 4,1 7,2 2,0 4,0 6,0 1,0 2,0 4,0 3,0 7,-1 10,-2 0,0 0,1 0,1 1,0 1,0 1,0l0 0c0,0 0,0 0,0 1,-1 1,-1 1,-1 1,-1 2,-1 3,-1 0,0 0,0 0,-1 0,0 0,0 0,0 0,0 0,0 0,0 0,0 0,0 -1,0 0,0 0,0 0,0 0,0 0,0 -1,0 0,0 0,-1 1,-1 0,-1 0,-1 0,-2 0,-1 0,-2 0,-4 0,-1 -1,-2 -1,-3 0,0 -1,-1 -1,-1 0,-1 -1,-1 -1,-2 -1,-1 -2,-1 -3,-1 -1,-1 -2,-1 -4,-1z"/>
      <path class="fil5" d="M506 679c-1,1 -2,3 -2,5 1,2 2,4 4,5 1,1 2,2 3,2 0,1 1,1 1,1 0,-1 1,-2 1,-3 0,0 0,0 0,0l0 0c0,0 0,0 0,0 0,-2 0,-4 0,-5 0,0 0,0 0,0 0,-1 0,-2 -1,-2 0,-1 0,-1 0,-2 0,0 0,0 0,0 0,0 0,0 0,0l0 0 0 0c0,0 0,0 0,0 0,0 0,0 0,0 0,0 0,0 0,0 0,0 0,-1 -1,-1 0,-1 0,-1 0,-1 0,0 0,0 0,0 0,0 0,0 0,0 0,0 0,0 0,0l0 0c0,0 0,0 0,0 0,0 0,0 0,0 0,0 0,0 0,0 0,0 0,0 0,0 0,0 0,0 0,0 -1,-1 -1,-1 -1,-1 -2,0 -3,1 -4,2zm7 10l0 0 0 0 0 0z"/>
      <path class="fil5" d="M511 678l0 0c0,0 0,0 0,0 0,0 0,0 0,0z"/>
      <path class="fil5" d="M517 680c0,0 0,0 0,1 0,0 1,0 1,0 0,1 0,2 0,2 0,0 0,0 0,0 0,1 0,2 0,3 0,0 1,1 1,1 0,0 0,-1 0,-1 0,-1 0,-2 0,-3 0,-1 0,-1 0,-2 0,0 -1,-1 -1,-1 0,0 0,0 0,0 0,0 0,0 -1,0z"/>
      <path class="fil5" d="M523 680c0,0 -1,0 0,0 0,1 0,1 0,1 0,1 0,1 0,2 1,1 1,2 1,3 0,0 0,1 0,1 1,0 1,-1 1,-1 0,-1 0,-2 0,-3 0,-1 -1,-1 -1,-2 0,0 0,-1 0,-1 -1,0 -1,0 -1,0 0,0 0,0 0,0zm0 3l0 0c0,0 0,0 0,0 0,0 0,0 0,0z"/>
      <path class="fil5" d="M528 679c-1,0 -1,0 0,1 0,0 0,0 0,0 0,1 0,2 0,3 0,0 0,0 0,-1 1,1 1,2 1,3 0,0 0,1 0,1 0,0 1,-1 1,-1 0,-1 0,-2 0,-3 -1,-1 -1,-2 -1,-3 -1,0 -1,0 -1,0 0,0 0,0 0,0zm0 2l0 0c0,0 0,0 0,0 0,0 0,0 0,0z"/>
      <path class="fil27" d="M599 640c-2,0 -5,0 -8,1 -1,0 -2,1 -4,1 -1,1 -3,1 -4,2 -3,1 -6,2 -9,4 -6,3 -12,7 -17,11 -2,1 -4,3 -6,5l-2 1c-2,1 -3,3 -5,4 -2,1 -3,2 -5,3 -2,1 -4,3 -6,4 3,6 6,13 10,19 0,0 0,0 0,0 0,0 0,0 0,0 4,0 9,-1 14,-1 5,-1 10,-2 15,-3 5,-1 10,-3 15,-5 5,-2 9,-4 13,-7 4,-3 7,-7 10,-10 1,-1 1,-2 2,-3 0,-1 1,-3 1,-4 1,-1 1,-3 1,-4 1,-1 1,-3 1,-4 -1,-3 -1,-6 -3,-8 0,0 0,-1 -1,-1 0,-1 -1,-1 -1,-2 -1,-1 -2,-1 -4,-2 -1,0 -2,-1 -3,-1 -1,0 -2,0 -3,0 -1,0 -1,0 -1,0z"/>
      <path class="fil28" d="M611 645c0,0 0,0 0,0 1,1 1,2 0,2 0,3 0,6 -1,8 -1,3 -2,5 -4,7 -2,3 -3,5 -6,7 -2,2 -4,4 -6,6 -1,0 -2,1 -4,2 -1,1 -2,1 -3,2 -6,4 -12,6 -18,9 -7,2 -14,3 -20,4 -2,0 -5,1 -8,1 1,0 1,1 2,2 0,0 0,0 0,0 4,0 9,-1 14,-1 5,-1 10,-2 15,-3 5,-1 10,-3 15,-5 5,-2 9,-4 13,-7 4,-3 7,-7 10,-10 1,-1 1,-2 2,-3 0,-1 1,-3 1,-4 1,-1 1,-3 1,-4 1,-1 1,-3 1,-4 0,-3 -1,-6 -3,-8 0,0 0,-1 0,-1l-1 0z"/>
      <path class="fil22" d="M536 494c-1,0 -1,0 -2,0 -5,0 -11,1 -15,2 -1,0 -1,0 -1,0 0,0 0,0 0,0 0,0 0,1 0,1 0,2 1,4 2,6 1,2 2,3 4,5 2,2 6,4 10,5 2,0 4,1 6,1 4,0 9,-2 12,-4 0,1 0,2 0,3 1,2 2,3 3,4 2,3 6,4 9,4 0,0 1,0 1,0 3,0 6,-1 8,-3 0,1 0,1 0,2 0,2 0,4 2,5 0,1 1,2 2,2 1,1 2,1 3,2 0,0 1,0 2,0l0 0 0 0c-1,1 -2,2 -3,3 -2,3 -3,6 -4,9 0,1 0,3 0,4 0,1 0,1 0,2 0,1 0,1 1,1 0,1 0,1 0,2 1,0 1,0 1,0 1,1 1,1 1,1 1,0 1,0 1,0 0,0 0,0 1,0 1,0 2,-1 3,-2 0,0 1,0 1,-1 1,0 1,-1 2,-1 2,-3 4,-5 5,-8 2,-3 3,-5 3,-8 1,-3 1,-6 1,-9 0,-2 0,-3 -1,-5 0,-1 0,-2 -1,-3 0,-1 -1,-2 -1,-3 -1,-1 -2,-2 -3,-2 -1,-2 -3,-3 -5,-5 -2,-1 -4,-2 -6,-3 -4,-1 -8,-3 -14,-4 -2,0 -4,-1 -7,-1 -2,0 -5,-1 -7,-1 -5,-1 -10,-1 -14,-1z"/>
      <path class="fil29" d="M518 500c0,0 0,0 0,0 0,1 1,2 2,3 0,1 1,2 2,3 2,2 4,4 6,5 3,1 5,2 8,3 1,0 2,0 4,0 1,0 2,0 4,0 1,0 2,-1 4,-1 1,0 1,0 2,-1 1,0 2,0 3,-1 0,0 0,-1 0,-1 0,0 0,0 -1,0 0,-1 0,-1 0,0 -1,0 -2,0 -2,0 -1,1 -1,1 -2,1 -1,1 -2,1 -3,1 0,0 0,0 0,0 -1,0 -2,1 -3,1 -1,0 -2,0 -3,0 0,0 0,0 0,0 0,0 0,0 0,0 0,0 0,0 0,0 0,0 0,0 0,0 -1,0 -2,0 -4,0 -1,-1 -2,-1 -3,-1l0 0c-1,-1 -2,-1 -2,-1 -1,-1 -2,-1 -3,-2 -2,-1 -4,-2 -5,-4 -1,-1 -3,-3 -4,-5 0,0 0,0 0,0 0,0 0,0 0,0 0,0 0,0 0,0 0,0 0,0 0,0zm4 5l0 0c0,0 0,0 0,0 0,0 0,0 0,0zm17 8l0 0 0 0c0,0 0,0 0,0 0,0 0,0 0,0zm-21 -13l0 0 0 0 0 0z"/>
      <path class="fil29" d="M529 502c0,0 0,0 0,0 1,1 1,2 2,2 1,1 2,1 3,2 0,0 1,0 2,1 1,0 2,0 3,0 1,0 2,0 3,0 1,0 2,0 3,0 1,0 2,-1 3,-1 0,0 1,-1 1,-1 1,0 1,0 2,-1 0,0 0,0 0,0 0,0 0,-1 0,-1 0,0 -1,-1 -2,0 -1,0 -2,1 -3,2 -2,0 -4,1 -6,1 -1,0 -1,0 -2,0 -1,0 -1,0 -2,0 -1,-1 -2,-1 -3,-1 0,0 0,0 0,0 0,0 0,0 0,0l0 -1 0 0c-1,0 -2,0 -2,-1 -1,0 -1,-1 -2,-1 0,0 0,0 0,0 0,0 0,0 0,0zm2 1l0 0c0,0 0,0 0,0 0,0 0,0 0,0zm2 2l0 0c0,0 0,0 0,0 0,0 0,0 0,-1l0 1z"/>
      <path class="fil29" d="M578 514c0,1 0,2 0,3 1,1 1,2 2,3 0,1 1,2 2,2 1,1 1,2 2,2 1,0 1,0 1,0 1,-1 1,-1 0,-1 0,-1 -1,-1 -2,-1 0,-1 -1,-1 -2,-2 0,0 0,0 0,0 0,0 0,0 0,0 0,0 0,0 0,0 0,0 0,0 0,0 0,0 -1,0 -1,-1 0,0 -1,-1 -1,-1 0,-1 0,-1 0,-2 0,0 0,0 0,0 0,-1 0,-1 0,-2 0,0 0,0 0,0 -1,0 -1,0 -1,0zm3 6l0 0c0,0 0,0 0,0 0,0 0,0 0,0 0,0 0,0 0,0z"/>
      <path class="fil29" d="M605 528c0,1 0,2 -1,3 0,1 0,2 -1,3 0,0 0,1 0,1 -1,1 -1,2 -1,2 -1,1 -2,2 -3,3 0,0 0,0 0,0l0 0c0,0 0,1 0,1 0,0 0,-1 0,-1 0,1 -1,2 -2,3 -1,1 -1,1 -2,2 0,0 0,0 0,0 -1,1 -2,1 -2,1 -1,1 -1,1 -1,2 1,0 1,0 2,0 1,-1 3,-2 4,-4 1,0 2,-1 2,-2 1,-1 1,-2 2,-3 0,-1 1,-1 1,-2 1,-1 1,-2 1,-3 1,-1 1,-2 1,-3 0,-1 1,-2 1,-3 0,0 0,-1 0,-1 -1,0 -1,0 -1,0 0,0 0,0 0,1zm-6 12l0 0c0,0 0,0 0,0 0,0 0,0 0,0 0,0 0,0 0,0z"/>
      <path class="fil29" d="M601 525c0,0 0,1 0,1 -1,0 -1,0 -1,1 0,0 0,1 0,1 0,0 0,0 0,0 -1,1 -1,2 -2,4 0,0 0,-1 0,-1 0,1 0,1 0,1 0,0 0,0 0,0 0,0 0,0 0,0 -1,0 -1,0 -1,1 0,0 -1,0 -1,0 0,0 1,1 1,1 0,0 0,0 0,0 0,0 1,0 1,0 0,-1 1,-2 1,-2 0,-1 1,-2 1,-2 1,-2 1,-3 1,-5 0,0 0,0 0,0 0,0 0,0 0,0zm-3 7l0 0c0,0 0,0 0,0 0,0 0,0 0,0 0,0 0,0 0,0z"/>
      <path class="fil4" d="M547 552c0,1 0,2 -1,4 0,1 0,1 -1,2 -1,2 -2,3 -4,4 -1,1 -3,1 -5,1 -2,0 -3,-1 -4,-2 -3,-3 -4,-7 -3,-11 1,1 2,1 3,1 2,1 4,1 6,1 3,1 6,0 9,0 0,0 0,0 0,0z"/>
      <path class="fil5" d="M544 553c-1,0 -1,0 -2,0 0,0 -1,1 -1,1 0,0 0,0 0,0 -1,0 -2,0 -3,0 -1,0 -1,0 -2,-1 0,0 0,0 0,0 0,0 0,0 0,0 0,0 0,0 0,0 0,0 0,0 0,0 -2,0 -3,0 -5,-1 0,0 0,0 0,0 0,0 -1,-1 -1,-1 -1,0 -1,0 -1,0 1,0 2,0 3,0 2,1 3,1 4,1 0,0 1,0 2,0 2,0 5,0 7,0 0,0 -1,1 -1,1z"/>
      <path class="fil19" d="M543 558c0,0 0,0 0,0 1,0 1,0 2,1 -1,1 -2,2 -4,3 -1,1 -3,1 -5,1 -2,0 -3,-1 -5,-2l0 0c1,-1 2,-1 3,-2 1,0 3,-1 4,-1 2,0 3,0 5,0z"/>
      <path class="fil4" d="M553 549c-1,0 -1,-2 -1,-5 1,-2 2,-3 3,-3 1,0 1,2 1,4 -1,2 -2,4 -3,4z"/>
      <path class="fil4" d="M525 542c-1,0 -1,-2 -1,-4 1,-2 2,-3 3,-3 1,0 1,2 1,4 -1,2 -2,3 -3,3z"/>
      <path class="fil22" d="M531 519c-1,0 -1,0 -3,0 -1,0 -2,1 -3,1 -1,1 -1,1 -1,2 0,0 1,0 2,0 1,0 2,0 3,0 3,-1 5,-2 4,-2 0,-1 0,-1 -2,-1z"/>
      <path class="fil22" d="M556 523c-1,0 -1,0 -1,0 0,1 0,1 1,2 0,1 1,1 3,2 1,1 3,1 4,1 0,0 1,0 1,0 0,0 0,-1 -1,-2 -1,0 -2,-1 -3,-2 -2,-1 -3,-1 -4,-1z"/>
      <path class="fil30" d="M536 542c-1,0 -1,0 -1,0 0,0 -1,0 -1,0 0,0 -1,1 -1,1 -1,0 -1,1 -1,1 0,0 0,0 0,0 0,1 0,1 0,1 0,0 0,0 0,0 0,0 1,0 1,0 0,0 0,0 0,-1l0 0c0,0 0,0 0,0 1,-1 1,-1 1,-1 0,0 1,0 1,0 0,0 1,0 1,0 0,0 1,0 1,0 0,0 1,0 1,0 0,0 1,1 1,1 0,0 0,0 0,1l1 0 0 0c0,0 0,0 0,0 0,0 0,0 0,0 0,0 0,0 0,0 0,-1 0,-1 -1,-1 0,-1 0,-1 0,-1 -1,-1 -2,-1 -3,-1 0,0 0,0 0,0z"/>
     </g>
     <g>
      <path class="fil4" d="M599 701c-4,0 -8,0 -12,0 7,28 15,56 23,84l5 0c-4,-28 -8,-56 -12,-84 -1,0 -3,0 -4,0z"/>
      <path class="fil4" d="M570 701c-4,0 -9,0 -13,0 7,25 14,51 21,76l4 0c-3,-25 -6,-51 -10,-76 -1,0 -1,0 -2,0z"/>
      <path class="fil4" d="M495 701c-4,28 -8,55 -12,83l5 0c8,-28 15,-55 22,-83l-15 0z"/>
      <path class="fil4" d="M525 701c-3,25 -6,49 -10,74l5 0c7,-25 13,-49 20,-74l-15 0z"/>
      <path class="fil7" d="M498 686l-8 0c-8,0 -15,6 -15,13 0,7 7,13 15,13l113 0 1 0c8,0 14,-6 14,-13 0,-7 -6,-13 -14,-13l-106 0z"/>
      <path class="fil8" d="M595 686c0,1 0,1 0,2 0,0 0,1 0,1 0,1 -1,2 -1,4 -1,1 -1,2 -2,3 -1,1 -2,2 -3,3 0,1 -1,1 -2,2 -1,1 -2,2 -3,3 -3,1 -5,2 -8,4 -2,1 -5,2 -8,3 -1,0 -2,1 -3,1l38 0 1 0c8,0 14,-6 14,-13 0,-7 -6,-13 -14,-13l-9 0z"/>
     </g>
     <g>
      <path class="fil4" d="M349 604l0 19c0,2 1,3 2,3 2,0 3,-1 3,-3l0 -19c0,-2 -1,-3 -3,-3 -1,0 -2,1 -2,3z"/>
      <path class="fil4" d="M360 620l-12 0 -6 0c-3,0 -7,3 -7,7 0,3 4,7 7,7l18 0c4,0 7,-4 7,-7 0,-4 -3,-7 -7,-7z"/>
      <path class="fil15" d="M369 543c-1,0 -2,0 -3,1 -2,0 -5,1 -7,2 -2,1 -4,3 -5,5 -1,1 -1,2 -2,3 -1,-1 -2,-2 -3,-3 -1,-1 -2,-2 -4,-3 -2,-1 -5,-2 -8,-3 -1,0 -3,-1 -4,-1 -1,0 -2,0 -2,1 -2,0 -5,0 -7,2 -3,1 -6,4 -9,6 -1,2 -3,3 -4,4 -2,2 -3,3 -5,5 -2,1 -3,3 -4,4 -1,0 -1,0 -1,0 0,0 0,0 0,1 0,1 0,3 0,5 1,3 2,6 4,9 2,3 4,6 6,8 5,5 11,9 18,12 6,2 13,4 20,4 1,0 2,0 2,0 7,0 13,-1 19,-3 12,-4 22,-11 28,-21 0,-1 1,-2 1,-4 1,-1 1,-2 1,-2 0,-1 0,-1 0,-1 1,-1 1,-2 1,-3l0 0 0 0c0,0 0,0 0,0l0 0 0 0 0 0 0 -1c0,0 0,0 0,0 0,0 0,-1 1,-2l0 0 0 0 0 0 0 -1 0 0 0 0 0 0 0 0c0,0 0,0 0,0l0 0 0 -1 0 0c0,0 0,0 0,0l0 0 0 0 0 0c0,-1 0,-1 -1,-1 0,0 0,0 0,-1 -1,0 -3,-1 -4,-2 -3,-2 -5,-5 -7,-7 -1,-1 -2,-3 -4,-4 -2,-2 -4,-3 -6,-5 -2,-1 -5,-2 -7,-3 -1,0 -2,0 -4,0z"/>
      <path class="fil16" d="M331 545c-3,0 -5,0 -7,1 -3,2 -6,5 -9,7 -2,2 -3,3 -4,4l0 1c-2,1 -3,3 -5,4 -2,1 -3,3 -5,4 0,0 0,0 0,0 0,0 0,0 0,1 0,1 0,3 0,5 1,3 2,6 4,9 2,3 4,6 6,8 5,5 11,9 18,12 6,2 13,4 20,4 1,0 2,0 2,0 7,0 13,-1 19,-3 2,0 3,-1 5,-2 -3,1 -6,1 -9,1 -5,1 -9,1 -14,0 -4,0 -8,-1 -12,-2 -4,-2 -8,-3 -12,-6 -1,-1 -3,-2 -4,-3 -2,-2 -3,-3 -4,-5 -1,-2 -2,-3 -3,-5 -1,-1 -1,-3 -1,-4 -1,-1 -1,-2 -1,-4 0,-2 0,-5 1,-7 1,-3 2,-5 3,-7 2,-2 3,-4 5,-6 2,-1 4,-3 7,-4 1,0 2,-1 3,-1 2,-1 3,-1 4,-1 1,0 1,0 2,0 -1,-1 -2,-1 -3,-1 -1,0 -3,-1 -4,-1 -1,0 -2,0 -2,1z"/>
      <path class="fil4" d="M394 568c-1,1 -1,1 -2,2 -2,1 -4,2 -6,2 -3,1 -7,2 -10,3 -4,0 -7,1 -11,1 -3,0 -7,1 -11,1 -3,0 -7,0 -11,0 -3,0 -7,-1 -11,-1 -3,-1 -7,-1 -10,-2 -2,0 -3,0 -5,-1 -2,0 -3,-1 -5,-1 -1,-1 -2,-1 -2,-1 -1,-1 -1,-1 -2,-1 1,1 1,2 2,3 2,6 7,10 13,14 3,2 6,3 9,4 3,1 7,2 10,2 3,1 6,1 9,1 4,0 8,0 12,-1 3,-1 6,-2 9,-3 3,-1 6,-3 9,-4 3,-3 6,-5 9,-8l0 0c0,-1 1,-2 1,-2l0 -1 0 0 0 0c1,-1 1,-1 1,-2l0 0 0 0 0 0c1,-1 1,-1 1,-2l0 0 0 0 0 0 1 -1 0 0 0 0 0 0 0 0c0,-1 0,-1 0,-1 0,0 0,-1 0,-1 0,0 0,0 0,0z"/>
      <path class="fil5" d="M393 568l-1 0 0 0 0 0 0 0 0 0 -1 0 0 0c-1,0 -2,0 -3,0 -2,1 -4,1 -6,1 -3,1 -7,1 -10,1 -6,1 -12,1 -19,1 -1,0 -2,0 -3,0 -6,0 -12,0 -19,0 -4,-1 -8,-1 -12,-2 -1,0 -3,0 -4,0l0 0c-2,0 -3,-1 -4,-1l0 0 -1 0c0,0 0,0 -1,0 0,0 0,0 0,0 0,0 0,0 0,0 -1,0 -1,0 -1,1 0,1 0,1 1,2 0,1 1,1 2,1 0,0 0,0 0,0 2,1 3,2 5,2 1,0 3,1 4,1 3,1 6,1 10,2 0,0 0,0 0,0 0,0 0,0 0,0 0,0 0,0 0,0 3,0 6,1 10,1 3,0 7,0 10,0 7,0 14,0 21,-1l0 0c3,-1 7,-1 10,-2 3,-1 6,-1 8,-3 0,0 0,0 0,0 2,0 3,-1 5,-2l0 0 0 0 0 0c0,-1 0,-1 0,-1 0,-1 0,-1 -1,-1 0,0 0,0 0,0 0,0 0,0 0,0z"/>
     </g>
     <path class="fil6" d="M391 609c0,0 0,0 0,0 0,0 0,0 0,0z"/>
     <g>
      <g>
       <path class="fil6" d="M404 606l-10 0c0,0 0,0 -1,0 0,0 0,0 0,1 -1,1 -1,1 -2,2 0,0 0,0 0,0 0,1 -1,2 -1,4 -1,1 -1,2 -1,3 0,0 0,0 0,0 0,0 0,0 0,0l0 0c0,1 0,2 0,4 0,1 0,2 0,3l0 0c0,2 1,3 1,5 0,1 1,2 2,4 0,0 0,0 0,0 0,1 1,2 2,3 0,0 0,0 0,0l72 0 3 0c1,0 1,0 2,0 1,-2 1,-3 2,-5 0,-2 1,-3 1,-5l0 0c0,-1 1,-3 1,-4 0,-1 0,-2 0,-3 0,-1 0,-3 -1,-5l0 0c0,-2 -1,-4 -2,-6 0,0 0,0 0,0 0,0 0,-1 0,-1 0,0 0,0 0,0 -1,0 -2,0 -3,0l-65 0zm-13 3l0 0 0 0 0 0z"/>
       <polygon class="fil18" points="414,635 419,635 419,606 414,606 "/>
       <polygon class="fil18" points="404,606 400,606 400,635 409,635 409,606 "/>
      </g>
      <g>
       <path class="fil15" d="M439 590l-32 0c0,0 -1,0 -1,0 -1,0 -1,0 -1,0 0,1 0,1 0,2l0 0c-1,0 -1,1 -1,2 0,0 0,1 0,2 0,0 0,0 0,0 -1,1 -1,1 -1,2 0,1 0,1 1,2 0,0 0,0 0,0 0,1 0,1 0,2 0,0 0,1 1,2 0,0 0,0 0,0 0,0 0,0 0,0 0,0 0,1 0,1 0,0 1,1 1,1 0,0 1,0 1,0l58 0 7 0c1,0 1,0 1,0 1,-1 1,-1 1,-2 0,0 0,0 0,0 1,-1 1,-1 1,-2 0,-1 0,-2 0,-2 0,0 0,0 0,0 1,-1 1,-2 1,-3 0,0 0,-1 -1,-2l0 0c0,0 0,-1 0,-2 0,0 0,-1 0,-1 -1,-1 -1,-1 -1,-2 0,0 0,0 0,0 -1,0 -1,0 -2,0l-33 0z"/>
       <polygon class="fil5" points="409,602 440,602 440,595 409,595 "/>
      </g>
     </g>
     <g>
      <path class="fil4" d="M384 646l0 133c0,2 2,4 5,4 2,0 4,-2 4,-4l0 -133c0,-3 -2,-5 -4,-5 -3,0 -5,2 -5,5z"/>
      <path class="fil31" d="M431 766l-47 0 -42 0c-4,0 -8,4 -8,9 0,5 4,9 8,9l86 0 3 0c5,0 9,-4 9,-9 0,-5 -4,-9 -9,-9z"/>
      <path class="fil7" d="M474 630l0 0 -94 0 -83 0c-6,0 -11,5 -11,11 0,6 5,11 11,11l154 0 23 0c6,0 11,-5 11,-11 0,-6 -5,-11 -11,-11z"/>
      <path class="fil8" d="M478 645l-101 0 -90 0c2,4 6,7 10,7l154 0 23 0c4,0 8,-3 10,-7l-6 0z"/>
     </g>
     <g>
      <g>
       <g>
        <path class="fil32" d="M109 717c-1,-5 -4,-9 -8,-11 -3,-2 -6,-2 -8,-5 -2,-2 -2,-6 -2,-9 0,-4 -1,-7 -3,-10 -2,-3 -6,-5 -10,-5 -5,1 -8,6 -8,11 0,4 3,9 6,12 2,1 4,3 4,5 1,3 0,5 -1,8 0,4 1,7 3,10 4,4 9,7 14,8 2,0 5,0 8,0 2,0 3,-2 4,-4 1,-3 2,-7 1,-10z"/>
       </g>
       <path class="fil33" d="M79 681c2,6 4,13 7,19 3,7 6,13 10,18 2,3 4,7 7,10 0,0 0,-1 0,-1 -4,-5 -8,-11 -12,-17 -3,-6 -6,-12 -8,-18 -1,-4 -2,-8 -3,-11 0,0 -1,0 -1,0z"/>
      </g>
      <g>
       <path class="fil34" d="M92 722c-3,-6 -4,-13 -2,-19 1,-3 3,-7 4,-10 2,-6 0,-12 -2,-18 -2,-6 -5,-12 -6,-18 0,-6 1,-13 6,-16 5,-3 11,-3 16,0 5,3 8,8 9,14 1,5 1,11 0,16 -1,5 -2,10 -1,14 1,2 3,4 5,6 4,5 7,11 7,17 1,7 0,13 -4,18 -3,5 -11,10 -16,8 -7,-2 -13,-6 -16,-12z"/>
       <path class="fil33" d="M102 643c1,6 2,12 4,17 1,6 2,12 2,18 1,5 2,11 2,17 1,6 1,12 1,17 0,6 0,12 0,18 0,0 0,1 0,2 0,0 0,0 0,0 0,-6 0,-12 0,-18 0,-5 0,-11 0,-17 -1,-6 -1,-12 -2,-17 -1,-6 -2,-12 -3,-17 -1,-6 -2,-12 -3,-17 -1,-1 -1,-2 -1,-3 0,0 0,0 0,0z"/>
      </g>
      <g>
       <g>
        <path class="fil32" d="M107 718c0,-6 2,-12 6,-16 3,-2 7,-4 8,-8 2,-4 1,-8 0,-11 -1,-5 -1,-10 1,-15 2,-4 6,-8 11,-8 6,-1 12,4 13,10 2,6 0,13 -4,18 -2,2 -4,4 -4,7 0,4 3,7 4,10 2,4 1,9 -1,13 -3,6 -8,11 -14,14 -3,1 -6,2 -10,3 -3,0 -5,-2 -7,-4 -2,-4 -4,-9 -3,-13z"/>
       </g>
       <path class="fil33" d="M132 665c0,4 0,8 -1,13 0,4 -1,9 -1,13 -1,4 -2,8 -3,13 -1,4 -3,8 -4,12 -2,4 -3,8 -5,12 -1,1 -1,1 -1,2 0,0 0,0 0,0 2,-4 4,-8 5,-12 2,-4 3,-8 4,-13 2,-4 3,-8 4,-13 0,-4 1,-8 1,-12 1,-5 1,-9 1,-14 0,0 0,-1 0,-1 0,0 0,0 0,0z"/>
      </g>
      <g>
       <g>
        <polygon class="fil35" points="132,784 91,784 86,733 137,733 "/>
       </g>
       <g>
        <polygon class="fil36" points="139,739 84,739 84,728 139,728 "/>
       </g>
      </g>
     </g>
    </g>
   </g>
  </g>
  <path class="fil2" d="M75 0l494 0c41,0 75,34 75,75l0 622c0,41 -34,75 -75,75l-494 0c-41,0 -75,-34 -75,-75l0 -622c0,-41 34,-75 75,-75z"/>
  <path class="fil37" d="M101 121c-3,0 -6,-1 -9,-2 -2,-1 -5,-3 -7,-5l5 -6c3,4 7,5 11,5 3,0 5,0 6,-1 2,-1 2,-3 2,-4 0,-1 0,-1 0,-2 0,0 0,-1 -1,-1 0,0 0,-1 -1,-1 0,0 0,-1 -1,-1 -1,0 -1,0 -2,0 0,-1 -1,-1 -2,-1 -1,0 -1,-1 -2,-1 -2,0 -3,-1 -5,-2 -1,0 -2,-1 -4,-2 -1,-1 -2,-2 -3,-4 0,-1 -1,-3 -1,-5 0,-4 2,-7 5,-9 3,-3 6,-4 11,-4 5,0 10,2 14,4l-4 7c-3,-3 -7,-4 -10,-4 -2,0 -4,1 -5,2 -1,1 -2,2 -2,4 0,0 0,1 0,1 0,1 1,1 1,2 1,0 1,0 2,1 0,0 0,0 1,1 1,0 2,0 2,0 1,1 2,1 3,1 2,1 3,2 5,2 1,1 2,2 4,3 1,1 2,2 3,3 1,2 1,3 1,5 0,4 -1,7 -5,10 -3,3 -7,4 -12,4z"/>
  <path id="1" class="fil37" d="M153 76c5,0 9,1 11,4 3,3 4,6 4,11 0,4 -1,8 -4,10 -3,3 -7,4 -12,4l-7 0 0 15 -9 0 0 -40c0,-1 0,-2 1,-3 1,-1 2,-1 3,-1l13 0zm-1 22c5,0 7,-3 7,-7 0,-3 -1,-4 -2,-6 -1,-1 -3,-2 -5,-2l-7 0 0 15 7 0z"/>
  <path id="2" class="fil37" d="M215 84l-21 0 0 10 19 0 0 7 -19 0 0 12 20 0 0 7 -28 0 0 -40c0,-1 0,-2 1,-3 0,-1 1,-1 2,-1l26 0 0 8z"/>
  <path id="3" class="fil37" d="M263 84l-21 0 0 10 19 0 0 7 -19 0 0 12 20 0 0 7 -28 0 0 -40c0,-1 0,-2 1,-3 0,-1 1,-1 2,-1l26 0 0 8z"/>
  <path id="4" class="fil37" d="M300 121c-7,0 -12,-2 -16,-6 -4,-4 -6,-10 -6,-17 0,-7 2,-12 7,-16 4,-5 9,-7 15,-7 4,0 7,1 11,3 3,1 5,4 7,7l-7 4c-2,-4 -6,-6 -11,-6 -3,0 -7,1 -9,4 -2,3 -4,6 -4,11 0,5 2,8 4,11 2,3 5,4 9,4 5,0 9,-2 13,-6l5 5c-5,6 -11,9 -18,9z"/>
  <polygon id="5" class="fil37" points="336,120 336,76 345,76 345,94 363,94 363,76 372,76 372,120 363,120 363,102 345,102 345,120 "/>
  <path id="6" class="fil37" d="M433 120l-3 -11 -16 0 -4 11 -9 0 15 -41c0,-2 2,-3 6,-3 3,0 5,1 6,3l15 41 -10 0zm-17 -18l11 0 -5 -17 -6 17z"/>
  <path id="7" class="fil37" d="M488 76l8 0 0 42c0,1 0,1 -1,2 -1,0 -2,1 -3,1 -2,0 -3,-1 -3,-1 -1,0 -2,-1 -3,-2l-19 -27 0 29 -8 0 0 -41c0,-1 0,-2 1,-2 1,-1 2,-1 3,-1 2,0 3,0 4,1 1,0 2,1 3,3l18 25 0 -29z"/>
  <path id="8" class="fil37" d="M517 120l0 -40c0,-1 1,-2 1,-3 1,-1 2,-1 3,-1l13 0c4,0 8,1 11,3 4,2 6,5 8,8 1,3 2,7 2,11 0,6 -2,11 -5,16 -4,4 -9,6 -16,6l-17 0zm9 -7l7 0c4,0 7,-2 10,-4 2,-3 3,-7 3,-11 0,-4 -1,-8 -3,-10 -2,-3 -5,-5 -9,-5l-8 0 0 30z"/>
  <path id="9" class="fil37" d="M120 177c-1,0 -2,0 -2,-1 -1,0 -1,-1 -1,-2l0 -41 8 0 0 37 20 0 0 7 -25 0z"/>
  <path id="10" class="fil37" d="M191 177l-3 -10 -16 0 -4 10 -9 0 15 -40c0,-3 2,-4 6,-4 3,0 5,1 6,4l14 40 -9 0zm-17 -18l11 0 -5 -16 -6 16z"/>
  <path id="11" class="fil37" d="M246 133l8 0 0 42c0,1 0,2 -1,2 -1,1 -2,1 -3,1 -2,0 -3,0 -3,-1 -1,0 -2,-1 -3,-2l-19 -27 0 29 -8 0 0 -40c0,-2 0,-2 1,-3 1,-1 2,-1 3,-1 2,0 3,0 4,1 1,0 2,1 3,3l18 26 0 -30z"/>
  <path id="12" class="fil37" d="M294 178c-6,0 -12,-2 -15,-6 -4,-4 -6,-9 -6,-16 0,-7 2,-13 6,-17 4,-4 10,-6 16,-6 5,0 9,1 12,2 3,2 5,5 7,8l-8 4c-2,-5 -5,-7 -11,-7 -4,0 -7,2 -10,4 -2,3 -3,7 -3,11 0,5 1,9 3,11 2,3 6,4 9,4 4,0 7,-1 9,-3 2,-2 4,-4 4,-7l-11 0 0 -7 20 0 0 5c0,6 -2,11 -6,14 -4,4 -9,6 -16,6z"/>
  <path id="13" class="fil37" d="M363 174c-3,3 -7,4 -12,4 -6,0 -10,-1 -13,-4 -3,-3 -5,-7 -5,-12l0 -29 9 0 0 29c0,6 3,8 9,8 5,0 8,-2 8,-8l0 -29 9 0 0 29c0,5 -2,9 -5,12z"/>
  <path id="14" class="fil37" d="M415 177l-3 -10 -17 0 -3 10 -9 0 14 -40c1,-3 3,-4 6,-4 4,0 6,1 7,4l14 40 -9 0zm-17 -18l11 0 -6 -16 -5 16z"/>
  <path id="15" class="fil37" d="M459 178c-7,0 -12,-2 -16,-6 -4,-4 -6,-9 -6,-16 0,-7 2,-13 6,-17 4,-4 10,-6 17,-6 4,0 8,1 11,2 3,2 5,5 7,8l-7 4c-2,-5 -6,-7 -12,-7 -4,0 -7,2 -9,4 -3,3 -4,7 -4,11 0,5 1,9 3,11 3,3 6,4 10,4 3,0 6,-1 8,-3 3,-2 4,-4 4,-7l-11 0 0 -7 20 0 0 5c0,6 -2,11 -6,14 -4,4 -9,6 -15,6z"/>
  <path id="16" class="fil37" d="M527 141l-20 0 0 10 18 0 0 8 -18 0 0 11 20 0 0 7 -29 0 0 -40c0,-1 0,-2 1,-3 1,0 2,-1 3,-1l25 0 0 8z"/>
  <polygon id="17" class="fil37" points="184,191 184,198 171,198 171,235 162,235 162,198 150,198 150,191 "/>
  <polygon id="18" class="fil37" points="201,235 201,191 210,191 210,209 229,209 229,191 238,191 238,235 229,235 229,217 210,217 210,235 "/>
  <path id="19" class="fil37" d="M288 198l-21 0 0 11 19 0 0 7 -19 0 0 11 20 0 0 8 -29 0 0 -41c0,-1 1,-2 1,-2 1,-1 2,-1 3,-1l26 0 0 7z"/>
  <path id="20" class="fil37" d="M329 235l-10 -17 -4 0 0 17 -9 0 0 -41c0,-1 1,-2 1,-2 1,-1 2,-1 3,-1l13 0c5,0 9,1 11,3 3,3 4,6 4,11 0,6 -3,11 -10,12l11 18 -10 0zm-14 -37l0 13 7 0c5,0 7,-2 7,-7 0,-2 0,-3 -2,-4 -1,-1 -3,-2 -5,-2l-7 0z"/>
  <path id="21" class="fil37" d="M386 235l-4 -11 -16 0 -4 11 -9 0 15 -41c1,-2 3,-4 6,-4 3,0 5,2 6,4l15 41 -9 0zm-18 -19l11 0 -5 -16 -6 16z"/>
  <path id="22" class="fil37" d="M428 191c5,0 9,1 11,4 3,3 4,6 4,10 0,5 -1,8 -4,11 -3,2 -7,4 -12,4l-7 0 0 15 -9 0 0 -41c0,-1 0,-2 1,-2 1,-1 2,-1 3,-1l13 0zm-1 21c5,0 7,-2 7,-7 0,-2 0,-4 -2,-5 -1,-1 -3,-2 -5,-2l-7 0 0 14 7 0z"/>
  <polygon id="23" class="fil37" points="494,191 479,219 479,235 470,235 470,219 455,191 465,191 475,210 485,191 "/>
 </g>
</svg>
