<?xml version="1.0" encoding="UTF-8"?>
<svg id="Layer_1" data-name="Layer 1" xmlns="http://www.w3.org/2000/svg" viewBox="0 0 1080 1080">
  <defs>
    <style>
      .cls-1 {
        fill: #02002f;
      }

      .cls-2 {
        fill: #fff;
      }

      .cls-3 {
        fill: #6248a3;
      }

      .cls-4 {
        fill: #de1a98;
      }

      .cls-5 {
        fill: #c11a8e;
      }

      .cls-6 {
        fill: #4f3b8c;
      }
    </style>
  </defs>
  <g>
    <path class="cls-3" d="M487.15,462.97v21.28h-14.36l-1.06-12.13c-2.77-.43-5.53-.64-8.4-.64-6.38,0-11.6,1.49-11.6,6.6,0,12.02,37.45,8.94,37.45,33.4,0,13.09-9.47,21.06-31.06,21.06-6.6,0-16.6-1.6-24.26-3.3v-21.49h15.21l.96,11.81c2.23.43,4.57.64,7.02.64,7.98,0,13.94-2.23,13.94-8.62,0-10.53-37.45-8.3-37.45-31.6,0-16.06,16.7-20.32,29.79-20.32,8.19,0,17.87,1.6,23.83,3.3Z"/>
    <path class="cls-3" d="M494.06,476.69h23.3v5.74c3.83-4.47,8.94-6.7,15.21-6.7,13.72,0,23.62,9.89,23.62,28.4s-9.89,28.62-23.51,28.62c-6.49,0-11.6-2.23-15.32-6.6v12.55h6.28v12.55h-29.58v-12.55h6.28v-49.47h-6.28v-12.55ZM517.36,510.74c1.6,4.79,5.32,7.45,10,7.45,6.7,0,11.38-4.89,11.38-13.72s-4.68-13.62-11.38-13.62c-4.79,0-8.62,2.66-10,7.66v12.23Z"/>
    <path class="cls-3" d="M589.27,475.74c17.55,0,26.06,10.96,25.75,27.13,0,1.6-.11,4.36-.21,5.96h-35.64c1.6,5.85,6.38,9.26,14.15,9.26,5.96,0,10.32-2.45,14.89-5.74l3.94,13.3c-5.96,4.57-12.87,7.13-22.55,7.13-17.02,0-28.62-10-28.62-28.62s12.02-28.4,28.3-28.4ZM600.76,499.89c0-5.53-3.51-10.43-10.96-10.43-5.96,0-9.89,3.94-11.06,10.43h22.02Z"/>
    <path class="cls-3" d="M648.21,475.74c17.55,0,26.06,10.96,25.75,27.13,0,1.6-.11,4.36-.21,5.96h-35.64c1.6,5.85,6.38,9.26,14.15,9.26,5.96,0,10.32-2.45,14.89-5.74l3.94,13.3c-5.96,4.57-12.87,7.13-22.55,7.13-17.02,0-28.62-10-28.62-28.62s12.02-28.4,28.3-28.4ZM659.7,499.89c0-5.53-3.51-10.43-10.96-10.43-5.96,0-9.89,3.94-11.06,10.43h22.02Z"/>
    <path class="cls-3" d="M728.21,479.46v22.23h-15.21l-.85-10.74c-1.06-.32-2.23-.53-3.4-.64-7.13.32-12.45,5.11-12.45,13.62,0,8.94,5.64,13.72,13.19,13.72,6.06,0,12.02-2.45,16.6-5.74l3.94,13.72c-5.96,4.57-14.68,7.13-22.66,7.13-16.91,0-28.51-10-28.51-28.62s11.6-28.4,28.19-28.4c7.23,0,16.38,1.7,21.17,3.72Z"/>
    <path class="cls-3" d="M733.96,519.14h6.28v-50h-6.28v-12.66h23.3v25.75c3.4-3.83,7.98-6.6,14.36-6.6,12.87,0,20,7.87,20,23.19v20.32h6.28v12.66h-23.3v-28.72c0-9.68-2.66-13.72-8.62-13.72-4.15,0-7.02,3.09-8.72,6.92v22.87h6.28v12.66h-29.58v-12.66Z"/>
    <path class="cls-3" d="M801.51,476.69h23.51v42.45h6.49v12.66h-30v-12.66h6.49v-29.89h-6.49v-12.55ZM804.38,462.76c0-5.85,4.47-8.62,11.6-8.62s11.6,2.77,11.6,8.62-4.68,8.62-11.6,8.62-11.6-2.66-11.6-8.62Z"/>
    <path class="cls-3" d="M835.13,519.14h6.28v-29.79h-6.28v-12.66h23.3v5.53c3.4-3.83,7.98-6.6,14.36-6.6,12.87,0,20,7.87,20,23.19v20.32h6.28v12.66h-23.3v-28.72c0-9.68-2.66-13.72-8.62-13.72-4.15,0-7.02,3.09-8.72,6.92v22.87h6.28v12.66h-29.58v-12.66Z"/>
    <path class="cls-3" d="M909.39,522.97c-1.17-4.15-.74-8.94.96-12.34-3.3-3.09-5.43-7.34-5.43-13.62,0-14.79,11.49-20.53,25.32-20.53h31.49v12.66l-8.72-.21c1.06,2.23,1.6,4.89,1.6,8.09,0,13.62-10.43,19.68-24.26,19.68-2.02,0-4.04-.11-5.85-.43-.43,1.28-.53,2.55-.32,3.72,1.17-.21,2.34-.21,3.62-.21,10.32,0,31.6.21,31.6,15,0,12.34-13.83,17.02-29.15,17.02s-29.26-4.68-29.26-17.02c0-5.96,3.3-9.57,8.4-11.81ZM941.2,534.25c0-3.3-3.83-4.47-10.96-4.47s-11.06.96-11.06,4.47c0,3.72,4.26,4.68,11.06,4.68s10.96-.96,10.96-4.68ZM938.22,497.01c0-5-2.34-8.3-8.3-8.3-5.64,0-8.62,2.87-8.62,8.3,0,5,3.4,8.09,8.62,8.09,5.64,0,8.3-3.51,8.3-8.09Z"/>
    <path class="cls-4" d="M470.55,554.39c11.17,0,17.87,1.49,26.17,3.83v28.62h-16.92l-1.17-16.6c-2.55-.32-5.43-.43-8.4-.43-10.53,0-18.72,8.09-18.72,21.06s8.19,21.17,21.38,21.17c8.62,0,16.17-2.98,21.17-6.28l3.72,14.68c-6.49,4.15-15.74,7.13-26.49,7.13-22.23,0-37.87-12.45-37.87-36.7s15.85-36.49,37.13-36.49Z"/>
    <path class="cls-4" d="M525.77,570.56c6.49,0,11.49,2.13,15.21,6.49v-5.53h17.02v42.45h6.28v12.66h-23.3v-5.32c-3.83,4.15-8.94,6.28-15.32,6.28-13.51,0-23.4-10-23.4-28.62s9.89-28.4,23.51-28.4ZM519.7,599.28c0,8.83,4.79,13.72,11.28,13.72,4.57,0,8.4-2.66,10-7.23v-12.77c-1.6-4.68-5.21-7.34-10-7.34-6.49,0-11.28,4.79-11.28,13.62Z"/>
    <path class="cls-4" d="M591.19,571.52v10c4.26-6.49,10.32-10.96,18.83-10.96.74,0,1.49,0,2.23.11v16.49c-1.17-.11-2.02-.21-3.19-.21-9.79,0-16.7,6.17-17.87,18.4v8.62h6.28v12.66h-29.58v-12.66h6.28v-29.89h-6.28v-12.55h23.3Z"/>
    <path class="cls-4" d="M637.36,570.56c6.49,0,11.7,2.23,15.43,6.81v-13.4h-6.38v-12.66h23.4v62.66h6.28v12.66h-23.3v-5.74c-3.94,4.47-9.04,6.7-15.53,6.7-13.51,0-23.4-10-23.4-28.62s9.89-28.4,23.51-28.4ZM631.3,599.28c0,8.83,4.79,13.72,11.28,13.72,4.79,0,8.62-2.77,10.21-7.55v-11.92c-1.6-5-5.21-7.87-10.21-7.87-6.49,0-11.28,4.79-11.28,13.62Z"/>
    <path class="cls-4" d="M724.18,574.5v15.43h-11.92l-.74-7.55c-1.81-.43-3.72-.64-5.74-.64-5,0-8.4,1.28-8.4,4.26,0,8.09,28.83,6.81,28.83,25.64,0,9.89-6.38,15.96-22.13,15.96-8.94,0-17.23-1.91-23.62-3.94v-16.17h12.77l.75,7.55c2.55.53,5.11.96,7.66.96,4.26,0,7.23-1.17,7.23-4.57,0-7.13-28.83-5.85-28.83-24.26,0-10.11,8.19-16.6,24.47-16.6,8.62,0,15.96,2.13,19.68,3.94Z"/>
  </g>
  <g>
    <path class="cls-1" d="M373.47,508.86h-13.2v-69.2c0-6.78-5.07-12.3-11.31-12.3h-102.88c-6.23,0-11.31,5.52-11.31,12.3v8.1h-97.55c-6.23,0-11.31,5.52-11.31,12.3v103.88c0,6.78,5.07,12.3,11.31,12.3h28.19v43.37c0,6.44,5.07,11.67,11.31,11.67h48.29v10.15c0,7.12,5.5,12.92,12.26,12.92h136.21c6.76,0,12.26-5.79,12.26-12.92v-119.67c0-7.12-5.5-12.92-12.26-12.92Z"/>
    <g>
      <rect class="cls-6" x="218.65" y="505.91" width="158.13" height="138.3" rx="8.06" ry="8.06"/>
      <path class="cls-2" d="M365.82,645.53h-136.21c-6.76,0-12.26-5.61-12.26-12.51v-115.92c0-6.9,5.5-12.51,12.26-12.51h136.21c6.76,0,12.26,5.61,12.26,12.51v115.92c0,6.9-5.5,12.51-12.26,12.51ZM229.61,507.23c-5.33,0-9.66,4.43-9.66,9.87v115.92c0,5.44,4.34,9.87,9.66,9.87h136.21c5.33,0,9.66-4.43,9.66-9.87v-115.92c0-5.44-4.34-9.87-9.66-9.87h-136.21Z"/>
    </g>
    <g>
      <rect class="cls-5" x="228.33" y="426.9" width="123.1" height="95.4" rx="7.63" ry="7.63"/>
      <path class="cls-2" d="M341.32,523.56h-102.88c-6.23,0-11.31-5.35-11.31-11.92v-74.08c0-6.57,5.07-11.92,11.31-11.92h102.88c6.23,0,11.31,5.35,11.31,11.92v74.08c0,6.57-5.07,11.92-11.31,11.92ZM238.44,428.16c-4.92,0-8.92,4.22-8.92,9.4v74.08c0,5.18,4,9.4,8.92,9.4h102.88c4.92,0,8.92-4.22,8.92-9.4v-74.08c0-5.18-4-9.4-8.92-9.4h-102.88Z"/>
    </g>
    <g>
      <rect class="cls-3" x="119.47" y="446.67" width="141.62" height="121.95" rx="9.09" ry="9.09"/>
      <path class="cls-2" d="M250.98,569.87h-121.4c-6.23,0-11.31-5.35-11.31-11.92v-100.63c0-6.57,5.07-11.92,11.31-11.92h121.4c6.23,0,11.31,5.35,11.31,11.92v100.63c0,6.57-5.07,11.92-11.31,11.92ZM129.58,447.93c-4.92,0-8.92,4.22-8.92,9.4v100.63c0,5.18,4,9.4,8.92,9.4h121.4c4.92,0,8.92-4.22,8.92-9.4v-100.63c0-5.18-4-9.4-8.92-9.4h-121.4Z"/>
    </g>
    <g>
      <path class="cls-4" d="M167.06,485.87h141.29c4.58,0,8.3,3.72,8.3,8.3v118.64c0,5.07-4.12,9.19-9.19,9.19h-140.71c-4.3,0-7.8-3.49-7.8-7.8v-120.22c0-4.47,3.63-8.11,8.11-8.11Z"/>
      <path class="cls-2" d="M306.54,623.19h-137.47c-6.24,0-11.31-5.06-11.31-11.31v-115.9c0-6.24,5.06-11.31,11.31-11.31h137.47c6.24,0,11.31,5.06,11.31,11.31v115.9c0,6.24-5.06,11.31-11.31,11.31ZM169.07,487.06c-4.92,0-8.92,3.99-8.92,8.92v115.9c0,4.92,3.99,8.92,8.92,8.92h137.47c4.92,0,8.92-3.99,8.92-8.92v-115.9c0-4.92-3.99-8.92-8.92-8.92h-137.47Z"/>
    </g>
    <g>
      <polygon class="cls-2" points="252.78 491.69 261.14 491.69 255.1 512.53 266.78 512.53 277.17 488.48 277.17 467.3 252.78 467.3 252.78 491.69"/>
      <polygon class="cls-2" points="281.9 467.3 281.9 491.69 290.27 491.69 284.23 512.53 295.9 512.53 306.3 488.48 306.3 467.3 281.9 467.3"/>
    </g>
  </g>
</svg>