<?xml version="1.0" encoding="UTF-8"?>
<svg xmlns="http://www.w3.org/2000/svg" xmlns:xlink="http://www.w3.org/1999/xlink" viewBox="0 0 230.4 360">
  <defs>
    <style>
      .cls-1 {
        clip-path: url(#clippath-6);
      }

      .cls-2 {
        clip-path: url(#clippath-7);
      }

      .cls-3 {
        fill: #f4f3ee;
      }

      .cls-4 {
        fill: #c4282e;
      }

      .cls-5 {
        clip-path: url(#clippath-4);
      }

      .cls-6 {
        fill: #1c1c1b;
      }

      .cls-7, .cls-8 {
        fill: #c47559;
      }

      .cls-7, .cls-9, .cls-10 {
        stroke: #8d542c;
        stroke-miterlimit: 10;
        stroke-width: .75px;
      }

      .cls-11 {
        fill: #eab3b2;
      }

      .cls-12 {
        stroke: #3c2415;
      }

      .cls-12, .cls-13, .cls-14, .cls-15, .cls-16, .cls-17, .cls-18, .cls-19, .cls-20, .cls-21, .cls-22, .cls-23 {
        stroke-linecap: round;
        stroke-linejoin: round;
      }

      .cls-12, .cls-9, .cls-24, .cls-18 {
        fill: none;
      }

      .cls-13 {
        fill: #edb043;
      }

      .cls-13, .cls-14, .cls-15, .cls-16, .cls-17, .cls-18, .cls-19, .cls-20, .cls-21, .cls-22, .cls-23 {
        stroke: #5b373c;
      }

      .cls-25 {
        fill: #41231f;
      }

      .cls-26 {
        fill: #fd4a17;
      }

      .cls-27 {
        clip-path: url(#clippath-9);
      }

      .cls-28 {
        clip-path: url(#clippath-10);
      }

      .cls-29 {
        fill: #40803f;
      }

      .cls-30 {
        fill: #fff;
      }

      .cls-31, .cls-23 {
        fill: #85b53a;
      }

      .cls-32 {
        fill: #fbbe29;
      }

      .cls-33 {
        fill: #304594;
      }

      .cls-34, .cls-16 {
        fill: #dd9650;
      }

      .cls-35, .cls-19 {
        fill: #f9f0dc;
      }

      .cls-36 {
        fill: #0f3768;
      }

      .cls-37, .cls-21 {
        fill: #eddb91;
      }

      .cls-38 {
        fill: #3c2415;
      }

      .cls-39 {
        fill: #f08e00;
      }

      .cls-40 {
        fill: #fcd29c;
      }

      .cls-41 {
        fill: #36619e;
      }

      .cls-42 {
        clip-path: url(#clippath-1);
      }

      .cls-14 {
        fill: #4f9ec9;
      }

      .cls-43 {
        isolation: isolate;
      }

      .cls-44 {
        clip-path: url(#clippath-5);
      }

      .cls-15 {
        fill: #b76234;
      }

      .cls-45 {
        clip-path: url(#clippath-8);
      }

      .cls-46 {
        opacity: .89;
      }

      .cls-47 {
        fill: #edd9c0;
      }

      .cls-48 {
        clip-path: url(#clippath-3);
      }

      .cls-10, .cls-49 {
        fill: #b05d46;
      }

      .cls-50 {
        fill: #1e0c0a;
      }

      .cls-51 {
        fill: #a15b37;
      }

      .cls-52 {
        fill: #ee89c9;
      }

      .cls-53, .cls-54 {
        mix-blend-mode: multiply;
      }

      .cls-17 {
        fill: #a46fb5;
      }

      .cls-55 {
        fill: #8fc3fd;
      }

      .cls-56 {
        fill: #d98c6d;
      }

      .cls-57 {
        fill: #4870f7;
      }

      .cls-58 {
        fill: #b56539;
      }

      .cls-59 {
        fill: #38110a;
      }

      .cls-60 {
        fill: #de675f;
      }

      .cls-61 {
        fill: #ffeee9;
      }

      .cls-62 {
        clip-path: url(#clippath-2);
      }

      .cls-63 {
        fill: #a4c0a4;
      }

      .cls-20 {
        fill: #6978c4;
      }

      .cls-22 {
        fill: #f2a679;
      }

      .cls-54 {
        opacity: .3;
      }

      .cls-64 {
        fill: #e2c87f;
      }

      .cls-65 {
        clip-path: url(#clippath);
      }

      .cls-66 {
        fill: #fdfdfd;
      }

      .cls-67 {
        fill: #63bbdd;
      }

      .cls-68 {
        fill: #020c53;
      }
    </style>
    <clipPath id="clippath">
      <rect class="cls-24" x="0" width="230.4" height="360" rx="12.28" ry="12.28"/>
    </clipPath>
    <clipPath id="clippath-1">
      <rect class="cls-16" x="203.07" y="273.05" width="6.41" height="44.54"/>
    </clipPath>
    <clipPath id="clippath-2">
      <rect class="cls-16" x="175.64" y="273.05" width="6.41" height="47.47"/>
    </clipPath>
    <clipPath id="clippath-3">
      <rect class="cls-16" x="130.4" y="273.05" width="6.41" height="44.23"/>
    </clipPath>
    <clipPath id="clippath-4">
      <path class="cls-8" d="M103.74,199.61s18.6,21.81,28.01,21.81c7.45,0,16.51-3.15,16.51-3.15l-9.95-18.24s-5.2,3.5-6.87,3.75c-2.73.41-20.15-11.24-20.15-11.24l-6.78-4.93-.77,12Z"/>
    </clipPath>
    <clipPath id="clippath-5">
      <path class="cls-7" d="M112.15,193.59c-1.53-3.96-2.99-7.8-5.15-11.47-.87-1.48-2.21-2.63-3.82-3.2-2.48-.89-5.06-1.61-7.86-2.19-1.4-.29-2.85.14-3.92,1.1-1.61,1.45-3.37,2.74-5.25,3.82-.6.35-1.23.68-1.71,1.19-.48.5-.8,1.22-.63,1.9.16.64.72,1.13,1.35,1.34.63.21,1.31.19,1.97.11,2.79-.35,5.45-1.75,7.1-3.11,1.57.65,3.07,1.48,4.47,2.44"/>
    </clipPath>
    <clipPath id="clippath-6">
      <path class="cls-21" d="M64.19,191.41c-1.35-2.14-3.92-3.4-6.45-3.33s-4.96,1.41-6.53,3.39-2.32,4.56-2.24,7.09c.05,1.82.53,3.65,1.52,5.19.99,1.53,2.52,2.74,4.46,3.21-.57-.8-1.13-1.63-1.36-2.58-.23-.95-.08-2.06.63-2.73.52-.5,1.26-.7,1.97-.75.72-.05,1.44.02,2.15-.02,2.17-.11,4.25-1.29,5.47-3.09,1.21-1.8,1.71-4.28.39-6.38Z"/>
    </clipPath>
    <clipPath id="clippath-7">
      <path class="cls-49" d="M177.51,171.5c.42,3.67,1.33,7.28,3.06,11.11.63.21,1.25.42,1.93.69-.37,6.33-8.27,13.12-14.33,13.12-5.44,0-8.03-7.29-5.81-12.18,1.19-.46,1.66-.58,2.91-.9-.67-2.23-1-4.33-1.23-6.65,4.54-1.42,8.99-3.14,13.47-5.2Z"/>
    </clipPath>
    <clipPath id="clippath-8">
      <path class="cls-19" d="M200.43,239.35c-9.78,8.87-19.16,13.86-27.12,21.08-3.31,3-5.84,6.75-7.34,10.96-2.36,6.62-4.26,13.7-5.43,19.93-6.79-1.56-13.04-1.71-18.8-.07-2.52.72-5.02,1.78-7.63,1.7-7.83-.26-14.23-11.17-22.03-10.47,2.12-10.41,3.17-15.85,5.91-23.13,2.12-5.62,6.99-9.01,12.32-11.78,8.87-4.61,18.22-8.3,27.85-10.98-.41-8.15-.55-18.58-.35-24.47,8.22.41,18.89.54,26.87.27,3.09,6.88,9.12,15.7,15.12,20.86.24,3.06.48,3.38.64,6.13Z"/>
    </clipPath>
    <clipPath id="clippath-9">
      <path class="cls-8" d="M209.99,210.9s5.77,16.23,4.52,22.11c-1.25,5.89-7.61,12.5-35.03,14.68l5.06-13.21s12.66-4.44,12.66-5.65-2.29-7.46-2.29-7.46l15.09-10.47Z"/>
    </clipPath>
    <clipPath id="clippath-10">
      <path class="cls-21" d="M188.91,236.78c-.1-5.61-4.73-10.31-10.25-11.28-5.52-.97-10.92,1.2-14.63,5.4-.92,1.05-1.76,2.22-2.95,2.95-2.22,1.37-5.06.91-7.64.56-5.09-.7-10.47-.77-15.16,1.34-4.69,2.11-8.48,6.87-8.11,11.99.26,3.69,2.61,7.01,5.64,9.12,3.03,2.12,6.68,3.17,10.33,3.78,8.94,1.51,18.41.52,26.49-3.58,8.08-4.1,16.45-10.98,16.29-20.29Z"/>
    </clipPath>
  </defs>
  <g class="cls-43">
    <g id="Layer_1" data-name="Layer 1">
      <g class="cls-65">
        <g>
          <rect class="cls-61" x="0" width="230.4" height="360"/>
          <g>
            <ellipse class="cls-40" cx="115.2" cy="321.66" rx="106.62" ry="5.66"/>
            <g>
              <polygon class="cls-68" points="57.13 221.66 55.98 227.42 55.73 228.71 54.77 233.56 53.74 238.69 52.67 244.08 49.37 260.72 49.02 262.47 48.38 265.67 45.99 277.68 38.38 315.97 20.9 315.97 38.82 229.36 40.41 221.66 57.13 221.66"/>
              <path class="cls-57" d="M77.51,218.56h-13.08c-3.14-35.39-6.28-70.79-9.42-106.17-.24-2.7-.48-5.4-.72-8.11l-.15-1.62h0c-.04-.47-.08-.93-.12-1.39-.55-6.25-1.11-12.5-1.67-18.76-.02-.28-.05-.55-.07-.83-.22-2.46-.44-4.92-.66-7.38-.01-.16-.01-.32-.01-.47,0-.19,0-.37.02-.54.01-.23.04-.46.09-.67.02-.14.05-.28.08-.41,0-.04.01-.08.03-.11.03-.16.08-.32.14-.47.05-.15.1-.3.17-.44.12-.29.26-.56.41-.82.03-.06.08-.12.12-.19.06-.09.11-.17.17-.25.03-.06.08-.1.12-.16.47-.6,1.03-1.07,1.63-1.37.12-.06.25-.11.37-.16.25-.09.5-.15.75-.18,1.29-.14,2.77.58,3.84,1.89.28.33.52.71.73,1.11.5.99.8,2.18.71,3.51.75,6.6,1.51,13.2,2.27,19.79.06.46.1.92.16,1.38.29,2.52.58,5.04.86,7.56h0c.01.16.03.31.05.46.05.41.1.83.15,1.24.19,1.65.37,3.29.56,4.93.04.32.08.64.11.95.04.37.09.75.13,1.12,4.07,35.52,8.15,71.04,12.22,106.56Z"/>
              <path class="cls-33" d="M64.44,218.56h0s-2.34,0-2.34,0c0,0-6.67-63-10.73-106.05-.26-2.77-.51-5.47-.75-8.05-.2-2.18-.39-4.28-.57-6.29-.03-.3-.06-.62-.08-.91-.44-4.92-.81-9.3-1.09-12.92-.02-.24-.03-.48-.06-.71-.41-5.5-.61-9.14-.49-10.15.16-1.36.53-2.41,1.02-3.2.17-.28.37-.53.57-.75,2.21-2.42,5.81-1.46,5.81-1.46-.25.03-.5.09-.75.18-.12.05-.25.1-.37.16-.11.06-.21.12-.32.18-.15.1-.3.2-.45.32-.1.08-.19.16-.29.25-.11.1-.21.21-.32.33-.09.1-.17.19-.25.3-.15.19-.28.39-.41.59-.07.11-.13.22-.19.33-.06.12-.12.24-.17.36-.08.19-.16.37-.22.57-.06.15-.1.31-.14.47-.01.04-.02.08-.03.12-.04.13-.07.26-.08.4-.01.06-.02.11-.03.17-.02.11-.03.21-.04.33-.01.06-.01.11-.02.17-.03.33-.03.66,0,1.01.22,2.46.44,4.92.66,7.38.02.28.05.55.07.83.56,6.25,1.11,12.5,1.67,18.76.04.46.08.92.12,1.38h0c.05.55.1,1.09.15,1.63.24,2.7.48,5.4.72,8.11,3.14,35.39,6.28,70.79,9.42,106.17Z"/>
              <path class="cls-57" d="M66.34,324.67c-1.37.07-2.74.15-4.11.21-4.58.24-9.15.48-13.73.73v-8.92s-.06-19.79-.06-19.79h0s0-2.44,0-2.44l-.06-28.78v-2.28s0-1.21,0-1.21l-.03-12.55v-.88l-.03-16.82v-.73l-.02-9.54v-.43h11.31c.3,4.61.6,9.23.9,13.84.56,8.56,1.11,17.12,1.67,25.69.03.39.06.78.08,1.18.02.24.03.49.05.73.35,5.42.71,10.84,1.06,16.26.13,1.98.26,3.96.39,5.94.03.44.06.88.09,1.32h0c.25,3.91.5,7.81.76,11.71l.04.58c0,.12.01.24.02.36.17,2.57.33,5.15.5,7.72.07,1.07.14,2.12.21,3.19.02.25.03.5.06.75.12,1.87.24,3.75.36,5.62h0c.01.24.03.49.04.73.13,1.95.26,3.91.39,5.86h0c.01.29.03.56.06.84.02.37.05.74.07,1.11Z"/>
              <polygon class="cls-33" points="48.5 323.93 48.5 325.61 48.31 325.55 47.64 325.35 46.56 325.04 46.44 315.28 46.34 306.57 46.34 306.56 46.29 302.87 46.29 302.86 45.99 277.68 45.86 266.75 45.85 265.63 45.85 265.62 45.67 251.06 45.67 251.05 45.66 250.32 45.44 231.62 45.44 231.11 45.44 230.9 45.33 221.66 45.32 221.23 48.29 221.23 48.29 221.66 48.31 231.2 48.31 231.93 48.35 248.75 48.35 249.63 48.38 262.17 48.38 263.38 48.38 265.67 48.44 294.45 48.45 296.89 48.45 296.89 48.49 316.69 48.5 323.93"/>
              <path class="cls-57" d="M132.74,320.4h-17.68l-4.03-18.9-.58-2.68h0v-.03l-5.48-25.78-.15-.67-1.52-7.14-.15-.7-3.82-17.93-.15-.68-.15-.67-5.55-26.09c2.06.2,4.12.4,6.18.59.24.03.48.05.73.07,1.68.17,3.36.33,5.04.48.14.5.28,1.02.41,1.52.33,1.19.65,2.39.98,3.58,1.54,5.66,3.08,11.31,4.63,16.97.08.34.18.67.27,1,.51,1.87,1.02,3.75,1.54,5.62,1.19,4.37,2.38,8.74,3.57,13.11.1.37.2.73.3,1.09.74,2.73,1.49,5.46,2.23,8.19l.23.83c1.24,4.59,2.5,9.18,3.75,13.76.12.44.24.89.36,1.33.11.39.22.8.33,1.19h0c2.01,7.38,4.02,14.74,6.03,22.12.89,3.27,1.78,6.55,2.68,9.82Z"/>
              <path class="cls-33" d="M115.07,320.4h-3.36l-.59-2.95h0s-.74-3.72-.74-3.72h0s-7.39-36.9-7.39-36.9l-.7-3.51-.14-.68-1.31-6.56h0l-.13-.68-.7-3.48-2.91-14.56-.15-.71-.42-2.11-4.43-22.13,1.42-3.29,5.55,26.09.15.67.15.68,3.82,17.93.15.7,1.52,7.14.15.67,5.48,25.78h0v.03l.58,2.68,4.03,18.9Z"/>
              <path class="cls-57" d="M102.98,276.83h0l-10.13.54h0l-1.05.06h0l-15.98.84-.95.05-5.79.3-1.06.06-4.65.25-2.09.11v-17.1h38.73l.7,3.48.13.68h0l1.31,6.56.13.68.71,3.51Z"/>
              <g class="cls-53">
                <path class="cls-57" d="M56.87,246.34c-1.52,5.82-4.39,11.16-7.85,16.14l-.64.91c-.81,1.14-1.65,2.26-2.52,3.36v-1.12s0,0,0,0c.87-1.13,1.72-2.28,2.52-3.44.33-.48.66-.96.99-1.45,3-4.53,5.47-9.36,6.83-14.56.97-3.69,1.3-7.88.77-12.02-.24-1.84-.64-3.67-1.24-5.43-.86-2.55-2.14-4.95-3.87-7.05-.12-.15-.24-.29-.36-.43h.91c.12.14.23.28.33.43,1.38,1.76,2.45,3.71,3.24,5.76.87,2.21,1.42,4.55,1.7,6.91.5,4.13.15,8.33-.82,12.01Z"/>
                <path class="cls-57" d="M62.53,261.93c-.07.24-.15.48-.24.73-.17.53-.35,1.07-.54,1.6-.16.44-.32.89-.49,1.33-1.56,4.21-3.47,8.33-5.33,12.32-1.94,4.19-3.96,8.52-5.56,12.93-.73,1.99-1.38,4.01-1.94,6.04h0c-.9,3.19-1.6,6.42-2.11,9.68l-.04-3.69h0c.57-2.84,1.28-5.65,2.14-8.42.39-1.29.83-2.57,1.29-3.85,1.62-4.43,3.63-8.78,5.58-12.98,2.04-4.41,4.15-8.96,5.8-13.6.06-.15.11-.31.16-.46.19-.55.37-1.09.55-1.63.13-.39.25-.79.36-1.18.03.39.06.78.08,1.18h.28Z"/>
                <path class="cls-57" d="M52.15,245.16c-1.02,1.85-2.32,3.37-3.8,4.47-.84.62-1.74,1.1-2.68,1.42v-.73c.94-.36,1.84-.89,2.68-1.57,1.23-1.01,2.32-2.34,3.19-3.92,1.96-3.58,2.34-8.67-.71-11.49-.73-.68-1.59-1.14-2.51-1.41-.92-.28-1.89-.37-2.87-.31v-.72c.98-.06,1.96.04,2.87.3,1.11.31,2.14.86,2.98,1.63,3.32,3.05,2.94,8.51.85,12.32Z"/>
                <path class="cls-57" d="M73.93,276.91c-1.18-.5-2.46-.45-3.79.18-.72.34-1.43.89-2.13,1.58l1.06-.06c.45-.38.91-.69,1.36-.91.64-.3,1.26-.45,1.85-.45.48,0,.93.09,1.38.28.42.18.82.44,1.2.77l.95-.05c-.57-.59-1.2-1.07-1.87-1.36ZM65.78,316.12h0c-3.24-.59-6.18-2.49-7.61-5.23-1.94-3.71-1.54-8.42,1.24-14.84.21-.48.45-1.05.72-1.68.93-2.23,2.22-5.26,3.71-8.17h0c-.03-.46-.06-.89-.09-1.33-1.74,3.22-3.22,6.74-4.27,9.23-.26.63-.5,1.19-.71,1.67-1.81,4.17-3.9,10.31-1.21,15.44,1.58,3.04,4.75,5.07,8.27,5.64-.01-.24-.03-.49-.04-.73Z"/>
                <path class="cls-57" d="M65.42,310.5c-.3-.1-.58-.21-.85-.36-1.29-.68-2.21-1.87-2.67-3.44-.59-2.01-.31-4.4.73-6.26.53-.95,1.2-1.79,1.96-2.55.02.31.04.63.06.94-.55.59-1.03,1.24-1.42,1.94-.95,1.7-1.21,3.89-.67,5.73.4,1.38,1.21,2.43,2.33,3.02.15.08.31.15.47.21.02.25.03.5.06.75Z"/>
                <path class="cls-57" d="M66.27,323.55c-.1-.06-.2-.12-.3-.18-2.38-1.47-4.84-3-7.57-3.38-2.66-.37-5.47.55-7.7,2.54-.9.8-1.63,1.7-2.19,2.68-.07.12-.13.23-.19.35l-.68-.2c.24-.48.53-.95.86-1.4h0c.49-.71,1.07-1.35,1.73-1.94,2.39-2.12,5.4-3.11,8.26-2.7,2.84.39,5.33,1.92,7.73,3.4h0c.01.29.03.56.06.84Z"/>
                <path class="cls-57" d="M92.84,277.37l-1.05.06h0c-.24-.17-.48-.33-.73-.46-1.66-.9-3.54-1.11-5.53-1.33-.84-.1-1.7-.19-2.54-.35-6.81-1.25-12.55-6.67-14.28-13.35h.71c1.72,6.35,7.21,11.47,13.69,12.66.82.15,1.67.25,2.49.34,1.96.23,4,.46,5.78,1.42.53.29,1.02.63,1.46,1.02Z"/>
                <path class="cls-57" d="M117.14,263.16c-.79,1.85-1.79,3.58-3.14,5.06-2.42,2.68-5.62,4.17-9.03,4.79-.89.17-1.79.27-2.7.31-.4.03-.8.03-1.2.03-3.4,0-6.78-.73-9.63-1.92-4.88-2.03-9.27-5.37-12.6-9.51h.9c3.22,3.85,7.37,6.96,11.97,8.87,3.07,1.28,6.78,2.01,10.42,1.84h0c.91-.04,1.81-.14,2.68-.3,3.27-.59,6.34-2.02,8.66-4.59,1.49-1.63,2.54-3.58,3.35-5.68.1.37.2.73.3,1.09Z"/>
                <path class="cls-57" d="M105.43,247.14c-.25-.17-.5-.31-.77-.44-1.11-.57-2.32-.89-3.53-.93-.65-.03-1.3,0-1.93.12-.8.15-1.56.4-2.26.77l.15.71c.7-.39,1.47-.66,2.26-.8,1.92-.35,4,.03,5.71,1.15,2.69,1.76,4.26,5.26,3.91,8.68-.35,3.44-2.72,6.51-5.8,8.1-.79.41-1.62.72-2.47.91-.96.23-1.94.31-2.93.22-2.64-.24-5.08-1.67-6.8-3.7h-.88c1.85,2.4,4.61,4.12,7.61,4.38.29.03.57.04.86.04.77,0,1.53-.09,2.27-.27h0c.86-.19,1.69-.5,2.48-.89,3.35-1.68,5.95-4.99,6.34-8.73.37-3.67-1.32-7.42-4.22-9.33Z"/>
                <path class="cls-57" d="M111.74,243.34c-.89-.6-1.84-1.17-2.81-1.75-1.89-1.13-3.85-2.31-5.46-3.78-4.23-3.85-6.1-10.16-4.64-15.69.21-.82.5-1.62.86-2.39.24.03.48.05.73.07-.38.8-.69,1.64-.91,2.5-1.4,5.29.39,11.33,4.43,15.01,1.57,1.43,3.49,2.59,5.36,3.71.73.44,1.46.88,2.18,1.33.08.34.18.67.27,1Z"/>
                <path class="cls-57" d="M111.04,301.5c-.12,3.84-.06,7.68,0,11.45.03,1.48.05,2.98.06,4.49l-.74-3.71h0c0-.26,0-.51-.01-.76-.08-4.65-.16-9.41.1-14.15h0v-.03c.17-3.04.48-6.07,1.03-9.05,1.31-7.18,4.07-13.51,7.88-18.38l.23.83c-3.58,4.72-6.18,10.8-7.43,17.68-.7,3.83-1.01,7.73-1.13,11.64Z"/>
                <path class="cls-57" d="M125.51,320.4h-.69c.42-2.86.49-5.79.17-8.68-.26-2.28-.75-4.57-1.23-6.79-.71-3.29-1.45-6.69-1.42-10.13.02-2.57.5-5.12,1.38-7.53.11.39.22.8.33,1.19h0c-.64,2.06-1,4.2-1.02,6.35-.02,3.35.71,6.72,1.41,9.97.48,2.23.98,4.55,1.24,6.86.33,2.92.27,5.86-.16,8.76Z"/>
                <path class="cls-57" d="M68.1,111.9l-1.33.05h0c-.55-.33-1.09-.68-1.6-1.07-1.28-.95-2.42-2.1-3.38-3.39-.82-1.11-1.48-2.28-2.01-3.5-2.72-6.22-2.06-13.7-1.09-20.94.63-4.66,1.11-9.05.88-13.09.28.33.52.71.73,1.11.13,4.25-.44,8.49-.92,12.08-.96,7.23-1.62,14.7,1.15,20.81.49,1.09,1.09,2.14,1.83,3.13.78,1.07,1.69,2.01,2.7,2.84.94.77,1.96,1.43,3.05,1.98Z"/>
                <path class="cls-57" d="M78.32,105.96c-.24.33-.53.65-.86.95-.92.82-2.21,1.51-4.05,1.82-3.84.64-7.1-1.74-8.89-4.98-.08-.15-.16-.29-.23-.44h0c-.51-1.04-.89-2.14-1.08-3.26-.25-1.42-.22-2.94.21-4.31-.06-.46-.1-.92-.16-1.38-.92,1.79-1.07,3.92-.73,5.8.21,1.24.64,2.48,1.24,3.62.21.42.46.82.72,1.21,1.75,2.63,4.48,4.54,7.68,4.54.44,0,.9-.04,1.36-.12,2.12-.35,3.84-1.27,5.03-2.65l-.23-.81Z"/>
                <path class="cls-57" d="M56.34,72.76c-.53-1.51-1.71-2.53-3.38-2.99-.89-.25-1.92-.34-3.06-.25-.2.22-.39.47-.57.75.51-.07.99-.1,1.44-.1.65,0,1.24.06,1.78.19,1.57.36,2.65,1.25,3.13,2.62.19.54.28,1.12.28,1.72,0,2.37-1.41,5.06-3.69,6.97-.44.37-.9.71-1.4,1.01-.55.34-1.15.62-1.77.84-.1.03-.2.07-.3.1.02.24.03.47.06.71.16-.05.32-.1.48-.16.66-.23,1.31-.53,1.9-.9.39-.24.75-.49,1.11-.77,3.3-2.57,5.06-6.71,3.98-9.75Z"/>
                <path class="cls-57" d="M58.52,112.25l-.7.03c-.45-2.14-1.04-4.26-1.9-6.28-.26-.61-.54-1.2-.84-1.76h0c-.29-.55-.59-1.07-.93-1.58h0c-1.17-1.81-2.57-3.33-4.11-4.49-.03-.3-.06-.62-.08-.91,1.51,1.04,2.88,2.4,4.07,4.01.66.9,1.27,1.87,1.81,2.93.26.49.5,1.01.72,1.54.9,2.11,1.51,4.3,1.96,6.52Z"/>
                <path class="cls-57" d="M50.39,112.55l-.69.02c-.01-2.1-1.02-4.33-2.84-6.19-.57-.59-1.2-1.13-1.87-1.63l1.04-.06h0c.46.37.9.77,1.31,1.2,1.93,1.98,3.01,4.38,3.03,6.65Z"/>
              </g>
              <g class="cls-53">
                <path class="cls-55" d="M59.6,221.23c.3,4.61.6,9.23.9,13.84l-2.81-.74-.71-.19-2.21-.58-3.79-1h0s-2.66-.71-2.66-.71l-2.88-.75-6.62-1.74,1.59-7.7h4.92v-.43s14.27,0,14.27,0Z"/>
              </g>
              <g class="cls-53">
                <path class="cls-55" d="M113.28,248.96l-8.61-2.26-3.53-.93-2.07-.55-2.54-.67-4.43-22.13,1.42-3.29c2.06.2,4.12.4,6.18.59.24.03.48.05.73.07,1.68.17,3.36.33,5.04.48.14.5.28,1.02.41,1.52.33,1.19.65,2.39.98,3.58,1.54,5.66,3.08,11.31,4.63,16.97.08.34.18.67.27,1,.51,1.87,1.02,3.75,1.54,5.62Z"/>
              </g>
              <polygon class="cls-30" points="118.33 221.23 32.82 225.12 32.11 219.68 17.98 111.47 104.2 107.8 107.13 131.36 118.33 221.23"/>
              <polygon class="cls-32" points="32.82 225.12 30.21 228.89 29.14 220.82 14.87 113.26 17.98 111.47 32.11 219.68 32.82 225.12"/>
              <polygon class="cls-39" points="118.33 221.23 112.43 225.12 30.21 228.89 32.82 225.12 118.33 221.23"/>
              <polygon class="cls-57" points="79.88 111.47 68.1 111.9 66.77 111.95 66.77 111.95 65.29 112 58.52 112.25 57.82 112.28 55.02 112.38 51.36 112.51 50.39 112.55 49.7 112.57 43.89 112.79 38.04 113 37.68 109.64 34.14 109.81 34.14 105.03 36.27 105.21 39.66 105.03 44.99 104.75 44.99 104.75 46.04 104.7 46.05 104.7 50.62 104.46 54.3 104.27 55.08 104.23 55.08 104.23 55.84 104.19 59.77 103.99 60.52 103.96 63.77 103.78 64.35 103.76 64.52 103.75 77.51 103.08 78.32 105.96 78.55 106.76 79.88 111.47"/>
              <polygon class="cls-33" points="43.89 112.79 38.04 113.01 37.69 109.64 34.14 109.81 34.14 105.03 41.59 105.03 43.89 112.79"/>
              <path class="cls-57" d="M66.83,221.23c7.36-.39,14.73-.79,22.09-1.18.22,3.29.43,6.58.65,9.86l-25.13.83-.74-9.52h3.13Z"/>
              <polygon class="cls-33" points="63.7 221.23 66.83 221.23 68.16 230.75 64.44 230.75 63.7 221.23"/>
              <g>
                <path class="cls-52" d="M130.07,310.58c-.64-.24-1.22-.59-1.75-1.04-2.16-1.87-3.35-5.95-1.36-8.02-2.28.86-5.02,0-6.63-1.83-1.6-1.83-2.12-4.48-1.62-6.87s1.92-4.52,3.74-6.14c.29-.26.59-.5.91-.74,2.24,8.21,4.47,16.43,6.72,24.63Z"/>
                <path class="cls-52" d="M121.97,307.06c0,2.22-1.54,4.02-3.45,4.02s-3.45-1.8-3.45-4.02,1.55-4.02,3.45-4.02,3.45,1.8,3.45,4.02Z"/>
              </g>
              <path class="cls-32" d="M61.25,317.05c-.34-1.77-.73-3.58-1.7-5.1s-2.64-2.71-4.44-2.63c-1.68.08-3.15,1.27-4.03,2.7s-1.2,4.33-1.58,5.97c-.28-.48-.62-.92-1.02-1.31-.59-.59-1.29-1.07-2.05-1.4l.12,9.76,1.08.31.68.2.19.06c4.58-.24,9.15-.48,13.73-.73-.06-2.62-.48-5.26-.98-7.83ZM57.01,319.08c-1.29-.8-1.75-2.79-1.32-4.16.17-.55.53-1.11,1.08-1.29.47-.15,1,0,1.38.3.39.3.66.72.89,1.16.3.6.53,1.26.52,1.93,0,1.22-1.2,2.88-2.55,2.05Z"/>
              <path class="cls-32" d="M65.15,306.55c-.08,0-.17,0-.25,0-2.01-.1-3.8-1.91-3.86-3.93-.06-2.01,1.59-3.92,3.59-4.15,0,.12.01.24.02.36.17,2.57.33,5.15.5,7.72Z"/>
              <g class="cls-54">
                <path class="cls-55" d="M118.33,221.23l-5.9,3.89-82.22,3.78-1.07-8.08c1-.36,1.99-.74,2.97-1.13,10.04-4.03,19.37-9.91,27.6-16.95,13.16-11.26,23.65-25.38,32.35-40.36,5.78-9.95,10.82-20.32,15.07-31.01l11.2,89.87Z"/>
              </g>
            </g>
            <g>
              <path class="cls-66" d="M40.23,151.21s-.03.04-.05.06c-.33.59-.06,1.11.18,1.64.02.08.03.15.05.23,0,.11-.06.24-.02.32.39.65-.04.73-.54.86-.54.14-1.06.38-1.36.91-.02.03-.04.05-.06.07-.83.45-1.09,1.2-1.09,2.09-.01.08-.02.16-.03.24-.15.26-.13.52.06.76.02.12.03.23.05.35.04.58.15,1.14.56,1.56.42.44.87.87,1.43,1.12.67.3,1.37.53,2.09.13.12-.02.24-.03.36-.05.74.11,1.2-.38,1.68-.8.18-.16.55-.25.42-.63.18-.21.33-.45.41-.72.66-.95.46-2.84-.4-3.66-.07-.08-.15-.16-.22-.25-.58-.85-1.4-1.22-2.4-1.22-.09-.02-.17-.04-.26-.06-.01-.13-.02-.25-.03-.38.02-.05.04-.09.06-.14.25-.23.24-.51.15-.81-.02-.56,0-1.12-.21-1.65-.28-.28-.56-.34-.84.01ZM46.28,161.06c-.3-.36-.68-.62-1.08-.85-.17-.1-.37-.23-.55-.03-.19.2-.06.39.07.55.34.43.71.84,1.14,1.19.26.23.51.46.77.69.03.18.13.27.32.26.21.14.42.27.63.41.16.19.38.17.51.01.13-.15.13-.36-.09-.5-.09-.12-.18-.25-.27-.37-.12-.25-.27-.47-.54-.57-.3-.26-.6-.53-.9-.79ZM42.25,162.16c-.12-.25-.25-.24-.37,0-.04.02-.08.05-.12.07-.34.41-.15.81.03,1.21.04.37.09.74.13,1.11-.07.17-.1.33.09.45.02.11.04.22.06.33-.05.2-.1.4.12.55.03.14.05.29.08.43-.07.17-.1.33.09.45.07.3.14.59.21.89,0,.26.05.59.32.59.24,0,.27-.35.29-.58.04-.43.18-.86-.04-1.29-.03-.37-.06-.73-.08-1.1.07-.24.12-.47-.1-.66l-.05-.21c.04-.24.1-.49-.13-.67-.02-.11-.04-.22-.06-.33.06-.42,0-.8-.31-1.11-.05-.04-.1-.09-.15-.13ZM50.1,158.37c.18,0,.27,0,.36,0,.35-.05.88.07.93-.37.04-.36-.47-.46-.8-.55-1.35-.39-2.75-.36-4.13-.47-.2-.02-.42-.01-.61.05-.32.11-.54.35-.57.69-.03.29.24.37.46.37,1.48.03,2.94.37,4.35.29ZM50.29,151.54c-.22-.33-.55-.29-.88-.23-.83.16-1.58.51-2.32.89-.72.37-1.36.84-1.8,1.53-.13.2-.25.46-.06.67.16.18.38.03.56-.06.68-.34,1.36-.67,2.02-1.04.72-.41,1.49-.75,2.13-1.3.14-.12.28-.24.35-.46ZM33.94,151.64c-.15.01-.34.07-.41.26-.09.23.08.39.22.53,1.05.95,2.33,1.5,3.63,2.01.14.05.34.18.46,0,.1-.17-.06-.31-.17-.43-.7-.78-1.55-1.38-2.41-1.96-.37-.25-.8-.39-1.3-.41ZM38.62,162.26c0-.11-.06-.3-.24-.39-.21-.1-.3.11-.38.24-.74,1.23-1.61,2.39-2.12,3.76-.08.22-.14.45.08.6.21.14.39-.04.54-.17.4-.39.74-.83,1.03-1.31.49-.83.99-1.66,1.09-2.73Z"/>
              <path class="cls-51" d="M87.31,147.56c-.2,1.19-.61,1.57-1.79,1.6-.19,0-.3.06-.4.22-.65.97-1.22,1.19-2.3.83-.34-.11-.47-.06-.63.25-.6,1.21-1.62,1.55-2.83.97-.24-.12-.41-.13-.65.05-.97.74-2.04.56-2.75-.45-.45-.63-.67-1.36-.79-2.12-.03-.16.01-.34-.11-.48l.45-.03c.11.91.32,1.78.9,2.54.42.55.97.68,1.59.52.35-.09.74-.29.78-.69.09-.86.21-1.73.07-2.6l.33-.02c.03.71.21,1.41,0,2.13-.09.31.06.68.44.87.73.36,1.68.13,2.09-.58.47-.82.51-1.71.38-2.63l.45-.03c.01.4.07.81-.01,1.22-.03.18-.08.42.13.56.97.62,2.1.2,2.2-.79.04-.38.08-.77.12-1.15.15-.01.3-.02.45-.03-.02.17-.05.33-.06.5-.02.58.1.68.68.57.5-.1.76-.47.83-1.17l.45-.03Z"/>
              <path class="cls-63" d="M78.84,148.17c.13.87.02,1.74-.07,2.6-.04.4-.43.6-.78.69-.62.16-1.16.03-1.59-.52-.58-.75-.79-1.62-.9-2.54l3.34-.24Z"/>
              <path class="cls-63" d="M82.07,147.94c.13.91.08,1.81-.38,2.63-.41.72-1.36.95-2.09.58-.38-.19-.53-.56-.44-.87.22-.73.04-1.42,0-2.13.97-.07,1.93-.14,2.9-.21Z"/>
              <path class="cls-63" d="M84.97,147.73c-.04.38-.08.77-.12,1.15-.11.99-1.23,1.41-2.2.79-.22-.14-.17-.37-.13-.56.08-.41.02-.81.01-1.22.82-.06,1.63-.12,2.45-.17Z"/>
              <path class="cls-26" d="M33.73,157.42c.86-.21,1.73-.18,2.6-.18.27,0,.44.13.47.37.03.28-.17.38-.42.4-.86.1-1.73.13-2.6.08l-.05-.67Z"/>
              <path class="cls-63" d="M86.86,147.6c-.07.7-.33,1.07-.83,1.17-.58.12-.7.02-.68-.57,0-.17.04-.33.06-.5.48-.03.97-.07,1.45-.1Z"/>
              <path class="cls-63" d="M36.9,201.96c.35-.11.31.17.33.35.06.54.1,1.09.15,1.63l-.22.02s-.08-.07-.12-.1c-.04-.63-.09-1.26-.13-1.89Z"/>
              <path class="cls-63" d="M36.61,197.95c.12.03.2.09.21.22.05.59.1,1.18.14,1.77,0,.11.03.28-.19.24l-.16-2.23Z"/>
              <path class="cls-29" d="M37.03,203.86s.08.07.12.1c-.09.03-.13,0-.12-.1Z"/>
              <path class="cls-29" d="M98.88,182.74c.24.03.49.04.71.1.7.21,1,.72.89,1.45-.05.32-.12.64-.31.89-.39.48-.28.86.06,1.33,1.13,1.52,2.22,3.07,3.31,4.62.62.88,1.18,1.81,1.45,2.87.31,1.18-.18,1.92-1.38,1.92-2.28-.01-4.47.46-6.65,1-1.23.3-2.48.55-3.73.82-.1-.12-.17-.09-.22.04-.15.04-.29.07-.44.11-.13-.13-.24-.12-.33.05-1.3.38-2.65.48-3.98.72-.29-.12-.57-.13-.8.13-.33.04-.65.08-.98.12-.39-.09-.78-.14-1.13.15-1.4.1-2.8.2-4.2.3-.42-.24-.83-.13-1.25.02-.22,0-.43,0-.65,0-.22-.22-.46-.17-.69-.02-.14,0-.29,0-.43,0-.14-.2-.3-.19-.47-.03-.14,0-.29,0-.43,0-.2-.16-.23-.26-.01-.49,1.03-1.08,2.06-2.15,2.6-3.58.51-1.34.13-2.39-1.09-3.14-1.28-.79-2.72-1.06-4.17-1.32-2.27-.4-4.57-.45-6.85-.75-.83-.11-1.66-.2-2.43-.58-.52-.26-.7-.67-.49-1.19.34-.88.68-1.76,1.03-2.64.65.13,1.28.06,1.91-.12.23-.02.47-.05.7-.07.64-.05,1.28-.09,1.92-.14.19-.02.42.04.53-.19.65-.11,1.31-.15,1.98-.16.63.04,1.26.03,1.88-.17.3-.02.6-.04.9-.07.24.19.45-.05.68-.07,2.68-.16,5.34-.46,8-.78,1.84-.16,3.68-.31,5.53-.47.38.09.76.07,1.14.06,1.2-.06,2.4-.11,3.56-.46,1.37-.08,2.75-.16,4.12-.24.07.13.15.14.22,0Z"/>
              <path class="cls-51" d="M52.47,173.4c-.06-.53-.14-1.07-.16-1.61-.02-.43-.17-.53-.59-.47-1.68.21-3.36.38-5.05.57-.66.07-.69.03-.45-.61,1.34-3.47,2.68-6.94,4-10.42.14-.37.33-.52.72-.55,1.54-.09,3.08-.24,4.62-.31.53-.03.65-.21.59-.71-.1-.87-.12-1.74-.2-2.61-.03-.33.07-.47.41-.49,1.08-.06,2.15-.13,3.23-.23.4-.04.53.13.57.48.1.85.25,1.69.32,2.55.04.5.21.65.73.61,5.03-.37,10.06-.72,15.09-1.08,1.78-.13,3.56-.27,5.34-.41.03.24.14.44.26.66.81,1.42,1.8,2.72,2.61,4.13.72,1.25,1.55,2.45,2.34,3.66.26.39.16.72-.3.84-.2.05-.41.04-.61.06q-.98.07-1.01.99c-.29-.22.11-.79-.39-.86-.34-.05-.7.06-1.05.1-.06,0-.11.03-.17.02-.57-.05-.82.19-.73.77-.3-.59-.82-.49-1.35-.47-.88.03-1.72.26-2.59.31-2.09.13-4.17.4-6.25.65-2.44.3-4.89.57-7.34.86-1.78.21-3.57.38-5.35.61-2.24.29-4.49.44-6.72.82-.42.07-.57.25-.56.66.02.49.16.99.04,1.49Z"/>
              <path class="cls-26" d="M52.47,173.4c.12-.5-.02-.99-.04-1.49-.02-.41.14-.59.56-.66,2.23-.38,4.48-.53,6.72-.82,1.78-.23,3.57-.39,5.35-.61,2.45-.29,4.89-.56,7.34-.86,2.08-.25,4.16-.52,6.25-.65.87-.05,1.72-.28,2.59-.31.53-.02,1.05-.11,1.35.47.07.15.08.31.05.48-.01,0-.03.02-.03.02.01.02.02.04.04.05,0,.09.02.17.02.26-.02.09-.07.18-.06.26.17,1.9.31,3.81.55,5.7.06.43-.05.96.33,1.33.01.09.03.18.04.28-.05,1.21.09,2.4.23,3.59.11.92.32,1.82.37,2.74.02.31-.08.44-.39.45-1.09.04-2.16.29-3.26.34-1.34.06-2.67.17-4,.29-.32.03-.72-.04-.87.41-.3.02-.6.04-.9.07-.65-.17-1.28-.17-1.88.17-.66,0-1.32.05-1.98.16-.77-.12-1.53.07-2.29.1-.13,0-.18.1-.16.23-.23.02-.47.05-.7.07-.07-.15-.21-.13-.34-.12q-1.32.02-1.55-1.24s0-.04,0-.06c-.24-2.55-.47-5.09-.87-7.62-.11-.71-.11-1.45-.18-2.17-.07-.73-.29-.92-.99-.85-2.03.21-4.08.13-6.1.43-.29.04-.59-.01-.72.38-.13.41-.07.72.27.98,0,.12.01.24.02.36-.15.02-.17.12-.17.24.06.84.12,1.69.18,2.53,0,.12.06.21.2.21.17,2.46.35,4.91.52,7.37-.39-.06-.31.51-.72.51-.98,0-1.96.18-2.93.31-.42.06-.57-.12-.59-.52-.02-.59-.07-1.19-.13-1.78-.01-.16.06-.4-.23-.43-.09-.34-.11-.68-.09-1.03.08-.06.1-.15.1-.24-.08-1.08-.16-2.16-.24-3.24,0-.13-.02-.27-.21-.26-.13-.57-.15-1.15-.16-1.73.12-.63.12-1.25-.15-1.84-.14-.75-.18-1.51-.2-2.27ZM80.15,174.74c-.06-.85-.15-1.7-.17-2.56-.02-.49-.25-.61-.67-.55-.16.03-.33.06-.49.09-1.18.26-2.35.54-3.53.78-.42.08-.57.31-.55.69.1,1.46.33,2.91.33,4.38,0,.4.2.62.68.58,1.37-.12,2.74-.21,4.11-.29.38-.02.51-.19.48-.57-.08-.85-.13-1.7-.19-2.56ZM67.9,173.03c-.57.04-.96.06-1.34.1-.34.03-.83.61-.7.91.19.46.16.93.23,1.4.16,1.15.35,2.3.41,3.47.05.85.39,1.07,1.23.92,1.13-.21,2.25-.4,3.39-.55.48-.06.69-.27.58-.73-.18-.74-.19-1.51-.27-2.26-.01-.11-.06-.21-.09-.32-.27-.79-.33-1.62-.33-2.44,0-.51-.4-.86-.92-.79-.79.11-1.56.32-2.19.3Z"/>
              <path class="cls-29" d="M64.5,198.71c-2.45.08-4.89.34-7.34.56-4.89.43-9.77.88-14.66,1.32-.25.02-.6.17-.74-.04-.18-.28.18-.48.32-.7.47-.74.99-1.44,1.34-2.25.4-.93.2-1.2-.79-1.1-.48.05-.96.13-1.44.15-.76.03-1.04-.37-.72-1.06.69-1.5,1.63-2.84,2.88-3.93.38-.33.29-.44-.09-.64-.77-.41-1.57-.77-2.08-1.53-.32-.47-.25-.82.24-1.1.29-.16.6-.17.92-.2,3.75-.4,7.5-.8,11.25-1.2.18.18.4.22.65.2,1.12-.08,2.22-.34,3.34-.37.22,0,.48-.06.6-.32.26-.03.52-.14.77.02-.84.7-1.7,1.38-2.33,2.29-.75,1.07-.45,1.94.79,2.28.59.16,1.2.2,1.81.26,2.86.29,5.73.33,8.59.58,1.03.09,2.07.15,3.07.48.23.08.5.15.51.44.02.25-.22.36-.4.49-1.8,1.19-3.43,2.59-5.01,4.05-.48.45-.84,1.05-1.48,1.32Z"/>
              <path class="cls-29" d="M84.93,168.45q.04-.93,1.01-.99c.2-.01.41,0,.61-.06.46-.11.56-.45.3-.84-.79-1.21-1.62-2.4-2.34-3.66-.81-1.42-1.8-2.72-2.61-4.13-.12-.22-.23-.42-.26-.66.08-.11.15-.21.23-.32.62-.4.98-1.04,1.48-1.57.12-.12.06-.27.02-.42-.37-1.37-.31-3.01,1.51-3.86.19-.09.37-.18.54-.29.7-.43,1.38-.88,1.78-1.64.38-.73.85-.91,1.61-.6.29.12.55.31.82.46.58.32,1.12.74,1.83.73.07.01.14.02.21.03.42.16.84.08,1.23-.05.51-.18,1.02-.25,1.56-.18.75.21,1.22.76,1.65,1.35,0,.12.05.2.16.25.06.1.13.21.19.31,0,.12.03.23.15.29.04.08.08.15.12.23,0,.11.04.19.14.25.09.16.18.33.27.49-.01.13.04.21.16.26.06.07.12.14.17.21.08.24.29.29.49.27.26-.02.51.02.77.07.08.07.16.15.23.22,0,.11.07.18.17.22.09.2.19.39.28.59-.03.1-.02.18.08.23.02.07.03.14.05.22-.02.2-.03.39.11.56.05.74.11,1.49.16,2.23-.13.36-.14.69.24.92.23.28.27.6.23.95-.12.12-.18.27-.19.44-.17.2-.35.4-.52.6-.12,0-.19.07-.23.18-.27.16-.54.32-.81.48-.16-.02-.29,0-.37.17-.09.04-.19.07-.28.11-.26.04-.54.05-.68.33,0,0-.02.02-.02.02-.35.33-.59.73-.71,1.19-.01.02-.03.05-.04.07-.37.08-.26.7-.74.64-.12-.11-.24-.21-.35-.32-.13-.14-.25-.27-.38-.41,0-.24.13-.41.25-.6.67-1.03,1.34-2.07,2-3.11.07-.1.17-.2.07-.35-.2-.29-.95-.29-1.14,0-.33.51-.63,1.04-.98,1.54-.41.58-.69,1.26-1.27,1.71-.28-.18-.59-.32-.93-.33-.17-.32-.15-.67-.15-1.03,0-1.38.14-2.77,0-4.15-.01-.16.02-.34-.19-.42-.58-.22-1.24.14-1.34.76-.32,1.98-.47,3.99-.92,5.96-.34.39-.68.78-1.24.83-.21-.09-.37-.24-.51-.41-.22-.25-.43-.5-.66-.73-.14-.14-.37-.24-.37.09,0,.57-.04,1.17.45,1.59.24.21.36.46.42.75-.18.87-.59,1.63-1.13,2.31-.68.85-1.69.84-2.41.03Z"/>
              <path class="cls-63" d="M64.5,198.71c.64-.27.99-.87,1.48-1.32,1.58-1.46,3.21-2.86,5.01-4.05.19-.12.42-.23.4-.49-.02-.29-.29-.37-.51-.44-.99-.33-2.03-.39-3.07-.48-2.86-.25-5.73-.29-8.59-.58-.61-.06-1.22-.1-1.81-.26-1.25-.34-1.54-1.21-.79-2.28.64-.91,1.5-1.59,2.33-2.29.42-.14.85-.42,1.26-.4,1.14.06,2.26-.16,3.39-.16.38,0,.71-.26,1.09-.15.39.11.72.02,1.02-.24.04.01.07.02.11.03-.34.88-.69,1.76-1.03,2.64-.2.53-.03.94.49,1.19.77.38,1.6.47,2.43.58,2.28.29,4.59.34,6.85.75,1.45.26,2.89.53,4.17,1.32,1.22.75,1.6,1.8,1.09,3.14-.54,1.43-1.58,2.51-2.6,3.58-.21.23-.19.33.01.49-.41.17-.78-.11-1.2-.11-2.13,0-4.26.11-6.39.13-1.54.02-3.07.02-4.61.1-.25.01-.51-.04-.76-.07-.03-.27.28-.39.21-.64Z"/>
              <path class="cls-51" d="M93.91,163.21c.58-.45.86-1.13,1.27-1.71.35-.5.65-1.03.98-1.54.19-.3.94-.3,1.14,0,.1.15,0,.25-.07.35-.66,1.04-1.33,2.08-2,3.11-.12.19-.25.36-.25.6-.12-.02-.22.02-.29.12-.33.53-.65,1.06-.97,1.59-.06.09-.11.18-.17.27-.09.03-.14.09-.13.19-.78.74-.54,1.66-.45,2.55.14,1.3.28,2.61.42,3.91-.01.09-.04.18-.03.27.18,1.96.37,3.92.56,5.88.01.13.01.27.17.31.07.7.14,1.41.21,2.11-.14.12-.13.22.03.31.07.49.13.97.2,1.46-1.16.35-2.36.4-3.56.46-.38.02-.77.03-1.14-.06.19-.79.09-1.59.1-2.38.02-2.45.02-4.89.02-7.34,0-1.93-.02-3.86,0-5.78,0-.92-.77-1.28-1.28-1.84-.02-.02-.13.05-.2.07-.07-.29-.18-.54-.42-.75-.49-.42-.46-1.02-.45-1.59,0-.33.23-.23.37-.09.24.23.45.49.66.73.15.17.31.32.51.41.07.53.57.72.86,1.08.08.1.23.04.25-.09.06-.61.35-1.2.14-1.82.45-1.96.6-3.97.92-5.96.1-.61.76-.98,1.34-.76.21.08.17.26.19.42.13,1.38-.01,2.77,0,4.15,0,.35-.02.7.15,1.03-.37.62-.17,1.26-.09,1.91.4-.51.8-.99,1.02-1.58Z"/>
              <path class="cls-26" d="M41.09,154.17c.09.02.17.04.26.06.21.33.61.25.9.37.54.23.93.69,1.5.85.07.08.15.16.22.25-.01.05-.05.12-.03.15.61,1.08.76,2.2.34,3.38-.01.03.06.09.09.13-.08.27-.22.51-.41.72-.11-.04-.18.02-.24.09-.4.56-.97.89-1.61,1.1-.11.04-.27.04-.26.23-.12.02-.24.03-.36.05-.13-.24-.35-.15-.54-.16-.53-.05-1.05-.04-1.55-.32-.85-.47-1.43-1.13-1.73-2.04-.04-.12-.04-.32-.27-.28-.02-.12-.03-.23-.05-.35.17-.27.15-.52-.06-.76.01-.08.02-.16.03-.24.14,0,.19-.12.2-.22.08-.63.42-1.12.83-1.58.07-.08.15-.17.05-.29.03-.02.05-.04.06-.07.83-.45,1.72-.74,2.59-1.06Z"/>
              <path class="cls-26" d="M50.1,158.37c-1.4.08-2.86-.26-4.35-.29-.22,0-.49-.08-.46-.37.03-.33.25-.58.57-.69.19-.06.41-.06.61-.05,1.38.11,2.78.08,4.13.47.33.09.84.19.8.55-.05.44-.58.32-.93.37-.09.01-.19,0-.36,0Z"/>
              <path class="cls-63" d="M50.29,151.54c-.07.21-.21.34-.35.46-.64.55-1.4.89-2.13,1.3-.66.37-1.35.69-2.02,1.04-.18.09-.4.24-.56.06-.19-.21-.07-.47.06-.67.45-.69,1.09-1.16,1.8-1.53.74-.38,1.5-.73,2.32-.89.33-.06.66-.1.88.23Z"/>
              <path class="cls-26" d="M33.94,151.64c.5.02.94.16,1.3.41.86.58,1.71,1.18,2.41,1.96.11.12.28.26.17.43-.11.18-.32.06-.46,0-1.3-.51-2.58-1.06-3.63-2.01-.15-.13-.32-.3-.22-.53.08-.19.27-.24.41-.26Z"/>
              <path class="cls-63" d="M38.62,162.26c-.1,1.07-.6,1.9-1.09,2.73-.28.48-.62.92-1.03,1.31-.14.14-.32.31-.54.17-.22-.15-.16-.38-.08-.6.5-1.37,1.37-2.53,2.12-3.76.08-.13.17-.34.38-.24.18.08.23.28.24.39Z"/>
              <path class="cls-26" d="M41.92,164.54c-.04-.37-.09-.74-.13-1.11.16-.41,0-.81-.03-1.21.04-.02.08-.05.12-.07.12.08.25.07.37,0,.05.04.1.09.15.13-.1.43.01.8.31,1.11.02.11.04.22.06.32-.11.25-.18.5.13.67.02.07.03.14.05.21-.12.24-.17.48.1.66.03.37.06.73.08,1.1-.31.26-.05.61-.13.91-.06.25-.09.5-.45.37-.07-.3-.14-.59-.21-.89.14-.18.14-.34-.09-.45-.03-.14-.05-.29-.08-.43.14-.22.18-.42-.12-.55-.02-.11-.04-.22-.06-.33.15-.19.13-.34-.09-.45Z"/>
              <path class="cls-63" d="M91.45,150.61c-.71.01-1.25-.41-1.83-.73-.28-.15-.54-.34-.82-.46-.76-.31-1.23-.13-1.61.6-.4.76-1.07,1.22-1.78,1.64-.17.11-.36.2-.54.29-1.81.84-1.88,2.49-1.51,3.86.04.15.1.29-.02.42-.49.52-.86,1.16-1.48,1.57.22-.53.67-.87,1.03-1.3.23-.27.28-.5.22-.88-.33-2.12.11-3.07,1.98-4.02.79-.4,1.46-.91,1.94-1.68.53-.85.95-1.02,1.84-.64.89.38,1.72.89,2.57,1.34Z"/>
              <path class="cls-51" d="M58.19,186.49c-.12.26-.37.31-.6.31-1.13.03-2.22.29-3.34.37-.26.02-.47-.02-.65-.2-.06-.99-.11-1.98-.17-2.97.29.03.21.27.23.43.05.59.1,1.19.13,1.78.02.4.17.58.59.52.97-.13,1.94-.32,2.93-.31.41,0,.32-.57.72-.51.11.17.02.41.18.57Z"/>
              <path class="cls-26" d="M41.07,151.19c.21.53.19,1.1.21,1.65-.21.24-.24.51-.15.81-.02.05-.04.09-.06.14-.53.09-.32-.55-.65-.65-.02-.08-.03-.15-.05-.23.07-.56-.11-1.09-.18-1.64.02-.02.04-.04.05-.06.28.06.56,0,.84-.02Z"/>
              <path class="cls-26" d="M46.63,162.6c-.26-.23-.51-.46-.77-.69.05-.33-.06-.74.42-.85.3.26.6.53.9.79-.04.4.07.65.54.57.09.12.18.25.27.37-.08.21-.25.35-.42.48-.21-.14-.42-.27-.63-.41.03-.25-.07-.34-.32-.26Z"/>
              <path class="cls-63" d="M37.42,158.74c.23-.03.23.16.27.28.3.92.88,1.58,1.73,2.04.5.28,1.02.27,1.55.32.19.02.42-.07.54.16-.73.4-1.43.17-2.09-.13-.56-.25-1.01-.68-1.43-1.12-.41-.42-.53-.99-.56-1.56Z"/>
              <path class="cls-63" d="M94.09,179.1c-.16-.05-.16-.18-.17-.31-.19-1.96-.38-3.92-.56-5.88,0-.09.02-.18.03-.27.19.05.17.22.18.36.18,1.9.37,3.81.55,5.71.01.13-.02.26-.03.38Z"/>
              <path class="cls-63" d="M46.28,161.06c-.48.12-.37.52-.42.85-.43-.35-.81-.75-1.14-1.19-.12-.16-.26-.34-.07-.55.19-.2.38-.07.55.03.4.23.78.49,1.08.85Z"/>
              <path class="cls-63" d="M40.42,153.14c.33.11.12.75.65.65.01.13.02.25.03.38-.88.32-1.77.61-2.59,1.06.3-.53.82-.76,1.36-.91.49-.13.93-.21.54-.86-.05-.08,0-.21.02-.32Z"/>
              <path class="cls-63" d="M44.38,159.35s-.1-.1-.09-.13c.42-1.18.27-2.3-.34-3.38-.02-.03.02-.1.03-.15.86.83,1.06,2.71.4,3.66Z"/>
              <path class="cls-51" d="M52.99,179.25c.19-.01.2.12.21.26.08,1.08.16,2.16.24,3.24,0,.1-.01.18-.1.24-.23-1.24-.3-2.49-.35-3.74Z"/>
              <path class="cls-63" d="M41.86,161.5c-.01-.19.15-.19.26-.23.64-.22,1.21-.54,1.61-1.1.05-.08.13-.13.24-.09.12.38-.24.47-.42.63-.48.42-.94.9-1.68.8Z"/>
              <path class="cls-63" d="M43.76,155.44c-.57-.16-.96-.62-1.5-.85-.3-.13-.69-.04-.9-.37,1.01,0,1.83.37,2.4,1.22Z"/>
              <path class="cls-63" d="M93.71,165.72c.32-.53.65-1.06.97-1.59.06-.1.17-.14.29-.12.13.14.25.27.38.41-.44-.06-.7.13-.9.53-.16.32-.28.72-.74.77Z"/>
              <path class="cls-63" d="M38.44,155.3c.1.12.02.21-.05.29-.41.45-.76.94-.83,1.58-.01.1-.06.22-.2.22,0-.88.26-1.63,1.09-2.09Z"/>
              <path class="cls-63" d="M94.45,150.4c-.53-.07-1.04,0-1.56.18-.39.13-.81.21-1.23.05.72-.16,1.44-.34,2.17-.47.21-.04.48-.03.62.23Z"/>
              <path class="cls-63" d="M42.56,167.65c.36.13.39-.13.45-.37.08-.3-.19-.64.13-.91.21.42.07.86.04,1.29-.02.22-.06.58-.29.58-.28,0-.33-.32-.32-.59Z"/>
              <path class="cls-51" d="M52.67,175.68c.28.6.27,1.22.15,1.84-.14-.61-.19-1.22-.15-1.84Z"/>
              <path class="cls-63" d="M40.18,151.26c.07.55.25,1.08.18,1.64-.25-.53-.51-1.05-.18-1.64Z"/>
              <path class="cls-63" d="M96.49,164.03c.13-.46.36-.86.71-1.19-.1.48-.27.92-.71,1.19Z"/>
              <path class="cls-63" d="M95.71,164.75c.48.06.37-.57.74-.64.09.36-.2.55-.38.77-.1.12-.31.13-.36-.13Z"/>
              <path class="cls-63" d="M41.76,162.23c.03.4.19.8.03,1.21-.18-.4-.36-.8-.03-1.21Z"/>
              <path class="cls-63" d="M79.92,199.36c.41-.15.83-.26,1.25-.02-.41.09-.83.16-1.25.02Z"/>
              <path class="cls-63" d="M42.71,163.4c-.3-.32-.41-.69-.31-1.11.3.32.37.7.31,1.11Z"/>
              <path class="cls-63" d="M98.74,154.38c-.25-.05-.5-.09-.77-.07-.21.02-.41-.04-.49-.27.27.02.54.02.8.08.17.04.43-.02.46.27Z"/>
              <path class="cls-63" d="M85.36,199.05c.34-.29.73-.24,1.13-.15-.35.21-.74.17-1.13.15Z"/>
              <path class="cls-63" d="M47.57,163.27c.17-.13.34-.27.42-.48.22.13.22.35.09.5-.13.15-.34.18-.51-.01Z"/>
              <path class="cls-63" d="M100.07,159.57c-.38-.23-.37-.56-.24-.92.19.28.17.61.24.92Z"/>
              <path class="cls-63" d="M47.72,162.42c-.47.09-.58-.17-.54-.57.28.1.42.32.54.57Z"/>
              <path class="cls-63" d="M41.07,151.19c-.28.02-.56.08-.84.02.27-.35.55-.3.84-.02Z"/>
              <path class="cls-63" d="M37.32,157.63c.21.24.23.49.06.76-.19-.24-.21-.49-.06-.76Z"/>
              <path class="cls-63" d="M87.46,198.78c.23-.26.5-.25.8-.13-.24.19-.52.16-.8.13Z"/>
              <path class="cls-63" d="M41.13,153.65c-.09-.29-.07-.57.15-.81.09.29.1.58-.15.81Z"/>
              <path class="cls-63" d="M43.06,165.27c-.27-.19-.23-.42-.1-.66.22.19.17.43.1.66Z"/>
              <path class="cls-63" d="M78.57,199.34c.24-.15.47-.19.69.02-.23.06-.47.14-.69-.02Z"/>
              <path class="cls-63" d="M42.91,164.39c-.31-.17-.24-.42-.13-.67.24.18.17.43.13.67Z"/>
              <path class="cls-63" d="M97.21,162.82c.14-.28.42-.29.68-.33-.15.27-.41.31-.68.33Z"/>
              <path class="cls-63" d="M42.07,165.33c.29.13.25.33.12.55-.22-.15-.17-.35-.12-.55Z"/>
              <path class="cls-63" d="M99.66,156.42c-.14-.16-.13-.36-.11-.56.29.13.26.33.11.56Z"/>
              <path class="cls-63" d="M77.67,199.3c.17-.16.33-.16.47.03-.16.07-.32.1-.47-.03Z"/>
              <path class="cls-63" d="M100.11,160.96c.01-.17.07-.32.19-.44.16.25.04.37-.19.44Z"/>
              <path class="cls-63" d="M41.92,164.54c.22.11.25.26.09.45-.19-.12-.16-.28-.09-.45Z"/>
              <path class="cls-63" d="M42.26,166.31c.22.11.23.27.09.45-.18-.12-.16-.28-.09-.45Z"/>
              <path class="cls-63" d="M46.63,162.6c.24-.08.34.02.32.26-.18,0-.29-.08-.32-.26Z"/>
              <path class="cls-63" d="M94.34,181.52c-.17-.09-.18-.19-.03-.31.13.09.15.19.03.31Z"/>
              <path class="cls-63" d="M96.61,152.61c-.13-.06-.15-.17-.15-.29.25,0,.27.11.15.29Z"/>
              <path class="cls-63" d="M98.17,162.38c.07-.16.21-.18.37-.17-.05.22-.19.23-.37.17Z"/>
              <path class="cls-63" d="M92.24,197.93c.09-.17.2-.18.33-.05-.09.15-.2.16-.33.05Z"/>
              <path class="cls-63" d="M42.25,162.16c-.12.08-.24.08-.37,0,.12-.24.24-.25.37,0Z"/>
              <path class="cls-63" d="M98.88,182.74c-.07.14-.14.13-.22,0,.07-.1.14-.1.22,0Z"/>
              <path class="cls-63" d="M96.26,152.01c-.11-.05-.17-.13-.16-.25.16.02.23.09.16.25Z"/>
              <path class="cls-63" d="M99.35,161.73c.04-.1.11-.17.23-.18,0,.17-.06.24-.23.18Z"/>
              <path class="cls-63" d="M37.61,170.6c-.09.07-.17.08-.25-.02.09-.13.17-.06.25.02Z"/>
              <path class="cls-63" d="M35.56,170.7c-.06.11-.14.12-.25.06.07-.09.13-.17.25-.06Z"/>
              <path class="cls-63" d="M93.01,197.78c.05-.14.12-.16.22-.04-.05.11-.12.14-.22.04Z"/>
              <path class="cls-63" d="M99.14,154.82c-.1-.04-.16-.11-.17-.22.17-.01.24.06.17.22Z"/>
              <path class="cls-63" d="M93.41,166.18c0-.1.05-.16.13-.19.1.17.06.23-.13.19Z"/>
              <path class="cls-63" d="M97.3,153.83c-.12-.04-.18-.13-.16-.26.15.02.22.1.16.26Z"/>
              <path class="cls-63" d="M99.49,155.65c-.09-.06-.11-.14-.08-.23.15.04.22.1.08.23Z"/>
              <path class="cls-63" d="M96.87,153.08c-.1-.05-.14-.14-.14-.25.17.01.23.09.14.25Z"/>
              <path class="cls-51" d="M57.25,175.21c-.33-.26-.4-.58-.27-.98.13-.39.43-.33.72-.38,2.02-.3,4.07-.22,6.1-.43.7-.07.92.12.99.85.07.72.06,1.45.18,2.17.4,2.53.63,5.08.87,7.62,0,.02,0,.04,0,.06q.23,1.26,1.55,1.24c.13,0,.26-.03.34.12-.63.18-1.26.24-1.91.12-.04-.01-.07-.02-.11-.03-.05-.77-.08-1.54-.22-2.3.07-.14.08-.27-.08-.36-.18-1.65-.35-3.31-.53-4.96.06-.21.09-.41-.08-.59-.06-.84-.1-1.69-.24-2.53.04-.39.09-.78-.34-1.01h0c-.07-.28-.29-.17-.46-.16-2.02.14-4.04.28-6.05.43-.17.01-.41-.04-.38.26-.03.29-.06.57-.09.86Z"/>
              <path class="cls-51" d="M83.54,176.86c.26,1.38.35,2.78.53,4.17.12.93.3,1.86.24,2.81-2.66.32-5.32.62-8,.78-.23.01-.44.26-.68.07.14-.44.55-.38.87-.41,1.33-.12,2.67-.23,4-.29,1.1-.05,2.17-.31,3.26-.34.31-.01.41-.14.39-.45-.06-.92-.27-1.83-.37-2.74-.14-1.19-.28-2.39-.23-3.59Z"/>
              <path class="cls-51" d="M68.43,185.41c-.02-.13.03-.23.16-.23.76-.03,1.52-.22,2.29-.1-.12.23-.34.17-.53.19-.64.05-1.28.1-1.92.14Z"/>
              <path class="cls-51" d="M72.85,184.93c.6-.33,1.23-.34,1.88-.17-.61.2-1.24.21-1.88.17Z"/>
              <path class="cls-67" d="M65.49,183.28c.14.76.17,1.53.22,2.3-.3.26-.63.35-1.02.24-.38-.11-.71.15-1.09.15-1.13,0-2.25.22-3.39.16-.41-.02-.84.26-1.26.4-.25-.17-.51-.05-.77-.02-.16-.16-.07-.4-.18-.57-.17-2.46-.35-4.91-.52-7.37.02-1-.08-1.99-.22-2.98,0-.12-.01-.24-.02-.36.03-.29.06-.57.09-.86,2.3-.18,4.59-.35,6.89-.52,0,0,0,0,0,0,.21.31,0,.75.34,1.01.15.84.18,1.68.24,2.53-.15.22-.15.42.08.59.18,1.65.35,3.31.53,4.96-.14.16-.11.28.08.36Z"/>
              <path class="cls-67" d="M80.15,174.74c.06.85.11,1.71.19,2.56.04.38-.1.55-.48.57-1.37.09-2.74.17-4.11.29-.48.04-.68-.18-.68-.58,0-1.47-.23-2.92-.33-4.38-.03-.38.12-.61.55-.69,1.18-.23,2.35-.52,3.53-.78.16-.04.33-.07.49-.09.43-.07.66.06.67.55.03.85.11,1.7.17,2.56Z"/>
              <path class="cls-51" d="M67.9,173.03c.63.02,1.4-.19,2.19-.3.51-.07.92.28.92.79,0,.83.06,1.65.33,2.44.04.1.08.21.09.32.08.75.1,1.51.27,2.26.11.46-.11.66-.58.73-1.13.15-2.26.35-3.39.55-.84.15-1.18-.07-1.23-.92-.06-1.17-.25-2.32-.41-3.47-.07-.47-.04-.94-.23-1.4-.13-.3.36-.88.7-.91.39-.04.78-.06,1.34-.1ZM70.51,179.07c.18,0,.37,0,.55-.03.31-.05.45-.23.4-.55-.26-1.61-.52-3.21-.78-4.82-.07-.44-.26-.68-.78-.61-1.04.15-2.1.26-3.15.36-.42.04-.58.23-.52.66.21,1.69.4,3.39.6,5.08.03.22.11.41.37.4.98-.05,1.94-.2,2.89-.44.14-.01.29-.03.43-.04Z"/>
              <path class="cls-51" d="M82.68,169.29c.24.81.24,1.65.33,2.47.18,1.6.47,3.2.49,4.82-.38-.37-.28-.9-.33-1.33-.25-1.89-.38-3.8-.55-5.7,0-.08.04-.17.06-.26Z"/>
              <path class="cls-51" d="M57.27,175.58c.14.99.23,1.98.22,2.98-.14,0-.19-.09-.2-.21-.06-.84-.12-1.69-.18-2.53,0-.12.02-.22.17-.24Z"/>
              <path class="cls-51" d="M82.65,168.96s.03.05,0,.08c-.01-.02-.03-.03-.04-.05,0,0,.02-.01.03-.02Z"/>
              <path class="cls-66" d="M90.39,163.99c.22.63-.08,1.22-.14,1.82-.01.13-.17.19-.25.09-.29-.36-.79-.55-.86-1.08.57-.05.9-.44,1.24-.83Z"/>
              <path class="cls-66" d="M93.91,163.21c-.21.6-.62,1.07-1.02,1.58-.08-.65-.28-1.29.09-1.91.35,0,.65.14.93.33Z"/>
              <path class="cls-63" d="M64.22,173.83c-2.3.17-4.59.35-6.89.52-.02-.31.21-.25.38-.26,2.02-.15,4.03-.29,6.05-.43.17-.01.39-.11.46.16Z"/>
              <path class="cls-63" d="M64.56,174.83c-.33-.26-.13-.71-.34-1.01.42.23.37.63.34,1.01Z"/>
              <path class="cls-63" d="M64.89,177.95c-.24-.16-.23-.37-.08-.59.18.17.14.38.08.59Z"/>
              <path class="cls-63" d="M65.49,183.28c-.19-.09-.22-.21-.08-.36.15.09.15.22.08.36Z"/>
              <path class="cls-67" d="M70.51,179.07c-.14.01-.29.03-.43.04-.16-.15-.35-.07-.53-.06-.65.01-1.29.14-1.93.25-.39.07-.59-.07-.61-.49-.07-1.28-.34-2.54-.38-3.82,0-.16-.06-.33-.11-.48-.17-.55-.03-.82.53-.88.96-.1,1.92-.13,2.87-.32.38-.08.54.1.56.48.05,1.32.38,2.59.6,3.89.08.48.22,1.02-.48,1.21-.05.01-.07.12-.1.19Z"/>
              <path class="cls-63" d="M70.51,179.07c.03-.06.05-.17.1-.19.69-.2.56-.73.48-1.21-.22-1.29-.55-2.57-.6-3.89-.01-.38-.18-.56-.56-.48-.95.19-1.91.22-2.87.32-.56.06-.7.33-.53.88.05.16.1.32.11.48.04,1.28.31,2.54.38,3.82.02.42.22.56.61.49.64-.11,1.27-.24,1.93-.25.18,0,.37-.09.53.06-.95.24-1.91.39-2.89.44-.26.01-.34-.17-.37-.4-.2-1.69-.39-3.39-.6-5.08-.05-.42.1-.62.52-.66,1.05-.11,2.1-.21,3.15-.36.52-.08.71.17.78.61.26,1.61.52,3.21.78,4.82.05.32-.09.5-.4.55-.18.03-.37.02-.55.03Z"/>
            </g>
            <g>
              <g>
                <g>
                  <rect class="cls-34" x="203.07" y="273.05" width="6.41" height="44.54"/>
                  <g class="cls-42">
                    <path class="cls-58" d="M212.99,277.94c-4.67,1.96-9.34,3.91-14.02,5.87-.04-3.78.35-7.68.31-11.47,4.48-.14,8.95-.29,13.43-.43.12,2.11.16,3.92.28,6.03Z"/>
                  </g>
                  <rect class="cls-18" x="203.07" y="273.05" width="6.41" height="44.54"/>
                </g>
                <g>
                  <rect class="cls-34" x="175.64" y="273.05" width="6.41" height="47.47"/>
                  <g class="cls-62">
                    <path class="cls-58" d="M185.55,278.26c-4.67,2.08-9.34,4.17-14.02,6.25-.04-4.03.35-8.19.31-12.22,4.48-.15,8.95-.3,13.43-.46.12,2.25.16,4.18.28,6.43Z"/>
                  </g>
                  <rect class="cls-18" x="175.64" y="273.05" width="6.41" height="47.47"/>
                </g>
                <g>
                  <rect class="cls-34" x="130.4" y="273.05" width="6.41" height="44.23"/>
                  <g class="cls-48">
                    <path class="cls-58" d="M140.32,277.91c-4.67,1.94-9.34,3.88-14.02,5.83-.04-3.76.35-7.63.31-11.39,4.48-.14,8.95-.28,13.43-.43.12,2.1.16,3.89.28,5.99Z"/>
                  </g>
                  <rect class="cls-18" x="130.4" y="273.05" width="6.41" height="44.23"/>
                </g>
                <rect class="cls-16" x="123.63" y="267.62" width="92.75" height="8.15" rx="2.37" ry="2.37"/>
                <path class="cls-13" d="M134.26,257.9h71.88c3.67,0,6.64,2.98,6.64,6.64v3.09h-85.16v-3.09c0-3.67,2.98-6.64,6.64-6.64Z"/>
              </g>
              <g>
                <g>
                  <path class="cls-8" d="M103.74,199.61s18.6,21.81,28.01,21.81c7.45,0,16.51-3.15,16.51-3.15l-9.95-18.24s-5.2,3.5-6.87,3.75c-2.73.41-20.15-11.24-20.15-11.24l-6.78-4.93-.77,12Z"/>
                  <g class="cls-5">
                    <path class="cls-49" d="M133.8,223.82c4.43-.97,8.86-1.95,13.29-2.92-1.09-2.68-2.18-5.37-3.28-8.05-.99-2.44-1.99-4.9-3.38-7.14-1.07-1.74-2.74-4.41-4.58-5.42-1.8-.99-1.51,1.96-1.12,2.94,1.71,4.3,2.45,8.72,1.66,13.33-.44,2.55-1.3,5.02-2.58,7.26Z"/>
                  </g>
                </g>
                <g>
                  <g>
                    <path class="cls-8" d="M105,200.49c-2.88-.78-4.41-2-6.69-3.92-.26,1.1-.58,2.63-1.27,3.97-.29.57-.7,1.14-1.31,1.33-.71.22-1.51-.16-1.97-.74-.46-.58-.66-1.33-.79-2.07-.28.47-.7,1.03-1.27,1.33-.57.3-1.29.31-1.85,0-.6-.34-.96-1-1.09-1.68s-.07-1.37,0-2.06c-.62.41-1.13.8-1.72.94-.6.14-1.28,0-1.67-.48-.45-.55-.4-1.34-.32-2.05.36-3.18.72-6.35,1.28-9.65,3.32-2.34,6.95-4.25,11.19-5.92,5.12,2.75,4.08,2.6,7.56,7.24"/>
                    <path class="cls-18" d="M88.38,196.87c.83-.83,1.34-1.94,1.62-3.08.28-1.14.35-2.32.42-3.5"/>
                    <path class="cls-18" d="M92.88,199.44c.8-2.23,1.13-4.62.97-6.99"/>
                  </g>
                  <g>
                    <path class="cls-8" d="M112.15,193.59c-1.53-3.96-2.99-7.8-5.15-11.47-.87-1.48-2.21-2.63-3.82-3.2-2.48-.89-5.06-1.61-7.86-2.19-1.4-.29-2.85.14-3.92,1.1-1.61,1.45-3.37,2.74-5.25,3.82-.6.35-1.23.68-1.71,1.19-.48.5-.8,1.22-.63,1.9.16.64.72,1.13,1.35,1.34.63.21,1.31.19,1.97.11,2.79-.35,5.45-1.75,7.1-3.11,1.57.65,3.07,1.48,4.47,2.44"/>
                    <g class="cls-44">
                      <path class="cls-10" d="M110.36,186.63c-2.62,1.27-5.17,2.68-7.79,3.94-1.02-.92-2.03-2.02-3.05-2.94,3.04-1.06,6.08-2.13,9.13-3.19.24-.08.52-.16.73-.02.14.1.2.27.26.42.22.62.51,1.16.72,1.78Z"/>
                    </g>
                    <path class="cls-9" d="M112.15,193.59c-1.53-3.96-2.99-7.8-5.15-11.47-.87-1.48-2.21-2.63-3.82-3.2-2.48-.89-5.06-1.61-7.86-2.19-1.4-.29-2.85.14-3.92,1.1-1.61,1.45-3.37,2.74-5.25,3.82-.6.35-1.23.68-1.71,1.19-.48.5-.8,1.22-.63,1.9.16.64.72,1.13,1.35,1.34.63.21,1.31.19,1.97.11,2.79-.35,5.45-1.75,7.1-3.11,1.57.65,3.07,1.48,4.47,2.44"/>
                  </g>
                  <g>
                    <g>
                      <path class="cls-37" d="M64.19,191.41c-1.35-2.14-3.92-3.4-6.45-3.33s-4.96,1.41-6.53,3.39-2.32,4.56-2.24,7.09c.05,1.82.53,3.65,1.52,5.19.99,1.53,2.52,2.74,4.46,3.21-.57-.8-1.13-1.63-1.36-2.58-.23-.95-.08-2.06.63-2.73.52-.5,1.26-.7,1.97-.75.72-.05,1.44.02,2.15-.02,2.17-.11,4.25-1.29,5.47-3.09,1.21-1.8,1.71-4.28.39-6.38Z"/>
                      <g class="cls-1">
                        <path class="cls-31" d="M54.18,186.55c.6.06,1.15.47,1.39,1.02.24.55.16,1.23-.21,1.71-.31.41-.79.66-1.19.98-.4.33-.75.82-.64,1.32.14.64.92.91,1.57.85.65-.06,1.27-.34,1.93-.33,1.01.02,1.96.83,2.12,1.83.17,1-.46,2.08-1.41,2.43-.65.24-1.37.16-2.03.37-.66.21-1.27.93-.96,1.54.21.41.72.56,1.18.52.45-.04.88-.22,1.33-.31,1.38-.26,2.89.58,3.39,1.89-1.16.39-1.84,1.38-3,1.77-.88.3-1.91.76-2.04,1.68-.14,1.03.96,1.84,1.12,2.87.16,1.07-.81,2.06-1.88,2.24-1.07.18-2.14-.27-3.04-.87-3.24-2.14-4.9-6.26-4.51-10.12.39-3.86,2.65-7.4,5.7-9.8"/>
                      </g>
                      <path class="cls-18" d="M64.19,191.41c-1.35-2.14-3.92-3.4-6.45-3.33s-4.96,1.41-6.53,3.39-2.32,4.56-2.24,7.09c.05,1.82.53,3.65,1.52,5.19.99,1.53,2.52,2.74,4.46,3.21-.57-.8-1.13-1.63-1.36-2.58-.23-.95-.08-2.06.63-2.73.52-.5,1.26-.7,1.97-.75.72-.05,1.44.02,2.15-.02,2.17-.11,4.25-1.29,5.47-3.09,1.21-1.8,1.71-4.28.39-6.38Z"/>
                    </g>
                    <path class="cls-15" d="M74.91,193.27s42.74-8.7,42.01-10.9c-.73-2.2-43.04,6.45-43.04,6.45l1.04,4.44Z"/>
                    <path class="cls-14" d="M76.05,194.05c.22-2.25-.24-4.35-1.35-6.28l-10.83,3.18c.76,1.32,1.18,2.8,1.11,4.44l11.08-1.33Z"/>
                  </g>
                  <path class="cls-7" d="M106.14,202.11c-4.27-.24-8.27-3.15-9.83-7.21-1.79-.88-3.51-1.92-5.12-3.1-.62-.46-1.28-1.01-1.41-1.77-.16-.91.53-1.81,1.39-2.16.85-.35,1.82-.27,2.73-.1,1.93.36,3.78,1.12,5.78,2.21,1.52,0,3.87-.07,5.39-.07"/>
                </g>
              </g>
              <path class="cls-36" d="M158.48,218.95c-4.58,1.49-9.15,2.98-13.73,4.47-2.89-7.68-5.97-15.11-9.98-21.99,6.73-5.2,13.91-10.01,21.35-14.39,12.5-6.83,27.54-7.15,39.3,2.83,1.74,11.48,3.65,30.67,2.76,42.25-12.9-.36-27.23-10.06-39.7-13.17Z"/>
              <g>
                <path class="cls-49" d="M177.51,171.5c.42,3.67,1.33,7.28,3.06,11.11.63.21,1.25.42,1.93.69-.37,6.33-8.27,13.12-14.33,13.12-5.44,0-8.03-7.29-5.81-12.18,1.19-.46,1.66-.58,2.91-.9-.67-2.23-1-4.33-1.23-6.65,4.54-1.42,8.99-3.14,13.47-5.2Z"/>
                <g class="cls-2">
                  <path class="cls-49" d="M178.43,171.92c-2.85,6.07-8.41,10.63-14.68,12.03-.64-2.56-1.28-5.11-1.92-7.67,5.57-1,11.1-2.29,16.6-4.35Z"/>
                </g>
              </g>
              <g>
                <path class="cls-4" d="M126.56,313.43c.08,2.23-1.12,4.35-3.02,5.19-7.22,3.17-14.89,4.14-22.27,2.91-1.48-.25-2.63-1.63-2.74-3.36v-.04c-.02-.2-.02-.39,0-.59.04-.67.25-1.32.59-1.86,2.97-4.75,7.37-7.83,12.13-8.8,4.55,1.37,9.18,1.67,13.79,1.45.53,1.2.98,2.45,1.33,3.74.12.45.19.91.2,1.36Z"/>
                <path class="cls-35" d="M126.56,313.43c.08,2.23-1.12,4.35-3.02,5.19-7.22,3.17-14.89,4.14-22.27,2.91-1.48-.25-2.63-1.63-2.74-3.36v-.04c-.02-.2-.02-.39,0-.59,9.43,1.72,19.27.27,28.04-4.11Z"/>
              </g>
              <g>
                <path class="cls-4" d="M162.86,318.57c-.03.16-.07.31-.11.47-.85,3.38-3.42,6.05-6.79,7-4.94,1.41-9.95,1.42-14.64.25-2.86-.71-4.85-3.4-4.56-6.34.02-.16.03-.31.05-.46.14-1.03.41-2.03.8-2.99,1.05-2.56,2.92-4.79,5.26-6.28,7.29,1.24,13.9,1.61,20.4.96.21,2.46.07,4.95-.42,7.38Z"/>
                <path class="cls-35" d="M162.75,319.04c-.85,3.38-3.42,6.05-6.79,7-4.94,1.41-9.95,1.42-14.64.25-2.86-.71-4.85-3.4-4.56-6.34.02-.16.03-.31.05-.46.8,1.02,1.9,1.84,3.09,2.37,1.88.84,3.99,1.08,6.06,1.13,5.81.11,11.63-1.27,16.78-3.95Z"/>
              </g>
              <path class="cls-41" d="M133.6,262.01c13.91,1.96,27.76,4.07,41.76,5.22,3.28.27,6.58.54,9.88.87,6.78-3.1,14.7-6.93,16.53-8.76,3.32-3.32,4.51-8.37,4.51-8.37l-18.54-9.92-47.02,9.64s-6.79,5.16-13.36,10.43c2.08.3,4.16.6,6.25.89Z"/>
              <path class="cls-36" d="M182.37,246.06c8.71,0,15.49,8.9,24.66,8.87,1.21-6.92.85-14.1-1.02-20.75-8.08,1.7-15.67,5.66-23.64,11.88Z"/>
              <path class="cls-8" d="M180.16,272.01l-16.88,39.19s-10.7,2.44-15.02,0l9.06-43.92,22.84,4.73Z"/>
              <path class="cls-36" d="M170.55,265.45l15.93,2.08-4.42,5.51-16.08-1.13s1.34-5.48,4.58-6.47Z"/>
              <path class="cls-4" d="M139.52,313.28s4.49-5.42,9.53-5.92c0,0-1.92,3.7,0,4.2,1.92.49-.79,7.48-.79,7.48l-8.74-5.76Z"/>
              <path class="cls-8" d="M121.85,278.9l-9.78,27.98s6.06,2.6,12.63,1.5l14.81-27.91-17.66-1.57Z"/>
              <polygon class="cls-49" points="165.97 271.92 178.7 275.4 180.16 272.92 165.97 271.92"/>
              <path class="cls-30" d="M191.57,187.03l3.85,2.83s2.34,12.07,2.65,25.2c.3,13.14.11,17.05.11,17.05l.62,6.55-33.54,6.98-18.64,1.2,8.83-28.51s-2.66-27.94.67-31.3c3.34-3.36,6.25-2.79,6.25-2.79,0,0-1.66,14.66,10.34,11.11,0,0,8.88-3.23,9.8-12.06l9.07,3.73Z"/>
              <polygon class="cls-36" points="154.5 203.14 196.88 199.59 197.42 204.51 154.5 208.52 154.5 203.14"/>
              <polygon class="cls-36" points="154.76 214.16 197.15 210.6 197.68 215.53 154.76 219.53 154.76 214.16"/>
              <polygon class="cls-36" points="155.34 224.97 197.72 221.42 198.26 226.34 155.34 230.34 155.34 224.97"/>
              <g>
                <g>
                  <path class="cls-19" d="M181.04,213.31c-.78-10.44-.63-21.08.43-30.89.85.19,1.47.56,2.21.99-.48,10-.36,19.96.86,29.89-.87,0-2.32-.28-3.5,0Z"/>
                  <path class="cls-19" d="M160.8,212.87c-.66-9.12-.02-20.02,4.75-29.27-1.04.15-1.96.24-2.91.84-4.38,8.49-5.44,18.91-4.71,28.87.9-.31,2.3-.33,2.87-.44Z"/>
                  <g>
                    <path class="cls-35" d="M200.43,239.35c-9.78,8.87-19.16,13.86-27.12,21.08-3.31,3-5.84,6.75-7.34,10.96-2.36,6.62-4.26,13.7-5.43,19.93-6.79-1.56-13.04-1.71-18.8-.07-2.52.72-5.02,1.78-7.63,1.7-7.83-.26-14.23-11.17-22.03-10.47,2.12-10.41,3.17-15.85,5.91-23.13,2.12-5.62,6.99-9.01,12.32-11.78,8.87-4.61,18.22-8.3,27.85-10.98-.41-8.15-.55-18.58-.35-24.47,8.22.41,18.89.54,26.87.27,3.09,6.88,9.12,15.7,15.12,20.86.24,3.06.48,3.38.64,6.13Z"/>
                    <g class="cls-45">
                      <path class="cls-47" d="M154.15,231.13c10.37,2.43,21.46,1.65,31.38-2.22,4.18-1.63,8.4-4.05,10.31-8.11,1.64,1.78,3.28,3.43,4.92,5.21,1.73,1.88,3.51,3.82,4.46,6.2,1.7,4.22.48,9.2-2.18,12.89-2.66,3.69-6.56,6.29-10.57,8.44-4,2.16-8.21,3.97-11.97,6.53-3.76,2.55-7.14,5.99-8.56,10.31-.38-1.93-1.01-3.55-1.39-5.47-4.49.59-8.74,1.23-13.22,1.82-5.39.71-11.09,1.37-16.07-.81-4.19-1.83-7.29-5.43-10.93-8.19-3.64-2.76-8.64-4.71-12.72-2.65,1.12-3.92,5.68-6.71,9.21-8.75,9.19-5.32,18.15-9.89,27.34-15.21Z"/>
                      <path class="cls-47" d="M149.88,265.25c-3.41,8.67-12.49,14.79-21.81,14.69,7.08-2.74,12.17-9.97,12.38-17.56,3.36.1,6.7.89,9.43,2.86Z"/>
                    </g>
                    <path class="cls-18" d="M200.43,239.35c-9.78,8.87-19.16,13.86-27.12,21.08-3.31,3-5.84,6.75-7.34,10.96-2.36,6.62-4.26,13.7-5.43,19.93-6.79-1.56-13.04-1.71-18.8-.07-2.52.72-5.02,1.78-7.63,1.7-7.83-.26-14.23-11.17-22.03-10.47,2.12-10.41,3.17-15.85,5.91-23.13,2.12-5.62,6.99-9.01,12.32-11.78,8.87-4.61,18.22-8.3,27.85-10.98-.41-8.15-.55-18.58-.35-24.47,8.22.41,18.89.54,26.87.27,3.09,6.88,9.12,15.7,15.12,20.86.24,3.06.48,3.38.64,6.13Z"/>
                  </g>
                </g>
                <g>
                  <g>
                    <path class="cls-8" d="M209.99,210.9s5.77,16.23,4.52,22.11c-1.25,5.89-7.61,12.5-35.03,14.68l5.06-13.21s12.66-4.44,12.66-5.65-2.29-7.46-2.29-7.46l15.09-10.47Z"/>
                    <g class="cls-27">
                      <path class="cls-49" d="M213.34,212.17c-3.45,7.77-10.55,13.83-18.77,16-1.08-2.09-2.28-4.35-3.36-6.44,7.7-2.79,15.36-4.95,22.12-9.56Z"/>
                    </g>
                  </g>
                  <path class="cls-36" d="M190.79,186.46c9.99,5.48,17.68,15.3,21.87,26.22-5.27,4.62-12.73,9.6-19.1,11.76-2.98-5.95-4.34-8.62-6.7-14-1.31-3.29-.66-12.23,1.36-16.44"/>
                  <g>
                    <g>
                      <path class="cls-37" d="M188.91,236.78c-.1-5.61-4.73-10.31-10.25-11.28-5.52-.97-10.92,1.2-14.63,5.4-.92,1.05-1.76,2.22-2.95,2.95-2.22,1.37-5.06.91-7.64.56-5.09-.7-10.47-.77-15.16,1.34-4.69,2.11-8.48,6.87-8.11,11.99.26,3.69,2.61,7.01,5.64,9.12,3.03,2.12,6.68,3.17,10.33,3.78,8.94,1.51,18.41.52,26.49-3.58,8.08-4.1,16.45-10.98,16.29-20.29Z"/>
                      <g class="cls-28">
                        <path class="cls-64" d="M191.69,234.99c-4.2,6.55-10.2,11.92-17.12,15.47-6.92,3.55-14.75,5.3-22.53,5.14-5.56-.11-11.27-1.25-15.82-4.43-4.55-3.19-7.72-8.72-6.99-14.23-1.31,5.81.03,11.6,3.25,16.6,3.23,5,8.52,8.63,14.35,9.83,5.5,1.13,11.2.18,16.7-.92,4.75-.95,9.54-2.02,13.81-4.3,8.87-4.74,14.87-13.12,14.35-23.17Z"/>
                      </g>
                      <path class="cls-18" d="M188.91,236.78c-.1-5.61-4.73-10.31-10.25-11.28-5.52-.97-10.92,1.2-14.63,5.4-.92,1.05-1.76,2.22-2.95,2.95-2.22,1.37-5.06.91-7.64.56-5.09-.7-10.47-.77-15.16,1.34-4.69,2.11-8.48,6.87-8.11,11.99.26,3.69,2.61,7.01,5.64,9.12,3.03,2.12,6.68,3.17,10.33,3.78,8.94,1.51,18.41.52,26.49-3.58,8.08-4.1,16.45-10.98,16.29-20.29Z"/>
                    </g>
                    <path class="cls-22" d="M175.45,239.21c-2.92,3.1-7.13,4.4-9.1,1.88-1.82-2.32,2.01-3.56,3.36-4.52,2.24-1.58,3.38-6.31,7.66-5.23,1.38.35,2.57,1.39,3.3,2.7.21,1.33-.35,2.35-1.18,3.41s-3.05,1.89-4.04,1.76Z"/>
                    <path class="cls-13" d="M137.78,240.5c-.51.62-.85,1.59-.3,2.17.22.24.55.36.73.63.32.49-.04,1.16.08,1.74.11.54.63.9,1.15,1.08,1.6.55,3.55-.29,4.24-1.84.26-.58.37-1.26.82-1.72.44-.45,1.12-.6,1.51-1.09,1.58-2.04-2.04-2.84-3.24-2.91-1.85-.11-3.76.47-4.98,1.94Z"/>
                    <path class="cls-20" d="M150.78,239.34c-.97.88-1.94,1.76-2.91,2.64-.38.35-.79.74-.87,1.26-.08.54.25,1.07.69,1.39s.99.45,1.52.56c2.49.51,5.06.61,7.57.28,1.1-.14,2.38-.51,2.74-1.56.33-.96-.3-1.98-1-2.71-1.94-2.02-5.29-4.08-7.75-1.85Z"/>
                    <path class="cls-17" d="M136.09,252.18c.05.95.4,1.92,1.14,2.51,1.03.83,2.5.73,3.81.6.66-.07,1.33-.14,1.95-.39.61-.25,1.17-.73,1.37-1.36.25-.8-.13-1.69-.74-2.27-.6-.58-1.39-.92-2.16-1.25-.65-.28-1.3-.55-1.96-.83-.48-.2-.97-.41-1.49-.42-1.78-.05-1.99,2.07-1.93,3.41Z"/>
                    <path class="cls-23" d="M147.18,253.12c.19,1.17,1.01,2.21,2.1,2.67.76.32,1.61.37,2.44.41,1.33.07,2.67.13,4,.2.63.03,1.27.06,1.86-.14.59-.2,1.14-.69,1.21-1.31.11-.92-.76-1.63-1.54-2.14-1.23-.8-2.47-1.59-3.68-2.42-.73-.51-1.48-1.24-2.39-1.4-2.29-.39-4.36,1.93-4,4.13Z"/>
                    <path class="cls-19" d="M161.5,247.04c-.67.49-1.13,1.36-.9,2.15.12.43.43.79.56,1.22.26.9-.33,1.9-.05,2.79.25.79,1.12,1.25,1.95,1.28.83.03,1.63-.29,2.4-.59,1.94-.78,3.89-1.55,5.83-2.33.81-.32,1.64-.66,2.25-1.28.61-.62.93-1.61.54-2.38-.42-.83-1.5-1.12-2.43-.98s-1.77.58-2.66.85c-.89.27-1.94.33-2.68-.23-.77-.58-1.16-1.61-2.27-1.53-.75.05-1.92.6-2.51,1.03Z"/>
                  </g>
                </g>
              </g>
              <g>
                <g>
                  <path class="cls-25" d="M206.51,149.47c.02-.1.04-.2.06-.3-.01,0-.03,0-.04,0,.89-4.28,1.17-10.71-4.53-12.52.03-.09.07-.17.1-.26l.15.2s5.02-12.34-9.42-12.81c-.52-4.97-3.27-8.88-11.66-6.33-1.08-1.04-2.3-1.93-3.63-2.63-3.42-1.8-7.57-2.33-11.41-1.44-1.94.44-3.85,1.28-5.16,2.72-.05.06-.1.11-.14.17-10.87-2.9-14.55,2.85-15.75,7.9-2.04,1-3.95,2.25-5.65,3.73-1.7,1.48-3.26,3.28-3.65,5.43-.39,2.15.79,4.64,2.99,5.15-3.08,1.31-5.12,3.95-5.26,6.73-.14,2.78,1.65,5.52,4.3,6.62-.79,1.71-.95,3.9-.27,5.82.68,1.92,2.19,3.54,4.1,4.41,2.06-16.35,5.47-21.54,5.47-21.54h0c3.23-.56,6.15-2.44,7.82-5.07-.58,1.2.26,2.67,1.5,3.21,1.24.55,2.7.38,4.03.02,3.56-.95,6.74-3.22,8.72-6.22-1.19,2.02.1,4.75,2.27,5.72,2.17.96,4.83.45,6.91-.75,2.08-1.2,3.69-3,5.27-4.76,1.15,3.87,4.71,6.96,8.87,7.69-1.36,7.71,1.43,15.91,7.24,21.29,1.01-.6,1.95-.89,2.9-1.18.1-.2.2-.39.3-.59,3.77-1.73,9.67-5.5,3.57-10.39ZM200.4,139.11l2.92,8.21c-.39-.11-.75-.34-.98-.65-1.4-1.95-2.29-5.04-1.94-7.56Z"/>
                  <path class="cls-8" d="M162.38,128.27c6.63-.7,13.3-1.03,19.96-.99,4.21.02,8.53.22,12.39,1.87,5.62,2.41,9.68,7.8,11.33,13.78,1.65,5.98,1.08,12.46-.78,18.42-2.68,8.6-8.1,16.42-15.51,21.43-7.41,5-16.8,7.03-25.37,4.94-8.57-2.09-16.1-8.42-19.21-16.79-2.16-5.79-2.2-12.25-1.05-18.38.97-5.18,2.79-10.26,5.78-14.59,2.99-4.33,6.95-9.11,12.46-9.69Z"/>
                  <g>
                    <g>
                      <path class="cls-56" d="M179.88,164.45c-.61-2.4,1.75-5.08,5.27-5.98,3.52-.9,6.88.32,7.49,2.72.61,2.4-1.75,5.08-5.27,5.98-3.52.9-6.88-.32-7.49-2.72Z"/>
                      <path class="cls-6" d="M176.41,158.75c-.15-2.05,1.05-3.81,2.69-3.93,1.64-.12,3.09,1.44,3.25,3.49.15,2.05-1.05,3.81-2.69,3.93-1.64.12-3.09-1.44-3.25-3.49Z"/>
                    </g>
                    <g>
                      <path class="cls-56" d="M154.3,166.14c.13-1.93-1.86-3.79-4.44-4.15-2.58-.36-4.77.91-4.9,2.84-.13,1.93,1.86,3.79,4.44,4.15,2.58.36,4.77-.91,4.9-2.84Z"/>
                      <path class="cls-6" d="M156.89,160.21c-.15-2.05-1.61-3.61-3.25-3.49-1.64.12-2.85,1.88-2.69,3.93.15,2.05,1.61,3.61,3.25,3.49,1.64-.12,2.85-1.88,2.69-3.93Z"/>
                    </g>
                    <path class="cls-50" d="M148.25,155.65c2.15-3.15,6.32-5.07,10.26-4.73-1.24-2.23-4.54-3.21-7.08-2.1-2.54,1.11-3.91,4.14-3.18,6.83Z"/>
                    <path class="cls-59" d="M174.45,149.73c4.36-1.54,9.58-.41,12.43,2.7-.07-1.78-.54-3.58-1.71-4.98-1.17-1.39-3.11-2.32-5.11-2.1-1.4.16-2.72.86-3.71,1.8-.99.94-1.67,2.11-1.91,2.58Z"/>
                    <path class="cls-12" d="M167.11,164.96c-1.43.7-3.32.25-4.28-1.01-.96-1.26-.89-3.21.16-4.4"/>
                  </g>
                  <path class="cls-50" d="M200.25,136.04l3.85,1.17s2.76,6.11,2.92,6.52,1.56,5.78.92,5.77-2.26.93-3.01-.62-2.26-2.14-2.84-5.06c-.59-2.93-1.84-7.77-1.84-7.77Z"/>
                  <path class="cls-50" d="M209.33,150.21c.02-.1.04-.2.06-.3-.01,0-.03,0-.04,0,.9-4.37,1.19-10.93-4.58-12.78.03-.09.07-.18.1-.26l.15.21s5.09-12.59-9.54-13.07c-.53-5.07-3.32-9.06-11.81-6.46-1.1-1.06-2.33-1.97-3.67-2.69-3.46-1.84-7.67-2.37-11.56-1.47-1.96.45-3.9,1.3-5.23,2.78-.05.06-.1.12-.15.17-11.01-2.96-14.74,2.91-15.95,8.06-2.07,1.02-4,2.3-5.73,3.8-1.72,1.51-3.3,3.35-3.69,5.54-.39,2.19.8,4.73,3.03,5.25-3.12,1.34-5.19,4.03-5.32,6.87-.14,2.84,1.67,5.63,4.36,6.75-.8,1.75-.96,3.98-.27,5.94.69,1.96,2.22,3.61,4.15,4.5,2.09-16.68,5.54-21.98,5.54-21.98h0c3.28-.57,6.23-2.49,7.92-5.17-.59,1.22.27,2.72,1.52,3.28,1.25.56,2.74.39,4.09.02,3.61-.97,6.83-3.29,8.83-6.35-1.2,2.06.1,4.85,2.3,5.83,2.2.98,4.89.46,7-.77,2.11-1.22,3.74-3.06,5.34-4.86,1.17,3.95,4.78,7.1,8.99,7.84-1.37,7.87,1.45,16.23,7.33,21.72,1.02-.61,1.98-.91,2.94-1.2.1-.2.2-.4.3-.6,3.82-1.76,9.8-5.61,3.61-10.6ZM203.14,139.64l2.95,8.38c-.4-.12-.76-.34-.99-.66-1.42-1.99-2.32-5.14-1.97-7.71Z"/>
                  <path class="cls-8" d="M198.93,162.57c1.45-2.99,5.02-4.79,8.29-4.18,3.27.61,5.95,3.56,6.24,6.88.28,3.22-1.52,6.33-3.95,8.45-2.08,1.82-4.71,3.1-7.47,3.23-2.76.13-5.64-.99-7.31-3.19"/>
                </g>
                <g class="cls-46">
                  <path class="cls-38" d="M167.12,182.21c2.68-.22,4.95-1.78,6.89-3.92,1.74-1.92,2.85-4.1,2.67-6.78-.1-1.55-.4-1.67-1.98-1.39-4.41.77-8.75,2.03-13.25,2.15-1.05.03-2.11-.25-3.16-.37-.3-.04-.68-.1-.76.28-.08.33.3.42.53.49,2.16.75,3.23,2.4,3.8,4.49.21.75.44,1.5.66,2.25.49,1.66,2.28,2.83,4.6,2.8ZM170.72,175.69c.87-.12,1.4.56,2.03.92.42.24.33.78-.18.98-.34.13-.74.12-1.12.16-2.3.23-4.47.83-6.41,2.12-.58.39-.89.46-1.25-.36-.88-2.02-1.36-4.26-3.01-5.89-.13-.12-.31-.3-.16-.49.16-.2.41-.16.63-.11.3.07.39.35.5.58,1.09,2.31,3,2.84,5.38,2.65,1.22-.1,2.39-.42,3.59-.56ZM174.53,171.15c-1.61,3.48-7.2,5.39-10.51,3.61-.47-.25-.91-.56-1.22-1-.15-.21-.41-.45-.24-.7.09-.13.4-.14.61-.14,2.94-.12,5.81-.71,8.68-1.32.88-.18,1.73-.58,2.68-.44ZM165.31,180.82c2.28-1.55,4.73-2.22,7.48-2.61-1.97,2.38-5.33,3.56-7.48,2.61Z"/>
                  <path class="cls-11" d="M170.72,175.69c-1.2.14-2.37.47-3.59.56-2.38.19-4.28-.34-5.38-2.65-.11-.23-.2-.51-.5-.58-.22-.05-.48-.1-.63.11-.15.19.04.37.16.49,1.65,1.63,2.13,3.87,3.01,5.89.36.82.67.75,1.25.36,1.94-1.3,4.11-1.9,6.41-2.12.38-.04.78-.03,1.12-.16.51-.2.6-.73.18-.98-.63-.36-1.16-1.04-2.03-.92Z"/>
                  <path class="cls-3" d="M174.53,171.15c-.95-.14-1.8.26-2.68.44-2.87.6-5.74,1.19-8.68,1.32-.21,0-.53.01-.61.14-.17.25.09.49.24.7.31.45.75.75,1.22,1,3.32,1.78,8.91-.13,10.51-3.61Z"/>
                  <path class="cls-60" d="M165.31,180.82c2.15.94,5.51-.24,7.48-2.61-2.74.4-5.2,1.06-7.48,2.61Z"/>
                </g>
              </g>
            </g>
          </g>
        </g>
      </g>
    </g>
  </g>
</svg>