<?xml version="1.0" encoding="UTF-8"?>
<svg xmlns="http://www.w3.org/2000/svg" xmlns:xlink="http://www.w3.org/1999/xlink" viewBox="0 0 230.4 360">
  <defs>
    <style>
      .cls-1 {
        clip-path: url(#clippath-6);
      }

      .cls-2 {
        clip-path: url(#clippath-7);
      }

      .cls-3 {
        fill: #000500;
      }

      .cls-4 {
        clip-path: url(#clippath-4);
      }

      .cls-5 {
        fill: #f9efdb;
      }

      .cls-6 {
        fill: #f0b892;
      }

      .cls-7 {
        clip-path: url(#clippath-9);
      }

      .cls-8 {
        fill: #564585;
      }

      .cls-9 {
        fill: #60927a;
      }

      .cls-10 {
        fill: #8fc4c2;
      }

      .cls-11 {
        fill: #fff;
      }

      .cls-12 {
        fill: #f7a98d;
      }

      .cls-13, .cls-14, .cls-15, .cls-16 {
        fill: none;
      }

      .cls-17 {
        fill: #e7e2fe;
      }

      .cls-18 {
        clip-path: url(#clippath-1);
      }

      .cls-19 {
        fill: #b4d34b;
      }

      .cls-20 {
        fill: #fa4564;
      }

      .cls-21 {
        isolation: isolate;
      }

      .cls-22 {
        clip-path: url(#clippath-5);
      }

      .cls-23 {
        fill: #ffbe45;
      }

      .cls-24 {
        clip-path: url(#clippath-8);
      }

      .cls-25 {
        opacity: .91;
      }

      .cls-26 {
        fill: #976b4a;
      }

      .cls-27 {
        clip-path: url(#clippath-3);
      }

      .cls-28 {
        fill: #a1d6d4;
      }

      .cls-29 {
        fill: #896244;
      }

      .cls-30 {
        fill: #1e0c0a;
      }

      .cls-31 {
        fill: #fec2a0;
      }

      .cls-32 {
        fill: #349cd6;
      }

      .cls-33 {
        mix-blend-mode: multiply;
      }

      .cls-34 {
        fill: #3777b3;
      }

      .cls-14 {
        stroke: #6dc5de;
      }

      .cls-14, .cls-16 {
        stroke-miterlimit: 10;
        stroke-width: 4px;
      }

      .cls-35 {
        fill: #ece8fe;
      }

      .cls-15 {
        stroke: #1c1c1b;
        stroke-linejoin: round;
        stroke-width: 1.52px;
      }

      .cls-36 {
        fill: #f2d98d;
        opacity: .55;
      }

      .cls-37 {
        fill: #76aece;
      }

      .cls-38 {
        fill: #1f9ef2;
      }

      .cls-39 {
        clip-path: url(#clippath-2);
      }

      .cls-40 {
        fill: #8b5e3c;
      }

      .cls-16 {
        stroke: #00aeef;
      }

      .cls-41 {
        fill: #001f00;
      }

      .cls-42 {
        fill: #5f412a;
      }

      .cls-43 {
        fill: #d98c6d;
        opacity: .26;
      }

      .cls-44 {
        fill: #3e2336;
      }

      .cls-45 {
        clip-path: url(#clippath);
      }
    </style>
    <clipPath id="clippath">
      <rect class="cls-13" x="-250.4" y="-376.85" width="230.4" height="360" rx="12.28" ry="12.28"/>
    </clipPath>
    <clipPath id="clippath-1">
      <rect class="cls-13" x="-250.45" y="-375.67" width="230.5" height="359.6"/>
    </clipPath>
    <clipPath id="clippath-2">
      <rect class="cls-13" x="-250.4" width="230.4" height="360" rx="12.28" ry="12.28"/>
    </clipPath>
    <clipPath id="clippath-3">
      <path class="cls-13" d="M-71.46,90.54v125.62h-118.88v-90.72h-2.85c-.94,0-1.71-.76-1.71-1.7s.77-1.71,1.71-1.71c.26,0,.51.06.74.17.37-.71,1.11-1.2,1.98-1.2.05,0,.09,0,.13,0v-19.12c.09-20.02,14.42-37.31,34.97-45.25h50.57c16.54,6.39,29.05,18.84,33.33,33.9Z"/>
    </clipPath>
    <clipPath id="clippath-4">
      <rect class="cls-13" x="-250.4" width="229.91" height="248.7"/>
    </clipPath>
    <clipPath id="clippath-5">
      <rect class="cls-13" width="230.4" height="360" rx="13.21" ry="13.21"/>
    </clipPath>
    <clipPath id="clippath-6">
      <path class="cls-13" d="M194.21,276.44c-23.61-2.28-43.54,14.19-64.81,3.21,1-22.16,2.56-40.16,3.92-70.34,13.29-2,26.49-2.83,40.95-3.14,4.44,13.09,17.26,60.9,19.94,70.28Z"/>
    </clipPath>
    <clipPath id="clippath-7">
      <path class="cls-13" d="M159.36,242.43c-7.78-4.17-24.63-19.77-33.25-32.24,1.66-2.9,3.53-6.34,5.66-10.79,13.29.54,26.64-.34,40.01-2.6,3.38,2.29,6.76,5.53,10.04,8.72-3.47,12.45-12.56,28.5-22.46,36.91Z"/>
    </clipPath>
    <clipPath id="clippath-8">
      <rect class="cls-13" x="2.38" y="242.94" width="117.06" height="117.06"/>
    </clipPath>
    <clipPath id="clippath-9">
      <rect class="cls-13" x="112.09" y="245.59" width="119.68" height="114.41"/>
    </clipPath>
  </defs>
  <g class="cls-21">
    <g id="Layer_1" data-name="Layer 1">
      <g class="cls-45">
        <g class="cls-18">
          <path class="cls-19" d="M-144.07,40.5c8.34-3.73,16.8-7.33,25.43-10.06,8.1-2.56,17.13-3.06,25.31-4.16,7.45-1,16.24-3,24.22-2.63,13.5.62,26.97,3.17,40.26,5.23,4.82.75,9.57,1.84,14.25,3.25,13.44,4.05,26.61,9.98,39.34,15.75C43.07,10.05,45.22-24.14,29.87-63.5c-6.79-17.41-.07-29.66,13.14-41.88h-345.43C-315.35-24.06-213.4,11.25-144.07,40.5Z"/>
        </g>
      </g>
      <g class="cls-39">
        <g>
          <g class="cls-27">
            <image width="7349" height="2450" transform="translate(-726.36 55.72) scale(.1)" xlink:href="../../../../../Users/victus/Downloads/15251042_17Z_2104.w026.n002.352B.p1.352.jpg"/>
          </g>
          <path class="cls-15" d="M-85.48,243.41v61.6s.18,12.26,9.97,12.26H10.3"/>
          <g class="cls-4">
            <g class="cls-33">
              <g>
                <rect class="cls-17" x="81.95" y="69.94" width="19.83" height="8.97"/>
                <rect class="cls-17" x="81.95" y="92.13" width="19.83" height="8.97"/>
                <rect class="cls-17" x="70.85" y="81.04" width="19.83" height="8.97"/>
                <rect class="cls-17" x="93.04" y="81.04" width="9.03" height="8.97"/>
              </g>
              <rect class="cls-35" x="75.24" y="160.54" width="19.54" height="8.68"/>
            </g>
          </g>
        </g>
      </g>
      <g class="cls-22">
        <g>
          <rect class="cls-5" x="-1.37" width="230.63" height="310.21"/>
          <g>
            <rect class="cls-36" x="-1.37" y="208.8" width="230.4" height="150.54"/>
            <g>
              <rect class="cls-41" x="17.43" y="114.62" width="178.81" height="113.42" rx="18.1" ry="18.1"/>
              <rect class="cls-9" x="21.27" y="117.82" width="171.2" height="107.03" rx="11.46" ry="11.46"/>
              <g>
                <path class="cls-11" d="M49.57,143.98c-.16-.06-.32-.1-.48-.13.06-.05.11-.1.17-.15.46-.48.86-1.1.84-1.79-.03-.34-.15-.63-.33-.89-.01-.35-.12-.7-.34-.97-.18-.14-.39-.21-.61-.25-.98-1-2.77-.85-4.26-.36-.96.15-1.87.56-2.52,1.28-.11.14-.28.28-.23.48.04.17.24.24.39.17.02,0,.04,0,.06,0,.11,0,.21-.02.31-.04-.06.04-.13.07-.19.11-.3.18-.03.64.27.46,1.02-.64,1.82-.93,2.93-1.3.21-.06.42-.12.62-.17.17,0,.34.02.52.05.8.11,1.65.61,2.03,1.27-.19.42-.56.82-1,1.18-.21.12-.42.24-.65.37-.49.24-1.28.51-2.04.7-.23.06-.35.08-.44.09.03,0-.24.02-.28.1,0,0,0,0,0,.01-.19.03-.42.09-.5.27-.26.1-.43.24-.38.46.05.11.13.19.22.25,0,.08.02.17.09.23.16.13.38.12.58.13.06.06.16.08.24.03.03-.02.06-.03.08-.05.21-.01.42-.04.63-.08.76-.03,1.5-.28,2.19-.63.14,0,.28.02.42.04.09.03.18.06.26.09.83.29,1.47.83,1.78,1.46-.05.6-.38,1.2-.96,1.7-.57.45-1.6.93-2.41,1.21-.41.14-.84.26-1.25.36-.48.07-.98.12-1.47.12-.27.02-.55-.03-.82.02-.06.01-.11.05-.15.09-.06,0-.13,0-.19-.01-.53.02-.54.72-.02.81.15.03.32.1.48.1.51.13,1.04.19,1.56.17.6-.03,1.18-.16,1.76-.32.93-.16,1.84-.47,2.66-.96,1.2-.69,2.36-1.84,2.3-3.33,0-1.13-.87-1.97-1.86-2.38ZM47.74,143.7s.04-.02.06-.03c.4-.2.77-.43,1.08-.71-.05.14-.12.28-.22.41-.07.11-.2.23-.36.35-.19-.01-.38-.02-.57-.02ZM49.5,142.45c0-.08,0-.16-.02-.25.03-.05.05-.1.08-.15,0,0,0,0,0,0,0,0,0-.01,0-.02,0-.02.01-.04.02-.05,0,.19-.03.33-.09.48ZM48.39,140.58c.17.08.32.17.46.27.01.05.02.1.02.15-.14-.16-.31-.3-.49-.42Z"/>
                <path class="cls-11" d="M59.5,142.43c-.08-.09-.2-.13-.34-.09-.34.08-1.04,1.04-1.6,1.68-.18.22-.38.46-.59.71,0-.01-.02-.02-.02-.04-.09-.14-.18-.27-.28-.4-.19-.33-.38-.66-.57-.99-.09-.14-.22-.19-.35-.16-.12-.13-.23-.27-.35-.4-.13-.18-.37-.3-.56-.12-.13.13-.09.29,0,.43.14.94.89,1.66,1.42,2.42.02.02.04.05.05.07-.49.59-.96,1.15-1.27,1.5-.03.04-.07.09-.1.13-.21.2-.05.59.25.58.03,0,.06-.01.08-.02-.04.04-.08.1-.11.25,0,.22.24.39.44.29.39-.29.64-.75.95-1.12.17-.23.33-.46.49-.7.05.06.11.13.16.19.13.23.27.47.4.7.1.17.2.34.3.5.09.17.17.34.29.49-.02-.03-.04-.05-.06-.08.09.1.15.24.28.29.23.11.52-.08.51-.34,0-.07-.02-.13-.05-.18.13.07.24.08.33.04.54-.34-.03-.7-.43-1.09-.42-.41-.81-.85-1.18-1.3.28-.39.55-.79.83-1.18.19-.28.38-.55.57-.82.19-.22.39-.44.61-.63.11-.11.28-.2.28-.37,0-.2-.23-.33-.4-.24Z"/>
                <path class="cls-11" d="M68.95,147.24c-.08-.1-.18-.17-.29-.22,0-.13-.06-.26-.18-.33-.2-.09-.18-.04-.44-.05-.43.02-.85.06-1.28.09-.02,0-.04,0-.07,0,0-.15,0-.31.03-.45.03-.34.06-.69.08-1.03.19-1.95.41-3.9.51-5.86,0-.19.02-.4-.08-.56-.12-.21-.41-.29-.62-.16-.06.03-.11.08-.15.13-.06.01-.12.03-.19.05-.9.36-1.5,1.16-2.14,1.85-.24.27-.47.54-.68.83-.12.15-.22.34-.17.54.38.88,1.54-.22,2-.55.24-.18.49-.43.73-.68-.14,1.46-.34,2.89-.49,4.09-.06.53-.12,1.06-.17,1.59,0,.07-.01.14-.02.21-.12,0-.25,0-.37,0-.29,0-.58.02-.87.05-.17,0-.35.07-.44.22-.07.13-.08.25-.05.35-.18.12-.26.36-.14.54.08.13.22.19.37.21-.03,0-.04,0,.03,0,0,0,0,0,0,0,0,0,.02,0,.02,0,0,0-.01,0-.02,0,.4.05.8.07,1.2.09,1.18.09,2.83-.02,3.63-.2.33-.08.49-.5.26-.77Z"/>
                <path class="cls-11" d="M77.13,141.7c-.75-.11-1.52.02-2.27.04-.28.02-.57.04-.85.08-.12.01-.26.05-.34.15-.09.08-.13.19-.12.3-.17.04-.34.09-.49.13-.33.23-.05.78.33.66,1.09-.21,1.89-.34,2.8-.44.27-.03.54-.07.8-.09.14-.01.29-.02.39-.13.24-.23.07-.65-.25-.7Z"/>
                <path class="cls-11" d="M76.58,144.91c-.07-.02-.17-.04-.17-.03-.06-.02-.13-.03-.19-.03-.07-.15-.22-.28-.39-.27-.19.02-.39.05-.58.07-.41.05-.74.11-1.04.15-.26-.01-.52-.02-.78-.02-.19,0-.39.03-.53.13-.01,0-.02,0-.03,0-.43.11-.44.75,0,.86.28.03.53.01.78-.01.16,0,.32,0,.48-.01.04,0,.08,0,.13,0,.06.05.13.08.22.08.45-.02.9-.03,1.35-.03.21,0,.43.03.58-.04.16,0,.32-.03.42-.17.2-.23.06-.61-.23-.68Z"/>
                <path class="cls-11" d="M49.88,162.83c-.54-.71-1.41-.96-2.28-1.11.02-.01.04-.02.06-.04.53-.39,1.12-.76,1.43-1.35.52-1,.45-2.31-1.15-2.61-1.66-.44-3.41.3-4.51,1.55-.3.36-.89.98-.49,1.29.26.2.51-.03.72-.21.02-.01.04-.02.05-.04.01-.01.02-.02.03-.03.02-.02.04-.03.06-.05.49-.4.71-.56,1.29-.94.64-.39,1.41-.73,1.99-.81.33,0,.57.08.69.26.21.5-.82,1.79-2.04,2.77-.1.08-.46.38-.53.44,0,0,0,0-.01.01,0,0-.01.01-.02.02-.28.16-.48.51-.22.78.15.16.37.14.57.11,1.4-.17,1.93,0,2.52.86.59,1.04.18,2.11-.83,2.76-.16.1-.31.19-.46.28-.41.19-.85.33-1.29.41-.55.09-.51.1-.79.12-.53-.05-1.07-.25-1.62-.63-.31-.2-.74.04-.72.41.02.38.42.59.7.77.83.44,1.79.56,2.71.45,1.05-.09,2-.6,2.84-1.21.61-.44,1.19-.95,1.45-1.68.36-.8.36-1.84-.15-2.57ZM49.21,163.23c.16.2.23.51.24.84-.02-.23-.08-.45-.2-.62-.15-.25-.34-.44-.55-.61.26.12.46.25.51.39ZM48.71,159.57c-.07.31-.2.54-.39.75.2-.31.35-.65.41-1.07,0-.1,0-.2-.03-.29.07.2.03.39,0,.61Z"/>
                <path class="cls-11" d="M57.73,161.29c.2-.24.41-.49.67-.79.32-.33-.17-.83-.5-.5-.04.04-.08.09-.12.13-.04.01-.09.03-.12.06-.33.25-.93.95-1.57,1.74-.23-.45-.46-.91-.72-1.34-.12-.1-.26-.09-.37-.02-.22-.18-.59.03-.51.34.21.5.61,1.13,1,1.77-.62.79-1.2,1.57-1.54,1.99-.1.16-.27.3-.29.5-.06.27.24.52.5.44.15-.07.26-.19.38-.34.09.05.21.06.37-.01.37-.35.79-.91,1.21-1.53.45.75.97,1.76,1.29,2.12.29.22.6,0,.64-.27.05-.09.07-.2.03-.32-.41-.83-.87-1.64-1.38-2.42.19-.29.38-.59.57-.86.12-.19.3-.45.45-.68Z"/>
                <path class="cls-11" d="M67.36,164.31c-.98.08-2.58.16-3.55.2-.08-.02-.13-.03-.17-.04.83-.96,3.86-3.72,3.79-6.04-.14-1.12-.62-1.91-1.87-1.71-.07,0-.14.02-.21.04-.22-.03-.45-.03-.67,0-.9.1-1.69.6-2.31,1.24-.23.27-.44.55-.61.86-.1.2-.22.43-.09.64.18.29.57.22.8.03.29-.2.57-.42.86-.63.09,0,.17-.03.24-.1.07-.08.13-.15.2-.21.8-.54,1.57-.89,2.08-.75.26.27.36.7.17,1.28-.26,1.07-1.19,2.33-1.84,3.12-.44.55-.9,1.09-1.32,1.67-.32.4-.71,1.09-.12,1.43.1.05.21.07.32.09.02.01.04.02.06.03.38.22.87.25,1.29.11.06-.02.13-.04.19-.07,0,0,0,0,0,0,.02,0,.03-.01.05-.02.41,0,.83-.06,1.23-.1.47-.07.95-.08,1.42-.15.02,0,.05,0,.07,0h0c.06-.02.12-.02.18-.04.46-.18.31-.89-.18-.88Z"/>
                <path class="cls-11" d="M75.48,158.75c-.56-.23-1.21-.15-1.81-.18-.32,0-.64,0-.96.01-.16.02-.36,0-.49.11-.15.11-.18.26-.15.41-.11.05-.2.11-.26.23-.12.24.09.56.36.55.88-.05,1.77-.12,2.65-.13,0,0,0,0,.01,0,0,0,0,0,.01,0,.03,0,.06,0,.08,0,0,0,0,0,0,0,.12,0,.24-.06.32-.16.08-.01.16-.03.24-.07.29-.16.29-.6-.01-.75Z"/>
                <path class="cls-11" d="M75.23,162.13s0,0,0,0c.05-.22-.07-.47-.3-.53-.23-.05-.49.06-.96.16-.34.08-.68.18-1.03.26-.15.01-.29.04-.4.15-.27.24-.11.73.25.76.08,0,.15,0,.23-.01.02,0,.03,0,.05,0,.54,0,1.09-.03,1.63-.03.09,0,.19,0,.28,0,0,0,.01,0,.01,0,.09,0,.18,0,.25-.05.27-.15.27-.57,0-.71Z"/>
                <path class="cls-11" d="M48.83,178.87c-.32-.55-.76-1.16-1.44-1.47.19-.33.33-.69.41-1.07.45-1.92-1.44-2.79-3.08-2.63-1.1.12-2.1.65-2.93,1.37-.39.36-.67.51-.81.86-.1.44.41.63.73.39.58-.34,1.25-.73,1.82-1.01.16.11.38.07.57.04.16-.04.23-.18.22-.31.1-.04.22-.07.34-.11.31-.04.89-.07,1.09.03.07,0,.34.21.38.32.25.28-.09.79-.24,1.01-.22.25-.39.42-.57.57-.33.21-.71.43-1.12.64-.1.03-.18.09-.24.17-.5.28-.88.69-.48,1.2.24.22.6.16.89.1.25.17.65.11,1.01,0,0,0,0,0,.01,0,.99.05,1.93.35,2.34.96-.02.46-.12.96-.3,1.28-.25.53-.48.72-.96,1.23-.99.94-2.05,1.61-3.35,1.92-.24.05-.25.03-.38.12-.08.05-.14.15-.14.25,0,.01,0,.02,0,.03-.13.03-.26.06-.39.1-.43.07-.98.38-.71.88.32.44.97.3,1.45.32,1.32-.03,2.57-.6,3.63-1.37,1.07-.82,2.19-1.83,2.53-3.19.05-.37.06-.76.02-1.14.08-.5,0-1.01-.3-1.48ZM46.41,177.17c.09-.08.19-.15.28-.23.03-.03.05-.05.08-.08-.06.11-.12.22-.19.33-.06-.01-.11-.02-.17-.02Z"/>
                <path class="cls-11" d="M56.83,177.66c.32-.46.74-.87.98-1.38.1-.32-.24-.65-.56-.53-.16.05-.27.18-.38.31-.03.02-.06.04-.08.07-.48.51-.88,1.07-1.28,1.65-.17-.39-.33-.76-.48-1.1-.08-.19-.15-.34-.19-.45,0,.02,0,0-.01-.04-.09-.2-.15-.5-.41-.52-.36-.04-.49.33-.35.61.05.11.09.23.14.34,0,.03-.01.05-.01.08.11.73.35,1.44.59,2.15-.6.9-1.31,1.75-1.83,2.7-.12.35.29.68.61.48.13-.12.25-.26.38-.43.03-.02.06-.05.09-.09.18-.22.15-.19.4-.53.23-.31.47-.65.72-1,.22.65.41,1.32.79,1.9.14.14.35.15.51.06.12.26.22.48.38.64.26.23.71,0,.7-.34.02-.26-.98-2.01-1.36-2.96-.07-.15-.14-.31-.2-.46.02-.03.04-.06.06-.08.3-.39.58-.76.8-1.06Z"/>
                <path class="cls-11" d="M69.44,178.06c-.09-.58-.35-1.16-.84-1.5-.33-.22-.69-.4-1.07-.54.35-.22.69-.47,1.02-.72.29-.27.43-.64.53-1.01.13-.38.16-.8.04-1.18-.16-.67-.86-1.15-1.58-1.25-.28-.06-.56-.08-.84-.07-.39-.04-.78-.05-1.17,0-.61.1-1.2.3-1.75.58-.44.26-.93.52-1.24.94-.18.28-.03.67.29.76.44.17,1.35,0,1.42-.01.98-.17,2.3-.62,2.93-.63,0,0,0,0,.01,0,.03,0,.09.02.14.03,0,0,.01,0,.02.01.02.02.05.05.08.07.02.03.04.07.06.1.02.05.03.09.04.14,0-.01,0-.03,0-.05.08.39-1.11,1.1-2.25,1.62-.59.27-1.2.51-1.78.8-.23.12-.49.21-.64.44-.14.23-.07.54.16.67.28.14.61.12.92.17.49.07,1.65.18,2.1.26.62.16.58.19.8.29.68.39.66,1.2-.03,1.96-.67.68-1.26,1.08-2.25,1.59-.41.21-1.07.4-1.76.7-.15.08-.33.12-.47.2-.03,0-.06.02-.13.05-.19.08-.36.23-.36.44,0,.21.16.37.35.42.08.09.2.15.34.14,1.74.06,3.47-.48,4.88-1.48,1.51-1.06,2.35-2.44,2.04-3.96ZM67.95,179.88c.09-.18.15-.35.2-.52-.02.13-.05.25-.09.38-.08.16-.19.32-.32.48.08-.11.15-.22.22-.34ZM64.88,172.97s.05-.02.08-.03c.62-.19,1.12-.28,1.51-.26-.54.1-1.07.25-1.6.38.01-.03.02-.07.02-.1Z"/>
                <path class="cls-11" d="M77.85,174.34c-.43.04-1.27.1-2,.19-.31.04-.62.09-.92.14-.19.02-.38.09-.48.26-.12.2-.05.49.16.61.37.16.81.01,1.2-.01.31-.04,1.38-.21,1.64-.34.02,0,.03-.01.04-.02.1-.01.2-.02.3-.04.06-.01.12-.02.17-.04,0,0,0,0,0,0,.05-.01.1-.03.13-.07.3-.2.12-.71-.24-.7Z"/>
                <g>
                  <path class="cls-11" d="M77.09,178.15c0-.06-.02-.11-.05-.16-.03-.06-.09-.1-.14-.13,0,0,0,0,0,0,0,0,0,0,0,0-.02-.01-.05-.02-.08-.03-.03-.01-.06-.02-.08-.02,0,0,0,0,0,0,0,0-.02,0-.03,0-.28.03-.18.02-.55.08.02,0,.07,0,.09-.01-.46.07-.89.22-1.35.31,0,0,0,0,0,0-.21.02-.44,0-.63.09-.11-.03-.23,0-.32.05-.33.18-.26.72.11.81.86.18,1.75.18,2.62.07.3-.06.68-.03.86-.32.2-.36-.09-.67-.44-.72Z"/>
                  <path class="cls-11" d="M76.15,177.89s-.02,0-.01,0c0,0,0,0,.01,0Z"/>
                </g>
                <path class="cls-11" d="M50.67,198.67c-.08-.71-.35-1.43-.77-2.01-.6-.82-1.53-1.36-2.5-1.62-.28-.07-.57-.1-.86-.12.13-.22.22-.45.24-.71.17-.27.27-.57.26-.9-.16-1.81-2.7-1.22-3.56-.8-.36.15-.73.31-1.07.5-.14.06-.27.11-.41.17-.03.01-.06.03-.08.04,0-.01-.12.05-.16.07-.12.07-.26.12-.33.24-.1.16-.04.39.13.48.3.14.6-.12.89-.2,1.53-.63,3.1-.67,3.26-.24,0,0,0,0,0,.01-.02.02-.04.06-.05.08-.33.37-.44.42-.88.69-.62.34-1.28.62-1.82,1.08-.2.18-.22.4-.14.57-.08.21.07.41.27.45.03.07.09.13.16.17.21.12.47.02.69-.01.17-.05.34-.11.53-.19,1.22-.23,2.76.06,3.81.72.27.25.42.41.53.58.01.01.03.04.04.07.16.79-.1,1.96-.64,2.81-.4.68-.89,1.08-1.7,1.55-.55.3-.96.51-1.4.68-.51.09-.87.1-1.6.16-.91.08-1.27.16-2.22.21-.47.04-.57.69-.15.86.07.12.2.22.35.26.7.25,1.46.25,2.2.24,1.03-.03,2.04-.26,2.97-.71,1.22-.61,2.42-1.42,3.16-2.58.07-.12.13-.24.18-.37.08-.11.16-.23.23-.35.32-.57.5-1.22.47-1.88Z"/>
                <path class="cls-11" d="M57.02,199.42s0,0,0,0c-.02-.02-.04-.04-.05-.06-.01-.01-.02-.02-.02-.03-.04-.05-.09-.1-.13-.15-.09-.1-.19-.19-.28-.29,0-.01,0-.02,0-.03-.3-.72-.71-1.36-1.19-1.96.34-.68.64-1.33.84-1.83.23-.43.46-.86.7-1.28.07-.26-.17-.53-.44-.45-.2.06-.29.28-.41.44-.29.44-.58.88-.87,1.31-.2.3-.4.59-.6.89-.1-.11-.2-.22-.3-.32-.18-.2-.3-.33-.4-.45-.07-.11-.13-.22-.19-.33-.03-.06-.09-.19-.15-.2-.04-.03-.08-.04-.13-.04-.27-.24-.74.09-.53.44,0,0,0,0,0,0,.02.03.04.06.05.09.27.41.65,1.02,1.06,1.67-.28.41-.55.82-.83,1.24-.24.42-.6.81-.73,1.28.06-.16.03-.2,0-.02-.03.14.05.24.15.3-.03.08-.04.17-.02.26.05.22.34.32.53.21.09-.06.16-.13.23-.21.46.19.87-.83,1.08-1.14.13-.23.26-.47.39-.71.81,1.19,1.64,2.2,2.1,2.07.3-.07.38-.48.16-.68Z"/>
                <path class="cls-11" d="M68.03,193.77c-.18-.14-.43-.15-.65-.18-.34-.02-.7-.04-1.07-.05.04-.45.08-.9.11-1.34.06-.55.15-1.48.19-1.72.02-.14.07-.28-.01-.41-.07-.14-.23-.18-.36-.16-.02-.06-.06-.12-.12-.17-.08-.07-.18-.09-.27-.07-.54-.09-.52.85-.63,1.24-.14.7-.35,2.12-.42,2.6-1.09,0-2.11.07-2.72.2.05-.19.09-.39.15-.58.04-.16.09-.35.14-.55.04-.11.07-.21.11-.32.31-.71.68-1.55.72-1.85.01-.02,0-.02.02-.05.02-.05.02-.04.03-.07.01-.05.02-.1.03-.16.06-.13.13-.25.09-.39-.02-.09-.09-.16-.17-.2-.12-.14-.32-.2-.5-.14-.25.11-.4.33-.53.56,0,0,0,0,0,0-.08.16-.16.33-.24.48-.39.86-.7,1.76-.92,2.67-.1.4-.19.87-.17.96.09.89,1.16.94,1.86.96.44,0,.87-.02,1.31-.04.18,0,.37,0,.55-.02-.14.86-.28,1.73-.42,2.59-.17,1.14-.36,1.74-.33,2.87.06.32.51.43.7.16.04-.06.07-.13.09-.2.05.02.1.02.15.02,0,.01.01.02.02.03.22.31.73.11.71-.27.21-1.55.49-3.4.71-5.32.41-.03.83-.07,1.24-.12.07-.02.12-.05.16-.09.03,0,.07,0,.1-.02.13-.02.26-.05.36-.14.26-.17.24-.58,0-.76Z"/>
                <path class="cls-11" d="M75.02,194.26c-.12-.13-.29-.14-.46-.14-.17,0-.35,0-.52-.01-.06-.08-.14-.14-.25-.15-.71-.1-1.43-.03-2.15,0-.26.03-.54,0-.78.11-.18.1-.29.34-.19.53.11.31.5.27.77.3.19.01.38.02.57.02.02.02.04.03.07.04.05.02.09.03.12.04.16.09.17.03.32.07.71.02,1.43,0,2.14-.06.02,0,.04,0,.06,0,0,0,0,0,0,0,.04,0,.08,0,.12,0,.32-.08.43-.52.2-.74Z"/>
                <path class="cls-11" d="M73.74,196.98c-.11-.13-.23-.12-.31-.12-.02,0-.05,0-.07,0-.1,0-.2,0-.3,0-.14,0-.28.01-.42.02-.33-.07-.67-.07-1.01-.09-.23,0-.48-.02-.69.08-.27.14-.28.47-.1.67.04.17.18.32.43.34.37,0,.72-.05,1.04-.09.08,0,.16-.01.24-.02.15,0,.31-.01.46-.02.31-.03.77.06.88-.33.04-.22-.03-.35-.14-.43Z"/>
              </g>
              <rect class="cls-3" x="13.82" y="227.84" width="185.48" height="5" rx="1.14" ry="1.14"/>
              <g>
                <rect class="cls-42" x="25.29" y="219.18" width="21.01" height="8.66" rx="1.98" ry="1.98"/>
                <rect class="cls-26" x="23.92" y="219.18" width="21.01" height="8.66" rx="1.98" ry="1.98"/>
                <rect class="cls-29" x="23.92" y="221.82" width="21.01" height="3.61"/>
              </g>
              <path class="cls-11" d="M95.63,195.32c-.16,6.7-.06,13.42.28,20.1.03.6.07,1.24.32,1.72.24.47.63.7,1.02.86,1.4.61,2.91.66,4.33.13.39-.15.79-.35,1.06-.77.46-.7.48-1.78.47-2.75-.06-6.57-.35-13.13-.86-19.66-.02-.3-.05-.61-.17-.85-.12-.24-.31-.37-.5-.48-1.76-1.04-3.8-1.02-5.96,1.69Z"/>
              <g>
                <g>
                  <path class="cls-6" d="M109.63,214.81c-.24-1.45-.47-2.89-.71-4.34-.18-1.08-.35-2.17-.77-3.18-.41-1.01-1.08-1.96-2.02-2.47-1.06-.58-2.36-.54-3.46-.07-1.09.46-2,1.3-2.74,2.25-1.36-1.02-2.82-1.51-4.31-1.61-.46-.03-.93-.03-1.37.1-.96.28-1.68,1.1-2.15,2.01-.57,1.1-.83,2.35-1.05,3.59-.27,1.51-.49,3.05-.36,4.6.13,1.54.66,3.1,1.7,4.22.63.67,1.41,1.16,2.2,1.61,2.12,1.2,4.36,2.15,6.74,2.96,3-1.19,5.59-3.41,7.29-6.24.63-1.05,1.18-2.24.99-3.42Z"/>
                  <path class="cls-40" d="M105.05,209.34c-.27-.3-.44.1-.58.3-.3.43-.41.58-.71.99-.31.44-1.22,1.5-1.75,1.8-.37.25-.87.39-1.19.42-1.03.03-1.32-1.12-1.35-2.12-.04-.8.02-1.25.21-2.01.16-.61.25-.91.54-1.46.51-.93,1.18-1.71,2.18-2.31.31-.17.51-.27.86-.37.11-.05.29-.04.38-.12.04-.06-.03-.16-.1-.13-.88.14-1.67.62-2.37,1.17-.2.16-.68.58-.95.92-.46.6-.79,1.31-1,2.05-.15.53-.27,1.27-.27,2.01-.38-.21-.82-.3-1.23-.43-.73-.21-1.47-.4-2.21-.52-.1-.01-.2-.02-.29-.03-.03-.02-.06-.03-.09-.03-.43-.05-.96-.19-1.49-.08-.71.1-1.61.69-1.87,1.16-.08.16.09.36.26.31.15-.07.16-.13.29-.21.14-.15.67-.42.78-.46.24-.11,1.14-.23,1.09-.22.3-.06.48-.08.68-.1,1.37.14,2.7.54,4.09,1,0,0,0,0,0,0,.07,1.24.52,2.39,1.76,2.46.73-.05,1.31-.32,1.83-.7.04.05.02.02.09.13.1.24.19.37.18.74-.04.29-.29.84-.56,1.1-.05.07-.13.1-.22.15-.04-.04-.09-.08-.14-.12-.98-.7-2.19-.78-3.32-.96-1.25-.14-2.52-.33-3.78-.22-.71.08-1.42.27-2.06.6-.22.11-.43.25-.62.41-.16.14-.33.46-.4.58-.05.1-.15.19-.13.31.03.12.2.15.26.04.31-.48.68-.83,1.33-1.1,0,0,0,0,0,0,.36-.16.93-.34,1.45-.42,1.28-.2,3.25.07,4.61.27.91.14,1.77.35,2.43.83.41.36.64.78.46,1.22-.33.71-.83,1.03-1.35,1.37-.68.42-1.2.62-1.98.83-.32.09-.64.17-.96.25-.14.01-.3.11-.22.28.04.07.11.09.18.1.01,0,.03,0,.04.01-.07-.01.18.04.23.06.54.15.9.29,1.32.51.49.26.93.61,1.23,1.06.09.13.17.25.2.36.03.08.05.16.12.21.15.1.34-.06.29-.23-.42-1.18-1.54-1.9-2.69-2.18.06-.01.11-.03.17-.04.94-.2,1.86-.53,2.67-1.07.99-.69,1.74-1.77.91-2.76.21-.12.38-.32.51-.53.18-.28.33-.6.39-.94.08-.36-.07-.91-.27-1.14.41-.36.77-.79,1.15-1.24.32-.41.62-.83.91-1.26.09-.15.27-.33.12-.51Z"/>
                </g>
                <path class="cls-10" d="M183.96,271.83c3.45.17,6.83,1.61,10.25,4.61-17.14,8.48-37.48,10.29-55.85,4.97,14.18-4.68,28.81-10.42,45.6-9.57Z"/>
                <g>
                  <path class="cls-31" d="M186.74,297.05c4.72-1.4,10.37,1.33,13.54,7.56-8.73,4.42-18.34,6.62-28.24,6.33-1.13-3.4-1.01-7.26.13-10.31,4.72-1.1,9.46-2.07,14.57-3.59Z"/>
                  <path class="cls-44" d="M199.56,302.9c.88,1.19,1.41,2.64,1.49,4.41-9.12,3.96-19.14,5.83-29.17,5.37-.43-1.28-.72-2.61-.77-3.88,9.6-.52,19.14-2.27,28.45-5.91Z"/>
                  <path class="cls-44" d="M183.44,308.05c.04-4.77,3.2-9.36,7.56-11.24,2.51-.17,5.08.97,6.76,3.04-1.47.17-2.84,1-3.68,2.22-.83,1.22-1.12,2.8-.75,4.23-3.01.5-6.04.99-9.89,1.74Z"/>
                </g>
                <path class="cls-38" d="M184.13,261.97c1.81,8.68,5.46,24.9,7.75,33.99-5.54,3.02-14.52,6.13-20.77,6.95-1.85-7.13-6.64-24.56-8.49-31.69,6.8-2.48,13.6-4.94,21.51-9.26Z"/>
                <g>
                  <path class="cls-31" d="M139.42,298.44c-4.92-.34-9.83,3.55-11.58,10.32,9.48,2.43,19.34,2.49,28.94.06.37-3.57-.59-7.31-2.36-10.03-4.84-.06-9.69.02-15-.34Z"/>
                  <path class="cls-44" d="M128.18,306.93c-.6,1.36-.8,2.89-.5,4.63,9.76,1.89,19.95,1.55,29.64-1.08.14-1.35.14-2.7-.08-3.95-9.49,1.57-19.18,1.93-29.06.4Z"/>
                  <path class="cls-44" d="M145.03,308.47c-1.07-4.64-5.15-8.45-9.82-9.33-2.49.38-4.76,2.05-5.95,4.44,1.47-.15,2.99.36,4.08,1.37s1.7,2.49,1.65,3.97c3.06-.17,6.12-.34,10.04-.44Z"/>
                </g>
                <path class="cls-38" d="M158.89,263.38c-.92,8.82-2.07,28.41-2.65,37.77-7.43-.13-14.85-1.02-22.11-2.65.4-7.36,1.05-25.5,1.45-32.85,7.23-.28,14.46-.57,23.31-2.27Z"/>
                <path class="cls-6" d="M197.2,199.61c-1.87-2.29-5.43-5.28-4.45-8.24.67-2.02,3.88.84,5.74,1.95.38-2.11.34-9.92,3.06-9.92,2.11,0,1.63,3.69,1.74,6.05,1.17-9.13,7.21-9.29,4.69.75,1.4-3.07,2.54-6.77,4.84-5.82,1.65.68-.46,5.42-1.5,7.74,1.35-1.98,4.55-5.33,5.03-2.27.44,2.85-5.6,18.71-12.6,13.18-2.21.61-4.72-1.15-6.56-3.42Z"/>
                <path class="cls-37" d="M180.56,232.29c7.52,2.6,18.63,5.35,22.08,3.45,4.79-2.63,6.59-20.82,8.85-31.56-4.83-.16-7.63-1.03-13.84-4.04-1.13,4.15-3.31,11.51-4.77,11.92-2.18.63-9.44-5.62-15.43-8.54-3.08,8.8-.31,20.85,3.11,28.77Z"/>
                <path class="cls-37" d="M143.25,231.93c-5.53,5.72-17.24,13.19-21.17,13.06-5.46-.18-17.46-11.68-24.33-20.23,4.24-2.32,8.12-4.52,12.3-10.02,2.89,3.19,9.02,7.62,10.51,7.34,2.23-.42,9.36-11.03,13.39-16.34,3.26,7.78,8.78,17.58,9.31,26.19Z"/>
                <g>
                  <path class="cls-23" d="M194.21,276.44c-23.61-2.28-43.54,14.19-64.81,3.21,1-22.16,2.56-40.16,3.92-70.34,13.29-2,26.49-2.83,40.95-3.14,4.44,13.09,17.26,60.9,19.94,70.28Z"/>
                  <path class="cls-28" d="M131.69,216.41c6.17,11.84,15.74,21.89,27.46,29,9.69-7.66,16.48-18.9,18.75-31.04-15.27,2.5-30.88,2.93-46.21,2.04Z"/>
                  <g class="cls-1">
                    <g>
                      <path class="cls-16" d="M127.29,272.04c6.74,4.1,15.22,4.25,22.98,2.8s15.19-4.34,22.92-5.94c7.73-1.6,16.16-1.79,23.13,1.91"/>
                      <path class="cls-16" d="M194.53,261.98c-7.28-2.8-15.47-1.81-23.01.18-7.54,1.99-14.87,4.94-22.59,6.01-7.73,1.07-16.24-.01-22.07-5.19"/>
                    </g>
                  </g>
                </g>
                <g>
                  <path class="cls-38" d="M159.36,242.43c-7.78-4.17-24.63-19.77-33.25-32.24,1.66-2.9,3.53-6.34,5.66-10.79,13.29.54,26.64-.34,40.01-2.6,3.38,2.29,6.76,5.53,10.04,8.72-3.47,12.45-12.56,28.5-22.46,36.91Z"/>
                  <g class="cls-2">
                    <path class="cls-14" d="M127.45,205.1c9.17,11.52,18.87,22.95,31.42,31.62,8.82-10.49,16.56-23.51,21.33-36.72"/>
                  </g>
                </g>
                <path class="cls-32" d="M184.5,175.55c0,.97-.04,1.94-.13,2.88-1.46,16.44-15.27,29.33-32.09,29.33-17.8,0-32.21-14.42-32.21-32.21,0-11.56,6.08-21.7,15.23-27.38,4.93-3.06,10.75-4.83,16.99-4.83,17.79,0,32.21,14.42,32.21,32.21Z"/>
                <path class="cls-34" d="M136.06,201.16c-4.61-3.65-7.16-9.41-8.11-15.21-.95-5.8-.46-11.74.39-17.76-3.44,10.11-2.53,22.61,3.13,31.95,5.66,9.34,15.03,13.8,25.28,15.57,9.96-2.83,18.63-9.89,23.46-19-11.57-6.61-23.52-12.54-35.37-17.99-1.69,7.6-4.75,14.9-8.77,22.45Z"/>
                <path class="cls-6" d="M181.63,192.96c0,8.18-11.57,14.8-25.84,14.8-11.93,0-21.97-4.63-24.95-10.92v-.02c0-2.39.3-5.06.88-7.88,1.51-7.48,4.91-15.97,9.52-22.64,4.34-6.28,9.75-10.96,15.68-11.7,6.15.87,11.4,4.43,15.41,9.56,3.95,5.06,6.7,11.62,7.91,18.63.21,1.23.38,2.48.5,3.72h0c-.02,1.37.18,2.75.56,4.08.22.77.33,1.57.33,2.38Z"/>
                <path class="cls-12" d="M180.24,182.78c-1.86-5.19-4.12-10.28-7.62-14.52-3.94-4.77-9.68-8.37-15.86-8.44-12.1,5.62-21.21,16.55-25.04,29.12,1.51-7.48,4.91-15.97,9.52-22.64,4.34-6.28,9.75-10.96,15.68-11.7,6.15.87,11.4,4.43,15.41,9.56,3.95,5.05,6.7,11.62,7.91,18.62Z"/>
                <path class="cls-8" d="M172.32,164.16c-10.07-3.5-21.59-2.7-31.08,2.14,4.34-6.28,9.75-10.96,15.68-11.7,6.15.87,11.4,4.44,15.4,9.56Z"/>
                <path class="cls-38" d="M184.5,175.55c0,.97-.04,1.94-.13,2.88-1.83-10.55-8.12-20.35-17.19-26.1-9.34-5.93-21.32-7.36-31.88-4.15,4.93-3.06,10.75-4.83,16.99-4.83,17.79,0,32.21,14.42,32.21,32.21Z"/>
                <g class="cls-25">
                  <path class="cls-43" d="M169.3,188.31c2.78-.38,5.25.93,5.53,2.94.27,2-1.75,3.93-4.53,4.32-2.78.38-5.25-.93-5.53-2.94-.27-2,1.75-3.93,4.53-4.32Z"/>
                  <ellipse class="cls-43" cx="144.89" cy="193.47" rx="5.08" ry="3.66"/>
                </g>
                <path class="cls-30" d="M140.57,180.44c0-.92.52-1.81,1.22-2.44.71-.63,1.6-1.04,2.53-1.21.93-.17,1.91-.11,2.79.22.88.33,1.67.92,2.09,1.73-.87-.27-1.63-.41-2.39-.45-.75-.04-1.48.01-2.2.14-.72.13-1.42.34-2.1.65-.67.31-1.32.71-1.96,1.36Z"/>
                <path class="cls-30" d="M171.11,177.68c-.74-.52-1.45-.81-2.16-1-.72-.19-1.45-.28-2.17-.29-.73,0-1.46.07-2.19.23s-1.46.44-2.27.85c.28-.87.96-1.59,1.77-2.06.82-.47,1.77-.71,2.71-.7s1.89.26,2.7.77c.8.5,1.47,1.29,1.62,2.2Z"/>
                <path class="cls-30" d="M150.91,189.17c.29-1.73-.55-3.32-1.87-3.54s-2.63,1.01-2.92,2.74c-.29,1.73.55,3.32,1.87,3.54,1.32.22,2.63-1.01,2.92-2.74Z"/>
                <path class="cls-30" d="M164.94,186.19c.29-1.73,1.6-2.96,2.92-2.74,1.32.22,2.16,1.81,1.87,3.54-.29,1.73-1.6,2.96-2.92,2.74s-2.16-1.81-1.87-3.54Z"/>
                <g>
                  <path class="cls-44" d="M151.26,199.24c.42,1.74,1.51,3.36,3.06,4.29,2.8,1.67,6.68,1.08,9.05-1.17.59-.57,1.09-1.21,1.48-1.92,1.2-2.12,1.5-4.75.84-7.11-.11.02-.21.04-.31.06-4.54.88-9.11,1.61-13.7,1.68-.11.23-.21.46-.3.7-.37,1.1-.39,2.31-.11,3.46Z"/>
                  <path class="cls-20" d="M151.26,199.24c.42,1.74,1.51,3.36,3.06,4.29,2.8,1.67,6.68,1.08,9.05-1.17.59-.57,1.09-1.21,1.48-1.92-1.88-1.83-4.41-2.98-7.03-3.1-2.32-.11-4.64.6-6.55,1.9Z"/>
                  <path class="cls-11" d="M151.37,195.78c3.89,1.06,8.1.95,11.93-.31.84-.28,1.51-.89,1.89-1.68.06-.13.13-.27.18-.39-4.54.88-9.11,1.61-13.7,1.68-.11.23-.21.46-.3.7Z"/>
                </g>
              </g>
            </g>
            <g class="cls-24">
              <g>
                <path class="cls-41" d="M13.17,369.17c4.73-15.6,13.77-33.42,25.55-41.12-4.98-4.76-9.59-9.63-11.41-20.26-1.34-7.79-1.51-13.38,3.51-24.16-2.42,1.89-6.73,1.5-9.76-.76-3.03-2.27-4.75-6.18-4.79-10.07-.04-3.89,1.5-7.7,3.92-10.66,1.89-2.31,4.38-4.19,7.23-4.81,3.65-.79,7.45.55,10.6,2.64,1.6,1.06,3.1,2.35,4.1,4.02s1.43,3.8.82,5.66c7.43-4.96,15.5-7.47,23.5-7.2,8,.26,15.9,3.3,22.51,8.22-.96-1.7-1.96-3.6-1.59-5.53.18-.94.68-1.78,1.16-2.6,1.11-1.87,2.26-3.77,3.92-5.12,1.44-1.17,3.19-1.85,4.95-2.33,2.48-.68,5.1-.99,7.62-.45,6.03,1.31,10.42,8.15,9.29,14.47-1.13,6.32-7.6,11.04-13.96,11.05,5.11,9.07,6.49,20.34,3.73,30.45-2.76,10.12-10.58,19.12-17.17,21.56,18.53,16.61,17.3,36.15,17.48,37.76.04.38.08.78-.1,1.12-.29.54-88.39,2.6-91.09-1.88Z"/>
                <path class="cls-41" d="M54.02,259.38c-.51-1.07-1.82-.9-2.77-.72-2.15.45-3.63,2.3-4.78,4.11-.12.19-.25.38-.39.59.17-.66.31-1.32.39-2,.22-2.05.62-6.34-1.95-6.88-.82-.15-1.57.5-1.92,1.23-.28.67-.22,1.44-.27,2.16-.02,1.9-.06,3.81.18,5.7.21,1.39.36,3.33.14,4.3-.16.8-.29.98-.55,1.64-.08.41.44.64.7.37.22.11.49.1.7-.12.04-.06.08-.12.12-.19.08-.04.16-.09.23-.14.38-.22.77-.44,1.15-.66,1.72-.97,3.38-2.06,4.96-3.26,1.49-1.21,5.21-3.87,4.05-6.13ZM43.38,258.09c.03-1.53.04-2.11.65-2.48.36-.25.87.3,1.08.96.48,1.32.31,3.62.12,4.85-.28,1.9-.85,3.34-1.51,4.83,0-.69-.07-1.4-.15-2.17-.24-1.98-.2-3.99-.19-5.98ZM47.21,265.92c-.71.48-1.43.92-2.16,1.35.19-.31.38-.61.59-.9,2.19-3.24,3.72-6.75,7.02-6.53,0,0,0,0,.01,0,.06.01.12.03.18.04,0,0,0,0,0,0,0,0,.01.01.02.02.04.06.07.12.1.18.01.03.03.08.04.13,0,0,0,0,0,0,0,1.55-3.59,4.19-5.8,5.7Z"/>
                <path class="cls-41" d="M89.78,261.11c.02-1.09-.03-2.19-.21-3.26-.14-.85-.35-1.77-.98-2.38-1.76-1.52-3.4,1.19-3.52,2.86-.17,1.52-.06,3.2.26,4.88-.81-1.3-1.69-2.54-2.72-3.54-.46-.42-.97-.88-1.61-.93-.65-.04-1.28.46-1.43,1.12-.23,1.14.44,2.24.92,3.22,1.04,1.92,2.57,3.49,4.19,4.88,1.07.97,2.12,1.99,3.38,2.68.19.1.38.21.6.21.31,0,.61-.27.63-.6.02-.11,0-.22-.03-.33.04-.15.02-.32-.07-.46,0,0,0,0,0-.01-.02-.41,0-.83.03-1.24.24-2.37.53-4.73.58-7.12ZM86.42,257.84c1.3-3.32,2.21-.64,2.11,3.45-.08,1.96-.21,3.91-.47,5.86-.02.16-.03.33-.05.49-1.33-2.92-2.21-7.01-1.59-9.8ZM83.15,264.75c-.78-.89-1.31-1.66-1.98-2.97-.18-.39-.29-.63-.45-1.34,0-.04,0-.09,0-.13.01-.06.02-.11.04-.16,0,0,0,0,0,0,.02-.02.04-.04.06-.06.01,0,.03-.02.05-.03,0,0,.01,0,.02,0,.01,0,.03,0,.04,0,.01,0,.03,0,.05.01.17.08.33.19.48.31.02.02.04.04.07.06,1.83,1.69,2.8,3.65,4.25,5.96.35.63.72,1.26,1.1,1.87-.35-.3-.69-.63-1.18-1.08-.87-.78-1.76-1.54-2.54-2.43Z"/>
                <path class="cls-41" d="M32.37,299.47c-1.12-1.41-2.52-2.73-4.33-3.26-2.8-.82-5.92.51-7.86,2.53-2.28,2.38-3.29,5.74-2.66,8.85.63,3.11,2.89,5.92,5.95,7.4,1.29.62,2.73,1.02,4.18.97,3.98-.14,7.03-3.67,7.6-7.27.55-3.47-1.05-6.92-2.88-9.21Z"/>
                <path class="cls-41" d="M99.56,302.91c1.09-1.36,2.46-2.64,4.22-3.15,2.73-.79,5.77.49,7.66,2.44,2.23,2.3,3.21,5.55,2.6,8.56-.61,3.01-2.81,5.72-5.8,7.16-1.25.6-2.66.99-4.08.94-3.88-.13-6.85-3.55-7.41-7.03-.54-3.36,1.02-6.69,2.8-8.91Z"/>
              </g>
            </g>
            <g class="cls-7">
              <path class="cls-41" d="M153.37,333.79c-.17.16-.35.32-.52.48-6.14-2.7-11.16-7.86-13.69-14.08-3.35.73-6.77-.32-9.2-2.51-2.43-2.19-3.81-5.49-3.68-8.76.09-2.35,1-4.73,2.74-6.32,1.74-1.59,4.37-2.25,6.56-1.39-.16-7.03,1.06-14.08,3.57-20.65-1.66-1.13-3.47-2.45-4.49-4.34-1.02-1.89-1.02-4.52.6-5.93,1.93-1.69,4.91-.88,7.31.02-1.2-1.54-2.43-3.14-2.89-5.04-.45-1.9.11-4.19,1.8-5.15,2.31-1.31,5.12.37,7.24,1.98-1.06-2.09-1.85-4.39-1.69-6.73.16-2.34,1.44-4.7,3.59-5.64.94-.41,2.05-.52,2.97-.07.59.29,1.05.79,1.51,1.26,3.21,3.3,7.2,5.83,11.36,7.54,5.42,3.73,12.71,2.26,19.22,3.18,9.92,1.4,18.41,8.87,22.34,18.08,3.94,9.21,3.85,16.52.83,26.07,3.26-.58,6.62.75,8.56,4.9,1.87,4.01-1.58,10.17-4.17,12.23-2.59,2.05-6.19,2.61-9.43,2.05-2.05,4.97-5.9,9.18-10.68,11.65,6.57,6.82,11.84,14.9,14.27,24.64-8.77,1.96-17.84,2.11-26.82,2.25-14.45.22-28.91.45-43.36.36,1.32-11.42,7.51-22.19,16.15-30.1Z"/>
            </g>
          </g>
        </g>
      </g>
    </g>
  </g>
</svg>